<?xml version="1.0" encoding="utf-8"?>
<!-- Generator: Adobe Illustrator 21.1.0, SVG Export Plug-In . SVG Version: 6.00 Build 0)  -->
<svg version="1.1" id="Layer_1" xmlns="http://www.w3.org/2000/svg" xmlns:xlink="http://www.w3.org/1999/xlink" x="0px" y="0px"
	 viewBox="0 0 60 60" style="enable-background:new 0 0 60 60;" xml:space="preserve">
<style type="text/css">
	.st0{fill:none;stroke:#000000;stroke-width:2;stroke-linecap:round;stroke-linejoin:round;stroke-miterlimit:10;}
	.st1{fill:none;stroke:#BA0C2F;stroke-width:2;stroke-linecap:round;stroke-linejoin:round;stroke-miterlimit:10;}
	.st2{fill:#BA0C2F;}
	.st3{fill:none;stroke:#000000;stroke-width:2;stroke-linecap:round;stroke-linejoin:round;}
</style>
<g>
	<path class="st0" d="M278-156.6c0-12.2,9.8-22,22-22s22,9.8,22,22"/>
	<path class="st0" d="M322.3-139.6c0,8.8-7.2,16-16,16"/>
	<rect x="319.5" y="-156.1" class="st0" width="5" height="15.5"/>
	<rect x="275.5" y="-156.1" class="st0" width="5" height="15.5"/>
	<path class="st0" d="M303.3-121.4h-6.5c-1.2,0-2.3-1-2.3-2.3l0,0c0-1.2,1-2.3,2.3-2.3h6.5c1.2,0,2.3,1,2.3,2.3l0,0
		C305.5-122.4,304.5-121.4,303.3-121.4z"/>
	<path class="st1" d="M291.3-140.6c0,4.8,3.9,8.8,8.8,8.8s8.8-3.9,8.8-8.8H291.3z"/>
	<path class="st0" d="M324.5-144.4c2.2,0,4-1.8,4-4s-1.8-4-4-4V-144.4z"/>
	<path class="st0" d="M275.5-152.4c-2.2,0-4,1.8-4,4s1.8,4,4,4V-152.4z"/>
	<path class="st1" d="M296.5-147.6c0-1.7-1.3-3-3-3s-3,1.3-3,3"/>
	<path class="st1" d="M309.5-147.6c0-1.7-1.3-3-3-3s-3,1.3-3,3"/>
	<path class="st1" d="M284.5-154.6c5,0,11-8,8-17c3,9,8,18,23,16"/>
</g>
<g>
	<path class="st0" d="M375.5-138.5v-38c0-1.1,0.9-2,2-2h39c1.1,0,2,0.9,2,2v46c0,5-4,9-9,9h-39c-5,0-9-4-9-9v-2c0-1.1,0.9-2,2-2h39
		c1.1,0,2,0.9,2,2v1c0,5,5,6,5,6"/>
	<line class="st1" x1="392.5" y1="-168.5" x2="411.5" y2="-168.5"/>
	<line class="st1" x1="382.5" y1="-168.5" x2="386.5" y2="-168.5"/>
	<line class="st1" x1="407.5" y1="-157.5" x2="411.5" y2="-157.5"/>
	<line class="st1" x1="382.5" y1="-157.5" x2="401.5" y2="-157.5"/>
	<line class="st1" x1="397.5" y1="-146.5" x2="411.5" y2="-146.5"/>
	<line class="st1" x1="382.5" y1="-146.5" x2="391.5" y2="-146.5"/>
	<circle class="st1" cx="389.5" cy="-168.5" r="3"/>
	<circle class="st1" cx="404.5" cy="-157.5" r="3"/>
	<circle class="st1" cx="394.5" cy="-146.5" r="3"/>
</g>
<g>
	<path class="st0" d="M584.5-73.5c-0.6-0.4-1.2-0.7-1.8-1"/>
	<path class="st0" d="M593.4-63.5c-0.7-1.8-1.7-3.5-2.9-5"/>
	<path class="st0" d="M586.5-42.8c3.2-2.3,5.6-5.3,6.9-8.7"/>
	<path class="st0" d="M557.8-39.8c3.5,1.5,7.5,2.3,11.7,2.3c4.5,0,8.8-1,12.5-2.7"/>
	<path class="st0" d="M556.3-74.5c-7.1,3.5-11.8,9.8-11.8,17c0,6.2,3.5,11.7,9,15.4"/>
	<path class="st1" d="M579-70.7c-2.8-1.3-6-2-9.5-2s-6.7,0.7-9.5,2"/>
	<polyline class="st0" points="593.5,-63.5 598.5,-63.5 598.5,-51.5 593.5,-51.5 	"/>
	<path class="st0" d="M544.5-57.5L544.5-57.5c-1.7,0-3-1.3-3-3v-4"/>
	<path class="st1" d="M563.2-71.9c-2-1.7-3.2-4.3-3.2-7.1c0-5.2,4.3-9.5,9.5-9.5s9.5,4.3,9.5,9.5c0,2.9-1.3,5.4-3.2,7.1"/>
	<polyline class="st0" points="553.5,-42.1 553.5,-31.5 560.5,-31.5 561.1,-38.7 	"/>
	<polyline class="st0" points="578.9,-39 579.5,-31.5 586.5,-31.5 586.5,-42.8 	"/>
	<polyline class="st0" points="584.5,-73.5 591,-77 590.5,-68.5 	"/>
	<path class="st0" d="M583-63.9c0-1.4,1.1-2.5,2.5-2.5s2.5,1.1,2.5,2.5"/>
	<path class="st1" d="M567.5-81.5c0-1.1,0.9-2,2-2"/>
	<line class="st1" x1="567.5" y1="-81.5" x2="567.5" y2="-76.5"/>
	<line class="st1" x1="566.5" y1="-76.5" x2="571.5" y2="-76.5"/>
	<line class="st1" x1="567.5" y1="-80.5" x2="569.5" y2="-80.5"/>
</g>
<g>
	<path class="st1" d="M223.5-140c0-1.1,0.9-2,2-2"/>
	<line class="st1" x1="223.5" y1="-140" x2="223.5" y2="-135"/>
	<line class="st1" x1="222.5" y1="-135" x2="227.5" y2="-135"/>
	<line class="st1" x1="223.5" y1="-139" x2="225.5" y2="-139"/>
	<g>
		<path class="st1" d="M224.5-124c-3.9,0-7.4-1.6-9.9-4.1c-2.5-2.5-4.1-6-4.1-9.9s1.6-7.4,4.1-9.9"/>
		<path class="st1" d="M224.5-152c3.9,0,7.4,1.6,9.9,4.1c2.5,2.5,4.1,6,4.1,9.9s-1.6,7.4-4.1,9.9"/>
		<polyline class="st1" points="210.5,-149 216.4,-149 216.4,-143.1 		"/>
		<polyline class="st1" points="238.5,-127 232.6,-127 232.6,-132.9 		"/>
	</g>
	<path class="st0" d="M194.5-134v5c0,1.1-0.9,2-2,2h-6c-1.1,0-2-0.9-2-2v-5"/>
	<path class="st0" d="M238.5-148.4c0-2.3-0.8-4.6-2.3-6.4l-2.7-3.2"/>
	<line class="st0" x1="190.5" y1="-134" x2="206.9" y2="-134"/>
	<path class="st0" d="M186.5-158l-2.7,3.2c-1.5,1.8-2.3,4.1-2.3,6.4v11.4c0,1.7,1.3,3,3,3"/>
	<path class="st0" d="M233.5-158l-4.7-12.3c-1.1-2.8-3.6-4.8-6.5-5.2c-2.3-0.3-7.6-0.6-12.3-0.6s-10,0.2-12.3,0.6
		c-3,0.4-5.5,2.4-6.5,5.2l-4.7,12.3"/>
	<path class="st0" d="M228.9-158l-3.6-9.5c-0.8-2.2-2.8-3.7-5.1-4c-1.8-0.2-6.5-0.4-10.2-0.4s-8.4,0.2-10.2,0.4
		c-2.3,0.3-4.2,1.8-5.1,4l-3.6,9.5H228.9z"/>
	<circle class="st0" cx="190.5" cy="-148.5" r="3"/>
	<line class="st0" x1="233.5" y1="-158" x2="238.5" y2="-158"/>
	<line class="st0" x1="181.5" y1="-158" x2="186.5" y2="-158"/>
	<polyline class="st0" points="207.5,-145 199.5,-145 199.5,-139 205.5,-139 	"/>
	<circle class="st0" cx="203" cy="-165.5" r="2.5"/>
	<path class="st0" d="M213-159c0-2.2,1.8-4,4-4s4,1.8,4,4"/>
	<path class="st0" d="M199-159c0-2.2,1.8-4,4-4s4,1.8,4,4"/>
	<circle class="st0" cx="217" cy="-165.5" r="2.5"/>
</g>
<g>
	<path class="st0" d="M-75.5-44v5c0,1.1-0.9,2-2,2h-6c-1.1,0-2-0.9-2-2v-5"/>
	<path class="st0" d="M-31.5-58.4c0-2.3-0.8-4.6-2.3-6.4l-2.7-3.2"/>
	<line class="st0" x1="-79.5" y1="-44" x2="-63.1" y2="-44"/>
	<path class="st0" d="M-83.5-68l-2.7,3.2c-1.5,1.8-2.3,4.1-2.3,6.4V-47c0,1.7,1.3,3,3,3"/>
	<path class="st0" d="M-36.5-68l-4.7-12.3c-1.1-2.8-3.6-4.8-6.5-5.2C-50-85.8-55.3-86-60-86s-10,0.2-12.3,0.6
		c-3,0.4-5.5,2.4-6.5,5.2L-83.5-68"/>
	<path class="st0" d="M-41.1-68l-3.6-9.5c-0.8-2.2-2.8-3.7-5.1-4C-51.6-81.8-56.3-82-60-82s-8.4,0.2-10.2,0.4
		c-2.3,0.3-4.2,1.8-5.1,4l-3.6,9.5H-41.1z"/>
	<circle class="st0" cx="-79.5" cy="-58.5" r="3"/>
	<line class="st0" x1="-36.5" y1="-68" x2="-31.5" y2="-68"/>
	<line class="st0" x1="-88.5" y1="-68" x2="-83.5" y2="-68"/>
	<polyline class="st0" points="-62.5,-55 -70.5,-55 -70.5,-49 -64.5,-49 	"/>
	<circle class="st0" cx="-67" cy="-75.5" r="2.5"/>
	<path class="st0" d="M-57-69c0-2.2,1.8-4,4-4s4,1.8,4,4"/>
	<path class="st0" d="M-71-69c0-2.2,1.8-4,4-4s4,1.8,4,4"/>
	<circle class="st0" cx="-53" cy="-75.5" r="2.5"/>
	<circle class="st1" cx="-45.5" cy="-48" r="14"/>
	<g>
		<line class="st1" x1="-45.5" y1="-44" x2="-45.5" y2="-47"/>
		<line class="st1" x1="-45.5" y1="-40" x2="-45.5" y2="-40"/>
		<path class="st1" d="M-45.5-55c2.2,0,4,1.8,4,4s-1.8,4-4,4"/>
		<path class="st1" d="M-48.7-53.4c0.7-0.9,1.9-1.6,3.2-1.6"/>
	</g>
</g>
<g>
	<g>
		<path class="st1" d="M478-159.3c0-1.4,1.1-2.5,2.5-2.5"/>
		<line class="st1" x1="478" y1="-159.3" x2="478" y2="-153.1"/>
		<line class="st1" x1="476.8" y1="-153.1" x2="483" y2="-153.1"/>
		<line class="st1" x1="478" y1="-158" x2="480.5" y2="-158"/>
	</g>
	<line class="st0" x1="470.5" y1="-174.5" x2="498.5" y2="-174.5"/>
	<line class="st0" x1="462.5" y1="-174.5" x2="464.5" y2="-174.5"/>
	<path class="st0" d="M484.5-134.5v7l1,0h2c3.3,0,6,2.7,6,6v0h-27v0c0-3.3,2.7-6,6-6h2l1,0v-8l0-2.5c-8.1-2-14.1-9.4-14.1-18.1
		v-22.4h37.3v22.4c0,10.3-8.3,18.6-18.6,18.6"/>
	<line class="st0" x1="508.5" y1="-169.5" x2="499.5" y2="-169.5"/>
	<path class="st0" d="M508.5-169.5c0,0,0,5,0,7c0,4-2,10-10,11"/>
	<path class="st0" d="M461.5-151.5c-8-1-10-7-10-11c0-2,0-7,0-7h9"/>
	<path class="st1" d="M481.4-169.1l0.6,0.6c0.5,0.5,1.2,0.7,1.9,0.5l0.8-0.2c1.1-0.3,2.2,0.3,2.5,1.4l0.2,0.8
		c0.2,0.7,0.7,1.2,1.4,1.4l0.8,0.2c1.1,0.3,1.7,1.4,1.4,2.5l-0.2,0.8c-0.2,0.7,0,1.4,0.5,1.9l0.6,0.6c0.8,0.8,0.8,2.1,0,2.8
		l-0.6,0.6c-0.5,0.5-0.7,1.2-0.5,1.9l0.2,0.8c0.3,1.1-0.3,2.2-1.4,2.5l-0.8,0.2c-0.7,0.2-1.2,0.7-1.4,1.4l-0.2,0.8
		c-0.3,1.1-1.4,1.7-2.5,1.4l-0.8-0.2c-0.7-0.2-1.4,0-1.9,0.5l-0.6,0.6c-0.8,0.8-2.1,0.8-2.8,0l-0.6-0.6c-0.5-0.5-1.2-0.7-1.9-0.5
		l-0.8,0.2c-1.1,0.3-2.2-0.3-2.5-1.4l-0.2-0.8c-0.2-0.7-0.7-1.2-1.4-1.4l-0.8-0.2c-1.1-0.3-1.7-1.4-1.4-2.5l0.2-0.8
		c0.2-0.7,0-1.4-0.5-1.9l-0.6-0.6c-0.8-0.8-0.8-2.1,0-2.8l0.6-0.6c0.5-0.5,0.7-1.2,0.5-1.9l-0.2-0.8c-0.3-1.1,0.3-2.2,1.4-2.5
		l0.8-0.2c0.7-0.2,1.2-0.7,1.4-1.4l0.2-0.8c0.3-1.1,1.4-1.7,2.5-1.4l0.8,0.2c0.7,0.2,1.4,0,1.9-0.5l0.6-0.6
		C479.4-169.9,480.6-169.9,481.4-169.1z"/>
</g>
<g>
	<g>
		<path d="M30,59.5c-13.8,0-25-11.2-25-25s11.2-25,25-25s25,11.2,25,25S43.8,59.5,30,59.5z M30,11.5c-12.7,0-23,10.3-23,23
			s10.3,23,23,23s23-10.3,23-23S42.7,11.5,30,11.5z"/>
	</g>
	<g>
		<path d="M30,16.5c-0.3,0-0.5-0.1-0.7-0.3C29.1,16,29,15.8,29,15.5c0-0.3,0.1-0.5,0.3-0.7c0.4-0.4,1-0.4,1.4,0
			c0.2,0.2,0.3,0.4,0.3,0.7c0,0.3-0.1,0.5-0.3,0.7C30.5,16.4,30.3,16.5,30,16.5z"/>
	</g>
	<g>
		<path d="M20.5,19c-0.1,0-0.3,0-0.4-0.1c-0.1,0-0.2-0.1-0.3-0.2c-0.2-0.2-0.3-0.4-0.3-0.7c0-0.3,0.1-0.5,0.3-0.7
			c0.1-0.1,0.2-0.2,0.3-0.2c0.4-0.1,0.8-0.1,1.1,0.2c0.2,0.2,0.3,0.4,0.3,0.7c0,0.3-0.1,0.5-0.3,0.7C21,18.9,20.8,19,20.5,19z"/>
	</g>
	<g>
		<path d="M13.5,26c-0.3,0-0.5-0.1-0.7-0.3c-0.2-0.2-0.3-0.5-0.3-0.7c0-0.3,0.1-0.5,0.3-0.7c0.4-0.4,1-0.4,1.4,0
			c0.2,0.2,0.3,0.4,0.3,0.7c0,0.3-0.1,0.5-0.3,0.7C14.1,25.9,13.8,26,13.5,26z"/>
	</g>
	<g>
		<path d="M11,35.5c-0.3,0-0.5-0.1-0.7-0.3C10.1,35,10,34.8,10,34.5c0-0.1,0-0.3,0.1-0.4c0.1-0.1,0.1-0.2,0.2-0.3
			c0.4-0.4,1-0.4,1.4,0c0.1,0.1,0.2,0.2,0.2,0.3c0.1,0.1,0.1,0.3,0.1,0.4c0,0.3-0.1,0.5-0.3,0.7C11.5,35.4,11.3,35.5,11,35.5z"/>
	</g>
	<g>
		<path d="M13.5,45c-0.1,0-0.3,0-0.4-0.1c-0.1-0.1-0.2-0.1-0.3-0.2c-0.1-0.1-0.2-0.2-0.2-0.3c0-0.1-0.1-0.3-0.1-0.4
			c0-0.1,0-0.3,0.1-0.4c0.1-0.1,0.1-0.2,0.2-0.3c0.1-0.1,0.2-0.2,0.3-0.2c0.4-0.2,0.8-0.1,1.1,0.2c0.1,0.1,0.2,0.2,0.2,0.3
			c0.1,0.1,0.1,0.3,0.1,0.4c0,0.1,0,0.3-0.1,0.4c0,0.1-0.1,0.2-0.2,0.3C14.1,44.9,13.8,45,13.5,45z"/>
	</g>
	<g>
		<path d="M20.5,52c-0.1,0-0.3,0-0.4-0.1c-0.1-0.1-0.2-0.1-0.3-0.2c-0.1-0.1-0.2-0.2-0.2-0.3c0-0.1-0.1-0.3-0.1-0.4
			c0-0.3,0.1-0.5,0.3-0.7c0.1-0.1,0.2-0.2,0.3-0.2c0.2-0.1,0.5-0.1,0.8,0c0.1,0,0.2,0.1,0.3,0.2c0.2,0.2,0.3,0.4,0.3,0.7
			c0,0.1,0,0.3-0.1,0.4c-0.1,0.1-0.1,0.2-0.2,0.3c-0.1,0.1-0.2,0.2-0.3,0.2C20.8,51.9,20.6,52,20.5,52z"/>
	</g>
	<g>
		<path d="M30,54.5c-0.3,0-0.5-0.1-0.7-0.3c-0.1-0.1-0.2-0.2-0.2-0.3c0-0.1-0.1-0.3-0.1-0.4c0-0.1,0-0.1,0-0.2c0-0.1,0-0.1,0.1-0.2
			c0-0.1,0.1-0.1,0.1-0.2c0-0.1,0.1-0.1,0.1-0.1c0.3-0.3,0.7-0.4,1.1-0.2c0.1,0.1,0.2,0.1,0.3,0.2c0.2,0.2,0.3,0.4,0.3,0.7
			c0,0.1,0,0.3-0.1,0.4c-0.1,0.1-0.1,0.2-0.2,0.3c-0.1,0.1-0.2,0.2-0.3,0.2C30.3,54.5,30.1,54.5,30,54.5z"/>
	</g>
	<g>
		<path d="M39.5,52c-0.1,0-0.3,0-0.4-0.1c-0.1-0.1-0.2-0.1-0.3-0.2c-0.1-0.1-0.2-0.2-0.2-0.3c0-0.1-0.1-0.3-0.1-0.4
			c0-0.3,0.1-0.5,0.3-0.7c0.1-0.1,0.2-0.2,0.3-0.2c0.2-0.1,0.4-0.1,0.6-0.1c0.1,0,0.1,0,0.2,0.1c0.1,0,0.1,0.1,0.2,0.1
			c0,0,0.1,0.1,0.1,0.1c0.2,0.2,0.3,0.4,0.3,0.7c0,0.1,0,0.3-0.1,0.4c-0.1,0.1-0.1,0.2-0.2,0.3C40,51.8,39.8,52,39.5,52z"/>
	</g>
	<g>
		<path d="M46.4,45c-0.1,0-0.3,0-0.4-0.1c-0.1-0.1-0.2-0.1-0.3-0.2c-0.1-0.1-0.2-0.2-0.2-0.3s-0.1-0.3-0.1-0.4c0-0.1,0-0.3,0.1-0.4
			c0-0.1,0.1-0.2,0.2-0.3c0.1-0.1,0.2-0.2,0.3-0.2c0.4-0.2,0.8-0.1,1.1,0.2c0.1,0.1,0.2,0.2,0.2,0.3c0,0.1,0.1,0.3,0.1,0.4
			c0,0.1,0,0.3-0.1,0.4c-0.1,0.1-0.1,0.2-0.2,0.3C47,44.9,46.7,45,46.4,45z"/>
	</g>
	<g>
		<path d="M49,35.5c-0.1,0-0.3,0-0.4-0.1c-0.1-0.1-0.2-0.1-0.3-0.2C48.1,35,48,34.8,48,34.5c0-0.1,0-0.3,0.1-0.4
			c0.1-0.1,0.1-0.2,0.2-0.3c0.1-0.1,0.2-0.2,0.3-0.2c0.4-0.2,0.8-0.1,1.1,0.2c0.1,0.1,0.2,0.2,0.2,0.3c0.1,0.1,0.1,0.3,0.1,0.4
			c0,0.3-0.1,0.5-0.3,0.7C49.5,35.4,49.3,35.5,49,35.5z"/>
	</g>
	<g>
		<path d="M46.4,26c-0.3,0-0.5-0.1-0.7-0.3c-0.2-0.2-0.3-0.5-0.3-0.7c0-0.3,0.1-0.5,0.3-0.7c0.4-0.4,1-0.4,1.4,0
			c0.2,0.2,0.3,0.4,0.3,0.7c0,0.3-0.1,0.5-0.3,0.7C47,25.9,46.7,26,46.4,26z"/>
	</g>
	<g>
		<path d="M38,7.5H22c-0.6,0-1-0.4-1-1v-5c0-0.6,0.4-1,1-1h16c0.6,0,1,0.4,1,1v5C39,7.1,38.6,7.5,38,7.5z M23,5.5h14v-3H23V5.5z"/>
	</g>
	<g>
		<path d="M26,11.5c-0.6,0-1-0.4-1-1v-4c0-0.6,0.4-1,1-1s1,0.4,1,1v4C27,11.1,26.6,11.5,26,11.5z"/>
	</g>
	<g>
		<path d="M34,11.5c-0.6,0-1-0.4-1-1v-4c0-0.6,0.4-1,1-1s1,0.4,1,1v4C35,11.1,34.6,11.5,34,11.5z"/>
	</g>
	<g>
		<path d="M52.5,18c-0.3,0-0.5-0.1-0.7-0.3l-7-7c-0.4-0.4-0.4-1,0-1.4s1-0.4,1.4,0l7,7c0.4,0.4,0.4,1,0,1.4C53,17.9,52.8,18,52.5,18
			z"/>
	</g>
	<g>
		<path d="M7.5,18c-0.3,0-0.5-0.1-0.7-0.3c-0.4-0.4-0.4-1,0-1.4l7-7c0.4-0.4,1-0.4,1.4,0s0.4,1,0,1.4l-7,7C8,17.9,7.8,18,7.5,18z"/>
	</g>
	<g>
		<path class="st2" d="M30.1,39.5c-0.9,0-1.8-0.2-2.6-0.7c-1.3-0.8-2.3-2.1-2.5-3.6c-0.3-1.5,0.1-3.1,1.1-4.3l11.7-14.1
			c0.7-0.8,1.8-1,2.8-0.5c0.9,0.5,1.3,1.7,0.9,2.7L35,36.1c-0.5,1.4-1.7,2.6-3.1,3.1C31.3,39.4,30.7,39.5,30.1,39.5z M39.4,18
			c-0.1,0-0.1,0-0.1,0.1L27.6,32.2c-0.6,0.7-0.9,1.7-0.7,2.6s0.7,1.7,1.6,2.2c0.8,0.5,1.8,0.6,2.7,0.2c0.9-0.3,1.6-1,1.9-1.9
			l6.4-17.2C39.6,18.2,39.6,18.1,39.4,18C39.5,18,39.4,18,39.4,18z"/>
	</g>
</g>
<g>
	<path class="st0" d="M104.5-44v5c0,1.1-0.9,2-2,2h-6c-1.1,0-2-0.9-2-2v-5"/>
	<path class="st0" d="M147.8-62c-0.4-1-0.9-1.9-1.6-2.8l-2.7-3.2"/>
	<line class="st0" x1="100.5" y1="-44" x2="120.9" y2="-44"/>
	<path class="st0" d="M96.5-68l-2.7,3.2c-1.5,1.8-2.3,4.1-2.3,6.4V-47c0,1.7,1.3,3,3,3"/>
	<path class="st0" d="M143.5-68l-4.7-12.3c-1.1-2.8-3.6-4.8-6.5-5.2C130-85.8,124.7-86,120-86s-10,0.2-12.3,0.6
		c-3,0.4-5.5,2.4-6.5,5.2L96.5-68"/>
	<path class="st0" d="M138.9-68l-3.6-9.5c-0.8-2.2-2.8-3.7-5.1-4c-1.8-0.2-6.5-0.4-10.2-0.4s-8.4,0.2-10.2,0.4
		c-2.3,0.3-4.2,1.8-5.1,4l-3.6,9.5H138.9z"/>
	<circle class="st0" cx="100.5" cy="-58.5" r="3"/>
	<line class="st0" x1="143.5" y1="-68" x2="148.5" y2="-68"/>
	<line class="st0" x1="91.5" y1="-68" x2="96.5" y2="-68"/>
	<polyline class="st0" points="120.5,-55 109.5,-55 109.5,-49 120.5,-49 	"/>
	<circle class="st0" cx="113" cy="-75.5" r="2.5"/>
	<path class="st0" d="M123-69c0-2.2,1.8-4,4-4s4,1.8,4,4"/>
	<path class="st0" d="M109-69c0-2.2,1.8-4,4-4s4,1.8,4,4"/>
	<circle class="st0" cx="127" cy="-75.5" r="2.5"/>
	<g>
		<g>
			<g>
				<path class="st1" d="M125.5-56.1v7.3c0,3.4,1.1,6.6,3.3,9.4c2.2,2.8,4.9,4.6,8.2,5.4c3.2-0.8,6-2.6,8.2-5.4
					c2.2-2.8,3.3-6,3.3-9.4v-7.3L137-61L125.5-56.1z"/>
			</g>
		</g>
	</g>
	<polyline class="st1" points="132.5,-47 136.5,-44 142.5,-51 	"/>
</g>
<g>
	<path class="st1" d="M471.2-45.2c2.6-2.2,5.9-7.8,1.5-13.3c-5.6-7-21-10-21-10s1.1,14.1,6.6,21C462.7-41.9,468.8-43.2,471.2-45.2z"
		/>
	<path class="st0" d="M475.6-31.5c0,0,2.9-8.1,10-16c9-10,13-26,13-32"/>
	<path class="st0" d="M485.5-48c7.5,5,16.4,0.6,20.2-6.5c9-17-7-34-8-34c-3,7-13.5,14-17,21C476.6-59.5,478.6-52.5,485.5-48z"/>
	<g>
		<path class="st1" d="M457.6-62.5c17,18,19,22,19,22"/>
		<path class="st1" d="M471.2-45.2c2.6-2.2,5.9-7.8,1.5-13.3c-5.6-7-21-10-21-10s1.1,14.1,6.6,21C462.7-41.9,468.8-43.2,471.2-45.2z
			"/>
		<path class="st0" d="M475.6-31.5c0,0,2.9-8.1,10-16c9-10,13-26,13-32"/>
		<path class="st0" d="M485.5-48c7.5,5,16.4,0.6,20.2-6.5c9-17-7-34-8-34c-3,7-13.5,14-17,21C476.6-59.5,478.6-52.5,485.5-48z"/>
	</g>
</g>
<g>
	<circle class="st1" cx="276" cy="-81" r="4"/>
	<path class="st1" d="M276-77v13c0,2.2,1.8,4,4,4h8"/>
	<circle class="st0" cx="292" cy="-81" r="4"/>
	<circle class="st0" cx="308" cy="-81" r="4"/>
	<circle class="st0" cx="324" cy="-81" r="4"/>
	<circle class="st0" cx="292" cy="-39" r="4"/>
	<circle class="st0" cx="308" cy="-39" r="4"/>
	<circle class="st0" cx="324" cy="-39" r="4"/>
	<line class="st0" x1="292" y1="-77" x2="292" y2="-43"/>
	<line class="st0" x1="308" y1="-77" x2="308" y2="-43"/>
	<line class="st0" x1="324" y1="-77" x2="324" y2="-43"/>
	<line class="st0" x1="324" y1="-60" x2="292" y2="-60"/>
</g>
<g>
	<path class="st0" d="M238-52.2c0-15.5-12.5-28-28-28s-28,12.5-28,28"/>
	<g>
		<polyline class="st0" points="186,-39.8 182,-39.8 182,-46.5 186,-46.5 		"/>
		<line class="st0" x1="182" y1="-43.2" x2="185" y2="-43.2"/>
	</g>
	<g>
		<polyline class="st0" points="234,-40.8 234,-47.5 238,-47.5 		"/>
		<line class="st0" x1="234" y1="-44.2" x2="237" y2="-44.2"/>
	</g>
	<line class="st0" x1="210" y1="-80.2" x2="210" y2="-74.2"/>
	<path class="st1" d="M220.9-72.2L220.9-72.2c-0.6-0.4-1.4-0.2-1.8,0.3l-13.9,16.7c-2,2.4-1.3,6,1.5,7.6v0c2.8,1.6,6.3,0.4,7.4-2.5
		l7.5-20.4C221.8-71.1,221.5-71.9,220.9-72.2z"/>
	<line class="st0" x1="238" y1="-52.2" x2="232" y2="-52.2"/>
	<line class="st0" x1="182" y1="-52.2" x2="188" y2="-52.2"/>
	<line class="st0" x1="182" y1="-52.2" x2="184" y2="-52.2"/>
	<line class="st0" x1="185.9" y1="-65.8" x2="187.7" y2="-64.8"/>
	<line class="st0" x1="196.2" y1="-75.7" x2="197.2" y2="-74"/>
	<line class="st0" x1="233.6" y1="-65" x2="231.8" y2="-64"/>
</g>
<g>
	<path class="st1" d="M396.6-72c0,3.9-2,10-7,10s-7-6.1-7-10s3.1-7,7-7S396.6-75.9,396.6-72z"/>
	<path class="st1" d="M375.6-41c0-9.4,5-17,14-17s14,7.6,14,17"/>
	<path class="st0" d="M413.3-69c0,2.9-1.5,7.5-5.3,7.5s-5.3-4.6-5.3-7.5s2.4-5.3,5.3-5.3C411-74.3,413.3-71.9,413.3-69z"/>
	<path class="st0" d="M402.4-56.8c1.5-1.1,3.4-1.7,5.7-1.7c6.8,0,10.5,5.7,10.5,12.8"/>
	<path class="st0" d="M366.7-69c0,2.9,1.5,7.5,5.3,7.5s5.3-4.6,5.3-7.5s-2.4-5.3-5.3-5.3C369-74.3,366.7-71.9,366.7-69z"/>
	<path class="st0" d="M377.6-56.8c-1.5-1.1-3.4-1.7-5.7-1.7c-6.8,0-10.5,5.7-10.5,12.8"/>
	<line class="st1" x1="382.2" y1="-55.8" x2="389.3" y2="-48.8"/>
	<line class="st1" x1="392.8" y1="-45.2" x2="396.6" y2="-41"/>
	<rect x="388.6" y="-49" transform="matrix(0.7071 0.7071 -0.7071 0.7071 81.3109 -290.3018)" class="st1" width="5" height="4"/>
</g>
<g>
	<path class="st0" d="M14.5-42v4c0,1.1-0.9,2-2,2h-6c-1.1,0-2-0.9-2-2v-4"/>
	<path class="st0" d="M55.5-42v4c0,1.1-0.9,2-2,2h-6c-1.1,0-2-0.9-2-2v-4"/>
	<path class="st0" d="M55.5-42c1.7,0,3-1.3,3-3v-11.4c0-2.3-0.8-4.6-2.3-6.4L53.5-66"/>
	<path class="st0" d="M6.5-66l-2.7,3.2c-1.5,1.8-2.3,4.1-2.3,6.4V-45c0,1.7,1.3,3,3,3"/>
	<path class="st0" d="M53.5-66l-4.7-12.3c-1.1-2.8-3.6-4.8-6.5-5.2C40-83.8,34.7-84,30-84s-10,0.2-12.3,0.6c-3,0.4-5.5,2.4-6.5,5.2
		L6.5-66"/>
	<path class="st0" d="M47.5-67l-3.4-8.9c-0.8-2-2.6-3.4-4.7-3.7c-1.7-0.2-6-0.4-9.4-0.4s-7.8,0.2-9.4,0.4c-2.1,0.3-3.9,1.7-4.7,3.7
		L12.5-67H47.5z"/>
	<circle class="st0" cx="10.5" cy="-56.5" r="3"/>
	<circle class="st0" cx="49.5" cy="-56.5" r="3"/>
	<line class="st0" x1="53.5" y1="-66" x2="58.5" y2="-66"/>
	<line class="st0" x1="1.5" y1="-66" x2="6.5" y2="-66"/>
	<rect x="19.5" y="-53" class="st0" width="21" height="6"/>
	<circle class="st0" cx="23" cy="-73.5" r="2.5"/>
	<path class="st0" d="M33-67c0-2.2,1.8-4,4-4s4,1.8,4,4"/>
	<path class="st0" d="M19-67c0-2.2,1.8-4,4-4s4,1.8,4,4"/>
	<circle class="st0" cx="37" cy="-73.5" r="2.5"/>
	<line class="st0" x1="10.5" y1="-42" x2="49.5" y2="-42"/>
</g>
<g>
	<polygon class="st0" points="144,58.5 96,58.5 104,22.5 136,22.5 	"/>
	<circle class="st1" cx="120" cy="7.5" r="6"/>
	<line class="st1" x1="120" y1="10.5" x2="120" y2="18.5"/>
	<line class="st0" x1="110" y1="34.5" x2="110" y2="46.5"/>
	<line class="st0" x1="118" y1="34.5" x2="110" y2="42"/>
	<line class="st0" x1="118" y1="46.5" x2="113" y2="39.8"/>
	<path class="st0" d="M130,43.5c0,1.7-1.3,3-3,3h-2c-1.7,0-3-1.3-3-3v-6c0-1.7,1.3-3,3-3h2c1.7,0,3,1.3,3,3"/>
	<polyline class="st0" points="128,41.5 130,41.5 130,43.5 	"/>
</g>
<g>
	<line class="st1" x1="314.5" y1="3" x2="314.5" y2="52"/>
	<polyline class="st1" points="320.2,47 314.5,52.7 308.8,47 	"/>
	<polyline class="st1" points="308.8,8 314.5,2.3 320.2,8 	"/>
	<path class="st0" d="M299.5,53V2h-16c-2.2,0-4,1.8-4,4v52h41"/>
	<line class="st0" x1="299.5" y1="30" x2="286.5" y2="30"/>
	<line class="st0" x1="299.5" y1="23" x2="292.5" y2="23"/>
	<line class="st0" x1="299.5" y1="16" x2="292.5" y2="16"/>
	<line class="st0" x1="299.5" y1="9" x2="292.5" y2="9"/>
	<line class="st0" x1="299.5" y1="51" x2="292.5" y2="51"/>
	<line class="st0" x1="299.5" y1="44" x2="292.5" y2="44"/>
	<line class="st0" x1="299.5" y1="37" x2="292.5" y2="37"/>
</g>
<g>
	<line class="st1" x1="232" y1="42.5" x2="188" y2="42.5"/>
	<polyline class="st1" points="193,48.2 187.3,42.5 193,36.8 	"/>
	<polyline class="st1" points="227,36.8 232.7,42.5 227,48.2 	"/>
	<path class="st0" d="M238,26.5v-16c0-2.2-1.8-4-4-4h-48c-2.2,0-4,1.8-4,4v16"/>
	<line class="st0" x1="210" y1="26.5" x2="210" y2="13.5"/>
	<line class="st0" x1="217" y1="26.5" x2="217" y2="19.5"/>
	<line class="st0" x1="224" y1="26.5" x2="224" y2="19.5"/>
	<line class="st0" x1="231" y1="26.5" x2="231" y2="19.5"/>
	<line class="st0" x1="189" y1="26.5" x2="189" y2="19.5"/>
	<line class="st0" x1="196" y1="26.5" x2="196" y2="19.5"/>
	<line class="st0" x1="203" y1="26.5" x2="203" y2="19.5"/>
	<line class="st0" x1="182" y1="26.5" x2="238" y2="26.5"/>
	<line class="st0" x1="238" y1="31.5" x2="238" y2="35.5"/>
	<line class="st0" x1="182" y1="31.5" x2="182" y2="35.5"/>
	<line class="st0" x1="238" y1="40.5" x2="238" y2="44.5"/>
	<line class="st0" x1="182" y1="40.5" x2="182" y2="44.5"/>
	<line class="st0" x1="238" y1="49.5" x2="238" y2="53.5"/>
	<line class="st0" x1="182" y1="49.5" x2="182" y2="53.5"/>
</g>
<g>
	<circle class="st3" cx="370.8" cy="-322.9" r="4.5"/>
	<circle class="st3" cx="409.8" cy="-322.9" r="4.5"/>
	<line class="st3" x1="405" y1="-322.4" x2="379" y2="-322.4"/>
	<path class="st3" d="M415-322.4c0,0-1,0,1,0c3,0,3-5,3-7c0-1-3-5-16-5h-26c-4,0-9-6-9-6"/>
	<path class="st3" d="M396.1-341.6c4.3,2.3,9.2,7.1,9.2,7.1"/>
	<path class="st3" d="M366-322.4l-5-1c0,0,0-4,0-5c0-2,3-6,3-8h8"/>
	<polyline class="st3" points="384,-337.4 386,-334.4 386,-325.4 	"/>
	<line class="st3" x1="390" y1="-330.4" x2="393" y2="-330.4"/>
</g>
<g>
	<circle class="st3" cx="100.8" cy="-322.5" r="4.5"/>
	<circle class="st3" cx="139.8" cy="-322.5" r="4.5"/>
	<line class="st3" x1="135" y1="-322" x2="109" y2="-322"/>
	<path class="st3" d="M145-322c0,0-1,0,1,0c3,0,3-5,3-7c0-1-3-5-16-5h-26c-3,0-5.2-3-5.2-3"/>
	<path class="st3" d="M96-322l-5-1c0,0,0-4,0-5c0-2,3-7,3-9h7c0,0,2-5,16-5c9,0,17.3,8,17.3,8"/>
	<polyline class="st3" points="117,-341 119,-334 119,-325 	"/>
	<line class="st3" x1="123" y1="-330" x2="125" y2="-330"/>
	<line class="st3" x1="110" y1="-330" x2="112" y2="-330"/>
	<line class="st3" x1="106" y1="-340.5" x2="106" y2="-328.8"/>
</g>
<g>
	<circle class="st3" cx="190.8" cy="-322.5" r="4.5"/>
	<circle class="st3" cx="229.8" cy="-322.5" r="4.5"/>
	<line class="st3" x1="225" y1="-322" x2="199" y2="-322"/>
	<path class="st3" d="M235-322c0,0-1,0,1,0c3,0,3-5,3-7c0-1-3-5-16-5h-33c-3,0-7-1-7-1"/>
	<path class="st3" d="M186-322l-5-1c0,0,0-4,0-5c0-2,2-5,2-7s4-7,4-7s12,0,23,0c6,0,14.3,8,14.3,8"/>
	<polyline class="st3" points="207,-341 209,-334 209,-325 	"/>
	<line class="st3" x1="213" y1="-330" x2="215" y2="-330"/>
	<line class="st3" x1="198.5" y1="-330" x2="200.5" y2="-330"/>
	<line class="st3" x1="195" y1="-341" x2="194" y2="-334"/>
	<line class="st3" x1="194" y1="-334" x2="194" y2="-330"/>
</g>
<g>
	<circle class="st3" cx="460.8" cy="-320.5" r="4.5"/>
	<circle class="st3" cx="499.8" cy="-320.5" r="4.5"/>
	<line class="st3" x1="495" y1="-320" x2="469" y2="-320"/>
	<path class="st3" d="M505-320c0,0-1,0,1,0c3,0,3-5,3-7c0-1-5-7-15-7h-34c-3,0-7-1-7-1"/>
	<path class="st3" d="M456-320l-5-1c0,0,0-4,0-5c0-2,2-7,2-9s5-9,9-9c1,0,8,0,19,0c8,0,17,10,17,10"/>
	<polyline class="st3" points="478,-344 480,-335 480,-323 	"/>
	<line class="st3" x1="484" y1="-329" x2="486" y2="-329"/>
	<line class="st3" x1="469" y1="-329" x2="471" y2="-329"/>
	<line class="st3" x1="467" y1="-344" x2="465" y2="-334"/>
	<line class="st3" x1="465" y1="-334" x2="465" y2="-327.5"/>
</g>
<g>
	<circle class="st3" cx="280.8" cy="-322.5" r="4.5"/>
	<circle class="st3" cx="319.8" cy="-322.5" r="4.5"/>
	<line class="st3" x1="315" y1="-322" x2="289" y2="-322"/>
	<path class="st3" d="M325-322c0,0-1,0,1,0c3,0,3-5,3-7c0-1-3-5-16-5h-28c-5,0-10-7-10-7"/>
	<path class="st3" d="M276-322l-5-1c0,0,0-4,0-5c0-2,3-6,3-8h6c0,0,5-6,17-6c9,0,18.3,8,18.3,8"/>
	<polyline class="st3" points="294,-337 296,-334 296,-325 	"/>
	<line class="st3" x1="300" y1="-330" x2="303" y2="-330"/>
</g>
<g>
	<circle class="st3" cx="551.2" cy="-319.8" r="4.8"/>
	<circle class="st3" cx="589.1" cy="-319.8" r="5.1"/>
	<line class="st3" x1="584" y1="-319.3" x2="560" y2="-319.3"/>
	<path class="st3" d="M595-319.3c0,0-1,0,1,0c3,0,3-2,3-4s-2-3-2-3s0-2.9,0-4c0-2-8.6-3-15-3h-31c-3,0-8-1-8-1"/>
	<path class="st3" d="M546-319.3l-5-1c0,0,0-4,0-5c0-2,2-6,2-8c0-4,3-10,3-10s19-1,28,0c3,0.3,10,10,10,10"/>
	<polyline class="st3" points="567,-343.3 569,-334.3 569,-322.3 	"/>
	<line class="st3" x1="573" y1="-328.3" x2="575" y2="-328.3"/>
	<line class="st3" x1="558.4" y1="-328.3" x2="560.6" y2="-328.3"/>
	<line class="st3" x1="555" y1="-343.3" x2="554" y2="-333.3"/>
	<line class="st3" x1="552" y1="-344.3" x2="552" y2="-345.3"/>
	<line class="st3" x1="569" y1="-344.3" x2="569" y2="-345.3"/>
	<line class="st3" x1="554" y1="-333.3" x2="554" y2="-327.8"/>
</g>
<g>
	<line class="st1" x1="541.5" y1="-178.5" x2="598.5" y2="-121.5"/>
	<path class="st0" d="M554.5-132.5v4c0,1.1-0.9,2-2,2h-6c-1.1,0-2-0.9-2-2v-4"/>
	<path class="st0" d="M588.4-126.5h-0.9c-1.1,0-2-0.9-2-2"/>
	<line class="st0" x1="595.5" y1="-132.5" x2="595.5" y2="-130.2"/>
	<path class="st0" d="M595.5-132.5c1.7,0,3-1.3,3-3v-11.4c0-2.3-0.8-4.6-2.3-6.4l-2.7-3.2"/>
	<path class="st0" d="M546.5-156.5l-2.7,3.2c-1.5,1.8-2.3,4.1-2.3,6.4v11.4c0,1.7,1.3,3,3,3"/>
	<line class="st0" x1="549.6" y1="-164.7" x2="546.5" y2="-156.5"/>
	<path class="st0" d="M593.5-156.5l-4.7-12.3c-1.1-2.8-3.6-4.8-6.5-5.2c-2.3-0.3-7.6-0.6-12.3-0.6s-10,0.2-12.3,0.6
		c-1.6,0.2-3,0.9-4.2,1.9"/>
	<path class="st0" d="M568.2-157.5h19.4l-3.4-8.9c-0.8-2-2.6-3.4-4.7-3.7c-1.7-0.2-6-0.4-9.4-0.4s-7.8,0.2-9.4,0.4
		c-1.3,0.2-2.5,0.8-3.4,1.7"/>
	<polyline class="st0" points="553.7,-160.7 552.5,-157.5 556.8,-157.5 	"/>
	<circle class="st0" cx="550.5" cy="-147" r="3"/>
	<circle class="st0" cx="589.5" cy="-147" r="3"/>
	<line class="st0" x1="593.5" y1="-156.5" x2="598.5" y2="-156.5"/>
	<line class="st0" x1="541.5" y1="-156.5" x2="546.5" y2="-156.5"/>
	<polyline class="st0" points="570.5,-143.5 559.5,-143.5 559.5,-137.5 576.5,-137.5 	"/>
	<path class="st0" d="M560.7-165c0.4-0.9,1.3-1.5,2.3-1.5c1.4,0,2.5,1.1,2.5,2.5c0,1-0.6,1.9-1.5,2.3"/>
	<path class="st0" d="M573-157.5c0-2.2,1.8-4,4-4s4,1.8,4,4"/>
	<circle class="st0" cx="577" cy="-164" r="2.5"/>
	<line class="st0" x1="550.5" y1="-132.5" x2="581.5" y2="-132.5"/>
</g>
<g>
	<path class="st1" d="M-43.5,41.5c0,3.3,2.7,6,6,6s6-2.7,6-6"/>
	<path class="st1" d="M-43.5,22.5c0-3.3-2.7-6-6-6"/>
	<line class="st1" x1="-43.5" y1="41.5" x2="-43.5" y2="22.5"/>
	<line class="st1" x1="-31.5" y1="41.5" x2="-31.5" y2="15.5"/>
	<circle class="st1" cx="-35" cy="16" r="3.5"/>
	<path class="st1" d="M-31.5,16c0-5.8-2-8.5-3.5-10.5"/>
	<line class="st0" x1="-44.5" y1="57.5" x2="-31.5" y2="57.5"/>
	<line class="st0" x1="-88.5" y1="57.5" x2="-49.5" y2="57.5"/>
	<g>
		<line class="st0" x1="-80.5" y1="30.5" x2="-80.5" y2="56.5"/>
		<line class="st0" x1="-57.5" y1="56.5" x2="-57.5" y2="30.5"/>
	</g>
	<path class="st0" d="M-59.5,7.5h-19c-0.6,0-1,0.4-1,1v16c0,0.6,0.4,1,1,1h19c0.6,0,1-0.4,1-1v-16C-58.5,7.9-58.9,7.5-59.5,7.5z"/>
	<line class="st0" x1="-73.5" y1="13.5" x2="-64.5" y2="13.5"/>
	<line class="st0" x1="-73.5" y1="19.5" x2="-64.5" y2="19.5"/>
	<path class="st0" d="M-57.5,2.5h-23c-2.2,0-4,1.8-4,4v20c0,2.2,1.8,4,4,4h23c2.2,0,4-1.8,4-4v-20C-53.5,4.3-55.3,2.5-57.5,2.5z"/>
	<path class="st0" d="M-69,36.5c0,0,5,6.2,5,9s-2.2,5-5,5s-5-2.2-5-5c0-1.3,1.1-3.3,2.2-5.1"/>
</g>
<g>
	<line class="st1" x1="387" y1="25.2" x2="368" y2="25.2"/>
	<polyline class="st1" points="373,30.8 367.3,25.2 373,19.5 	"/>
	<polyline class="st1" points="382,19.5 387.7,25.2 382,30.8 	"/>
	<circle class="st3" cx="371.2" cy="42.7" r="4.8"/>
	<circle class="st3" cx="410.1" cy="42.7" r="5.1"/>
	<line class="st3" x1="405" y1="43.2" x2="380" y2="43.2"/>
	<path class="st3" d="M416,43.2c0,0-1,0,1,0s2-2,2-4s-1-3-1-3v0c0-0.7,0-1,0-2c0-2-4-5-4-5"/>
	<path class="st3" d="M394,19.2h8c4,0,12,10,12,10"/>
	<path class="st3" d="M398,29.2v-7c0,0,2,0,4,0s8,7,8,7H398"/>
	<line class="st3" x1="398" y1="34.2" x2="401" y2="34.2"/>
	<line class="st3" x1="414" y1="34.2" x2="414" y2="35.2"/>
	<line class="st3" x1="362" y1="38.2" x2="369" y2="38.2"/>
	<line class="st3" x1="378" y1="38.2" x2="393" y2="38.2"/>
	<line class="st3" x1="394" y1="19.2" x2="394" y2="38.2"/>
	<path class="st3" d="M366,43.2l-5-1v-30c0,0,23,0,30,0c1,0,3,0,10,7"/>
</g>
<g>
	<circle class="st3" cx="-74.7" cy="-323" r="4.5"/>
	<circle class="st3" cx="-42.7" cy="-323" r="4.5"/>
	<line class="st3" x1="-47.5" y1="-322.5" x2="-66.5" y2="-322.5"/>
	<path class="st3" d="M-37.5-322.5c0,0-1,0,1,0c3,0,3-5,3-7c0-1-2-5-15-5h-21c-2,0-4-6-4-6"/>
	<path class="st3" d="M-84.5-323.5c0,0,0-4,0-5c0-2,3.5-4.1,4-6c1-4,2-6,2-6s6-1,17-1c5,0,13,7,13,7"/>
	<line class="st3" x1="-79.5" y1="-322.5" x2="-86.5" y2="-323.5"/>
	<polyline class="st3" points="-65.5,-341.5 -63.5,-334.5 -63.5,-325.5 	"/>
	<line class="st3" x1="-59.5" y1="-330.5" x2="-57.5" y2="-330.5"/>
</g>
<g>
	<circle class="st3" cx="10.8" cy="-322.5" r="4.5"/>
	<circle class="st3" cx="49.8" cy="-322.5" r="4.5"/>
	<line class="st3" x1="45" y1="-322" x2="19" y2="-322"/>
	<path class="st3" d="M55-322c0,0-1,0,1,0c3,0,3-5,3-7c0-1-3-5-16-5H10c-3,0-6-1-6-1"/>
	<path class="st3" d="M6-322l-5-1c0,0,0-4,0-5c0-2,3-5,3-7s3-6,3-6s11-1,22-1c6,0,15.3,8,15.3,8"/>
	<polyline class="st3" points="21,-341 23,-334 23,-325 	"/>
	<line class="st3" x1="27" y1="-330" x2="30" y2="-330"/>
</g>
<g>
	<circle class="st3" cx="191.2" cy="-230.8" r="4.8"/>
	<circle class="st3" cx="230.1" cy="-230.8" r="5.1"/>
	<line class="st3" x1="225" y1="-230.3" x2="200" y2="-230.3"/>
	<path class="st3" d="M236-230.3c0,0-1,0,1,0s2-2,2-4s-1-3-1-3v0c0-0.7,0-1,0-2c0-2-4-5-4-5"/>
	<path class="st3" d="M186-230.3l-5-1c0,0,0-2.5,0-4c0-0.7,1-1,1-1c0-2,0-6,0-8c0-2.4,0.4-5.5,0.7-7.7c0.2-1.3,1.3-2.3,2.7-2.3H222
		c4,0,12,10,12,10"/>
	<path class="st3" d="M218-244.3v-7c0,0,2,0,4,0s8,7,8,7H218"/>
	<line class="st3" x1="218" y1="-239.3" x2="221" y2="-239.3"/>
	<line class="st3" x1="234" y1="-239.3" x2="234" y2="-238.3"/>
</g>
<g>
	<circle class="st3" cx="281.2" cy="-228.3" r="4.8"/>
	<circle class="st3" cx="320.1" cy="-228.3" r="5.1"/>
	<line class="st3" x1="315" y1="-227.8" x2="290" y2="-227.8"/>
	<path class="st3" d="M326-227.8c0,0-1,0,1,0s2-2,2-4s-1-3-1-3v0c0-0.7,0-1,0-2c0-2-4-5-4-5"/>
	<path class="st3" d="M276-227.8l-5-1c0,0,0-2.5,0-4c0-0.7,1-1,1-1c0-2,0-8,0-10c0-2.4,0.4-8.5,0.7-10.7c0.2-1.3,1.3-2.3,2.7-2.3
		c0,0,21.7,0,28.7,0c6,0,20,15,20,15"/>
	<path class="st3" d="M308-241.8v-7c0,0,2,0,4,0c1,0,8,7,8,7H308"/>
	<line class="st3" x1="308" y1="-236.8" x2="311" y2="-236.8"/>
	<line class="st3" x1="324" y1="-236.8" x2="324" y2="-235.8"/>
</g>
<g>
	<circle class="st3" cx="101.2" cy="-230.8" r="4.8"/>
	<circle class="st3" cx="140.1" cy="-230.8" r="5.1"/>
	<line class="st3" x1="135" y1="-230.3" x2="110" y2="-230.3"/>
	<path class="st3" d="M146-230.3c0,0-1,0,1,0s2-2,2-4s-1-3-1-3s0-0.9,0-2c0-2-3-4-10-5"/>
	<path class="st3" d="M96-230.3l-5-1c0,0,0-3,0-4c0-0.4,1-1,1-1c0-2,0-6,0-8c0-2.4,0.4-5.5,0.7-7.7c0.2-1.3,1.3-2.3,2.7-2.3H120
		c7,0,18,10,18,10"/>
	<path class="st3" d="M118-244.3v-7c0,0,0,0,2,0c4,0,13,7,13,7H118"/>
	<line class="st3" x1="119" y1="-239.3" x2="122" y2="-239.3"/>
	<line class="st3" x1="144" y1="-239.3" x2="144" y2="-238.3"/>
</g>
<g>
	<circle class="st3" cx="11.2" cy="-230.8" r="4.8"/>
	<circle class="st3" cx="50.1" cy="-230.8" r="5.1"/>
	<line class="st3" x1="45" y1="-230.3" x2="20" y2="-230.3"/>
	<path class="st3" d="M56-230.3c0,0-1,0,1,0s2-2,2-4s-1-3-1-3s0-0.9,0-2c0-2-3-4-10-5"/>
	<path class="st3" d="M6-230.3l-5-1c0,0,0-3,0-4c0-0.4,1-1,1-1c0-2,0-2,0-4c0-3,4.8-4.1,6-7c3-7,9-7,9-7h13c7,0,18,10,18,10"/>
	<path class="st3" d="M25-244.3v-7c0,0,3,0,5,0c4,0,13,7,13,7H25"/>
	<line class="st3" x1="28" y1="-239.3" x2="31" y2="-239.3"/>
	<line class="st3" x1="54" y1="-239.3" x2="54" y2="-238.3"/>
</g>
<g>
	<circle class="st3" cx="461.2" cy="-227.3" r="4.8"/>
	<circle class="st3" cx="500.1" cy="-227.3" r="5.1"/>
	<line class="st3" x1="495" y1="-226.8" x2="470" y2="-226.8"/>
	<path class="st3" d="M506-226.8c0,0-1,0,1,0s2-2,2-4s-1-3-1-3v0c0-0.7,0-1,0-2c0-2-4-5-4-5"/>
	<path class="st3" d="M484-250.8h8c4,0,12,10,12,10"/>
	<path class="st3" d="M488-240.8v-7c0,0,2,0,4,0s8,7,8,7H488"/>
	<line class="st3" x1="488" y1="-235.8" x2="491" y2="-235.8"/>
	<line class="st3" x1="504" y1="-235.8" x2="504" y2="-234.8"/>
	<line class="st3" x1="452" y1="-231.8" x2="459" y2="-231.8"/>
	<line class="st3" x1="468" y1="-231.8" x2="483" y2="-231.8"/>
	<line class="st3" x1="484" y1="-250.8" x2="484" y2="-231.8"/>
	<path class="st3" d="M456-226.8l-5-1v-30c0,0,23,0,30,0c1,0,3,0,10,7"/>
</g>
<g>
	<circle class="st3" cx="13.2" cy="-140.8" r="4.8"/>
	<circle class="st3" cx="50.1" cy="-140.8" r="5.1"/>
	<line class="st3" x1="45" y1="-140.3" x2="22" y2="-140.3"/>
	<path class="st3" d="M56-140.3c0,0-1,0,1,0s2-2,2-4s-1-3-1-3v0c0-0.7,0-1,0-2c0-2-4-5-4-5"/>
	<path class="st3" d="M34-164.3h8c4,0,12,10,12,10"/>
	<path class="st3" d="M38-154.3v-7c0,0,2,0,4,0s8,7,8,7H38"/>
	<line class="st3" x1="38" y1="-149.3" x2="41" y2="-149.3"/>
	<line class="st3" x1="54" y1="-149.3" x2="54" y2="-148.3"/>
	<line class="st3" x1="1" y1="-145.3" x2="11" y2="-145.3"/>
	<line class="st3" x1="20" y1="-145.3" x2="34" y2="-145.3"/>
	<line class="st3" x1="34" y1="-164.3" x2="34" y2="-145.3"/>
	<polyline class="st3" points="1,-145.3 1,-151.3 34,-151.3 	"/>
	<polyline class="st3" points="8,-140.3 4,-141.3 4,-145.3 	"/>
</g>
<g>
	<circle class="st3" cx="551.2" cy="-230.8" r="4.8"/>
	<circle class="st3" cx="590.1" cy="-230.8" r="5.1"/>
	<line class="st3" x1="585" y1="-230.3" x2="560" y2="-230.3"/>
	<path class="st3" d="M596-230.3c0,0-1,0,1,0s2-2,2-4s-1-3-1-3v0c0-0.7,0-1,0-2c0-2-4-5-4-5"/>
	<path class="st3" d="M546-230.3l-5-1c0,0,0-2.5,0-4c0-0.7,1-1,1-1c0-2,0-6,0-8c0-2.4,0.4-5.5,0.7-7.7c0.2-1.3,1.3-2.3,2.7-2.3H582
		c4,0,12,10,12,10"/>
	<path class="st3" d="M578-244.3v-7c0,0,2,0,4,0s8,7,8,7H578"/>
	<line class="st3" x1="578" y1="-239.3" x2="581" y2="-239.3"/>
	<line class="st3" x1="571" y1="-239.3" x2="574" y2="-239.3"/>
	<line class="st3" x1="594" y1="-239.3" x2="594" y2="-238.3"/>
	<rect x="563" y="-251.3" class="st3" width="11" height="7"/>
	<path class="st3" d="M548-244.3c2,0,11,0,11,0v-7h-10C549-251.3,548-247.3,548-244.3z"/>
</g>
<g>
	<circle class="st3" cx="103.2" cy="-136.8" r="4.8"/>
	<circle class="st3" cx="140.1" cy="-136.8" r="5.1"/>
	<line class="st3" x1="135" y1="-136.3" x2="112" y2="-136.3"/>
	<path class="st3" d="M146-136.3c0,0-1,0,1,0s2-2,2-4s-1-3-1-3v0c0-0.7,0-1,0-2c0-2-4-5-4-5"/>
	<path class="st3" d="M124-160.3h8c4,0,12,10,12,10"/>
	<path class="st3" d="M128-150.3v-7c0,0,2,0,4,0s8,7,8,7H128"/>
	<line class="st3" x1="128" y1="-145.3" x2="131" y2="-145.3"/>
	<line class="st3" x1="144" y1="-145.3" x2="144" y2="-144.3"/>
	<line class="st3" x1="91" y1="-141.3" x2="101" y2="-141.3"/>
	<line class="st3" x1="110" y1="-141.3" x2="124" y2="-141.3"/>
	<line class="st3" x1="124" y1="-160.3" x2="124" y2="-141.3"/>
	<polyline class="st3" points="91,-141.3 91,-154.3 118,-154.3 118,-168.3 141,-168.3 141,-160.3 	"/>
	<polyline class="st3" points="98,-136.3 94,-137.3 94,-141.3 	"/>
	<line class="st3" x1="141" y1="-160.3" x2="131" y2="-160.3"/>
</g>
<g>
	<g>
		<circle class="st3" cx="-78.8" cy="-141.8" r="4.8"/>
		<circle class="st3" cx="-40.9" cy="-141.8" r="5.1"/>
		<line class="st3" x1="-46" y1="-141.3" x2="-70" y2="-141.3"/>
		<path class="st3" d="M-62-163.3c0,0,7.8-0.1,9.3,0.1c2.6,0.3,8.7,7.9,8.7,7.9"/>
		<path class="st3" d="M-84-141.3l-5-1c0,0,0-4,0-5c0-2,1-6,1-8h40c6.4,0,15,2,15,4c0,1.1,0,4,0,4s2,1,2,3s0,3-3,3c-2,0-1,0-1,0"/>
		<polyline class="st3" points="-62,-163.3 -62,-157.6 -62,-141.3 		"/>
		<line class="st3" x1="-58" y1="-150.3" x2="-55" y2="-150.3"/>
		<line class="st3" x1="-58" y1="-163.3" x2="-58" y2="-156.3"/>
		<line class="st3" x1="-89" y1="-145.3" x2="-83" y2="-145.3"/>
		<line class="st3" x1="-71" y1="-145.3" x2="-62" y2="-145.3"/>
	</g>
	<line class="st3" x1="-36" y1="-150.3" x2="-36" y2="-149.3"/>
</g>
<g>
	<circle class="st3" cx="373.5" cy="-230" r="4.1"/>
	<circle class="st3" cx="410.4" cy="-230" r="4.4"/>
	<line class="st3" x1="406.1" y1="-229.6" x2="382" y2="-229.6"/>
	<path class="st3" d="M415.4-229.6c0,0,0.1,0,1.9,0c1.7,0,1.7-1.7,1.7-3.4c0-1.7-0.9-2.6-0.9-2.6v0c0-0.6,0-0.9,0-1.7
		c0-1.7-3.4-4.3-3.4-4.3"/>
	<path class="st3" d="M369.1-229.6l-8.1-0.9c0,0,0-2.1,0-3.4c0-0.6,0.9-0.9,0.9-0.9c0-1.7,0-6.8,0-8.5c0-2.1,0.3-7.3,0.6-9.1
		c0.2-1.1,1.1-2,2.3-2c0,0,27.1,0,33,0c5.1,0,17,12.8,17,12.8"/>
	<path class="st3" d="M400.1-241.6v-6c0,0,1.7,0,3.4,0c0.9,0,6.8,6,6.8,6H400.1"/>
	<line class="st3" x1="400.1" y1="-237.3" x2="402.7" y2="-237.3"/>
	<line class="st3" x1="414.7" y1="-237.3" x2="414.7" y2="-236.4"/>
</g>
<g>
	<circle class="st3" cx="-78.8" cy="-230.8" r="4.8"/>
	<circle class="st3" cx="-39.9" cy="-230.8" r="5.1"/>
	<line class="st3" x1="-45" y1="-230.3" x2="-70" y2="-230.3"/>
	<path class="st3" d="M-34-230.3c0,0-1,0,1,0s2-2,2-4s-1-3-1-3v0c0-0.7,0-1,0-2c0-2-4-5-4-5"/>
	<path class="st3" d="M-84-230.3l-5-1c0,0,0-2.5,0-4c0-0.7,1-1,1-1c0-2,0-6,0-8c0-2.4,0.4-5.5,0.7-7.7c0.2-1.3,1.3-2.3,2.7-2.3H-48
		c4,0,12,10,12,10"/>
	<path class="st3" d="M-52-244.3v-7c0,0,2,0,4,0s8,7,8,7H-52"/>
	<line class="st3" x1="-52" y1="-239.3" x2="-49" y2="-239.3"/>
	<line class="st3" x1="-66" y1="-239.3" x2="-63" y2="-239.3"/>
	<line class="st3" x1="-36" y1="-239.3" x2="-36" y2="-238.3"/>
	<rect x="-66" y="-251.3" class="st3" width="10" height="7"/>
</g>
<g>
	<ellipse transform="matrix(0.7844 -0.6202 0.6202 0.7844 96.059 350.3542)" class="st1" cx="552" cy="37" rx="10.5" ry="10.5"/>
	<ellipse transform="matrix(0.7844 -0.6202 0.6202 0.7844 96.059 350.3542)" class="st1" cx="552" cy="37" rx="2.5" ry="2.5"/>
	<circle class="st0" cx="583" cy="17" r="2.5"/>
	<circle class="st0" cx="583" cy="9.5" r="0"/>
	<ellipse transform="matrix(0.7071 -0.7071 0.7071 0.7071 160.9342 411.9157)" class="st0" cx="577.7" cy="11.7" rx="0" ry="0"/>
	<circle class="st0" cx="575.5" cy="17" r="0"/>
	<ellipse transform="matrix(0.7071 -0.7071 0.7071 0.7071 153.4292 415.0244)" class="st0" cx="577.7" cy="22.3" rx="0" ry="0"/>
	<circle class="st0" cx="583" cy="24.5" r="0"/>
	<ellipse transform="matrix(0.7071 -0.7071 0.7071 0.7071 156.5378 422.5294)" class="st0" cx="588.3" cy="22.3" rx="0" ry="0"/>
	<circle class="st0" cx="590.5" cy="17" r="0"/>
	<ellipse transform="matrix(0.7071 -0.7071 0.7071 0.7071 164.0428 419.4207)" class="st0" cx="588.3" cy="11.7" rx="0" ry="0"/>
	<circle class="st0" cx="583" cy="17" r="11.5"/>
	<path class="st1" d="M557.9,39.7c-0.4,0.9-1,1.7-1.9,2.4"/>
	<path class="st1" d="M546.9,41c-2.2-2.8-1.7-6.9,1.1-9.1c2.8-2.2,6.9-1.7,9.1,1.1c0.8,1,1.2,2.1,1.4,3.3"/>
	<circle class="st0" cx="592.5" cy="52.5" r="6"/>
	<line class="st0" x1="571.5" y1="6.5" x2="544.5" y2="29.5"/>
	<line class="st0" x1="598.5" y1="16.5" x2="598.5" y2="52.5"/>
	<line class="st0" x1="550.5" y1="47.5" x2="591.5" y2="58.5"/>
	<line class="st0" x1="592.5" y1="52.5" x2="592.5" y2="52.5"/>
	<circle class="st0" cx="583" cy="17" r="15.5"/>
	<path class="st0" d="M550.3,47.4c-5-0.8-8.8-5.2-8.8-10.4c0-3,1.3-5.7,3.3-7.6"/>
</g>
<g>
	<polygon class="st0" points="-34.5,141.5 -31.5,141.5 -31.5,111.5 -34.5,111.5 -38.5,122.5 -38.5,135.5 	"/>
	<rect x="-84.5" y="116.5" class="st0" width="5" height="18"/>
	<line class="st0" x1="-88.5" y1="131.5" x2="-88.5" y2="119.5"/>
	<line class="st0" x1="-88.5" y1="125.5" x2="-85.5" y2="125.5"/>
	<line class="st0" x1="-38.5" y1="135.5" x2="-43.5" y2="135.5"/>
	<line class="st0" x1="-38.5" y1="122.5" x2="-43.5" y2="122.5"/>
	<polygon class="st0" points="-79.5,110.5 -79.5,134.5 -74.5,141.5 -47.5,141.5 -43.5,135.5 -43.5,122.5 -46.5,116.5 -50.5,116.5 
		-50.5,110.5 	"/>
	<polyline class="st0" points="-61.5,105.5 -54.5,105.5 -54.5,98.5 -74.5,98.5 -74.5,105.5 -67.5,105.5 	"/>
	<line class="st0" x1="-69.5" y1="105.5" x2="-69.5" y2="110.5"/>
	<line class="st0" x1="-59.5" y1="105.5" x2="-59.5" y2="110.5"/>
	<line class="st0" x1="-50.5" y1="116.5" x2="-50.5" y2="122.5"/>
	<line class="st0" x1="-50.5" y1="126.5" x2="-50.5" y2="129.5"/>
	<polyline class="st1" points="-67.5,116.5 -60.5,116.5 -63.5,123.5 -57.5,123.5 -66.5,136.5 -64.5,126.5 -71.5,126.5 -68.7,119.5 	
		"/>
</g>
<g>
	<circle class="st0" cx="480" cy="30" r="28.5"/>
	<circle class="st0" cx="480" cy="30" r="22.5"/>
	<path class="st0" d="M484.5,48c-1.4,0.4-2.9,0.5-4.5,0.5c-1.5,0-3.1-0.2-4.5-0.5"/>
	<path class="st0" d="M496.7,22c1.2,2.4,1.8,5.1,1.8,8c0,0.9-0.1,1.7-0.2,2.6"/>
	<path class="st0" d="M502.3,32.7c-0.8-0.1-1.5-0.2-2.3-0.2c-8.6,0-15.5,6.9-15.5,15.5c0,1.4,0.2,2.7,0.5,3.9"/>
	<path class="st0" d="M475,51.9c0.3-1.3,0.5-2.6,0.5-3.9c0-8.6-6.9-15.5-15.5-15.5c-0.8,0-1.6,0.1-2.3,0.2"/>
	<path class="st0" d="M458.3,23.9c6.3-2.8,13.7-4.4,21.7-4.4s15.4,1.6,21.7,4.4"/>
	<circle class="st1" cx="480" cy="30" r="4.5"/>
	<path class="st0" d="M461.7,32.5c-0.1-0.8-0.2-1.6-0.2-2.5c0-2.9,0.6-5.6,1.8-8"/>
</g>
<g>
	<g>
		<circle class="st3" cx="10.8" cy="139" r="4.5"/>
		<circle class="st3" cx="49.8" cy="139" r="4.5"/>
		<line class="st3" x1="45" y1="139.5" x2="19" y2="139.5"/>
		<path class="st3" d="M55,139.5c0,0-1,0,1,0c3,0,3-5,3-7c0-1-3-5-16-5H10c-3,0-7-1-7-1"/>
		<path class="st3" d="M6,139.5l-5-1c0,0,0-4,0-5c0-2,2-5,2-7s4-7,4-7s12,0,23,0c6,0,14.3,8,14.3,8"/>
		<polyline class="st3" points="27,120.5 29,127.5 29,136.5 		"/>
		<line class="st3" x1="33" y1="131.5" x2="35" y2="131.5"/>
		<line class="st3" x1="18.5" y1="131.5" x2="20.5" y2="131.5"/>
		<line class="st3" x1="15" y1="120.5" x2="14" y2="127.5"/>
		<line class="st3" x1="14" y1="127.5" x2="14" y2="131.5"/>
	</g>
	<circle class="st1" cx="8.7" cy="109.7" r="4.8"/>
	<circle class="st1" cx="27.7" cy="109.7" r="4.8"/>
	<line class="st1" x1="8.7" y1="109.7" x2="17" y2="109.7"/>
	<line class="st1" x1="14.6" y1="102.6" x2="8.7" y2="109.7"/>
	<line class="st1" x1="17" y1="109.7" x2="13.4" y2="99"/>
	<line class="st1" x1="27.7" y1="109.7" x2="24.2" y2="97.8"/>
	<line class="st1" x1="17" y1="109.7" x2="24.2" y2="101.4"/>
	<line class="st1" x1="14.6" y1="102.6" x2="24.2" y2="101.4"/>
	<line class="st1" x1="9.9" y1="97.8" x2="15.8" y2="99"/>
	<line class="st1" x1="24.2" y1="97.8" x2="26.5" y2="96.5"/>
	<line class="st3" x1="28" y1="117.5" x2="28" y2="119.5"/>
	<line class="st3" x1="9" y1="117.5" x2="9" y2="119.5"/>
</g>
<g>
	<path class="st0" d="M102.5,140.5v5c0,1.1-0.9,2-2,2h-4c-1.1,0-2-0.9-2-2v-5"/>
	<line class="st0" x1="99.5" y1="140.5" x2="117.9" y2="140.5"/>
	<path class="st0" d="M94.5,140.5c-1.7,0-3-1.3-3-3V129c0-1.9,0.2-3.9,0.6-5.8l5.3-25.5c0.6-3.1,3.4-5.3,6.5-5.3h15.6"/>
	<path class="st0" d="M146,118.9l-4.4-21.1c-0.6-3.1-3.4-5.3-6.5-5.3h-15.6"/>
	<line class="st0" x1="91.5" y1="112.5" x2="93.5" y2="112.5"/>
	<line class="st0" x1="145.5" y1="112.5" x2="147.5" y2="112.5"/>
	<path class="st0" d="M117.5,126.5c-3,0-8-1-8-1l1.2,4.3c0.5,1.6,1.9,2.7,3.6,2.7h2.2"/>
	<circle class="st0" cx="111" cy="109" r="2.5"/>
	<path class="st0" d="M125,115.5c0-2.2,1.8-4,4-4s4,1.8,4,4"/>
	<path class="st0" d="M107,115.5c0-2.2,1.8-4,4-4s4,1.8,4,4"/>
	<circle class="st0" cx="129" cy="109" r="2.5"/>
	<circle class="st1" cx="134.5" cy="133.5" r="14"/>
	<g>
		<line class="st1" x1="134.5" y1="137.5" x2="134.5" y2="134.5"/>
		<line class="st1" x1="134.5" y1="141.5" x2="134.5" y2="141.5"/>
		<path class="st1" d="M134.5,126.5c2.2,0,4,1.8,4,4s-1.8,4-4,4"/>
		<path class="st1" d="M131.3,128.1c0.7-0.9,1.9-1.6,3.2-1.6"/>
	</g>
	<path class="st0" d="M92.5,121.5c0,0,2,2,10,3v1.7c0,1.3-1,2.3-2.3,2.3h-7.7"/>
	<path class="st0" d="M139.5,115.5h-40l2.4-12c0.3-1.7,1.9-3,3.6-3h28c1.8,0,3.3,1.2,3.6,3L139.5,115.5z"/>
	<line class="st0" x1="116.5" y1="136.5" x2="95.5" y2="136.5"/>
	<line class="st0" x1="117.5" y1="103.5" x2="122.5" y2="103.5"/>
</g>
<g>
	<path class="st0" d="M14.5,226v5c0,1.1-0.9,2-2,2h-6c-1.1,0-2-0.9-2-2v-5"/>
	<path class="st0" d="M57.8,208c-0.4-1-0.9-1.9-1.6-2.8l-2.7-3.2"/>
	<line class="st0" x1="10.5" y1="226" x2="30.9" y2="226"/>
	<path class="st0" d="M6.5,202l-2.7,3.2c-1.5,1.8-2.3,4.1-2.3,6.4V223c0,1.7,1.3,3,3,3"/>
	<path class="st0" d="M53.5,202l-4.7-12.3c-1.1-2.8-3.6-4.8-6.5-5.2C40,184.2,34.7,184,30,184s-10,0.2-12.3,0.6
		c-3,0.4-5.5,2.4-6.5,5.2L6.5,202"/>
	<path class="st0" d="M48.9,202l-3.6-9.5c-0.8-2.2-2.8-3.7-5.1-4c-1.8-0.2-6.5-0.4-10.2-0.4s-8.4,0.2-10.2,0.4
		c-2.3,0.3-4.2,1.8-5.1,4l-3.6,9.5H48.9z"/>
	<circle class="st0" cx="10.5" cy="211.5" r="3"/>
	<line class="st0" x1="53.5" y1="202" x2="58.5" y2="202"/>
	<line class="st0" x1="1.5" y1="202" x2="6.5" y2="202"/>
	<polyline class="st0" points="30.5,215 19.5,215 19.5,221 30.5,221 	"/>
	<circle class="st0" cx="23" cy="194.5" r="2.5"/>
	<path class="st0" d="M33,201c0-2.2,1.8-4,4-4s4,1.8,4,4"/>
	<path class="st0" d="M19,201c0-2.2,1.8-4,4-4s4,1.8,4,4"/>
	<circle class="st0" cx="37" cy="194.5" r="2.5"/>
	<g>
		<g>
			<g>
				<path class="st1" d="M34.5,213.1v7.6c0,3.5,1.2,6.8,3.5,9.8c2.3,2.9,5.1,4.8,8.5,5.6c3.4-0.8,6.2-2.7,8.5-5.6
					c2.3-2.9,3.5-6.2,3.5-9.8v-7.6l-12-5.1L34.5,213.1z"/>
			</g>
		</g>
	</g>
	<line class="st1" x1="44.5" y1="228" x2="48.5" y2="228"/>
	<polyline class="st1" points="46.5,228 46.5,220 44.5,220 	"/>
	<line class="st1" x1="46.5" y1="216" x2="46.5" y2="216"/>
</g>
<g>
	<path class="st1" d="M498.8,110.3L484.6,96c-1.8-1.8-4.7-1.8-6.5,0c0,0,0,0,0,0l-25.2,25.2c-1.8,1.8-1.8,4.7,0,6.5c0,0,0,0,0,0
		l7.7,7.7"/>
	<path class="st0" d="M467.4,114.2h38.1c1.6,0,2.9,1.3,2.9,2.9v25.2c0,1.6-1.3,2.9-2.9,2.9h-38.1c-1.6,0-2.9-1.3-2.9-2.9v-25.2
		C464.5,115.5,465.8,114.2,467.4,114.2z"/>
	<line class="st0" x1="464.5" y1="120.8" x2="508.5" y2="120.8"/>
	<line class="st0" x1="464.5" y1="127.1" x2="508.5" y2="127.1"/>
	<line class="st0" x1="470.9" y1="133.5" x2="479.5" y2="133.5"/>
	<line class="st0" x1="470.9" y1="139.8" x2="476.3" y2="139.8"/>
	<line class="st0" x1="483.8" y1="133.5" x2="489.2" y2="133.5"/>
	<line class="st1" x1="486.5" y1="98.1" x2="474" y2="110.6"/>
	<line class="st1" x1="461" y1="123.6" x2="455.5" y2="129.1"/>
	<line class="st1" x1="490.5" y1="102.1" x2="482" y2="110.6"/>
	<line class="st1" x1="460.5" y1="132.1" x2="459" y2="133.6"/>
</g>
<g>
	<path class="st0" d="M104.1,181.6c-1.1,0-2.2,0.2-3.3,0.4l5.8,5.8l-0.1,8.7l-8.7,0.1l-5.8-5.8c-0.3,1-0.4,2.1-0.4,3.3
		c0,6.9,5.6,12.5,12.5,12.5s12.5-5.6,12.5-12.5S111,181.6,104.1,181.6z"/>
	<g>
		<path class="st0" d="M115.6,199.6l31.5,31.5c1.7,1.7,1.7,4.3,0,6l0,0c-1.7,1.7-4.3,1.7-6,0l-31.5-31.5"/>
	</g>
	<line class="st0" x1="143.7" y1="233.6" x2="143.7" y2="233.6"/>
	<path class="st1" d="M120.2,198.6c6.4,0,11.5,5.1,11.5,11.5"/>
	<path class="st1" d="M120.2,221.6c-6.4,0-11.5-5.1-11.5-11.5"/>
	<path class="st1" d="M139.1,218c0.5-1.2,0.9-2.5,1.2-3.8l4.4-0.8v-6.5l-4.4-0.8c-0.5-2.6-1.6-5.1-3-7.2l2.6-3.7l-4.6-4.6l-3.7,2.6
		c-2.2-1.4-4.6-2.5-7.2-3l-0.8-4.4h-5.5"/>
	<path class="st1" d="M95.7,207.8v5.5l4.4,0.8c0.5,2.6,1.6,5.1,3,7.2l-2.6,3.7l4.6,4.6l3.7-2.6c2.2,1.4,4.6,2.5,7.2,3l0.8,4.4h6.5
		l0.8-4.4c1.2-0.2,2.4-0.6,3.5-1.1"/>
</g>
<g>
	<g>
		<circle class="st3" cx="567.1" cy="135" r="6"/>
		<path class="st3" d="M567.1,132.5c1.4,0,2.5,1.1,2.5,2.5c0,1.4-1.1,2.5-2.5,2.5s-2.5-1.1-2.5-2.5"/>
		<line class="st3" x1="560.7" y1="135.6" x2="541.6" y2="135.6"/>
		<path class="st3" d="M574.2,135.6c0,0-1.3,0,1.3,0c4,0,4-6.7,4-9.4c0-1.3-2.7-6.7-20.2-6.7h-17.7"/>
		<path class="st3" d="M541.4,108.6c6.7,0,15.6,10.8,15.6,10.8"/>
		<line class="st3" x1="541.8" y1="124.8" x2="545.8" y2="124.8"/>
	</g>
	<line class="st3" x1="541.6" y1="132" x2="561.6" y2="132"/>
	<line class="st3" x1="572.6" y1="132" x2="578.6" y2="132"/>
	<path class="st3" d="M576.6,123h-3.5c-0.8,0-1.5,0.7-1.5,1.5l0,0c0,0.8,0.7,1.5,1.5,1.5h6.5"/>
	<path class="st3" d="M576.6,105c-1.1-0.7-7.2-1.3-16.4,13.7"/>
	<line class="st3" x1="551.6" y1="114" x2="549.6" y2="119"/>
	<circle class="st1" cx="596.1" cy="101.5" r="2.5"/>
	<path class="st1" d="M585.2,118.6c1,2,3,3.4,5.4,3.4c3.3,0,6-2.7,6-6c0-3.3-2.7-6-6-6c-2.6,0-4.9,1.7-5.7,4"/>
	<path class="st1" d="M591.6,110.1C591.6,110,591.6,110,591.6,110.1c0-3.4-2.7-6.1-6-6.1s-6,2.7-6,6c0,1.4,0.5,2.7,1.3,3.7
		c-1.3,0.5-2.3,1.8-2.3,3.3c0,1.9,1.6,3.5,3.5,3.5c1.4,0,2.5-0.8,3.1-1.9c1,2,3,3.4,5.4,3.4c3.3,0,6-2.7,6-6
		C596.6,113,594.4,110.6,591.6,110.1z"/>
</g>
<g>
	<path class="st0" d="M296.7,101.5c0-1.8,1.5-3.2,3.2-3.2c1.8,0,3.2,1.5,3.2,3.2"/>
	<path class="st0" d="M303.2,116.9c0-1.8,1.5-3.2,3.2-3.2c1.8,0,3.2,1.5,3.2,3.2"/>
	<path class="st0" d="M291.5,121.3c0-2.9,2.3-5.2,5.2-5.2"/>
	<path class="st0" d="M309.6,118.3c0-1.8,1.5-3.2,3.2-3.2c1.8,0,3.2,1.5,3.2,3.2"/>
	<path class="st0" d="M316.1,120.9c0-1.8,1.5-3.2,3.2-3.2c1.8,0,3.2,1.5,3.2,3.2"/>
	<line class="st0" x1="296.7" y1="101.5" x2="296.7" y2="125.4"/>
	<line class="st0" x1="303.2" y1="101.5" x2="303.2" y2="120.3"/>
	<line class="st0" x1="309.6" y1="116.9" x2="309.6" y2="120.3"/>
	<line class="st0" x1="316.1" y1="118.3" x2="316.1" y2="122.2"/>
	<path class="st0" d="M291.5,129.9c0,8.6,7,15.6,15.6,15.6s15.6-7,15.6-15.6"/>
	<path class="st0" d="M322.6,125.9c0,2.8,0,3.7,0,3.7S322.6,128.7,322.6,125.9c0-2.8,0-5,0-5S322.6,123.1,322.6,125.9z"/>
	<line class="st0" x1="291.5" y1="121.3" x2="291.5" y2="130.1"/>
	<circle class="st1" cx="279" cy="102" r="7.5"/>
	<circle class="st1" cx="321" cy="102" r="7.5"/>
	<path class="st1" d="M293.1,104.9c-0.4-0.9-0.6-1.9-0.6-2.9c0-1,0.2-2,0.6-2.9s0.9-1.7,1.6-2.4c0.7-0.7,1.5-1.2,2.4-1.6
		c0.9-0.4,1.9-0.6,2.9-0.6s2,0.2,2.9,0.6c0.9,0.4,1.7,0.9,2.4,1.6c0.7,0.7,1.2,1.5,1.6,2.4s0.6,1.9,0.6,2.9c0,1-0.2,2-0.6,2.9"/>
</g>
<g>
	<polyline class="st0" points="384.5,126.2 384.5,148.2 365.5,135.2 365.5,127.2 	"/>
	<polygon class="st0" points="380.5,137.2 361.5,124.2 365.5,113.2 384.5,126.2 	"/>
	<polyline class="st0" points="414.5,126.2 414.5,135.2 384.5,148.2 384.5,126.2 	"/>
	<polygon class="st0" points="418.5,124.2 388.5,137.2 384.5,126.2 414.5,113.2 	"/>
	<path class="st1" d="M384.6,121.2c0.8-7.9,6-16.2,12.4-19.3c6.7-3.2,12.1,0.6,12.5,8.4"/>
	<path class="st1" d="M391.3,118.2c0.6-3.4,2.9-6.8,5.7-8.1c2.9-1.4,5.3,0.1,5.7,3.2"/>
	<line class="st1" x1="391.9" y1="93.1" x2="404.5" y2="101.1"/>
	<g>
		<polyline class="st1" points="385.3,92.5 387,95.4 390.3,95.7 392,98.6 395.4,98.9 397.1,101.8 		"/>
	</g>
	<g>
		<polyline class="st1" points="373.3,106.5 375,109.4 378.3,109.7 380,112.6 383.4,112.9 385.1,115.8 		"/>
	</g>
	<g>
		<polyline class="st1" points="377.3,97.5 379,100.4 382.3,100.7 384,103.6 387.4,103.9 389.1,106.8 		"/>
	</g>
	<path class="st1" d="M371,112c0.7-7.8,5.9-16,12.2-19c3.4-1.6,6.4-1.4,8.7,0.2"/>
</g>
<g>
	<path class="st0" d="M234.5,188.9h-34"/>
	<path class="st0" d="M200.9,188.9h-15.4c-2.2,0-4,1.8-4,4v43.9h57v-43.9c0-2.2-1.8-4-4-4l0,0"/>
	<line class="st0" x1="181.5" y1="231.2" x2="238.5" y2="231.2"/>
	<path class="st0" d="M189.5,188.9c0-3.1,2.6-5.7,5.7-5.7c3.1,0,5.7,2.6,5.7,5.7s-2.6,5.7-5.7,5.7"/>
	<path class="st0" d="M219.1,188.9c0-3.1,2.6-5.7,5.7-5.7c3.1,0,5.7,2.6,5.7,5.7s-2.6,5.7-5.7,5.7"/>
	<circle class="st1" cx="210" cy="204.4" r="2.3"/>
	<circle class="st1" cx="219.1" cy="204.4" r="2.3"/>
	<circle class="st1" cx="228.2" cy="204.4" r="2.3"/>
	<circle class="st1" cx="210" cy="213.6" r="2.3"/>
	<circle class="st1" cx="219.1" cy="213.6" r="2.3"/>
	<circle class="st1" cx="228.2" cy="213.6" r="2.3"/>
	<circle class="st1" cx="191.8" cy="213.6" r="2.3"/>
	<circle class="st1" cx="200.9" cy="213.6" r="2.3"/>
	<circle class="st1" cx="210" cy="222.7" r="2.3"/>
	<circle class="st1" cx="219.1" cy="222.7" r="2.3"/>
	<circle class="st1" cx="191.8" cy="222.7" r="2.3"/>
	<circle class="st1" cx="200.9" cy="222.7" r="2.3"/>
	<line class="st1" x1="226.5" y1="220.5" x2="230.5" y2="224.5"/>
	<line class="st1" x1="230.5" y1="220.5" x2="226.5" y2="224.5"/>
</g>
<g>
	<path class="st0" d="M207.4,117.8c1.1-0.5,1.9-1.5,2.1-2.7c1.4-6.3,1.6-12.8,0.8-19.2c-0.2-1.8-1.5-3.2-3.2-3.5
		c-7.4-1.5-15-1.5-22.4,0c-1.7,0.3-2.9,1.7-3.2,3.4c-1.1,6.5-0.8,13.1,0.9,19.5c0.3,1.1,1,2,2.1,2.5c0,0,4.4,2.2,11.3,2.2
		S207.4,117.8,207.4,117.8z"/>
	<path class="st0" d="M190.9,120l-0.1,23.7l5,5l5.2-5l0-23.7"/>
	<circle class="st0" cx="195.9" cy="101.1" r="3"/>
	<line class="st0" x1="194.9" y1="141.1" x2="194.9" y2="120.1"/>
	<path class="st1" d="M214.2,100.2l17,17c1.6,1.6,1.6,4.1,0,5.7L221.1,133c-1.5,1.5-4,1.6-5.5,0.1l-10-10.2"/>
	<path class="st1" d="M233.4,115c2.8,2.8,2.8,7.3,0,10.1"/>
	<path class="st1" d="M235.9,112.5c4.2,4.2,4.2,10.9,0,15.1"/>
	
		<rect x="217.3" y="120.1" transform="matrix(0.7071 -0.7071 0.7071 0.7071 -21.5942 191.8404)" class="st1" width="6.9" height="3.8"/>
	<path class="st1" d="M215.5,120.3c-1-1-1-2.6,0-3.5c1-1,2.6-1,3.5,0"/>
	<line class="st1" x1="215.5" y1="120.3" x2="217" y2="121.7"/>
	<line class="st1" x1="218.7" y1="105.7" x2="214.7" y2="109.7"/>
</g>
<g>
	<line class="st0" x1="-88" y1="214" x2="-82" y2="214"/>
	<line class="st0" x1="-84.6" y1="227.8" x2="-82.8" y2="226.8"/>
	<line class="st0" x1="-36.9" y1="228.7" x2="-38.7" y2="227.7"/>
	<line class="st0" x1="-33" y1="215" x2="-39" y2="215"/>
	<line class="st0" x1="-36.4" y1="201.2" x2="-38.2" y2="202.2"/>
	<line class="st0" x1="-60" y1="187" x2="-60" y2="193"/>
	<line class="st0" x1="-73.8" y1="190.4" x2="-72.8" y2="192.2"/>
	<line class="st0" x1="-84.1" y1="200.3" x2="-82.3" y2="201.3"/>
	<path class="st1" d="M-48.1,194L-48.1,194c-0.6-0.4-1.4-0.2-1.8,0.3L-63.8,211c-2,2.4-1.3,6,1.5,7.6h0c2.8,1.6,6.3,0.4,7.4-2.5
		l7.5-20.4C-47.2,195-47.5,194.3-48.1,194z"/>
	<g>
		<path class="st0" d="M-32,214c0-15.5-12.5-28-28-28s-28,12.5-28,28c0,7.8,3.2,14.9,8.4,20h39.2C-35.2,228.9-32,221.8-32,214z"/>
	</g>
	<line class="st0" x1="-70" y1="225" x2="-70" y2="228"/>
	<line class="st0" x1="-65" y1="225" x2="-65" y2="228"/>
	<line class="st0" x1="-60" y1="225" x2="-60" y2="228"/>
	<line class="st0" x1="-55" y1="225" x2="-55" y2="228"/>
	<line class="st0" x1="-50" y1="227" x2="-50" y2="228"/>
</g>
</svg>
