<?xml version="1.0" encoding="utf-8"?>
<!-- Generator: Adobe Illustrator 21.1.0, SVG Export Plug-In . SVG Version: 6.00 Build 0)  -->
<svg version="1.1" id="Layer_1" xmlns="http://www.w3.org/2000/svg" xmlns:xlink="http://www.w3.org/1999/xlink" x="0px" y="0px"
	 viewBox="0 0 55 56" style="enable-background:new 0 0 55 56;" xml:space="preserve">
<style type="text/css">
	.st0{fill:none;stroke:#33414E;stroke-width:1.8333;stroke-linecap:round;stroke-linejoin:round;}
	.st1{fill:none;stroke:#BA0C2F;stroke-width:1.8333;stroke-linecap:round;stroke-linejoin:round;}
</style>
<g>
	<circle class="st0" cx="9.9" cy="22.5" r="4.1"/>
	<circle class="st0" cx="45.6" cy="22.5" r="4.1"/>
	<line class="st0" x1="41.2" y1="22.9" x2="17.4" y2="22.9"/>
	<path class="st0" d="M50.3,22.9c0,0-0.9,0,0.9,0c2.7,0,2.7-4.6,2.7-6.4c0-0.9-4.6-6.4-13.7-6.4H9.2c-2.7,0-6.4-0.9-6.4-0.9"/>
	<path class="st0" d="M5.6,22.9L1,22c0,0,0-3.7,0-4.6c0-1.8,1.8-6.4,1.8-8.2S7.4,1,11.1,1c0.9,0,7.3,0,17.4,0
		c7.3,0,15.5,9.1,15.5,9.1"/>
	<polyline class="st0" points="25.7,1 27.5,9.2 27.5,20.2 	"/>
	<line class="st0" x1="31.2" y1="14.7" x2="33" y2="14.7"/>
	<line class="st0" x1="17.4" y1="14.7" x2="19.3" y2="14.7"/>
	<line class="st0" x1="15.6" y1="1" x2="13.8" y2="10.1"/>
	<line class="st0" x1="13.8" y1="10.1" x2="13.8" y2="16.1"/>
</g>
<g>
	<circle class="st1" cx="9.9" cy="50.5" r="4.1"/>
	<circle class="st1" cx="45.6" cy="50.5" r="4.1"/>
	<line class="st1" x1="41.2" y1="50.9" x2="17.4" y2="50.9"/>
	<path class="st1" d="M50.3,50.9c0,0-0.9,0,0.9,0c2.7,0,2.7-4.6,2.7-6.4c0-0.9-4.6-6.4-13.7-6.4H9.2c-2.7,0-6.4-0.9-6.4-0.9"/>
	<path class="st1" d="M5.6,50.9L1,50c0,0,0-3.7,0-4.6c0-1.8,1.8-6.4,1.8-8.2c0-1.8,4.6-8.2,8.2-8.2c0.9,0,7.3,0,17.4,0
		c7.3,0,15.5,9.1,15.5,9.1"/>
	<polyline class="st1" points="25.7,29 27.5,37.2 27.5,48.2 	"/>
	<line class="st1" x1="31.2" y1="42.7" x2="33" y2="42.7"/>
	<line class="st1" x1="17.4" y1="42.7" x2="19.3" y2="42.7"/>
	<line class="st1" x1="15.6" y1="29" x2="13.8" y2="38.1"/>
	<line class="st1" x1="13.8" y1="38.1" x2="13.8" y2="44.1"/>
</g>
</svg>
