<svg xmlns="http://www.w3.org/2000/svg" width="60" height="60" viewBox="0 0 60 60">
  <defs>
    <style>
      .a {
        fill: none;
        stroke: #000;
        stroke-linecap: round;
        stroke-linejoin: round;
        stroke-width: 2px;
      }
    </style>
  </defs>
  <title>car-shape-coupe</title>
  <g>
    <circle class="a" cx="10.77" cy="37.54" r="4.46"/>
    <circle class="a" cx="49.77" cy="37.54" r="4.46"/>
    <line class="a" x1="45" y1="38" x2="19" y2="38"/>
    <path class="a" d="M55,38h1c3,0,3-5,3-7,0-1-3-5-16-5H15c-5,0-10-7-10-7"/>
    <path class="a" d="M6,38,1,37V32c0-2,3-6,3-8h6s5-6,17-6c9,0,18.31,8,18.31,8"/>
    <polyline class="a" points="24 23 26 26 26 35"/>
    <line class="a" x1="30" y1="30" x2="33" y2="30"/>
  </g>
</svg>
