<?xml version="1.0" encoding="utf-8"?>
<!-- Generator: Adobe Illustrator 21.1.0, SVG Export Plug-In . SVG Version: 6.00 Build 0)  -->
<svg version="1.1" id="Layer_1" xmlns="http://www.w3.org/2000/svg" xmlns:xlink="http://www.w3.org/1999/xlink" x="0px" y="0px"
	 viewBox="0 0 55 25" style="enable-background:new 0 0 55 25;" xml:space="preserve">
<style type="text/css">
	.st0{fill:none;stroke:#000000;stroke-width:2;stroke-linecap:round;stroke-linejoin:round;stroke-miterlimit:10;}
	.st1{fill:none;stroke:#BA0C2F;stroke-width:2;stroke-linecap:round;stroke-linejoin:round;stroke-miterlimit:10;}
	.st2{fill:#BA0C2F;}
	.st3{fill:none;stroke:#000000;stroke-width:2;stroke-linecap:round;stroke-linejoin:round;}
</style>
<g>
	<path class="st0" d="M365.5,185.9c0-12.2,9.8-22,22-22s22,9.8,22,22"/>
	<path class="st0" d="M409.8,202.9c0,8.8-7.2,16-16,16"/>
	<rect x="407" y="186.4" class="st0" width="5" height="15.5"/>
	<rect x="363" y="186.4" class="st0" width="5" height="15.5"/>
	<path class="st0" d="M390.8,221.1h-6.5c-1.2,0-2.3-1-2.3-2.3l0,0c0-1.2,1-2.3,2.3-2.3h6.5c1.2,0,2.3,1,2.3,2.3l0,0
		C393,220.1,392,221.1,390.8,221.1z"/>
	<path class="st1" d="M378.8,201.9c0,4.8,3.9,8.8,8.8,8.8s8.8-3.9,8.8-8.8H378.8z"/>
	<path class="st0" d="M412,198.1c2.2,0,4-1.8,4-4s-1.8-4-4-4V198.1z"/>
	<path class="st0" d="M363,190.1c-2.2,0-4,1.8-4,4s1.8,4,4,4V190.1z"/>
	<path class="st1" d="M384,194.9c0-1.7-1.3-3-3-3s-3,1.3-3,3"/>
	<path class="st1" d="M397,194.9c0-1.7-1.3-3-3-3s-3,1.3-3,3"/>
	<path class="st1" d="M372,187.9c5,0,11-8,8-17c3,9,8,18,23,16"/>
</g>
<g>
	<path class="st0" d="M463,204v-38c0-1.1,0.9-2,2-2h39c1.1,0,2,0.9,2,2v46c0,5-4,9-9,9h-39c-5,0-9-4-9-9v-2c0-1.1,0.9-2,2-2h39
		c1.1,0,2,0.9,2,2v1c0,5,5,6,5,6"/>
	<line class="st1" x1="480" y1="174" x2="499" y2="174"/>
	<line class="st1" x1="470" y1="174" x2="474" y2="174"/>
	<line class="st1" x1="495" y1="185" x2="499" y2="185"/>
	<line class="st1" x1="470" y1="185" x2="489" y2="185"/>
	<line class="st1" x1="485" y1="196" x2="499" y2="196"/>
	<line class="st1" x1="470" y1="196" x2="479" y2="196"/>
	<circle class="st1" cx="477" cy="174" r="3"/>
	<circle class="st1" cx="492" cy="185" r="3"/>
	<circle class="st1" cx="482" cy="196" r="3"/>
</g>
<g>
	<path class="st0" d="M672,269c-0.6-0.4-1.2-0.7-1.8-1"/>
	<path class="st0" d="M680.9,279c-0.7-1.8-1.7-3.5-2.9-5"/>
	<path class="st0" d="M674,299.7c3.2-2.3,5.6-5.3,6.9-8.7"/>
	<path class="st0" d="M645.3,302.7c3.5,1.5,7.5,2.3,11.7,2.3c4.5,0,8.8-1,12.5-2.7"/>
	<path class="st0" d="M643.8,268c-7.1,3.5-11.8,9.8-11.8,17c0,6.2,3.5,11.7,9,15.4"/>
	<path class="st1" d="M666.5,271.8c-2.8-1.3-6-2-9.5-2s-6.7,0.7-9.5,2"/>
	<polyline class="st0" points="681,279 686,279 686,291 681,291 	"/>
	<path class="st0" d="M632,285L632,285c-1.7,0-3-1.3-3-3v-4"/>
	<path class="st1" d="M650.7,270.6c-2-1.7-3.2-4.3-3.2-7.1c0-5.2,4.3-9.5,9.5-9.5s9.5,4.3,9.5,9.5c0,2.9-1.3,5.4-3.2,7.1"/>
	<polyline class="st0" points="641,300.4 641,311 648,311 648.6,303.8 	"/>
	<polyline class="st0" points="666.4,303.5 667,311 674,311 674,299.7 	"/>
	<polyline class="st0" points="672,269 678.5,265.5 678,274 	"/>
	<path class="st0" d="M670.5,278.6c0-1.4,1.1-2.5,2.5-2.5s2.5,1.1,2.5,2.5"/>
	<path class="st1" d="M655,261c0-1.1,0.9-2,2-2"/>
	<line class="st1" x1="655" y1="261" x2="655" y2="266"/>
	<line class="st1" x1="654" y1="266" x2="659" y2="266"/>
	<line class="st1" x1="655" y1="262" x2="657" y2="262"/>
</g>
<g>
	<path class="st1" d="M311,202.5c0-1.1,0.9-2,2-2"/>
	<line class="st1" x1="311" y1="202.5" x2="311" y2="207.5"/>
	<line class="st1" x1="310" y1="207.5" x2="315" y2="207.5"/>
	<line class="st1" x1="311" y1="203.5" x2="313" y2="203.5"/>
	<g>
		<path class="st1" d="M312,218.5c-3.9,0-7.4-1.6-9.9-4.1c-2.5-2.5-4.1-6-4.1-9.9s1.6-7.4,4.1-9.9"/>
		<path class="st1" d="M312,190.5c3.9,0,7.4,1.6,9.9,4.1c2.5,2.5,4.1,6,4.1,9.9s-1.6,7.4-4.1,9.9"/>
		<polyline class="st1" points="298,193.5 303.9,193.5 303.9,199.4 		"/>
		<polyline class="st1" points="326,215.5 320.1,215.5 320.1,209.6 		"/>
	</g>
	<path class="st0" d="M282,208.5v5c0,1.1-0.9,2-2,2h-6c-1.1,0-2-0.9-2-2v-5"/>
	<path class="st0" d="M326,194.1c0-2.3-0.8-4.6-2.3-6.4l-2.7-3.2"/>
	<line class="st0" x1="278" y1="208.5" x2="294.4" y2="208.5"/>
	<path class="st0" d="M274,184.5l-2.7,3.2c-1.5,1.8-2.3,4.1-2.3,6.4v11.4c0,1.7,1.3,3,3,3"/>
	<path class="st0" d="M321,184.5l-4.7-12.3c-1.1-2.8-3.6-4.8-6.5-5.2c-2.3-0.3-7.6-0.6-12.3-0.6s-10,0.2-12.3,0.6
		c-3,0.4-5.5,2.4-6.5,5.2l-4.7,12.3"/>
	<path class="st0" d="M316.4,184.5l-3.6-9.5c-0.8-2.2-2.8-3.7-5.1-4c-1.8-0.2-6.5-0.4-10.2-0.4s-8.4,0.2-10.2,0.4
		c-2.3,0.3-4.2,1.8-5.1,4l-3.6,9.5H316.4z"/>
	<circle class="st0" cx="278" cy="194" r="3"/>
	<line class="st0" x1="321" y1="184.5" x2="326" y2="184.5"/>
	<line class="st0" x1="269" y1="184.5" x2="274" y2="184.5"/>
	<polyline class="st0" points="295,197.5 287,197.5 287,203.5 293,203.5 	"/>
	<circle class="st0" cx="290.5" cy="177" r="2.5"/>
	<path class="st0" d="M300.5,183.5c0-2.2,1.8-4,4-4s4,1.8,4,4"/>
	<path class="st0" d="M286.5,183.5c0-2.2,1.8-4,4-4s4,1.8,4,4"/>
	<circle class="st0" cx="304.5" cy="177" r="2.5"/>
</g>
<g>
	<path class="st0" d="M12,298.5v5c0,1.1-0.9,2-2,2H4c-1.1,0-2-0.9-2-2v-5"/>
	<path class="st0" d="M56,284.1c0-2.3-0.8-4.6-2.3-6.4l-2.7-3.2"/>
	<line class="st0" x1="8" y1="298.5" x2="24.4" y2="298.5"/>
	<path class="st0" d="M4,274.5l-2.7,3.2c-1.5,1.8-2.3,4.1-2.3,6.4v11.4c0,1.7,1.3,3,3,3"/>
	<path class="st0" d="M51,274.5l-4.7-12.3c-1.1-2.8-3.6-4.8-6.5-5.2c-2.3-0.3-7.6-0.6-12.3-0.6s-10,0.2-12.3,0.6
		c-3,0.4-5.5,2.4-6.5,5.2L4,274.5"/>
	<path class="st0" d="M46.4,274.5l-3.6-9.5c-0.8-2.2-2.8-3.7-5.1-4c-1.8-0.2-6.5-0.4-10.2-0.4s-8.4,0.2-10.2,0.4
		c-2.3,0.3-4.2,1.8-5.1,4l-3.6,9.5H46.4z"/>
	<circle class="st0" cx="8" cy="284" r="3"/>
	<line class="st0" x1="51" y1="274.5" x2="56" y2="274.5"/>
	<line class="st0" x1="-1" y1="274.5" x2="4" y2="274.5"/>
	<polyline class="st0" points="25,287.5 17,287.5 17,293.5 23,293.5 	"/>
	<circle class="st0" cx="20.5" cy="267" r="2.5"/>
	<path class="st0" d="M30.5,273.5c0-2.2,1.8-4,4-4s4,1.8,4,4"/>
	<path class="st0" d="M16.5,273.5c0-2.2,1.8-4,4-4s4,1.8,4,4"/>
	<circle class="st0" cx="34.5" cy="267" r="2.5"/>
	<circle class="st1" cx="42" cy="294.5" r="14"/>
	<g>
		<line class="st1" x1="42" y1="298.5" x2="42" y2="295.5"/>
		<line class="st1" x1="42" y1="302.5" x2="42" y2="302.5"/>
		<path class="st1" d="M42,287.5c2.2,0,4,1.8,4,4s-1.8,4-4,4"/>
		<path class="st1" d="M38.8,289.1c0.7-0.9,1.9-1.6,3.2-1.6"/>
	</g>
</g>
<g>
	<g>
		<path class="st1" d="M565.5,183.2c0-1.4,1.1-2.5,2.5-2.5"/>
		<line class="st1" x1="565.5" y1="183.2" x2="565.5" y2="189.4"/>
		<line class="st1" x1="564.3" y1="189.4" x2="570.5" y2="189.4"/>
		<line class="st1" x1="565.5" y1="184.5" x2="568" y2="184.5"/>
	</g>
	<line class="st0" x1="558" y1="168" x2="586" y2="168"/>
	<line class="st0" x1="550" y1="168" x2="552" y2="168"/>
	<path class="st0" d="M572,208v7l1,0h2c3.3,0,6,2.7,6,6l0,0h-27l0,0c0-3.3,2.7-6,6-6h2l1,0v-8l0-2.5c-8.1-2-14.1-9.4-14.1-18.1V164
		h37.3v22.4c0,10.3-8.3,18.6-18.6,18.6"/>
	<line class="st0" x1="596" y1="173" x2="587" y2="173"/>
	<path class="st0" d="M596,173c0,0,0,5,0,7c0,4-2,10-10,11"/>
	<path class="st0" d="M549,191c-8-1-10-7-10-11c0-2,0-7,0-7h9"/>
	<path class="st1" d="M568.9,173.4l0.6,0.6c0.5,0.5,1.2,0.7,1.9,0.5l0.8-0.2c1.1-0.3,2.2,0.3,2.5,1.4l0.2,0.8
		c0.2,0.7,0.7,1.2,1.4,1.4l0.8,0.2c1.1,0.3,1.7,1.4,1.4,2.5l-0.2,0.8c-0.2,0.7,0,1.4,0.5,1.9l0.6,0.6c0.8,0.8,0.8,2.1,0,2.8
		l-0.6,0.6c-0.5,0.5-0.7,1.2-0.5,1.9l0.2,0.8c0.3,1.1-0.3,2.2-1.4,2.5l-0.8,0.2c-0.7,0.2-1.2,0.7-1.4,1.4l-0.2,0.8
		c-0.3,1.1-1.4,1.7-2.5,1.4l-0.8-0.2c-0.7-0.2-1.4,0-1.9,0.5l-0.6,0.6c-0.8,0.8-2.1,0.8-2.8,0l-0.6-0.6c-0.5-0.5-1.2-0.7-1.9-0.5
		l-0.8,0.2c-1.1,0.3-2.2-0.3-2.5-1.4l-0.2-0.8c-0.2-0.7-0.7-1.2-1.4-1.4l-0.8-0.2c-1.1-0.3-1.7-1.4-1.4-2.5l0.2-0.8
		c0.2-0.7,0-1.4-0.5-1.9l-0.6-0.6c-0.8-0.8-0.8-2.1,0-2.8l0.6-0.6c0.5-0.5,0.7-1.2,0.5-1.9l-0.2-0.8c-0.3-1.1,0.3-2.2,1.4-2.5
		l0.8-0.2c0.7-0.2,1.2-0.7,1.4-1.4l0.2-0.8c0.3-1.1,1.4-1.7,2.5-1.4l0.8,0.2c0.7,0.2,1.4,0,1.9-0.5l0.6-0.6
		C566.9,172.6,568.1,172.6,568.9,173.4z"/>
</g>
<g>
	<g>
		<path d="M117.5,402c-13.8,0-25-11.2-25-25s11.2-25,25-25s25,11.2,25,25S131.3,402,117.5,402z M117.5,354c-12.7,0-23,10.3-23,23
			s10.3,23,23,23s23-10.3,23-23S130.2,354,117.5,354z"/>
	</g>
	<g>
		<path d="M117.5,359c-0.3,0-0.5-0.1-0.7-0.3c-0.2-0.2-0.3-0.5-0.3-0.7c0-0.3,0.1-0.5,0.3-0.7c0.4-0.4,1-0.4,1.4,0
			c0.2,0.2,0.3,0.4,0.3,0.7c0,0.3-0.1,0.5-0.3,0.7C118,358.9,117.8,359,117.5,359z"/>
	</g>
	<g>
		<path d="M108,361.5c-0.1,0-0.3,0-0.4-0.1c-0.1,0-0.2-0.1-0.3-0.2c-0.2-0.2-0.3-0.4-0.3-0.7c0-0.3,0.1-0.5,0.3-0.7
			c0.1-0.1,0.2-0.2,0.3-0.2c0.4-0.1,0.8-0.1,1.1,0.2c0.2,0.2,0.3,0.4,0.3,0.7c0,0.3-0.1,0.5-0.3,0.7
			C108.5,361.4,108.3,361.5,108,361.5z"/>
	</g>
	<g>
		<path d="M101,368.5c-0.3,0-0.5-0.1-0.7-0.3c-0.2-0.2-0.3-0.5-0.3-0.7c0-0.3,0.1-0.5,0.3-0.7c0.4-0.4,1-0.4,1.4,0
			c0.2,0.2,0.3,0.4,0.3,0.7c0,0.3-0.1,0.5-0.3,0.7C101.6,368.4,101.3,368.5,101,368.5z"/>
	</g>
	<g>
		<path d="M98.5,378c-0.3,0-0.5-0.1-0.7-0.3c-0.2-0.2-0.3-0.5-0.3-0.7c0-0.1,0-0.3,0.1-0.4c0.1-0.1,0.1-0.2,0.2-0.3
			c0.4-0.4,1-0.4,1.4,0c0.1,0.1,0.2,0.2,0.2,0.3c0.1,0.1,0.1,0.3,0.1,0.4c0,0.3-0.1,0.5-0.3,0.7C99,377.9,98.8,378,98.5,378z"/>
	</g>
	<g>
		<path d="M101,387.5c-0.1,0-0.3,0-0.4-0.1c-0.1-0.1-0.2-0.1-0.3-0.2c-0.1-0.1-0.2-0.2-0.2-0.3c0-0.1-0.1-0.3-0.1-0.4
			c0-0.1,0-0.3,0.1-0.4c0.1-0.1,0.1-0.2,0.2-0.3c0.1-0.1,0.2-0.2,0.3-0.2c0.4-0.2,0.8-0.1,1.1,0.2c0.1,0.1,0.2,0.2,0.2,0.3
			c0.1,0.1,0.1,0.3,0.1,0.4c0,0.1,0,0.3-0.1,0.4c0,0.1-0.1,0.2-0.2,0.3C101.6,387.4,101.3,387.5,101,387.5z"/>
	</g>
	<g>
		<path d="M108,394.5c-0.1,0-0.3,0-0.4-0.1c-0.1-0.1-0.2-0.1-0.3-0.2c-0.1-0.1-0.2-0.2-0.2-0.3c0-0.1-0.1-0.3-0.1-0.4
			c0-0.3,0.1-0.5,0.3-0.7c0.1-0.1,0.2-0.2,0.3-0.2c0.2-0.1,0.5-0.1,0.8,0c0.1,0,0.2,0.1,0.3,0.2c0.2,0.2,0.3,0.4,0.3,0.7
			c0,0.1,0,0.3-0.1,0.4c-0.1,0.1-0.1,0.2-0.2,0.3c-0.1,0.1-0.2,0.2-0.3,0.2C108.3,394.4,108.1,394.5,108,394.5z"/>
	</g>
	<g>
		<path d="M117.5,397c-0.3,0-0.5-0.1-0.7-0.3c-0.1-0.1-0.2-0.2-0.2-0.3c0-0.1-0.1-0.3-0.1-0.4c0-0.1,0-0.1,0-0.2
			c0-0.1,0-0.1,0.1-0.2c0-0.1,0.1-0.1,0.1-0.2c0-0.1,0.1-0.1,0.1-0.1c0.3-0.3,0.7-0.4,1.1-0.2c0.1,0.1,0.2,0.1,0.3,0.2
			c0.2,0.2,0.3,0.4,0.3,0.7c0,0.1,0,0.3-0.1,0.4c-0.1,0.1-0.1,0.2-0.2,0.3c-0.1,0.1-0.2,0.2-0.3,0.2C117.8,397,117.6,397,117.5,397z
			"/>
	</g>
	<g>
		<path d="M127,394.5c-0.1,0-0.3,0-0.4-0.1c-0.1-0.1-0.2-0.1-0.3-0.2c-0.1-0.1-0.2-0.2-0.2-0.3c0-0.1-0.1-0.3-0.1-0.4
			c0-0.3,0.1-0.5,0.3-0.7c0.1-0.1,0.2-0.2,0.3-0.2c0.2-0.1,0.4-0.1,0.6-0.1c0.1,0,0.1,0,0.2,0.1c0.1,0,0.1,0.1,0.2,0.1
			c0,0,0.1,0.1,0.1,0.1c0.2,0.2,0.3,0.4,0.3,0.7c0,0.1,0,0.3-0.1,0.4c-0.1,0.1-0.1,0.2-0.2,0.3C127.5,394.3,127.3,394.5,127,394.5z"
			/>
	</g>
	<g>
		<path d="M133.9,387.5c-0.1,0-0.3,0-0.4-0.1c-0.1-0.1-0.2-0.1-0.3-0.2c-0.1-0.1-0.2-0.2-0.2-0.3s-0.1-0.3-0.1-0.4
			c0-0.1,0-0.3,0.1-0.4c0-0.1,0.1-0.2,0.2-0.3c0.1-0.1,0.2-0.2,0.3-0.2c0.4-0.2,0.8-0.1,1.1,0.2c0.1,0.1,0.2,0.2,0.2,0.3
			c0,0.1,0.1,0.3,0.1,0.4c0,0.1,0,0.3-0.1,0.4c-0.1,0.1-0.1,0.2-0.2,0.3C134.5,387.4,134.2,387.5,133.9,387.5z"/>
	</g>
	<g>
		<path d="M136.5,378c-0.1,0-0.3,0-0.4-0.1c-0.1-0.1-0.2-0.1-0.3-0.2c-0.2-0.2-0.3-0.5-0.3-0.7c0-0.1,0-0.3,0.1-0.4
			c0.1-0.1,0.1-0.2,0.2-0.3c0.1-0.1,0.2-0.2,0.3-0.2c0.4-0.2,0.8-0.1,1.1,0.2c0.1,0.1,0.2,0.2,0.2,0.3c0.1,0.1,0.1,0.3,0.1,0.4
			c0,0.3-0.1,0.5-0.3,0.7C137,377.9,136.8,378,136.5,378z"/>
	</g>
	<g>
		<path d="M133.9,368.5c-0.3,0-0.5-0.1-0.7-0.3c-0.2-0.2-0.3-0.5-0.3-0.7c0-0.3,0.1-0.5,0.3-0.7c0.4-0.4,1-0.4,1.4,0
			c0.2,0.2,0.3,0.4,0.3,0.7c0,0.3-0.1,0.5-0.3,0.7C134.5,368.4,134.2,368.5,133.9,368.5z"/>
	</g>
	<g>
		<path d="M125.5,350h-16c-0.6,0-1-0.4-1-1v-5c0-0.6,0.4-1,1-1h16c0.6,0,1,0.4,1,1v5C126.5,349.6,126.1,350,125.5,350z M110.5,348
			h14v-3h-14V348z"/>
	</g>
	<g>
		<path d="M113.5,354c-0.6,0-1-0.4-1-1v-4c0-0.6,0.4-1,1-1s1,0.4,1,1v4C114.5,353.6,114.1,354,113.5,354z"/>
	</g>
	<g>
		<path d="M121.5,354c-0.6,0-1-0.4-1-1v-4c0-0.6,0.4-1,1-1s1,0.4,1,1v4C122.5,353.6,122.1,354,121.5,354z"/>
	</g>
	<g>
		<path d="M140,360.5c-0.3,0-0.5-0.1-0.7-0.3l-7-7c-0.4-0.4-0.4-1,0-1.4s1-0.4,1.4,0l7,7c0.4,0.4,0.4,1,0,1.4
			C140.5,360.4,140.3,360.5,140,360.5z"/>
	</g>
	<g>
		<path d="M95,360.5c-0.3,0-0.5-0.1-0.7-0.3c-0.4-0.4-0.4-1,0-1.4l7-7c0.4-0.4,1-0.4,1.4,0s0.4,1,0,1.4l-7,7
			C95.5,360.4,95.3,360.5,95,360.5z"/>
	</g>
	<g>
		<path class="st2" d="M117.6,382c-0.9,0-1.8-0.2-2.6-0.7c-1.3-0.8-2.3-2.1-2.5-3.6c-0.3-1.5,0.1-3.1,1.1-4.3l11.7-14.1
			c0.7-0.8,1.8-1,2.8-0.5c0.9,0.5,1.3,1.7,0.9,2.7l-6.4,17.2c-0.5,1.4-1.7,2.6-3.1,3.1C118.8,381.9,118.2,382,117.6,382z
			 M126.9,360.5c-0.1,0-0.1,0-0.1,0.1l-11.7,14.2c-0.6,0.7-0.9,1.7-0.7,2.6s0.7,1.7,1.6,2.2c0.8,0.5,1.8,0.6,2.7,0.2
			c0.9-0.3,1.6-1,1.9-1.9l6.4-17.2C127.1,360.7,127.1,360.6,126.9,360.5C127,360.5,126.9,360.5,126.9,360.5z"/>
	</g>
</g>
<g>
	<path class="st0" d="M192,298.5v5c0,1.1-0.9,2-2,2h-6c-1.1,0-2-0.9-2-2v-5"/>
	<path class="st0" d="M235.3,280.5c-0.4-1-0.9-1.9-1.6-2.8l-2.7-3.2"/>
	<line class="st0" x1="188" y1="298.5" x2="208.4" y2="298.5"/>
	<path class="st0" d="M184,274.5l-2.7,3.2c-1.5,1.8-2.3,4.1-2.3,6.4v11.4c0,1.7,1.3,3,3,3"/>
	<path class="st0" d="M231,274.5l-4.7-12.3c-1.1-2.8-3.6-4.8-6.5-5.2c-2.3-0.3-7.6-0.6-12.3-0.6s-10,0.2-12.3,0.6
		c-3,0.4-5.5,2.4-6.5,5.2l-4.7,12.3"/>
	<path class="st0" d="M226.4,274.5l-3.6-9.5c-0.8-2.2-2.8-3.7-5.1-4c-1.8-0.2-6.5-0.4-10.2-0.4s-8.4,0.2-10.2,0.4
		c-2.3,0.3-4.2,1.8-5.1,4l-3.6,9.5H226.4z"/>
	<circle class="st0" cx="188" cy="284" r="3"/>
	<line class="st0" x1="231" y1="274.5" x2="236" y2="274.5"/>
	<line class="st0" x1="179" y1="274.5" x2="184" y2="274.5"/>
	<polyline class="st0" points="208,287.5 197,287.5 197,293.5 208,293.5 	"/>
	<circle class="st0" cx="200.5" cy="267" r="2.5"/>
	<path class="st0" d="M210.5,273.5c0-2.2,1.8-4,4-4s4,1.8,4,4"/>
	<path class="st0" d="M196.5,273.5c0-2.2,1.8-4,4-4s4,1.8,4,4"/>
	<circle class="st0" cx="214.5" cy="267" r="2.5"/>
	<g>
		<g>
			<g>
				<path class="st1" d="M213,286.4v7.3c0,3.4,1.1,6.6,3.3,9.4c2.2,2.8,4.9,4.6,8.2,5.4c3.2-0.8,6-2.6,8.2-5.4
					c2.2-2.8,3.3-6,3.3-9.4v-7.3l-11.5-4.9L213,286.4z"/>
			</g>
		</g>
	</g>
	<polyline class="st1" points="220,295.5 224,298.5 230,291.5 	"/>
</g>
<g>
	<path class="st1" d="M558.7,297.3c2.6-2.2,5.9-7.8,1.5-13.3c-5.6-7-21-10-21-10s1.1,14.1,6.6,21
		C550.2,300.6,556.3,299.3,558.7,297.3z"/>
	<path class="st0" d="M563.1,311c0,0,2.9-8.1,10-16c9-10,13-26,13-32"/>
	<path class="st0" d="M573,294.5c7.5,5,16.4,0.6,20.2-6.5c9-17-7-34-8-34c-3,7-13.5,14-17,21C564.1,283,566.1,290,573,294.5z"/>
	<g>
		<path class="st1" d="M545.1,280c17,18,19,22,19,22"/>
		<path class="st1" d="M558.7,297.3c2.6-2.2,5.9-7.8,1.5-13.3c-5.6-7-21-10-21-10s1.1,14.1,6.6,21
			C550.2,300.6,556.3,299.3,558.7,297.3z"/>
		<path class="st0" d="M563.1,311c0,0,2.9-8.1,10-16c9-10,13-26,13-32"/>
		<path class="st0" d="M573,294.5c7.5,5,16.4,0.6,20.2-6.5c9-17-7-34-8-34c-3,7-13.5,14-17,21C564.1,283,566.1,290,573,294.5z"/>
	</g>
</g>
<g>
	<circle class="st1" cx="363.5" cy="261.5" r="4"/>
	<path class="st1" d="M363.5,265.5v13c0,2.2,1.8,4,4,4h8"/>
	<circle class="st0" cx="379.5" cy="261.5" r="4"/>
	<circle class="st0" cx="395.5" cy="261.5" r="4"/>
	<circle class="st0" cx="411.5" cy="261.5" r="4"/>
	<circle class="st0" cx="379.5" cy="303.5" r="4"/>
	<circle class="st0" cx="395.5" cy="303.5" r="4"/>
	<circle class="st0" cx="411.5" cy="303.5" r="4"/>
	<line class="st0" x1="379.5" y1="265.5" x2="379.5" y2="299.5"/>
	<line class="st0" x1="395.5" y1="265.5" x2="395.5" y2="299.5"/>
	<line class="st0" x1="411.5" y1="265.5" x2="411.5" y2="299.5"/>
	<line class="st0" x1="411.5" y1="282.5" x2="379.5" y2="282.5"/>
</g>
<g>
	<path class="st0" d="M325.5,290.3c0-15.5-12.5-28-28-28s-28,12.5-28,28"/>
	<g>
		<polyline class="st0" points="273.5,302.7 269.5,302.7 269.5,296 273.5,296 		"/>
		<line class="st0" x1="269.5" y1="299.3" x2="272.5" y2="299.3"/>
	</g>
	<g>
		<polyline class="st0" points="321.5,301.7 321.5,295 325.5,295 		"/>
		<line class="st0" x1="321.5" y1="298.3" x2="324.5" y2="298.3"/>
	</g>
	<line class="st0" x1="297.5" y1="262.3" x2="297.5" y2="268.3"/>
	<path class="st1" d="M308.4,270.3L308.4,270.3c-0.6-0.4-1.4-0.2-1.8,0.3l-13.9,16.7c-2,2.4-1.3,6,1.5,7.6l0,0
		c2.8,1.6,6.3,0.4,7.4-2.5l7.5-20.4C309.3,271.4,309,270.6,308.4,270.3z"/>
	<line class="st0" x1="325.5" y1="290.3" x2="319.5" y2="290.3"/>
	<line class="st0" x1="269.5" y1="290.3" x2="275.5" y2="290.3"/>
	<line class="st0" x1="269.5" y1="290.3" x2="271.5" y2="290.3"/>
	<line class="st0" x1="273.4" y1="276.7" x2="275.2" y2="277.7"/>
	<line class="st0" x1="283.7" y1="266.8" x2="284.7" y2="268.5"/>
	<line class="st0" x1="321.1" y1="277.5" x2="319.3" y2="278.5"/>
</g>
<g>
	<path class="st1" d="M484.1,270.5c0,3.9-2,10-7,10s-7-6.1-7-10s3.1-7,7-7S484.1,266.6,484.1,270.5z"/>
	<path class="st1" d="M463.1,301.5c0-9.4,5-17,14-17s14,7.6,14,17"/>
	<path class="st0" d="M500.8,273.5c0,2.9-1.5,7.5-5.3,7.5s-5.3-4.6-5.3-7.5s2.4-5.3,5.3-5.3C498.5,268.3,500.8,270.6,500.8,273.5z"
		/>
	<path class="st0" d="M489.9,285.7c1.5-1.1,3.4-1.7,5.7-1.7c6.8,0,10.5,5.7,10.5,12.8"/>
	<path class="st0" d="M454.2,273.5c0,2.9,1.5,7.5,5.3,7.5s5.3-4.6,5.3-7.5s-2.4-5.3-5.3-5.3C456.5,268.3,454.2,270.6,454.2,273.5z"
		/>
	<path class="st0" d="M465.1,285.7c-1.5-1.1-3.4-1.7-5.7-1.7c-6.8,0-10.5,5.7-10.5,12.8"/>
	<line class="st1" x1="469.7" y1="286.7" x2="476.8" y2="293.7"/>
	<line class="st1" x1="480.3" y1="297.3" x2="484.1" y2="301.5"/>
	
		<rect x="476.1" y="293.5" transform="matrix(0.7071 0.7071 -0.7071 0.7071 349.1231 -251.8578)" class="st1" width="5" height="4"/>
</g>
<g>
	<path class="st0" d="M102,300.5v4c0,1.1-0.9,2-2,2h-6c-1.1,0-2-0.9-2-2v-4"/>
	<path class="st0" d="M143,300.5v4c0,1.1-0.9,2-2,2h-6c-1.1,0-2-0.9-2-2v-4"/>
	<path class="st0" d="M143,300.5c1.7,0,3-1.3,3-3v-11.4c0-2.3-0.8-4.6-2.3-6.4l-2.7-3.2"/>
	<path class="st0" d="M94,276.5l-2.7,3.2c-1.5,1.8-2.3,4.1-2.3,6.4v11.4c0,1.7,1.3,3,3,3"/>
	<path class="st0" d="M141,276.5l-4.7-12.3c-1.1-2.8-3.6-4.8-6.5-5.2c-2.3-0.3-7.6-0.6-12.3-0.6s-10,0.2-12.3,0.6
		c-3,0.4-5.5,2.4-6.5,5.2L94,276.5"/>
	<path class="st0" d="M135,275.5l-3.4-8.9c-0.8-2-2.6-3.4-4.7-3.7c-1.7-0.2-6-0.4-9.4-0.4s-7.8,0.2-9.4,0.4
		c-2.1,0.3-3.9,1.7-4.7,3.7l-3.4,8.9H135z"/>
	<circle class="st0" cx="98" cy="286" r="3"/>
	<circle class="st0" cx="137" cy="286" r="3"/>
	<line class="st0" x1="141" y1="276.5" x2="146" y2="276.5"/>
	<line class="st0" x1="89" y1="276.5" x2="94" y2="276.5"/>
	<rect x="107" y="289.5" class="st0" width="21" height="6"/>
	<circle class="st0" cx="110.5" cy="269" r="2.5"/>
	<path class="st0" d="M120.5,275.5c0-2.2,1.8-4,4-4s4,1.8,4,4"/>
	<path class="st0" d="M106.5,275.5c0-2.2,1.8-4,4-4s4,1.8,4,4"/>
	<circle class="st0" cx="124.5" cy="269" r="2.5"/>
	<line class="st0" x1="98" y1="300.5" x2="137" y2="300.5"/>
</g>
<g>
	<polygon class="st0" points="231.5,401 183.5,401 191.5,365 223.5,365 	"/>
	<circle class="st1" cx="207.5" cy="350" r="6"/>
	<line class="st1" x1="207.5" y1="353" x2="207.5" y2="361"/>
	<line class="st0" x1="197.5" y1="377" x2="197.5" y2="389"/>
	<line class="st0" x1="205.5" y1="377" x2="197.5" y2="384.5"/>
	<line class="st0" x1="205.5" y1="389" x2="200.5" y2="382.3"/>
	<path class="st0" d="M217.5,386c0,1.7-1.3,3-3,3h-2c-1.7,0-3-1.3-3-3v-6c0-1.7,1.3-3,3-3h2c1.7,0,3,1.3,3,3"/>
	<polyline class="st0" points="215.5,384 217.5,384 217.5,386 	"/>
</g>
<g>
	<line class="st1" x1="402" y1="345.5" x2="402" y2="394.5"/>
	<polyline class="st1" points="407.7,389.5 402,395.2 396.3,389.5 	"/>
	<polyline class="st1" points="396.3,350.5 402,344.8 407.7,350.5 	"/>
	<path class="st0" d="M387,395.5v-51h-16c-2.2,0-4,1.8-4,4v52h41"/>
	<line class="st0" x1="387" y1="372.5" x2="374" y2="372.5"/>
	<line class="st0" x1="387" y1="365.5" x2="380" y2="365.5"/>
	<line class="st0" x1="387" y1="358.5" x2="380" y2="358.5"/>
	<line class="st0" x1="387" y1="351.5" x2="380" y2="351.5"/>
	<line class="st0" x1="387" y1="393.5" x2="380" y2="393.5"/>
	<line class="st0" x1="387" y1="386.5" x2="380" y2="386.5"/>
	<line class="st0" x1="387" y1="379.5" x2="380" y2="379.5"/>
</g>
<g>
	<line class="st1" x1="319.5" y1="385" x2="275.5" y2="385"/>
	<polyline class="st1" points="280.5,390.7 274.8,385 280.5,379.3 	"/>
	<polyline class="st1" points="314.5,379.3 320.2,385 314.5,390.7 	"/>
	<path class="st0" d="M325.5,369v-16c0-2.2-1.8-4-4-4h-48c-2.2,0-4,1.8-4,4v16"/>
	<line class="st0" x1="297.5" y1="369" x2="297.5" y2="356"/>
	<line class="st0" x1="304.5" y1="369" x2="304.5" y2="362"/>
	<line class="st0" x1="311.5" y1="369" x2="311.5" y2="362"/>
	<line class="st0" x1="318.5" y1="369" x2="318.5" y2="362"/>
	<line class="st0" x1="276.5" y1="369" x2="276.5" y2="362"/>
	<line class="st0" x1="283.5" y1="369" x2="283.5" y2="362"/>
	<line class="st0" x1="290.5" y1="369" x2="290.5" y2="362"/>
	<line class="st0" x1="269.5" y1="369" x2="325.5" y2="369"/>
	<line class="st0" x1="325.5" y1="374" x2="325.5" y2="378"/>
	<line class="st0" x1="269.5" y1="374" x2="269.5" y2="378"/>
	<line class="st0" x1="325.5" y1="383" x2="325.5" y2="387"/>
	<line class="st0" x1="269.5" y1="383" x2="269.5" y2="387"/>
	<line class="st0" x1="325.5" y1="392" x2="325.5" y2="396"/>
	<line class="st0" x1="269.5" y1="392" x2="269.5" y2="396"/>
</g>
<g>
	<circle class="st1" cx="458.3" cy="19.6" r="4.5"/>
	<circle class="st1" cx="497.3" cy="19.6" r="4.5"/>
	<line class="st1" x1="492.5" y1="20.1" x2="466.5" y2="20.1"/>
	<path class="st1" d="M502.5,20.1c0,0-1,0,1,0c3,0,3-5,3-7c0-1-3-5-16-5h-26c-4,0-9-6-9-6"/>
	<path class="st1" d="M483.6,0.9c4.3,2.3,9.2,7.1,9.2,7.1"/>
	<path class="st1" d="M453.5,20.1l-5-1c0,0,0-4,0-5c0-2,3-6,3-8h8"/>
	<polyline class="st1" points="471.5,5.1 473.5,8.1 473.5,17.1 	"/>
	<line class="st1" x1="477.5" y1="12.1" x2="480.5" y2="12.1"/>
</g>
<g>
	<circle class="st1" cx="188.3" cy="20" r="4.5"/>
	<circle class="st1" cx="227.3" cy="20" r="4.5"/>
	<line class="st1" x1="222.5" y1="20.5" x2="196.5" y2="20.5"/>
	<path class="st1" d="M232.5,20.5c0,0-1,0,1,0c3,0,3-5,3-7c0-1-3-5-16-5h-26c-3,0-5.2-3-5.2-3"/>
	<path class="st1" d="M183.5,20.5l-5-1c0,0,0-4,0-5c0-2,3-7,3-9h7c0,0,2-5,16-5c9,0,17.3,8,17.3,8"/>
	<polyline class="st1" points="204.5,1.5 206.5,8.5 206.5,17.5 	"/>
	<line class="st1" x1="210.5" y1="12.5" x2="212.5" y2="12.5"/>
	<line class="st1" x1="197.5" y1="12.5" x2="199.5" y2="12.5"/>
	<line class="st1" x1="193.5" y1="2" x2="193.5" y2="13.7"/>
</g>
<g>
	<circle class="st1" cx="278.3" cy="20" r="4.5"/>
	<circle class="st1" cx="317.3" cy="20" r="4.5"/>
	<line class="st1" x1="312.5" y1="20.5" x2="286.5" y2="20.5"/>
	<path class="st1" d="M322.5,20.5c0,0-1,0,1,0c3,0,3-5,3-7c0-1-3-5-16-5h-33c-3,0-7-1-7-1"/>
	<path class="st1" d="M273.5,20.5l-5-1c0,0,0-4,0-5c0-2,2-5,2-7s4-7,4-7s12,0,23,0c6,0,14.3,8,14.3,8"/>
	<polyline class="st1" points="294.5,1.5 296.5,8.5 296.5,17.5 	"/>
	<line class="st1" x1="300.5" y1="12.5" x2="302.5" y2="12.5"/>
	<line class="st1" x1="286" y1="12.5" x2="288" y2="12.5"/>
	<line class="st1" x1="282.5" y1="1.5" x2="281.5" y2="8.5"/>
	<line class="st1" x1="281.5" y1="8.5" x2="281.5" y2="12.5"/>
</g>
<g>
	<circle class="st1" cx="548.3" cy="22" r="4.5"/>
	<circle class="st1" cx="587.3" cy="22" r="4.5"/>
	<line class="st1" x1="582.5" y1="22.5" x2="556.5" y2="22.5"/>
	<path class="st1" d="M592.5,22.5c0,0-1,0,1,0c3,0,3-5,3-7c0-1-5-7-15-7h-34c-3,0-7-1-7-1"/>
	<path class="st1" d="M543.5,22.5l-5-1c0,0,0-4,0-5c0-2,2-7,2-9s5-9,9-9c1,0,8,0,19,0c8,0,17,10,17,10"/>
	<polyline class="st1" points="565.5,-1.5 567.5,7.5 567.5,19.5 	"/>
	<line class="st1" x1="571.5" y1="13.5" x2="573.5" y2="13.5"/>
	<line class="st1" x1="556.5" y1="13.5" x2="558.5" y2="13.5"/>
	<line class="st1" x1="554.5" y1="-1.5" x2="552.5" y2="8.5"/>
	<line class="st1" x1="552.5" y1="8.5" x2="552.5" y2="15"/>
</g>
<g>
	<circle class="st1" cx="368.3" cy="20" r="4.5"/>
	<circle class="st1" cx="407.3" cy="20" r="4.5"/>
	<line class="st1" x1="402.5" y1="20.5" x2="376.5" y2="20.5"/>
	<path class="st1" d="M412.5,20.5c0,0-1,0,1,0c3,0,3-5,3-7c0-1-3-5-16-5h-28c-5,0-10-7-10-7"/>
	<path class="st1" d="M363.5,20.5l-5-1c0,0,0-4,0-5c0-2,3-6,3-8h6c0,0,5-6,17-6c9,0,18.3,8,18.3,8"/>
	<polyline class="st1" points="381.5,5.5 383.5,8.5 383.5,17.5 	"/>
	<line class="st1" x1="387.5" y1="12.5" x2="390.5" y2="12.5"/>
</g>
<g>
	<circle class="st1" cx="638.7" cy="22.7" r="4.8"/>
	<circle class="st1" cx="676.6" cy="22.7" r="5.1"/>
	<line class="st1" x1="671.5" y1="23.2" x2="647.5" y2="23.2"/>
	<path class="st1" d="M682.5,23.2c0,0-1,0,1,0c3,0,3-2,3-4s-2-3-2-3s0-2.9,0-4c0-2-8.6-3-15-3h-31c-3,0-8-1-8-1"/>
	<path class="st1" d="M633.5,23.2l-5-1c0,0,0-4,0-5c0-2,2-6,2-8c0-4,3-10,3-10s19-1,28,0c3,0.3,10,10,10,10"/>
	<polyline class="st1" points="654.5,-0.8 656.5,8.2 656.5,20.2 	"/>
	<line class="st1" x1="660.5" y1="14.2" x2="662.5" y2="14.2"/>
	<line class="st1" x1="645.9" y1="14.2" x2="648.1" y2="14.2"/>
	<line class="st1" x1="642.5" y1="-0.8" x2="641.5" y2="9.2"/>
	<line class="st1" x1="639.5" y1="-1.8" x2="639.5" y2="-2.8"/>
	<line class="st1" x1="656.5" y1="-1.8" x2="656.5" y2="-2.8"/>
	<line class="st1" x1="641.5" y1="9.2" x2="641.5" y2="14.7"/>
</g>
<g>
	<line class="st1" x1="629" y1="164" x2="686" y2="221"/>
	<path class="st0" d="M642,210v4c0,1.1-0.9,2-2,2h-6c-1.1,0-2-0.9-2-2v-4"/>
	<path class="st0" d="M675.9,216H675c-1.1,0-2-0.9-2-2"/>
	<line class="st0" x1="683" y1="210" x2="683" y2="212.3"/>
	<path class="st0" d="M683,210c1.7,0,3-1.3,3-3v-11.4c0-2.3-0.8-4.6-2.3-6.4L681,186"/>
	<path class="st0" d="M634,186l-2.7,3.2c-1.5,1.8-2.3,4.1-2.3,6.4V207c0,1.7,1.3,3,3,3"/>
	<line class="st0" x1="637.1" y1="177.8" x2="634" y2="186"/>
	<path class="st0" d="M681,186l-4.7-12.3c-1.1-2.8-3.6-4.8-6.5-5.2c-2.3-0.3-7.6-0.6-12.3-0.6s-10,0.2-12.3,0.6
		c-1.6,0.2-3,0.9-4.2,1.9"/>
	<path class="st0" d="M655.7,185H675l-3.4-8.9c-0.8-2-2.6-3.4-4.7-3.7c-1.7-0.2-6-0.4-9.4-0.4s-7.8,0.2-9.4,0.4
		c-1.3,0.2-2.5,0.8-3.4,1.7"/>
	<polyline class="st0" points="641.2,181.8 640,185 644.3,185 	"/>
	<circle class="st0" cx="638" cy="195.5" r="3"/>
	<circle class="st0" cx="677" cy="195.5" r="3"/>
	<line class="st0" x1="681" y1="186" x2="686" y2="186"/>
	<line class="st0" x1="629" y1="186" x2="634" y2="186"/>
	<polyline class="st0" points="658,199 647,199 647,205 664,205 	"/>
	<path class="st0" d="M648.2,177.5c0.4-0.9,1.3-1.5,2.3-1.5c1.4,0,2.5,1.1,2.5,2.5c0,1-0.6,1.9-1.5,2.3"/>
	<path class="st0" d="M660.5,185c0-2.2,1.8-4,4-4s4,1.8,4,4"/>
	<circle class="st0" cx="664.5" cy="178.5" r="2.5"/>
	<line class="st0" x1="638" y1="210" x2="669" y2="210"/>
</g>
<g>
	<path class="st1" d="M44,384c0,3.3,2.7,6,6,6s6-2.7,6-6"/>
	<path class="st1" d="M44,365c0-3.3-2.7-6-6-6"/>
	<line class="st1" x1="44" y1="384" x2="44" y2="365"/>
	<line class="st1" x1="56" y1="384" x2="56" y2="358"/>
	<circle class="st1" cx="52.5" cy="358.5" r="3.5"/>
	<path class="st1" d="M56,358.5c0-5.8-2-8.5-3.5-10.5"/>
	<line class="st0" x1="43" y1="400" x2="56" y2="400"/>
	<line class="st0" x1="-1" y1="400" x2="38" y2="400"/>
	<g>
		<line class="st0" x1="7" y1="373" x2="7" y2="399"/>
		<line class="st0" x1="30" y1="399" x2="30" y2="373"/>
	</g>
	<path class="st0" d="M28,350H9c-0.6,0-1,0.4-1,1v16c0,0.6,0.4,1,1,1h19c0.6,0,1-0.4,1-1v-16C29,350.4,28.6,350,28,350z"/>
	<line class="st0" x1="14" y1="356" x2="23" y2="356"/>
	<line class="st0" x1="14" y1="362" x2="23" y2="362"/>
	<path class="st0" d="M30,345H7c-2.2,0-4,1.8-4,4v20c0,2.2,1.8,4,4,4h23c2.2,0,4-1.8,4-4v-20C34,346.8,32.2,345,30,345z"/>
	<path class="st0" d="M18.5,379c0,0,5,6.2,5,9s-2.2,5-5,5s-5-2.2-5-5c0-1.3,1.1-3.3,2.2-5.1"/>
</g>
<g>
	<line class="st1" x1="474.5" y1="367.7" x2="455.5" y2="367.7"/>
	<polyline class="st1" points="460.5,373.3 454.8,367.7 460.5,362 	"/>
	<polyline class="st1" points="469.5,362 475.2,367.7 469.5,373.3 	"/>
	<circle class="st3" cx="458.7" cy="385.2" r="4.8"/>
	<circle class="st3" cx="497.6" cy="385.2" r="5.1"/>
	<line class="st3" x1="492.5" y1="385.7" x2="467.5" y2="385.7"/>
	<path class="st3" d="M503.5,385.7c0,0-1,0,1,0s2-2,2-4s-1-3-1-3v0c0-0.7,0-1,0-2c0-2-4-5-4-5"/>
	<path class="st3" d="M481.5,361.7h8c4,0,12,10,12,10"/>
	<path class="st3" d="M485.5,371.7v-7c0,0,2,0,4,0s8,7,8,7H485.5"/>
	<line class="st3" x1="485.5" y1="376.7" x2="488.5" y2="376.7"/>
	<line class="st3" x1="501.5" y1="376.7" x2="501.5" y2="377.7"/>
	<line class="st3" x1="449.5" y1="380.7" x2="456.5" y2="380.7"/>
	<line class="st3" x1="465.5" y1="380.7" x2="480.5" y2="380.7"/>
	<line class="st3" x1="481.5" y1="361.7" x2="481.5" y2="380.7"/>
	<path class="st3" d="M453.5,385.7l-5-1v-30c0,0,23,0,30,0c1,0,3,0,10,7"/>
</g>
<g>
	<circle class="st1" cx="12.8" cy="19.5" r="4.5"/>
	<circle class="st1" cx="44.8" cy="19.5" r="4.5"/>
	<line class="st1" x1="40" y1="20" x2="21" y2="20"/>
	<path class="st1" d="M50,20c0,0-1,0,1,0c3,0,3-5,3-7c0-1-2-5-15-5H18c-2,0-4-6-4-6"/>
	<path class="st1" d="M3,19c0,0,0-4,0-5c0-2,3.5-4.1,4-6c1-4,2-6,2-6s6-1,17-1c5,0,13,7,13,7"/>
	<line class="st1" x1="8" y1="20" x2="1" y2="19"/>
	<polyline class="st1" points="22,1 24,8 24,17 	"/>
	<line class="st1" x1="28" y1="12" x2="30" y2="12"/>
</g>
<g>
	<circle class="st1" cx="98.3" cy="20" r="4.5"/>
	<circle class="st1" cx="137.3" cy="20" r="4.5"/>
	<line class="st1" x1="132.5" y1="20.5" x2="106.5" y2="20.5"/>
	<path class="st1" d="M142.5,20.5c0,0-1,0,1,0c3,0,3-5,3-7c0-1-3-5-16-5h-33c-3,0-6-1-6-1"/>
	<path class="st1" d="M93.5,20.5l-5-1c0,0,0-4,0-5c0-2,3-5,3-7s3-6,3-6s11-1,22-1c6,0,15.3,8,15.3,8"/>
	<polyline class="st1" points="108.5,1.5 110.5,8.5 110.5,17.5 	"/>
	<line class="st1" x1="114.5" y1="12.5" x2="117.5" y2="12.5"/>
</g>
<g>
	<circle class="st3" cx="278.7" cy="111.7" r="4.8"/>
	<circle class="st3" cx="317.6" cy="111.7" r="5.1"/>
	<line class="st3" x1="312.5" y1="112.2" x2="287.5" y2="112.2"/>
	<path class="st3" d="M323.5,112.2c0,0-1,0,1,0s2-2,2-4s-1-3-1-3v0c0-0.7,0-1,0-2c0-2-4-5-4-5"/>
	<path class="st3" d="M273.5,112.2l-5-1c0,0,0-2.5,0-4c0-0.7,1-1,1-1c0-2,0-6,0-8c0-2.4,0.4-5.5,0.7-7.7c0.2-1.3,1.3-2.3,2.7-2.3
		h36.7c4,0,12,10,12,10"/>
	<path class="st3" d="M305.5,98.2v-7c0,0,2,0,4,0s8,7,8,7H305.5"/>
	<line class="st3" x1="305.5" y1="103.2" x2="308.5" y2="103.2"/>
	<line class="st3" x1="321.5" y1="103.2" x2="321.5" y2="104.2"/>
</g>
<g>
	<circle class="st3" cx="368.7" cy="114.2" r="4.8"/>
	<circle class="st3" cx="407.6" cy="114.2" r="5.1"/>
	<line class="st3" x1="402.5" y1="114.7" x2="377.5" y2="114.7"/>
	<path class="st3" d="M413.5,114.7c0,0-1,0,1,0s2-2,2-4s-1-3-1-3v0c0-0.7,0-1,0-2c0-2-4-5-4-5"/>
	<path class="st3" d="M363.5,114.7l-5-1c0,0,0-2.5,0-4c0-0.7,1-1,1-1c0-2,0-8,0-10c0-2.4,0.4-8.5,0.7-10.7c0.2-1.3,1.3-2.3,2.7-2.3
		c0,0,21.7,0,28.7,0c6,0,20,15,20,15"/>
	<path class="st3" d="M395.5,100.7v-7c0,0,2,0,4,0c1,0,8,7,8,7H395.5"/>
	<line class="st3" x1="395.5" y1="105.7" x2="398.5" y2="105.7"/>
	<line class="st3" x1="411.5" y1="105.7" x2="411.5" y2="106.7"/>
</g>
<g>
	<circle class="st3" cx="188.7" cy="111.7" r="4.8"/>
	<circle class="st3" cx="227.6" cy="111.7" r="5.1"/>
	<line class="st3" x1="222.5" y1="112.2" x2="197.5" y2="112.2"/>
	<path class="st3" d="M233.5,112.2c0,0-1,0,1,0s2-2,2-4s-1-3-1-3s0-0.9,0-2c0-2-3-4-10-5"/>
	<path class="st3" d="M183.5,112.2l-5-1c0,0,0-3,0-4c0-0.4,1-1,1-1c0-2,0-6,0-8c0-2.4,0.4-5.5,0.7-7.7c0.2-1.3,1.3-2.3,2.7-2.3h24.7
		c7,0,18,10,18,10"/>
	<path class="st3" d="M205.5,98.2v-7c0,0,0,0,2,0c4,0,13,7,13,7H205.5"/>
	<line class="st3" x1="206.5" y1="103.2" x2="209.5" y2="103.2"/>
	<line class="st3" x1="231.5" y1="103.2" x2="231.5" y2="104.2"/>
</g>
<g>
	<circle class="st3" cx="98.7" cy="111.7" r="4.8"/>
	<circle class="st3" cx="137.6" cy="111.7" r="5.1"/>
	<line class="st3" x1="132.5" y1="112.2" x2="107.5" y2="112.2"/>
	<path class="st3" d="M143.5,112.2c0,0-1,0,1,0s2-2,2-4s-1-3-1-3s0-0.9,0-2c0-2-3-4-10-5"/>
	<path class="st3" d="M93.5,112.2l-5-1c0,0,0-3,0-4c0-0.4,1-1,1-1c0-2,0-2,0-4c0-3,4.8-4.1,6-7c3-7,9-7,9-7h13c7,0,18,10,18,10"/>
	<path class="st3" d="M112.5,98.2v-7c0,0,3,0,5,0c4,0,13,7,13,7H112.5"/>
	<line class="st3" x1="115.5" y1="103.2" x2="118.5" y2="103.2"/>
	<line class="st3" x1="141.5" y1="103.2" x2="141.5" y2="104.2"/>
</g>
<g>
	<circle class="st3" cx="548.7" cy="115.2" r="4.8"/>
	<circle class="st3" cx="587.6" cy="115.2" r="5.1"/>
	<line class="st3" x1="582.5" y1="115.7" x2="557.5" y2="115.7"/>
	<path class="st3" d="M593.5,115.7c0,0-1,0,1,0s2-2,2-4s-1-3-1-3v0c0-0.7,0-1,0-2c0-2-4-5-4-5"/>
	<path class="st3" d="M571.5,91.7h8c4,0,12,10,12,10"/>
	<path class="st3" d="M575.5,101.7v-7c0,0,2,0,4,0s8,7,8,7H575.5"/>
	<line class="st3" x1="575.5" y1="106.7" x2="578.5" y2="106.7"/>
	<line class="st3" x1="591.5" y1="106.7" x2="591.5" y2="107.7"/>
	<line class="st3" x1="539.5" y1="110.7" x2="546.5" y2="110.7"/>
	<line class="st3" x1="555.5" y1="110.7" x2="570.5" y2="110.7"/>
	<line class="st3" x1="571.5" y1="91.7" x2="571.5" y2="110.7"/>
	<path class="st3" d="M543.5,115.7l-5-1v-30c0,0,23,0,30,0c1,0,3,0,10,7"/>
</g>
<g>
	<circle class="st3" cx="100.7" cy="201.7" r="4.8"/>
	<circle class="st3" cx="137.6" cy="201.7" r="5.1"/>
	<line class="st3" x1="132.5" y1="202.2" x2="109.5" y2="202.2"/>
	<path class="st3" d="M143.5,202.2c0,0-1,0,1,0s2-2,2-4s-1-3-1-3v0c0-0.7,0-1,0-2c0-2-4-5-4-5"/>
	<path class="st3" d="M121.5,178.2h8c4,0,12,10,12,10"/>
	<path class="st3" d="M125.5,188.2v-7c0,0,2,0,4,0s8,7,8,7H125.5"/>
	<line class="st3" x1="125.5" y1="193.2" x2="128.5" y2="193.2"/>
	<line class="st3" x1="141.5" y1="193.2" x2="141.5" y2="194.2"/>
	<line class="st3" x1="88.5" y1="197.2" x2="98.5" y2="197.2"/>
	<line class="st3" x1="107.5" y1="197.2" x2="121.5" y2="197.2"/>
	<line class="st3" x1="121.5" y1="178.2" x2="121.5" y2="197.2"/>
	<polyline class="st3" points="88.5,197.2 88.5,191.2 121.5,191.2 	"/>
	<polyline class="st3" points="95.5,202.2 91.5,201.2 91.5,197.2 	"/>
</g>
<g>
	<circle class="st3" cx="638.7" cy="111.7" r="4.8"/>
	<circle class="st3" cx="677.6" cy="111.7" r="5.1"/>
	<line class="st3" x1="672.5" y1="112.2" x2="647.5" y2="112.2"/>
	<path class="st3" d="M683.5,112.2c0,0-1,0,1,0s2-2,2-4s-1-3-1-3v0c0-0.7,0-1,0-2c0-2-4-5-4-5"/>
	<path class="st3" d="M633.5,112.2l-5-1c0,0,0-2.5,0-4c0-0.7,1-1,1-1c0-2,0-6,0-8c0-2.4,0.4-5.5,0.7-7.7c0.2-1.3,1.3-2.3,2.7-2.3
		h36.7c4,0,12,10,12,10"/>
	<path class="st3" d="M665.5,98.2v-7c0,0,2,0,4,0s8,7,8,7H665.5"/>
	<line class="st3" x1="665.5" y1="103.2" x2="668.5" y2="103.2"/>
	<line class="st3" x1="658.5" y1="103.2" x2="661.5" y2="103.2"/>
	<line class="st3" x1="681.5" y1="103.2" x2="681.5" y2="104.2"/>
	<rect x="650.5" y="91.2" class="st3" width="11" height="7"/>
	<path class="st3" d="M635.5,98.2c2,0,11,0,11,0v-7h-10C636.5,91.2,635.5,95.2,635.5,98.2z"/>
</g>
<g>
	<circle class="st3" cx="190.7" cy="205.7" r="4.8"/>
	<circle class="st3" cx="227.6" cy="205.7" r="5.1"/>
	<line class="st3" x1="222.5" y1="206.2" x2="199.5" y2="206.2"/>
	<path class="st3" d="M233.5,206.2c0,0-1,0,1,0s2-2,2-4s-1-3-1-3v0c0-0.7,0-1,0-2c0-2-4-5-4-5"/>
	<path class="st3" d="M211.5,182.2h8c4,0,12,10,12,10"/>
	<path class="st3" d="M215.5,192.2v-7c0,0,2,0,4,0s8,7,8,7H215.5"/>
	<line class="st3" x1="215.5" y1="197.2" x2="218.5" y2="197.2"/>
	<line class="st3" x1="231.5" y1="197.2" x2="231.5" y2="198.2"/>
	<line class="st3" x1="178.5" y1="201.2" x2="188.5" y2="201.2"/>
	<line class="st3" x1="197.5" y1="201.2" x2="211.5" y2="201.2"/>
	<line class="st3" x1="211.5" y1="182.2" x2="211.5" y2="201.2"/>
	<polyline class="st3" points="178.5,201.2 178.5,188.2 205.5,188.2 205.5,174.2 228.5,174.2 228.5,182.2 	"/>
	<polyline class="st3" points="185.5,206.2 181.5,205.2 181.5,201.2 	"/>
	<line class="st3" x1="228.5" y1="182.2" x2="218.5" y2="182.2"/>
</g>
<g>
	<g>
		<circle class="st3" cx="8.7" cy="200.7" r="4.8"/>
		<circle class="st3" cx="46.6" cy="200.7" r="5.1"/>
		<line class="st3" x1="41.5" y1="201.2" x2="17.5" y2="201.2"/>
		<path class="st3" d="M25.5,179.2c0,0,7.8-0.1,9.3,0.1c2.6,0.3,8.7,7.9,8.7,7.9"/>
		<path class="st3" d="M3.5,201.2l-5-1c0,0,0-4,0-5c0-2,1-6,1-8h40c6.4,0,15,2,15,4c0,1.1,0,4,0,4s2,1,2,3s0,3-3,3c-2,0-1,0-1,0"/>
		<polyline class="st3" points="25.5,179.2 25.5,184.9 25.5,201.2 		"/>
		<line class="st3" x1="29.5" y1="192.2" x2="32.5" y2="192.2"/>
		<line class="st3" x1="29.5" y1="179.2" x2="29.5" y2="186.2"/>
		<line class="st3" x1="-1.5" y1="197.2" x2="4.5" y2="197.2"/>
		<line class="st3" x1="16.5" y1="197.2" x2="25.5" y2="197.2"/>
	</g>
	<line class="st3" x1="51.5" y1="192.2" x2="51.5" y2="193.2"/>
</g>
<g>
	<circle class="st3" cx="461" cy="112.5" r="4.1"/>
	<circle class="st3" cx="497.9" cy="112.5" r="4.4"/>
	<line class="st3" x1="493.6" y1="112.9" x2="469.5" y2="112.9"/>
	<path class="st3" d="M502.9,112.9c0,0,0.1,0,1.9,0c1.7,0,1.7-1.7,1.7-3.4s-0.9-2.6-0.9-2.6v0c0-0.6,0-0.9,0-1.7
		c0-1.7-3.4-4.3-3.4-4.3"/>
	<path class="st3" d="M456.6,112.9l-8.1-0.9c0,0,0-2.1,0-3.4c0-0.6,0.9-0.9,0.9-0.9c0-1.7,0-6.8,0-8.5c0-2.1,0.3-7.3,0.6-9.1
		c0.2-1.1,1.1-2,2.3-2c0,0,27.1,0,33,0c5.1,0,17,12.8,17,12.8"/>
	<path class="st3" d="M487.6,100.9v-6c0,0,1.7,0,3.4,0c0.9,0,6.8,6,6.8,6H487.6"/>
	<line class="st3" x1="487.6" y1="105.2" x2="490.2" y2="105.2"/>
	<line class="st3" x1="502.2" y1="105.2" x2="502.2" y2="106.1"/>
</g>
<g>
	<circle class="st3" cx="8.7" cy="111.7" r="4.8"/>
	<circle class="st3" cx="47.6" cy="111.7" r="5.1"/>
	<line class="st3" x1="42.5" y1="112.2" x2="17.5" y2="112.2"/>
	<path class="st3" d="M53.5,112.2c0,0-1,0,1,0s2-2,2-4s-1-3-1-3v0c0-0.7,0-1,0-2c0-2-4-5-4-5"/>
	<path class="st3" d="M3.5,112.2l-5-1c0,0,0-2.5,0-4c0-0.7,1-1,1-1c0-2,0-6,0-8c0-2.4,0.4-5.5,0.7-7.7c0.2-1.3,1.3-2.3,2.7-2.3h36.7
		c4,0,12,10,12,10"/>
	<path class="st3" d="M35.5,98.2v-7c0,0,2,0,4,0s8,7,8,7H35.5"/>
	<line class="st3" x1="35.5" y1="103.2" x2="38.5" y2="103.2"/>
	<line class="st3" x1="21.5" y1="103.2" x2="24.5" y2="103.2"/>
	<line class="st3" x1="51.5" y1="103.2" x2="51.5" y2="104.2"/>
	<rect x="21.5" y="91.2" class="st3" width="10" height="7"/>
</g>
<g>
	
		<ellipse transform="matrix(0.7844 -0.6202 0.6202 0.7844 -97.5115 478.467)" class="st1" cx="639.5" cy="379.5" rx="10.5" ry="10.5"/>
	
		<ellipse transform="matrix(0.7844 -0.6202 0.6202 0.7844 -97.5115 478.467)" class="st1" cx="639.5" cy="379.5" rx="2.5" ry="2.5"/>
	<circle class="st0" cx="670.5" cy="359.5" r="2.5"/>
	<circle class="st0" cx="670.5" cy="352" r="0"/>
	<ellipse transform="matrix(0.7071 -0.7071 0.7071 0.7071 -55.6218 574.1035)" class="st0" cx="665.2" cy="354.2" rx="0" ry="0"/>
	<circle class="st0" cx="663" cy="359.5" r="0"/>
	<ellipse transform="matrix(0.7071 -0.7071 0.7071 0.7071 -63.1268 577.2122)" class="st0" cx="665.2" cy="364.8" rx="0" ry="0"/>
	<circle class="st0" cx="670.5" cy="367" r="0"/>
	<ellipse transform="matrix(0.7071 -0.7071 0.7071 0.7071 -60.0181 584.7172)" class="st0" cx="675.8" cy="364.8" rx="0" ry="0"/>
	<circle class="st0" cx="678" cy="359.5" r="0"/>
	<ellipse transform="matrix(0.7071 -0.7071 0.7071 0.7071 -52.5131 581.6085)" class="st0" cx="675.8" cy="354.2" rx="0" ry="0"/>
	<circle class="st0" cx="670.5" cy="359.5" r="11.5"/>
	<path class="st1" d="M645.4,382.2c-0.4,0.9-1,1.7-1.9,2.4"/>
	<path class="st1" d="M634.4,383.5c-2.2-2.8-1.7-6.9,1.1-9.1c2.8-2.2,6.9-1.7,9.1,1.1c0.8,1,1.2,2.1,1.4,3.3"/>
	<circle class="st0" cx="680" cy="395" r="6"/>
	<line class="st0" x1="659" y1="349" x2="632" y2="372"/>
	<line class="st0" x1="686" y1="359" x2="686" y2="395"/>
	<line class="st0" x1="638" y1="390" x2="679" y2="401"/>
	<line class="st0" x1="680" y1="395" x2="680" y2="395"/>
	<circle class="st0" cx="670.5" cy="359.5" r="15.5"/>
	<path class="st0" d="M637.8,389.9c-5-0.8-8.8-5.2-8.8-10.4c0-3,1.3-5.7,3.3-7.6"/>
</g>
<g>
	<polygon class="st0" points="53,484 56,484 56,454 53,454 49,465 49,478 	"/>
	<rect x="3" y="459" class="st0" width="5" height="18"/>
	<line class="st0" x1="-1" y1="474" x2="-1" y2="462"/>
	<line class="st0" x1="-1" y1="468" x2="2" y2="468"/>
	<line class="st0" x1="49" y1="478" x2="44" y2="478"/>
	<line class="st0" x1="49" y1="465" x2="44" y2="465"/>
	<polygon class="st0" points="8,453 8,477 13,484 40,484 44,478 44,465 41,459 37,459 37,453 	"/>
	<polyline class="st0" points="26,448 33,448 33,441 13,441 13,448 20,448 	"/>
	<line class="st0" x1="18" y1="448" x2="18" y2="453"/>
	<line class="st0" x1="28" y1="448" x2="28" y2="453"/>
	<line class="st0" x1="37" y1="459" x2="37" y2="465"/>
	<line class="st0" x1="37" y1="469" x2="37" y2="472"/>
	<polyline class="st1" points="20,459 27,459 24,466 30,466 21,479 23,469 16,469 18.8,462 	"/>
</g>
<g>
	<circle class="st0" cx="567.5" cy="372.5" r="28.5"/>
	<circle class="st0" cx="567.5" cy="372.5" r="22.5"/>
	<path class="st0" d="M572,390.5c-1.4,0.4-2.9,0.5-4.5,0.5s-3.1-0.2-4.5-0.5"/>
	<path class="st0" d="M584.2,364.5c1.2,2.4,1.8,5.1,1.8,8c0,0.9-0.1,1.7-0.2,2.6"/>
	<path class="st0" d="M589.8,375.2c-0.8-0.1-1.5-0.2-2.3-0.2c-8.6,0-15.5,6.9-15.5,15.5c0,1.4,0.2,2.7,0.5,3.9"/>
	<path class="st0" d="M562.5,394.4c0.3-1.3,0.5-2.6,0.5-3.9c0-8.6-6.9-15.5-15.5-15.5c-0.8,0-1.6,0.1-2.3,0.2"/>
	<path class="st0" d="M545.8,366.4c6.3-2.8,13.7-4.4,21.7-4.4s15.4,1.6,21.7,4.4"/>
	<circle class="st1" cx="567.5" cy="372.5" r="4.5"/>
	<path class="st0" d="M549.2,375c-0.1-0.8-0.2-1.6-0.2-2.5c0-2.9,0.6-5.6,1.8-8"/>
</g>
<g>
	<g>
		<circle class="st3" cx="98.3" cy="481.5" r="4.5"/>
		<circle class="st3" cx="137.3" cy="481.5" r="4.5"/>
		<line class="st3" x1="132.5" y1="482" x2="106.5" y2="482"/>
		<path class="st3" d="M142.5,482c0,0-1,0,1,0c3,0,3-5,3-7c0-1-3-5-16-5h-33c-3,0-7-1-7-1"/>
		<path class="st3" d="M93.5,482l-5-1c0,0,0-4,0-5c0-2,2-5,2-7s4-7,4-7s12,0,23,0c6,0,14.3,8,14.3,8"/>
		<polyline class="st3" points="114.5,463 116.5,470 116.5,479 		"/>
		<line class="st3" x1="120.5" y1="474" x2="122.5" y2="474"/>
		<line class="st3" x1="106" y1="474" x2="108" y2="474"/>
		<line class="st3" x1="102.5" y1="463" x2="101.5" y2="470"/>
		<line class="st3" x1="101.5" y1="470" x2="101.5" y2="474"/>
	</g>
	<circle class="st1" cx="96.2" cy="452.2" r="4.8"/>
	<circle class="st1" cx="115.2" cy="452.2" r="4.8"/>
	<line class="st1" x1="96.2" y1="452.2" x2="104.5" y2="452.2"/>
	<line class="st1" x1="102.1" y1="445.1" x2="96.2" y2="452.2"/>
	<line class="st1" x1="104.5" y1="452.2" x2="100.9" y2="441.5"/>
	<line class="st1" x1="115.2" y1="452.2" x2="111.7" y2="440.3"/>
	<line class="st1" x1="104.5" y1="452.2" x2="111.7" y2="443.9"/>
	<line class="st1" x1="102.1" y1="445.1" x2="111.7" y2="443.9"/>
	<line class="st1" x1="97.4" y1="440.3" x2="103.3" y2="441.5"/>
	<line class="st1" x1="111.7" y1="440.3" x2="114" y2="439"/>
	<line class="st3" x1="115.5" y1="460" x2="115.5" y2="462"/>
	<line class="st3" x1="96.5" y1="460" x2="96.5" y2="462"/>
</g>
<g>
	<path class="st0" d="M190,483v5c0,1.1-0.9,2-2,2h-4c-1.1,0-2-0.9-2-2v-5"/>
	<line class="st0" x1="187" y1="483" x2="205.4" y2="483"/>
	<path class="st0" d="M182,483c-1.7,0-3-1.3-3-3v-8.5c0-1.9,0.2-3.9,0.6-5.8l5.3-25.5c0.6-3.1,3.4-5.3,6.5-5.3H207"/>
	<path class="st0" d="M233.5,461.4l-4.4-21.1c-0.6-3.1-3.4-5.3-6.5-5.3H207"/>
	<line class="st0" x1="179" y1="455" x2="181" y2="455"/>
	<line class="st0" x1="233" y1="455" x2="235" y2="455"/>
	<path class="st0" d="M205,469c-3,0-8-1-8-1l1.2,4.3c0.5,1.6,1.9,2.7,3.6,2.7h2.2"/>
	<circle class="st0" cx="198.5" cy="451.5" r="2.5"/>
	<path class="st0" d="M212.5,458c0-2.2,1.8-4,4-4s4,1.8,4,4"/>
	<path class="st0" d="M194.5,458c0-2.2,1.8-4,4-4s4,1.8,4,4"/>
	<circle class="st0" cx="216.5" cy="451.5" r="2.5"/>
	<circle class="st1" cx="222" cy="476" r="14"/>
	<g>
		<line class="st1" x1="222" y1="480" x2="222" y2="477"/>
		<line class="st1" x1="222" y1="484" x2="222" y2="484"/>
		<path class="st1" d="M222,469c2.2,0,4,1.8,4,4s-1.8,4-4,4"/>
		<path class="st1" d="M218.8,470.6c0.7-0.9,1.9-1.6,3.2-1.6"/>
	</g>
	<path class="st0" d="M180,464c0,0,2,2,10,3v1.7c0,1.3-1,2.3-2.3,2.3H180"/>
	<path class="st0" d="M227,458h-40l2.4-12c0.3-1.7,1.9-3,3.6-3h28c1.8,0,3.3,1.2,3.6,3L227,458z"/>
	<line class="st0" x1="204" y1="479" x2="183" y2="479"/>
	<line class="st0" x1="205" y1="446" x2="210" y2="446"/>
</g>
<g>
	<path class="st0" d="M102,568.5v5c0,1.1-0.9,2-2,2h-6c-1.1,0-2-0.9-2-2v-5"/>
	<path class="st0" d="M145.3,550.5c-0.4-1-0.9-1.9-1.6-2.8l-2.7-3.2"/>
	<line class="st0" x1="98" y1="568.5" x2="118.4" y2="568.5"/>
	<path class="st0" d="M94,544.5l-2.7,3.2c-1.5,1.8-2.3,4.1-2.3,6.4v11.4c0,1.7,1.3,3,3,3"/>
	<path class="st0" d="M141,544.5l-4.7-12.3c-1.1-2.8-3.6-4.8-6.5-5.2c-2.3-0.3-7.6-0.6-12.3-0.6s-10,0.2-12.3,0.6
		c-3,0.4-5.5,2.4-6.5,5.2L94,544.5"/>
	<path class="st0" d="M136.4,544.5l-3.6-9.5c-0.8-2.2-2.8-3.7-5.1-4c-1.8-0.2-6.5-0.4-10.2-0.4s-8.4,0.2-10.2,0.4
		c-2.3,0.3-4.2,1.8-5.1,4l-3.6,9.5H136.4z"/>
	<circle class="st0" cx="98" cy="554" r="3"/>
	<line class="st0" x1="141" y1="544.5" x2="146" y2="544.5"/>
	<line class="st0" x1="89" y1="544.5" x2="94" y2="544.5"/>
	<polyline class="st0" points="118,557.5 107,557.5 107,563.5 118,563.5 	"/>
	<circle class="st0" cx="110.5" cy="537" r="2.5"/>
	<path class="st0" d="M120.5,543.5c0-2.2,1.8-4,4-4s4,1.8,4,4"/>
	<path class="st0" d="M106.5,543.5c0-2.2,1.8-4,4-4s4,1.8,4,4"/>
	<circle class="st0" cx="124.5" cy="537" r="2.5"/>
	<g>
		<g>
			<g>
				<path class="st1" d="M122,555.6v7.6c0,3.5,1.2,6.8,3.5,9.8c2.3,2.9,5.1,4.8,8.5,5.6c3.4-0.8,6.2-2.7,8.5-5.6
					c2.3-2.9,3.5-6.2,3.5-9.8v-7.6l-12-5.1L122,555.6z"/>
			</g>
		</g>
	</g>
	<line class="st1" x1="132" y1="570.5" x2="136" y2="570.5"/>
	<polyline class="st1" points="134,570.5 134,562.5 132,562.5 	"/>
	<line class="st1" x1="134" y1="558.5" x2="134" y2="558.5"/>
</g>
<g>
	<path class="st1" d="M586.3,452.8l-14.3-14.3c-1.8-1.8-4.7-1.8-6.5,0c0,0,0,0,0,0l-25.2,25.2c-1.8,1.8-1.8,4.7,0,6.5c0,0,0,0,0,0
		l7.7,7.7"/>
	<path class="st0" d="M554.9,456.7h38.1c1.6,0,2.9,1.3,2.9,2.9v25.2c0,1.6-1.3,2.9-2.9,2.9h-38.1c-1.6,0-2.9-1.3-2.9-2.9v-25.2
		C552,458,553.3,456.7,554.9,456.7z"/>
	<line class="st0" x1="552" y1="463.3" x2="596" y2="463.3"/>
	<line class="st0" x1="552" y1="469.6" x2="596" y2="469.6"/>
	<line class="st0" x1="558.4" y1="476" x2="567" y2="476"/>
	<line class="st0" x1="558.4" y1="482.3" x2="563.8" y2="482.3"/>
	<line class="st0" x1="571.3" y1="476" x2="576.7" y2="476"/>
	<line class="st1" x1="574" y1="440.6" x2="561.5" y2="453.1"/>
	<line class="st1" x1="548.5" y1="466.1" x2="543" y2="471.6"/>
	<line class="st1" x1="578" y1="444.6" x2="569.5" y2="453.1"/>
	<line class="st1" x1="548" y1="474.6" x2="546.5" y2="476.1"/>
</g>
<g>
	<path class="st0" d="M191.6,524.1c-1.1,0-2.2,0.2-3.3,0.4l5.8,5.8l-0.1,8.7l-8.7,0.1l-5.8-5.8c-0.3,1-0.4,2.1-0.4,3.3
		c0,6.9,5.6,12.5,12.5,12.5s12.5-5.6,12.5-12.5S198.5,524.1,191.6,524.1z"/>
	<g>
		<path class="st0" d="M203.1,542.1l31.5,31.5c1.7,1.7,1.7,4.3,0,6l0,0c-1.7,1.7-4.3,1.7-6,0l-31.5-31.5"/>
	</g>
	<line class="st0" x1="231.2" y1="576.1" x2="231.2" y2="576.1"/>
	<path class="st1" d="M207.7,541.1c6.4,0,11.5,5.1,11.5,11.5"/>
	<path class="st1" d="M207.7,564.1c-6.4,0-11.5-5.1-11.5-11.5"/>
	<path class="st1" d="M226.6,560.5c0.5-1.2,0.9-2.5,1.2-3.8l4.4-0.8v-6.5l-4.4-0.8c-0.5-2.6-1.6-5.1-3-7.2l2.6-3.7l-4.6-4.6
		l-3.7,2.6c-2.2-1.4-4.6-2.5-7.2-3l-0.8-4.4h-5.5"/>
	<path class="st1" d="M183.2,550.3v5.5l4.4,0.8c0.5,2.6,1.6,5.1,3,7.2l-2.6,3.7l4.6,4.6l3.7-2.6c2.2,1.4,4.6,2.5,7.2,3l0.8,4.4h6.5
		l0.8-4.4c1.2-0.2,2.4-0.6,3.5-1.1"/>
</g>
<g>
	<g>
		<circle class="st3" cx="654.6" cy="477.5" r="6"/>
		<path class="st3" d="M654.6,475c1.4,0,2.5,1.1,2.5,2.5c0,1.4-1.1,2.5-2.5,2.5s-2.5-1.1-2.5-2.5"/>
		<line class="st3" x1="648.2" y1="478.1" x2="629.1" y2="478.1"/>
		<path class="st3" d="M661.7,478.1c0,0-1.3,0,1.3,0c4,0,4-6.7,4-9.4c0-1.3-2.7-6.7-20.2-6.7h-17.7"/>
		<path class="st3" d="M628.9,451.1c6.7,0,15.6,10.8,15.6,10.8"/>
		<line class="st3" x1="629.3" y1="467.3" x2="633.3" y2="467.3"/>
	</g>
	<line class="st3" x1="629.1" y1="474.5" x2="649.1" y2="474.5"/>
	<line class="st3" x1="660.1" y1="474.5" x2="666.1" y2="474.5"/>
	<path class="st3" d="M664.1,465.5h-3.5c-0.8,0-1.5,0.7-1.5,1.5l0,0c0,0.8,0.7,1.5,1.5,1.5h6.5"/>
	<path class="st3" d="M664.1,447.5c-1.1-0.7-7.2-1.3-16.4,13.7"/>
	<line class="st3" x1="639.1" y1="456.5" x2="637.1" y2="461.5"/>
	<circle class="st1" cx="683.6" cy="444" r="2.5"/>
	<path class="st1" d="M672.7,461.1c1,2,3,3.4,5.4,3.4c3.3,0,6-2.7,6-6c0-3.3-2.7-6-6-6c-2.6,0-4.9,1.7-5.7,4"/>
	<path class="st1" d="M679.1,452.6C679.1,452.5,679.1,452.5,679.1,452.6c0-3.4-2.7-6.1-6-6.1s-6,2.7-6,6c0,1.4,0.5,2.7,1.3,3.7
		c-1.3,0.5-2.3,1.8-2.3,3.3c0,1.9,1.6,3.5,3.5,3.5c1.4,0,2.5-0.8,3.1-1.9c1,2,3,3.4,5.4,3.4c3.3,0,6-2.7,6-6
		C684.1,455.5,681.9,453.1,679.1,452.6z"/>
</g>
<g>
	<path class="st0" d="M384.2,444c0-1.8,1.5-3.2,3.2-3.2c1.8,0,3.2,1.5,3.2,3.2"/>
	<path class="st0" d="M390.7,459.4c0-1.8,1.5-3.2,3.2-3.2c1.8,0,3.2,1.5,3.2,3.2"/>
	<path class="st0" d="M379,463.8c0-2.9,2.3-5.2,5.2-5.2"/>
	<path class="st0" d="M397.1,460.8c0-1.8,1.5-3.2,3.2-3.2c1.8,0,3.2,1.5,3.2,3.2"/>
	<path class="st0" d="M403.6,463.4c0-1.8,1.5-3.2,3.2-3.2c1.8,0,3.2,1.5,3.2,3.2"/>
	<line class="st0" x1="384.2" y1="444" x2="384.2" y2="467.9"/>
	<line class="st0" x1="390.7" y1="444" x2="390.7" y2="462.8"/>
	<line class="st0" x1="397.1" y1="459.4" x2="397.1" y2="462.8"/>
	<line class="st0" x1="403.6" y1="460.8" x2="403.6" y2="464.7"/>
	<path class="st0" d="M379,472.4c0,8.6,7,15.6,15.6,15.6s15.6-7,15.6-15.6"/>
	<path class="st0" d="M410.1,468.4c0,2.8,0,3.7,0,3.7S410.1,471.2,410.1,468.4c0-2.8,0-5,0-5S410.1,465.6,410.1,468.4z"/>
	<line class="st0" x1="379" y1="463.8" x2="379" y2="472.6"/>
	<circle class="st1" cx="366.5" cy="444.5" r="7.5"/>
	<circle class="st1" cx="408.5" cy="444.5" r="7.5"/>
	<path class="st1" d="M380.6,447.4c-0.4-0.9-0.6-1.9-0.6-2.9c0-1,0.2-2,0.6-2.9c0.4-0.9,0.9-1.7,1.6-2.4c0.7-0.7,1.5-1.2,2.4-1.6
		s1.9-0.6,2.9-0.6s2,0.2,2.9,0.6s1.7,0.9,2.4,1.6c0.7,0.7,1.2,1.5,1.6,2.4c0.4,0.9,0.6,1.9,0.6,2.9c0,1-0.2,2-0.6,2.9"/>
</g>
<g>
	<polyline class="st0" points="472,468.7 472,490.7 453,477.7 453,469.7 	"/>
	<polygon class="st0" points="468,479.7 449,466.7 453,455.7 472,468.7 	"/>
	<polyline class="st0" points="502,468.7 502,477.7 472,490.7 472,468.7 	"/>
	<polygon class="st0" points="506,466.7 476,479.7 472,468.7 502,455.7 	"/>
	<path class="st1" d="M472.1,463.7c0.8-7.9,6-16.2,12.4-19.3c6.7-3.2,12.1,0.6,12.5,8.4"/>
	<path class="st1" d="M478.8,460.7c0.6-3.4,2.9-6.8,5.7-8.1c2.9-1.4,5.3,0.1,5.7,3.2"/>
	<line class="st1" x1="479.4" y1="435.6" x2="492" y2="443.6"/>
	<g>
		<polyline class="st1" points="472.8,435 474.5,437.9 477.8,438.2 479.5,441.1 482.9,441.4 484.6,444.3 		"/>
	</g>
	<g>
		<polyline class="st1" points="460.8,449 462.5,451.9 465.8,452.2 467.5,455.1 470.9,455.4 472.6,458.3 		"/>
	</g>
	<g>
		<polyline class="st1" points="464.8,440 466.5,442.9 469.8,443.2 471.5,446.1 474.9,446.4 476.6,449.3 		"/>
	</g>
	<path class="st1" d="M458.5,454.5c0.7-7.8,5.9-16,12.2-19c3.4-1.6,6.4-1.4,8.7,0.2"/>
</g>
<g>
	<path class="st0" d="M322,531.4h-34"/>
	<path class="st0" d="M288.4,531.4H273c-2.2,0-4,1.8-4,4v43.9h57v-43.9c0-2.2-1.8-4-4-4l0,0"/>
	<line class="st0" x1="269" y1="573.7" x2="326" y2="573.7"/>
	<path class="st0" d="M277,531.4c0-3.1,2.6-5.7,5.7-5.7c3.1,0,5.7,2.6,5.7,5.7c0,3.1-2.6,5.7-5.7,5.7"/>
	<path class="st0" d="M306.6,531.4c0-3.1,2.6-5.7,5.7-5.7c3.1,0,5.7,2.6,5.7,5.7c0,3.1-2.6,5.7-5.7,5.7"/>
	<circle class="st1" cx="297.5" cy="546.9" r="2.3"/>
	<circle class="st1" cx="306.6" cy="546.9" r="2.3"/>
	<circle class="st1" cx="315.7" cy="546.9" r="2.3"/>
	<circle class="st1" cx="297.5" cy="556.1" r="2.3"/>
	<circle class="st1" cx="306.6" cy="556.1" r="2.3"/>
	<circle class="st1" cx="315.7" cy="556.1" r="2.3"/>
	<circle class="st1" cx="279.3" cy="556.1" r="2.3"/>
	<circle class="st1" cx="288.4" cy="556.1" r="2.3"/>
	<circle class="st1" cx="297.5" cy="565.2" r="2.3"/>
	<circle class="st1" cx="306.6" cy="565.2" r="2.3"/>
	<circle class="st1" cx="279.3" cy="565.2" r="2.3"/>
	<circle class="st1" cx="288.4" cy="565.2" r="2.3"/>
	<line class="st1" x1="314" y1="563" x2="318" y2="567"/>
	<line class="st1" x1="318" y1="563" x2="314" y2="567"/>
</g>
<g>
	<path class="st0" d="M294.9,460.3c1.1-0.5,1.9-1.5,2.1-2.7c1.4-6.3,1.6-12.8,0.8-19.2c-0.2-1.8-1.5-3.2-3.2-3.5
		c-7.4-1.5-15-1.5-22.4,0c-1.7,0.3-2.9,1.7-3.2,3.4c-1.1,6.5-0.8,13.1,0.9,19.5c0.3,1.1,1,2,2.1,2.5c0,0,4.4,2.2,11.3,2.2
		C290.2,462.5,294.9,460.3,294.9,460.3z"/>
	<path class="st0" d="M278.4,462.5l-0.1,23.7l5,5l5.2-5l0-23.7"/>
	<circle class="st0" cx="283.4" cy="443.6" r="3"/>
	<line class="st0" x1="282.4" y1="483.6" x2="282.4" y2="462.6"/>
	<path class="st1" d="M301.7,442.7l17,17c1.6,1.6,1.6,4.1,0,5.7l-10.1,10.1c-1.5,1.5-4,1.6-5.5,0.1l-10-10.2"/>
	<path class="st1" d="M320.9,457.5c2.8,2.8,2.8,7.3,0,10.1"/>
	<path class="st1" d="M323.4,455c4.2,4.2,4.2,10.9,0,15.1"/>
	
		<rect x="304.8" y="462.6" transform="matrix(0.7071 -0.7071 0.7071 0.7071 -238.1501 354.0282)" class="st1" width="6.9" height="3.8"/>
	<path class="st1" d="M303,462.8c-1-1-1-2.6,0-3.5s2.6-1,3.5,0"/>
	<line class="st1" x1="303" y1="462.8" x2="304.5" y2="464.2"/>
	<line class="st1" x1="306.2" y1="448.2" x2="302.2" y2="452.2"/>
</g>
<g>
	<line class="st0" x1="-0.5" y1="556.5" x2="5.5" y2="556.5"/>
	<line class="st0" x1="2.9" y1="570.3" x2="4.7" y2="569.3"/>
	<line class="st0" x1="50.6" y1="571.2" x2="48.8" y2="570.2"/>
	<line class="st0" x1="54.5" y1="557.5" x2="48.5" y2="557.5"/>
	<line class="st0" x1="51.1" y1="543.7" x2="49.3" y2="544.7"/>
	<line class="st0" x1="27.5" y1="529.5" x2="27.5" y2="535.5"/>
	<line class="st0" x1="13.7" y1="532.9" x2="14.7" y2="534.7"/>
	<line class="st0" x1="3.4" y1="542.8" x2="5.2" y2="543.8"/>
	<path class="st1" d="M39.4,536.5L39.4,536.5c-0.6-0.4-1.4-0.2-1.8,0.3l-13.9,16.7c-2,2.4-1.3,6,1.5,7.6h0c2.8,1.6,6.3,0.4,7.4-2.5
		l7.5-20.4C40.3,537.5,40,536.8,39.4,536.5z"/>
	<g>
		<path class="st0" d="M55.5,556.5c0-15.5-12.5-28-28-28s-28,12.5-28,28c0,7.8,3.2,14.9,8.4,20h39.2
			C52.3,571.4,55.5,564.3,55.5,556.5z"/>
	</g>
	<line class="st0" x1="17.5" y1="567.5" x2="17.5" y2="570.5"/>
	<line class="st0" x1="22.5" y1="567.5" x2="22.5" y2="570.5"/>
	<line class="st0" x1="27.5" y1="567.5" x2="27.5" y2="570.5"/>
	<line class="st0" x1="32.5" y1="567.5" x2="32.5" y2="570.5"/>
	<line class="st0" x1="37.5" y1="569.5" x2="37.5" y2="570.5"/>
</g>
</svg>
