<?xml version="1.0" encoding="utf-8"?>
<!-- Generator: Adobe Illustrator 21.1.0, SVG Export Plug-In . SVG Version: 6.00 Build 0)  -->
<svg version="1.1" id="Layer_1" xmlns="http://www.w3.org/2000/svg" xmlns:xlink="http://www.w3.org/1999/xlink" x="0px" y="0px"
	 viewBox="0 0 60 60" style="enable-background:new 0 0 60 60;" xml:space="preserve">
<style type="text/css">
	.st0{fill:none;stroke:#000000;stroke-width:2;stroke-linecap:round;stroke-linejoin:round;stroke-miterlimit:10;}
	.st1{fill:none;stroke:#BA0C2F;stroke-width:2;stroke-linecap:round;stroke-linejoin:round;stroke-miterlimit:10;}
	.st2{fill:#BA0C2F;}
	.st3{fill:none;stroke:#000000;stroke-width:2;stroke-linecap:round;stroke-linejoin:round;}
</style>
<g>
	<path class="st0" d="M-172-66.6c0-12.2,9.8-22,22-22s22,9.8,22,22"/>
	<path class="st0" d="M-127.8-49.6c0,8.8-7.2,16-16,16"/>
	<rect x="-130.5" y="-66.1" class="st0" width="5" height="15.5"/>
	<rect x="-174.5" y="-66.1" class="st0" width="5" height="15.5"/>
	<path class="st0" d="M-146.8-31.4h-6.5c-1.2,0-2.3-1-2.3-2.2v0c0-1.2,1-2.2,2.3-2.2h6.5c1.2,0,2.3,1,2.3,2.2v0
		C-144.5-32.4-145.5-31.4-146.8-31.4z"/>
	<path class="st1" d="M-158.8-50.6c0,4.8,3.9,8.8,8.8,8.8s8.8-3.9,8.8-8.8H-158.8z"/>
	<path class="st0" d="M-125.5-54.4c2.2,0,4-1.8,4-4s-1.8-4-4-4V-54.4z"/>
	<path class="st0" d="M-174.5-62.4c-2.2,0-4,1.8-4,4s1.8,4,4,4V-62.4z"/>
	<path class="st1" d="M-153.5-57.6c0-1.7-1.3-3-3-3c-1.7,0-3,1.3-3,3"/>
	<path class="st1" d="M-140.5-57.6c0-1.7-1.3-3-3-3c-1.7,0-3,1.3-3,3"/>
	<path class="st1" d="M-165.5-64.6c5,0,11-8,8-17c3,9,8,18,23,16"/>
</g>
<g>
	<path class="st0" d="M-74.5-48.5v-38c0-1.1,0.9-2,2-2h39c1.1,0,2,0.9,2,2v46c0,5-4,9-9,9h-39c-5,0-9-4-9-9v-2c0-1.1,0.9-2,2-2h39
		c1.1,0,2,0.9,2,2v1c0,5,5,6,5,6"/>
	<line class="st1" x1="-57.5" y1="-78.5" x2="-38.5" y2="-78.5"/>
	<line class="st1" x1="-67.5" y1="-78.5" x2="-63.5" y2="-78.5"/>
	<line class="st1" x1="-42.5" y1="-67.5" x2="-38.5" y2="-67.5"/>
	<line class="st1" x1="-67.5" y1="-67.5" x2="-48.5" y2="-67.5"/>
	<line class="st1" x1="-52.5" y1="-56.5" x2="-38.5" y2="-56.5"/>
	<line class="st1" x1="-67.5" y1="-56.5" x2="-58.5" y2="-56.5"/>
	<circle class="st1" cx="-60.5" cy="-78.5" r="3"/>
	<circle class="st1" cx="-45.5" cy="-67.5" r="3"/>
	<circle class="st1" cx="-55.5" cy="-56.5" r="3"/>
</g>
<g>
	<path class="st0" d="M134.5,16.5c-0.6-0.4-1.2-0.7-1.8-1"/>
	<path class="st0" d="M143.4,26.5c-0.7-1.8-1.7-3.5-2.9-5"/>
	<path class="st0" d="M136.5,47.2c3.2-2.3,5.6-5.3,6.9-8.7"/>
	<path class="st0" d="M107.8,50.2c3.5,1.5,7.5,2.3,11.7,2.3c4.5,0,8.8-1,12.5-2.7"/>
	<path class="st0" d="M106.3,15.5c-7.1,3.5-11.8,9.8-11.8,17c0,6.2,3.5,11.7,9,15.4"/>
	<path class="st1" d="M129,19.3c-2.8-1.3-6-2-9.5-2s-6.7,0.7-9.5,2"/>
	<polyline class="st0" points="143.5,26.5 148.5,26.5 148.5,38.5 143.5,38.5 	"/>
	<path class="st0" d="M94.5,32.5L94.5,32.5c-1.7,0-3-1.3-3-3v-4"/>
	<path class="st1" d="M113.2,18.1c-2-1.7-3.2-4.3-3.2-7.1c0-5.2,4.3-9.5,9.5-9.5S129,5.8,129,11c0,2.9-1.3,5.4-3.2,7.1"/>
	<polyline class="st0" points="103.5,47.9 103.5,58.5 110.5,58.5 111.1,51.3 	"/>
	<polyline class="st0" points="128.9,51 129.5,58.5 136.5,58.5 136.5,47.2 	"/>
	<polyline class="st0" points="134.5,16.5 141,13 140.5,21.5 	"/>
	<path class="st0" d="M133,26.1c0-1.4,1.1-2.5,2.5-2.5s2.5,1.1,2.5,2.5"/>
	<path class="st1" d="M117.5,8.5c0-1.1,0.9-2,2-2"/>
	<line class="st1" x1="117.5" y1="8.5" x2="117.5" y2="13.5"/>
	<line class="st1" x1="116.5" y1="13.5" x2="121.5" y2="13.5"/>
	<line class="st1" x1="117.5" y1="9.5" x2="119.5" y2="9.5"/>
</g>
<g>
	<path class="st1" d="M-226.5-50c0-1.1,0.9-2,2-2"/>
	<line class="st1" x1="-226.5" y1="-50" x2="-226.5" y2="-45"/>
	<line class="st1" x1="-227.5" y1="-45" x2="-222.5" y2="-45"/>
	<line class="st1" x1="-226.5" y1="-49" x2="-224.5" y2="-49"/>
	<g>
		<path class="st1" d="M-225.5-34c-3.9,0-7.4-1.6-9.9-4.1c-2.5-2.5-4.1-6-4.1-9.9s1.6-7.4,4.1-9.9"/>
		<path class="st1" d="M-225.5-62c3.9,0,7.4,1.6,9.9,4.1c2.5,2.5,4.1,6,4.1,9.9s-1.6,7.4-4.1,9.9"/>
		<polyline class="st1" points="-239.5,-59 -233.6,-59 -233.6,-53.1 		"/>
		<polyline class="st1" points="-211.5,-37 -217.4,-37 -217.4,-42.9 		"/>
	</g>
	<path class="st0" d="M-255.5-44v5c0,1.1-0.9,2-2,2h-6c-1.1,0-2-0.9-2-2v-5"/>
	<path class="st0" d="M-211.5-58.4c0-2.3-0.8-4.6-2.3-6.4l-2.7-3.2"/>
	<line class="st0" x1="-259.5" y1="-44" x2="-243.1" y2="-44"/>
	<path class="st0" d="M-263.5-68l-2.7,3.2c-1.5,1.8-2.3,4.1-2.3,6.4V-47c0,1.7,1.3,3,3,3"/>
	<path class="st0" d="M-216.5-68l-4.7-12.3c-1.1-2.8-3.6-4.8-6.5-5.2c-2.3-0.3-7.6-0.6-12.3-0.6s-10,0.2-12.3,0.6
		c-3,0.4-5.5,2.4-6.5,5.2l-4.7,12.3"/>
	<path class="st0" d="M-221.1-68l-3.6-9.5c-0.8-2.2-2.8-3.7-5.1-4c-1.8-0.2-6.5-0.4-10.2-0.4s-8.4,0.2-10.2,0.4
		c-2.3,0.3-4.2,1.8-5.1,4l-3.6,9.5H-221.1z"/>
	<circle class="st0" cx="-259.5" cy="-58.5" r="3"/>
	<line class="st0" x1="-216.5" y1="-68" x2="-211.5" y2="-68"/>
	<line class="st0" x1="-268.5" y1="-68" x2="-263.5" y2="-68"/>
	<polyline class="st0" points="-242.5,-55 -250.5,-55 -250.5,-49 -244.5,-49 	"/>
	<circle class="st0" cx="-247" cy="-75.5" r="2.5"/>
	<path class="st0" d="M-237-69c0-2.2,1.8-4,4-4s4,1.8,4,4"/>
	<path class="st0" d="M-251-69c0-2.2,1.8-4,4-4s4,1.8,4,4"/>
	<circle class="st0" cx="-233" cy="-75.5" r="2.5"/>
</g>
<g>
	<path class="st0" d="M-525.5,46v5c0,1.1-0.9,2-2,2h-6c-1.1,0-2-0.9-2-2v-5"/>
	<path class="st0" d="M-481.5,31.6c0-2.3-0.8-4.6-2.3-6.4l-2.7-3.2"/>
	<line class="st0" x1="-529.5" y1="46" x2="-513.1" y2="46"/>
	<path class="st0" d="M-533.5,22l-2.7,3.2c-1.5,1.8-2.3,4.1-2.3,6.4V43c0,1.7,1.3,3,3,3"/>
	<path class="st0" d="M-486.5,22l-4.7-12.3c-1.1-2.8-3.6-4.8-6.5-5.2C-500,4.2-505.3,4-510,4s-10,0.2-12.3,0.6
		c-3,0.4-5.5,2.4-6.5,5.2l-4.7,12.3"/>
	<path class="st0" d="M-491.1,22l-3.6-9.5c-0.8-2.2-2.8-3.7-5.1-4C-501.6,8.2-506.3,8-510,8c-3.7,0-8.4,0.2-10.2,0.4
		c-2.3,0.3-4.2,1.8-5.1,4l-3.6,9.5H-491.1z"/>
	<circle class="st0" cx="-529.5" cy="31.5" r="3"/>
	<line class="st0" x1="-486.5" y1="22" x2="-481.5" y2="22"/>
	<line class="st0" x1="-538.5" y1="22" x2="-533.5" y2="22"/>
	<polyline class="st0" points="-512.5,35 -520.5,35 -520.5,41 -514.5,41 	"/>
	<circle class="st0" cx="-517" cy="14.5" r="2.5"/>
	<path class="st0" d="M-507,21c0-2.2,1.8-4,4-4s4,1.8,4,4"/>
	<path class="st0" d="M-521,21c0-2.2,1.8-4,4-4s4,1.8,4,4"/>
	<circle class="st0" cx="-503" cy="14.5" r="2.5"/>
	<circle class="st1" cx="-495.5" cy="42" r="14"/>
	<g>
		<line class="st1" x1="-495.5" y1="46" x2="-495.5" y2="43"/>
		<line class="st1" x1="-495.5" y1="50" x2="-495.5" y2="50"/>
		<path class="st1" d="M-495.5,35c2.2,0,4,1.8,4,4s-1.8,4-4,4"/>
		<path class="st1" d="M-498.7,36.6c0.7-0.9,1.9-1.6,3.2-1.6"/>
	</g>
</g>
<g>
	<g>
		<path class="st1" d="M28-69.3c0-1.4,1.1-2.5,2.5-2.5"/>
		<line class="st1" x1="28" y1="-69.3" x2="28" y2="-63.1"/>
		<line class="st1" x1="26.8" y1="-63.1" x2="33" y2="-63.1"/>
		<line class="st1" x1="28" y1="-68" x2="30.5" y2="-68"/>
	</g>
	<line class="st0" x1="20.5" y1="-84.5" x2="48.5" y2="-84.5"/>
	<line class="st0" x1="12.5" y1="-84.5" x2="14.5" y2="-84.5"/>
	<path class="st0" d="M34.5-44.5v7l1,0h2c3.3,0,6,2.7,6,6v0h-27v0c0-3.3,2.7-6,6-6h2l1,0v-8l0-2.5c-8.1-2-14.1-9.4-14.1-18.1v-22.4
		h37.3v22.4c0,10.3-8.3,18.6-18.6,18.6"/>
	<line class="st0" x1="58.5" y1="-79.5" x2="49.5" y2="-79.5"/>
	<path class="st0" d="M58.5-79.5c0,0,0,5,0,7c0,4-2,10-10,11"/>
	<path class="st0" d="M11.5-61.5c-8-1-10-7-10-11c0-2,0-7,0-7h9"/>
	<path class="st1" d="M31.4-79.1l0.6,0.6c0.5,0.5,1.2,0.7,1.9,0.5l0.8-0.2c1.1-0.3,2.2,0.3,2.5,1.4l0.2,0.8c0.2,0.7,0.7,1.2,1.4,1.4
		l0.8,0.2c1.1,0.3,1.7,1.4,1.4,2.5L40.9-71c-0.2,0.7,0,1.4,0.5,1.9l0.6,0.6c0.8,0.8,0.8,2.1,0,2.8L41.5-65c-0.5,0.5-0.7,1.2-0.5,1.9
		l0.2,0.8c0.3,1.1-0.3,2.2-1.4,2.5l-0.8,0.2c-0.7,0.2-1.2,0.7-1.4,1.4l-0.2,0.8c-0.3,1.1-1.4,1.7-2.5,1.4L34-56.1
		c-0.7-0.2-1.4,0-1.9,0.5l-0.6,0.6c-0.8,0.8-2.1,0.8-2.8,0L28-55.5c-0.5-0.5-1.2-0.7-1.9-0.5l-0.8,0.2c-1.1,0.3-2.2-0.3-2.5-1.4
		l-0.2-0.8c-0.2-0.7-0.7-1.2-1.4-1.4l-0.8-0.2c-1.1-0.3-1.7-1.4-1.4-2.5l0.2-0.8c0.2-0.7,0-1.4-0.5-1.9l-0.6-0.6
		c-0.8-0.8-0.8-2.1,0-2.8l0.6-0.6c0.5-0.5,0.7-1.2,0.5-1.9l-0.2-0.8c-0.3-1.1,0.3-2.2,1.4-2.5l0.8-0.2c0.7-0.2,1.2-0.7,1.4-1.4
		l0.2-0.8c0.3-1.1,1.4-1.7,2.5-1.4l0.8,0.2c0.7,0.2,1.4,0,1.9-0.5l0.6-0.6C29.4-79.9,30.6-79.9,31.4-79.1z"/>
</g>
<g>
	<g>
		<path d="M-420,149.5c-13.8,0-25-11.2-25-25s11.2-25,25-25s25,11.2,25,25S-406.2,149.5-420,149.5z M-420,101.5
			c-12.7,0-23,10.3-23,23s10.3,23,23,23s23-10.3,23-23S-407.3,101.5-420,101.5z"/>
	</g>
	<g>
		<path d="M-420,106.5c-0.3,0-0.5-0.1-0.7-0.3c-0.2-0.2-0.3-0.5-0.3-0.7c0-0.3,0.1-0.5,0.3-0.7c0.4-0.4,1-0.4,1.4,0
			c0.2,0.2,0.3,0.4,0.3,0.7c0,0.3-0.1,0.5-0.3,0.7C-419.5,106.4-419.7,106.5-420,106.5z"/>
	</g>
	<g>
		<path d="M-429.5,109c-0.1,0-0.3,0-0.4-0.1c-0.1,0-0.2-0.1-0.3-0.2c-0.2-0.2-0.3-0.4-0.3-0.7c0-0.3,0.1-0.5,0.3-0.7
			c0.1-0.1,0.2-0.2,0.3-0.2c0.4-0.1,0.8-0.1,1.1,0.2c0.2,0.2,0.3,0.4,0.3,0.7c0,0.3-0.1,0.5-0.3,0.7C-429,108.9-429.2,109-429.5,109
			z"/>
	</g>
	<g>
		<path d="M-436.5,116c-0.3,0-0.5-0.1-0.7-0.3c-0.2-0.2-0.3-0.5-0.3-0.7c0-0.3,0.1-0.5,0.3-0.7c0.4-0.4,1-0.4,1.4,0
			c0.2,0.2,0.3,0.4,0.3,0.7c0,0.3-0.1,0.5-0.3,0.7C-435.9,115.9-436.2,116-436.5,116z"/>
	</g>
	<g>
		<path d="M-439,125.5c-0.3,0-0.5-0.1-0.7-0.3c-0.2-0.2-0.3-0.5-0.3-0.7c0-0.1,0-0.3,0.1-0.4c0.1-0.1,0.1-0.2,0.2-0.3
			c0.4-0.4,1-0.4,1.4,0c0.1,0.1,0.2,0.2,0.2,0.3c0.1,0.1,0.1,0.3,0.1,0.4c0,0.3-0.1,0.5-0.3,0.7C-438.5,125.4-438.7,125.5-439,125.5
			z"/>
	</g>
	<g>
		<path d="M-436.5,135c-0.1,0-0.3,0-0.4-0.1c-0.1-0.1-0.2-0.1-0.3-0.2c-0.1-0.1-0.2-0.2-0.2-0.3c0-0.1-0.1-0.3-0.1-0.4
			c0-0.1,0-0.3,0.1-0.4c0.1-0.1,0.1-0.2,0.2-0.3c0.1-0.1,0.2-0.2,0.3-0.2c0.4-0.2,0.8-0.1,1.1,0.2c0.1,0.1,0.2,0.2,0.2,0.3
			c0.1,0.1,0.1,0.3,0.1,0.4c0,0.1,0,0.3-0.1,0.4c0,0.1-0.1,0.2-0.2,0.3C-435.9,134.9-436.2,135-436.5,135z"/>
	</g>
	<g>
		<path d="M-429.5,142c-0.1,0-0.3,0-0.4-0.1c-0.1-0.1-0.2-0.1-0.3-0.2c-0.1-0.1-0.2-0.2-0.2-0.3c0-0.1-0.1-0.3-0.1-0.4
			c0-0.3,0.1-0.5,0.3-0.7c0.1-0.1,0.2-0.2,0.3-0.2c0.2-0.1,0.5-0.1,0.8,0c0.1,0,0.2,0.1,0.3,0.2c0.2,0.2,0.3,0.4,0.3,0.7
			c0,0.1,0,0.3-0.1,0.4c-0.1,0.1-0.1,0.2-0.2,0.3c-0.1,0.1-0.2,0.2-0.3,0.2C-429.2,141.9-429.4,142-429.5,142z"/>
	</g>
	<g>
		<path d="M-420,144.5c-0.3,0-0.5-0.1-0.7-0.3c-0.1-0.1-0.2-0.2-0.2-0.3c0-0.1-0.1-0.3-0.1-0.4c0-0.1,0-0.1,0-0.2
			c0-0.1,0-0.1,0.1-0.2c0-0.1,0.1-0.1,0.1-0.2c0-0.1,0.1-0.1,0.1-0.1c0.3-0.3,0.7-0.4,1.1-0.2c0.1,0.1,0.2,0.1,0.3,0.2
			c0.2,0.2,0.3,0.4,0.3,0.7c0,0.1,0,0.3-0.1,0.4c-0.1,0.1-0.1,0.2-0.2,0.3c-0.1,0.1-0.2,0.2-0.3,0.2
			C-419.7,144.5-419.9,144.5-420,144.5z"/>
	</g>
	<g>
		<path d="M-410.5,142c-0.1,0-0.3,0-0.4-0.1c-0.1-0.1-0.2-0.1-0.3-0.2c-0.1-0.1-0.2-0.2-0.2-0.3c0-0.1-0.1-0.3-0.1-0.4
			c0-0.3,0.1-0.5,0.3-0.7c0.1-0.1,0.2-0.2,0.3-0.2c0.2-0.1,0.4-0.1,0.6-0.1c0.1,0,0.1,0,0.2,0.1c0.1,0,0.1,0.1,0.2,0.1
			c0,0,0.1,0.1,0.1,0.1c0.2,0.2,0.3,0.4,0.3,0.7c0,0.1,0,0.3-0.1,0.4c-0.1,0.1-0.1,0.2-0.2,0.3C-410,141.8-410.2,142-410.5,142z"/>
	</g>
	<g>
		<path d="M-403.6,135c-0.1,0-0.3,0-0.4-0.1c-0.1-0.1-0.2-0.1-0.3-0.2c-0.1-0.1-0.2-0.2-0.2-0.3s-0.1-0.3-0.1-0.4
			c0-0.1,0-0.3,0.1-0.4c0-0.1,0.1-0.2,0.2-0.3c0.1-0.1,0.2-0.2,0.3-0.2c0.4-0.2,0.8-0.1,1.1,0.2c0.1,0.1,0.2,0.2,0.2,0.3
			c0,0.1,0.1,0.3,0.1,0.4c0,0.1,0,0.3-0.1,0.4c-0.1,0.1-0.1,0.2-0.2,0.3C-403,134.9-403.3,135-403.6,135z"/>
	</g>
	<g>
		<path d="M-401,125.5c-0.1,0-0.3,0-0.4-0.1c-0.1-0.1-0.2-0.1-0.3-0.2c-0.2-0.2-0.3-0.5-0.3-0.7c0-0.1,0-0.3,0.1-0.4
			c0.1-0.1,0.1-0.2,0.2-0.3c0.1-0.1,0.2-0.2,0.3-0.2c0.4-0.2,0.8-0.1,1.1,0.2c0.1,0.1,0.2,0.2,0.2,0.3c0.1,0.1,0.1,0.3,0.1,0.4
			c0,0.3-0.1,0.5-0.3,0.7C-400.5,125.4-400.7,125.5-401,125.5z"/>
	</g>
	<g>
		<path d="M-403.6,116c-0.3,0-0.5-0.1-0.7-0.3c-0.2-0.2-0.3-0.5-0.3-0.7c0-0.3,0.1-0.5,0.3-0.7c0.4-0.4,1-0.4,1.4,0
			c0.2,0.2,0.3,0.4,0.3,0.7c0,0.3-0.1,0.5-0.3,0.7C-403,115.9-403.3,116-403.6,116z"/>
	</g>
	<g>
		<path d="M-412,97.5h-16c-0.6,0-1-0.4-1-1v-5c0-0.6,0.4-1,1-1h16c0.6,0,1,0.4,1,1v5C-411,97.1-411.4,97.5-412,97.5z M-427,95.5h14
			v-3h-14V95.5z"/>
	</g>
	<g>
		<path d="M-424,101.5c-0.6,0-1-0.4-1-1v-4c0-0.6,0.4-1,1-1s1,0.4,1,1v4C-423,101.1-423.4,101.5-424,101.5z"/>
	</g>
	<g>
		<path d="M-416,101.5c-0.6,0-1-0.4-1-1v-4c0-0.6,0.4-1,1-1s1,0.4,1,1v4C-415,101.1-415.4,101.5-416,101.5z"/>
	</g>
	<g>
		<path d="M-397.5,108c-0.3,0-0.5-0.1-0.7-0.3l-7-7c-0.4-0.4-0.4-1,0-1.4s1-0.4,1.4,0l7,7c0.4,0.4,0.4,1,0,1.4
			C-397,107.9-397.2,108-397.5,108z"/>
	</g>
	<g>
		<path d="M-442.5,108c-0.3,0-0.5-0.1-0.7-0.3c-0.4-0.4-0.4-1,0-1.4l7-7c0.4-0.4,1-0.4,1.4,0s0.4,1,0,1.4l-7,7
			C-442,107.9-442.2,108-442.5,108z"/>
	</g>
	<g>
		<path class="st2" d="M-419.9,129.5c-0.9,0-1.8-0.2-2.6-0.7c-1.3-0.8-2.3-2.1-2.5-3.6c-0.3-1.5,0.1-3.1,1.1-4.3l11.7-14.1
			c0.7-0.8,1.8-1,2.8-0.5c0.9,0.5,1.3,1.7,0.9,2.7l-6.4,17.2c-0.5,1.4-1.7,2.6-3.1,3.1C-418.7,129.4-419.3,129.5-419.9,129.5z
			 M-410.6,108c-0.1,0-0.1,0-0.1,0.1l-11.7,14.2c-0.6,0.7-0.9,1.7-0.7,2.6s0.7,1.7,1.6,2.2c0.8,0.5,1.8,0.6,2.7,0.2
			c0.9-0.3,1.6-1,1.9-1.9l6.4-17.2C-410.4,108.2-410.4,108.1-410.6,108C-410.5,108-410.6,108-410.6,108z"/>
	</g>
</g>
<g>
	<path class="st0" d="M-345.5,46v5c0,1.1-0.9,2-2,2h-6c-1.1,0-2-0.9-2-2v-5"/>
	<path class="st0" d="M-302.2,28c-0.4-1-0.9-1.9-1.6-2.8l-2.7-3.2"/>
	<line class="st0" x1="-349.5" y1="46" x2="-329.1" y2="46"/>
	<path class="st0" d="M-353.5,22l-2.7,3.2c-1.5,1.8-2.3,4.1-2.3,6.4V43c0,1.7,1.3,3,3,3"/>
	<path class="st0" d="M-306.5,22l-4.7-12.3c-1.1-2.8-3.6-4.8-6.5-5.2C-320,4.2-325.3,4-330,4s-10,0.2-12.3,0.6
		c-3,0.4-5.5,2.4-6.5,5.2l-4.7,12.3"/>
	<path class="st0" d="M-311.1,22l-3.6-9.5c-0.8-2.2-2.8-3.7-5.1-4C-321.6,8.2-326.3,8-330,8s-8.4,0.2-10.2,0.4
		c-2.3,0.3-4.2,1.8-5.1,4l-3.6,9.5H-311.1z"/>
	<circle class="st0" cx="-349.5" cy="31.5" r="3"/>
	<line class="st0" x1="-306.5" y1="22" x2="-301.5" y2="22"/>
	<line class="st0" x1="-358.5" y1="22" x2="-353.5" y2="22"/>
	<polyline class="st0" points="-329.5,35 -340.5,35 -340.5,41 -329.5,41 	"/>
	<circle class="st0" cx="-337" cy="14.5" r="2.5"/>
	<path class="st0" d="M-327,21c0-2.2,1.8-4,4-4s4,1.8,4,4"/>
	<path class="st0" d="M-341,21c0-2.2,1.8-4,4-4s4,1.8,4,4"/>
	<circle class="st0" cx="-323" cy="14.5" r="2.5"/>
	<g>
		<g>
			<g>
				<path class="st1" d="M-324.5,33.9v7.3c0,3.4,1.1,6.6,3.3,9.4c2.2,2.8,4.9,4.6,8.2,5.4c3.2-0.8,6-2.6,8.2-5.4
					c2.2-2.8,3.3-6,3.3-9.4v-7.3L-313,29L-324.5,33.9z"/>
			</g>
		</g>
	</g>
	<polyline class="st1" points="-317.5,43 -313.5,46 -307.5,39 	"/>
</g>
<g>
	<path class="st1" d="M21.2,44.8c2.6-2.2,5.9-7.8,1.5-13.3c-5.6-7-21-10-21-10s1.1,14.1,6.6,21C12.7,48.1,18.8,46.8,21.2,44.8z"/>
	<path class="st0" d="M25.6,58.5c0,0,2.9-8.1,10-16c9-10,13-26,13-32"/>
	<path class="st0" d="M35.5,42c7.5,5,16.4,0.6,20.2-6.5c9-17-7-34-8-34c-3,7-13.5,14-17,21C26.6,30.5,28.6,37.5,35.5,42z"/>
	<g>
		<path class="st1" d="M7.6,27.5c17,18,19,22,19,22"/>
		<path class="st1" d="M21.2,44.8c2.6-2.2,5.9-7.8,1.5-13.3c-5.6-7-21-10-21-10s1.1,14.1,6.6,21C12.7,48.1,18.8,46.8,21.2,44.8z"/>
		<path class="st0" d="M25.6,58.5c0,0,2.9-8.1,10-16c9-10,13-26,13-32"/>
		<path class="st0" d="M35.5,42c7.5,5,16.4,0.6,20.2-6.5c9-17-7-34-8-34c-3,7-13.5,14-17,21C26.6,30.5,28.6,37.5,35.5,42z"/>
	</g>
</g>
<g>
	<circle class="st1" cx="-174" cy="9" r="4"/>
	<path class="st1" d="M-174,13v13c0,2.2,1.8,4,4,4h8"/>
	<circle class="st0" cx="-158" cy="9" r="4"/>
	<circle class="st0" cx="-142" cy="9" r="4"/>
	<circle class="st0" cx="-126" cy="9" r="4"/>
	<circle class="st0" cx="-158" cy="51" r="4"/>
	<circle class="st0" cx="-142" cy="51" r="4"/>
	<circle class="st0" cx="-126" cy="51" r="4"/>
	<line class="st0" x1="-158" y1="13" x2="-158" y2="47"/>
	<line class="st0" x1="-142" y1="13" x2="-142" y2="47"/>
	<line class="st0" x1="-126" y1="13" x2="-126" y2="47"/>
	<line class="st0" x1="-126" y1="30" x2="-158" y2="30"/>
</g>
<g>
	<path class="st0" d="M-212,37.8c0-15.5-12.5-28-28-28s-28,12.5-28,28"/>
	<g>
		<polyline class="st0" points="-264,50.2 -268,50.2 -268,43.5 -264,43.5 		"/>
		<line class="st0" x1="-268" y1="46.8" x2="-265" y2="46.8"/>
	</g>
	<g>
		<polyline class="st0" points="-216,49.2 -216,42.5 -212,42.5 		"/>
		<line class="st0" x1="-216" y1="45.8" x2="-213" y2="45.8"/>
	</g>
	<line class="st0" x1="-240" y1="9.8" x2="-240" y2="15.8"/>
	<path class="st1" d="M-229.1,17.8L-229.1,17.8c-0.6-0.4-1.4-0.2-1.8,0.3l-13.9,16.7c-2,2.4-1.3,6,1.5,7.6v0
		c2.8,1.6,6.3,0.4,7.4-2.5l7.5-20.4C-228.2,18.9-228.5,18.1-229.1,17.8z"/>
	<line class="st0" x1="-212" y1="37.8" x2="-218" y2="37.8"/>
	<line class="st0" x1="-268" y1="37.8" x2="-262" y2="37.8"/>
	<line class="st0" x1="-268" y1="37.8" x2="-266" y2="37.8"/>
	<line class="st0" x1="-264.1" y1="24.2" x2="-262.3" y2="25.2"/>
	<line class="st0" x1="-253.8" y1="14.3" x2="-252.8" y2="16"/>
	<line class="st0" x1="-216.4" y1="25" x2="-218.2" y2="26"/>
</g>
<g>
	<path class="st1" d="M-53.4,18c0,3.9-2,10-7,10s-7-6.1-7-10s3.1-7,7-7S-53.4,14.1-53.4,18z"/>
	<path class="st1" d="M-74.4,49c0-9.4,5-17,14-17s14,7.6,14,17"/>
	<path class="st0" d="M-36.7,21c0,2.9-1.5,7.5-5.3,7.5s-5.3-4.6-5.3-7.5s2.4-5.3,5.3-5.3S-36.7,18.1-36.7,21z"/>
	<path class="st0" d="M-47.6,33.2c1.5-1.1,3.4-1.7,5.7-1.7c6.8,0,10.5,5.7,10.5,12.8"/>
	<path class="st0" d="M-83.3,21c0,2.9,1.5,7.5,5.3,7.5s5.3-4.6,5.3-7.5s-2.4-5.3-5.3-5.3S-83.3,18.1-83.3,21z"/>
	<path class="st0" d="M-72.4,33.2c-1.5-1.1-3.4-1.7-5.7-1.7c-6.8,0-10.5,5.7-10.5,12.8"/>
	<line class="st1" x1="-67.8" y1="34.2" x2="-60.7" y2="41.2"/>
	<line class="st1" x1="-57.2" y1="44.8" x2="-53.4" y2="49"/>
	<rect x="-61.4" y="41" transform="matrix(0.7071 0.7071 -0.7071 0.7071 13.1485 54.2566)" class="st1" width="5" height="4"/>
</g>
<g>
	<path class="st0" d="M-435.5,48v4c0,1.1-0.9,2-2,2h-6c-1.1,0-2-0.9-2-2v-4"/>
	<path class="st0" d="M-394.5,48v4c0,1.1-0.9,2-2,2h-6c-1.1,0-2-0.9-2-2v-4"/>
	<path class="st0" d="M-394.5,48c1.7,0,3-1.3,3-3V33.6c0-2.3-0.8-4.6-2.3-6.4l-2.7-3.2"/>
	<path class="st0" d="M-443.5,24l-2.7,3.2c-1.5,1.8-2.3,4.1-2.3,6.4V45c0,1.7,1.3,3,3,3"/>
	<path class="st0" d="M-396.5,24l-4.7-12.3c-1.1-2.8-3.6-4.8-6.5-5.2C-410,6.2-415.3,6-420,6s-10,0.2-12.3,0.6
		c-3,0.4-5.5,2.4-6.5,5.2l-4.7,12.3"/>
	<path class="st0" d="M-402.5,23l-3.4-8.9c-0.8-2-2.6-3.4-4.7-3.7c-1.7-0.2-6-0.4-9.4-0.4s-7.8,0.2-9.4,0.4
		c-2.1,0.3-3.9,1.7-4.7,3.7l-3.4,8.9H-402.5z"/>
	<circle class="st0" cx="-439.5" cy="33.5" r="3"/>
	<circle class="st0" cx="-400.5" cy="33.5" r="3"/>
	<line class="st0" x1="-396.5" y1="24" x2="-391.5" y2="24"/>
	<line class="st0" x1="-448.5" y1="24" x2="-443.5" y2="24"/>
	<rect x="-430.5" y="37" class="st0" width="21" height="6"/>
	<circle class="st0" cx="-427" cy="16.5" r="2.5"/>
	<path class="st0" d="M-417,23c0-2.2,1.8-4,4-4s4,1.8,4,4"/>
	<path class="st0" d="M-431,23c0-2.2,1.8-4,4-4s4,1.8,4,4"/>
	<circle class="st0" cx="-413" cy="16.5" r="2.5"/>
	<line class="st0" x1="-439.5" y1="48" x2="-400.5" y2="48"/>
</g>
<g>
	<polygon class="st0" points="-306,148.5 -354,148.5 -346,112.5 -314,112.5 	"/>
	<circle class="st1" cx="-330" cy="97.5" r="6"/>
	<line class="st1" x1="-330" y1="100.5" x2="-330" y2="108.5"/>
	<line class="st0" x1="-340" y1="124.5" x2="-340" y2="136.5"/>
	<line class="st0" x1="-332" y1="124.5" x2="-340" y2="132"/>
	<line class="st0" x1="-332" y1="136.5" x2="-337" y2="129.8"/>
	<path class="st0" d="M-320,133.5c0,1.7-1.3,3-3,3h-2c-1.7,0-3-1.3-3-3v-6c0-1.7,1.3-3,3-3h2c1.7,0,3,1.3,3,3"/>
	<polyline class="st0" points="-322,131.5 -320,131.5 -320,133.5 	"/>
</g>
<g>
	<line class="st1" x1="-135.5" y1="93" x2="-135.5" y2="142"/>
	<polyline class="st1" points="-129.8,137 -135.5,142.7 -141.2,137 	"/>
	<polyline class="st1" points="-141.2,98 -135.5,92.3 -129.8,98 	"/>
	<path class="st0" d="M-150.5,143V92h-16c-2.2,0-4,1.8-4,4v52h41"/>
	<line class="st0" x1="-150.5" y1="120" x2="-163.5" y2="120"/>
	<line class="st0" x1="-150.5" y1="113" x2="-157.5" y2="113"/>
	<line class="st0" x1="-150.5" y1="106" x2="-157.5" y2="106"/>
	<line class="st0" x1="-150.5" y1="99" x2="-157.5" y2="99"/>
	<line class="st0" x1="-150.5" y1="141" x2="-157.5" y2="141"/>
	<line class="st0" x1="-150.5" y1="134" x2="-157.5" y2="134"/>
	<line class="st0" x1="-150.5" y1="127" x2="-157.5" y2="127"/>
</g>
<g>
	<line class="st1" x1="-218" y1="132.5" x2="-262" y2="132.5"/>
	<polyline class="st1" points="-257,138.2 -262.7,132.5 -257,126.8 	"/>
	<polyline class="st1" points="-223,126.8 -217.3,132.5 -223,138.2 	"/>
	<path class="st0" d="M-212,116.5v-16c0-2.2-1.8-4-4-4h-48c-2.2,0-4,1.8-4,4v16"/>
	<line class="st0" x1="-240" y1="116.5" x2="-240" y2="103.5"/>
	<line class="st0" x1="-233" y1="116.5" x2="-233" y2="109.5"/>
	<line class="st0" x1="-226" y1="116.5" x2="-226" y2="109.5"/>
	<line class="st0" x1="-219" y1="116.5" x2="-219" y2="109.5"/>
	<line class="st0" x1="-261" y1="116.5" x2="-261" y2="109.5"/>
	<line class="st0" x1="-254" y1="116.5" x2="-254" y2="109.5"/>
	<line class="st0" x1="-247" y1="116.5" x2="-247" y2="109.5"/>
	<line class="st0" x1="-268" y1="116.5" x2="-212" y2="116.5"/>
	<line class="st0" x1="-212" y1="121.5" x2="-212" y2="125.5"/>
	<line class="st0" x1="-268" y1="121.5" x2="-268" y2="125.5"/>
	<line class="st0" x1="-212" y1="130.5" x2="-212" y2="134.5"/>
	<line class="st0" x1="-268" y1="130.5" x2="-268" y2="134.5"/>
	<line class="st0" x1="-212" y1="139.5" x2="-212" y2="143.5"/>
	<line class="st0" x1="-268" y1="139.5" x2="-268" y2="143.5"/>
</g>
<g>
	<circle class="st3" cx="-79.2" cy="-232.9" r="4.5"/>
	<circle class="st3" cx="-40.2" cy="-232.9" r="4.5"/>
	<line class="st3" x1="-45" y1="-232.4" x2="-71" y2="-232.4"/>
	<path class="st3" d="M-35-232.4c0,0-1,0,1,0c3,0,3-5,3-7c0-1-3-5-16-5h-26c-4,0-9-6-9-6"/>
	<path class="st3" d="M-53.9-251.6c4.3,2.3,9.2,7.1,9.2,7.1"/>
	<path class="st3" d="M-84-232.4l-5-1c0,0,0-4,0-5c0-2,3-6,3-8h8"/>
	<polyline class="st3" points="-66,-247.4 -64,-244.4 -64,-235.4 	"/>
	<line class="st3" x1="-60" y1="-240.4" x2="-57" y2="-240.4"/>
</g>
<g>
	<circle class="st3" cx="-349.2" cy="-232.5" r="4.5"/>
	<circle class="st3" cx="-310.2" cy="-232.5" r="4.5"/>
	<line class="st3" x1="-315" y1="-232" x2="-341" y2="-232"/>
	<path class="st3" d="M-305-232c0,0-1,0,1,0c3,0,3-5,3-7c0-1-3-5-16-5h-26c-3,0-5.2-3-5.2-3"/>
	<path class="st3" d="M-354-232l-5-1c0,0,0-4,0-5c0-2,3-7,3-9h7c0,0,2-5,16-5c9,0,17.3,8,17.3,8"/>
	<polyline class="st3" points="-333,-251 -331,-244 -331,-235 	"/>
	<line class="st3" x1="-327" y1="-240" x2="-325" y2="-240"/>
	<line class="st3" x1="-340" y1="-240" x2="-338" y2="-240"/>
	<line class="st3" x1="-344" y1="-250.5" x2="-344" y2="-238.8"/>
</g>
<g>
	<circle class="st3" cx="-259.2" cy="-232.5" r="4.5"/>
	<circle class="st3" cx="-220.2" cy="-232.5" r="4.5"/>
	<line class="st3" x1="-225" y1="-232" x2="-251" y2="-232"/>
	<path class="st3" d="M-215-232c0,0-1,0,1,0c3,0,3-5,3-7c0-1-3-5-16-5h-33c-3,0-7-1-7-1"/>
	<path class="st3" d="M-264-232l-5-1c0,0,0-4,0-5c0-2,2-5,2-7s4-7,4-7s12,0,23,0c6,0,14.3,8,14.3,8"/>
	<polyline class="st3" points="-243,-251 -241,-244 -241,-235 	"/>
	<line class="st3" x1="-237" y1="-240" x2="-235" y2="-240"/>
	<line class="st3" x1="-251.5" y1="-240" x2="-249.5" y2="-240"/>
	<line class="st3" x1="-255" y1="-251" x2="-256" y2="-244"/>
	<line class="st3" x1="-256" y1="-244" x2="-256" y2="-240"/>
</g>
<g>
	<circle class="st3" cx="10.8" cy="-230.5" r="4.5"/>
	<circle class="st3" cx="49.8" cy="-230.5" r="4.5"/>
	<line class="st3" x1="45" y1="-230" x2="19" y2="-230"/>
	<path class="st3" d="M55-230c0,0-1,0,1,0c3,0,3-5,3-7c0-1-5-7-15-7H10c-3,0-7-1-7-1"/>
	<path class="st3" d="M6-230l-5-1c0,0,0-4,0-5c0-2,2-7,2-9s5-9,9-9c1,0,8,0,19,0c8,0,17,10,17,10"/>
	<polyline class="st3" points="28,-254 30,-245 30,-233 	"/>
	<line class="st3" x1="34" y1="-239" x2="36" y2="-239"/>
	<line class="st3" x1="19" y1="-239" x2="21" y2="-239"/>
	<line class="st3" x1="17" y1="-254" x2="15" y2="-244"/>
	<line class="st3" x1="15" y1="-244" x2="15" y2="-237.5"/>
</g>
<g>
	<circle class="st3" cx="-169.2" cy="-232.5" r="4.5"/>
	<circle class="st3" cx="-130.2" cy="-232.5" r="4.5"/>
	<line class="st3" x1="-135" y1="-232" x2="-161" y2="-232"/>
	<path class="st3" d="M-125-232c0,0-1,0,1,0c3,0,3-5,3-7c0-1-3-5-16-5h-28c-5,0-10-7-10-7"/>
	<path class="st3" d="M-174-232l-5-1c0,0,0-4,0-5c0-2,3-6,3-8h6c0,0,5-6,17-6c9,0,18.3,8,18.3,8"/>
	<polyline class="st3" points="-156,-247 -154,-244 -154,-235 	"/>
	<line class="st3" x1="-150" y1="-240" x2="-147" y2="-240"/>
</g>
<g>
	<circle class="st3" cx="101.2" cy="-229.8" r="4.8"/>
	<circle class="st3" cx="139.1" cy="-229.8" r="5.1"/>
	<line class="st3" x1="134" y1="-229.3" x2="110" y2="-229.3"/>
	<path class="st3" d="M145-229.3c0,0-1,0,1,0c3,0,3-2,3-4s-2-3-2-3s0-2.9,0-4c0-2-8.6-3-15-3h-31c-3,0-8-1-8-1"/>
	<path class="st3" d="M96-229.3l-5-1c0,0,0-4,0-5c0-2,2-6,2-8c0-4,3-10,3-10s19-1,28,0c3,0.3,10,10,10,10"/>
	<polyline class="st3" points="117,-253.3 119,-244.3 119,-232.3 	"/>
	<line class="st3" x1="123" y1="-238.3" x2="125" y2="-238.3"/>
	<line class="st3" x1="108.4" y1="-238.3" x2="110.6" y2="-238.3"/>
	<line class="st3" x1="105" y1="-253.3" x2="104" y2="-243.3"/>
	<line class="st3" x1="102" y1="-254.3" x2="102" y2="-255.3"/>
	<line class="st3" x1="119" y1="-254.3" x2="119" y2="-255.3"/>
	<line class="st3" x1="104" y1="-243.3" x2="104" y2="-237.8"/>
</g>
<g>
	<line class="st1" x1="91.5" y1="-88.5" x2="148.5" y2="-31.5"/>
	<path class="st0" d="M104.5-42.5v4c0,1.1-0.9,2-2,2h-6c-1.1,0-2-0.9-2-2v-4"/>
	<path class="st0" d="M138.4-36.5h-0.9c-1.1,0-2-0.9-2-2"/>
	<line class="st0" x1="145.5" y1="-42.5" x2="145.5" y2="-40.2"/>
	<path class="st0" d="M145.5-42.5c1.7,0,3-1.3,3-3v-11.4c0-2.3-0.8-4.6-2.3-6.4l-2.7-3.2"/>
	<path class="st0" d="M96.5-66.5l-2.7,3.2c-1.5,1.8-2.3,4.1-2.3,6.4v11.4c0,1.7,1.3,3,3,3"/>
	<line class="st0" x1="99.6" y1="-74.7" x2="96.5" y2="-66.5"/>
	<path class="st0" d="M143.5-66.5l-4.7-12.3c-1.1-2.8-3.6-4.8-6.5-5.2c-2.3-0.3-7.6-0.6-12.3-0.6s-10,0.2-12.3,0.6
		c-1.6,0.2-3,0.9-4.2,1.9"/>
	<path class="st0" d="M118.2-67.5h19.4l-3.4-8.9c-0.8-2-2.6-3.4-4.7-3.7c-1.7-0.2-6-0.4-9.4-0.4s-7.8,0.2-9.4,0.4
		c-1.3,0.2-2.5,0.8-3.4,1.7"/>
	<polyline class="st0" points="103.7,-70.7 102.5,-67.5 106.8,-67.5 	"/>
	<circle class="st0" cx="100.5" cy="-57" r="3"/>
	<circle class="st0" cx="139.5" cy="-57" r="3"/>
	<line class="st0" x1="143.5" y1="-66.5" x2="148.5" y2="-66.5"/>
	<line class="st0" x1="91.5" y1="-66.5" x2="96.5" y2="-66.5"/>
	<polyline class="st0" points="120.5,-53.5 109.5,-53.5 109.5,-47.5 126.5,-47.5 	"/>
	<path class="st0" d="M110.7-75c0.4-0.9,1.3-1.5,2.3-1.5c1.4,0,2.5,1.1,2.5,2.5c0,1-0.6,1.9-1.5,2.3"/>
	<path class="st0" d="M123-67.5c0-2.2,1.8-4,4-4s4,1.8,4,4"/>
	<circle class="st0" cx="127" cy="-74" r="2.5"/>
	<line class="st0" x1="100.5" y1="-42.5" x2="131.5" y2="-42.5"/>
</g>
<g>
	<path class="st1" d="M-493.5,131.5c0,3.3,2.7,6,6,6s6-2.7,6-6"/>
	<path class="st1" d="M-493.5,112.5c0-3.3-2.7-6-6-6"/>
	<line class="st1" x1="-493.5" y1="131.5" x2="-493.5" y2="112.5"/>
	<line class="st1" x1="-481.5" y1="131.5" x2="-481.5" y2="105.5"/>
	<circle class="st1" cx="-485" cy="106" r="3.5"/>
	<path class="st1" d="M-481.5,106c0-5.8-2-8.5-3.5-10.5"/>
	<line class="st0" x1="-494.5" y1="147.5" x2="-481.5" y2="147.5"/>
	<line class="st0" x1="-538.5" y1="147.5" x2="-499.5" y2="147.5"/>
	<g>
		<line class="st0" x1="-530.5" y1="120.5" x2="-530.5" y2="146.5"/>
		<line class="st0" x1="-507.5" y1="146.5" x2="-507.5" y2="120.5"/>
	</g>
	<path class="st0" d="M-509.5,97.5h-19c-0.6,0-1,0.4-1,1v16c0,0.6,0.4,1,1,1h19c0.6,0,1-0.4,1-1v-16
		C-508.5,97.9-508.9,97.5-509.5,97.5z"/>
	<line class="st0" x1="-523.5" y1="103.5" x2="-514.5" y2="103.5"/>
	<line class="st0" x1="-523.5" y1="109.5" x2="-514.5" y2="109.5"/>
	<path class="st0" d="M-507.5,92.5h-23c-2.2,0-4,1.8-4,4v20c0,2.2,1.8,4,4,4h23c2.2,0,4-1.8,4-4v-20
		C-503.5,94.3-505.3,92.5-507.5,92.5z"/>
	<path class="st0" d="M-519,126.5c0,0,5,6.2,5,9s-2.2,5-5,5s-5-2.2-5-5c0-1.3,1.1-3.3,2.2-5.1"/>
</g>
<g>
	<line class="st1" x1="-63" y1="115.2" x2="-82" y2="115.2"/>
	<polyline class="st1" points="-77,120.8 -82.7,115.2 -77,109.5 	"/>
	<polyline class="st1" points="-68,109.5 -62.3,115.2 -68,120.8 	"/>
	<circle class="st3" cx="-78.8" cy="132.7" r="4.8"/>
	<circle class="st3" cx="-39.9" cy="132.7" r="5.1"/>
	<line class="st3" x1="-45" y1="133.2" x2="-70" y2="133.2"/>
	<path class="st3" d="M-34,133.2c0,0-1,0,1,0s2-2,2-4s-1-3-1-3v0c0-0.7,0-1,0-2c0-2-4-5-4-5"/>
	<path class="st3" d="M-56,109.2h8c4,0,12,10,12,10"/>
	<path class="st3" d="M-52,119.2v-7c0,0,2,0,4,0s8,7,8,7H-52"/>
	<line class="st3" x1="-52" y1="124.2" x2="-49" y2="124.2"/>
	<line class="st3" x1="-36" y1="124.2" x2="-36" y2="125.2"/>
	<line class="st3" x1="-88" y1="128.2" x2="-81" y2="128.2"/>
	<line class="st3" x1="-72" y1="128.2" x2="-57" y2="128.2"/>
	<line class="st3" x1="-56" y1="109.2" x2="-56" y2="128.2"/>
	<path class="st3" d="M-84,133.2l-5-1v-30c0,0,23,0,30,0c1,0,3,0,10,7"/>
</g>
<g>
	<circle class="st3" cx="-524.7" cy="-233" r="4.5"/>
	<circle class="st3" cx="-492.7" cy="-233" r="4.5"/>
	<line class="st3" x1="-497.5" y1="-232.5" x2="-516.5" y2="-232.5"/>
	<path class="st3" d="M-487.5-232.5c0,0-1,0,1,0c3,0,3-5,3-7c0-1-2-5-15-5h-21c-2,0-4-6-4-6"/>
	<path class="st3" d="M-534.5-233.5c0,0,0-4,0-5c0-2,3.5-4.1,4-6c1-4,2-6,2-6s6-1,17-1c5,0,13,7,13,7"/>
	<line class="st3" x1="-529.5" y1="-232.5" x2="-536.5" y2="-233.5"/>
	<polyline class="st3" points="-515.5,-251.5 -513.5,-244.5 -513.5,-235.5 	"/>
	<line class="st3" x1="-509.5" y1="-240.5" x2="-507.5" y2="-240.5"/>
</g>
<g>
	<circle class="st3" cx="-439.2" cy="-232.5" r="4.5"/>
	<circle class="st3" cx="-400.2" cy="-232.5" r="4.5"/>
	<line class="st3" x1="-405" y1="-232" x2="-431" y2="-232"/>
	<path class="st3" d="M-395-232c0,0-1,0,1,0c3,0,3-5,3-7c0-1-3-5-16-5h-33c-3,0-6-1-6-1"/>
	<path class="st3" d="M-444-232l-5-1c0,0,0-4,0-5c0-2,3-5,3-7s3-6,3-6s11-1,22-1c6,0,15.3,8,15.3,8"/>
	<polyline class="st3" points="-429,-251 -427,-244 -427,-235 	"/>
	<line class="st3" x1="-423" y1="-240" x2="-420" y2="-240"/>
</g>
<g>
	<circle class="st3" cx="-258.8" cy="-140.8" r="4.8"/>
	<circle class="st3" cx="-219.9" cy="-140.8" r="5.1"/>
	<line class="st3" x1="-225" y1="-140.3" x2="-250" y2="-140.3"/>
	<path class="st3" d="M-214-140.3c0,0-1,0,1,0s2-2,2-4s-1-3-1-3v0c0-0.7,0-1,0-2c0-2-4-5-4-5"/>
	<path class="st3" d="M-264-140.3l-5-1c0,0,0-2.5,0-4c0-0.7,1-1,1-1c0-2,0-6,0-8c0-2.4,0.4-5.5,0.7-7.7c0.2-1.3,1.3-2.3,2.7-2.3
		h36.7c4,0,12,10,12,10"/>
	<path class="st3" d="M-232-154.3v-7c0,0,2,0,4,0s8,7,8,7H-232"/>
	<line class="st3" x1="-232" y1="-149.3" x2="-229" y2="-149.3"/>
	<line class="st3" x1="-216" y1="-149.3" x2="-216" y2="-148.3"/>
</g>
<g>
	<circle class="st3" cx="-168.8" cy="-138.3" r="4.8"/>
	<circle class="st3" cx="-129.9" cy="-138.3" r="5.1"/>
	<line class="st3" x1="-135" y1="-137.8" x2="-160" y2="-137.8"/>
	<path class="st3" d="M-124-137.8c0,0-1,0,1,0s2-2,2-4s-1-3-1-3v0c0-0.7,0-1,0-2c0-2-4-5-4-5"/>
	<path class="st3" d="M-174-137.8l-5-1c0,0,0-2.5,0-4c0-0.7,1-1,1-1c0-2,0-8,0-10c0-2.4,0.4-8.5,0.7-10.7c0.2-1.3,1.3-2.3,2.7-2.3
		c0,0,21.7,0,28.7,0c6,0,20,15,20,15"/>
	<path class="st3" d="M-142-151.8v-7c0,0,2,0,4,0c1,0,8,7,8,7H-142"/>
	<line class="st3" x1="-142" y1="-146.8" x2="-139" y2="-146.8"/>
	<line class="st3" x1="-126" y1="-146.8" x2="-126" y2="-145.8"/>
</g>
<g>
	<circle class="st3" cx="-348.8" cy="-140.8" r="4.8"/>
	<circle class="st3" cx="-309.9" cy="-140.8" r="5.1"/>
	<line class="st3" x1="-315" y1="-140.3" x2="-340" y2="-140.3"/>
	<path class="st3" d="M-304-140.3c0,0-1,0,1,0s2-2,2-4s-1-3-1-3s0-0.9,0-2c0-2-3-4-10-5"/>
	<path class="st3" d="M-354-140.3l-5-1c0,0,0-3,0-4c0-0.4,1-1,1-1c0-2,0-6,0-8c0-2.4,0.4-5.5,0.7-7.7c0.2-1.3,1.3-2.3,2.7-2.3h24.7
		c7,0,18,10,18,10"/>
	<path class="st3" d="M-332-154.3v-7c0,0,0,0,2,0c4,0,13,7,13,7H-332"/>
	<line class="st3" x1="-331" y1="-149.3" x2="-328" y2="-149.3"/>
	<line class="st3" x1="-306" y1="-149.3" x2="-306" y2="-148.3"/>
</g>
<g>
	<circle class="st3" cx="-438.8" cy="-140.8" r="4.8"/>
	<circle class="st3" cx="-399.9" cy="-140.8" r="5.1"/>
	<line class="st3" x1="-405" y1="-140.3" x2="-430" y2="-140.3"/>
	<path class="st3" d="M-394-140.3c0,0-1,0,1,0s2-2,2-4s-1-3-1-3s0-0.9,0-2c0-2-3-4-10-5"/>
	<path class="st3" d="M-444-140.3l-5-1c0,0,0-3,0-4c0-0.4,1-1,1-1c0-2,0-2,0-4c0-3,4.8-4.1,6-7c3-7,9-7,9-7h13c7,0,18,10,18,10"/>
	<path class="st3" d="M-425-154.3v-7c0,0,3,0,5,0c4,0,13,7,13,7H-425"/>
	<line class="st3" x1="-422" y1="-149.3" x2="-419" y2="-149.3"/>
	<line class="st3" x1="-396" y1="-149.3" x2="-396" y2="-148.3"/>
</g>
<g>
	<circle class="st3" cx="11.2" cy="-137.3" r="4.8"/>
	<circle class="st3" cx="50.1" cy="-137.3" r="5.1"/>
	<line class="st3" x1="45" y1="-136.8" x2="20" y2="-136.8"/>
	<path class="st3" d="M56-136.8c0,0-1,0,1,0s2-2,2-4s-1-3-1-3v0c0-0.7,0-1,0-2c0-2-4-5-4-5"/>
	<path class="st3" d="M34-160.8h8c4,0,12,10,12,10"/>
	<path class="st3" d="M38-150.8v-7c0,0,2,0,4,0s8,7,8,7H38"/>
	<line class="st3" x1="38" y1="-145.8" x2="41" y2="-145.8"/>
	<line class="st3" x1="54" y1="-145.8" x2="54" y2="-144.8"/>
	<line class="st3" x1="2" y1="-141.8" x2="9" y2="-141.8"/>
	<line class="st3" x1="18" y1="-141.8" x2="33" y2="-141.8"/>
	<line class="st3" x1="34" y1="-160.8" x2="34" y2="-141.8"/>
	<path class="st3" d="M6-136.8l-5-1v-30c0,0,23,0,30,0c1,0,3,0,10,7"/>
</g>
<g>
	<circle class="st3" cx="-436.8" cy="-50.8" r="4.8"/>
	<circle class="st3" cx="-399.9" cy="-50.8" r="5.1"/>
	<line class="st3" x1="-405" y1="-50.3" x2="-428" y2="-50.3"/>
	<path class="st3" d="M-394-50.3c0,0-1,0,1,0s2-2,2-4s-1-3-1-3v0c0-0.7,0-1,0-2c0-2-4-5-4-5"/>
	<path class="st3" d="M-416-74.3h8c4,0,12,10,12,10"/>
	<path class="st3" d="M-412-64.3v-7c0,0,2,0,4,0s8,7,8,7H-412"/>
	<line class="st3" x1="-412" y1="-59.3" x2="-409" y2="-59.3"/>
	<line class="st3" x1="-396" y1="-59.3" x2="-396" y2="-58.3"/>
	<line class="st3" x1="-449" y1="-55.3" x2="-439" y2="-55.3"/>
	<line class="st3" x1="-430" y1="-55.3" x2="-416" y2="-55.3"/>
	<line class="st3" x1="-416" y1="-74.3" x2="-416" y2="-55.3"/>
	<polyline class="st3" points="-449,-55.3 -449,-61.3 -416,-61.3 	"/>
	<polyline class="st3" points="-442,-50.3 -446,-51.3 -446,-55.3 	"/>
</g>
<g>
	<circle class="st3" cx="101.2" cy="-140.8" r="4.8"/>
	<circle class="st3" cx="140.1" cy="-140.8" r="5.1"/>
	<line class="st3" x1="135" y1="-140.3" x2="110" y2="-140.3"/>
	<path class="st3" d="M146-140.3c0,0-1,0,1,0s2-2,2-4s-1-3-1-3v0c0-0.7,0-1,0-2c0-2-4-5-4-5"/>
	<path class="st3" d="M96-140.3l-5-1c0,0,0-2.5,0-4c0-0.7,1-1,1-1c0-2,0-6,0-8c0-2.4,0.4-5.5,0.7-7.7c0.2-1.3,1.3-2.3,2.7-2.3H132
		c4,0,12,10,12,10"/>
	<path class="st3" d="M128-154.3v-7c0,0,2,0,4,0s8,7,8,7H128"/>
	<line class="st3" x1="128" y1="-149.3" x2="131" y2="-149.3"/>
	<line class="st3" x1="121" y1="-149.3" x2="124" y2="-149.3"/>
	<line class="st3" x1="144" y1="-149.3" x2="144" y2="-148.3"/>
	<rect x="113" y="-161.3" class="st3" width="11" height="7"/>
	<path class="st3" d="M98-154.3c2,0,11,0,11,0v-7H99C99-161.3,98-157.3,98-154.3z"/>
</g>
<g>
	<circle class="st3" cx="-346.8" cy="-46.8" r="4.8"/>
	<circle class="st3" cx="-309.9" cy="-46.8" r="5.1"/>
	<line class="st3" x1="-315" y1="-46.3" x2="-338" y2="-46.3"/>
	<path class="st3" d="M-304-46.3c0,0-1,0,1,0s2-2,2-4s-1-3-1-3v0c0-0.7,0-1,0-2c0-2-4-5-4-5"/>
	<path class="st3" d="M-326-70.3h8c4,0,12,10,12,10"/>
	<path class="st3" d="M-322-60.3v-7c0,0,2,0,4,0s8,7,8,7H-322"/>
	<line class="st3" x1="-322" y1="-55.3" x2="-319" y2="-55.3"/>
	<line class="st3" x1="-306" y1="-55.3" x2="-306" y2="-54.3"/>
	<line class="st3" x1="-359" y1="-51.3" x2="-349" y2="-51.3"/>
	<line class="st3" x1="-340" y1="-51.3" x2="-326" y2="-51.3"/>
	<line class="st3" x1="-326" y1="-70.3" x2="-326" y2="-51.3"/>
	<polyline class="st3" points="-359,-51.3 -359,-64.3 -332,-64.3 -332,-78.3 -309,-78.3 -309,-70.3 	"/>
	<polyline class="st3" points="-352,-46.3 -356,-47.3 -356,-51.3 	"/>
	<line class="st3" x1="-309" y1="-70.3" x2="-319" y2="-70.3"/>
</g>
<g>
	<g>
		<circle class="st3" cx="-528.8" cy="-51.8" r="4.8"/>
		<circle class="st3" cx="-490.9" cy="-51.8" r="5.1"/>
		<line class="st3" x1="-496" y1="-51.3" x2="-520" y2="-51.3"/>
		<path class="st3" d="M-512-73.3c0,0,7.8-0.1,9.3,0.1c2.6,0.3,8.7,7.9,8.7,7.9"/>
		<path class="st3" d="M-534-51.3l-5-1c0,0,0-4,0-5c0-2,1-6,1-8h40c6.4,0,15,2,15,4c0,1.1,0,4,0,4s2,1,2,3s0,3-3,3c-2,0-1,0-1,0"/>
		<polyline class="st3" points="-512,-73.3 -512,-67.6 -512,-51.3 		"/>
		<line class="st3" x1="-508" y1="-60.3" x2="-505" y2="-60.3"/>
		<line class="st3" x1="-508" y1="-73.3" x2="-508" y2="-66.3"/>
		<line class="st3" x1="-539" y1="-55.3" x2="-533" y2="-55.3"/>
		<line class="st3" x1="-521" y1="-55.3" x2="-512" y2="-55.3"/>
	</g>
	<line class="st3" x1="-486" y1="-60.3" x2="-486" y2="-59.3"/>
</g>
<g>
	<circle class="st3" cx="-76.5" cy="-140" r="4.1"/>
	<circle class="st3" cx="-39.6" cy="-140" r="4.4"/>
	<line class="st3" x1="-43.9" y1="-139.6" x2="-68" y2="-139.6"/>
	<path class="st3" d="M-34.6-139.6c0,0,0.1,0,1.9,0s1.7-1.7,1.7-3.4c0-1.7-0.9-2.6-0.9-2.6v0c0-0.6,0-0.9,0-1.7
		c0-1.7-3.4-4.3-3.4-4.3"/>
	<path class="st3" d="M-80.9-139.6l-8.1-0.9c0,0,0-2.1,0-3.4c0-0.6,0.9-0.9,0.9-0.9c0-1.7,0-6.8,0-8.5c0-2.1,0.3-7.3,0.6-9.1
		c0.2-1.1,1.1-2,2.3-2c0,0,27.1,0,33,0c5.1,0,17,12.8,17,12.8"/>
	<path class="st3" d="M-49.9-151.6v-6c0,0,1.7,0,3.4,0c0.9,0,6.8,6,6.8,6H-49.9"/>
	<line class="st3" x1="-49.9" y1="-147.3" x2="-47.3" y2="-147.3"/>
	<line class="st3" x1="-35.3" y1="-147.3" x2="-35.3" y2="-146.4"/>
</g>
<g>
	<circle class="st3" cx="-528.8" cy="-140.8" r="4.8"/>
	<circle class="st3" cx="-489.9" cy="-140.8" r="5.1"/>
	<line class="st3" x1="-495" y1="-140.3" x2="-520" y2="-140.3"/>
	<path class="st3" d="M-484-140.3c0,0-1,0,1,0s2-2,2-4s-1-3-1-3v0c0-0.7,0-1,0-2c0-2-4-5-4-5"/>
	<path class="st3" d="M-534-140.3l-5-1c0,0,0-2.5,0-4c0-0.7,1-1,1-1c0-2,0-6,0-8c0-2.4,0.4-5.5,0.7-7.7c0.2-1.3,1.3-2.3,2.7-2.3
		h36.7c4,0,12,10,12,10"/>
	<path class="st3" d="M-502-154.3v-7c0,0,2,0,4,0s8,7,8,7H-502"/>
	<line class="st3" x1="-502" y1="-149.3" x2="-499" y2="-149.3"/>
	<line class="st3" x1="-516" y1="-149.3" x2="-513" y2="-149.3"/>
	<line class="st3" x1="-486" y1="-149.3" x2="-486" y2="-148.3"/>
	<rect x="-516" y="-161.3" class="st3" width="10" height="7"/>
</g>
<g>
	<ellipse transform="matrix(0.7844 -0.6202 0.6202 0.7844 -56.7809 90.646)" class="st1" cx="102" cy="127" rx="10.5" ry="10.5"/>
	<ellipse transform="matrix(0.7844 -0.6202 0.6202 0.7844 -56.7809 90.646)" class="st1" cx="102" cy="127" rx="2.5" ry="2.5"/>
	<circle class="st0" cx="133" cy="107" r="2.5"/>
	<circle class="st0" cx="133" cy="99.5" r="0"/>
	<ellipse transform="matrix(0.7071 -0.7071 0.7071 0.7071 -34.5074 120.0781)" class="st0" cx="127.7" cy="101.7" rx="0" ry="0"/>
	<circle class="st0" cx="125.5" cy="107" r="0"/>
	<ellipse transform="matrix(0.7071 -0.7071 0.7071 0.7071 -42.0124 123.1868)" class="st0" cx="127.7" cy="112.3" rx="0" ry="0"/>
	<circle class="st0" cx="133" cy="114.5" r="0"/>
	<ellipse transform="matrix(0.7071 -0.7071 0.7071 0.7071 -38.9037 130.6918)" class="st0" cx="138.3" cy="112.3" rx="0" ry="0"/>
	<circle class="st0" cx="140.5" cy="107" r="0"/>
	<ellipse transform="matrix(0.7071 -0.7071 0.7071 0.7071 -31.3987 127.5831)" class="st0" cx="138.3" cy="101.7" rx="0" ry="0"/>
	<circle class="st0" cx="133" cy="107" r="11.5"/>
	<path class="st1" d="M107.9,129.7c-0.4,0.9-1,1.7-1.9,2.4"/>
	<path class="st1" d="M96.9,131c-2.2-2.8-1.7-6.9,1.1-9.1c2.8-2.2,6.9-1.7,9.1,1.1c0.8,1,1.2,2.1,1.4,3.3"/>
	<circle class="st0" cx="142.5" cy="142.5" r="6"/>
	<line class="st0" x1="121.5" y1="96.5" x2="94.5" y2="119.5"/>
	<line class="st0" x1="148.5" y1="106.5" x2="148.5" y2="142.5"/>
	<line class="st0" x1="100.5" y1="137.5" x2="141.5" y2="148.5"/>
	<line class="st0" x1="142.5" y1="142.5" x2="142.5" y2="142.5"/>
	<circle class="st0" cx="133" cy="107" r="15.5"/>
	<path class="st0" d="M100.3,137.4c-5-0.8-8.8-5.2-8.8-10.4c0-3,1.3-5.7,3.3-7.6"/>
</g>
<g>
	<polygon class="st0" points="-484.5,231.5 -481.5,231.5 -481.5,201.5 -484.5,201.5 -488.5,212.5 -488.5,225.5 	"/>
	<rect x="-534.5" y="206.5" class="st0" width="5" height="18"/>
	<line class="st0" x1="-538.5" y1="221.5" x2="-538.5" y2="209.5"/>
	<line class="st0" x1="-538.5" y1="215.5" x2="-535.5" y2="215.5"/>
	<line class="st0" x1="-488.5" y1="225.5" x2="-493.5" y2="225.5"/>
	<line class="st0" x1="-488.5" y1="212.5" x2="-493.5" y2="212.5"/>
	<polygon class="st0" points="-529.5,200.5 -529.5,224.5 -524.5,231.5 -497.5,231.5 -493.5,225.5 -493.5,212.5 -496.5,206.5 
		-500.5,206.5 -500.5,200.5 	"/>
	<polyline class="st0" points="-511.5,195.5 -504.5,195.5 -504.5,188.5 -524.5,188.5 -524.5,195.5 -517.5,195.5 	"/>
	<line class="st0" x1="-519.5" y1="195.5" x2="-519.5" y2="200.5"/>
	<line class="st0" x1="-509.5" y1="195.5" x2="-509.5" y2="200.5"/>
	<line class="st0" x1="-500.5" y1="206.5" x2="-500.5" y2="212.5"/>
	<line class="st0" x1="-500.5" y1="216.5" x2="-500.5" y2="219.5"/>
	<polyline class="st1" points="-517.5,206.5 -510.5,206.5 -513.5,213.5 -507.5,213.5 -516.5,226.5 -514.5,216.5 -521.5,216.5 
		-518.7,209.5 	"/>
</g>
<g>
	<circle class="st0" cx="30" cy="120" r="28.5"/>
	<circle class="st0" cx="30" cy="120" r="22.5"/>
	<path class="st0" d="M34.5,138c-1.4,0.4-2.9,0.5-4.5,0.5c-1.5,0-3.1-0.2-4.5-0.5"/>
	<path class="st0" d="M46.7,112c1.2,2.4,1.8,5.1,1.8,8c0,0.9-0.1,1.7-0.2,2.6"/>
	<path class="st0" d="M52.3,122.7c-0.8-0.1-1.5-0.2-2.3-0.2c-8.6,0-15.5,6.9-15.5,15.5c0,1.4,0.2,2.7,0.5,3.9"/>
	<path class="st0" d="M25,141.9c0.3-1.3,0.5-2.6,0.5-3.9c0-8.6-6.9-15.5-15.5-15.5c-0.8,0-1.6,0.1-2.3,0.2"/>
	<path class="st0" d="M8.3,113.9c6.3-2.8,13.7-4.4,21.7-4.4s15.4,1.6,21.7,4.4"/>
	<circle class="st1" cx="30" cy="120" r="4.5"/>
	<path class="st0" d="M11.7,122.5c-0.1-0.8-0.2-1.6-0.2-2.5c0-2.9,0.6-5.6,1.8-8"/>
</g>
<g>
	<g>
		<circle class="st3" cx="-439.2" cy="229" r="4.5"/>
		<circle class="st3" cx="-400.2" cy="229" r="4.5"/>
		<line class="st3" x1="-405" y1="229.5" x2="-431" y2="229.5"/>
		<path class="st3" d="M-395,229.5c0,0-1,0,1,0c3,0,3-5,3-7c0-1-3-5-16-5h-33c-3,0-7-1-7-1"/>
		<path class="st3" d="M-444,229.5l-5-1c0,0,0-4,0-5c0-2,2-5,2-7s4-7,4-7s12,0,23,0c6,0,14.3,8,14.3,8"/>
		<polyline class="st3" points="-423,210.5 -421,217.5 -421,226.5 		"/>
		<line class="st3" x1="-417" y1="221.5" x2="-415" y2="221.5"/>
		<line class="st3" x1="-431.5" y1="221.5" x2="-429.5" y2="221.5"/>
		<line class="st3" x1="-435" y1="210.5" x2="-436" y2="217.5"/>
		<line class="st3" x1="-436" y1="217.5" x2="-436" y2="221.5"/>
	</g>
	<circle class="st1" cx="-441.3" cy="199.7" r="4.8"/>
	<circle class="st1" cx="-422.3" cy="199.7" r="4.8"/>
	<line class="st1" x1="-441.3" y1="199.7" x2="-433" y2="199.7"/>
	<line class="st1" x1="-435.4" y1="192.6" x2="-441.3" y2="199.7"/>
	<line class="st1" x1="-433" y1="199.7" x2="-436.6" y2="189"/>
	<line class="st1" x1="-422.3" y1="199.7" x2="-425.8" y2="187.8"/>
	<line class="st1" x1="-433" y1="199.7" x2="-425.8" y2="191.4"/>
	<line class="st1" x1="-435.4" y1="192.6" x2="-425.8" y2="191.4"/>
	<line class="st1" x1="-440.1" y1="187.8" x2="-434.2" y2="189"/>
	<line class="st1" x1="-425.8" y1="187.8" x2="-423.5" y2="186.5"/>
	<line class="st3" x1="-422" y1="207.5" x2="-422" y2="209.5"/>
	<line class="st3" x1="-441" y1="207.5" x2="-441" y2="209.5"/>
</g>
<g>
	<path class="st0" d="M-347.5,230.5v5c0,1.1-0.9,2-2,2h-4c-1.1,0-2-0.9-2-2v-5"/>
	<line class="st0" x1="-350.5" y1="230.5" x2="-332.1" y2="230.5"/>
	<path class="st0" d="M-355.5,230.5c-1.7,0-3-1.3-3-3V219c0-1.9,0.2-3.9,0.6-5.8l5.3-25.5c0.6-3.1,3.4-5.3,6.5-5.3h15.6"/>
	<path class="st0" d="M-304,208.9l-4.4-21.1c-0.6-3.1-3.4-5.3-6.5-5.3h-15.6"/>
	<line class="st0" x1="-358.5" y1="202.5" x2="-356.5" y2="202.5"/>
	<line class="st0" x1="-304.5" y1="202.5" x2="-302.5" y2="202.5"/>
	<path class="st0" d="M-332.5,216.5c-3,0-8-1-8-1l1.2,4.3c0.5,1.6,1.9,2.7,3.6,2.7h2.2"/>
	<circle class="st0" cx="-339" cy="199" r="2.5"/>
	<path class="st0" d="M-325,205.5c0-2.2,1.8-4,4-4s4,1.8,4,4"/>
	<path class="st0" d="M-343,205.5c0-2.2,1.8-4,4-4s4,1.8,4,4"/>
	<circle class="st0" cx="-321" cy="199" r="2.5"/>
	<circle class="st1" cx="-315.5" cy="223.5" r="14"/>
	<g>
		<line class="st1" x1="-315.5" y1="227.5" x2="-315.5" y2="224.5"/>
		<line class="st1" x1="-315.5" y1="231.5" x2="-315.5" y2="231.5"/>
		<path class="st1" d="M-315.5,216.5c2.2,0,4,1.8,4,4s-1.8,4-4,4"/>
		<path class="st1" d="M-318.7,218.1c0.7-0.9,1.9-1.6,3.2-1.6"/>
	</g>
	<path class="st0" d="M-357.5,211.5c0,0,2,2,10,3v1.7c0,1.3-1,2.3-2.3,2.3h-7.7"/>
	<path class="st0" d="M-310.5,205.5h-40l2.4-12c0.3-1.7,1.9-3,3.6-3h28c1.8,0,3.3,1.2,3.6,3L-310.5,205.5z"/>
	<line class="st0" x1="-333.5" y1="226.5" x2="-354.5" y2="226.5"/>
	<line class="st0" x1="-332.5" y1="193.5" x2="-327.5" y2="193.5"/>
</g>
<g>
	<path class="st0" d="M-435.5,316v5c0,1.1-0.9,2-2,2h-6c-1.1,0-2-0.9-2-2v-5"/>
	<path class="st0" d="M-392.2,298c-0.4-1-0.9-1.9-1.6-2.8l-2.7-3.2"/>
	<line class="st0" x1="-439.5" y1="316" x2="-419.1" y2="316"/>
	<path class="st0" d="M-443.5,292l-2.7,3.2c-1.5,1.8-2.3,4.1-2.3,6.4V313c0,1.7,1.3,3,3,3"/>
	<path class="st0" d="M-396.5,292l-4.7-12.3c-1.1-2.8-3.6-4.8-6.5-5.2c-2.3-0.3-7.6-0.6-12.3-0.6s-10,0.2-12.3,0.6
		c-3,0.4-5.5,2.4-6.5,5.2l-4.7,12.3"/>
	<path class="st0" d="M-401.1,292l-3.6-9.5c-0.8-2.2-2.8-3.7-5.1-4c-1.8-0.2-6.5-0.4-10.2-0.4s-8.4,0.2-10.2,0.4
		c-2.3,0.3-4.2,1.8-5.1,4l-3.6,9.5H-401.1z"/>
	<circle class="st0" cx="-439.5" cy="301.5" r="3"/>
	<line class="st0" x1="-396.5" y1="292" x2="-391.5" y2="292"/>
	<line class="st0" x1="-448.5" y1="292" x2="-443.5" y2="292"/>
	<polyline class="st0" points="-419.5,305 -430.5,305 -430.5,311 -419.5,311 	"/>
	<circle class="st0" cx="-427" cy="284.5" r="2.5"/>
	<path class="st0" d="M-417,291c0-2.2,1.8-4,4-4s4,1.8,4,4"/>
	<path class="st0" d="M-431,291c0-2.2,1.8-4,4-4s4,1.8,4,4"/>
	<circle class="st0" cx="-413" cy="284.5" r="2.5"/>
	<g>
		<g>
			<g>
				<path class="st1" d="M-415.5,303.1v7.6c0,3.5,1.2,6.8,3.5,9.8c2.3,2.9,5.1,4.8,8.5,5.6c3.4-0.8,6.2-2.7,8.5-5.6
					c2.3-2.9,3.5-6.2,3.5-9.8v-7.6l-12-5.1L-415.5,303.1z"/>
			</g>
		</g>
	</g>
	<line class="st1" x1="-405.5" y1="318" x2="-401.5" y2="318"/>
	<polyline class="st1" points="-403.5,318 -403.5,310 -405.5,310 	"/>
	<line class="st1" x1="-403.5" y1="306" x2="-403.5" y2="306"/>
</g>
<g>
	<path class="st1" d="M48.8,200.3L34.6,186c-1.8-1.8-4.7-1.8-6.5,0c0,0,0,0,0,0L2.8,211.2c-1.8,1.8-1.8,4.7,0,6.5c0,0,0,0,0,0
		l7.7,7.7"/>
	<path class="st0" d="M17.4,204.2h38.1c1.6,0,2.9,1.3,2.9,2.9v25.2c0,1.6-1.3,2.9-2.9,2.9H17.4c-1.6,0-2.9-1.3-2.9-2.9v-25.2
		C14.5,205.5,15.8,204.2,17.4,204.2z"/>
	<line class="st0" x1="14.5" y1="210.8" x2="58.5" y2="210.8"/>
	<line class="st0" x1="14.5" y1="217.1" x2="58.5" y2="217.1"/>
	<line class="st0" x1="20.9" y1="223.5" x2="29.5" y2="223.5"/>
	<line class="st0" x1="20.9" y1="229.8" x2="26.3" y2="229.8"/>
	<line class="st0" x1="33.8" y1="223.5" x2="39.2" y2="223.5"/>
	<line class="st1" x1="36.5" y1="188.1" x2="24" y2="200.6"/>
	<line class="st1" x1="11" y1="213.6" x2="5.5" y2="219.1"/>
	<line class="st1" x1="40.5" y1="192.1" x2="32" y2="200.6"/>
	<line class="st1" x1="10.5" y1="222.1" x2="9" y2="223.6"/>
</g>
<g>
	<path class="st0" d="M-345.9,271.6c-1.1,0-2.2,0.2-3.3,0.4l5.8,5.8l-0.1,8.7l-8.7,0.1l-5.8-5.8c-0.3,1-0.4,2.1-0.4,3.3
		c0,6.9,5.6,12.5,12.5,12.5s12.5-5.6,12.5-12.5S-339,271.6-345.9,271.6z"/>
	<g>
		<path class="st0" d="M-334.4,289.6l31.5,31.5c1.7,1.7,1.7,4.3,0,6l0,0c-1.7,1.7-4.3,1.7-6,0l-31.5-31.5"/>
	</g>
	<line class="st0" x1="-306.3" y1="323.6" x2="-306.3" y2="323.6"/>
	<path class="st1" d="M-329.8,288.6c6.4,0,11.5,5.1,11.5,11.5"/>
	<path class="st1" d="M-329.8,311.6c-6.4,0-11.5-5.1-11.5-11.5"/>
	<path class="st1" d="M-310.9,308c0.5-1.2,0.9-2.5,1.2-3.8l4.4-0.8v-6.5l-4.4-0.8c-0.5-2.6-1.6-5.1-3-7.2l2.6-3.7l-4.6-4.6l-3.7,2.6
		c-2.2-1.4-4.6-2.5-7.2-3l-0.8-4.4h-5.5"/>
	<path class="st1" d="M-354.3,297.8v5.5l4.4,0.8c0.5,2.6,1.6,5.1,3,7.2l-2.6,3.7l4.6,4.6l3.7-2.6c2.2,1.4,4.6,2.5,7.2,3l0.8,4.4h6.5
		l0.8-4.4c1.2-0.2,2.4-0.6,3.5-1.1"/>
</g>
<g>
	<g>
		<circle class="st3" cx="117.1" cy="225" r="6"/>
		<path class="st3" d="M117.1,222.5c1.4,0,2.5,1.1,2.5,2.5c0,1.4-1.1,2.5-2.5,2.5c-1.4,0-2.5-1.1-2.5-2.5"/>
		<line class="st3" x1="110.7" y1="225.6" x2="91.6" y2="225.6"/>
		<path class="st3" d="M124.2,225.6c0,0-1.3,0,1.3,0c4,0,4-6.7,4-9.4c0-1.3-2.7-6.7-20.2-6.7H91.6"/>
		<path class="st3" d="M91.4,198.6c6.7,0,15.6,10.8,15.6,10.8"/>
		<line class="st3" x1="91.8" y1="214.8" x2="95.8" y2="214.8"/>
	</g>
	<line class="st3" x1="91.6" y1="222" x2="111.6" y2="222"/>
	<line class="st3" x1="122.6" y1="222" x2="128.6" y2="222"/>
	<path class="st3" d="M126.6,213h-3.5c-0.8,0-1.5,0.7-1.5,1.5l0,0c0,0.8,0.7,1.5,1.5,1.5h6.5"/>
	<path class="st3" d="M126.6,195c-1.1-0.7-7.2-1.3-16.4,13.7"/>
	<line class="st3" x1="101.6" y1="204" x2="99.6" y2="209"/>
	<circle class="st1" cx="146.1" cy="191.5" r="2.5"/>
	<path class="st1" d="M135.2,208.6c1,2,3,3.4,5.4,3.4c3.3,0,6-2.7,6-6s-2.7-6-6-6c-2.6,0-4.9,1.7-5.7,4"/>
	<path class="st1" d="M141.6,200.1C141.6,200,141.6,200,141.6,200.1c0-3.4-2.7-6.1-6-6.1s-6,2.7-6,6c0,1.4,0.5,2.7,1.3,3.7
		c-1.3,0.5-2.3,1.8-2.3,3.3c0,1.9,1.6,3.5,3.5,3.5c1.4,0,2.5-0.8,3.1-1.9c1,2,3,3.4,5.4,3.4c3.3,0,6-2.7,6-6
		C146.6,203,144.4,200.6,141.6,200.1z"/>
</g>
<g>
	<path class="st0" d="M-153.3,191.5c0-1.8,1.5-3.2,3.2-3.2c1.8,0,3.2,1.5,3.2,3.2"/>
	<path class="st0" d="M-146.8,206.9c0-1.8,1.5-3.2,3.2-3.2s3.2,1.5,3.2,3.2"/>
	<path class="st0" d="M-158.5,211.3c0-2.9,2.3-5.2,5.2-5.2"/>
	<path class="st0" d="M-140.4,208.3c0-1.8,1.5-3.2,3.2-3.2s3.2,1.5,3.2,3.2"/>
	<path class="st0" d="M-133.9,210.9c0-1.8,1.5-3.2,3.2-3.2s3.2,1.5,3.2,3.2"/>
	<line class="st0" x1="-153.3" y1="191.5" x2="-153.3" y2="215.4"/>
	<line class="st0" x1="-146.8" y1="191.5" x2="-146.8" y2="210.3"/>
	<line class="st0" x1="-140.4" y1="206.9" x2="-140.4" y2="210.3"/>
	<line class="st0" x1="-133.9" y1="208.3" x2="-133.9" y2="212.2"/>
	<path class="st0" d="M-158.5,219.9c0,8.6,7,15.6,15.6,15.6s15.6-7,15.6-15.6"/>
	<path class="st0" d="M-127.4,215.9c0,2.8,0,3.7,0,3.7S-127.4,218.7-127.4,215.9s0-5,0-5S-127.4,213.1-127.4,215.9z"/>
	<line class="st0" x1="-158.5" y1="211.3" x2="-158.5" y2="220.1"/>
	<circle class="st1" cx="-171" cy="192" r="7.5"/>
	<circle class="st1" cx="-129" cy="192" r="7.5"/>
	<path class="st1" d="M-156.9,194.9c-0.4-0.9-0.6-1.9-0.6-2.9c0-1,0.2-2,0.6-2.9c0.4-0.9,0.9-1.7,1.6-2.4s1.5-1.2,2.4-1.6
		c0.9-0.4,1.9-0.6,2.9-0.6s2,0.2,2.9,0.6c0.9,0.4,1.7,0.9,2.4,1.6s1.2,1.5,1.6,2.4c0.4,0.9,0.6,1.9,0.6,2.9c0,1-0.2,2-0.6,2.9"/>
</g>
<g>
	<polyline class="st0" points="-65.5,216.2 -65.5,238.2 -84.5,225.2 -84.5,217.2 	"/>
	<polygon class="st0" points="-69.5,227.2 -88.5,214.2 -84.5,203.2 -65.5,216.2 	"/>
	<polyline class="st0" points="-35.5,216.2 -35.5,225.2 -65.5,238.2 -65.5,216.2 	"/>
	<polygon class="st0" points="-31.5,214.2 -61.5,227.2 -65.5,216.2 -35.5,203.2 	"/>
	<path class="st1" d="M-65.4,211.2c0.8-7.9,6-16.2,12.4-19.3c6.7-3.2,12.1,0.6,12.5,8.4"/>
	<path class="st1" d="M-58.7,208.2c0.6-3.4,2.9-6.8,5.7-8.1c2.9-1.4,5.3,0.1,5.7,3.2"/>
	<line class="st1" x1="-58.1" y1="183.1" x2="-45.5" y2="191.1"/>
	<g>
		<polyline class="st1" points="-64.7,182.5 -63,185.4 -59.7,185.7 -58,188.6 -54.6,188.9 -52.9,191.8 		"/>
	</g>
	<g>
		<polyline class="st1" points="-76.7,196.5 -75,199.4 -71.7,199.7 -70,202.6 -66.6,202.9 -64.9,205.8 		"/>
	</g>
	<g>
		<polyline class="st1" points="-72.7,187.5 -71,190.4 -67.7,190.7 -66,193.6 -62.6,193.9 -60.9,196.8 		"/>
	</g>
	<path class="st1" d="M-79,202c0.7-7.8,5.9-16,12.2-19c3.4-1.6,6.4-1.4,8.7,0.2"/>
</g>
<g>
	<path class="st0" d="M-215.5,278.9h-34"/>
	<path class="st0" d="M-249.1,278.9h-15.4c-2.2,0-4,1.8-4,4v43.9h57v-43.9c0-2.2-1.8-4-4-4l0,0"/>
	<line class="st0" x1="-268.5" y1="321.2" x2="-211.5" y2="321.2"/>
	<path class="st0" d="M-260.5,278.9c0-3.1,2.6-5.7,5.7-5.7c3.1,0,5.7,2.6,5.7,5.7c0,3.1-2.6,5.7-5.7,5.7"/>
	<path class="st0" d="M-230.9,278.9c0-3.1,2.6-5.7,5.7-5.7c3.1,0,5.7,2.6,5.7,5.7c0,3.1-2.6,5.7-5.7,5.7"/>
	<circle class="st1" cx="-240" cy="294.4" r="2.3"/>
	<circle class="st1" cx="-230.9" cy="294.4" r="2.3"/>
	<circle class="st1" cx="-221.8" cy="294.4" r="2.3"/>
	<circle class="st1" cx="-240" cy="303.6" r="2.3"/>
	<circle class="st1" cx="-230.9" cy="303.6" r="2.3"/>
	<circle class="st1" cx="-221.8" cy="303.6" r="2.3"/>
	<circle class="st1" cx="-258.2" cy="303.6" r="2.3"/>
	<circle class="st1" cx="-249.1" cy="303.6" r="2.3"/>
	<circle class="st1" cx="-240" cy="312.7" r="2.3"/>
	<circle class="st1" cx="-230.9" cy="312.7" r="2.3"/>
	<circle class="st1" cx="-258.2" cy="312.7" r="2.3"/>
	<circle class="st1" cx="-249.1" cy="312.7" r="2.3"/>
	<line class="st1" x1="-223.5" y1="310.5" x2="-219.5" y2="314.5"/>
	<line class="st1" x1="-219.5" y1="310.5" x2="-223.5" y2="314.5"/>
</g>
<g>
	<path class="st0" d="M-242.6,207.8c1.1-0.5,1.9-1.5,2.1-2.7c1.4-6.3,1.6-12.8,0.8-19.2c-0.2-1.8-1.5-3.2-3.2-3.5
		c-7.4-1.5-15-1.5-22.4,0c-1.7,0.3-2.9,1.7-3.2,3.4c-1.1,6.5-0.8,13.1,0.9,19.5c0.3,1.1,1,2,2.1,2.5c0,0,4.4,2.2,11.3,2.2
		S-242.6,207.8-242.6,207.8z"/>
	<path class="st0" d="M-259.1,210l-0.1,23.7l5,5l5.2-5l0-23.7"/>
	<circle class="st0" cx="-254.1" cy="191.1" r="3"/>
	<line class="st0" x1="-255.1" y1="231.1" x2="-255.1" y2="210.1"/>
	<path class="st1" d="M-235.8,190.2l17,17c1.6,1.6,1.6,4.1,0,5.7l-10.1,10.1c-1.5,1.5-4,1.6-5.5,0.1l-10-10.2"/>
	<path class="st1" d="M-216.6,205c2.8,2.8,2.8,7.3,0,10.1"/>
	<path class="st1" d="M-214.1,202.5c4.2,4.2,4.2,10.9,0,15.1"/>
	
		<rect x="-232.7" y="210.1" transform="matrix(0.7071 -0.7071 0.7071 0.7071 -217.0358 -99.9973)" class="st1" width="6.9" height="3.8"/>
	<path class="st1" d="M-234.5,210.3c-1-1-1-2.6,0-3.5c1-1,2.6-1,3.5,0"/>
	<line class="st1" x1="-234.5" y1="210.3" x2="-233" y2="211.7"/>
	<line class="st1" x1="-231.3" y1="195.7" x2="-235.3" y2="199.7"/>
</g>
<g>
	<line class="st0" x1="-538" y1="304" x2="-532" y2="304"/>
	<line class="st0" x1="-534.6" y1="317.8" x2="-532.8" y2="316.8"/>
	<line class="st0" x1="-486.9" y1="318.7" x2="-488.7" y2="317.7"/>
	<line class="st0" x1="-483" y1="305" x2="-489" y2="305"/>
	<line class="st0" x1="-486.4" y1="291.2" x2="-488.2" y2="292.2"/>
	<line class="st0" x1="-510" y1="277" x2="-510" y2="283"/>
	<line class="st0" x1="-523.8" y1="280.4" x2="-522.8" y2="282.2"/>
	<line class="st0" x1="-534.1" y1="290.3" x2="-532.3" y2="291.3"/>
	<path class="st1" d="M-498.1,284L-498.1,284c-0.6-0.4-1.4-0.2-1.8,0.3l-13.9,16.7c-2,2.4-1.3,6,1.5,7.6h0c2.8,1.6,6.3,0.4,7.4-2.5
		l7.5-20.4C-497.2,285-497.5,284.3-498.1,284z"/>
	<g>
		<path class="st0" d="M-482,304c0-15.5-12.5-28-28-28s-28,12.5-28,28c0,7.8,3.2,14.9,8.4,20h39.2C-485.2,318.9-482,311.8-482,304z"
			/>
	</g>
	<line class="st0" x1="-520" y1="315" x2="-520" y2="318"/>
	<line class="st0" x1="-515" y1="315" x2="-515" y2="318"/>
	<line class="st0" x1="-510" y1="315" x2="-510" y2="318"/>
	<line class="st0" x1="-505" y1="315" x2="-505" y2="318"/>
	<line class="st0" x1="-500" y1="317" x2="-500" y2="318"/>
</g>
</svg>
