<?xml version="1.0" encoding="utf-8"?>
<!-- Generator: Adobe Illustrator 21.1.0, SVG Export Plug-In . SVG Version: 6.00 Build 0)  -->
<svg version="1.1" id="Layer_1" xmlns="http://www.w3.org/2000/svg" xmlns:xlink="http://www.w3.org/1999/xlink" x="0px" y="0px"
	 viewBox="0 0 55 50" style="enable-background:new 0 0 55 50;" xml:space="preserve">
<style type="text/css">
	.st0{fill:none;stroke:#33414E;stroke-width:1.8333;stroke-linecap:round;stroke-linejoin:round;}
	.st1{fill:none;stroke:#BA0C2F;stroke-width:1.8333;stroke-linecap:round;stroke-linejoin:round;}
</style>
<g>
	<circle class="st0" cx="9.8" cy="18.9" r="4.1"/>
	<circle class="st0" cx="45.5" cy="18.9" r="4.1"/>
	<line class="st0" x1="41.2" y1="19.3" x2="17.3" y2="19.3"/>
	<path class="st0" d="M50.3,19.3c0,0-0.9,0,0.9,0c2.8,0,2.8-4.6,2.8-6.4c0-0.9-2.8-4.6-14.7-4.6H13.7c-4.6,0-9.2-6.4-9.2-6.4"/>
	<path class="st0" d="M5.4,19.3l-4.6-0.9c0,0,0-3.7,0-4.6c0-1.8,2.8-5.5,2.8-7.3h5.5c0,0,4.6-5.5,15.6-5.5c8.3,0,16.8,7.3,16.8,7.3"
		/>
	<polyline class="st0" points="21.9,5.6 23.8,8.3 23.8,16.6 	"/>
	<line class="st0" x1="27.4" y1="12" x2="30.2" y2="12"/>
</g>
<g>
	<circle class="st1" cx="9.8" cy="42.9" r="4.1"/>
	<circle class="st1" cx="45.5" cy="42.9" r="4.1"/>
	<line class="st1" x1="41.2" y1="43.3" x2="17.3" y2="43.3"/>
	<path class="st1" d="M50.3,43.3c0,0-0.9,0,0.9,0c2.8,0,2.8-4.6,2.8-6.4c0-0.9-2.8-4.6-14.7-4.6H13.7c-4.6,0-9.2-6.4-9.2-6.4"/>
	<path class="st1" d="M5.4,43.3l-4.6-0.9c0,0,0-3.7,0-4.6c0-1.8,2.8-5.5,2.8-7.3h5.5c0,0,4.6-5.5,15.6-5.5c8.3,0,16.8,7.3,16.8,7.3"
		/>
	<polyline class="st1" points="21.9,29.6 23.8,32.3 23.8,40.6 	"/>
	<line class="st1" x1="27.4" y1="36" x2="30.2" y2="36"/>
</g>
</svg>
