<?xml version="1.0" encoding="utf-8"?>
<!-- Generator: Adobe Illustrator 21.1.0, SVG Export Plug-In . SVG Version: 6.00 Build 0)  -->
<svg version="1.1" id="Layer_1" xmlns="http://www.w3.org/2000/svg" xmlns:xlink="http://www.w3.org/1999/xlink" x="0px" y="0px"
	 viewBox="0 0 60 26" style="enable-background:new 0 0 60 26;" xml:space="preserve">
<style type="text/css">
	.st0{fill:none;stroke:#000000;stroke-width:2;stroke-linecap:round;stroke-linejoin:round;stroke-miterlimit:10;}
	.st1{fill:none;stroke:#BA0C2F;stroke-width:2;stroke-linecap:round;stroke-linejoin:round;stroke-miterlimit:10;}
	.st2{fill:#BA0C2F;}
	.st3{fill:none;stroke:#000000;stroke-width:2;stroke-linecap:round;stroke-linejoin:round;}
</style>
<g>
	<path class="st0" d="M8,186.4c0-12.2,9.8-22,22-22s22,9.8,22,22"/>
	<path class="st0" d="M52.3,203.4c0,8.8-7.2,16-16,16"/>
	<rect x="49.5" y="186.9" class="st0" width="5" height="15.5"/>
	<rect x="5.5" y="186.9" class="st0" width="5" height="15.5"/>
	<path class="st0" d="M33.3,221.6h-6.5c-1.2,0-2.2-1-2.2-2.3l0,0c0-1.2,1-2.3,2.2-2.3h6.5c1.2,0,2.2,1,2.2,2.3l0,0
		C35.5,220.6,34.5,221.6,33.3,221.6z"/>
	<path class="st1" d="M21.3,202.4c0,4.8,3.9,8.8,8.8,8.8s8.7-3.9,8.7-8.8H21.3z"/>
	<path class="st0" d="M54.5,198.6c2.2,0,4-1.8,4-4s-1.8-4-4-4V198.6z"/>
	<path class="st0" d="M5.5,190.6c-2.2,0-4,1.8-4,4s1.8,4,4,4V190.6z"/>
	<path class="st1" d="M26.5,195.4c0-1.7-1.3-3-3-3c-1.7,0-3,1.3-3,3"/>
	<path class="st1" d="M39.5,195.4c0-1.7-1.3-3-3-3c-1.7,0-3,1.3-3,3"/>
	<path class="st1" d="M14.5,188.4c5,0,11-8,8-17c3,9,8,18,23,16"/>
</g>
<g>
	<path class="st0" d="M105.5,204.5v-38c0-1.1,0.9-2,2-2h39c1.1,0,2,0.9,2,2v46c0,5-4,9-9,9h-39c-5,0-9-4-9-9v-2c0-1.1,0.9-2,2-2h39
		c1.1,0,2,0.9,2,2v1c0,5,5,6,5,6"/>
	<line class="st1" x1="122.5" y1="174.5" x2="141.5" y2="174.5"/>
	<line class="st1" x1="112.5" y1="174.5" x2="116.5" y2="174.5"/>
	<line class="st1" x1="137.5" y1="185.5" x2="141.5" y2="185.5"/>
	<line class="st1" x1="112.5" y1="185.5" x2="131.5" y2="185.5"/>
	<line class="st1" x1="127.5" y1="196.5" x2="141.5" y2="196.5"/>
	<line class="st1" x1="112.5" y1="196.5" x2="121.5" y2="196.5"/>
	<circle class="st1" cx="119.5" cy="174.5" r="3"/>
	<circle class="st1" cx="134.5" cy="185.5" r="3"/>
	<circle class="st1" cx="124.5" cy="196.5" r="3"/>
</g>
<g>
	<path class="st0" d="M314.5,269.5c-0.6-0.4-1.2-0.7-1.8-1"/>
	<path class="st0" d="M323.4,279.5c-0.7-1.8-1.7-3.5-2.9-5"/>
	<path class="st0" d="M316.5,300.2c3.2-2.3,5.6-5.3,6.9-8.7"/>
	<path class="st0" d="M287.8,303.2c3.5,1.5,7.5,2.3,11.7,2.3c4.5,0,8.8-1,12.5-2.7"/>
	<path class="st0" d="M286.3,268.5c-7.1,3.5-11.8,9.8-11.8,17c0,6.2,3.5,11.7,9,15.4"/>
	<path class="st1" d="M309,272.3c-2.8-1.3-6-2-9.5-2s-6.7,0.7-9.5,2"/>
	<polyline class="st0" points="323.5,279.5 328.5,279.5 328.5,291.5 323.5,291.5 	"/>
	<path class="st0" d="M274.5,285.5L274.5,285.5c-1.7,0-3-1.3-3-3v-4"/>
	<path class="st1" d="M293.2,271.1c-2-1.7-3.2-4.3-3.2-7.1c0-5.2,4.3-9.5,9.5-9.5s9.5,4.3,9.5,9.5c0,2.9-1.3,5.4-3.2,7.1"/>
	<polyline class="st0" points="283.5,300.9 283.5,311.5 290.5,311.5 291.1,304.3 	"/>
	<polyline class="st0" points="308.9,304 309.5,311.5 316.5,311.5 316.5,300.2 	"/>
	<polyline class="st0" points="314.5,269.5 321,266 320.5,274.5 	"/>
	<path class="st0" d="M313,279.1c0-1.4,1.1-2.5,2.5-2.5s2.5,1.1,2.5,2.5"/>
	<path class="st1" d="M297.5,261.5c0-1.1,0.9-2,2-2"/>
	<line class="st1" x1="297.5" y1="261.5" x2="297.5" y2="266.5"/>
	<line class="st1" x1="296.5" y1="266.5" x2="301.5" y2="266.5"/>
	<line class="st1" x1="297.5" y1="262.5" x2="299.5" y2="262.5"/>
</g>
<g>
	<path class="st1" d="M-46.5,203c0-1.1,0.9-2,2-2"/>
	<line class="st1" x1="-46.5" y1="203" x2="-46.5" y2="208"/>
	<line class="st1" x1="-47.5" y1="208" x2="-42.5" y2="208"/>
	<line class="st1" x1="-46.5" y1="204" x2="-44.5" y2="204"/>
	<g>
		<path class="st1" d="M-45.5,219c-3.9,0-7.4-1.6-9.9-4.1c-2.5-2.5-4.1-6-4.1-9.9s1.6-7.4,4.1-9.9"/>
		<path class="st1" d="M-45.5,191c3.9,0,7.4,1.6,9.9,4.1c2.5,2.5,4.1,6,4.1,9.9s-1.6,7.4-4.1,9.9"/>
		<polyline class="st1" points="-59.5,194 -53.6,194 -53.6,199.9 		"/>
		<polyline class="st1" points="-31.5,216 -37.4,216 -37.4,210.1 		"/>
	</g>
	<path class="st0" d="M-75.5,209v5c0,1.1-0.9,2-2,2h-6c-1.1,0-2-0.9-2-2v-5"/>
	<path class="st0" d="M-31.5,194.6c0-2.3-0.8-4.6-2.3-6.4l-2.7-3.2"/>
	<line class="st0" x1="-79.5" y1="209" x2="-63.1" y2="209"/>
	<path class="st0" d="M-83.5,185l-2.7,3.2c-1.5,1.8-2.3,4.1-2.3,6.4V206c0,1.7,1.3,3,3,3"/>
	<path class="st0" d="M-36.5,185l-4.7-12.3c-1.1-2.8-3.6-4.8-6.5-5.2c-2.3-0.3-7.6-0.6-12.3-0.6s-10,0.2-12.3,0.6
		c-3,0.4-5.5,2.4-6.5,5.2l-4.7,12.3"/>
	<path class="st0" d="M-41.1,185l-3.6-9.5c-0.8-2.2-2.8-3.7-5.1-4c-1.8-0.2-6.5-0.4-10.2-0.4s-8.4,0.2-10.2,0.4
		c-2.3,0.3-4.2,1.8-5.1,4l-3.6,9.5H-41.1z"/>
	<circle class="st0" cx="-79.5" cy="194.5" r="3"/>
	<line class="st0" x1="-36.5" y1="185" x2="-31.5" y2="185"/>
	<line class="st0" x1="-88.5" y1="185" x2="-83.5" y2="185"/>
	<polyline class="st0" points="-62.5,198 -70.5,198 -70.5,204 -64.5,204 	"/>
	<circle class="st0" cx="-67" cy="177.5" r="2.5"/>
	<path class="st0" d="M-57,184c0-2.2,1.8-4,4-4s4,1.8,4,4"/>
	<path class="st0" d="M-71,184c0-2.2,1.8-4,4-4s4,1.8,4,4"/>
	<circle class="st0" cx="-53" cy="177.5" r="2.5"/>
</g>
<g>
	<path class="st0" d="M-345.5,299v5c0,1.1-0.9,2-2,2h-6c-1.1,0-2-0.9-2-2v-5"/>
	<path class="st0" d="M-301.5,284.6c0-2.3-0.8-4.6-2.3-6.4l-2.7-3.2"/>
	<line class="st0" x1="-349.5" y1="299" x2="-333.1" y2="299"/>
	<path class="st0" d="M-353.5,275l-2.7,3.2c-1.5,1.8-2.3,4.1-2.3,6.4V296c0,1.7,1.3,3,3,3"/>
	<path class="st0" d="M-306.5,275l-4.7-12.3c-1.1-2.8-3.6-4.8-6.5-5.2c-2.3-0.3-7.6-0.6-12.3-0.6s-10,0.2-12.3,0.6
		c-3,0.4-5.5,2.4-6.5,5.2l-4.7,12.3"/>
	<path class="st0" d="M-311.1,275l-3.6-9.5c-0.8-2.2-2.8-3.7-5.1-4c-1.8-0.2-6.5-0.4-10.2-0.4s-8.4,0.2-10.2,0.4
		c-2.3,0.3-4.2,1.8-5.1,4l-3.6,9.5H-311.1z"/>
	<circle class="st0" cx="-349.5" cy="284.5" r="3"/>
	<line class="st0" x1="-306.5" y1="275" x2="-301.5" y2="275"/>
	<line class="st0" x1="-358.5" y1="275" x2="-353.5" y2="275"/>
	<polyline class="st0" points="-332.5,288 -340.5,288 -340.5,294 -334.5,294 	"/>
	<circle class="st0" cx="-337" cy="267.5" r="2.5"/>
	<path class="st0" d="M-327,274c0-2.2,1.8-4,4-4s4,1.8,4,4"/>
	<path class="st0" d="M-341,274c0-2.2,1.8-4,4-4s4,1.8,4,4"/>
	<circle class="st0" cx="-323" cy="267.5" r="2.5"/>
	<circle class="st1" cx="-315.5" cy="295" r="14"/>
	<g>
		<line class="st1" x1="-315.5" y1="299" x2="-315.5" y2="296"/>
		<line class="st1" x1="-315.5" y1="303" x2="-315.5" y2="303"/>
		<path class="st1" d="M-315.5,288c2.2,0,4,1.8,4,4s-1.8,4-4,4"/>
		<path class="st1" d="M-318.7,289.6c0.7-0.9,1.9-1.6,3.2-1.6"/>
	</g>
</g>
<g>
	<g>
		<path class="st1" d="M208,183.7c0-1.4,1.1-2.5,2.5-2.5"/>
		<line class="st1" x1="208" y1="183.7" x2="208" y2="189.9"/>
		<line class="st1" x1="206.8" y1="189.9" x2="213" y2="189.9"/>
		<line class="st1" x1="208" y1="185" x2="210.5" y2="185"/>
	</g>
	<line class="st0" x1="200.5" y1="168.5" x2="228.5" y2="168.5"/>
	<line class="st0" x1="192.5" y1="168.5" x2="194.5" y2="168.5"/>
	<path class="st0" d="M214.5,208.5v7l1,0h2c3.3,0,6,2.7,6,6l0,0h-27l0,0c0-3.3,2.7-6,6-6h2l1,0v-8l0-2.5c-8.1-2-14.1-9.4-14.1-18.1
		v-22.4h37.3v22.4c0,10.3-8.3,18.6-18.6,18.6"/>
	<line class="st0" x1="238.5" y1="173.5" x2="229.5" y2="173.5"/>
	<path class="st0" d="M238.5,173.5c0,0,0,5,0,7c0,4-2,10-10,11"/>
	<path class="st0" d="M191.5,191.5c-8-1-10-7-10-11c0-2,0-7,0-7h9"/>
	<path class="st1" d="M211.4,173.9l0.6,0.6c0.5,0.5,1.2,0.7,1.9,0.5l0.8-0.2c1.1-0.3,2.2,0.3,2.5,1.4l0.2,0.8
		c0.2,0.7,0.7,1.2,1.4,1.4l0.8,0.2c1.1,0.3,1.7,1.4,1.4,2.5l-0.2,0.8c-0.2,0.7,0,1.4,0.5,1.9l0.6,0.6c0.8,0.8,0.8,2.1,0,2.8
		l-0.6,0.6c-0.5,0.5-0.7,1.2-0.5,1.9l0.2,0.8c0.3,1.1-0.3,2.2-1.4,2.5l-0.8,0.2c-0.7,0.2-1.2,0.7-1.4,1.4l-0.2,0.8
		c-0.3,1.1-1.4,1.7-2.5,1.4l-0.8-0.2c-0.7-0.2-1.4,0-1.9,0.5l-0.6,0.6c-0.8,0.8-2.1,0.8-2.8,0l-0.6-0.6c-0.5-0.5-1.2-0.7-1.9-0.5
		l-0.8,0.2c-1.1,0.3-2.2-0.3-2.5-1.4l-0.2-0.8c-0.2-0.7-0.7-1.2-1.4-1.4l-0.8-0.2c-1.1-0.3-1.7-1.4-1.4-2.5l0.2-0.8
		c0.2-0.7,0-1.4-0.5-1.9l-0.6-0.6c-0.8-0.8-0.8-2.1,0-2.8l0.6-0.6c0.5-0.5,0.7-1.2,0.5-1.9l-0.2-0.8c-0.3-1.1,0.3-2.2,1.4-2.5
		l0.8-0.2c0.7-0.2,1.2-0.7,1.4-1.4l0.2-0.8c0.3-1.1,1.4-1.7,2.5-1.4l0.8,0.2c0.7,0.2,1.4,0,1.9-0.5l0.6-0.6
		C209.4,173.1,210.6,173.1,211.4,173.9z"/>
</g>
<g>
	<g>
		<path d="M-240,402.5c-13.8,0-25-11.2-25-25s11.2-25,25-25s25,11.2,25,25S-226.2,402.5-240,402.5z M-240,354.5
			c-12.7,0-23,10.3-23,23s10.3,23,23,23s23-10.3,23-23S-227.3,354.5-240,354.5z"/>
	</g>
	<g>
		<path d="M-240,359.5c-0.3,0-0.5-0.1-0.7-0.3c-0.2-0.2-0.3-0.5-0.3-0.7c0-0.3,0.1-0.5,0.3-0.7c0.4-0.4,1-0.4,1.4,0
			c0.2,0.2,0.3,0.4,0.3,0.7c0,0.3-0.1,0.5-0.3,0.7C-239.5,359.4-239.7,359.5-240,359.5z"/>
	</g>
	<g>
		<path d="M-249.5,362c-0.1,0-0.3,0-0.4-0.1c-0.1,0-0.2-0.1-0.3-0.2c-0.2-0.2-0.3-0.4-0.3-0.7c0-0.3,0.1-0.5,0.3-0.7
			c0.1-0.1,0.2-0.2,0.3-0.2c0.4-0.1,0.8-0.1,1.1,0.2c0.2,0.2,0.3,0.4,0.3,0.7c0,0.3-0.1,0.5-0.3,0.7C-249,361.9-249.2,362-249.5,362
			z"/>
	</g>
	<g>
		<path d="M-256.5,369c-0.3,0-0.5-0.1-0.7-0.3c-0.2-0.2-0.3-0.5-0.3-0.7c0-0.3,0.1-0.5,0.3-0.7c0.4-0.4,1-0.4,1.4,0
			c0.2,0.2,0.3,0.4,0.3,0.7c0,0.3-0.1,0.5-0.3,0.7C-255.9,368.9-256.2,369-256.5,369z"/>
	</g>
	<g>
		<path d="M-259,378.5c-0.3,0-0.5-0.1-0.7-0.3c-0.2-0.2-0.3-0.5-0.3-0.7c0-0.1,0-0.3,0.1-0.4c0.1-0.1,0.1-0.2,0.2-0.3
			c0.4-0.4,1-0.4,1.4,0c0.1,0.1,0.2,0.2,0.2,0.3c0.1,0.1,0.1,0.3,0.1,0.4c0,0.3-0.1,0.5-0.3,0.7C-258.5,378.4-258.7,378.5-259,378.5
			z"/>
	</g>
	<g>
		<path d="M-256.5,388c-0.1,0-0.3,0-0.4-0.1c-0.1-0.1-0.2-0.1-0.3-0.2c-0.1-0.1-0.2-0.2-0.2-0.3c0-0.1-0.1-0.3-0.1-0.4
			c0-0.1,0-0.3,0.1-0.4c0.1-0.1,0.1-0.2,0.2-0.3c0.1-0.1,0.2-0.2,0.3-0.2c0.4-0.2,0.8-0.1,1.1,0.2c0.1,0.1,0.2,0.2,0.2,0.3
			c0.1,0.1,0.1,0.3,0.1,0.4c0,0.1,0,0.3-0.1,0.4c0,0.1-0.1,0.2-0.2,0.3C-255.9,387.9-256.2,388-256.5,388z"/>
	</g>
	<g>
		<path d="M-249.5,395c-0.1,0-0.3,0-0.4-0.1c-0.1-0.1-0.2-0.1-0.3-0.2c-0.1-0.1-0.2-0.2-0.2-0.3c0-0.1-0.1-0.3-0.1-0.4
			c0-0.3,0.1-0.5,0.3-0.7c0.1-0.1,0.2-0.2,0.3-0.2c0.2-0.1,0.5-0.1,0.8,0c0.1,0,0.2,0.1,0.3,0.2c0.2,0.2,0.3,0.4,0.3,0.7
			c0,0.1,0,0.3-0.1,0.4c-0.1,0.1-0.1,0.2-0.2,0.3c-0.1,0.1-0.2,0.2-0.3,0.2C-249.2,394.9-249.4,395-249.5,395z"/>
	</g>
	<g>
		<path d="M-240,397.5c-0.3,0-0.5-0.1-0.7-0.3c-0.1-0.1-0.2-0.2-0.2-0.3c0-0.1-0.1-0.3-0.1-0.4c0-0.1,0-0.1,0-0.2
			c0-0.1,0-0.1,0.1-0.2c0-0.1,0.1-0.1,0.1-0.2c0-0.1,0.1-0.1,0.1-0.1c0.3-0.3,0.7-0.4,1.1-0.2c0.1,0.1,0.2,0.1,0.3,0.2
			c0.2,0.2,0.3,0.4,0.3,0.7c0,0.1,0,0.3-0.1,0.4c-0.1,0.1-0.1,0.2-0.2,0.3c-0.1,0.1-0.2,0.2-0.3,0.2
			C-239.7,397.5-239.9,397.5-240,397.5z"/>
	</g>
	<g>
		<path d="M-230.5,395c-0.1,0-0.3,0-0.4-0.1c-0.1-0.1-0.2-0.1-0.3-0.2c-0.1-0.1-0.2-0.2-0.2-0.3c0-0.1-0.1-0.3-0.1-0.4
			c0-0.3,0.1-0.5,0.3-0.7c0.1-0.1,0.2-0.2,0.3-0.2c0.2-0.1,0.4-0.1,0.6-0.1c0.1,0,0.1,0,0.2,0.1c0.1,0,0.1,0.1,0.2,0.1
			c0,0,0.1,0.1,0.1,0.1c0.2,0.2,0.3,0.4,0.3,0.7c0,0.1,0,0.3-0.1,0.4c-0.1,0.1-0.1,0.2-0.2,0.3C-230,394.8-230.2,395-230.5,395z"/>
	</g>
	<g>
		<path d="M-223.6,388c-0.1,0-0.3,0-0.4-0.1c-0.1-0.1-0.2-0.1-0.3-0.2c-0.1-0.1-0.2-0.2-0.2-0.3s-0.1-0.3-0.1-0.4
			c0-0.1,0-0.3,0.1-0.4c0-0.1,0.1-0.2,0.2-0.3c0.1-0.1,0.2-0.2,0.3-0.2c0.4-0.2,0.8-0.1,1.1,0.2c0.1,0.1,0.2,0.2,0.2,0.3
			c0,0.1,0.1,0.3,0.1,0.4c0,0.1,0,0.3-0.1,0.4c-0.1,0.1-0.1,0.2-0.2,0.3C-223,387.9-223.3,388-223.6,388z"/>
	</g>
	<g>
		<path d="M-221,378.5c-0.1,0-0.3,0-0.4-0.1c-0.1-0.1-0.2-0.1-0.3-0.2c-0.2-0.2-0.3-0.5-0.3-0.7c0-0.1,0-0.3,0.1-0.4
			c0.1-0.1,0.1-0.2,0.2-0.3c0.1-0.1,0.2-0.2,0.3-0.2c0.4-0.2,0.8-0.1,1.1,0.2c0.1,0.1,0.2,0.2,0.2,0.3c0.1,0.1,0.1,0.3,0.1,0.4
			c0,0.3-0.1,0.5-0.3,0.7C-220.5,378.4-220.7,378.5-221,378.5z"/>
	</g>
	<g>
		<path d="M-223.6,369c-0.3,0-0.5-0.1-0.7-0.3c-0.2-0.2-0.3-0.5-0.3-0.7c0-0.3,0.1-0.5,0.3-0.7c0.4-0.4,1-0.4,1.4,0
			c0.2,0.2,0.3,0.4,0.3,0.7c0,0.3-0.1,0.5-0.3,0.7C-223,368.9-223.3,369-223.6,369z"/>
	</g>
	<g>
		<path d="M-232,350.5h-16c-0.6,0-1-0.4-1-1v-5c0-0.6,0.4-1,1-1h16c0.6,0,1,0.4,1,1v5C-231,350.1-231.4,350.5-232,350.5z
			 M-247,348.5h14v-3h-14V348.5z"/>
	</g>
	<g>
		<path d="M-244,354.5c-0.6,0-1-0.4-1-1v-4c0-0.6,0.4-1,1-1s1,0.4,1,1v4C-243,354.1-243.4,354.5-244,354.5z"/>
	</g>
	<g>
		<path d="M-236,354.5c-0.6,0-1-0.4-1-1v-4c0-0.6,0.4-1,1-1s1,0.4,1,1v4C-235,354.1-235.4,354.5-236,354.5z"/>
	</g>
	<g>
		<path d="M-217.5,361c-0.3,0-0.5-0.1-0.7-0.3l-7-7c-0.4-0.4-0.4-1,0-1.4s1-0.4,1.4,0l7,7c0.4,0.4,0.4,1,0,1.4
			C-217,360.9-217.2,361-217.5,361z"/>
	</g>
	<g>
		<path d="M-262.5,361c-0.3,0-0.5-0.1-0.7-0.3c-0.4-0.4-0.4-1,0-1.4l7-7c0.4-0.4,1-0.4,1.4,0s0.4,1,0,1.4l-7,7
			C-262,360.9-262.2,361-262.5,361z"/>
	</g>
	<g>
		<path class="st2" d="M-239.9,382.5c-0.9,0-1.8-0.2-2.6-0.7c-1.3-0.8-2.3-2.1-2.5-3.6c-0.3-1.5,0.1-3.1,1.1-4.3l11.7-14.1
			c0.7-0.8,1.8-1,2.8-0.5c0.9,0.5,1.3,1.7,0.9,2.7l-6.4,17.2c-0.5,1.4-1.7,2.6-3.1,3.1C-238.7,382.4-239.3,382.5-239.9,382.5z
			 M-230.6,361c-0.1,0-0.1,0-0.1,0.1l-11.7,14.2c-0.6,0.7-0.9,1.7-0.7,2.6s0.7,1.7,1.6,2.2c0.8,0.5,1.8,0.6,2.7,0.2
			c0.9-0.3,1.6-1,1.9-1.9l6.4-17.2C-230.4,361.2-230.4,361.1-230.6,361C-230.5,361-230.6,361-230.6,361z"/>
	</g>
</g>
<g>
	<path class="st0" d="M-165.5,299v5c0,1.1-0.9,2-2,2h-6c-1.1,0-2-0.9-2-2v-5"/>
	<path class="st0" d="M-122.2,281c-0.4-1-0.9-1.9-1.6-2.8l-2.7-3.2"/>
	<line class="st0" x1="-169.5" y1="299" x2="-149.1" y2="299"/>
	<path class="st0" d="M-173.5,275l-2.7,3.2c-1.5,1.8-2.3,4.1-2.3,6.4V296c0,1.7,1.3,3,3,3"/>
	<path class="st0" d="M-126.5,275l-4.7-12.3c-1.1-2.8-3.6-4.8-6.5-5.2c-2.3-0.3-7.6-0.6-12.3-0.6s-10,0.2-12.3,0.6
		c-3,0.4-5.5,2.4-6.5,5.2l-4.7,12.3"/>
	<path class="st0" d="M-131.1,275l-3.6-9.5c-0.8-2.2-2.8-3.7-5.1-4c-1.8-0.2-6.5-0.4-10.2-0.4s-8.4,0.2-10.2,0.4
		c-2.3,0.3-4.2,1.8-5.1,4l-3.6,9.5H-131.1z"/>
	<circle class="st0" cx="-169.5" cy="284.5" r="3"/>
	<line class="st0" x1="-126.5" y1="275" x2="-121.5" y2="275"/>
	<line class="st0" x1="-178.5" y1="275" x2="-173.5" y2="275"/>
	<polyline class="st0" points="-149.5,288 -160.5,288 -160.5,294 -149.5,294 	"/>
	<circle class="st0" cx="-157" cy="267.5" r="2.5"/>
	<path class="st0" d="M-147,274c0-2.2,1.8-4,4-4s4,1.8,4,4"/>
	<path class="st0" d="M-161,274c0-2.2,1.8-4,4-4s4,1.8,4,4"/>
	<circle class="st0" cx="-143" cy="267.5" r="2.5"/>
	<g>
		<g>
			<g>
				<path class="st1" d="M-144.5,286.9v7.3c0,3.4,1.1,6.6,3.3,9.4c2.2,2.8,4.9,4.6,8.2,5.4c3.2-0.8,6-2.6,8.2-5.4
					c2.2-2.8,3.3-6,3.3-9.4v-7.3L-133,282L-144.5,286.9z"/>
			</g>
		</g>
	</g>
	<polyline class="st1" points="-137.5,296 -133.5,299 -127.5,292 	"/>
</g>
<g>
	<path class="st1" d="M201.2,297.8c2.6-2.2,5.9-7.8,1.5-13.3c-5.6-7-21-10-21-10s1.1,14.1,6.6,21
		C192.7,301.1,198.8,299.8,201.2,297.8z"/>
	<path class="st0" d="M205.6,311.5c0,0,2.9-8.1,10-16c9-10,13-26,13-32"/>
	<path class="st0" d="M215.5,295c7.5,5,16.4,0.6,20.2-6.5c9-17-7-34-8-34c-3,7-13.5,14-17,21C206.6,283.5,208.6,290.5,215.5,295z"/>
	<g>
		<path class="st1" d="M187.6,280.5c17,18,19,22,19,22"/>
		<path class="st1" d="M201.2,297.8c2.6-2.2,5.9-7.8,1.5-13.3c-5.6-7-21-10-21-10s1.1,14.1,6.6,21
			C192.7,301.1,198.8,299.8,201.2,297.8z"/>
		<path class="st0" d="M205.6,311.5c0,0,2.9-8.1,10-16c9-10,13-26,13-32"/>
		<path class="st0" d="M215.5,295c7.5,5,16.4,0.6,20.2-6.5c9-17-7-34-8-34c-3,7-13.5,14-17,21C206.6,283.5,208.6,290.5,215.5,295z"
			/>
	</g>
</g>
<g>
	<circle class="st1" cx="6" cy="262" r="4"/>
	<path class="st1" d="M6,266v13c0,2.2,1.8,4,4,4h8"/>
	<circle class="st0" cx="22" cy="262" r="4"/>
	<circle class="st0" cx="38" cy="262" r="4"/>
	<circle class="st0" cx="54" cy="262" r="4"/>
	<circle class="st0" cx="22" cy="304" r="4"/>
	<circle class="st0" cx="38" cy="304" r="4"/>
	<circle class="st0" cx="54" cy="304" r="4"/>
	<line class="st0" x1="22" y1="266" x2="22" y2="300"/>
	<line class="st0" x1="38" y1="266" x2="38" y2="300"/>
	<line class="st0" x1="54" y1="266" x2="54" y2="300"/>
	<line class="st0" x1="54" y1="283" x2="22" y2="283"/>
</g>
<g>
	<path class="st0" d="M-32,290.8c0-15.5-12.5-28-28-28s-28,12.5-28,28"/>
	<g>
		<polyline class="st0" points="-84,303.2 -88,303.2 -88,296.5 -84,296.5 		"/>
		<line class="st0" x1="-88" y1="299.8" x2="-85" y2="299.8"/>
	</g>
	<g>
		<polyline class="st0" points="-36,302.2 -36,295.5 -32,295.5 		"/>
		<line class="st0" x1="-36" y1="298.8" x2="-33" y2="298.8"/>
	</g>
	<line class="st0" x1="-60" y1="262.8" x2="-60" y2="268.8"/>
	<path class="st1" d="M-49.1,270.8L-49.1,270.8c-0.6-0.4-1.4-0.2-1.8,0.3l-13.9,16.7c-2,2.4-1.3,6,1.5,7.6h0
		c2.8,1.6,6.3,0.4,7.4-2.5l7.5-20.4C-48.2,271.9-48.5,271.1-49.1,270.8z"/>
	<line class="st0" x1="-32" y1="290.8" x2="-38" y2="290.8"/>
	<line class="st0" x1="-88" y1="290.8" x2="-82" y2="290.8"/>
	<line class="st0" x1="-88" y1="290.8" x2="-86" y2="290.8"/>
	<line class="st0" x1="-84.1" y1="277.2" x2="-82.3" y2="278.2"/>
	<line class="st0" x1="-73.8" y1="267.3" x2="-72.8" y2="269"/>
	<line class="st0" x1="-36.4" y1="278" x2="-38.2" y2="279"/>
</g>
<g>
	<path class="st1" d="M126.6,271c0,3.9-2,10-7,10s-7-6.1-7-10s3.1-7,7-7C123.4,264,126.6,267.1,126.6,271z"/>
	<path class="st1" d="M105.6,302c0-9.4,5-17,14-17s14,7.6,14,17"/>
	<path class="st0" d="M143.3,274c0,2.9-1.5,7.5-5.3,7.5s-5.3-4.6-5.3-7.5s2.4-5.3,5.3-5.3C141,268.8,143.3,271.1,143.3,274z"/>
	<path class="st0" d="M132.4,286.2c1.5-1.1,3.4-1.7,5.7-1.7c6.8,0,10.5,5.7,10.5,12.8"/>
	<path class="st0" d="M96.7,274c0,2.9,1.5,7.5,5.3,7.5s5.3-4.6,5.3-7.5s-2.4-5.3-5.3-5.3S96.7,271.1,96.7,274z"/>
	<path class="st0" d="M107.6,286.2c-1.5-1.1-3.4-1.7-5.7-1.7c-6.8,0-10.5,5.7-10.5,12.8"/>
	<line class="st1" x1="112.2" y1="287.2" x2="119.3" y2="294.2"/>
	<line class="st1" x1="122.8" y1="297.8" x2="126.6" y2="302"/>
	<rect x="118.6" y="294" transform="matrix(0.7071 0.7071 -0.7071 0.7071 244.7673 1.0794)" class="st1" width="5" height="4"/>
</g>
<g>
	<path class="st0" d="M-255.5,301v4c0,1.1-0.9,2-2,2h-6c-1.1,0-2-0.9-2-2v-4"/>
	<path class="st0" d="M-214.5,301v4c0,1.1-0.9,2-2,2h-6c-1.1,0-2-0.9-2-2v-4"/>
	<path class="st0" d="M-214.5,301c1.7,0,3-1.3,3-3v-11.4c0-2.3-0.8-4.6-2.3-6.4l-2.7-3.2"/>
	<path class="st0" d="M-263.5,277l-2.7,3.2c-1.5,1.8-2.3,4.1-2.3,6.4V298c0,1.7,1.3,3,3,3"/>
	<path class="st0" d="M-216.5,277l-4.7-12.3c-1.1-2.8-3.6-4.8-6.5-5.2c-2.3-0.3-7.6-0.6-12.3-0.6s-10,0.2-12.3,0.6
		c-3,0.4-5.5,2.4-6.5,5.2l-4.7,12.3"/>
	<path class="st0" d="M-222.5,276l-3.4-8.9c-0.8-2-2.6-3.4-4.7-3.7c-1.7-0.2-6-0.4-9.4-0.4s-7.8,0.2-9.4,0.4
		c-2.1,0.3-3.9,1.7-4.7,3.7l-3.4,8.9H-222.5z"/>
	<circle class="st0" cx="-259.5" cy="286.5" r="3"/>
	<circle class="st0" cx="-220.5" cy="286.5" r="3"/>
	<line class="st0" x1="-216.5" y1="277" x2="-211.5" y2="277"/>
	<line class="st0" x1="-268.5" y1="277" x2="-263.5" y2="277"/>
	<rect x="-250.5" y="290" class="st0" width="21" height="6"/>
	<circle class="st0" cx="-247" cy="269.5" r="2.5"/>
	<path class="st0" d="M-237,276c0-2.2,1.8-4,4-4s4,1.8,4,4"/>
	<path class="st0" d="M-251,276c0-2.2,1.8-4,4-4s4,1.8,4,4"/>
	<circle class="st0" cx="-233" cy="269.5" r="2.5"/>
	<line class="st0" x1="-259.5" y1="301" x2="-220.5" y2="301"/>
</g>
<g>
	<polygon class="st0" points="-126,401.5 -174,401.5 -166,365.5 -134,365.5 	"/>
	<circle class="st1" cx="-150" cy="350.5" r="6"/>
	<line class="st1" x1="-150" y1="353.5" x2="-150" y2="361.5"/>
	<line class="st0" x1="-160" y1="377.5" x2="-160" y2="389.5"/>
	<line class="st0" x1="-152" y1="377.5" x2="-160" y2="385"/>
	<line class="st0" x1="-152" y1="389.5" x2="-157" y2="382.8"/>
	<path class="st0" d="M-140,386.5c0,1.7-1.3,3-3,3h-2c-1.7,0-3-1.3-3-3v-6c0-1.7,1.3-3,3-3h2c1.7,0,3,1.3,3,3"/>
	<polyline class="st0" points="-142,384.5 -140,384.5 -140,386.5 	"/>
</g>
<g>
	<line class="st1" x1="44.5" y1="346" x2="44.5" y2="395"/>
	<polyline class="st1" points="50.2,390 44.5,395.7 38.8,390 	"/>
	<polyline class="st1" points="38.8,351 44.5,345.3 50.2,351 	"/>
	<path class="st0" d="M29.5,396v-51h-16c-2.2,0-4,1.8-4,4v52h41"/>
	<line class="st0" x1="29.5" y1="373" x2="16.5" y2="373"/>
	<line class="st0" x1="29.5" y1="366" x2="22.5" y2="366"/>
	<line class="st0" x1="29.5" y1="359" x2="22.5" y2="359"/>
	<line class="st0" x1="29.5" y1="352" x2="22.5" y2="352"/>
	<line class="st0" x1="29.5" y1="394" x2="22.5" y2="394"/>
	<line class="st0" x1="29.5" y1="387" x2="22.5" y2="387"/>
	<line class="st0" x1="29.5" y1="380" x2="22.5" y2="380"/>
</g>
<g>
	<line class="st1" x1="-38" y1="385.5" x2="-82" y2="385.5"/>
	<polyline class="st1" points="-77,391.2 -82.7,385.5 -77,379.8 	"/>
	<polyline class="st1" points="-43,379.8 -37.3,385.5 -43,391.2 	"/>
	<path class="st0" d="M-32,369.5v-16c0-2.2-1.8-4-4-4h-48c-2.2,0-4,1.8-4,4v16"/>
	<line class="st0" x1="-60" y1="369.5" x2="-60" y2="356.5"/>
	<line class="st0" x1="-53" y1="369.5" x2="-53" y2="362.5"/>
	<line class="st0" x1="-46" y1="369.5" x2="-46" y2="362.5"/>
	<line class="st0" x1="-39" y1="369.5" x2="-39" y2="362.5"/>
	<line class="st0" x1="-81" y1="369.5" x2="-81" y2="362.5"/>
	<line class="st0" x1="-74" y1="369.5" x2="-74" y2="362.5"/>
	<line class="st0" x1="-67" y1="369.5" x2="-67" y2="362.5"/>
	<line class="st0" x1="-88" y1="369.5" x2="-32" y2="369.5"/>
	<line class="st0" x1="-32" y1="374.5" x2="-32" y2="378.5"/>
	<line class="st0" x1="-88" y1="374.5" x2="-88" y2="378.5"/>
	<line class="st0" x1="-32" y1="383.5" x2="-32" y2="387.5"/>
	<line class="st0" x1="-88" y1="383.5" x2="-88" y2="387.5"/>
	<line class="st0" x1="-32" y1="392.5" x2="-32" y2="396.5"/>
	<line class="st0" x1="-88" y1="392.5" x2="-88" y2="396.5"/>
</g>
<g>
	<circle class="st1" cx="100.8" cy="20.1" r="4.5"/>
	<circle class="st1" cx="139.8" cy="20.1" r="4.5"/>
	<line class="st1" x1="135" y1="20.6" x2="109" y2="20.6"/>
	<path class="st1" d="M145,20.6c0,0-1,0,1,0c3,0,3-5,3-7c0-1-3-5-16-5h-26c-4,0-9-6-9-6"/>
	<path class="st1" d="M126.1,1.4c4.3,2.3,9.2,7.1,9.2,7.1"/>
	<path class="st1" d="M96,20.6l-5-1c0,0,0-4,0-5c0-2,3-6,3-8h8"/>
	<polyline class="st1" points="114,5.6 116,8.6 116,17.6 	"/>
	<line class="st1" x1="120" y1="12.6" x2="123" y2="12.6"/>
</g>
<g>
	<circle class="st1" cx="-169.2" cy="20.5" r="4.5"/>
	<circle class="st1" cx="-130.2" cy="20.5" r="4.5"/>
	<line class="st1" x1="-135" y1="21" x2="-161" y2="21"/>
	<path class="st1" d="M-125,21c0,0-1,0,1,0c3,0,3-5,3-7c0-1-3-5-16-5h-26c-3,0-5.2-3-5.2-3"/>
	<path class="st1" d="M-174,21l-5-1c0,0,0-4,0-5c0-2,3-7,3-9h7c0,0,2-5,16-5c9,0,17.3,8,17.3,8"/>
	<polyline class="st1" points="-153,2 -151,9 -151,18 	"/>
	<line class="st1" x1="-147" y1="13" x2="-145" y2="13"/>
	<line class="st1" x1="-160" y1="13" x2="-158" y2="13"/>
	<line class="st1" x1="-164" y1="2.5" x2="-164" y2="14.2"/>
</g>
<g>
	<circle class="st1" cx="-79.2" cy="20.5" r="4.5"/>
	<circle class="st1" cx="-40.2" cy="20.5" r="4.5"/>
	<line class="st1" x1="-45" y1="21" x2="-71" y2="21"/>
	<path class="st1" d="M-35,21c0,0-1,0,1,0c3,0,3-5,3-7c0-1-3-5-16-5h-33c-3,0-7-1-7-1"/>
	<path class="st1" d="M-84,21l-5-1c0,0,0-4,0-5c0-2,2-5,2-7s4-7,4-7s12,0,23,0c6,0,14.3,8,14.3,8"/>
	<polyline class="st1" points="-63,2 -61,9 -61,18 	"/>
	<line class="st1" x1="-57" y1="13" x2="-55" y2="13"/>
	<line class="st1" x1="-71.5" y1="13" x2="-69.5" y2="13"/>
	<line class="st1" x1="-75" y1="2" x2="-76" y2="9"/>
	<line class="st1" x1="-76" y1="9" x2="-76" y2="13"/>
</g>
<g>
	<circle class="st1" cx="190.8" cy="22.5" r="4.5"/>
	<circle class="st1" cx="229.8" cy="22.5" r="4.5"/>
	<line class="st1" x1="225" y1="23" x2="199" y2="23"/>
	<path class="st1" d="M235,23c0,0-1,0,1,0c3,0,3-5,3-7c0-1-5-7-15-7h-34c-3,0-7-1-7-1"/>
	<path class="st1" d="M186,23l-5-1c0,0,0-4,0-5c0-2,2-7,2-9s5-9,9-9c1,0,8,0,19,0c8,0,17,10,17,10"/>
	<polyline class="st1" points="208,-1 210,8 210,20 	"/>
	<line class="st1" x1="214" y1="14" x2="216" y2="14"/>
	<line class="st1" x1="199" y1="14" x2="201" y2="14"/>
	<line class="st1" x1="197" y1="-1" x2="195" y2="9"/>
	<line class="st1" x1="195" y1="9" x2="195" y2="15.5"/>
</g>
<g>
	<circle class="st1" cx="10.8" cy="20.5" r="4.5"/>
	<circle class="st1" cx="49.8" cy="20.5" r="4.5"/>
	<line class="st1" x1="45" y1="21" x2="19" y2="21"/>
	<path class="st1" d="M55,21c0,0-1,0,1,0c3,0,3-5,3-7c0-1-3-5-16-5H15C10,9,5,2,5,2"/>
	<path class="st1" d="M6,21l-5-1c0,0,0-4,0-5c0-2,3-6,3-8h6c0,0,5-6,17-6c9,0,18.3,8,18.3,8"/>
	<polyline class="st1" points="24,6 26,9 26,18 	"/>
	<line class="st1" x1="30" y1="13" x2="33" y2="13"/>
</g>
<g>
	<circle class="st1" cx="281.2" cy="23.2" r="4.8"/>
	<circle class="st1" cx="319.1" cy="23.2" r="5.1"/>
	<line class="st1" x1="314" y1="23.7" x2="290" y2="23.7"/>
	<path class="st1" d="M325,23.7c0,0-1,0,1,0c3,0,3-2,3-4s-2-3-2-3s0-2.9,0-4c0-2-8.6-3-15-3h-31c-3,0-8-1-8-1"/>
	<path class="st1" d="M276,23.7l-5-1c0,0,0-4,0-5c0-2,2-6,2-8c0-4,3-10,3-10s19-1,28,0c3,0.3,10,10,10,10"/>
	<polyline class="st1" points="297,-0.3 299,8.7 299,20.7 	"/>
	<line class="st1" x1="303" y1="14.7" x2="305" y2="14.7"/>
	<line class="st1" x1="288.4" y1="14.7" x2="290.6" y2="14.7"/>
	<line class="st1" x1="285" y1="-0.3" x2="284" y2="9.7"/>
	<line class="st1" x1="282" y1="-1.3" x2="282" y2="-2.3"/>
	<line class="st1" x1="299" y1="-1.3" x2="299" y2="-2.3"/>
	<line class="st1" x1="284" y1="9.7" x2="284" y2="15.2"/>
</g>
<g>
	<line class="st1" x1="271.5" y1="164.5" x2="328.5" y2="221.5"/>
	<path class="st0" d="M284.5,210.5v4c0,1.1-0.9,2-2,2h-6c-1.1,0-2-0.9-2-2v-4"/>
	<path class="st0" d="M318.4,216.5h-0.9c-1.1,0-2-0.9-2-2"/>
	<line class="st0" x1="325.5" y1="210.5" x2="325.5" y2="212.8"/>
	<path class="st0" d="M325.5,210.5c1.7,0,3-1.3,3-3v-11.4c0-2.3-0.8-4.6-2.3-6.4l-2.7-3.2"/>
	<path class="st0" d="M276.5,186.5l-2.7,3.2c-1.5,1.8-2.3,4.1-2.3,6.4v11.4c0,1.7,1.3,3,3,3"/>
	<line class="st0" x1="279.6" y1="178.3" x2="276.5" y2="186.5"/>
	<path class="st0" d="M323.5,186.5l-4.7-12.3c-1.1-2.8-3.6-4.8-6.5-5.2c-2.3-0.3-7.6-0.6-12.3-0.6s-10,0.2-12.3,0.6
		c-1.6,0.2-3,0.9-4.2,1.9"/>
	<path class="st0" d="M298.2,185.5h19.4l-3.4-8.9c-0.8-2-2.6-3.4-4.7-3.7c-1.7-0.2-6-0.4-9.4-0.4s-7.8,0.2-9.4,0.4
		c-1.3,0.2-2.5,0.8-3.4,1.7"/>
	<polyline class="st0" points="283.7,182.3 282.5,185.5 286.8,185.5 	"/>
	<circle class="st0" cx="280.5" cy="196" r="3"/>
	<circle class="st0" cx="319.5" cy="196" r="3"/>
	<line class="st0" x1="323.5" y1="186.5" x2="328.5" y2="186.5"/>
	<line class="st0" x1="271.5" y1="186.5" x2="276.5" y2="186.5"/>
	<polyline class="st0" points="300.5,199.5 289.5,199.5 289.5,205.5 306.5,205.5 	"/>
	<path class="st0" d="M290.7,178c0.4-0.9,1.3-1.5,2.3-1.5c1.4,0,2.5,1.1,2.5,2.5c0,1-0.6,1.9-1.5,2.3"/>
	<path class="st0" d="M303,185.5c0-2.2,1.8-4,4-4s4,1.8,4,4"/>
	<circle class="st0" cx="307" cy="179" r="2.5"/>
	<line class="st0" x1="280.5" y1="210.5" x2="311.5" y2="210.5"/>
</g>
<g>
	<path class="st1" d="M-313.5,384.5c0,3.3,2.7,6,6,6s6-2.7,6-6"/>
	<path class="st1" d="M-313.5,365.5c0-3.3-2.7-6-6-6"/>
	<line class="st1" x1="-313.5" y1="384.5" x2="-313.5" y2="365.5"/>
	<line class="st1" x1="-301.5" y1="384.5" x2="-301.5" y2="358.5"/>
	<circle class="st1" cx="-305" cy="359" r="3.5"/>
	<path class="st1" d="M-301.5,359c0-5.8-2-8.5-3.5-10.5"/>
	<line class="st0" x1="-314.5" y1="400.5" x2="-301.5" y2="400.5"/>
	<line class="st0" x1="-358.5" y1="400.5" x2="-319.5" y2="400.5"/>
	<g>
		<line class="st0" x1="-350.5" y1="373.5" x2="-350.5" y2="399.5"/>
		<line class="st0" x1="-327.5" y1="399.5" x2="-327.5" y2="373.5"/>
	</g>
	<path class="st0" d="M-329.5,350.5h-19c-0.6,0-1,0.4-1,1v16c0,0.6,0.4,1,1,1h19c0.6,0,1-0.4,1-1v-16
		C-328.5,350.9-328.9,350.5-329.5,350.5z"/>
	<line class="st0" x1="-343.5" y1="356.5" x2="-334.5" y2="356.5"/>
	<line class="st0" x1="-343.5" y1="362.5" x2="-334.5" y2="362.5"/>
	<path class="st0" d="M-327.5,345.5h-23c-2.2,0-4,1.8-4,4v20c0,2.2,1.8,4,4,4h23c2.2,0,4-1.8,4-4v-20
		C-323.5,347.3-325.3,345.5-327.5,345.5z"/>
	<path class="st0" d="M-339,379.5c0,0,5,6.2,5,9s-2.2,5-5,5s-5-2.2-5-5c0-1.3,1.1-3.3,2.2-5.1"/>
</g>
<g>
	<line class="st1" x1="117" y1="368.2" x2="98" y2="368.2"/>
	<polyline class="st1" points="103,373.8 97.3,368.2 103,362.5 	"/>
	<polyline class="st1" points="112,362.5 117.7,368.2 112,373.8 	"/>
	<circle class="st3" cx="101.2" cy="385.7" r="4.8"/>
	<circle class="st3" cx="140.1" cy="385.7" r="5.1"/>
	<line class="st3" x1="135" y1="386.2" x2="110" y2="386.2"/>
	<path class="st3" d="M146,386.2c0,0-1,0,1,0s2-2,2-4s-1-3-1-3v0c0-0.7,0-1,0-2c0-2-4-5-4-5"/>
	<path class="st3" d="M124,362.2h8c4,0,12,10,12,10"/>
	<path class="st3" d="M128,372.2v-7c0,0,2,0,4,0s8,7,8,7H128"/>
	<line class="st3" x1="128" y1="377.2" x2="131" y2="377.2"/>
	<line class="st3" x1="144" y1="377.2" x2="144" y2="378.2"/>
	<line class="st3" x1="92" y1="381.2" x2="99" y2="381.2"/>
	<line class="st3" x1="108" y1="381.2" x2="123" y2="381.2"/>
	<line class="st3" x1="124" y1="362.2" x2="124" y2="381.2"/>
	<path class="st3" d="M96,386.2l-5-1v-30c0,0,23,0,30,0c1,0,3,0,10,7"/>
</g>
<g>
	<circle class="st1" cx="-344.7" cy="20" r="4.5"/>
	<circle class="st1" cx="-312.7" cy="20" r="4.5"/>
	<line class="st1" x1="-317.5" y1="20.5" x2="-336.5" y2="20.5"/>
	<path class="st1" d="M-307.5,20.5c0,0-1,0,1,0c3,0,3-5,3-7c0-1-2-5-15-5h-21c-2,0-4-6-4-6"/>
	<path class="st1" d="M-354.5,19.5c0,0,0-4,0-5c0-2,3.5-4.1,4-6c1-4,2-6,2-6s6-1,17-1c5,0,13,7,13,7"/>
	<line class="st1" x1="-349.5" y1="20.5" x2="-356.5" y2="19.5"/>
	<polyline class="st1" points="-335.5,1.5 -333.5,8.5 -333.5,17.5 	"/>
	<line class="st1" x1="-329.5" y1="12.5" x2="-327.5" y2="12.5"/>
</g>
<g>
	<circle class="st1" cx="-259.2" cy="20.5" r="4.5"/>
	<circle class="st1" cx="-220.2" cy="20.5" r="4.5"/>
	<line class="st1" x1="-225" y1="21" x2="-251" y2="21"/>
	<path class="st1" d="M-215,21c0,0-1,0,1,0c3,0,3-5,3-7c0-1-3-5-16-5h-33c-3,0-6-1-6-1"/>
	<path class="st1" d="M-264,21l-5-1c0,0,0-4,0-5c0-2,3-5,3-7s3-6,3-6s11-1,22-1c6,0,15.3,8,15.3,8"/>
	<polyline class="st1" points="-249,2 -247,9 -247,18 	"/>
	<line class="st1" x1="-243" y1="13" x2="-240" y2="13"/>
</g>
<g>
	<circle class="st3" cx="-78.8" cy="112.2" r="4.8"/>
	<circle class="st3" cx="-39.9" cy="112.2" r="5.1"/>
	<line class="st3" x1="-45" y1="112.7" x2="-70" y2="112.7"/>
	<path class="st3" d="M-34,112.7c0,0-1,0,1,0s2-2,2-4s-1-3-1-3v0c0-0.7,0-1,0-2c0-2-4-5-4-5"/>
	<path class="st3" d="M-84,112.7l-5-1c0,0,0-2.5,0-4c0-0.7,1-1,1-1c0-2,0-6,0-8c0-2.4,0.4-5.5,0.7-7.7c0.2-1.3,1.3-2.3,2.7-2.3H-48
		c4,0,12,10,12,10"/>
	<path class="st3" d="M-52,98.7v-7c0,0,2,0,4,0s8,7,8,7H-52"/>
	<line class="st3" x1="-52" y1="103.7" x2="-49" y2="103.7"/>
	<line class="st3" x1="-36" y1="103.7" x2="-36" y2="104.7"/>
</g>
<g>
	<circle class="st3" cx="11.2" cy="114.7" r="4.8"/>
	<circle class="st3" cx="50.1" cy="114.7" r="5.1"/>
	<line class="st3" x1="45" y1="115.2" x2="20" y2="115.2"/>
	<path class="st3" d="M56,115.2c0,0-1,0,1,0s2-2,2-4s-1-3-1-3v0c0-0.7,0-1,0-2c0-2-4-5-4-5"/>
	<path class="st3" d="M6,115.2l-5-1c0,0,0-2.5,0-4c0-0.7,1-1,1-1c0-2,0-8,0-10c0-2.4,0.4-8.5,0.7-10.7c0.2-1.3,1.3-2.3,2.7-2.3
		c0,0,21.7,0,28.7,0c6,0,20,15,20,15"/>
	<path class="st3" d="M38,101.2v-7c0,0,2,0,4,0c1,0,8,7,8,7H38"/>
	<line class="st3" x1="38" y1="106.2" x2="41" y2="106.2"/>
	<line class="st3" x1="54" y1="106.2" x2="54" y2="107.2"/>
</g>
<g>
	<circle class="st3" cx="-168.8" cy="112.2" r="4.8"/>
	<circle class="st3" cx="-129.9" cy="112.2" r="5.1"/>
	<line class="st3" x1="-135" y1="112.7" x2="-160" y2="112.7"/>
	<path class="st3" d="M-124,112.7c0,0-1,0,1,0s2-2,2-4s-1-3-1-3s0-0.9,0-2c0-2-3-4-10-5"/>
	<path class="st3" d="M-174,112.7l-5-1c0,0,0-3,0-4c0-0.4,1-1,1-1c0-2,0-6,0-8c0-2.4,0.4-5.5,0.7-7.7c0.2-1.3,1.3-2.3,2.7-2.3h24.7
		c7,0,18,10,18,10"/>
	<path class="st3" d="M-152,98.7v-7c0,0,0,0,2,0c4,0,13,7,13,7H-152"/>
	<line class="st3" x1="-151" y1="103.7" x2="-148" y2="103.7"/>
	<line class="st3" x1="-126" y1="103.7" x2="-126" y2="104.7"/>
</g>
<g>
	<circle class="st3" cx="-258.8" cy="112.2" r="4.8"/>
	<circle class="st3" cx="-219.9" cy="112.2" r="5.1"/>
	<line class="st3" x1="-225" y1="112.7" x2="-250" y2="112.7"/>
	<path class="st3" d="M-214,112.7c0,0-1,0,1,0s2-2,2-4s-1-3-1-3s0-0.9,0-2c0-2-3-4-10-5"/>
	<path class="st3" d="M-264,112.7l-5-1c0,0,0-3,0-4c0-0.4,1-1,1-1c0-2,0-2,0-4c0-3,4.8-4.1,6-7c3-7,9-7,9-7h13c7,0,18,10,18,10"/>
	<path class="st3" d="M-245,98.7v-7c0,0,3,0,5,0c4,0,13,7,13,7H-245"/>
	<line class="st3" x1="-242" y1="103.7" x2="-239" y2="103.7"/>
	<line class="st3" x1="-216" y1="103.7" x2="-216" y2="104.7"/>
</g>
<g>
	<circle class="st3" cx="191.2" cy="115.7" r="4.8"/>
	<circle class="st3" cx="230.1" cy="115.7" r="5.1"/>
	<line class="st3" x1="225" y1="116.2" x2="200" y2="116.2"/>
	<path class="st3" d="M236,116.2c0,0-1,0,1,0s2-2,2-4s-1-3-1-3v0c0-0.7,0-1,0-2c0-2-4-5-4-5"/>
	<path class="st3" d="M214,92.2h8c4,0,12,10,12,10"/>
	<path class="st3" d="M218,102.2v-7c0,0,2,0,4,0s8,7,8,7H218"/>
	<line class="st3" x1="218" y1="107.2" x2="221" y2="107.2"/>
	<line class="st3" x1="234" y1="107.2" x2="234" y2="108.2"/>
	<line class="st3" x1="182" y1="111.2" x2="189" y2="111.2"/>
	<line class="st3" x1="198" y1="111.2" x2="213" y2="111.2"/>
	<line class="st3" x1="214" y1="92.2" x2="214" y2="111.2"/>
	<path class="st3" d="M186,116.2l-5-1v-30c0,0,23,0,30,0c1,0,3,0,10,7"/>
</g>
<g>
	<circle class="st3" cx="-256.8" cy="202.2" r="4.8"/>
	<circle class="st3" cx="-219.9" cy="202.2" r="5.1"/>
	<line class="st3" x1="-225" y1="202.7" x2="-248" y2="202.7"/>
	<path class="st3" d="M-214,202.7c0,0-1,0,1,0s2-2,2-4s-1-3-1-3v0c0-0.7,0-1,0-2c0-2-4-5-4-5"/>
	<path class="st3" d="M-236,178.7h8c4,0,12,10,12,10"/>
	<path class="st3" d="M-232,188.7v-7c0,0,2,0,4,0s8,7,8,7H-232"/>
	<line class="st3" x1="-232" y1="193.7" x2="-229" y2="193.7"/>
	<line class="st3" x1="-216" y1="193.7" x2="-216" y2="194.7"/>
	<line class="st3" x1="-269" y1="197.7" x2="-259" y2="197.7"/>
	<line class="st3" x1="-250" y1="197.7" x2="-236" y2="197.7"/>
	<line class="st3" x1="-236" y1="178.7" x2="-236" y2="197.7"/>
	<polyline class="st3" points="-269,197.7 -269,191.7 -236,191.7 	"/>
	<polyline class="st3" points="-262,202.7 -266,201.7 -266,197.7 	"/>
</g>
<g>
	<circle class="st3" cx="281.2" cy="112.2" r="4.8"/>
	<circle class="st3" cx="320.1" cy="112.2" r="5.1"/>
	<line class="st3" x1="315" y1="112.7" x2="290" y2="112.7"/>
	<path class="st3" d="M326,112.7c0,0-1,0,1,0s2-2,2-4s-1-3-1-3v0c0-0.7,0-1,0-2c0-2-4-5-4-5"/>
	<path class="st3" d="M276,112.7l-5-1c0,0,0-2.5,0-4c0-0.7,1-1,1-1c0-2,0-6,0-8c0-2.4,0.4-5.5,0.7-7.7c0.2-1.3,1.3-2.3,2.7-2.3H312
		c4,0,12,10,12,10"/>
	<path class="st3" d="M308,98.7v-7c0,0,2,0,4,0s8,7,8,7H308"/>
	<line class="st3" x1="308" y1="103.7" x2="311" y2="103.7"/>
	<line class="st3" x1="301" y1="103.7" x2="304" y2="103.7"/>
	<line class="st3" x1="324" y1="103.7" x2="324" y2="104.7"/>
	<rect x="293" y="91.7" class="st3" width="11" height="7"/>
	<path class="st3" d="M278,98.7c2,0,11,0,11,0v-7h-10C279,91.7,278,95.7,278,98.7z"/>
</g>
<g>
	<circle class="st3" cx="-166.8" cy="206.2" r="4.8"/>
	<circle class="st3" cx="-129.9" cy="206.2" r="5.1"/>
	<line class="st3" x1="-135" y1="206.7" x2="-158" y2="206.7"/>
	<path class="st3" d="M-124,206.7c0,0-1,0,1,0s2-2,2-4s-1-3-1-3v0c0-0.7,0-1,0-2c0-2-4-5-4-5"/>
	<path class="st3" d="M-146,182.7h8c4,0,12,10,12,10"/>
	<path class="st3" d="M-142,192.7v-7c0,0,2,0,4,0s8,7,8,7H-142"/>
	<line class="st3" x1="-142" y1="197.7" x2="-139" y2="197.7"/>
	<line class="st3" x1="-126" y1="197.7" x2="-126" y2="198.7"/>
	<line class="st3" x1="-179" y1="201.7" x2="-169" y2="201.7"/>
	<line class="st3" x1="-160" y1="201.7" x2="-146" y2="201.7"/>
	<line class="st3" x1="-146" y1="182.7" x2="-146" y2="201.7"/>
	<polyline class="st3" points="-179,201.7 -179,188.7 -152,188.7 -152,174.7 -129,174.7 -129,182.7 	"/>
	<polyline class="st3" points="-172,206.7 -176,205.7 -176,201.7 	"/>
	<line class="st3" x1="-129" y1="182.7" x2="-139" y2="182.7"/>
</g>
<g>
	<g>
		<circle class="st3" cx="-348.8" cy="201.2" r="4.8"/>
		<circle class="st3" cx="-310.9" cy="201.2" r="5.1"/>
		<line class="st3" x1="-316" y1="201.7" x2="-340" y2="201.7"/>
		<path class="st3" d="M-332,179.7c0,0,7.8-0.1,9.3,0.1c2.6,0.3,8.7,7.9,8.7,7.9"/>
		<path class="st3" d="M-354,201.7l-5-1c0,0,0-4,0-5c0-2,1-6,1-8h40c6.4,0,15,2,15,4c0,1.1,0,4,0,4s2,1,2,3s0,3-3,3c-2,0-1,0-1,0"/>
		<polyline class="st3" points="-332,179.7 -332,185.4 -332,201.7 		"/>
		<line class="st3" x1="-328" y1="192.7" x2="-325" y2="192.7"/>
		<line class="st3" x1="-328" y1="179.7" x2="-328" y2="186.7"/>
		<line class="st3" x1="-359" y1="197.7" x2="-353" y2="197.7"/>
		<line class="st3" x1="-341" y1="197.7" x2="-332" y2="197.7"/>
	</g>
	<line class="st3" x1="-306" y1="192.7" x2="-306" y2="193.7"/>
</g>
<g>
	<circle class="st3" cx="103.5" cy="113" r="4.1"/>
	<circle class="st3" cx="140.4" cy="113" r="4.4"/>
	<line class="st3" x1="136.1" y1="113.4" x2="112" y2="113.4"/>
	<path class="st3" d="M145.4,113.4c0,0,0.1,0,1.9,0c1.7,0,1.7-1.7,1.7-3.4s-0.9-2.6-0.9-2.6v0c0-0.6,0-0.9,0-1.7
		c0-1.7-3.4-4.3-3.4-4.3"/>
	<path class="st3" d="M99.1,113.4l-8.1-0.9c0,0,0-2.1,0-3.4c0-0.6,0.9-0.9,0.9-0.9c0-1.7,0-6.8,0-8.5c0-2.1,0.3-7.3,0.6-9.1
		c0.2-1.1,1.1-2,2.3-2c0,0,27.1,0,33,0c5.1,0,17,12.8,17,12.8"/>
	<path class="st3" d="M130.1,101.4v-6c0,0,1.7,0,3.4,0c0.9,0,6.8,6,6.8,6H130.1"/>
	<line class="st3" x1="130.1" y1="105.7" x2="132.7" y2="105.7"/>
	<line class="st3" x1="144.7" y1="105.7" x2="144.7" y2="106.6"/>
</g>
<g>
	<circle class="st3" cx="-348.8" cy="112.2" r="4.8"/>
	<circle class="st3" cx="-309.9" cy="112.2" r="5.1"/>
	<line class="st3" x1="-315" y1="112.7" x2="-340" y2="112.7"/>
	<path class="st3" d="M-304,112.7c0,0-1,0,1,0s2-2,2-4s-1-3-1-3v0c0-0.7,0-1,0-2c0-2-4-5-4-5"/>
	<path class="st3" d="M-354,112.7l-5-1c0,0,0-2.5,0-4c0-0.7,1-1,1-1c0-2,0-6,0-8c0-2.4,0.4-5.5,0.7-7.7c0.2-1.3,1.3-2.3,2.7-2.3
		h36.7c4,0,12,10,12,10"/>
	<path class="st3" d="M-322,98.7v-7c0,0,2,0,4,0s8,7,8,7H-322"/>
	<line class="st3" x1="-322" y1="103.7" x2="-319" y2="103.7"/>
	<line class="st3" x1="-336" y1="103.7" x2="-333" y2="103.7"/>
	<line class="st3" x1="-306" y1="103.7" x2="-306" y2="104.7"/>
	<rect x="-336" y="91.7" class="st3" width="10" height="7"/>
</g>
<g>
	<ellipse transform="matrix(0.7844 -0.6202 0.6202 0.7844 -174.8967 256.836)" class="st1" cx="282" cy="380" rx="10.5" ry="10.5"/>
	<ellipse transform="matrix(0.7844 -0.6202 0.6202 0.7844 -174.8967 256.836)" class="st1" cx="282" cy="380" rx="2.5" ry="2.5"/>
	<circle class="st0" cx="313" cy="360" r="2.5"/>
	<circle class="st0" cx="313" cy="352.5" r="0"/>
	<ellipse transform="matrix(0.7071 -0.7071 0.7071 0.7071 -160.6846 321.4593)" class="st0" cx="307.7" cy="354.7" rx="0" ry="0"/>
	<circle class="st0" cx="305.5" cy="360" r="0"/>
	<ellipse transform="matrix(0.7071 -0.7071 0.7071 0.7071 -168.1896 324.568)" class="st0" cx="307.7" cy="365.3" rx="0" ry="0"/>
	<circle class="st0" cx="313" cy="367.5" r="0"/>
	<ellipse transform="matrix(0.7071 -0.7071 0.7071 0.7071 -165.081 332.073)" class="st0" cx="318.3" cy="365.3" rx="0" ry="0"/>
	<circle class="st0" cx="320.5" cy="360" r="0"/>
	<ellipse transform="matrix(0.7071 -0.7071 0.7071 0.7071 -157.576 328.9643)" class="st0" cx="318.3" cy="354.7" rx="0" ry="0"/>
	<circle class="st0" cx="313" cy="360" r="11.5"/>
	<path class="st1" d="M287.9,382.7c-0.4,0.9-1,1.7-1.9,2.4"/>
	<path class="st1" d="M276.9,384c-2.2-2.8-1.7-6.9,1.1-9.1s6.9-1.7,9.1,1.1c0.8,1,1.2,2.1,1.4,3.3"/>
	<circle class="st0" cx="322.5" cy="395.5" r="6"/>
	<line class="st0" x1="301.5" y1="349.5" x2="274.5" y2="372.5"/>
	<line class="st0" x1="328.5" y1="359.5" x2="328.5" y2="395.5"/>
	<line class="st0" x1="280.5" y1="390.5" x2="321.5" y2="401.5"/>
	<line class="st0" x1="322.5" y1="395.5" x2="322.5" y2="395.5"/>
	<circle class="st0" cx="313" cy="360" r="15.5"/>
	<path class="st0" d="M280.3,390.4c-5-0.8-8.8-5.2-8.8-10.4c0-3,1.3-5.7,3.3-7.6"/>
</g>
<g>
	<polygon class="st0" points="-304.5,484.5 -301.5,484.5 -301.5,454.5 -304.5,454.5 -308.5,465.5 -308.5,478.5 	"/>
	<rect x="-354.5" y="459.5" class="st0" width="5" height="18"/>
	<line class="st0" x1="-358.5" y1="474.5" x2="-358.5" y2="462.5"/>
	<line class="st0" x1="-358.5" y1="468.5" x2="-355.5" y2="468.5"/>
	<line class="st0" x1="-308.5" y1="478.5" x2="-313.5" y2="478.5"/>
	<line class="st0" x1="-308.5" y1="465.5" x2="-313.5" y2="465.5"/>
	<polygon class="st0" points="-349.5,453.5 -349.5,477.5 -344.5,484.5 -317.5,484.5 -313.5,478.5 -313.5,465.5 -316.5,459.5 
		-320.5,459.5 -320.5,453.5 	"/>
	<polyline class="st0" points="-331.5,448.5 -324.5,448.5 -324.5,441.5 -344.5,441.5 -344.5,448.5 -337.5,448.5 	"/>
	<line class="st0" x1="-339.5" y1="448.5" x2="-339.5" y2="453.5"/>
	<line class="st0" x1="-329.5" y1="448.5" x2="-329.5" y2="453.5"/>
	<line class="st0" x1="-320.5" y1="459.5" x2="-320.5" y2="465.5"/>
	<line class="st0" x1="-320.5" y1="469.5" x2="-320.5" y2="472.5"/>
	<polyline class="st1" points="-337.5,459.5 -330.5,459.5 -333.5,466.5 -327.5,466.5 -336.5,479.5 -334.5,469.5 -341.5,469.5 
		-338.7,462.5 	"/>
</g>
<g>
	<circle class="st0" cx="210" cy="373" r="28.5"/>
	<circle class="st0" cx="210" cy="373" r="22.5"/>
	<path class="st0" d="M214.5,391c-1.4,0.4-2.9,0.5-4.5,0.5c-1.5,0-3.1-0.2-4.5-0.5"/>
	<path class="st0" d="M226.7,365c1.2,2.4,1.8,5.1,1.8,8c0,0.9-0.1,1.7-0.2,2.6"/>
	<path class="st0" d="M232.3,375.7c-0.8-0.1-1.5-0.2-2.3-0.2c-8.6,0-15.5,6.9-15.5,15.5c0,1.4,0.2,2.7,0.5,3.9"/>
	<path class="st0" d="M205,394.9c0.3-1.3,0.5-2.6,0.5-3.9c0-8.6-6.9-15.5-15.5-15.5c-0.8,0-1.6,0.1-2.3,0.2"/>
	<path class="st0" d="M188.3,366.9c6.3-2.8,13.7-4.4,21.7-4.4s15.4,1.6,21.7,4.4"/>
	<circle class="st1" cx="210" cy="373" r="4.5"/>
	<path class="st0" d="M191.7,375.5c-0.1-0.8-0.2-1.6-0.2-2.5c0-2.9,0.6-5.6,1.8-8"/>
</g>
<g>
	<g>
		<circle class="st3" cx="-259.2" cy="482" r="4.5"/>
		<circle class="st3" cx="-220.2" cy="482" r="4.5"/>
		<line class="st3" x1="-225" y1="482.5" x2="-251" y2="482.5"/>
		<path class="st3" d="M-215,482.5c0,0-1,0,1,0c3,0,3-5,3-7c0-1-3-5-16-5h-33c-3,0-7-1-7-1"/>
		<path class="st3" d="M-264,482.5l-5-1c0,0,0-4,0-5c0-2,2-5,2-7s4-7,4-7s12,0,23,0c6,0,14.3,8,14.3,8"/>
		<polyline class="st3" points="-243,463.5 -241,470.5 -241,479.5 		"/>
		<line class="st3" x1="-237" y1="474.5" x2="-235" y2="474.5"/>
		<line class="st3" x1="-251.5" y1="474.5" x2="-249.5" y2="474.5"/>
		<line class="st3" x1="-255" y1="463.5" x2="-256" y2="470.5"/>
		<line class="st3" x1="-256" y1="470.5" x2="-256" y2="474.5"/>
	</g>
	<circle class="st1" cx="-261.3" cy="452.7" r="4.8"/>
	<circle class="st1" cx="-242.3" cy="452.7" r="4.8"/>
	<line class="st1" x1="-261.3" y1="452.7" x2="-253" y2="452.7"/>
	<line class="st1" x1="-255.4" y1="445.6" x2="-261.3" y2="452.7"/>
	<line class="st1" x1="-253" y1="452.7" x2="-256.6" y2="442"/>
	<line class="st1" x1="-242.3" y1="452.7" x2="-245.8" y2="440.8"/>
	<line class="st1" x1="-253" y1="452.7" x2="-245.8" y2="444.4"/>
	<line class="st1" x1="-255.4" y1="445.6" x2="-245.8" y2="444.4"/>
	<line class="st1" x1="-260.1" y1="440.8" x2="-254.2" y2="442"/>
	<line class="st1" x1="-245.8" y1="440.8" x2="-243.5" y2="439.5"/>
	<line class="st3" x1="-242" y1="460.5" x2="-242" y2="462.5"/>
	<line class="st3" x1="-261" y1="460.5" x2="-261" y2="462.5"/>
</g>
<g>
	<path class="st0" d="M-167.5,483.5v5c0,1.1-0.9,2-2,2h-4c-1.1,0-2-0.9-2-2v-5"/>
	<line class="st0" x1="-170.5" y1="483.5" x2="-152.1" y2="483.5"/>
	<path class="st0" d="M-175.5,483.5c-1.7,0-3-1.3-3-3V472c0-1.9,0.2-3.9,0.6-5.8l5.3-25.5c0.6-3.1,3.4-5.3,6.5-5.3h15.6"/>
	<path class="st0" d="M-124,461.9l-4.4-21.1c-0.6-3.1-3.4-5.3-6.5-5.3h-15.6"/>
	<line class="st0" x1="-178.5" y1="455.5" x2="-176.5" y2="455.5"/>
	<line class="st0" x1="-124.5" y1="455.5" x2="-122.5" y2="455.5"/>
	<path class="st0" d="M-152.5,469.5c-3,0-8-1-8-1l1.2,4.3c0.5,1.6,1.9,2.7,3.6,2.7h2.2"/>
	<circle class="st0" cx="-159" cy="452" r="2.5"/>
	<path class="st0" d="M-145,458.5c0-2.2,1.8-4,4-4s4,1.8,4,4"/>
	<path class="st0" d="M-163,458.5c0-2.2,1.8-4,4-4s4,1.8,4,4"/>
	<circle class="st0" cx="-141" cy="452" r="2.5"/>
	<circle class="st1" cx="-135.5" cy="476.5" r="14"/>
	<g>
		<line class="st1" x1="-135.5" y1="480.5" x2="-135.5" y2="477.5"/>
		<line class="st1" x1="-135.5" y1="484.5" x2="-135.5" y2="484.5"/>
		<path class="st1" d="M-135.5,469.5c2.2,0,4,1.8,4,4s-1.8,4-4,4"/>
		<path class="st1" d="M-138.7,471.1c0.7-0.9,1.9-1.6,3.2-1.6"/>
	</g>
	<path class="st0" d="M-177.5,464.5c0,0,2,2,10,3v1.7c0,1.3-1,2.3-2.3,2.3h-7.7"/>
	<path class="st0" d="M-130.5,458.5h-40l2.4-12c0.3-1.7,1.9-3,3.6-3h28c1.8,0,3.3,1.2,3.6,3L-130.5,458.5z"/>
	<line class="st0" x1="-153.5" y1="479.5" x2="-174.5" y2="479.5"/>
	<line class="st0" x1="-152.5" y1="446.5" x2="-147.5" y2="446.5"/>
</g>
<g>
	<path class="st0" d="M-255.5,569v5c0,1.1-0.9,2-2,2h-6c-1.1,0-2-0.9-2-2v-5"/>
	<path class="st0" d="M-212.2,551c-0.4-1-0.9-1.9-1.6-2.8l-2.7-3.2"/>
	<line class="st0" x1="-259.5" y1="569" x2="-239.1" y2="569"/>
	<path class="st0" d="M-263.5,545l-2.7,3.2c-1.5,1.8-2.3,4.1-2.3,6.4V566c0,1.7,1.3,3,3,3"/>
	<path class="st0" d="M-216.5,545l-4.7-12.3c-1.1-2.8-3.6-4.8-6.5-5.2c-2.3-0.3-7.6-0.6-12.3-0.6s-10,0.2-12.3,0.6
		c-3,0.4-5.5,2.4-6.5,5.2l-4.7,12.3"/>
	<path class="st0" d="M-221.1,545l-3.6-9.5c-0.8-2.2-2.8-3.7-5.1-4c-1.8-0.2-6.5-0.4-10.2-0.4s-8.4,0.2-10.2,0.4
		c-2.3,0.3-4.2,1.8-5.1,4l-3.6,9.5H-221.1z"/>
	<circle class="st0" cx="-259.5" cy="554.5" r="3"/>
	<line class="st0" x1="-216.5" y1="545" x2="-211.5" y2="545"/>
	<line class="st0" x1="-268.5" y1="545" x2="-263.5" y2="545"/>
	<polyline class="st0" points="-239.5,558 -250.5,558 -250.5,564 -239.5,564 	"/>
	<circle class="st0" cx="-247" cy="537.5" r="2.5"/>
	<path class="st0" d="M-237,544c0-2.2,1.8-4,4-4s4,1.8,4,4"/>
	<path class="st0" d="M-251,544c0-2.2,1.8-4,4-4s4,1.8,4,4"/>
	<circle class="st0" cx="-233" cy="537.5" r="2.5"/>
	<g>
		<g>
			<g>
				<path class="st1" d="M-235.5,556.1v7.6c0,3.5,1.2,6.8,3.5,9.8c2.3,2.9,5.1,4.8,8.5,5.6c3.4-0.8,6.2-2.7,8.5-5.6
					c2.3-2.9,3.5-6.2,3.5-9.8v-7.6l-12-5.1L-235.5,556.1z"/>
			</g>
		</g>
	</g>
	<line class="st1" x1="-225.5" y1="571" x2="-221.5" y2="571"/>
	<polyline class="st1" points="-223.5,571 -223.5,563 -225.5,563 	"/>
	<line class="st1" x1="-223.5" y1="559" x2="-223.5" y2="559"/>
</g>
<g>
	<path class="st1" d="M228.8,453.3L214.6,439c-1.8-1.8-4.7-1.8-6.5,0c0,0,0,0,0,0l-25.2,25.2c-1.8,1.8-1.8,4.7,0,6.5c0,0,0,0,0,0
		l7.7,7.7"/>
	<path class="st0" d="M197.4,457.2h38.1c1.6,0,2.9,1.3,2.9,2.9v25.2c0,1.6-1.3,2.9-2.9,2.9h-38.1c-1.6,0-2.9-1.3-2.9-2.9v-25.2
		C194.5,458.5,195.8,457.2,197.4,457.2z"/>
	<line class="st0" x1="194.5" y1="463.8" x2="238.5" y2="463.8"/>
	<line class="st0" x1="194.5" y1="470.1" x2="238.5" y2="470.1"/>
	<line class="st0" x1="200.9" y1="476.5" x2="209.5" y2="476.5"/>
	<line class="st0" x1="200.9" y1="482.8" x2="206.3" y2="482.8"/>
	<line class="st0" x1="213.8" y1="476.5" x2="219.2" y2="476.5"/>
	<line class="st1" x1="216.5" y1="441.1" x2="204" y2="453.6"/>
	<line class="st1" x1="191" y1="466.6" x2="185.5" y2="472.1"/>
	<line class="st1" x1="220.5" y1="445.1" x2="212" y2="453.6"/>
	<line class="st1" x1="190.5" y1="475.1" x2="189" y2="476.6"/>
</g>
<g>
	<path class="st0" d="M-165.9,524.6c-1.1,0-2.2,0.2-3.3,0.4l5.8,5.8l-0.1,8.7l-8.7,0.1l-5.8-5.8c-0.3,1-0.4,2.1-0.4,3.3
		c0,6.9,5.6,12.5,12.5,12.5s12.5-5.6,12.5-12.5S-159,524.6-165.9,524.6z"/>
	<g>
		<path class="st0" d="M-154.4,542.6l31.5,31.5c1.7,1.7,1.7,4.3,0,6l0,0c-1.7,1.7-4.3,1.7-6,0l-31.5-31.5"/>
	</g>
	<line class="st0" x1="-126.3" y1="576.6" x2="-126.3" y2="576.6"/>
	<path class="st1" d="M-149.8,541.6c6.4,0,11.5,5.1,11.5,11.5"/>
	<path class="st1" d="M-149.8,564.6c-6.4,0-11.5-5.1-11.5-11.5"/>
	<path class="st1" d="M-130.9,561c0.5-1.2,0.9-2.5,1.2-3.8l4.4-0.8v-6.5l-4.4-0.8c-0.5-2.6-1.6-5.1-3-7.2l2.6-3.7l-4.6-4.6l-3.7,2.6
		c-2.2-1.4-4.6-2.5-7.2-3l-0.8-4.4h-5.5"/>
	<path class="st1" d="M-174.3,550.8v5.5l4.4,0.8c0.5,2.6,1.6,5.1,3,7.2l-2.6,3.7l4.6,4.6l3.7-2.6c2.2,1.4,4.6,2.5,7.2,3l0.8,4.4h6.5
		l0.8-4.4c1.2-0.2,2.4-0.6,3.5-1.1"/>
</g>
<g>
	<g>
		<circle class="st3" cx="297.1" cy="478" r="6"/>
		<path class="st3" d="M297.1,475.5c1.4,0,2.5,1.1,2.5,2.5c0,1.4-1.1,2.5-2.5,2.5c-1.4,0-2.5-1.1-2.5-2.5"/>
		<line class="st3" x1="290.7" y1="478.6" x2="271.6" y2="478.6"/>
		<path class="st3" d="M304.2,478.6c0,0-1.3,0,1.3,0c4,0,4-6.7,4-9.4c0-1.3-2.7-6.7-20.2-6.7h-17.7"/>
		<path class="st3" d="M271.4,451.6c6.7,0,15.6,10.8,15.6,10.8"/>
		<line class="st3" x1="271.8" y1="467.8" x2="275.8" y2="467.8"/>
	</g>
	<line class="st3" x1="271.6" y1="475" x2="291.6" y2="475"/>
	<line class="st3" x1="302.6" y1="475" x2="308.6" y2="475"/>
	<path class="st3" d="M306.6,466h-3.5c-0.8,0-1.5,0.7-1.5,1.5l0,0c0,0.8,0.7,1.5,1.5,1.5h6.5"/>
	<path class="st3" d="M306.6,448c-1.1-0.7-7.2-1.3-16.4,13.7"/>
	<line class="st3" x1="281.6" y1="457" x2="279.6" y2="462"/>
	<circle class="st1" cx="326.1" cy="444.5" r="2.5"/>
	<path class="st1" d="M315.2,461.6c1,2,3,3.4,5.4,3.4c3.3,0,6-2.7,6-6c0-3.3-2.7-6-6-6c-2.6,0-4.9,1.7-5.7,4"/>
	<path class="st1" d="M321.6,453.1C321.6,453,321.6,453,321.6,453.1c0-3.4-2.7-6.1-6-6.1s-6,2.7-6,6c0,1.4,0.5,2.7,1.3,3.7
		c-1.3,0.5-2.3,1.8-2.3,3.3c0,1.9,1.6,3.5,3.5,3.5c1.4,0,2.5-0.8,3.1-1.9c1,2,3,3.4,5.4,3.4c3.3,0,6-2.7,6-6
		C326.6,456,324.4,453.6,321.6,453.1z"/>
</g>
<g>
	<path class="st0" d="M26.7,444.5c0-1.8,1.5-3.2,3.2-3.2c1.8,0,3.2,1.5,3.2,3.2"/>
	<path class="st0" d="M33.2,459.9c0-1.8,1.5-3.2,3.2-3.2c1.8,0,3.2,1.5,3.2,3.2"/>
	<path class="st0" d="M21.5,464.3c0-2.9,2.3-5.2,5.2-5.2"/>
	<path class="st0" d="M39.6,461.3c0-1.8,1.5-3.2,3.2-3.2c1.8,0,3.2,1.5,3.2,3.2"/>
	<path class="st0" d="M46.1,463.9c0-1.8,1.5-3.2,3.2-3.2c1.8,0,3.2,1.5,3.2,3.2"/>
	<line class="st0" x1="26.7" y1="444.5" x2="26.7" y2="468.4"/>
	<line class="st0" x1="33.2" y1="444.5" x2="33.2" y2="463.3"/>
	<line class="st0" x1="39.6" y1="459.9" x2="39.6" y2="463.3"/>
	<line class="st0" x1="46.1" y1="461.3" x2="46.1" y2="465.2"/>
	<path class="st0" d="M21.5,472.9c0,8.6,7,15.6,15.6,15.6s15.6-7,15.6-15.6"/>
	<path class="st0" d="M52.6,468.9c0,2.8,0,3.7,0,3.7S52.6,471.7,52.6,468.9c0-2.8,0-5,0-5S52.6,466.1,52.6,468.9z"/>
	<line class="st0" x1="21.5" y1="464.3" x2="21.5" y2="473.1"/>
	<circle class="st1" cx="9" cy="445" r="7.5"/>
	<circle class="st1" cx="51" cy="445" r="7.5"/>
	<path class="st1" d="M23.1,447.9c-0.4-0.9-0.6-1.9-0.6-2.9c0-1,0.2-2,0.6-2.9c0.4-0.9,0.9-1.7,1.6-2.4c0.7-0.7,1.5-1.2,2.4-1.6
		s1.9-0.6,2.9-0.6s2,0.2,2.9,0.6c0.9,0.4,1.7,0.9,2.4,1.6c0.7,0.7,1.2,1.5,1.6,2.4c0.4,0.9,0.6,1.9,0.6,2.9c0,1-0.2,2-0.6,2.9"/>
</g>
<g>
	<polyline class="st0" points="114.5,469.2 114.5,491.2 95.5,478.2 95.5,470.2 	"/>
	<polygon class="st0" points="110.5,480.2 91.5,467.2 95.5,456.2 114.5,469.2 	"/>
	<polyline class="st0" points="144.5,469.2 144.5,478.2 114.5,491.2 114.5,469.2 	"/>
	<polygon class="st0" points="148.5,467.2 118.5,480.2 114.5,469.2 144.5,456.2 	"/>
	<path class="st1" d="M114.6,464.2c0.8-7.9,6-16.2,12.4-19.3c6.7-3.2,12.1,0.6,12.5,8.4"/>
	<path class="st1" d="M121.3,461.2c0.6-3.4,2.9-6.8,5.7-8.1c2.9-1.4,5.3,0.1,5.7,3.2"/>
	<line class="st1" x1="121.9" y1="436.1" x2="134.5" y2="444.1"/>
	<g>
		<polyline class="st1" points="115.3,435.5 117,438.4 120.3,438.7 122,441.6 125.4,441.9 127.1,444.8 		"/>
	</g>
	<g>
		<polyline class="st1" points="103.3,449.5 105,452.4 108.3,452.7 110,455.6 113.4,455.9 115.1,458.8 		"/>
	</g>
	<g>
		<polyline class="st1" points="107.3,440.5 109,443.4 112.3,443.7 114,446.6 117.4,446.9 119.1,449.8 		"/>
	</g>
	<path class="st1" d="M101,455c0.7-7.8,5.9-16,12.2-19c3.4-1.6,6.4-1.4,8.7,0.2"/>
</g>
<g>
	<path class="st0" d="M-35.5,531.9h-34"/>
	<path class="st0" d="M-69.1,531.9h-15.4c-2.2,0-4,1.8-4,4v43.9h57v-43.9c0-2.2-1.8-4-4-4l0,0"/>
	<line class="st0" x1="-88.5" y1="574.2" x2="-31.5" y2="574.2"/>
	<path class="st0" d="M-80.5,531.9c0-3.1,2.6-5.7,5.7-5.7s5.7,2.6,5.7,5.7c0,3.1-2.6,5.7-5.7,5.7"/>
	<path class="st0" d="M-50.9,531.9c0-3.1,2.6-5.7,5.7-5.7s5.7,2.6,5.7,5.7c0,3.1-2.6,5.7-5.7,5.7"/>
	<circle class="st1" cx="-60" cy="547.4" r="2.3"/>
	<circle class="st1" cx="-50.9" cy="547.4" r="2.3"/>
	<circle class="st1" cx="-41.8" cy="547.4" r="2.3"/>
	<circle class="st1" cx="-60" cy="556.6" r="2.3"/>
	<circle class="st1" cx="-50.9" cy="556.6" r="2.3"/>
	<circle class="st1" cx="-41.8" cy="556.6" r="2.3"/>
	<circle class="st1" cx="-78.2" cy="556.6" r="2.3"/>
	<circle class="st1" cx="-69.1" cy="556.6" r="2.3"/>
	<circle class="st1" cx="-60" cy="565.7" r="2.3"/>
	<circle class="st1" cx="-50.9" cy="565.7" r="2.3"/>
	<circle class="st1" cx="-78.2" cy="565.7" r="2.3"/>
	<circle class="st1" cx="-69.1" cy="565.7" r="2.3"/>
	<line class="st1" x1="-43.5" y1="563.5" x2="-39.5" y2="567.5"/>
	<line class="st1" x1="-39.5" y1="563.5" x2="-43.5" y2="567.5"/>
</g>
<g>
	<path class="st0" d="M-62.6,460.8c1.1-0.5,1.9-1.5,2.1-2.7c1.4-6.3,1.6-12.8,0.8-19.2c-0.2-1.8-1.5-3.2-3.2-3.5
		c-7.4-1.5-15-1.5-22.4,0c-1.7,0.3-2.9,1.7-3.2,3.4c-1.1,6.5-0.8,13.1,0.9,19.5c0.3,1.1,1,2,2.1,2.5c0,0,4.4,2.2,11.3,2.2
		S-62.6,460.8-62.6,460.8z"/>
	<path class="st0" d="M-79.1,463l-0.1,23.7l5,5l5.2-5l0-23.7"/>
	<circle class="st0" cx="-74.1" cy="444.1" r="3"/>
	<line class="st0" x1="-75.1" y1="484.1" x2="-75.1" y2="463.1"/>
	<path class="st1" d="M-55.8,443.2l17,17c1.6,1.6,1.6,4.1,0,5.7L-48.9,476c-1.5,1.5-4,1.6-5.5,0.1l-10-10.2"/>
	<path class="st1" d="M-36.6,458c2.8,2.8,2.8,7.3,0,10.1"/>
	<path class="st1" d="M-34.1,455.5c4.2,4.2,4.2,10.9,0,15.1"/>
	
		<rect x="-52.7" y="463.1" transform="matrix(0.7071 -0.7071 0.7071 0.7071 -343.213 101.3839)" class="st1" width="6.9" height="3.8"/>
	<path class="st1" d="M-54.5,463.3c-1-1-1-2.6,0-3.5s2.6-1,3.5,0"/>
	<line class="st1" x1="-54.5" y1="463.3" x2="-53" y2="464.7"/>
	<line class="st1" x1="-51.3" y1="448.7" x2="-55.3" y2="452.7"/>
</g>
<g>
	<line class="st0" x1="-358" y1="557" x2="-352" y2="557"/>
	<line class="st0" x1="-354.6" y1="570.8" x2="-352.8" y2="569.8"/>
	<line class="st0" x1="-306.9" y1="571.7" x2="-308.7" y2="570.7"/>
	<line class="st0" x1="-303" y1="558" x2="-309" y2="558"/>
	<line class="st0" x1="-306.4" y1="544.2" x2="-308.2" y2="545.2"/>
	<line class="st0" x1="-330" y1="530" x2="-330" y2="536"/>
	<line class="st0" x1="-343.8" y1="533.4" x2="-342.8" y2="535.2"/>
	<line class="st0" x1="-354.1" y1="543.3" x2="-352.3" y2="544.3"/>
	<path class="st1" d="M-318.1,537L-318.1,537c-0.6-0.4-1.4-0.2-1.8,0.3l-13.9,16.7c-2,2.4-1.3,6,1.5,7.6l0,0
		c2.8,1.6,6.3,0.4,7.4-2.5l7.5-20.4C-317.2,538-317.5,537.3-318.1,537z"/>
	<g>
		<path class="st0" d="M-302,557c0-15.5-12.5-28-28-28s-28,12.5-28,28c0,7.8,3.2,14.9,8.4,20h39.2C-305.2,571.9-302,564.8-302,557z"
			/>
	</g>
	<line class="st0" x1="-340" y1="568" x2="-340" y2="571"/>
	<line class="st0" x1="-335" y1="568" x2="-335" y2="571"/>
	<line class="st0" x1="-330" y1="568" x2="-330" y2="571"/>
	<line class="st0" x1="-325" y1="568" x2="-325" y2="571"/>
	<line class="st0" x1="-320" y1="570" x2="-320" y2="571"/>
</g>
</svg>
