<?xml version="1.0" encoding="utf-8"?>
<!-- Generator: Adobe Illustrator 21.1.0, SVG Export Plug-In . SVG Version: 6.00 Build 0)  -->
<svg version="1.1" id="Layer_1" xmlns="http://www.w3.org/2000/svg" xmlns:xlink="http://www.w3.org/1999/xlink" x="0px" y="0px"
	 viewBox="0 0 55 50" style="enable-background:new 0 0 55 50;" xml:space="preserve">
<style type="text/css">
	.st0{fill:none;stroke:#33414E;stroke-width:1.8333;stroke-linecap:round;stroke-linejoin:round;}
	.st1{fill:none;stroke:#BA0C2F;stroke-width:1.8333;stroke-linecap:round;stroke-linejoin:round;}
</style>
<g>
	<circle class="st0" cx="9.8" cy="18.9" r="4.1"/>
	<circle class="st0" cx="45.5" cy="18.9" r="4.1"/>
	<line class="st0" x1="41.2" y1="19.3" x2="17.3" y2="19.3"/>
	<path class="st0" d="M50.3,19.3c0,0-0.9,0,0.9,0c2.8,0,2.8-4.6,2.8-6.4c0-0.9-2.8-4.6-14.7-4.6H9.1c-2.7,0-6.4-0.9-6.4-0.9"/>
	<path class="st0" d="M5.4,19.3l-4.6-0.9c0,0,0-3.7,0-4.6c0-1.8,1.8-4.6,1.8-6.4S6.3,1,6.3,1s11,0,21.1,0c5.5,0,13.1,7.3,13.1,7.3"
		/>
	<polyline class="st0" points="24.7,1.9 26.5,8.3 26.5,16.6 	"/>
	<line class="st0" x1="30.2" y1="12" x2="32" y2="12"/>
	<line class="st0" x1="16.9" y1="12" x2="18.7" y2="12"/>
	<line class="st0" x1="13.7" y1="1.9" x2="12.8" y2="8.3"/>
	<line class="st0" x1="12.8" y1="8.3" x2="12.8" y2="12"/>
</g>
<g>
	<circle class="st1" cx="9.8" cy="42.9" r="4.1"/>
	<circle class="st1" cx="45.5" cy="42.9" r="4.1"/>
	<line class="st1" x1="41.2" y1="43.3" x2="17.3" y2="43.3"/>
	<path class="st1" d="M50.3,43.3c0,0-0.9,0,0.9,0c2.8,0,2.8-4.6,2.8-6.4c0-0.9-2.8-4.6-14.7-4.6H9.1c-2.7,0-6.4-0.9-6.4-0.9"/>
	<path class="st1" d="M5.4,43.3l-4.6-0.9c0,0,0-3.7,0-4.6c0-1.8,1.8-4.6,1.8-6.4c0-1.8,3.7-6.4,3.7-6.4s11,0,21.1,0
		c5.5,0,13.1,7.3,13.1,7.3"/>
	<polyline class="st1" points="24.7,25.9 26.5,32.3 26.5,40.6 	"/>
	<line class="st1" x1="30.2" y1="36" x2="32" y2="36"/>
	<line class="st1" x1="16.9" y1="36" x2="18.7" y2="36"/>
	<line class="st1" x1="13.7" y1="25.9" x2="12.8" y2="32.3"/>
	<line class="st1" x1="12.8" y1="32.3" x2="12.8" y2="36"/>
</g>
</svg>
