<?xml version="1.0" encoding="utf-8"?>
<!-- Generator: Adobe Illustrator 21.1.0, SVG Export Plug-In . SVG Version: 6.00 Build 0)  -->
<svg version="1.1" id="Layer_1" xmlns="http://www.w3.org/2000/svg" xmlns:xlink="http://www.w3.org/1999/xlink" x="0px" y="0px"
	 viewBox="0 0 60 60" style="enable-background:new 0 0 60 60;" xml:space="preserve">
<style type="text/css">
	.st0{fill:none;stroke:#000000;stroke-width:2;stroke-linecap:round;stroke-linejoin:round;stroke-miterlimit:10;}
	.st1{fill:none;stroke:#BA0C2F;stroke-width:2;stroke-linecap:round;stroke-linejoin:round;stroke-miterlimit:10;}
	.st2{fill:#BA0C2F;}
	.st3{fill:none;stroke:#000000;stroke-width:2;stroke-linecap:round;stroke-linejoin:round;}
</style>
<g>
	<path class="st0" d="M368-156.6c0-12.2,9.8-22,22-22s22,9.8,22,22"/>
	<path class="st0" d="M412.3-139.6c0,8.8-7.2,16-16,16"/>
	<rect x="409.5" y="-156.1" class="st0" width="5" height="15.5"/>
	<rect x="365.5" y="-156.1" class="st0" width="5" height="15.5"/>
	<path class="st0" d="M393.3-121.4h-6.5c-1.2,0-2.3-1-2.3-2.3l0,0c0-1.2,1-2.3,2.3-2.3h6.5c1.2,0,2.3,1,2.3,2.3l0,0
		C395.5-122.4,394.5-121.4,393.3-121.4z"/>
	<path class="st1" d="M381.3-140.6c0,4.8,3.9,8.8,8.8,8.8s8.8-3.9,8.8-8.8H381.3z"/>
	<path class="st0" d="M414.5-144.4c2.2,0,4-1.8,4-4s-1.8-4-4-4V-144.4z"/>
	<path class="st0" d="M365.5-152.4c-2.2,0-4,1.8-4,4s1.8,4,4,4V-152.4z"/>
	<path class="st1" d="M386.5-147.6c0-1.7-1.3-3-3-3s-3,1.3-3,3"/>
	<path class="st1" d="M399.5-147.6c0-1.7-1.3-3-3-3s-3,1.3-3,3"/>
	<path class="st1" d="M374.5-154.6c5,0,11-8,8-17c3,9,8,18,23,16"/>
</g>
<g>
	<path class="st0" d="M465.5-138.5v-38c0-1.1,0.9-2,2-2h39c1.1,0,2,0.9,2,2v46c0,5-4,9-9,9h-39c-5,0-9-4-9-9v-2c0-1.1,0.9-2,2-2h39
		c1.1,0,2,0.9,2,2v1c0,5,5,6,5,6"/>
	<line class="st1" x1="482.5" y1="-168.5" x2="501.5" y2="-168.5"/>
	<line class="st1" x1="472.5" y1="-168.5" x2="476.5" y2="-168.5"/>
	<line class="st1" x1="497.5" y1="-157.5" x2="501.5" y2="-157.5"/>
	<line class="st1" x1="472.5" y1="-157.5" x2="491.5" y2="-157.5"/>
	<line class="st1" x1="487.5" y1="-146.5" x2="501.5" y2="-146.5"/>
	<line class="st1" x1="472.5" y1="-146.5" x2="481.5" y2="-146.5"/>
	<circle class="st1" cx="479.5" cy="-168.5" r="3"/>
	<circle class="st1" cx="494.5" cy="-157.5" r="3"/>
	<circle class="st1" cx="484.5" cy="-146.5" r="3"/>
</g>
<g>
	<path class="st0" d="M674.5-73.5c-0.6-0.4-1.2-0.7-1.8-1"/>
	<path class="st0" d="M683.4-63.5c-0.7-1.8-1.7-3.5-2.9-5"/>
	<path class="st0" d="M676.5-42.8c3.2-2.3,5.6-5.3,6.9-8.7"/>
	<path class="st0" d="M647.8-39.8c3.5,1.5,7.5,2.3,11.7,2.3c4.5,0,8.8-1,12.5-2.7"/>
	<path class="st0" d="M646.3-74.5c-7.1,3.5-11.8,9.8-11.8,17c0,6.2,3.5,11.7,9,15.4"/>
	<path class="st1" d="M669-70.7c-2.8-1.3-6-2-9.5-2s-6.7,0.7-9.5,2"/>
	<polyline class="st0" points="683.5,-63.5 688.5,-63.5 688.5,-51.5 683.5,-51.5 	"/>
	<path class="st0" d="M634.5-57.5L634.5-57.5c-1.7,0-3-1.3-3-3v-4"/>
	<path class="st1" d="M653.2-71.9c-2-1.7-3.2-4.3-3.2-7.1c0-5.2,4.3-9.5,9.5-9.5s9.5,4.3,9.5,9.5c0,2.9-1.3,5.4-3.2,7.1"/>
	<polyline class="st0" points="643.5,-42.1 643.5,-31.5 650.5,-31.5 651.1,-38.7 	"/>
	<polyline class="st0" points="668.9,-39 669.5,-31.5 676.5,-31.5 676.5,-42.8 	"/>
	<polyline class="st0" points="674.5,-73.5 681,-77 680.5,-68.5 	"/>
	<path class="st0" d="M673-63.9c0-1.4,1.1-2.5,2.5-2.5s2.5,1.1,2.5,2.5"/>
	<path class="st1" d="M657.5-81.5c0-1.1,0.9-2,2-2"/>
	<line class="st1" x1="657.5" y1="-81.5" x2="657.5" y2="-76.5"/>
	<line class="st1" x1="656.5" y1="-76.5" x2="661.5" y2="-76.5"/>
	<line class="st1" x1="657.5" y1="-80.5" x2="659.5" y2="-80.5"/>
</g>
<g>
	<path class="st1" d="M313.5-140c0-1.1,0.9-2,2-2"/>
	<line class="st1" x1="313.5" y1="-140" x2="313.5" y2="-135"/>
	<line class="st1" x1="312.5" y1="-135" x2="317.5" y2="-135"/>
	<line class="st1" x1="313.5" y1="-139" x2="315.5" y2="-139"/>
	<g>
		<path class="st1" d="M314.5-124c-3.9,0-7.4-1.6-9.9-4.1c-2.5-2.5-4.1-6-4.1-9.9s1.6-7.4,4.1-9.9"/>
		<path class="st1" d="M314.5-152c3.9,0,7.4,1.6,9.9,4.1c2.5,2.5,4.1,6,4.1,9.9s-1.6,7.4-4.1,9.9"/>
		<polyline class="st1" points="300.5,-149 306.4,-149 306.4,-143.1 		"/>
		<polyline class="st1" points="328.5,-127 322.6,-127 322.6,-132.9 		"/>
	</g>
	<path class="st0" d="M284.5-134v5c0,1.1-0.9,2-2,2h-6c-1.1,0-2-0.9-2-2v-5"/>
	<path class="st0" d="M328.5-148.4c0-2.3-0.8-4.6-2.3-6.4l-2.7-3.2"/>
	<line class="st0" x1="280.5" y1="-134" x2="296.9" y2="-134"/>
	<path class="st0" d="M276.5-158l-2.7,3.2c-1.5,1.8-2.3,4.1-2.3,6.4v11.4c0,1.7,1.3,3,3,3"/>
	<path class="st0" d="M323.5-158l-4.7-12.3c-1.1-2.8-3.6-4.8-6.5-5.2c-2.3-0.3-7.6-0.6-12.3-0.6s-10,0.2-12.3,0.6
		c-3,0.4-5.5,2.4-6.5,5.2l-4.7,12.3"/>
	<path class="st0" d="M318.9-158l-3.6-9.5c-0.8-2.2-2.8-3.7-5.1-4c-1.8-0.2-6.5-0.4-10.2-0.4s-8.4,0.2-10.2,0.4
		c-2.3,0.3-4.2,1.8-5.1,4l-3.6,9.5H318.9z"/>
	<circle class="st0" cx="280.5" cy="-148.5" r="3"/>
	<line class="st0" x1="323.5" y1="-158" x2="328.5" y2="-158"/>
	<line class="st0" x1="271.5" y1="-158" x2="276.5" y2="-158"/>
	<polyline class="st0" points="297.5,-145 289.5,-145 289.5,-139 295.5,-139 	"/>
	<circle class="st0" cx="293" cy="-165.5" r="2.5"/>
	<path class="st0" d="M303-159c0-2.2,1.8-4,4-4s4,1.8,4,4"/>
	<path class="st0" d="M289-159c0-2.2,1.8-4,4-4s4,1.8,4,4"/>
	<circle class="st0" cx="307" cy="-165.5" r="2.5"/>
</g>
<g>
	<path class="st0" d="M14.5-44v5c0,1.1-0.9,2-2,2h-6c-1.1,0-2-0.9-2-2v-5"/>
	<path class="st0" d="M58.5-58.4c0-2.3-0.8-4.6-2.3-6.4L53.5-68"/>
	<line class="st0" x1="10.5" y1="-44" x2="26.9" y2="-44"/>
	<path class="st0" d="M6.5-68l-2.7,3.2c-1.5,1.8-2.3,4.1-2.3,6.4V-47c0,1.7,1.3,3,3,3"/>
	<path class="st0" d="M53.5-68l-4.7-12.3c-1.1-2.8-3.6-4.8-6.5-5.2C40-85.8,34.7-86,30-86s-10,0.2-12.3,0.6c-3,0.4-5.5,2.4-6.5,5.2
		L6.5-68"/>
	<path class="st0" d="M48.9-68l-3.6-9.5c-0.8-2.2-2.8-3.7-5.1-4C38.4-81.8,33.7-82,30-82s-8.4,0.2-10.2,0.4c-2.3,0.3-4.2,1.8-5.1,4
		L11.1-68H48.9z"/>
	<circle class="st0" cx="10.5" cy="-58.5" r="3"/>
	<line class="st0" x1="53.5" y1="-68" x2="58.5" y2="-68"/>
	<line class="st0" x1="1.5" y1="-68" x2="6.5" y2="-68"/>
	<polyline class="st0" points="27.5,-55 19.5,-55 19.5,-49 25.5,-49 	"/>
	<circle class="st0" cx="23" cy="-75.5" r="2.5"/>
	<path class="st0" d="M33-69c0-2.2,1.8-4,4-4s4,1.8,4,4"/>
	<path class="st0" d="M19-69c0-2.2,1.8-4,4-4s4,1.8,4,4"/>
	<circle class="st0" cx="37" cy="-75.5" r="2.5"/>
	<circle class="st1" cx="44.5" cy="-48" r="14"/>
	<g>
		<line class="st1" x1="44.5" y1="-44" x2="44.5" y2="-47"/>
		<line class="st1" x1="44.5" y1="-40" x2="44.5" y2="-40"/>
		<path class="st1" d="M44.5-55c2.2,0,4,1.8,4,4s-1.8,4-4,4"/>
		<path class="st1" d="M41.3-53.4c0.7-0.9,1.9-1.6,3.2-1.6"/>
	</g>
</g>
<g>
	<g>
		<path class="st1" d="M568-159.3c0-1.4,1.1-2.5,2.5-2.5"/>
		<line class="st1" x1="568" y1="-159.3" x2="568" y2="-153.1"/>
		<line class="st1" x1="566.8" y1="-153.1" x2="573" y2="-153.1"/>
		<line class="st1" x1="568" y1="-158" x2="570.5" y2="-158"/>
	</g>
	<line class="st0" x1="560.5" y1="-174.5" x2="588.5" y2="-174.5"/>
	<line class="st0" x1="552.5" y1="-174.5" x2="554.5" y2="-174.5"/>
	<path class="st0" d="M574.5-134.5v7l1,0h2c3.3,0,6,2.7,6,6v0h-27v0c0-3.3,2.7-6,6-6h2l1,0v-8l0-2.5c-8.1-2-14.1-9.4-14.1-18.1
		v-22.4h37.3v22.4c0,10.3-8.3,18.6-18.6,18.6"/>
	<line class="st0" x1="598.5" y1="-169.5" x2="589.5" y2="-169.5"/>
	<path class="st0" d="M598.5-169.5c0,0,0,5,0,7c0,4-2,10-10,11"/>
	<path class="st0" d="M551.5-151.5c-8-1-10-7-10-11c0-2,0-7,0-7h9"/>
	<path class="st1" d="M571.4-169.1l0.6,0.6c0.5,0.5,1.2,0.7,1.9,0.5l0.8-0.2c1.1-0.3,2.2,0.3,2.5,1.4l0.2,0.8
		c0.2,0.7,0.7,1.2,1.4,1.4l0.8,0.2c1.1,0.3,1.7,1.4,1.4,2.5l-0.2,0.8c-0.2,0.7,0,1.4,0.5,1.9l0.6,0.6c0.8,0.8,0.8,2.1,0,2.8
		l-0.6,0.6c-0.5,0.5-0.7,1.2-0.5,1.9l0.2,0.8c0.3,1.1-0.3,2.2-1.4,2.5l-0.8,0.2c-0.7,0.2-1.2,0.7-1.4,1.4l-0.2,0.8
		c-0.3,1.1-1.4,1.7-2.5,1.4l-0.8-0.2c-0.7-0.2-1.4,0-1.9,0.5l-0.6,0.6c-0.8,0.8-2.1,0.8-2.8,0l-0.6-0.6c-0.5-0.5-1.2-0.7-1.9-0.5
		l-0.8,0.2c-1.1,0.3-2.2-0.3-2.5-1.4l-0.2-0.8c-0.2-0.7-0.7-1.2-1.4-1.4l-0.8-0.2c-1.1-0.3-1.7-1.4-1.4-2.5l0.2-0.8
		c0.2-0.7,0-1.4-0.5-1.9l-0.6-0.6c-0.8-0.8-0.8-2.1,0-2.8l0.6-0.6c0.5-0.5,0.7-1.2,0.5-1.9l-0.2-0.8c-0.3-1.1,0.3-2.2,1.4-2.5
		l0.8-0.2c0.7-0.2,1.2-0.7,1.4-1.4l0.2-0.8c0.3-1.1,1.4-1.7,2.5-1.4l0.8,0.2c0.7,0.2,1.4,0,1.9-0.5l0.6-0.6
		C569.4-169.9,570.6-169.9,571.4-169.1z"/>
</g>
<g>
	<g>
		<path d="M120,59.5c-13.8,0-25-11.2-25-25s11.2-25,25-25s25,11.2,25,25S133.8,59.5,120,59.5z M120,11.5c-12.7,0-23,10.3-23,23
			s10.3,23,23,23s23-10.3,23-23S132.7,11.5,120,11.5z"/>
	</g>
	<g>
		<path d="M120,16.5c-0.3,0-0.5-0.1-0.7-0.3c-0.2-0.2-0.3-0.5-0.3-0.7c0-0.3,0.1-0.5,0.3-0.7c0.4-0.4,1-0.4,1.4,0
			c0.2,0.2,0.3,0.4,0.3,0.7c0,0.3-0.1,0.5-0.3,0.7C120.5,16.4,120.3,16.5,120,16.5z"/>
	</g>
	<g>
		<path d="M110.5,19c-0.1,0-0.3,0-0.4-0.1c-0.1,0-0.2-0.1-0.3-0.2c-0.2-0.2-0.3-0.4-0.3-0.7c0-0.3,0.1-0.5,0.3-0.7
			c0.1-0.1,0.2-0.2,0.3-0.2c0.4-0.1,0.8-0.1,1.1,0.2c0.2,0.2,0.3,0.4,0.3,0.7c0,0.3-0.1,0.5-0.3,0.7C111,18.9,110.8,19,110.5,19z"/>
	</g>
	<g>
		<path d="M103.5,26c-0.3,0-0.5-0.1-0.7-0.3c-0.2-0.2-0.3-0.5-0.3-0.7c0-0.3,0.1-0.5,0.3-0.7c0.4-0.4,1-0.4,1.4,0
			c0.2,0.2,0.3,0.4,0.3,0.7c0,0.3-0.1,0.5-0.3,0.7C104.1,25.9,103.8,26,103.5,26z"/>
	</g>
	<g>
		<path d="M101,35.5c-0.3,0-0.5-0.1-0.7-0.3c-0.2-0.2-0.3-0.5-0.3-0.7c0-0.1,0-0.3,0.1-0.4c0.1-0.1,0.1-0.2,0.2-0.3
			c0.4-0.4,1-0.4,1.4,0c0.1,0.1,0.2,0.2,0.2,0.3c0.1,0.1,0.1,0.3,0.1,0.4c0,0.3-0.1,0.5-0.3,0.7C101.5,35.4,101.3,35.5,101,35.5z"/>
	</g>
	<g>
		<path d="M103.5,45c-0.1,0-0.3,0-0.4-0.1c-0.1-0.1-0.2-0.1-0.3-0.2c-0.1-0.1-0.2-0.2-0.2-0.3c0-0.1-0.1-0.3-0.1-0.4
			c0-0.1,0-0.3,0.1-0.4c0.1-0.1,0.1-0.2,0.2-0.3c0.1-0.1,0.2-0.2,0.3-0.2c0.4-0.2,0.8-0.1,1.1,0.2c0.1,0.1,0.2,0.2,0.2,0.3
			c0.1,0.1,0.1,0.3,0.1,0.4c0,0.1,0,0.3-0.1,0.4c0,0.1-0.1,0.2-0.2,0.3C104.1,44.9,103.8,45,103.5,45z"/>
	</g>
	<g>
		<path d="M110.5,52c-0.1,0-0.3,0-0.4-0.1c-0.1-0.1-0.2-0.1-0.3-0.2c-0.1-0.1-0.2-0.2-0.2-0.3c0-0.1-0.1-0.3-0.1-0.4
			c0-0.3,0.1-0.5,0.3-0.7c0.1-0.1,0.2-0.2,0.3-0.2c0.2-0.1,0.5-0.1,0.8,0c0.1,0,0.2,0.1,0.3,0.2c0.2,0.2,0.3,0.4,0.3,0.7
			c0,0.1,0,0.3-0.1,0.4c-0.1,0.1-0.1,0.2-0.2,0.3c-0.1,0.1-0.2,0.2-0.3,0.2C110.8,51.9,110.6,52,110.5,52z"/>
	</g>
	<g>
		<path d="M120,54.5c-0.3,0-0.5-0.1-0.7-0.3c-0.1-0.1-0.2-0.2-0.2-0.3c0-0.1-0.1-0.3-0.1-0.4c0-0.1,0-0.1,0-0.2c0-0.1,0-0.1,0.1-0.2
			c0-0.1,0.1-0.1,0.1-0.2c0-0.1,0.1-0.1,0.1-0.1c0.3-0.3,0.7-0.4,1.1-0.2c0.1,0.1,0.2,0.1,0.3,0.2c0.2,0.2,0.3,0.4,0.3,0.7
			c0,0.1,0,0.3-0.1,0.4c-0.1,0.1-0.1,0.2-0.2,0.3c-0.1,0.1-0.2,0.2-0.3,0.2C120.3,54.5,120.1,54.5,120,54.5z"/>
	</g>
	<g>
		<path d="M129.5,52c-0.1,0-0.3,0-0.4-0.1c-0.1-0.1-0.2-0.1-0.3-0.2c-0.1-0.1-0.2-0.2-0.2-0.3c0-0.1-0.1-0.3-0.1-0.4
			c0-0.3,0.1-0.5,0.3-0.7c0.1-0.1,0.2-0.2,0.3-0.2c0.2-0.1,0.4-0.1,0.6-0.1c0.1,0,0.1,0,0.2,0.1c0.1,0,0.1,0.1,0.2,0.1
			c0,0,0.1,0.1,0.1,0.1c0.2,0.2,0.3,0.4,0.3,0.7c0,0.1,0,0.3-0.1,0.4c-0.1,0.1-0.1,0.2-0.2,0.3C130,51.8,129.8,52,129.5,52z"/>
	</g>
	<g>
		<path d="M136.4,45c-0.1,0-0.3,0-0.4-0.1c-0.1-0.1-0.2-0.1-0.3-0.2c-0.1-0.1-0.2-0.2-0.2-0.3s-0.1-0.3-0.1-0.4c0-0.1,0-0.3,0.1-0.4
			c0-0.1,0.1-0.2,0.2-0.3c0.1-0.1,0.2-0.2,0.3-0.2c0.4-0.2,0.8-0.1,1.1,0.2c0.1,0.1,0.2,0.2,0.2,0.3c0,0.1,0.1,0.3,0.1,0.4
			c0,0.1,0,0.3-0.1,0.4c-0.1,0.1-0.1,0.2-0.2,0.3C137,44.9,136.7,45,136.4,45z"/>
	</g>
	<g>
		<path d="M139,35.5c-0.1,0-0.3,0-0.4-0.1c-0.1-0.1-0.2-0.1-0.3-0.2c-0.2-0.2-0.3-0.5-0.3-0.7c0-0.1,0-0.3,0.1-0.4
			c0.1-0.1,0.1-0.2,0.2-0.3c0.1-0.1,0.2-0.2,0.3-0.2c0.4-0.2,0.8-0.1,1.1,0.2c0.1,0.1,0.2,0.2,0.2,0.3c0.1,0.1,0.1,0.3,0.1,0.4
			c0,0.3-0.1,0.5-0.3,0.7C139.5,35.4,139.3,35.5,139,35.5z"/>
	</g>
	<g>
		<path d="M136.4,26c-0.3,0-0.5-0.1-0.7-0.3c-0.2-0.2-0.3-0.5-0.3-0.7c0-0.3,0.1-0.5,0.3-0.7c0.4-0.4,1-0.4,1.4,0
			c0.2,0.2,0.3,0.4,0.3,0.7c0,0.3-0.1,0.5-0.3,0.7C137,25.9,136.7,26,136.4,26z"/>
	</g>
	<g>
		<path d="M128,7.5h-16c-0.6,0-1-0.4-1-1v-5c0-0.6,0.4-1,1-1h16c0.6,0,1,0.4,1,1v5C129,7.1,128.6,7.5,128,7.5z M113,5.5h14v-3h-14
			V5.5z"/>
	</g>
	<g>
		<path d="M116,11.5c-0.6,0-1-0.4-1-1v-4c0-0.6,0.4-1,1-1s1,0.4,1,1v4C117,11.1,116.6,11.5,116,11.5z"/>
	</g>
	<g>
		<path d="M124,11.5c-0.6,0-1-0.4-1-1v-4c0-0.6,0.4-1,1-1s1,0.4,1,1v4C125,11.1,124.6,11.5,124,11.5z"/>
	</g>
	<g>
		<path d="M142.5,18c-0.3,0-0.5-0.1-0.7-0.3l-7-7c-0.4-0.4-0.4-1,0-1.4s1-0.4,1.4,0l7,7c0.4,0.4,0.4,1,0,1.4
			C143,17.9,142.8,18,142.5,18z"/>
	</g>
	<g>
		<path d="M97.5,18c-0.3,0-0.5-0.1-0.7-0.3c-0.4-0.4-0.4-1,0-1.4l7-7c0.4-0.4,1-0.4,1.4,0s0.4,1,0,1.4l-7,7C98,17.9,97.8,18,97.5,18
			z"/>
	</g>
	<g>
		<path class="st2" d="M120.1,39.5c-0.9,0-1.8-0.2-2.6-0.7c-1.3-0.8-2.3-2.1-2.5-3.6c-0.3-1.5,0.1-3.1,1.1-4.3l11.7-14.1
			c0.7-0.8,1.8-1,2.8-0.5c0.9,0.5,1.3,1.7,0.9,2.7L125,36.1c-0.5,1.4-1.7,2.6-3.1,3.1C121.3,39.4,120.7,39.5,120.1,39.5z M129.4,18
			c-0.1,0-0.1,0-0.1,0.1l-11.7,14.2c-0.6,0.7-0.9,1.7-0.7,2.6s0.7,1.7,1.6,2.2c0.8,0.5,1.8,0.6,2.7,0.2c0.9-0.3,1.6-1,1.9-1.9
			l6.4-17.2C129.6,18.2,129.6,18.1,129.4,18C129.5,18,129.4,18,129.4,18z"/>
	</g>
</g>
<g>
	<path class="st0" d="M194.5-44v5c0,1.1-0.9,2-2,2h-6c-1.1,0-2-0.9-2-2v-5"/>
	<path class="st0" d="M237.8-62c-0.4-1-0.9-1.9-1.6-2.8l-2.7-3.2"/>
	<line class="st0" x1="190.5" y1="-44" x2="210.9" y2="-44"/>
	<path class="st0" d="M186.5-68l-2.7,3.2c-1.5,1.8-2.3,4.1-2.3,6.4V-47c0,1.7,1.3,3,3,3"/>
	<path class="st0" d="M233.5-68l-4.7-12.3c-1.1-2.8-3.6-4.8-6.5-5.2C220-85.8,214.7-86,210-86s-10,0.2-12.3,0.6
		c-3,0.4-5.5,2.4-6.5,5.2L186.5-68"/>
	<path class="st0" d="M228.9-68l-3.6-9.5c-0.8-2.2-2.8-3.7-5.1-4c-1.8-0.2-6.5-0.4-10.2-0.4s-8.4,0.2-10.2,0.4
		c-2.3,0.3-4.2,1.8-5.1,4l-3.6,9.5H228.9z"/>
	<circle class="st0" cx="190.5" cy="-58.5" r="3"/>
	<line class="st0" x1="233.5" y1="-68" x2="238.5" y2="-68"/>
	<line class="st0" x1="181.5" y1="-68" x2="186.5" y2="-68"/>
	<polyline class="st0" points="210.5,-55 199.5,-55 199.5,-49 210.5,-49 	"/>
	<circle class="st0" cx="203" cy="-75.5" r="2.5"/>
	<path class="st0" d="M213-69c0-2.2,1.8-4,4-4s4,1.8,4,4"/>
	<path class="st0" d="M199-69c0-2.2,1.8-4,4-4s4,1.8,4,4"/>
	<circle class="st0" cx="217" cy="-75.5" r="2.5"/>
	<g>
		<g>
			<g>
				<path class="st1" d="M215.5-56.1v7.3c0,3.4,1.1,6.6,3.3,9.4c2.2,2.8,4.9,4.6,8.2,5.4c3.2-0.8,6-2.6,8.2-5.4
					c2.2-2.8,3.3-6,3.3-9.4v-7.3L227-61L215.5-56.1z"/>
			</g>
		</g>
	</g>
	<polyline class="st1" points="222.5,-47 226.5,-44 232.5,-51 	"/>
</g>
<g>
	<path class="st1" d="M561.2-45.2c2.6-2.2,5.9-7.8,1.5-13.3c-5.6-7-21-10-21-10s1.1,14.1,6.6,21C552.7-41.9,558.8-43.2,561.2-45.2z"
		/>
	<path class="st0" d="M565.6-31.5c0,0,2.9-8.1,10-16c9-10,13-26,13-32"/>
	<path class="st0" d="M575.5-48c7.5,5,16.4,0.6,20.2-6.5c9-17-7-34-8-34c-3,7-13.5,14-17,21C566.6-59.5,568.6-52.5,575.5-48z"/>
	<g>
		<path class="st1" d="M547.6-62.5c17,18,19,22,19,22"/>
		<path class="st1" d="M561.2-45.2c2.6-2.2,5.9-7.8,1.5-13.3c-5.6-7-21-10-21-10s1.1,14.1,6.6,21C552.7-41.9,558.8-43.2,561.2-45.2z
			"/>
		<path class="st0" d="M565.6-31.5c0,0,2.9-8.1,10-16c9-10,13-26,13-32"/>
		<path class="st0" d="M575.5-48c7.5,5,16.4,0.6,20.2-6.5c9-17-7-34-8-34c-3,7-13.5,14-17,21C566.6-59.5,568.6-52.5,575.5-48z"/>
	</g>
</g>
<g>
	<circle class="st1" cx="366" cy="-81" r="4"/>
	<path class="st1" d="M366-77v13c0,2.2,1.8,4,4,4h8"/>
	<circle class="st0" cx="382" cy="-81" r="4"/>
	<circle class="st0" cx="398" cy="-81" r="4"/>
	<circle class="st0" cx="414" cy="-81" r="4"/>
	<circle class="st0" cx="382" cy="-39" r="4"/>
	<circle class="st0" cx="398" cy="-39" r="4"/>
	<circle class="st0" cx="414" cy="-39" r="4"/>
	<line class="st0" x1="382" y1="-77" x2="382" y2="-43"/>
	<line class="st0" x1="398" y1="-77" x2="398" y2="-43"/>
	<line class="st0" x1="414" y1="-77" x2="414" y2="-43"/>
	<line class="st0" x1="414" y1="-60" x2="382" y2="-60"/>
</g>
<g>
	<path class="st0" d="M328-52.2c0-15.5-12.5-28-28-28s-28,12.5-28,28"/>
	<g>
		<polyline class="st0" points="276,-39.8 272,-39.8 272,-46.5 276,-46.5 		"/>
		<line class="st0" x1="272" y1="-43.2" x2="275" y2="-43.2"/>
	</g>
	<g>
		<polyline class="st0" points="324,-40.8 324,-47.5 328,-47.5 		"/>
		<line class="st0" x1="324" y1="-44.2" x2="327" y2="-44.2"/>
	</g>
	<line class="st0" x1="300" y1="-80.2" x2="300" y2="-74.2"/>
	<path class="st1" d="M310.9-72.2L310.9-72.2c-0.6-0.4-1.4-0.2-1.8,0.3l-13.9,16.7c-2,2.4-1.3,6,1.5,7.6v0c2.8,1.6,6.3,0.4,7.4-2.5
		l7.5-20.4C311.8-71.1,311.5-71.9,310.9-72.2z"/>
	<line class="st0" x1="328" y1="-52.2" x2="322" y2="-52.2"/>
	<line class="st0" x1="272" y1="-52.2" x2="278" y2="-52.2"/>
	<line class="st0" x1="272" y1="-52.2" x2="274" y2="-52.2"/>
	<line class="st0" x1="275.9" y1="-65.8" x2="277.7" y2="-64.8"/>
	<line class="st0" x1="286.2" y1="-75.7" x2="287.2" y2="-74"/>
	<line class="st0" x1="323.6" y1="-65" x2="321.8" y2="-64"/>
</g>
<g>
	<path class="st1" d="M486.6-72c0,3.9-2,10-7,10s-7-6.1-7-10s3.1-7,7-7S486.6-75.9,486.6-72z"/>
	<path class="st1" d="M465.6-41c0-9.4,5-17,14-17s14,7.6,14,17"/>
	<path class="st0" d="M503.3-69c0,2.9-1.5,7.5-5.3,7.5s-5.3-4.6-5.3-7.5s2.4-5.3,5.3-5.3C501-74.3,503.3-71.9,503.3-69z"/>
	<path class="st0" d="M492.4-56.8c1.5-1.1,3.4-1.7,5.7-1.7c6.8,0,10.5,5.7,10.5,12.8"/>
	<path class="st0" d="M456.7-69c0,2.9,1.5,7.5,5.3,7.5s5.3-4.6,5.3-7.5s-2.4-5.3-5.3-5.3C459-74.3,456.7-71.9,456.7-69z"/>
	<path class="st0" d="M467.6-56.8c-1.5-1.1-3.4-1.7-5.7-1.7c-6.8,0-10.5,5.7-10.5,12.8"/>
	<line class="st1" x1="472.2" y1="-55.8" x2="479.3" y2="-48.8"/>
	<line class="st1" x1="482.8" y1="-45.2" x2="486.6" y2="-41"/>
	<rect x="478.6" y="-49" transform="matrix(0.7071 0.7071 -0.7071 0.7071 107.6713 -353.9414)" class="st1" width="5" height="4"/>
</g>
<g>
	<path class="st0" d="M104.5-42v4c0,1.1-0.9,2-2,2h-6c-1.1,0-2-0.9-2-2v-4"/>
	<path class="st0" d="M145.5-42v4c0,1.1-0.9,2-2,2h-6c-1.1,0-2-0.9-2-2v-4"/>
	<path class="st0" d="M145.5-42c1.7,0,3-1.3,3-3v-11.4c0-2.3-0.8-4.6-2.3-6.4l-2.7-3.2"/>
	<path class="st0" d="M96.5-66l-2.7,3.2c-1.5,1.8-2.3,4.1-2.3,6.4V-45c0,1.7,1.3,3,3,3"/>
	<path class="st0" d="M143.5-66l-4.7-12.3c-1.1-2.8-3.6-4.8-6.5-5.2C130-83.8,124.7-84,120-84s-10,0.2-12.3,0.6
		c-3,0.4-5.5,2.4-6.5,5.2L96.5-66"/>
	<path class="st0" d="M137.5-67l-3.4-8.9c-0.8-2-2.6-3.4-4.7-3.7c-1.7-0.2-6-0.4-9.4-0.4s-7.8,0.2-9.4,0.4c-2.1,0.3-3.9,1.7-4.7,3.7
		l-3.4,8.9H137.5z"/>
	<circle class="st0" cx="100.5" cy="-56.5" r="3"/>
	<circle class="st0" cx="139.5" cy="-56.5" r="3"/>
	<line class="st0" x1="143.5" y1="-66" x2="148.5" y2="-66"/>
	<line class="st0" x1="91.5" y1="-66" x2="96.5" y2="-66"/>
	<rect x="109.5" y="-53" class="st0" width="21" height="6"/>
	<circle class="st0" cx="113" cy="-73.5" r="2.5"/>
	<path class="st0" d="M123-67c0-2.2,1.8-4,4-4s4,1.8,4,4"/>
	<path class="st0" d="M109-67c0-2.2,1.8-4,4-4s4,1.8,4,4"/>
	<circle class="st0" cx="127" cy="-73.5" r="2.5"/>
	<line class="st0" x1="100.5" y1="-42" x2="139.5" y2="-42"/>
</g>
<g>
	<polygon class="st0" points="234,58.5 186,58.5 194,22.5 226,22.5 	"/>
	<circle class="st1" cx="210" cy="7.5" r="6"/>
	<line class="st1" x1="210" y1="10.5" x2="210" y2="18.5"/>
	<line class="st0" x1="200" y1="34.5" x2="200" y2="46.5"/>
	<line class="st0" x1="208" y1="34.5" x2="200" y2="42"/>
	<line class="st0" x1="208" y1="46.5" x2="203" y2="39.8"/>
	<path class="st0" d="M220,43.5c0,1.7-1.3,3-3,3h-2c-1.7,0-3-1.3-3-3v-6c0-1.7,1.3-3,3-3h2c1.7,0,3,1.3,3,3"/>
	<polyline class="st0" points="218,41.5 220,41.5 220,43.5 	"/>
</g>
<g>
	<line class="st1" x1="404.5" y1="3" x2="404.5" y2="52"/>
	<polyline class="st1" points="410.2,47 404.5,52.7 398.8,47 	"/>
	<polyline class="st1" points="398.8,8 404.5,2.3 410.2,8 	"/>
	<path class="st0" d="M389.5,53V2h-16c-2.2,0-4,1.8-4,4v52h41"/>
	<line class="st0" x1="389.5" y1="30" x2="376.5" y2="30"/>
	<line class="st0" x1="389.5" y1="23" x2="382.5" y2="23"/>
	<line class="st0" x1="389.5" y1="16" x2="382.5" y2="16"/>
	<line class="st0" x1="389.5" y1="9" x2="382.5" y2="9"/>
	<line class="st0" x1="389.5" y1="51" x2="382.5" y2="51"/>
	<line class="st0" x1="389.5" y1="44" x2="382.5" y2="44"/>
	<line class="st0" x1="389.5" y1="37" x2="382.5" y2="37"/>
</g>
<g>
	<line class="st1" x1="322" y1="42.5" x2="278" y2="42.5"/>
	<polyline class="st1" points="283,48.2 277.3,42.5 283,36.8 	"/>
	<polyline class="st1" points="317,36.8 322.7,42.5 317,48.2 	"/>
	<path class="st0" d="M328,26.5v-16c0-2.2-1.8-4-4-4h-48c-2.2,0-4,1.8-4,4v16"/>
	<line class="st0" x1="300" y1="26.5" x2="300" y2="13.5"/>
	<line class="st0" x1="307" y1="26.5" x2="307" y2="19.5"/>
	<line class="st0" x1="314" y1="26.5" x2="314" y2="19.5"/>
	<line class="st0" x1="321" y1="26.5" x2="321" y2="19.5"/>
	<line class="st0" x1="279" y1="26.5" x2="279" y2="19.5"/>
	<line class="st0" x1="286" y1="26.5" x2="286" y2="19.5"/>
	<line class="st0" x1="293" y1="26.5" x2="293" y2="19.5"/>
	<line class="st0" x1="272" y1="26.5" x2="328" y2="26.5"/>
	<line class="st0" x1="328" y1="31.5" x2="328" y2="35.5"/>
	<line class="st0" x1="272" y1="31.5" x2="272" y2="35.5"/>
	<line class="st0" x1="328" y1="40.5" x2="328" y2="44.5"/>
	<line class="st0" x1="272" y1="40.5" x2="272" y2="44.5"/>
	<line class="st0" x1="328" y1="49.5" x2="328" y2="53.5"/>
	<line class="st0" x1="272" y1="49.5" x2="272" y2="53.5"/>
</g>
<g>
	<circle class="st3" cx="460.8" cy="-322.9" r="4.5"/>
	<circle class="st3" cx="499.8" cy="-322.9" r="4.5"/>
	<line class="st3" x1="495" y1="-322.4" x2="469" y2="-322.4"/>
	<path class="st3" d="M505-322.4c0,0-1,0,1,0c3,0,3-5,3-7c0-1-3-5-16-5h-26c-4,0-9-6-9-6"/>
	<path class="st3" d="M486.1-341.6c4.3,2.3,9.2,7.1,9.2,7.1"/>
	<path class="st3" d="M456-322.4l-5-1c0,0,0-4,0-5c0-2,3-6,3-8h8"/>
	<polyline class="st3" points="474,-337.4 476,-334.4 476,-325.4 	"/>
	<line class="st3" x1="480" y1="-330.4" x2="483" y2="-330.4"/>
</g>
<g>
	<circle class="st3" cx="190.8" cy="-322.5" r="4.5"/>
	<circle class="st3" cx="229.8" cy="-322.5" r="4.5"/>
	<line class="st3" x1="225" y1="-322" x2="199" y2="-322"/>
	<path class="st3" d="M235-322c0,0-1,0,1,0c3,0,3-5,3-7c0-1-3-5-16-5h-26c-3,0-5.2-3-5.2-3"/>
	<path class="st3" d="M186-322l-5-1c0,0,0-4,0-5c0-2,3-7,3-9h7c0,0,2-5,16-5c9,0,17.3,8,17.3,8"/>
	<polyline class="st3" points="207,-341 209,-334 209,-325 	"/>
	<line class="st3" x1="213" y1="-330" x2="215" y2="-330"/>
	<line class="st3" x1="200" y1="-330" x2="202" y2="-330"/>
	<line class="st3" x1="196" y1="-340.5" x2="196" y2="-328.8"/>
</g>
<g>
	<circle class="st3" cx="280.8" cy="-322.5" r="4.5"/>
	<circle class="st3" cx="319.8" cy="-322.5" r="4.5"/>
	<line class="st3" x1="315" y1="-322" x2="289" y2="-322"/>
	<path class="st3" d="M325-322c0,0-1,0,1,0c3,0,3-5,3-7c0-1-3-5-16-5h-33c-3,0-7-1-7-1"/>
	<path class="st3" d="M276-322l-5-1c0,0,0-4,0-5c0-2,2-5,2-7s4-7,4-7s12,0,23,0c6,0,14.3,8,14.3,8"/>
	<polyline class="st3" points="297,-341 299,-334 299,-325 	"/>
	<line class="st3" x1="303" y1="-330" x2="305" y2="-330"/>
	<line class="st3" x1="288.5" y1="-330" x2="290.5" y2="-330"/>
	<line class="st3" x1="285" y1="-341" x2="284" y2="-334"/>
	<line class="st3" x1="284" y1="-334" x2="284" y2="-330"/>
</g>
<g>
	<circle class="st3" cx="550.8" cy="-320.5" r="4.5"/>
	<circle class="st3" cx="589.8" cy="-320.5" r="4.5"/>
	<line class="st3" x1="585" y1="-320" x2="559" y2="-320"/>
	<path class="st3" d="M595-320c0,0-1,0,1,0c3,0,3-5,3-7c0-1-5-7-15-7h-34c-3,0-7-1-7-1"/>
	<path class="st3" d="M546-320l-5-1c0,0,0-4,0-5c0-2,2-7,2-9s5-9,9-9c1,0,8,0,19,0c8,0,17,10,17,10"/>
	<polyline class="st3" points="568,-344 570,-335 570,-323 	"/>
	<line class="st3" x1="574" y1="-329" x2="576" y2="-329"/>
	<line class="st3" x1="559" y1="-329" x2="561" y2="-329"/>
	<line class="st3" x1="557" y1="-344" x2="555" y2="-334"/>
	<line class="st3" x1="555" y1="-334" x2="555" y2="-327.5"/>
</g>
<g>
	<circle class="st3" cx="370.8" cy="-322.5" r="4.5"/>
	<circle class="st3" cx="409.8" cy="-322.5" r="4.5"/>
	<line class="st3" x1="405" y1="-322" x2="379" y2="-322"/>
	<path class="st3" d="M415-322c0,0-1,0,1,0c3,0,3-5,3-7c0-1-3-5-16-5h-28c-5,0-10-7-10-7"/>
	<path class="st3" d="M366-322l-5-1c0,0,0-4,0-5c0-2,3-6,3-8h6c0,0,5-6,17-6c9,0,18.3,8,18.3,8"/>
	<polyline class="st3" points="384,-337 386,-334 386,-325 	"/>
	<line class="st3" x1="390" y1="-330" x2="393" y2="-330"/>
</g>
<g>
	<circle class="st3" cx="641.2" cy="-319.8" r="4.8"/>
	<circle class="st3" cx="679.1" cy="-319.8" r="5.1"/>
	<line class="st3" x1="674" y1="-319.3" x2="650" y2="-319.3"/>
	<path class="st3" d="M685-319.3c0,0-1,0,1,0c3,0,3-2,3-4s-2-3-2-3s0-2.9,0-4c0-2-8.6-3-15-3h-31c-3,0-8-1-8-1"/>
	<path class="st3" d="M636-319.3l-5-1c0,0,0-4,0-5c0-2,2-6,2-8c0-4,3-10,3-10s19-1,28,0c3,0.3,10,10,10,10"/>
	<polyline class="st3" points="657,-343.3 659,-334.3 659,-322.3 	"/>
	<line class="st3" x1="663" y1="-328.3" x2="665" y2="-328.3"/>
	<line class="st3" x1="648.4" y1="-328.3" x2="650.6" y2="-328.3"/>
	<line class="st3" x1="645" y1="-343.3" x2="644" y2="-333.3"/>
	<line class="st3" x1="642" y1="-344.3" x2="642" y2="-345.3"/>
	<line class="st3" x1="659" y1="-344.3" x2="659" y2="-345.3"/>
	<line class="st3" x1="644" y1="-333.3" x2="644" y2="-327.8"/>
</g>
<g>
	<line class="st1" x1="631.5" y1="-178.5" x2="688.5" y2="-121.5"/>
	<path class="st0" d="M644.5-132.5v4c0,1.1-0.9,2-2,2h-6c-1.1,0-2-0.9-2-2v-4"/>
	<path class="st0" d="M678.4-126.5h-0.9c-1.1,0-2-0.9-2-2"/>
	<line class="st0" x1="685.5" y1="-132.5" x2="685.5" y2="-130.2"/>
	<path class="st0" d="M685.5-132.5c1.7,0,3-1.3,3-3v-11.4c0-2.3-0.8-4.6-2.3-6.4l-2.7-3.2"/>
	<path class="st0" d="M636.5-156.5l-2.7,3.2c-1.5,1.8-2.3,4.1-2.3,6.4v11.4c0,1.7,1.3,3,3,3"/>
	<line class="st0" x1="639.6" y1="-164.7" x2="636.5" y2="-156.5"/>
	<path class="st0" d="M683.5-156.5l-4.7-12.3c-1.1-2.8-3.6-4.8-6.5-5.2c-2.3-0.3-7.6-0.6-12.3-0.6s-10,0.2-12.3,0.6
		c-1.6,0.2-3,0.9-4.2,1.9"/>
	<path class="st0" d="M658.2-157.5h19.4l-3.4-8.9c-0.8-2-2.6-3.4-4.7-3.7c-1.7-0.2-6-0.4-9.4-0.4s-7.8,0.2-9.4,0.4
		c-1.3,0.2-2.5,0.8-3.4,1.7"/>
	<polyline class="st0" points="643.7,-160.7 642.5,-157.5 646.8,-157.5 	"/>
	<circle class="st0" cx="640.5" cy="-147" r="3"/>
	<circle class="st0" cx="679.5" cy="-147" r="3"/>
	<line class="st0" x1="683.5" y1="-156.5" x2="688.5" y2="-156.5"/>
	<line class="st0" x1="631.5" y1="-156.5" x2="636.5" y2="-156.5"/>
	<polyline class="st0" points="660.5,-143.5 649.5,-143.5 649.5,-137.5 666.5,-137.5 	"/>
	<path class="st0" d="M650.7-165c0.4-0.9,1.3-1.5,2.3-1.5c1.4,0,2.5,1.1,2.5,2.5c0,1-0.6,1.9-1.5,2.3"/>
	<path class="st0" d="M663-157.5c0-2.2,1.8-4,4-4s4,1.8,4,4"/>
	<circle class="st0" cx="667" cy="-164" r="2.5"/>
	<line class="st0" x1="640.5" y1="-132.5" x2="671.5" y2="-132.5"/>
</g>
<g>
	<path class="st1" d="M46.5,41.5c0,3.3,2.7,6,6,6s6-2.7,6-6"/>
	<path class="st1" d="M46.5,22.5c0-3.3-2.7-6-6-6"/>
	<line class="st1" x1="46.5" y1="41.5" x2="46.5" y2="22.5"/>
	<line class="st1" x1="58.5" y1="41.5" x2="58.5" y2="15.5"/>
	<circle class="st1" cx="55" cy="16" r="3.5"/>
	<path class="st1" d="M58.5,16c0-5.8-2-8.5-3.5-10.5"/>
	<line class="st0" x1="45.5" y1="57.5" x2="58.5" y2="57.5"/>
	<line class="st0" x1="1.5" y1="57.5" x2="40.5" y2="57.5"/>
	<g>
		<line class="st0" x1="9.5" y1="30.5" x2="9.5" y2="56.5"/>
		<line class="st0" x1="32.5" y1="56.5" x2="32.5" y2="30.5"/>
	</g>
	<path class="st0" d="M30.5,7.5h-19c-0.6,0-1,0.4-1,1v16c0,0.6,0.4,1,1,1h19c0.6,0,1-0.4,1-1v-16C31.5,7.9,31.1,7.5,30.5,7.5z"/>
	<line class="st0" x1="16.5" y1="13.5" x2="25.5" y2="13.5"/>
	<line class="st0" x1="16.5" y1="19.5" x2="25.5" y2="19.5"/>
	<path class="st0" d="M32.5,2.5h-23c-2.2,0-4,1.8-4,4v20c0,2.2,1.8,4,4,4h23c2.2,0,4-1.8,4-4v-20C36.5,4.3,34.7,2.5,32.5,2.5z"/>
	<path class="st0" d="M21,36.5c0,0,5,6.2,5,9s-2.2,5-5,5s-5-2.2-5-5c0-1.3,1.1-3.3,2.2-5.1"/>
</g>
<g>
	<line class="st1" x1="477" y1="25.2" x2="458" y2="25.2"/>
	<polyline class="st1" points="463,30.8 457.3,25.2 463,19.5 	"/>
	<polyline class="st1" points="472,19.5 477.7,25.2 472,30.8 	"/>
	<circle class="st3" cx="461.2" cy="42.7" r="4.8"/>
	<circle class="st3" cx="500.1" cy="42.7" r="5.1"/>
	<line class="st3" x1="495" y1="43.2" x2="470" y2="43.2"/>
	<path class="st3" d="M506,43.2c0,0-1,0,1,0s2-2,2-4s-1-3-1-3v0c0-0.7,0-1,0-2c0-2-4-5-4-5"/>
	<path class="st3" d="M484,19.2h8c4,0,12,10,12,10"/>
	<path class="st3" d="M488,29.2v-7c0,0,2,0,4,0s8,7,8,7H488"/>
	<line class="st3" x1="488" y1="34.2" x2="491" y2="34.2"/>
	<line class="st3" x1="504" y1="34.2" x2="504" y2="35.2"/>
	<line class="st3" x1="452" y1="38.2" x2="459" y2="38.2"/>
	<line class="st3" x1="468" y1="38.2" x2="483" y2="38.2"/>
	<line class="st3" x1="484" y1="19.2" x2="484" y2="38.2"/>
	<path class="st3" d="M456,43.2l-5-1v-30c0,0,23,0,30,0c1,0,3,0,10,7"/>
</g>
<g>
	<circle class="st3" cx="15.3" cy="-323" r="4.5"/>
	<circle class="st3" cx="47.3" cy="-323" r="4.5"/>
	<line class="st3" x1="42.5" y1="-322.5" x2="23.5" y2="-322.5"/>
	<path class="st3" d="M52.5-322.5c0,0-1,0,1,0c3,0,3-5,3-7c0-1-2-5-15-5h-21c-2,0-4-6-4-6"/>
	<path class="st3" d="M5.5-323.5c0,0,0-4,0-5c0-2,3.5-4.1,4-6c1-4,2-6,2-6s6-1,17-1c5,0,13,7,13,7"/>
	<line class="st3" x1="10.5" y1="-322.5" x2="3.5" y2="-323.5"/>
	<polyline class="st3" points="24.5,-341.5 26.5,-334.5 26.5,-325.5 	"/>
	<line class="st3" x1="30.5" y1="-330.5" x2="32.5" y2="-330.5"/>
</g>
<g>
	<circle class="st3" cx="100.8" cy="-322.5" r="4.5"/>
	<circle class="st3" cx="139.8" cy="-322.5" r="4.5"/>
	<line class="st3" x1="135" y1="-322" x2="109" y2="-322"/>
	<path class="st3" d="M145-322c0,0-1,0,1,0c3,0,3-5,3-7c0-1-3-5-16-5h-33c-3,0-6-1-6-1"/>
	<path class="st3" d="M96-322l-5-1c0,0,0-4,0-5c0-2,3-5,3-7s3-6,3-6s11-1,22-1c6,0,15.3,8,15.3,8"/>
	<polyline class="st3" points="111,-341 113,-334 113,-325 	"/>
	<line class="st3" x1="117" y1="-330" x2="120" y2="-330"/>
</g>
<g>
	<circle class="st3" cx="281.2" cy="-230.8" r="4.8"/>
	<circle class="st3" cx="320.1" cy="-230.8" r="5.1"/>
	<line class="st3" x1="315" y1="-230.3" x2="290" y2="-230.3"/>
	<path class="st3" d="M326-230.3c0,0-1,0,1,0s2-2,2-4s-1-3-1-3v0c0-0.7,0-1,0-2c0-2-4-5-4-5"/>
	<path class="st3" d="M276-230.3l-5-1c0,0,0-2.5,0-4c0-0.7,1-1,1-1c0-2,0-6,0-8c0-2.4,0.4-5.5,0.7-7.7c0.2-1.3,1.3-2.3,2.7-2.3H312
		c4,0,12,10,12,10"/>
	<path class="st3" d="M308-244.3v-7c0,0,2,0,4,0s8,7,8,7H308"/>
	<line class="st3" x1="308" y1="-239.3" x2="311" y2="-239.3"/>
	<line class="st3" x1="324" y1="-239.3" x2="324" y2="-238.3"/>
</g>
<g>
	<circle class="st3" cx="371.2" cy="-228.3" r="4.8"/>
	<circle class="st3" cx="410.1" cy="-228.3" r="5.1"/>
	<line class="st3" x1="405" y1="-227.8" x2="380" y2="-227.8"/>
	<path class="st3" d="M416-227.8c0,0-1,0,1,0s2-2,2-4s-1-3-1-3v0c0-0.7,0-1,0-2c0-2-4-5-4-5"/>
	<path class="st3" d="M366-227.8l-5-1c0,0,0-2.5,0-4c0-0.7,1-1,1-1c0-2,0-8,0-10c0-2.4,0.4-8.5,0.7-10.7c0.2-1.3,1.3-2.3,2.7-2.3
		c0,0,21.7,0,28.7,0c6,0,20,15,20,15"/>
	<path class="st3" d="M398-241.8v-7c0,0,2,0,4,0c1,0,8,7,8,7H398"/>
	<line class="st3" x1="398" y1="-236.8" x2="401" y2="-236.8"/>
	<line class="st3" x1="414" y1="-236.8" x2="414" y2="-235.8"/>
</g>
<g>
	<circle class="st3" cx="191.2" cy="-230.8" r="4.8"/>
	<circle class="st3" cx="230.1" cy="-230.8" r="5.1"/>
	<line class="st3" x1="225" y1="-230.3" x2="200" y2="-230.3"/>
	<path class="st3" d="M236-230.3c0,0-1,0,1,0s2-2,2-4s-1-3-1-3s0-0.9,0-2c0-2-3-4-10-5"/>
	<path class="st3" d="M186-230.3l-5-1c0,0,0-3,0-4c0-0.4,1-1,1-1c0-2,0-6,0-8c0-2.4,0.4-5.5,0.7-7.7c0.2-1.3,1.3-2.3,2.7-2.3H210
		c7,0,18,10,18,10"/>
	<path class="st3" d="M208-244.3v-7c0,0,0,0,2,0c4,0,13,7,13,7H208"/>
	<line class="st3" x1="209" y1="-239.3" x2="212" y2="-239.3"/>
	<line class="st3" x1="234" y1="-239.3" x2="234" y2="-238.3"/>
</g>
<g>
	<circle class="st3" cx="101.2" cy="-230.8" r="4.8"/>
	<circle class="st3" cx="140.1" cy="-230.8" r="5.1"/>
	<line class="st3" x1="135" y1="-230.3" x2="110" y2="-230.3"/>
	<path class="st3" d="M146-230.3c0,0-1,0,1,0s2-2,2-4s-1-3-1-3s0-0.9,0-2c0-2-3-4-10-5"/>
	<path class="st3" d="M96-230.3l-5-1c0,0,0-3,0-4c0-0.4,1-1,1-1c0-2,0-2,0-4c0-3,4.8-4.1,6-7c3-7,9-7,9-7h13c7,0,18,10,18,10"/>
	<path class="st3" d="M115-244.3v-7c0,0,3,0,5,0c4,0,13,7,13,7H115"/>
	<line class="st3" x1="118" y1="-239.3" x2="121" y2="-239.3"/>
	<line class="st3" x1="144" y1="-239.3" x2="144" y2="-238.3"/>
</g>
<g>
	<circle class="st3" cx="551.2" cy="-227.3" r="4.8"/>
	<circle class="st3" cx="590.1" cy="-227.3" r="5.1"/>
	<line class="st3" x1="585" y1="-226.8" x2="560" y2="-226.8"/>
	<path class="st3" d="M596-226.8c0,0-1,0,1,0s2-2,2-4s-1-3-1-3v0c0-0.7,0-1,0-2c0-2-4-5-4-5"/>
	<path class="st3" d="M574-250.8h8c4,0,12,10,12,10"/>
	<path class="st3" d="M578-240.8v-7c0,0,2,0,4,0s8,7,8,7H578"/>
	<line class="st3" x1="578" y1="-235.8" x2="581" y2="-235.8"/>
	<line class="st3" x1="594" y1="-235.8" x2="594" y2="-234.8"/>
	<line class="st3" x1="542" y1="-231.8" x2="549" y2="-231.8"/>
	<line class="st3" x1="558" y1="-231.8" x2="573" y2="-231.8"/>
	<line class="st3" x1="574" y1="-250.8" x2="574" y2="-231.8"/>
	<path class="st3" d="M546-226.8l-5-1v-30c0,0,23,0,30,0c1,0,3,0,10,7"/>
</g>
<g>
	<circle class="st3" cx="103.2" cy="-140.8" r="4.8"/>
	<circle class="st3" cx="140.1" cy="-140.8" r="5.1"/>
	<line class="st3" x1="135" y1="-140.3" x2="112" y2="-140.3"/>
	<path class="st3" d="M146-140.3c0,0-1,0,1,0s2-2,2-4s-1-3-1-3v0c0-0.7,0-1,0-2c0-2-4-5-4-5"/>
	<path class="st3" d="M124-164.3h8c4,0,12,10,12,10"/>
	<path class="st3" d="M128-154.3v-7c0,0,2,0,4,0s8,7,8,7H128"/>
	<line class="st3" x1="128" y1="-149.3" x2="131" y2="-149.3"/>
	<line class="st3" x1="144" y1="-149.3" x2="144" y2="-148.3"/>
	<line class="st3" x1="91" y1="-145.3" x2="101" y2="-145.3"/>
	<line class="st3" x1="110" y1="-145.3" x2="124" y2="-145.3"/>
	<line class="st3" x1="124" y1="-164.3" x2="124" y2="-145.3"/>
	<polyline class="st3" points="91,-145.3 91,-151.3 124,-151.3 	"/>
	<polyline class="st3" points="98,-140.3 94,-141.3 94,-145.3 	"/>
</g>
<g>
	<circle class="st3" cx="641.2" cy="-230.8" r="4.8"/>
	<circle class="st3" cx="680.1" cy="-230.8" r="5.1"/>
	<line class="st3" x1="675" y1="-230.3" x2="650" y2="-230.3"/>
	<path class="st3" d="M686-230.3c0,0-1,0,1,0s2-2,2-4s-1-3-1-3v0c0-0.7,0-1,0-2c0-2-4-5-4-5"/>
	<path class="st3" d="M636-230.3l-5-1c0,0,0-2.5,0-4c0-0.7,1-1,1-1c0-2,0-6,0-8c0-2.4,0.4-5.5,0.7-7.7c0.2-1.3,1.3-2.3,2.7-2.3H672
		c4,0,12,10,12,10"/>
	<path class="st3" d="M668-244.3v-7c0,0,2,0,4,0s8,7,8,7H668"/>
	<line class="st3" x1="668" y1="-239.3" x2="671" y2="-239.3"/>
	<line class="st3" x1="661" y1="-239.3" x2="664" y2="-239.3"/>
	<line class="st3" x1="684" y1="-239.3" x2="684" y2="-238.3"/>
	<rect x="653" y="-251.3" class="st3" width="11" height="7"/>
	<path class="st3" d="M638-244.3c2,0,11,0,11,0v-7h-10C639-251.3,638-247.3,638-244.3z"/>
</g>
<g>
	<circle class="st3" cx="193.2" cy="-136.8" r="4.8"/>
	<circle class="st3" cx="230.1" cy="-136.8" r="5.1"/>
	<line class="st3" x1="225" y1="-136.3" x2="202" y2="-136.3"/>
	<path class="st3" d="M236-136.3c0,0-1,0,1,0s2-2,2-4s-1-3-1-3v0c0-0.7,0-1,0-2c0-2-4-5-4-5"/>
	<path class="st3" d="M214-160.3h8c4,0,12,10,12,10"/>
	<path class="st3" d="M218-150.3v-7c0,0,2,0,4,0s8,7,8,7H218"/>
	<line class="st3" x1="218" y1="-145.3" x2="221" y2="-145.3"/>
	<line class="st3" x1="234" y1="-145.3" x2="234" y2="-144.3"/>
	<line class="st3" x1="181" y1="-141.3" x2="191" y2="-141.3"/>
	<line class="st3" x1="200" y1="-141.3" x2="214" y2="-141.3"/>
	<line class="st3" x1="214" y1="-160.3" x2="214" y2="-141.3"/>
	<polyline class="st3" points="181,-141.3 181,-154.3 208,-154.3 208,-168.3 231,-168.3 231,-160.3 	"/>
	<polyline class="st3" points="188,-136.3 184,-137.3 184,-141.3 	"/>
	<line class="st3" x1="231" y1="-160.3" x2="221" y2="-160.3"/>
</g>
<g>
	<g>
		<circle class="st3" cx="11.2" cy="-141.8" r="4.8"/>
		<circle class="st3" cx="49.1" cy="-141.8" r="5.1"/>
		<line class="st3" x1="44" y1="-141.3" x2="20" y2="-141.3"/>
		<path class="st3" d="M28-163.3c0,0,7.8-0.1,9.3,0.1c2.6,0.3,8.7,7.9,8.7,7.9"/>
		<path class="st3" d="M6-141.3l-5-1c0,0,0-4,0-5c0-2,1-6,1-8h40c6.4,0,15,2,15,4c0,1.1,0,4,0,4s2,1,2,3s0,3-3,3c-2,0-1,0-1,0"/>
		<polyline class="st3" points="28,-163.3 28,-157.6 28,-141.3 		"/>
		<line class="st3" x1="32" y1="-150.3" x2="35" y2="-150.3"/>
		<line class="st3" x1="32" y1="-163.3" x2="32" y2="-156.3"/>
		<line class="st3" x1="1" y1="-145.3" x2="7" y2="-145.3"/>
		<line class="st3" x1="19" y1="-145.3" x2="28" y2="-145.3"/>
	</g>
	<line class="st3" x1="54" y1="-150.3" x2="54" y2="-149.3"/>
</g>
<g>
	<circle class="st3" cx="463.5" cy="-230" r="4.1"/>
	<circle class="st3" cx="500.4" cy="-230" r="4.4"/>
	<line class="st3" x1="496.1" y1="-229.6" x2="472" y2="-229.6"/>
	<path class="st3" d="M505.4-229.6c0,0,0.1,0,1.9,0c1.7,0,1.7-1.7,1.7-3.4c0-1.7-0.9-2.6-0.9-2.6v0c0-0.6,0-0.9,0-1.7
		c0-1.7-3.4-4.3-3.4-4.3"/>
	<path class="st3" d="M459.1-229.6l-8.1-0.9c0,0,0-2.1,0-3.4c0-0.6,0.9-0.9,0.9-0.9c0-1.7,0-6.8,0-8.5c0-2.1,0.3-7.3,0.6-9.1
		c0.2-1.1,1.1-2,2.3-2c0,0,27.1,0,33,0c5.1,0,17,12.8,17,12.8"/>
	<path class="st3" d="M490.1-241.6v-6c0,0,1.7,0,3.4,0c0.9,0,6.8,6,6.8,6H490.1"/>
	<line class="st3" x1="490.1" y1="-237.3" x2="492.7" y2="-237.3"/>
	<line class="st3" x1="504.7" y1="-237.3" x2="504.7" y2="-236.4"/>
</g>
<g>
	<circle class="st3" cx="11.2" cy="-230.8" r="4.8"/>
	<circle class="st3" cx="50.1" cy="-230.8" r="5.1"/>
	<line class="st3" x1="45" y1="-230.3" x2="20" y2="-230.3"/>
	<path class="st3" d="M56-230.3c0,0-1,0,1,0s2-2,2-4s-1-3-1-3v0c0-0.7,0-1,0-2c0-2-4-5-4-5"/>
	<path class="st3" d="M6-230.3l-5-1c0,0,0-2.5,0-4c0-0.7,1-1,1-1c0-2,0-6,0-8c0-2.4,0.4-5.5,0.7-7.7c0.2-1.3,1.3-2.3,2.7-2.3H42
		c4,0,12,10,12,10"/>
	<path class="st3" d="M38-244.3v-7c0,0,2,0,4,0s8,7,8,7H38"/>
	<line class="st3" x1="38" y1="-239.3" x2="41" y2="-239.3"/>
	<line class="st3" x1="24" y1="-239.3" x2="27" y2="-239.3"/>
	<line class="st3" x1="54" y1="-239.3" x2="54" y2="-238.3"/>
	<rect x="24" y="-251.3" class="st3" width="10" height="7"/>
</g>
<g>
	<ellipse transform="matrix(0.7844 -0.6202 0.6202 0.7844 115.4625 406.1765)" class="st1" cx="642" cy="37" rx="10.5" ry="10.5"/>
	<ellipse transform="matrix(0.7844 -0.6202 0.6202 0.7844 115.4625 406.1765)" class="st1" cx="642" cy="37" rx="2.5" ry="2.5"/>
	<circle class="st0" cx="673" cy="17" r="2.5"/>
	<circle class="st0" cx="673" cy="9.5" r="0"/>
	<ellipse transform="matrix(0.7071 -0.7071 0.7071 0.7071 187.2945 475.5554)" class="st0" cx="667.7" cy="11.7" rx="0" ry="0"/>
	<circle class="st0" cx="665.5" cy="17" r="0"/>
	<ellipse transform="matrix(0.7071 -0.7071 0.7071 0.7071 179.7896 478.664)" class="st0" cx="667.7" cy="22.3" rx="0" ry="0"/>
	<circle class="st0" cx="673" cy="24.5" r="0"/>
	<ellipse transform="matrix(0.7071 -0.7071 0.7071 0.7071 182.8982 486.169)" class="st0" cx="678.3" cy="22.3" rx="0" ry="0"/>
	<circle class="st0" cx="680.5" cy="17" r="0"/>
	<ellipse transform="matrix(0.7071 -0.7071 0.7071 0.7071 190.4032 483.0604)" class="st0" cx="678.3" cy="11.7" rx="0" ry="0"/>
	<circle class="st0" cx="673" cy="17" r="11.5"/>
	<path class="st1" d="M647.9,39.7c-0.4,0.9-1,1.7-1.9,2.4"/>
	<path class="st1" d="M636.9,41c-2.2-2.8-1.7-6.9,1.1-9.1c2.8-2.2,6.9-1.7,9.1,1.1c0.8,1,1.2,2.1,1.4,3.3"/>
	<circle class="st0" cx="682.5" cy="52.5" r="6"/>
	<line class="st0" x1="661.5" y1="6.5" x2="634.5" y2="29.5"/>
	<line class="st0" x1="688.5" y1="16.5" x2="688.5" y2="52.5"/>
	<line class="st0" x1="640.5" y1="47.5" x2="681.5" y2="58.5"/>
	<line class="st0" x1="682.5" y1="52.5" x2="682.5" y2="52.5"/>
	<circle class="st0" cx="673" cy="17" r="15.5"/>
	<path class="st0" d="M640.3,47.4c-5-0.8-8.8-5.2-8.8-10.4c0-3,1.3-5.7,3.3-7.6"/>
</g>
<g>
	<polygon class="st0" points="55.5,141.5 58.5,141.5 58.5,111.5 55.5,111.5 51.5,122.5 51.5,135.5 	"/>
	<rect x="5.5" y="116.5" class="st0" width="5" height="18"/>
	<line class="st0" x1="1.5" y1="131.5" x2="1.5" y2="119.5"/>
	<line class="st0" x1="1.5" y1="125.5" x2="4.5" y2="125.5"/>
	<line class="st0" x1="51.5" y1="135.5" x2="46.5" y2="135.5"/>
	<line class="st0" x1="51.5" y1="122.5" x2="46.5" y2="122.5"/>
	<polygon class="st0" points="10.5,110.5 10.5,134.5 15.5,141.5 42.5,141.5 46.5,135.5 46.5,122.5 43.5,116.5 39.5,116.5 
		39.5,110.5 	"/>
	<polyline class="st0" points="28.5,105.5 35.5,105.5 35.5,98.5 15.5,98.5 15.5,105.5 22.5,105.5 	"/>
	<line class="st0" x1="20.5" y1="105.5" x2="20.5" y2="110.5"/>
	<line class="st0" x1="30.5" y1="105.5" x2="30.5" y2="110.5"/>
	<line class="st0" x1="39.5" y1="116.5" x2="39.5" y2="122.5"/>
	<line class="st0" x1="39.5" y1="126.5" x2="39.5" y2="129.5"/>
	<polyline class="st1" points="22.5,116.5 29.5,116.5 26.5,123.5 32.5,123.5 23.5,136.5 25.5,126.5 18.5,126.5 21.3,119.5 	"/>
</g>
<g>
	<circle class="st0" cx="570" cy="30" r="28.5"/>
	<circle class="st0" cx="570" cy="30" r="22.5"/>
	<path class="st0" d="M574.5,48c-1.4,0.4-2.9,0.5-4.5,0.5s-3.1-0.2-4.5-0.5"/>
	<path class="st0" d="M586.7,22c1.2,2.4,1.8,5.1,1.8,8c0,0.9-0.1,1.7-0.2,2.6"/>
	<path class="st0" d="M592.3,32.7c-0.8-0.1-1.5-0.2-2.3-0.2c-8.6,0-15.5,6.9-15.5,15.5c0,1.4,0.2,2.7,0.5,3.9"/>
	<path class="st0" d="M565,51.9c0.3-1.3,0.5-2.6,0.5-3.9c0-8.6-6.9-15.5-15.5-15.5c-0.8,0-1.6,0.1-2.3,0.2"/>
	<path class="st0" d="M548.3,23.9c6.3-2.8,13.7-4.4,21.7-4.4s15.4,1.6,21.7,4.4"/>
	<circle class="st1" cx="570" cy="30" r="4.5"/>
	<path class="st0" d="M551.7,32.5c-0.1-0.8-0.2-1.6-0.2-2.5c0-2.9,0.6-5.6,1.8-8"/>
</g>
<g>
	<g>
		<circle class="st3" cx="100.8" cy="139" r="4.5"/>
		<circle class="st3" cx="139.8" cy="139" r="4.5"/>
		<line class="st3" x1="135" y1="139.5" x2="109" y2="139.5"/>
		<path class="st3" d="M145,139.5c0,0-1,0,1,0c3,0,3-5,3-7c0-1-3-5-16-5h-33c-3,0-7-1-7-1"/>
		<path class="st3" d="M96,139.5l-5-1c0,0,0-4,0-5c0-2,2-5,2-7s4-7,4-7s12,0,23,0c6,0,14.3,8,14.3,8"/>
		<polyline class="st3" points="117,120.5 119,127.5 119,136.5 		"/>
		<line class="st3" x1="123" y1="131.5" x2="125" y2="131.5"/>
		<line class="st3" x1="108.5" y1="131.5" x2="110.5" y2="131.5"/>
		<line class="st3" x1="105" y1="120.5" x2="104" y2="127.5"/>
		<line class="st3" x1="104" y1="127.5" x2="104" y2="131.5"/>
	</g>
	<circle class="st1" cx="98.7" cy="109.7" r="4.8"/>
	<circle class="st1" cx="117.7" cy="109.7" r="4.8"/>
	<line class="st1" x1="98.7" y1="109.7" x2="107" y2="109.7"/>
	<line class="st1" x1="104.6" y1="102.6" x2="98.7" y2="109.7"/>
	<line class="st1" x1="107" y1="109.7" x2="103.4" y2="99"/>
	<line class="st1" x1="117.7" y1="109.7" x2="114.2" y2="97.8"/>
	<line class="st1" x1="107" y1="109.7" x2="114.2" y2="101.4"/>
	<line class="st1" x1="104.6" y1="102.6" x2="114.2" y2="101.4"/>
	<line class="st1" x1="99.9" y1="97.8" x2="105.8" y2="99"/>
	<line class="st1" x1="114.2" y1="97.8" x2="116.5" y2="96.5"/>
	<line class="st3" x1="118" y1="117.5" x2="118" y2="119.5"/>
	<line class="st3" x1="99" y1="117.5" x2="99" y2="119.5"/>
</g>
<g>
	<path class="st0" d="M192.5,140.5v5c0,1.1-0.9,2-2,2h-4c-1.1,0-2-0.9-2-2v-5"/>
	<line class="st0" x1="189.5" y1="140.5" x2="207.9" y2="140.5"/>
	<path class="st0" d="M184.5,140.5c-1.7,0-3-1.3-3-3V129c0-1.9,0.2-3.9,0.6-5.8l5.3-25.5c0.6-3.1,3.4-5.3,6.5-5.3h15.6"/>
	<path class="st0" d="M236,118.9l-4.4-21.1c-0.6-3.1-3.4-5.3-6.5-5.3h-15.6"/>
	<line class="st0" x1="181.5" y1="112.5" x2="183.5" y2="112.5"/>
	<line class="st0" x1="235.5" y1="112.5" x2="237.5" y2="112.5"/>
	<path class="st0" d="M207.5,126.5c-3,0-8-1-8-1l1.2,4.3c0.5,1.6,1.9,2.7,3.6,2.7h2.2"/>
	<circle class="st0" cx="201" cy="109" r="2.5"/>
	<path class="st0" d="M215,115.5c0-2.2,1.8-4,4-4s4,1.8,4,4"/>
	<path class="st0" d="M197,115.5c0-2.2,1.8-4,4-4s4,1.8,4,4"/>
	<circle class="st0" cx="219" cy="109" r="2.5"/>
	<circle class="st1" cx="224.5" cy="133.5" r="14"/>
	<g>
		<line class="st1" x1="224.5" y1="137.5" x2="224.5" y2="134.5"/>
		<line class="st1" x1="224.5" y1="141.5" x2="224.5" y2="141.5"/>
		<path class="st1" d="M224.5,126.5c2.2,0,4,1.8,4,4s-1.8,4-4,4"/>
		<path class="st1" d="M221.3,128.1c0.7-0.9,1.9-1.6,3.2-1.6"/>
	</g>
	<path class="st0" d="M182.5,121.5c0,0,2,2,10,3v1.7c0,1.3-1,2.3-2.3,2.3h-7.7"/>
	<path class="st0" d="M229.5,115.5h-40l2.4-12c0.3-1.7,1.9-3,3.6-3h28c1.8,0,3.3,1.2,3.6,3L229.5,115.5z"/>
	<line class="st0" x1="206.5" y1="136.5" x2="185.5" y2="136.5"/>
	<line class="st0" x1="207.5" y1="103.5" x2="212.5" y2="103.5"/>
</g>
<g>
	<path class="st0" d="M104.5,226v5c0,1.1-0.9,2-2,2h-6c-1.1,0-2-0.9-2-2v-5"/>
	<path class="st0" d="M147.8,208c-0.4-1-0.9-1.9-1.6-2.8l-2.7-3.2"/>
	<line class="st0" x1="100.5" y1="226" x2="120.9" y2="226"/>
	<path class="st0" d="M96.5,202l-2.7,3.2c-1.5,1.8-2.3,4.1-2.3,6.4V223c0,1.7,1.3,3,3,3"/>
	<path class="st0" d="M143.5,202l-4.7-12.3c-1.1-2.8-3.6-4.8-6.5-5.2c-2.3-0.3-7.6-0.6-12.3-0.6s-10,0.2-12.3,0.6
		c-3,0.4-5.5,2.4-6.5,5.2L96.5,202"/>
	<path class="st0" d="M138.9,202l-3.6-9.5c-0.8-2.2-2.8-3.7-5.1-4c-1.8-0.2-6.5-0.4-10.2-0.4s-8.4,0.2-10.2,0.4
		c-2.3,0.3-4.2,1.8-5.1,4l-3.6,9.5H138.9z"/>
	<circle class="st0" cx="100.5" cy="211.5" r="3"/>
	<line class="st0" x1="143.5" y1="202" x2="148.5" y2="202"/>
	<line class="st0" x1="91.5" y1="202" x2="96.5" y2="202"/>
	<polyline class="st0" points="120.5,215 109.5,215 109.5,221 120.5,221 	"/>
	<circle class="st0" cx="113" cy="194.5" r="2.5"/>
	<path class="st0" d="M123,201c0-2.2,1.8-4,4-4s4,1.8,4,4"/>
	<path class="st0" d="M109,201c0-2.2,1.8-4,4-4s4,1.8,4,4"/>
	<circle class="st0" cx="127" cy="194.5" r="2.5"/>
	<g>
		<g>
			<g>
				<path class="st1" d="M124.5,213.1v7.6c0,3.5,1.2,6.8,3.5,9.8c2.3,2.9,5.1,4.8,8.5,5.6c3.4-0.8,6.2-2.7,8.5-5.6
					c2.3-2.9,3.5-6.2,3.5-9.8v-7.6l-12-5.1L124.5,213.1z"/>
			</g>
		</g>
	</g>
	<line class="st1" x1="134.5" y1="228" x2="138.5" y2="228"/>
	<polyline class="st1" points="136.5,228 136.5,220 134.5,220 	"/>
	<line class="st1" x1="136.5" y1="216" x2="136.5" y2="216"/>
</g>
<g>
	<path class="st1" d="M588.8,110.3L574.6,96c-1.8-1.8-4.7-1.8-6.5,0c0,0,0,0,0,0l-25.2,25.2c-1.8,1.8-1.8,4.7,0,6.5c0,0,0,0,0,0
		l7.7,7.7"/>
	<path class="st0" d="M557.4,114.2h38.1c1.6,0,2.9,1.3,2.9,2.9v25.2c0,1.6-1.3,2.9-2.9,2.9h-38.1c-1.6,0-2.9-1.3-2.9-2.9v-25.2
		C554.5,115.5,555.8,114.2,557.4,114.2z"/>
	<line class="st0" x1="554.5" y1="120.8" x2="598.5" y2="120.8"/>
	<line class="st0" x1="554.5" y1="127.1" x2="598.5" y2="127.1"/>
	<line class="st0" x1="560.9" y1="133.5" x2="569.5" y2="133.5"/>
	<line class="st0" x1="560.9" y1="139.8" x2="566.3" y2="139.8"/>
	<line class="st0" x1="573.8" y1="133.5" x2="579.2" y2="133.5"/>
	<line class="st1" x1="576.5" y1="98.1" x2="564" y2="110.6"/>
	<line class="st1" x1="551" y1="123.6" x2="545.5" y2="129.1"/>
	<line class="st1" x1="580.5" y1="102.1" x2="572" y2="110.6"/>
	<line class="st1" x1="550.5" y1="132.1" x2="549" y2="133.6"/>
</g>
<g>
	<path class="st0" d="M194.1,181.6c-1.1,0-2.2,0.2-3.3,0.4l5.8,5.8l-0.1,8.7l-8.7,0.1l-5.8-5.8c-0.3,1-0.4,2.1-0.4,3.3
		c0,6.9,5.6,12.5,12.5,12.5s12.5-5.6,12.5-12.5S201,181.6,194.1,181.6z"/>
	<g>
		<path class="st0" d="M205.6,199.6l31.5,31.5c1.7,1.7,1.7,4.3,0,6l0,0c-1.7,1.7-4.3,1.7-6,0l-31.5-31.5"/>
	</g>
	<line class="st0" x1="233.7" y1="233.6" x2="233.7" y2="233.6"/>
	<path class="st1" d="M210.2,198.6c6.4,0,11.5,5.1,11.5,11.5"/>
	<path class="st1" d="M210.2,221.6c-6.4,0-11.5-5.1-11.5-11.5"/>
	<path class="st1" d="M229.1,218c0.5-1.2,0.9-2.5,1.2-3.8l4.4-0.8v-6.5l-4.4-0.8c-0.5-2.6-1.6-5.1-3-7.2l2.6-3.7l-4.6-4.6l-3.7,2.6
		c-2.2-1.4-4.6-2.5-7.2-3l-0.8-4.4h-5.5"/>
	<path class="st1" d="M185.7,207.8v5.5l4.4,0.8c0.5,2.6,1.6,5.1,3,7.2l-2.6,3.7l4.6,4.6l3.7-2.6c2.2,1.4,4.6,2.5,7.2,3l0.8,4.4h6.5
		l0.8-4.4c1.2-0.2,2.4-0.6,3.5-1.1"/>
</g>
<g>
	<g>
		<circle class="st3" cx="657.1" cy="135" r="6"/>
		<path class="st3" d="M657.1,132.5c1.4,0,2.5,1.1,2.5,2.5c0,1.4-1.1,2.5-2.5,2.5s-2.5-1.1-2.5-2.5"/>
		<line class="st3" x1="650.7" y1="135.6" x2="631.6" y2="135.6"/>
		<path class="st3" d="M664.2,135.6c0,0-1.3,0,1.3,0c4,0,4-6.7,4-9.4c0-1.3-2.7-6.7-20.2-6.7h-17.7"/>
		<path class="st3" d="M631.4,108.6c6.7,0,15.6,10.8,15.6,10.8"/>
		<line class="st3" x1="631.8" y1="124.8" x2="635.8" y2="124.8"/>
	</g>
	<line class="st3" x1="631.6" y1="132" x2="651.6" y2="132"/>
	<line class="st3" x1="662.6" y1="132" x2="668.6" y2="132"/>
	<path class="st3" d="M666.6,123h-3.5c-0.8,0-1.5,0.7-1.5,1.5l0,0c0,0.8,0.7,1.5,1.5,1.5h6.5"/>
	<path class="st3" d="M666.6,105c-1.1-0.7-7.2-1.3-16.4,13.7"/>
	<line class="st3" x1="641.6" y1="114" x2="639.6" y2="119"/>
	<circle class="st1" cx="686.1" cy="101.5" r="2.5"/>
	<path class="st1" d="M675.2,118.6c1,2,3,3.4,5.4,3.4c3.3,0,6-2.7,6-6c0-3.3-2.7-6-6-6c-2.6,0-4.9,1.7-5.7,4"/>
	<path class="st1" d="M681.6,110.1C681.6,110,681.6,110,681.6,110.1c0-3.4-2.7-6.1-6-6.1s-6,2.7-6,6c0,1.4,0.5,2.7,1.3,3.7
		c-1.3,0.5-2.3,1.8-2.3,3.3c0,1.9,1.6,3.5,3.5,3.5c1.4,0,2.5-0.8,3.1-1.9c1,2,3,3.4,5.4,3.4c3.3,0,6-2.7,6-6
		C686.6,113,684.4,110.6,681.6,110.1z"/>
</g>
<g>
	<path class="st0" d="M386.7,101.5c0-1.8,1.5-3.2,3.2-3.2c1.8,0,3.2,1.5,3.2,3.2"/>
	<path class="st0" d="M393.2,116.9c0-1.8,1.5-3.2,3.2-3.2c1.8,0,3.2,1.5,3.2,3.2"/>
	<path class="st0" d="M381.5,121.3c0-2.9,2.3-5.2,5.2-5.2"/>
	<path class="st0" d="M399.6,118.3c0-1.8,1.5-3.2,3.2-3.2c1.8,0,3.2,1.5,3.2,3.2"/>
	<path class="st0" d="M406.1,120.9c0-1.8,1.5-3.2,3.2-3.2c1.8,0,3.2,1.5,3.2,3.2"/>
	<line class="st0" x1="386.7" y1="101.5" x2="386.7" y2="125.4"/>
	<line class="st0" x1="393.2" y1="101.5" x2="393.2" y2="120.3"/>
	<line class="st0" x1="399.6" y1="116.9" x2="399.6" y2="120.3"/>
	<line class="st0" x1="406.1" y1="118.3" x2="406.1" y2="122.2"/>
	<path class="st0" d="M381.5,129.9c0,8.6,7,15.6,15.6,15.6s15.6-7,15.6-15.6"/>
	<path class="st0" d="M412.6,125.9c0,2.8,0,3.7,0,3.7S412.6,128.7,412.6,125.9c0-2.8,0-5,0-5S412.6,123.1,412.6,125.9z"/>
	<line class="st0" x1="381.5" y1="121.3" x2="381.5" y2="130.1"/>
	<circle class="st1" cx="369" cy="102" r="7.5"/>
	<circle class="st1" cx="411" cy="102" r="7.5"/>
	<path class="st1" d="M383.1,104.9c-0.4-0.9-0.6-1.9-0.6-2.9c0-1,0.2-2,0.6-2.9s0.9-1.7,1.6-2.4c0.7-0.7,1.5-1.2,2.4-1.6
		c0.9-0.4,1.9-0.6,2.9-0.6s2,0.2,2.9,0.6c0.9,0.4,1.7,0.9,2.4,1.6c0.7,0.7,1.2,1.5,1.6,2.4s0.6,1.9,0.6,2.9c0,1-0.2,2-0.6,2.9"/>
</g>
<g>
	<polyline class="st0" points="474.5,126.2 474.5,148.2 455.5,135.2 455.5,127.2 	"/>
	<polygon class="st0" points="470.5,137.2 451.5,124.2 455.5,113.2 474.5,126.2 	"/>
	<polyline class="st0" points="504.5,126.2 504.5,135.2 474.5,148.2 474.5,126.2 	"/>
	<polygon class="st0" points="508.5,124.2 478.5,137.2 474.5,126.2 504.5,113.2 	"/>
	<path class="st1" d="M474.6,121.2c0.8-7.9,6-16.2,12.4-19.3c6.7-3.2,12.1,0.6,12.5,8.4"/>
	<path class="st1" d="M481.3,118.2c0.6-3.4,2.9-6.8,5.7-8.1c2.9-1.4,5.3,0.1,5.7,3.2"/>
	<line class="st1" x1="481.9" y1="93.1" x2="494.5" y2="101.1"/>
	<g>
		<polyline class="st1" points="475.3,92.5 477,95.4 480.3,95.7 482,98.6 485.4,98.9 487.1,101.8 		"/>
	</g>
	<g>
		<polyline class="st1" points="463.3,106.5 465,109.4 468.3,109.7 470,112.6 473.4,112.9 475.1,115.8 		"/>
	</g>
	<g>
		<polyline class="st1" points="467.3,97.5 469,100.4 472.3,100.7 474,103.6 477.4,103.9 479.1,106.8 		"/>
	</g>
	<path class="st1" d="M461,112c0.7-7.8,5.9-16,12.2-19c3.4-1.6,6.4-1.4,8.7,0.2"/>
</g>
<g>
	<path class="st0" d="M324.5,188.9h-34"/>
	<path class="st0" d="M290.9,188.9h-15.4c-2.2,0-4,1.8-4,4v43.9h57v-43.9c0-2.2-1.8-4-4-4l0,0"/>
	<line class="st0" x1="271.5" y1="231.2" x2="328.5" y2="231.2"/>
	<path class="st0" d="M279.5,188.9c0-3.1,2.6-5.7,5.7-5.7c3.1,0,5.7,2.6,5.7,5.7s-2.6,5.7-5.7,5.7"/>
	<path class="st0" d="M309.1,188.9c0-3.1,2.6-5.7,5.7-5.7c3.1,0,5.7,2.6,5.7,5.7s-2.6,5.7-5.7,5.7"/>
	<circle class="st1" cx="300" cy="204.4" r="2.3"/>
	<circle class="st1" cx="309.1" cy="204.4" r="2.3"/>
	<circle class="st1" cx="318.2" cy="204.4" r="2.3"/>
	<circle class="st1" cx="300" cy="213.6" r="2.3"/>
	<circle class="st1" cx="309.1" cy="213.6" r="2.3"/>
	<circle class="st1" cx="318.2" cy="213.6" r="2.3"/>
	<circle class="st1" cx="281.8" cy="213.6" r="2.3"/>
	<circle class="st1" cx="290.9" cy="213.6" r="2.3"/>
	<circle class="st1" cx="300" cy="222.7" r="2.3"/>
	<circle class="st1" cx="309.1" cy="222.7" r="2.3"/>
	<circle class="st1" cx="281.8" cy="222.7" r="2.3"/>
	<circle class="st1" cx="290.9" cy="222.7" r="2.3"/>
	<line class="st1" x1="316.5" y1="220.5" x2="320.5" y2="224.5"/>
	<line class="st1" x1="320.5" y1="220.5" x2="316.5" y2="224.5"/>
</g>
<g>
	<path class="st0" d="M297.4,117.8c1.1-0.5,1.9-1.5,2.1-2.7c1.4-6.3,1.6-12.8,0.8-19.2c-0.2-1.8-1.5-3.2-3.2-3.5
		c-7.4-1.5-15-1.5-22.4,0c-1.7,0.3-2.9,1.7-3.2,3.4c-1.1,6.5-0.8,13.1,0.9,19.5c0.3,1.1,1,2,2.1,2.5c0,0,4.4,2.2,11.3,2.2
		C292.7,120,297.4,117.8,297.4,117.8z"/>
	<path class="st0" d="M280.9,120l-0.1,23.7l5,5l5.2-5l0-23.7"/>
	<circle class="st0" cx="285.9" cy="101.1" r="3"/>
	<line class="st0" x1="284.9" y1="141.1" x2="284.9" y2="120.1"/>
	<path class="st1" d="M304.2,100.2l17,17c1.6,1.6,1.6,4.1,0,5.7L311.1,133c-1.5,1.5-4,1.6-5.5,0.1l-10-10.2"/>
	<path class="st1" d="M323.4,115c2.8,2.8,2.8,7.3,0,10.1"/>
	<path class="st1" d="M325.9,112.5c4.2,4.2,4.2,10.9,0,15.1"/>
	<rect x="307.3" y="120.1" transform="matrix(0.7071 -0.7071 0.7071 0.7071 4.7662 255.48)" class="st1" width="6.9" height="3.8"/>
	<path class="st1" d="M305.5,120.3c-1-1-1-2.6,0-3.5s2.6-1,3.5,0"/>
	<line class="st1" x1="305.5" y1="120.3" x2="307" y2="121.7"/>
	<line class="st1" x1="308.7" y1="105.7" x2="304.7" y2="109.7"/>
</g>
<g>
	<line class="st0" x1="2" y1="214" x2="8" y2="214"/>
	<line class="st0" x1="5.4" y1="227.8" x2="7.2" y2="226.8"/>
	<line class="st0" x1="53.1" y1="228.7" x2="51.3" y2="227.7"/>
	<line class="st0" x1="57" y1="215" x2="51" y2="215"/>
	<line class="st0" x1="53.6" y1="201.2" x2="51.8" y2="202.2"/>
	<line class="st0" x1="30" y1="187" x2="30" y2="193"/>
	<line class="st0" x1="16.2" y1="190.4" x2="17.2" y2="192.2"/>
	<line class="st0" x1="5.9" y1="200.3" x2="7.7" y2="201.3"/>
	<path class="st1" d="M41.9,194L41.9,194c-0.6-0.4-1.4-0.2-1.8,0.3L26.2,211c-2,2.4-1.3,6,1.5,7.6h0c2.8,1.6,6.3,0.4,7.4-2.5
		l7.5-20.4C42.8,195,42.5,194.3,41.9,194z"/>
	<g>
		<path class="st0" d="M58,214c0-15.5-12.5-28-28-28S2,198.5,2,214c0,7.8,3.2,14.9,8.4,20h39.2C54.8,228.9,58,221.8,58,214z"/>
	</g>
	<line class="st0" x1="20" y1="225" x2="20" y2="228"/>
	<line class="st0" x1="25" y1="225" x2="25" y2="228"/>
	<line class="st0" x1="30" y1="225" x2="30" y2="228"/>
	<line class="st0" x1="35" y1="225" x2="35" y2="228"/>
	<line class="st0" x1="40" y1="227" x2="40" y2="228"/>
</g>
</svg>
