<svg xmlns="http://www.w3.org/2000/svg" width="60" height="60" viewBox="0 0 60 60">
  <defs>
    <style>
      .a, .b {
        fill: none;
        stroke-linecap: round;
        stroke-linejoin: round;
        stroke-width: 2px;
      }

      .a {
        stroke: #ba0c2f;
      }

      .b {
        stroke: #000;
      }
    </style>
  </defs>
  <title>fuel-type</title>
  <g>
    <path class="a" d="M46.5,41.5a6,6,0,0,0,12,0"/>
    <path class="a" d="M46.5,22.5a6,6,0,0,0-6-6"/>
    <line class="a" x1="46.5" y1="41.5" x2="46.5" y2="22.5"/>
    <line class="a" x1="58.5" y1="41.5" x2="58.5" y2="15.5"/>
    <circle class="a" cx="55" cy="16" r="3.5"/>
    <path class="a" d="M58.5,16A15.4,15.4,0,0,0,55,5.5"/>
    <line class="b" x1="45.5" y1="57.5" x2="58.5" y2="57.5"/>
    <line class="b" x1="1.5" y1="57.5" x2="40.5" y2="57.5"/>
    <g>
      <line class="b" x1="9.5" y1="30.5" x2="9.5" y2="56.5"/>
      <line class="b" x1="32.5" y1="56.5" x2="32.5" y2="30.5"/>
    </g>
    <rect class="b" x="10.5" y="7.5" width="21" height="18" rx="1" ry="1"/>
    <line class="b" x1="16.5" y1="13.5" x2="25.5" y2="13.5"/>
    <line class="b" x1="16.5" y1="19.5" x2="25.5" y2="19.5"/>
    <rect class="b" x="5.5" y="2.5" width="31" height="28" rx="4" ry="4"/>
    <path class="b" d="M21,36.5s5,6.24,5,9a5,5,0,0,1-10,0c0-1.28,1.07-3.3,2.22-5.1"/>
  </g>
</svg>
