<svg xmlns="http://www.w3.org/2000/svg" width="60" height="60" viewBox="0 0 60 60">
  <defs>
    <style>
      .a, .b {
        fill: none;
        stroke-linecap: round;
        stroke-linejoin: round;
        stroke-width: 2px;
      }

      .a {
        stroke: #000;
      }

      .b {
        stroke: #ba0c2f;
      }
    </style>
  </defs>
  <title>car-body</title>
  <g>
    <path class="a" d="M14.5,46v5a2,2,0,0,1-2,2h-6a2,2,0,0,1-2-2V46"/>
    <path class="a" d="M58.5,31.62a10,10,0,0,0-2.32-6.4L53.5,22"/>
    <line class="a" x1="10.5" y1="46" x2="26.88" y2="46"/>
    <path class="a" d="M6.5,22,3.82,25.22a10,10,0,0,0-2.32,6.4V43a3,3,0,0,0,3,3"/>
    <path class="a" d="M53.5,22,48.81,9.72a8.16,8.16,0,0,0-6.53-5.17A116.34,116.34,0,0,0,30,4a116.34,116.34,0,0,0-12.28.56,8.16,8.16,0,0,0-6.53,5.17L6.5,22"/>
    <path class="a" d="M48.88,22l-3.65-9.55a6.35,6.35,0,0,0-5.08-4C38.37,8.19,33.65,8,30,8s-8.37.19-10.15.43a6.35,6.35,0,0,0-5.08,4L11.12,22Z"/>
    <circle class="a" cx="10.5" cy="31.5" r="3"/>
    <line class="a" x1="53.5" y1="22" x2="58.5" y2="22"/>
    <line class="a" x1="1.5" y1="22" x2="6.5" y2="22"/>
    <polyline class="a" points="27.5 35 19.5 35 19.5 41 25.5 41"/>
    <circle class="a" cx="23" cy="14.5" r="2.5"/>
    <path class="a" d="M33,21a4,4,0,0,1,8,0"/>
    <path class="a" d="M19,21a4,4,0,0,1,8,0"/>
    <circle class="a" cx="37" cy="14.5" r="2.5"/>
    <circle class="b" cx="44.5" cy="42" r="14"/>
    <g>
      <line class="b" x1="44.5" y1="46" x2="44.5" y2="43"/>
      <line class="b" x1="44.5" y1="50" x2="44.5" y2="50"/>
      <path class="b" d="M44.5,35a4,4,0,0,1,0,8"/>
      <path class="b" d="M41.34,36.55A4,4,0,0,1,44.5,35"/>
    </g>
  </g>
</svg>
