<svg xmlns="http://www.w3.org/2000/svg" width="60" height="60" viewBox="0 0 60 60">
  <defs>
    <style>
      .a {
        fill: none;
        stroke: #000;
        stroke-linecap: round;
        stroke-linejoin: round;
        stroke-width: 2px;
      }
    </style>
  </defs>
  <title>car-shape-hatchback</title>
  <g>
    <circle class="a" cx="10.77" cy="37.54" r="4.46"/>
    <circle class="a" cx="49.77" cy="37.54" r="4.46"/>
    <line class="a" x1="45" y1="38" x2="19" y2="38"/>
    <path class="a" d="M55,38h1c3,0,3-5,3-7,0-1-3-5-16-5H10a21.8,21.8,0,0,1-6-1"/>
    <path class="a" d="M6,38,1,37V32c0-2,3-5,3-7s3-6,3-6,11-1,22-1c6,0,15.31,8,15.31,8"/>
    <polyline class="a" points="21 19 23 26 23 35"/>
    <line class="a" x1="27" y1="30" x2="30" y2="30"/>
  </g>
</svg>
