<svg xmlns="http://www.w3.org/2000/svg" width="60" height="60" viewBox="0 0 60 60">
  <defs>
    <style>
      .a {
        fill: none;
        stroke: #000;
        stroke-linecap: round;
        stroke-linejoin: round;
        stroke-width: 2px;
      }
    </style>
  </defs>
  <title>car-shape-estate</title>
  <g>
    <circle class="a" cx="10.77" cy="37.54" r="4.46"/>
    <circle class="a" cx="49.77" cy="37.54" r="4.46"/>
    <line class="a" x1="45" y1="38" x2="19" y2="38"/>
    <path class="a" d="M55,38h1c3,0,3-5,3-7,0-1-3-5-16-5H10a35.48,35.48,0,0,1-7-1"/>
    <path class="a" d="M6,38,1,37V32c0-2,2-5,2-7s4-7,4-7H30c6,0,14.31,8,14.31,8"/>
    <polyline class="a" points="27 19 29 26 29 35"/>
    <line class="a" x1="33" y1="30" x2="35" y2="30"/>
    <line class="a" x1="18.5" y1="30" x2="20.5" y2="30"/>
    <line class="a" x1="15" y1="19" x2="14" y2="26"/>
    <line class="a" x1="14" y1="26" x2="14" y2="30"/>
  </g>
</svg>
