<svg xmlns="http://www.w3.org/2000/svg" width="60" height="60" viewBox="0 0 60 60">
  <defs>
    <style>
      .a {
        fill: none;
        stroke: #000;
        stroke-linecap: round;
        stroke-linejoin: round;
        stroke-width: 2px;
      }
    </style>
  </defs>
  <title>car-shape-convertible</title>
  <g>
    <circle class="a" cx="10.77" cy="37.09" r="4.46"/>
    <circle class="a" cx="49.77" cy="37.09" r="4.46"/>
    <line class="a" x1="45" y1="37.56" x2="19" y2="37.56"/>
    <path class="a" d="M55,37.56h1c3,0,3-5,3-7,0-1-3-5-16-5H17c-4,0-9-6-9-6"/>
    <path class="a" d="M36.12,18.44c4.26,2.29,9.19,7.11,9.19,7.11"/>
    <path class="a" d="M6,37.56l-5-1v-5c0-2,3-6,3-8h8"/>
    <polyline class="a" points="24 22.56 26 25.56 26 34.56"/>
    <line class="a" x1="30" y1="29.56" x2="33" y2="29.56"/>
  </g>
</svg>
