<?xml version="1.0" encoding="utf-8"?>
<!-- Generator: Adobe Illustrator 21.1.0, SVG Export Plug-In . SVG Version: 6.00 Build 0)  -->
<svg version="1.1" id="Layer_1" xmlns="http://www.w3.org/2000/svg" xmlns:xlink="http://www.w3.org/1999/xlink" x="0px" y="0px"
	 viewBox="0 0 55 50" style="enable-background:new 0 0 55 50;" xml:space="preserve">
<style type="text/css">
	.st0{fill:none;stroke:#33414E;stroke-width:2;stroke-linecap:round;stroke-linejoin:round;}
	.st1{fill:none;stroke:#BA0C2F;stroke-width:2;stroke-linecap:round;stroke-linejoin:round;}
</style>
<g>
	<circle class="st0" cx="12.8" cy="19.5" r="4.5"/>
	<circle class="st0" cx="44.8" cy="19.5" r="4.5"/>
	<line class="st0" x1="40" y1="20" x2="21" y2="20"/>
	<path class="st0" d="M50,20c0,0-1,0,1,0c3,0,3-5,3-7c0-1-2-5-15-5H18c-2,0-4-6-4-6"/>
	<path class="st0" d="M3,19c0,0,0-4,0-5c0-2,3.5-4.1,4-6c1-4,2-6,2-6s6-1,17-1c5,0,13,7,13,7"/>
	<line class="st0" x1="8" y1="20" x2="1" y2="19"/>
	<polyline class="st0" points="22,1 24,8 24,17 	"/>
	<line class="st0" x1="28" y1="12" x2="30" y2="12"/>
</g>
<g>
	<circle class="st1" cx="12.8" cy="44.5" r="4.5"/>
	<circle class="st1" cx="44.8" cy="44.5" r="4.5"/>
	<line class="st1" x1="40" y1="45" x2="21" y2="45"/>
	<path class="st1" d="M50,45c0,0-1,0,1,0c3,0,3-5,3-7c0-1-2-5-15-5H18c-2,0-4-6-4-6"/>
	<path class="st1" d="M3,44c0,0,0-4,0-5c0-2,3.5-4.1,4-6c1-4,2-6,2-6s6-1,17-1c5,0,13,7,13,7"/>
	<line class="st1" x1="8" y1="45" x2="1" y2="44"/>
	<polyline class="st1" points="22,26 24,33 24,42 	"/>
	<line class="st1" x1="28" y1="37" x2="30" y2="37"/>
</g>
</svg>
