<?xml version="1.0" encoding="utf-8"?>
<!-- Generator: Adobe Illustrator 16.0.0, SVG Export Plug-In . SVG Version: 6.00 Build 0)  -->
<!DOCTYPE svg PUBLIC "-//W3C//DTD SVG 1.1//EN" "http://www.w3.org/Graphics/SVG/1.1/DTD/svg11.dtd">
<svg version="1.1" id="Layer_1" xmlns="http://www.w3.org/2000/svg" xmlns:xlink="http://www.w3.org/1999/xlink" x="0px" y="0px"
	 width="59px" height="54px" viewBox="0 0 59 54" enable-background="new 0 0 59 54" xml:space="preserve">
<g>
	<defs>
		<rect id="SVGID_1_" width="59" height="54"/>
	</defs>
	<clipPath id="SVGID_2_">
		<use xlink:href="#SVGID_1_"  overflow="visible"/>
	</clipPath>
	
		<path clip-path="url(#SVGID_2_)" fill="none" stroke="#000000" stroke-width="2" stroke-linecap="round" stroke-linejoin="round" stroke-miterlimit="10" d="
		M14,43v5c0,1.104-0.896,2-2,2H6c-1.104,0-2-0.896-2-2v-5"/>
	
		<path clip-path="url(#SVGID_2_)" fill="none" stroke="#000000" stroke-width="2" stroke-linecap="round" stroke-linejoin="round" stroke-miterlimit="10" d="
		M58,28.62c0-2.338-0.82-4.604-2.317-6.401L53,19"/>
	
		<line clip-path="url(#SVGID_2_)" fill="none" stroke="#000000" stroke-width="2" stroke-linecap="round" stroke-linejoin="round" stroke-miterlimit="10" x1="10" y1="43" x2="26.375" y2="43"/>
	
		<path clip-path="url(#SVGID_2_)" fill="none" stroke="#000000" stroke-width="2" stroke-linecap="round" stroke-linejoin="round" stroke-miterlimit="10" d="
		M6,19l-2.683,3.219C1.82,24.016,1,26.281,1,28.621V40c0,1.657,1.343,3,3,3"/>
	
		<path clip-path="url(#SVGID_2_)" fill="none" stroke="#000000" stroke-width="2" stroke-linecap="round" stroke-linejoin="round" stroke-miterlimit="10" d="
		M53,19L48.311,6.725c-1.066-2.79-3.569-4.76-6.528-5.167C39.487,1.242,34.196,1,29.5,1c-4.696,0-9.987,0.242-12.282,0.558
		c-2.959,0.407-5.462,2.377-6.529,5.167L6,19"/>
	
		<path clip-path="url(#SVGID_2_)" fill="none" stroke="#000000" stroke-width="2" stroke-linecap="round" stroke-linejoin="round" stroke-miterlimit="10" d="
		M48.376,19l-3.647-9.547c-0.829-2.17-2.776-3.703-5.077-4.019C37.866,5.188,33.152,5,29.5,5c-3.652,0-8.366,0.188-10.151,0.434
		c-2.301,0.316-4.248,1.849-5.077,4.019L10.624,19H48.376z"/>
	
		<circle clip-path="url(#SVGID_2_)" fill="none" stroke="#000000" stroke-width="2" stroke-linecap="round" stroke-linejoin="round" stroke-miterlimit="10" cx="10" cy="28.5" r="3"/>
	
		<line clip-path="url(#SVGID_2_)" fill="none" stroke="#000000" stroke-width="2" stroke-linecap="round" stroke-linejoin="round" stroke-miterlimit="10" x1="53" y1="19" x2="58" y2="19"/>
	
		<line clip-path="url(#SVGID_2_)" fill="none" stroke="#000000" stroke-width="2" stroke-linecap="round" stroke-linejoin="round" stroke-miterlimit="10" x1="1" y1="19" x2="6" y2="19"/>
	
		<polyline clip-path="url(#SVGID_2_)" fill="none" stroke="#000000" stroke-width="2" stroke-linecap="round" stroke-linejoin="round" stroke-miterlimit="10" points="
		27,32 19,32 19,38 25,38 	"/>
	
		<circle clip-path="url(#SVGID_2_)" fill="none" stroke="#000000" stroke-width="2" stroke-linecap="round" stroke-linejoin="round" stroke-miterlimit="10" cx="22.5" cy="11.5" r="2.5"/>
	
		<path clip-path="url(#SVGID_2_)" fill="none" stroke="#000000" stroke-width="2" stroke-linecap="round" stroke-linejoin="round" stroke-miterlimit="10" d="
		M32.5,18c0-2.209,1.791-4,4-4s4,1.791,4,4"/>
	
		<path clip-path="url(#SVGID_2_)" fill="none" stroke="#000000" stroke-width="2" stroke-linecap="round" stroke-linejoin="round" stroke-miterlimit="10" d="
		M18.5,18c0-2.209,1.791-4,4-4s4,1.791,4,4"/>
	
		<circle clip-path="url(#SVGID_2_)" fill="none" stroke="#000000" stroke-width="2" stroke-linecap="round" stroke-linejoin="round" stroke-miterlimit="10" cx="36.5" cy="11.5" r="2.5"/>
	
		<circle clip-path="url(#SVGID_2_)" fill="none" stroke="#BA0C2F" stroke-width="2" stroke-linecap="round" stroke-linejoin="round" stroke-miterlimit="10" cx="44" cy="39" r="14"/>
	
		<line clip-path="url(#SVGID_2_)" fill="none" stroke="#BA0C2F" stroke-width="2" stroke-linecap="round" stroke-linejoin="round" stroke-miterlimit="10" x1="44" y1="43" x2="44" y2="40"/>
	
		<line clip-path="url(#SVGID_2_)" fill="none" stroke="#BA0C2F" stroke-width="2" stroke-linecap="round" stroke-linejoin="round" stroke-miterlimit="10" x1="44" y1="47" x2="44" y2="47"/>
	
		<path clip-path="url(#SVGID_2_)" fill="none" stroke="#BA0C2F" stroke-width="2" stroke-linecap="round" stroke-linejoin="round" stroke-miterlimit="10" d="
		M44,32c2.209,0,4,1.791,4,4s-1.791,4-4,4"/>
	
		<path clip-path="url(#SVGID_2_)" fill="none" stroke="#BA0C2F" stroke-width="2" stroke-linecap="round" stroke-linejoin="round" stroke-miterlimit="10" d="
		M40.835,33.554C41.566,32.608,42.712,32,44,32"/>
</g>
</svg>
