<?xml version="1.0" encoding="utf-8"?>
<!-- Generator: Adobe Illustrator 21.1.0, SVG Export Plug-In . SVG Version: 6.00 Build 0)  -->
<svg version="1.1" id="Layer_1" xmlns="http://www.w3.org/2000/svg" xmlns:xlink="http://www.w3.org/1999/xlink" x="0px" y="0px"
	 viewBox="0 0 58 52" style="enable-background:new 0 0 58 52;" xml:space="preserve">
<style type="text/css">
	.st0{fill:none;stroke:#000000;stroke-width:1.8246;stroke-linecap:round;stroke-linejoin:round;stroke-miterlimit:10;}
	.st1{fill:none;stroke:#BA0C2F;stroke-width:1.8246;stroke-linecap:round;stroke-linejoin:round;stroke-miterlimit:10;}
</style>
<g>
	<path class="st0" d="M14.9,40.6v4.6c0,1-0.8,1.8-1.8,1.8H7.6c-1,0-1.8-0.8-1.8-1.8v-4.6"/>
	<path class="st0" d="M54.4,24.2c-0.4-0.9-0.9-1.8-1.5-2.5l-2.4-2.9"/>
	<line class="st0" x1="11.2" y1="40.6" x2="29.8" y2="40.6"/>
	<path class="st0" d="M7.6,18.7l-2.4,2.9C3.7,23.3,3,25.3,3,27.5v10.4c0,1.5,1.2,2.7,2.7,2.7"/>
	<path class="st0" d="M50.4,18.7L46.2,7.5c-1-2.5-3.3-4.3-6-4.7C38.1,2.5,33.3,2.3,29,2.3s-9.1,0.2-11.2,0.5c-2.7,0.4-5,2.2-6,4.7
		L7.6,18.7"/>
	<path class="st0" d="M46.2,18.7L42.9,10c-0.8-2-2.5-3.4-4.6-3.7c-1.6-0.2-5.9-0.4-9.3-0.4s-7.6,0.2-9.3,0.4
		C17.6,6.6,15.9,8,15.1,10l-3.3,8.7H46.2z"/>
	<circle class="st0" cx="11.2" cy="27.4" r="2.7"/>
	<line class="st0" x1="50.4" y1="18.7" x2="55" y2="18.7"/>
	<line class="st0" x1="3" y1="18.7" x2="7.6" y2="18.7"/>
	<polyline class="st0" points="29.5,30.6 19.4,30.6 19.4,36 29.5,36 	"/>
	<circle class="st0" cx="22.6" cy="11.9" r="2.3"/>
	<path class="st0" d="M31.7,17.8c0-2,1.6-3.6,3.6-3.6c2,0,3.6,1.6,3.6,3.6"/>
	<path class="st0" d="M19,17.8c0-2,1.6-3.6,3.6-3.6s3.6,1.6,3.6,3.6"/>
	<circle class="st0" cx="35.4" cy="11.9" r="2.3"/>
	<g>
		<g>
			<g>
				<path class="st1" d="M34,29.6v6.7c0,3.1,1,6,3,8.6c2,2.5,4.5,4.2,7.4,4.9c2.9-0.7,5.5-2.4,7.4-4.9c2-2.6,3-5.5,3-8.6v-6.7
					l-10.5-4.5L34,29.6z"/>
			</g>
		</g>
	</g>
	<polyline class="st1" points="40.4,37.9 44.1,40.6 49.5,34.2 	"/>
</g>
</svg>
