<?xml version="1.0" encoding="utf-8"?>
<!-- Generator: Adobe Illustrator 21.1.0, SVG Export Plug-In . SVG Version: 6.00 Build 0)  -->
<svg version="1.1" id="Layer_1" xmlns="http://www.w3.org/2000/svg" xmlns:xlink="http://www.w3.org/1999/xlink" x="0px" y="0px"
	 viewBox="0 0 60 60" style="enable-background:new 0 0 60 60;" xml:space="preserve">
<style type="text/css">
	.st0{fill:none;stroke:#000000;stroke-width:2;stroke-linecap:round;stroke-linejoin:round;stroke-miterlimit:10;}
	.st1{fill:none;stroke:#BA0C2F;stroke-width:2;stroke-linecap:round;stroke-linejoin:round;stroke-miterlimit:10;}
	.st2{fill:#BA0C2F;}
	.st3{fill:none;stroke:#000000;stroke-width:2;stroke-linecap:round;stroke-linejoin:round;}
</style>
<g>
	<path class="st0" d="M98-66.6c0-12.2,9.8-22,22-22s22,9.8,22,22"/>
	<path class="st0" d="M142.3-49.6c0,8.8-7.2,16-16,16"/>
	<rect x="139.5" y="-66.1" class="st0" width="5" height="15.5"/>
	<rect x="95.5" y="-66.1" class="st0" width="5" height="15.5"/>
	<path class="st0" d="M123.3-31.4h-6.5c-1.2,0-2.3-1-2.3-2.2v0c0-1.2,1-2.2,2.3-2.2h6.5c1.2,0,2.3,1,2.3,2.2v0
		C125.5-32.4,124.5-31.4,123.3-31.4z"/>
	<path class="st1" d="M111.3-50.6c0,4.8,3.9,8.8,8.8,8.8s8.8-3.9,8.8-8.8H111.3z"/>
	<path class="st0" d="M144.5-54.4c2.2,0,4-1.8,4-4s-1.8-4-4-4V-54.4z"/>
	<path class="st0" d="M95.5-62.4c-2.2,0-4,1.8-4,4s1.8,4,4,4V-62.4z"/>
	<path class="st1" d="M116.5-57.6c0-1.7-1.3-3-3-3s-3,1.3-3,3"/>
	<path class="st1" d="M129.5-57.6c0-1.7-1.3-3-3-3c-1.7,0-3,1.3-3,3"/>
	<path class="st1" d="M104.5-64.6c5,0,11-8,8-17c3,9,8,18,23,16"/>
</g>
<g>
	<path class="st0" d="M195.5-48.5v-38c0-1.1,0.9-2,2-2h39c1.1,0,2,0.9,2,2v46c0,5-4,9-9,9h-39c-5,0-9-4-9-9v-2c0-1.1,0.9-2,2-2h39
		c1.1,0,2,0.9,2,2v1c0,5,5,6,5,6"/>
	<line class="st1" x1="212.5" y1="-78.5" x2="231.5" y2="-78.5"/>
	<line class="st1" x1="202.5" y1="-78.5" x2="206.5" y2="-78.5"/>
	<line class="st1" x1="227.5" y1="-67.5" x2="231.5" y2="-67.5"/>
	<line class="st1" x1="202.5" y1="-67.5" x2="221.5" y2="-67.5"/>
	<line class="st1" x1="217.5" y1="-56.5" x2="231.5" y2="-56.5"/>
	<line class="st1" x1="202.5" y1="-56.5" x2="211.5" y2="-56.5"/>
	<circle class="st1" cx="209.5" cy="-78.5" r="3"/>
	<circle class="st1" cx="224.5" cy="-67.5" r="3"/>
	<circle class="st1" cx="214.5" cy="-56.5" r="3"/>
</g>
<g>
	<path class="st0" d="M404.5,16.5c-0.6-0.4-1.2-0.7-1.8-1"/>
	<path class="st0" d="M413.4,26.5c-0.7-1.8-1.7-3.5-2.9-5"/>
	<path class="st0" d="M406.5,47.2c3.2-2.3,5.6-5.3,6.9-8.7"/>
	<path class="st0" d="M377.8,50.2c3.5,1.5,7.5,2.3,11.7,2.3c4.5,0,8.8-1,12.5-2.7"/>
	<path class="st0" d="M376.3,15.5c-7.1,3.5-11.8,9.8-11.8,17c0,6.2,3.5,11.7,9,15.4"/>
	<path class="st1" d="M399,19.3c-2.8-1.3-6-2-9.5-2s-6.7,0.7-9.5,2"/>
	<polyline class="st0" points="413.5,26.5 418.5,26.5 418.5,38.5 413.5,38.5 	"/>
	<path class="st0" d="M364.5,32.5L364.5,32.5c-1.7,0-3-1.3-3-3v-4"/>
	<path class="st1" d="M383.2,18.1c-2-1.7-3.2-4.3-3.2-7.1c0-5.2,4.3-9.5,9.5-9.5S399,5.8,399,11c0,2.9-1.3,5.4-3.2,7.1"/>
	<polyline class="st0" points="373.5,47.9 373.5,58.5 380.5,58.5 381.1,51.3 	"/>
	<polyline class="st0" points="398.9,51 399.5,58.5 406.5,58.5 406.5,47.2 	"/>
	<polyline class="st0" points="404.5,16.5 411,13 410.5,21.5 	"/>
	<path class="st0" d="M403,26.1c0-1.4,1.1-2.5,2.5-2.5s2.5,1.1,2.5,2.5"/>
	<path class="st1" d="M387.5,8.5c0-1.1,0.9-2,2-2"/>
	<line class="st1" x1="387.5" y1="8.5" x2="387.5" y2="13.5"/>
	<line class="st1" x1="386.5" y1="13.5" x2="391.5" y2="13.5"/>
	<line class="st1" x1="387.5" y1="9.5" x2="389.5" y2="9.5"/>
</g>
<g>
	<path class="st1" d="M43.5-50c0-1.1,0.9-2,2-2"/>
	<line class="st1" x1="43.5" y1="-50" x2="43.5" y2="-45"/>
	<line class="st1" x1="42.5" y1="-45" x2="47.5" y2="-45"/>
	<line class="st1" x1="43.5" y1="-49" x2="45.5" y2="-49"/>
	<g>
		<path class="st1" d="M44.5-34c-3.9,0-7.4-1.6-9.9-4.1c-2.5-2.5-4.1-6-4.1-9.9s1.6-7.4,4.1-9.9"/>
		<path class="st1" d="M44.5-62c3.9,0,7.4,1.6,9.9,4.1s4.1,6,4.1,9.9s-1.6,7.4-4.1,9.9"/>
		<polyline class="st1" points="30.5,-59 36.4,-59 36.4,-53.1 		"/>
		<polyline class="st1" points="58.5,-37 52.6,-37 52.6,-42.9 		"/>
	</g>
	<path class="st0" d="M14.5-44v5c0,1.1-0.9,2-2,2h-6c-1.1,0-2-0.9-2-2v-5"/>
	<path class="st0" d="M58.5-58.4c0-2.3-0.8-4.6-2.3-6.4L53.5-68"/>
	<line class="st0" x1="10.5" y1="-44" x2="26.9" y2="-44"/>
	<path class="st0" d="M6.5-68l-2.7,3.2c-1.5,1.8-2.3,4.1-2.3,6.4V-47c0,1.7,1.3,3,3,3"/>
	<path class="st0" d="M53.5-68l-4.7-12.3c-1.1-2.8-3.6-4.8-6.5-5.2C40-85.8,34.7-86,30-86s-10,0.2-12.3,0.6c-3,0.4-5.5,2.4-6.5,5.2
		L6.5-68"/>
	<path class="st0" d="M48.9-68l-3.6-9.5c-0.8-2.2-2.8-3.7-5.1-4C38.4-81.8,33.7-82,30-82s-8.4,0.2-10.2,0.4c-2.3,0.3-4.2,1.8-5.1,4
		L11.1-68H48.9z"/>
	<circle class="st0" cx="10.5" cy="-58.5" r="3"/>
	<line class="st0" x1="53.5" y1="-68" x2="58.5" y2="-68"/>
	<line class="st0" x1="1.5" y1="-68" x2="6.5" y2="-68"/>
	<polyline class="st0" points="27.5,-55 19.5,-55 19.5,-49 25.5,-49 	"/>
	<circle class="st0" cx="23" cy="-75.5" r="2.5"/>
	<path class="st0" d="M33-69c0-2.2,1.8-4,4-4s4,1.8,4,4"/>
	<path class="st0" d="M19-69c0-2.2,1.8-4,4-4s4,1.8,4,4"/>
	<circle class="st0" cx="37" cy="-75.5" r="2.5"/>
</g>
<g>
	<path class="st0" d="M-255.5,46v5c0,1.1-0.9,2-2,2h-6c-1.1,0-2-0.9-2-2v-5"/>
	<path class="st0" d="M-211.5,31.6c0-2.3-0.8-4.6-2.3-6.4l-2.7-3.2"/>
	<line class="st0" x1="-259.5" y1="46" x2="-243.1" y2="46"/>
	<path class="st0" d="M-263.5,22l-2.7,3.2c-1.5,1.8-2.3,4.1-2.3,6.4V43c0,1.7,1.3,3,3,3"/>
	<path class="st0" d="M-216.5,22l-4.7-12.3c-1.1-2.8-3.6-4.8-6.5-5.2C-230,4.2-235.3,4-240,4s-10,0.2-12.3,0.6
		c-3,0.4-5.5,2.4-6.5,5.2l-4.7,12.3"/>
	<path class="st0" d="M-221.1,22l-3.6-9.5c-0.8-2.2-2.8-3.7-5.1-4C-231.6,8.2-236.3,8-240,8s-8.4,0.2-10.2,0.4
		c-2.3,0.3-4.2,1.8-5.1,4l-3.6,9.5H-221.1z"/>
	<circle class="st0" cx="-259.5" cy="31.5" r="3"/>
	<line class="st0" x1="-216.5" y1="22" x2="-211.5" y2="22"/>
	<line class="st0" x1="-268.5" y1="22" x2="-263.5" y2="22"/>
	<polyline class="st0" points="-242.5,35 -250.5,35 -250.5,41 -244.5,41 	"/>
	<circle class="st0" cx="-247" cy="14.5" r="2.5"/>
	<path class="st0" d="M-237,21c0-2.2,1.8-4,4-4s4,1.8,4,4"/>
	<path class="st0" d="M-251,21c0-2.2,1.8-4,4-4s4,1.8,4,4"/>
	<circle class="st0" cx="-233" cy="14.5" r="2.5"/>
	<circle class="st1" cx="-225.5" cy="42" r="14"/>
	<g>
		<line class="st1" x1="-225.5" y1="46" x2="-225.5" y2="43"/>
		<line class="st1" x1="-225.5" y1="50" x2="-225.5" y2="50"/>
		<path class="st1" d="M-225.5,35c2.2,0,4,1.8,4,4s-1.8,4-4,4"/>
		<path class="st1" d="M-228.7,36.6c0.7-0.9,1.9-1.6,3.2-1.6"/>
	</g>
</g>
<g>
	<g>
		<path class="st1" d="M298-69.3c0-1.4,1.1-2.5,2.5-2.5"/>
		<line class="st1" x1="298" y1="-69.3" x2="298" y2="-63.1"/>
		<line class="st1" x1="296.8" y1="-63.1" x2="303" y2="-63.1"/>
		<line class="st1" x1="298" y1="-68" x2="300.5" y2="-68"/>
	</g>
	<line class="st0" x1="290.5" y1="-84.5" x2="318.5" y2="-84.5"/>
	<line class="st0" x1="282.5" y1="-84.5" x2="284.5" y2="-84.5"/>
	<path class="st0" d="M304.5-44.5v7l1,0h2c3.3,0,6,2.7,6,6v0h-27v0c0-3.3,2.7-6,6-6h2l1,0v-8l0-2.5c-8.1-2-14.1-9.4-14.1-18.1v-22.4
		h37.3v22.4c0,10.3-8.3,18.6-18.6,18.6"/>
	<line class="st0" x1="328.5" y1="-79.5" x2="319.5" y2="-79.5"/>
	<path class="st0" d="M328.5-79.5c0,0,0,5,0,7c0,4-2,10-10,11"/>
	<path class="st0" d="M281.5-61.5c-8-1-10-7-10-11c0-2,0-7,0-7h9"/>
	<path class="st1" d="M301.4-79.1l0.6,0.6c0.5,0.5,1.2,0.7,1.9,0.5l0.8-0.2c1.1-0.3,2.2,0.3,2.5,1.4l0.2,0.8
		c0.2,0.7,0.7,1.2,1.4,1.4l0.8,0.2c1.1,0.3,1.7,1.4,1.4,2.5l-0.2,0.8c-0.2,0.7,0,1.4,0.5,1.9l0.6,0.6c0.8,0.8,0.8,2.1,0,2.8
		l-0.6,0.6c-0.5,0.5-0.7,1.2-0.5,1.9l0.2,0.8c0.3,1.1-0.3,2.2-1.4,2.5l-0.8,0.2c-0.7,0.2-1.2,0.7-1.4,1.4l-0.2,0.8
		c-0.3,1.1-1.4,1.7-2.5,1.4l-0.8-0.2c-0.7-0.2-1.4,0-1.9,0.5l-0.6,0.6c-0.8,0.8-2.1,0.8-2.8,0l-0.6-0.6c-0.5-0.5-1.2-0.7-1.9-0.5
		l-0.8,0.2c-1.1,0.3-2.2-0.3-2.5-1.4l-0.2-0.8c-0.2-0.7-0.7-1.2-1.4-1.4l-0.8-0.2c-1.1-0.3-1.7-1.4-1.4-2.5l0.2-0.8
		c0.2-0.7,0-1.4-0.5-1.9l-0.6-0.6c-0.8-0.8-0.8-2.1,0-2.8l0.6-0.6c0.5-0.5,0.7-1.2,0.5-1.9l-0.2-0.8c-0.3-1.1,0.3-2.2,1.4-2.5
		l0.8-0.2c0.7-0.2,1.2-0.7,1.4-1.4l0.2-0.8c0.3-1.1,1.4-1.7,2.5-1.4l0.8,0.2c0.7,0.2,1.4,0,1.9-0.5l0.6-0.6
		C299.4-79.9,300.6-79.9,301.4-79.1z"/>
</g>
<g>
	<g>
		<path d="M-150,149.5c-13.8,0-25-11.2-25-25s11.2-25,25-25s25,11.2,25,25S-136.2,149.5-150,149.5z M-150,101.5
			c-12.7,0-23,10.3-23,23s10.3,23,23,23s23-10.3,23-23S-137.3,101.5-150,101.5z"/>
	</g>
	<g>
		<path d="M-150,106.5c-0.3,0-0.5-0.1-0.7-0.3c-0.2-0.2-0.3-0.5-0.3-0.7c0-0.3,0.1-0.5,0.3-0.7c0.4-0.4,1-0.4,1.4,0
			c0.2,0.2,0.3,0.4,0.3,0.7c0,0.3-0.1,0.5-0.3,0.7C-149.5,106.4-149.7,106.5-150,106.5z"/>
	</g>
	<g>
		<path d="M-159.5,109c-0.1,0-0.3,0-0.4-0.1c-0.1,0-0.2-0.1-0.3-0.2c-0.2-0.2-0.3-0.4-0.3-0.7c0-0.3,0.1-0.5,0.3-0.7
			c0.1-0.1,0.2-0.2,0.3-0.2c0.4-0.1,0.8-0.1,1.1,0.2c0.2,0.2,0.3,0.4,0.3,0.7c0,0.3-0.1,0.5-0.3,0.7C-159,108.9-159.2,109-159.5,109
			z"/>
	</g>
	<g>
		<path d="M-166.5,116c-0.3,0-0.5-0.1-0.7-0.3c-0.2-0.2-0.3-0.5-0.3-0.7c0-0.3,0.1-0.5,0.3-0.7c0.4-0.4,1-0.4,1.4,0
			c0.2,0.2,0.3,0.4,0.3,0.7c0,0.3-0.1,0.5-0.3,0.7C-165.9,115.9-166.2,116-166.5,116z"/>
	</g>
	<g>
		<path d="M-169,125.5c-0.3,0-0.5-0.1-0.7-0.3c-0.2-0.2-0.3-0.5-0.3-0.7c0-0.1,0-0.3,0.1-0.4c0.1-0.1,0.1-0.2,0.2-0.3
			c0.4-0.4,1-0.4,1.4,0c0.1,0.1,0.2,0.2,0.2,0.3c0.1,0.1,0.1,0.3,0.1,0.4c0,0.3-0.1,0.5-0.3,0.7C-168.5,125.4-168.7,125.5-169,125.5
			z"/>
	</g>
	<g>
		<path d="M-166.5,135c-0.1,0-0.3,0-0.4-0.1c-0.1-0.1-0.2-0.1-0.3-0.2c-0.1-0.1-0.2-0.2-0.2-0.3c0-0.1-0.1-0.3-0.1-0.4
			c0-0.1,0-0.3,0.1-0.4c0.1-0.1,0.1-0.2,0.2-0.3c0.1-0.1,0.2-0.2,0.3-0.2c0.4-0.2,0.8-0.1,1.1,0.2c0.1,0.1,0.2,0.2,0.2,0.3
			c0.1,0.1,0.1,0.3,0.1,0.4c0,0.1,0,0.3-0.1,0.4c0,0.1-0.1,0.2-0.2,0.3C-165.9,134.9-166.2,135-166.5,135z"/>
	</g>
	<g>
		<path d="M-159.5,142c-0.1,0-0.3,0-0.4-0.1c-0.1-0.1-0.2-0.1-0.3-0.2c-0.1-0.1-0.2-0.2-0.2-0.3c0-0.1-0.1-0.3-0.1-0.4
			c0-0.3,0.1-0.5,0.3-0.7c0.1-0.1,0.2-0.2,0.3-0.2c0.2-0.1,0.5-0.1,0.8,0c0.1,0,0.2,0.1,0.3,0.2c0.2,0.2,0.3,0.4,0.3,0.7
			c0,0.1,0,0.3-0.1,0.4c-0.1,0.1-0.1,0.2-0.2,0.3c-0.1,0.1-0.2,0.2-0.3,0.2C-159.2,141.9-159.4,142-159.5,142z"/>
	</g>
	<g>
		<path d="M-150,144.5c-0.3,0-0.5-0.1-0.7-0.3c-0.1-0.1-0.2-0.2-0.2-0.3c0-0.1-0.1-0.3-0.1-0.4c0-0.1,0-0.1,0-0.2
			c0-0.1,0-0.1,0.1-0.2c0-0.1,0.1-0.1,0.1-0.2c0-0.1,0.1-0.1,0.1-0.1c0.3-0.3,0.7-0.4,1.1-0.2c0.1,0.1,0.2,0.1,0.3,0.2
			c0.2,0.2,0.3,0.4,0.3,0.7c0,0.1,0,0.3-0.1,0.4c-0.1,0.1-0.1,0.2-0.2,0.3c-0.1,0.1-0.2,0.2-0.3,0.2
			C-149.7,144.5-149.9,144.5-150,144.5z"/>
	</g>
	<g>
		<path d="M-140.5,142c-0.1,0-0.3,0-0.4-0.1c-0.1-0.1-0.2-0.1-0.3-0.2c-0.1-0.1-0.2-0.2-0.2-0.3c0-0.1-0.1-0.3-0.1-0.4
			c0-0.3,0.1-0.5,0.3-0.7c0.1-0.1,0.2-0.2,0.3-0.2c0.2-0.1,0.4-0.1,0.6-0.1c0.1,0,0.1,0,0.2,0.1c0.1,0,0.1,0.1,0.2,0.1
			c0,0,0.1,0.1,0.1,0.1c0.2,0.2,0.3,0.4,0.3,0.7c0,0.1,0,0.3-0.1,0.4c-0.1,0.1-0.1,0.2-0.2,0.3C-140,141.8-140.2,142-140.5,142z"/>
	</g>
	<g>
		<path d="M-133.6,135c-0.1,0-0.3,0-0.4-0.1c-0.1-0.1-0.2-0.1-0.3-0.2c-0.1-0.1-0.2-0.2-0.2-0.3s-0.1-0.3-0.1-0.4
			c0-0.1,0-0.3,0.1-0.4c0-0.1,0.1-0.2,0.2-0.3c0.1-0.1,0.2-0.2,0.3-0.2c0.4-0.2,0.8-0.1,1.1,0.2c0.1,0.1,0.2,0.2,0.2,0.3
			c0,0.1,0.1,0.3,0.1,0.4c0,0.1,0,0.3-0.1,0.4c-0.1,0.1-0.1,0.2-0.2,0.3C-133,134.9-133.3,135-133.6,135z"/>
	</g>
	<g>
		<path d="M-131,125.5c-0.1,0-0.3,0-0.4-0.1c-0.1-0.1-0.2-0.1-0.3-0.2c-0.2-0.2-0.3-0.5-0.3-0.7c0-0.1,0-0.3,0.1-0.4
			c0.1-0.1,0.1-0.2,0.2-0.3c0.1-0.1,0.2-0.2,0.3-0.2c0.4-0.2,0.8-0.1,1.1,0.2c0.1,0.1,0.2,0.2,0.2,0.3c0.1,0.1,0.1,0.3,0.1,0.4
			c0,0.3-0.1,0.5-0.3,0.7C-130.5,125.4-130.7,125.5-131,125.5z"/>
	</g>
	<g>
		<path d="M-133.6,116c-0.3,0-0.5-0.1-0.7-0.3c-0.2-0.2-0.3-0.5-0.3-0.7c0-0.3,0.1-0.5,0.3-0.7c0.4-0.4,1-0.4,1.4,0
			c0.2,0.2,0.3,0.4,0.3,0.7c0,0.3-0.1,0.5-0.3,0.7C-133,115.9-133.3,116-133.6,116z"/>
	</g>
	<g>
		<path d="M-142,97.5h-16c-0.6,0-1-0.4-1-1v-5c0-0.6,0.4-1,1-1h16c0.6,0,1,0.4,1,1v5C-141,97.1-141.4,97.5-142,97.5z M-157,95.5h14
			v-3h-14V95.5z"/>
	</g>
	<g>
		<path d="M-154,101.5c-0.6,0-1-0.4-1-1v-4c0-0.6,0.4-1,1-1s1,0.4,1,1v4C-153,101.1-153.4,101.5-154,101.5z"/>
	</g>
	<g>
		<path d="M-146,101.5c-0.6,0-1-0.4-1-1v-4c0-0.6,0.4-1,1-1s1,0.4,1,1v4C-145,101.1-145.4,101.5-146,101.5z"/>
	</g>
	<g>
		<path d="M-127.5,108c-0.3,0-0.5-0.1-0.7-0.3l-7-7c-0.4-0.4-0.4-1,0-1.4s1-0.4,1.4,0l7,7c0.4,0.4,0.4,1,0,1.4
			C-127,107.9-127.2,108-127.5,108z"/>
	</g>
	<g>
		<path d="M-172.5,108c-0.3,0-0.5-0.1-0.7-0.3c-0.4-0.4-0.4-1,0-1.4l7-7c0.4-0.4,1-0.4,1.4,0s0.4,1,0,1.4l-7,7
			C-172,107.9-172.2,108-172.5,108z"/>
	</g>
	<g>
		<path class="st2" d="M-149.9,129.5c-0.9,0-1.8-0.2-2.6-0.7c-1.3-0.8-2.3-2.1-2.5-3.6c-0.3-1.5,0.1-3.1,1.1-4.3l11.7-14.1
			c0.7-0.8,1.8-1,2.8-0.5c0.9,0.5,1.3,1.7,0.9,2.7l-6.4,17.2c-0.5,1.4-1.7,2.6-3.1,3.1C-148.7,129.4-149.3,129.5-149.9,129.5z
			 M-140.6,108c-0.1,0-0.1,0-0.1,0.1l-11.7,14.2c-0.6,0.7-0.9,1.7-0.7,2.6s0.7,1.7,1.6,2.2c0.8,0.5,1.8,0.6,2.7,0.2
			c0.9-0.3,1.6-1,1.9-1.9l6.4-17.2C-140.4,108.2-140.4,108.1-140.6,108C-140.5,108-140.6,108-140.6,108z"/>
	</g>
</g>
<g>
	<path class="st0" d="M-75.5,46v5c0,1.1-0.9,2-2,2h-6c-1.1,0-2-0.9-2-2v-5"/>
	<path class="st0" d="M-32.2,28c-0.4-1-0.9-1.9-1.6-2.8l-2.7-3.2"/>
	<line class="st0" x1="-79.5" y1="46" x2="-59.1" y2="46"/>
	<path class="st0" d="M-83.5,22l-2.7,3.2c-1.5,1.8-2.3,4.1-2.3,6.4V43c0,1.7,1.3,3,3,3"/>
	<path class="st0" d="M-36.5,22l-4.7-12.3c-1.1-2.8-3.6-4.8-6.5-5.2C-50,4.2-55.3,4-60,4s-10,0.2-12.3,0.6c-3,0.4-5.5,2.4-6.5,5.2
		L-83.5,22"/>
	<path class="st0" d="M-41.1,22l-3.6-9.5c-0.8-2.2-2.8-3.7-5.1-4C-51.6,8.2-56.3,8-60,8s-8.4,0.2-10.2,0.4c-2.3,0.3-4.2,1.8-5.1,4
		l-3.6,9.5H-41.1z"/>
	<circle class="st0" cx="-79.5" cy="31.5" r="3"/>
	<line class="st0" x1="-36.5" y1="22" x2="-31.5" y2="22"/>
	<line class="st0" x1="-88.5" y1="22" x2="-83.5" y2="22"/>
	<polyline class="st0" points="-59.5,35 -70.5,35 -70.5,41 -59.5,41 	"/>
	<circle class="st0" cx="-67" cy="14.5" r="2.5"/>
	<path class="st0" d="M-57,21c0-2.2,1.8-4,4-4s4,1.8,4,4"/>
	<path class="st0" d="M-71,21c0-2.2,1.8-4,4-4s4,1.8,4,4"/>
	<circle class="st0" cx="-53" cy="14.5" r="2.5"/>
	<g>
		<g>
			<g>
				<path class="st1" d="M-54.5,33.9v7.3c0,3.4,1.1,6.6,3.3,9.4c2.2,2.8,4.9,4.6,8.2,5.4c3.2-0.8,6-2.6,8.2-5.4
					c2.2-2.8,3.3-6,3.3-9.4v-7.3L-43,29L-54.5,33.9z"/>
			</g>
		</g>
	</g>
	<polyline class="st1" points="-47.5,43 -43.5,46 -37.5,39 	"/>
</g>
<g>
	<path class="st1" d="M291.2,44.8c2.6-2.2,5.9-7.8,1.5-13.3c-5.6-7-21-10-21-10s1.1,14.1,6.6,21C282.7,48.1,288.8,46.8,291.2,44.8z"
		/>
	<path class="st0" d="M295.6,58.5c0,0,2.9-8.1,10-16c9-10,13-26,13-32"/>
	<path class="st0" d="M305.5,42c7.5,5,16.4,0.6,20.2-6.5c9-17-7-34-8-34c-3,7-13.5,14-17,21C296.6,30.5,298.6,37.5,305.5,42z"/>
	<g>
		<path class="st1" d="M277.6,27.5c17,18,19,22,19,22"/>
		<path class="st1" d="M291.2,44.8c2.6-2.2,5.9-7.8,1.5-13.3c-5.6-7-21-10-21-10s1.1,14.1,6.6,21C282.7,48.1,288.8,46.8,291.2,44.8z
			"/>
		<path class="st0" d="M295.6,58.5c0,0,2.9-8.1,10-16c9-10,13-26,13-32"/>
		<path class="st0" d="M305.5,42c7.5,5,16.4,0.6,20.2-6.5c9-17-7-34-8-34c-3,7-13.5,14-17,21C296.6,30.5,298.6,37.5,305.5,42z"/>
	</g>
</g>
<g>
	<circle class="st1" cx="96" cy="9" r="4"/>
	<path class="st1" d="M96,13v13c0,2.2,1.8,4,4,4h8"/>
	<circle class="st0" cx="112" cy="9" r="4"/>
	<circle class="st0" cx="128" cy="9" r="4"/>
	<circle class="st0" cx="144" cy="9" r="4"/>
	<circle class="st0" cx="112" cy="51" r="4"/>
	<circle class="st0" cx="128" cy="51" r="4"/>
	<circle class="st0" cx="144" cy="51" r="4"/>
	<line class="st0" x1="112" y1="13" x2="112" y2="47"/>
	<line class="st0" x1="128" y1="13" x2="128" y2="47"/>
	<line class="st0" x1="144" y1="13" x2="144" y2="47"/>
	<line class="st0" x1="144" y1="30" x2="112" y2="30"/>
</g>
<g>
	<path class="st0" d="M58,37.8c0-15.5-12.5-28-28-28S2,22.4,2,37.8"/>
	<g>
		<polyline class="st0" points="6,50.2 2,50.2 2,43.5 6,43.5 		"/>
		<line class="st0" x1="2" y1="46.8" x2="5" y2="46.8"/>
	</g>
	<g>
		<polyline class="st0" points="54,49.2 54,42.5 58,42.5 		"/>
		<line class="st0" x1="54" y1="45.8" x2="57" y2="45.8"/>
	</g>
	<line class="st0" x1="30" y1="9.8" x2="30" y2="15.8"/>
	<path class="st1" d="M19.8,17.8L19.8,17.8c0.6-0.4,1.4-0.2,1.8,0.3l13.9,16.7c2,2.4,1.3,6-1.5,7.6l0,0c-2.8,1.6-6.3,0.4-7.4-2.5
		l-7.5-20.4C18.9,18.9,19.2,18.1,19.8,17.8z"/>
	<line class="st0" x1="58" y1="37.8" x2="52" y2="37.8"/>
	<line class="st0" x1="2" y1="37.8" x2="8" y2="37.8"/>
	<line class="st0" x1="2" y1="37.8" x2="4" y2="37.8"/>
	<line class="st0" x1="5.9" y1="24.2" x2="7.7" y2="25.2"/>
	<line class="st0" x1="16.2" y1="14.3" x2="17.2" y2="16"/>
	<line class="st0" x1="53.6" y1="25" x2="51.8" y2="26"/>
</g>
<g>
	<path class="st1" d="M216.6,18c0,3.9-2,10-7,10s-7-6.1-7-10s3.1-7,7-7C213.4,11,216.6,14.1,216.6,18z"/>
	<path class="st1" d="M195.6,49c0-9.4,5-17,14-17s14,7.6,14,17"/>
	<path class="st0" d="M233.3,21c0,2.9-1.5,7.5-5.3,7.5s-5.3-4.6-5.3-7.5s2.4-5.3,5.3-5.3C231,15.8,233.3,18.1,233.3,21z"/>
	<path class="st0" d="M222.4,33.2c1.5-1.1,3.4-1.7,5.7-1.7c6.8,0,10.5,5.7,10.5,12.8"/>
	<path class="st0" d="M186.7,21c0,2.9,1.5,7.5,5.3,7.5s5.3-4.6,5.3-7.5s-2.4-5.3-5.3-5.3C189,15.8,186.7,18.1,186.7,21z"/>
	<path class="st0" d="M197.6,33.2c-1.5-1.1-3.4-1.7-5.7-1.7c-6.8,0-10.5,5.7-10.5,12.8"/>
	<line class="st1" x1="202.2" y1="34.2" x2="209.3" y2="41.2"/>
	<line class="st1" x1="212.8" y1="44.8" x2="216.6" y2="49"/>
	<rect x="208.6" y="41" transform="matrix(0.7071 0.7071 -0.7071 0.7071 92.2297 -136.6622)" class="st1" width="5" height="4"/>
</g>
<g>
	<path class="st0" d="M-165.5,48v4c0,1.1-0.9,2-2,2h-6c-1.1,0-2-0.9-2-2v-4"/>
	<path class="st0" d="M-124.5,48v4c0,1.1-0.9,2-2,2h-6c-1.1,0-2-0.9-2-2v-4"/>
	<path class="st0" d="M-124.5,48c1.7,0,3-1.3,3-3V33.6c0-2.3-0.8-4.6-2.3-6.4l-2.7-3.2"/>
	<path class="st0" d="M-173.5,24l-2.7,3.2c-1.5,1.8-2.3,4.1-2.3,6.4V45c0,1.7,1.3,3,3,3"/>
	<path class="st0" d="M-126.5,24l-4.7-12.3c-1.1-2.8-3.6-4.8-6.5-5.2C-140,6.2-145.3,6-150,6s-10,0.2-12.3,0.6
		c-3,0.4-5.5,2.4-6.5,5.2l-4.7,12.3"/>
	<path class="st0" d="M-132.5,23l-3.4-8.9c-0.8-2-2.6-3.4-4.7-3.7c-1.7-0.2-6-0.4-9.4-0.4s-7.8,0.2-9.4,0.4
		c-2.1,0.3-3.9,1.7-4.7,3.7l-3.4,8.9H-132.5z"/>
	<circle class="st0" cx="-169.5" cy="33.5" r="3"/>
	<circle class="st0" cx="-130.5" cy="33.5" r="3"/>
	<line class="st0" x1="-126.5" y1="24" x2="-121.5" y2="24"/>
	<line class="st0" x1="-178.5" y1="24" x2="-173.5" y2="24"/>
	<rect x="-160.5" y="37" class="st0" width="21" height="6"/>
	<circle class="st0" cx="-157" cy="16.5" r="2.5"/>
	<path class="st0" d="M-147,23c0-2.2,1.8-4,4-4s4,1.8,4,4"/>
	<path class="st0" d="M-161,23c0-2.2,1.8-4,4-4s4,1.8,4,4"/>
	<circle class="st0" cx="-143" cy="16.5" r="2.5"/>
	<line class="st0" x1="-169.5" y1="48" x2="-130.5" y2="48"/>
</g>
<g>
	<polygon class="st0" points="-36,148.5 -84,148.5 -76,112.5 -44,112.5 	"/>
	<circle class="st1" cx="-60" cy="97.5" r="6"/>
	<line class="st1" x1="-60" y1="100.5" x2="-60" y2="108.5"/>
	<line class="st0" x1="-70" y1="124.5" x2="-70" y2="136.5"/>
	<line class="st0" x1="-62" y1="124.5" x2="-70" y2="132"/>
	<line class="st0" x1="-62" y1="136.5" x2="-67" y2="129.8"/>
	<path class="st0" d="M-50,133.5c0,1.7-1.3,3-3,3h-2c-1.7,0-3-1.3-3-3v-6c0-1.7,1.3-3,3-3h2c1.7,0,3,1.3,3,3"/>
	<polyline class="st0" points="-52,131.5 -50,131.5 -50,133.5 	"/>
</g>
<g>
	<line class="st1" x1="134.5" y1="93" x2="134.5" y2="142"/>
	<polyline class="st1" points="140.2,137 134.5,142.7 128.8,137 	"/>
	<polyline class="st1" points="128.8,98 134.5,92.3 140.2,98 	"/>
	<path class="st0" d="M119.5,143V92h-16c-2.2,0-4,1.8-4,4v52h41"/>
	<line class="st0" x1="119.5" y1="120" x2="106.5" y2="120"/>
	<line class="st0" x1="119.5" y1="113" x2="112.5" y2="113"/>
	<line class="st0" x1="119.5" y1="106" x2="112.5" y2="106"/>
	<line class="st0" x1="119.5" y1="99" x2="112.5" y2="99"/>
	<line class="st0" x1="119.5" y1="141" x2="112.5" y2="141"/>
	<line class="st0" x1="119.5" y1="134" x2="112.5" y2="134"/>
	<line class="st0" x1="119.5" y1="127" x2="112.5" y2="127"/>
</g>
<g>
	<line class="st1" x1="52" y1="132.5" x2="8" y2="132.5"/>
	<polyline class="st1" points="13,138.2 7.3,132.5 13,126.8 	"/>
	<polyline class="st1" points="47,126.8 52.7,132.5 47,138.2 	"/>
	<path class="st0" d="M58,116.5v-16c0-2.2-1.8-4-4-4H6c-2.2,0-4,1.8-4,4v16"/>
	<line class="st0" x1="30" y1="116.5" x2="30" y2="103.5"/>
	<line class="st0" x1="37" y1="116.5" x2="37" y2="109.5"/>
	<line class="st0" x1="44" y1="116.5" x2="44" y2="109.5"/>
	<line class="st0" x1="51" y1="116.5" x2="51" y2="109.5"/>
	<line class="st0" x1="9" y1="116.5" x2="9" y2="109.5"/>
	<line class="st0" x1="16" y1="116.5" x2="16" y2="109.5"/>
	<line class="st0" x1="23" y1="116.5" x2="23" y2="109.5"/>
	<line class="st0" x1="2" y1="116.5" x2="58" y2="116.5"/>
	<line class="st0" x1="58" y1="121.5" x2="58" y2="125.5"/>
	<line class="st0" x1="2" y1="121.5" x2="2" y2="125.5"/>
	<line class="st0" x1="58" y1="130.5" x2="58" y2="134.5"/>
	<line class="st0" x1="2" y1="130.5" x2="2" y2="134.5"/>
	<line class="st0" x1="58" y1="139.5" x2="58" y2="143.5"/>
	<line class="st0" x1="2" y1="139.5" x2="2" y2="143.5"/>
</g>
<g>
	<circle class="st3" cx="190.8" cy="-232.9" r="4.5"/>
	<circle class="st3" cx="229.8" cy="-232.9" r="4.5"/>
	<line class="st3" x1="225" y1="-232.4" x2="199" y2="-232.4"/>
	<path class="st3" d="M235-232.4c0,0-1,0,1,0c3,0,3-5,3-7c0-1-3-5-16-5h-26c-4,0-9-6-9-6"/>
	<path class="st3" d="M216.1-251.6c4.3,2.3,9.2,7.1,9.2,7.1"/>
	<path class="st3" d="M186-232.4l-5-1c0,0,0-4,0-5c0-2,3-6,3-8h8"/>
	<polyline class="st3" points="204,-247.4 206,-244.4 206,-235.4 	"/>
	<line class="st3" x1="210" y1="-240.4" x2="213" y2="-240.4"/>
</g>
<g>
	<circle class="st3" cx="-79.2" cy="-232.5" r="4.5"/>
	<circle class="st3" cx="-40.2" cy="-232.5" r="4.5"/>
	<line class="st3" x1="-45" y1="-232" x2="-71" y2="-232"/>
	<path class="st3" d="M-35-232c0,0-1,0,1,0c3,0,3-5,3-7c0-1-3-5-16-5h-26c-3,0-5.2-3-5.2-3"/>
	<path class="st3" d="M-84-232l-5-1c0,0,0-4,0-5c0-2,3-7,3-9h7c0,0,2-5,16-5c9,0,17.3,8,17.3,8"/>
	<polyline class="st3" points="-63,-251 -61,-244 -61,-235 	"/>
	<line class="st3" x1="-57" y1="-240" x2="-55" y2="-240"/>
	<line class="st3" x1="-70" y1="-240" x2="-68" y2="-240"/>
	<line class="st3" x1="-74" y1="-250.5" x2="-74" y2="-238.8"/>
</g>
<g>
	<circle class="st3" cx="10.8" cy="-232.5" r="4.5"/>
	<circle class="st3" cx="49.8" cy="-232.5" r="4.5"/>
	<line class="st3" x1="45" y1="-232" x2="19" y2="-232"/>
	<path class="st3" d="M55-232c0,0-1,0,1,0c3,0,3-5,3-7c0-1-3-5-16-5H10c-3,0-7-1-7-1"/>
	<path class="st3" d="M6-232l-5-1c0,0,0-4,0-5c0-2,2-5,2-7s4-7,4-7s12,0,23,0c6,0,14.3,8,14.3,8"/>
	<polyline class="st3" points="27,-251 29,-244 29,-235 	"/>
	<line class="st3" x1="33" y1="-240" x2="35" y2="-240"/>
	<line class="st3" x1="18.5" y1="-240" x2="20.5" y2="-240"/>
	<line class="st3" x1="15" y1="-251" x2="14" y2="-244"/>
	<line class="st3" x1="14" y1="-244" x2="14" y2="-240"/>
</g>
<g>
	<circle class="st3" cx="280.8" cy="-230.5" r="4.5"/>
	<circle class="st3" cx="319.8" cy="-230.5" r="4.5"/>
	<line class="st3" x1="315" y1="-230" x2="289" y2="-230"/>
	<path class="st3" d="M325-230c0,0-1,0,1,0c3,0,3-5,3-7c0-1-5-7-15-7h-34c-3,0-7-1-7-1"/>
	<path class="st3" d="M276-230l-5-1c0,0,0-4,0-5c0-2,2-7,2-9s5-9,9-9c1,0,8,0,19,0c8,0,17,10,17,10"/>
	<polyline class="st3" points="298,-254 300,-245 300,-233 	"/>
	<line class="st3" x1="304" y1="-239" x2="306" y2="-239"/>
	<line class="st3" x1="289" y1="-239" x2="291" y2="-239"/>
	<line class="st3" x1="287" y1="-254" x2="285" y2="-244"/>
	<line class="st3" x1="285" y1="-244" x2="285" y2="-237.5"/>
</g>
<g>
	<circle class="st3" cx="100.8" cy="-232.5" r="4.5"/>
	<circle class="st3" cx="139.8" cy="-232.5" r="4.5"/>
	<line class="st3" x1="135" y1="-232" x2="109" y2="-232"/>
	<path class="st3" d="M145-232c0,0-1,0,1,0c3,0,3-5,3-7c0-1-3-5-16-5h-28c-5,0-10-7-10-7"/>
	<path class="st3" d="M96-232l-5-1c0,0,0-4,0-5c0-2,3-6,3-8h6c0,0,5-6,17-6c9,0,18.3,8,18.3,8"/>
	<polyline class="st3" points="114,-247 116,-244 116,-235 	"/>
	<line class="st3" x1="120" y1="-240" x2="123" y2="-240"/>
</g>
<g>
	<circle class="st3" cx="371.2" cy="-229.8" r="4.8"/>
	<circle class="st3" cx="409.1" cy="-229.8" r="5.1"/>
	<line class="st3" x1="404" y1="-229.3" x2="380" y2="-229.3"/>
	<path class="st3" d="M415-229.3c0,0-1,0,1,0c3,0,3-2,3-4s-2-3-2-3s0-2.9,0-4c0-2-8.6-3-15-3h-31c-3,0-8-1-8-1"/>
	<path class="st3" d="M366-229.3l-5-1c0,0,0-4,0-5c0-2,2-6,2-8c0-4,3-10,3-10s19-1,28,0c3,0.3,10,10,10,10"/>
	<polyline class="st3" points="387,-253.3 389,-244.3 389,-232.3 	"/>
	<line class="st3" x1="393" y1="-238.3" x2="395" y2="-238.3"/>
	<line class="st3" x1="378.4" y1="-238.3" x2="380.6" y2="-238.3"/>
	<line class="st3" x1="375" y1="-253.3" x2="374" y2="-243.3"/>
	<line class="st3" x1="372" y1="-254.3" x2="372" y2="-255.3"/>
	<line class="st3" x1="389" y1="-254.3" x2="389" y2="-255.3"/>
	<line class="st3" x1="374" y1="-243.3" x2="374" y2="-237.8"/>
</g>
<g>
	<line class="st1" x1="361.5" y1="-88.5" x2="418.5" y2="-31.5"/>
	<path class="st0" d="M374.5-42.5v4c0,1.1-0.9,2-2,2h-6c-1.1,0-2-0.9-2-2v-4"/>
	<path class="st0" d="M408.4-36.5h-0.9c-1.1,0-2-0.9-2-2"/>
	<line class="st0" x1="415.5" y1="-42.5" x2="415.5" y2="-40.2"/>
	<path class="st0" d="M415.5-42.5c1.7,0,3-1.3,3-3v-11.4c0-2.3-0.8-4.6-2.3-6.4l-2.7-3.2"/>
	<path class="st0" d="M366.5-66.5l-2.7,3.2c-1.5,1.8-2.3,4.1-2.3,6.4v11.4c0,1.7,1.3,3,3,3"/>
	<line class="st0" x1="369.6" y1="-74.7" x2="366.5" y2="-66.5"/>
	<path class="st0" d="M413.5-66.5l-4.7-12.3c-1.1-2.8-3.6-4.8-6.5-5.2c-2.3-0.3-7.6-0.6-12.3-0.6s-10,0.2-12.3,0.6
		c-1.6,0.2-3,0.9-4.2,1.9"/>
	<path class="st0" d="M388.2-67.5h19.4l-3.4-8.9c-0.8-2-2.6-3.4-4.7-3.7c-1.7-0.2-6-0.4-9.4-0.4s-7.8,0.2-9.4,0.4
		c-1.3,0.2-2.5,0.8-3.4,1.7"/>
	<polyline class="st0" points="373.7,-70.7 372.5,-67.5 376.8,-67.5 	"/>
	<circle class="st0" cx="370.5" cy="-57" r="3"/>
	<circle class="st0" cx="409.5" cy="-57" r="3"/>
	<line class="st0" x1="413.5" y1="-66.5" x2="418.5" y2="-66.5"/>
	<line class="st0" x1="361.5" y1="-66.5" x2="366.5" y2="-66.5"/>
	<polyline class="st0" points="390.5,-53.5 379.5,-53.5 379.5,-47.5 396.5,-47.5 	"/>
	<path class="st0" d="M380.7-75c0.4-0.9,1.3-1.5,2.3-1.5c1.4,0,2.5,1.1,2.5,2.5c0,1-0.6,1.9-1.5,2.3"/>
	<path class="st0" d="M393-67.5c0-2.2,1.8-4,4-4s4,1.8,4,4"/>
	<circle class="st0" cx="397" cy="-74" r="2.5"/>
	<line class="st0" x1="370.5" y1="-42.5" x2="401.5" y2="-42.5"/>
</g>
<g>
	<path class="st1" d="M-223.5,131.5c0,3.3,2.7,6,6,6s6-2.7,6-6"/>
	<path class="st1" d="M-223.5,112.5c0-3.3-2.7-6-6-6"/>
	<line class="st1" x1="-223.5" y1="131.5" x2="-223.5" y2="112.5"/>
	<line class="st1" x1="-211.5" y1="131.5" x2="-211.5" y2="105.5"/>
	<circle class="st1" cx="-215" cy="106" r="3.5"/>
	<path class="st1" d="M-211.5,106c0-5.8-2-8.5-3.5-10.5"/>
	<line class="st0" x1="-224.5" y1="147.5" x2="-211.5" y2="147.5"/>
	<line class="st0" x1="-268.5" y1="147.5" x2="-229.5" y2="147.5"/>
	<g>
		<line class="st0" x1="-260.5" y1="120.5" x2="-260.5" y2="146.5"/>
		<line class="st0" x1="-237.5" y1="146.5" x2="-237.5" y2="120.5"/>
	</g>
	<path class="st0" d="M-239.5,97.5h-19c-0.6,0-1,0.4-1,1v16c0,0.6,0.4,1,1,1h19c0.6,0,1-0.4,1-1v-16
		C-238.5,97.9-238.9,97.5-239.5,97.5z"/>
	<line class="st0" x1="-253.5" y1="103.5" x2="-244.5" y2="103.5"/>
	<line class="st0" x1="-253.5" y1="109.5" x2="-244.5" y2="109.5"/>
	<path class="st0" d="M-237.5,92.5h-23c-2.2,0-4,1.8-4,4v20c0,2.2,1.8,4,4,4h23c2.2,0,4-1.8,4-4v-20
		C-233.5,94.3-235.3,92.5-237.5,92.5z"/>
	<path class="st0" d="M-249,126.5c0,0,5,6.2,5,9s-2.2,5-5,5s-5-2.2-5-5c0-1.3,1.1-3.3,2.2-5.1"/>
</g>
<g>
	<line class="st1" x1="207" y1="115.2" x2="188" y2="115.2"/>
	<polyline class="st1" points="193,120.8 187.3,115.2 193,109.5 	"/>
	<polyline class="st1" points="202,109.5 207.7,115.2 202,120.8 	"/>
	<circle class="st3" cx="191.2" cy="132.7" r="4.8"/>
	<circle class="st3" cx="230.1" cy="132.7" r="5.1"/>
	<line class="st3" x1="225" y1="133.2" x2="200" y2="133.2"/>
	<path class="st3" d="M236,133.2c0,0-1,0,1,0s2-2,2-4s-1-3-1-3v0c0-0.7,0-1,0-2c0-2-4-5-4-5"/>
	<path class="st3" d="M214,109.2h8c4,0,12,10,12,10"/>
	<path class="st3" d="M218,119.2v-7c0,0,2,0,4,0s8,7,8,7H218"/>
	<line class="st3" x1="218" y1="124.2" x2="221" y2="124.2"/>
	<line class="st3" x1="234" y1="124.2" x2="234" y2="125.2"/>
	<line class="st3" x1="182" y1="128.2" x2="189" y2="128.2"/>
	<line class="st3" x1="198" y1="128.2" x2="213" y2="128.2"/>
	<line class="st3" x1="214" y1="109.2" x2="214" y2="128.2"/>
	<path class="st3" d="M186,133.2l-5-1v-30c0,0,23,0,30,0c1,0,3,0,10,7"/>
</g>
<g>
	<circle class="st3" cx="-254.7" cy="-233" r="4.5"/>
	<circle class="st3" cx="-222.7" cy="-233" r="4.5"/>
	<line class="st3" x1="-227.5" y1="-232.5" x2="-246.5" y2="-232.5"/>
	<path class="st3" d="M-217.5-232.5c0,0-1,0,1,0c3,0,3-5,3-7c0-1-2-5-15-5h-21c-2,0-4-6-4-6"/>
	<path class="st3" d="M-264.5-233.5c0,0,0-4,0-5c0-2,3.5-4.1,4-6c1-4,2-6,2-6s6-1,17-1c5,0,13,7,13,7"/>
	<line class="st3" x1="-259.5" y1="-232.5" x2="-266.5" y2="-233.5"/>
	<polyline class="st3" points="-245.5,-251.5 -243.5,-244.5 -243.5,-235.5 	"/>
	<line class="st3" x1="-239.5" y1="-240.5" x2="-237.5" y2="-240.5"/>
</g>
<g>
	<circle class="st3" cx="-169.2" cy="-232.5" r="4.5"/>
	<circle class="st3" cx="-130.2" cy="-232.5" r="4.5"/>
	<line class="st3" x1="-135" y1="-232" x2="-161" y2="-232"/>
	<path class="st3" d="M-125-232c0,0-1,0,1,0c3,0,3-5,3-7c0-1-3-5-16-5h-33c-3,0-6-1-6-1"/>
	<path class="st3" d="M-174-232l-5-1c0,0,0-4,0-5c0-2,3-5,3-7s3-6,3-6s11-1,22-1c6,0,15.3,8,15.3,8"/>
	<polyline class="st3" points="-159,-251 -157,-244 -157,-235 	"/>
	<line class="st3" x1="-153" y1="-240" x2="-150" y2="-240"/>
</g>
<g>
	<circle class="st3" cx="11.2" cy="-140.8" r="4.8"/>
	<circle class="st3" cx="50.1" cy="-140.8" r="5.1"/>
	<line class="st3" x1="45" y1="-140.3" x2="20" y2="-140.3"/>
	<path class="st3" d="M56-140.3c0,0-1,0,1,0s2-2,2-4s-1-3-1-3v0c0-0.7,0-1,0-2c0-2-4-5-4-5"/>
	<path class="st3" d="M6-140.3l-5-1c0,0,0-2.5,0-4c0-0.7,1-1,1-1c0-2,0-6,0-8c0-2.4,0.4-5.5,0.7-7.7c0.2-1.3,1.3-2.3,2.7-2.3H42
		c4,0,12,10,12,10"/>
	<path class="st3" d="M38-154.3v-7c0,0,2,0,4,0s8,7,8,7H38"/>
	<line class="st3" x1="38" y1="-149.3" x2="41" y2="-149.3"/>
	<line class="st3" x1="54" y1="-149.3" x2="54" y2="-148.3"/>
</g>
<g>
	<circle class="st3" cx="101.2" cy="-138.3" r="4.8"/>
	<circle class="st3" cx="140.1" cy="-138.3" r="5.1"/>
	<line class="st3" x1="135" y1="-137.8" x2="110" y2="-137.8"/>
	<path class="st3" d="M146-137.8c0,0-1,0,1,0s2-2,2-4s-1-3-1-3v0c0-0.7,0-1,0-2c0-2-4-5-4-5"/>
	<path class="st3" d="M96-137.8l-5-1c0,0,0-2.5,0-4c0-0.7,1-1,1-1c0-2,0-8,0-10c0-2.4,0.4-8.5,0.7-10.7c0.2-1.3,1.3-2.3,2.7-2.3
		c0,0,21.7,0,28.7,0c6,0,20,15,20,15"/>
	<path class="st3" d="M128-151.8v-7c0,0,2,0,4,0c1,0,8,7,8,7H128"/>
	<line class="st3" x1="128" y1="-146.8" x2="131" y2="-146.8"/>
	<line class="st3" x1="144" y1="-146.8" x2="144" y2="-145.8"/>
</g>
<g>
	<circle class="st3" cx="-78.8" cy="-140.8" r="4.8"/>
	<circle class="st3" cx="-39.9" cy="-140.8" r="5.1"/>
	<line class="st3" x1="-45" y1="-140.3" x2="-70" y2="-140.3"/>
	<path class="st3" d="M-34-140.3c0,0-1,0,1,0s2-2,2-4s-1-3-1-3s0-0.9,0-2c0-2-3-4-10-5"/>
	<path class="st3" d="M-84-140.3l-5-1c0,0,0-3,0-4c0-0.4,1-1,1-1c0-2,0-6,0-8c0-2.4,0.4-5.5,0.7-7.7c0.2-1.3,1.3-2.3,2.7-2.3H-60
		c7,0,18,10,18,10"/>
	<path class="st3" d="M-62-154.3v-7c0,0,0,0,2,0c4,0,13,7,13,7H-62"/>
	<line class="st3" x1="-61" y1="-149.3" x2="-58" y2="-149.3"/>
	<line class="st3" x1="-36" y1="-149.3" x2="-36" y2="-148.3"/>
</g>
<g>
	<circle class="st3" cx="-168.8" cy="-140.8" r="4.8"/>
	<circle class="st3" cx="-129.9" cy="-140.8" r="5.1"/>
	<line class="st3" x1="-135" y1="-140.3" x2="-160" y2="-140.3"/>
	<path class="st3" d="M-124-140.3c0,0-1,0,1,0s2-2,2-4s-1-3-1-3s0-0.9,0-2c0-2-3-4-10-5"/>
	<path class="st3" d="M-174-140.3l-5-1c0,0,0-3,0-4c0-0.4,1-1,1-1c0-2,0-2,0-4c0-3,4.8-4.1,6-7c3-7,9-7,9-7h13c7,0,18,10,18,10"/>
	<path class="st3" d="M-155-154.3v-7c0,0,3,0,5,0c4,0,13,7,13,7H-155"/>
	<line class="st3" x1="-152" y1="-149.3" x2="-149" y2="-149.3"/>
	<line class="st3" x1="-126" y1="-149.3" x2="-126" y2="-148.3"/>
</g>
<g>
	<circle class="st3" cx="281.2" cy="-137.3" r="4.8"/>
	<circle class="st3" cx="320.1" cy="-137.3" r="5.1"/>
	<line class="st3" x1="315" y1="-136.8" x2="290" y2="-136.8"/>
	<path class="st3" d="M326-136.8c0,0-1,0,1,0s2-2,2-4s-1-3-1-3v0c0-0.7,0-1,0-2c0-2-4-5-4-5"/>
	<path class="st3" d="M304-160.8h8c4,0,12,10,12,10"/>
	<path class="st3" d="M308-150.8v-7c0,0,2,0,4,0s8,7,8,7H308"/>
	<line class="st3" x1="308" y1="-145.8" x2="311" y2="-145.8"/>
	<line class="st3" x1="324" y1="-145.8" x2="324" y2="-144.8"/>
	<line class="st3" x1="272" y1="-141.8" x2="279" y2="-141.8"/>
	<line class="st3" x1="288" y1="-141.8" x2="303" y2="-141.8"/>
	<line class="st3" x1="304" y1="-160.8" x2="304" y2="-141.8"/>
	<path class="st3" d="M276-136.8l-5-1v-30c0,0,23,0,30,0c1,0,3,0,10,7"/>
</g>
<g>
	<circle class="st3" cx="-166.8" cy="-50.8" r="4.8"/>
	<circle class="st3" cx="-129.9" cy="-50.8" r="5.1"/>
	<line class="st3" x1="-135" y1="-50.3" x2="-158" y2="-50.3"/>
	<path class="st3" d="M-124-50.3c0,0-1,0,1,0s2-2,2-4s-1-3-1-3v0c0-0.7,0-1,0-2c0-2-4-5-4-5"/>
	<path class="st3" d="M-146-74.3h8c4,0,12,10,12,10"/>
	<path class="st3" d="M-142-64.3v-7c0,0,2,0,4,0s8,7,8,7H-142"/>
	<line class="st3" x1="-142" y1="-59.3" x2="-139" y2="-59.3"/>
	<line class="st3" x1="-126" y1="-59.3" x2="-126" y2="-58.3"/>
	<line class="st3" x1="-179" y1="-55.3" x2="-169" y2="-55.3"/>
	<line class="st3" x1="-160" y1="-55.3" x2="-146" y2="-55.3"/>
	<line class="st3" x1="-146" y1="-74.3" x2="-146" y2="-55.3"/>
	<polyline class="st3" points="-179,-55.3 -179,-61.3 -146,-61.3 	"/>
	<polyline class="st3" points="-172,-50.3 -176,-51.3 -176,-55.3 	"/>
</g>
<g>
	<circle class="st3" cx="371.2" cy="-140.8" r="4.8"/>
	<circle class="st3" cx="410.1" cy="-140.8" r="5.1"/>
	<line class="st3" x1="405" y1="-140.3" x2="380" y2="-140.3"/>
	<path class="st3" d="M416-140.3c0,0-1,0,1,0s2-2,2-4s-1-3-1-3v0c0-0.7,0-1,0-2c0-2-4-5-4-5"/>
	<path class="st3" d="M366-140.3l-5-1c0,0,0-2.5,0-4c0-0.7,1-1,1-1c0-2,0-6,0-8c0-2.4,0.4-5.5,0.7-7.7c0.2-1.3,1.3-2.3,2.7-2.3H402
		c4,0,12,10,12,10"/>
	<path class="st3" d="M398-154.3v-7c0,0,2,0,4,0s8,7,8,7H398"/>
	<line class="st3" x1="398" y1="-149.3" x2="401" y2="-149.3"/>
	<line class="st3" x1="391" y1="-149.3" x2="394" y2="-149.3"/>
	<line class="st3" x1="414" y1="-149.3" x2="414" y2="-148.3"/>
	<rect x="383" y="-161.3" class="st3" width="11" height="7"/>
	<path class="st3" d="M368-154.3c2,0,11,0,11,0v-7h-10C369-161.3,368-157.3,368-154.3z"/>
</g>
<g>
	<circle class="st3" cx="-76.8" cy="-46.8" r="4.8"/>
	<circle class="st3" cx="-39.9" cy="-46.8" r="5.1"/>
	<line class="st3" x1="-45" y1="-46.3" x2="-68" y2="-46.3"/>
	<path class="st3" d="M-34-46.3c0,0-1,0,1,0s2-2,2-4s-1-3-1-3v0c0-0.7,0-1,0-2c0-2-4-5-4-5"/>
	<path class="st3" d="M-56-70.3h8c4,0,12,10,12,10"/>
	<path class="st3" d="M-52-60.3v-7c0,0,2,0,4,0s8,7,8,7H-52"/>
	<line class="st3" x1="-52" y1="-55.3" x2="-49" y2="-55.3"/>
	<line class="st3" x1="-36" y1="-55.3" x2="-36" y2="-54.3"/>
	<line class="st3" x1="-89" y1="-51.3" x2="-79" y2="-51.3"/>
	<line class="st3" x1="-70" y1="-51.3" x2="-56" y2="-51.3"/>
	<line class="st3" x1="-56" y1="-70.3" x2="-56" y2="-51.3"/>
	<polyline class="st3" points="-89,-51.3 -89,-64.3 -62,-64.3 -62,-78.3 -39,-78.3 -39,-70.3 	"/>
	<polyline class="st3" points="-82,-46.3 -86,-47.3 -86,-51.3 	"/>
	<line class="st3" x1="-39" y1="-70.3" x2="-49" y2="-70.3"/>
</g>
<g>
	<g>
		<circle class="st3" cx="-258.8" cy="-51.8" r="4.8"/>
		<circle class="st3" cx="-220.9" cy="-51.8" r="5.1"/>
		<line class="st3" x1="-226" y1="-51.3" x2="-250" y2="-51.3"/>
		<path class="st3" d="M-242-73.3c0,0,7.8-0.1,9.3,0.1c2.6,0.3,8.7,7.9,8.7,7.9"/>
		<path class="st3" d="M-264-51.3l-5-1c0,0,0-4,0-5c0-2,1-6,1-8h40c6.4,0,15,2,15,4c0,1.1,0,4,0,4s2,1,2,3s0,3-3,3c-2,0-1,0-1,0"/>
		<polyline class="st3" points="-242,-73.3 -242,-67.6 -242,-51.3 		"/>
		<line class="st3" x1="-238" y1="-60.3" x2="-235" y2="-60.3"/>
		<line class="st3" x1="-238" y1="-73.3" x2="-238" y2="-66.3"/>
		<line class="st3" x1="-269" y1="-55.3" x2="-263" y2="-55.3"/>
		<line class="st3" x1="-251" y1="-55.3" x2="-242" y2="-55.3"/>
	</g>
	<line class="st3" x1="-216" y1="-60.3" x2="-216" y2="-59.3"/>
</g>
<g>
	<circle class="st3" cx="193.5" cy="-140" r="4.1"/>
	<circle class="st3" cx="230.4" cy="-140" r="4.4"/>
	<line class="st3" x1="226.1" y1="-139.6" x2="202" y2="-139.6"/>
	<path class="st3" d="M235.4-139.6c0,0,0.1,0,1.9,0c1.7,0,1.7-1.7,1.7-3.4c0-1.7-0.9-2.6-0.9-2.6v0c0-0.6,0-0.9,0-1.7
		c0-1.7-3.4-4.3-3.4-4.3"/>
	<path class="st3" d="M189.1-139.6l-8.1-0.9c0,0,0-2.1,0-3.4c0-0.6,0.9-0.9,0.9-0.9c0-1.7,0-6.8,0-8.5c0-2.1,0.3-7.3,0.6-9.1
		c0.2-1.1,1.1-2,2.3-2c0,0,27.1,0,33,0c5.1,0,17,12.8,17,12.8"/>
	<path class="st3" d="M220.1-151.6v-6c0,0,1.7,0,3.4,0c0.9,0,6.8,6,6.8,6H220.1"/>
	<line class="st3" x1="220.1" y1="-147.3" x2="222.7" y2="-147.3"/>
	<line class="st3" x1="234.7" y1="-147.3" x2="234.7" y2="-146.4"/>
</g>
<g>
	<circle class="st3" cx="-258.8" cy="-140.8" r="4.8"/>
	<circle class="st3" cx="-219.9" cy="-140.8" r="5.1"/>
	<line class="st3" x1="-225" y1="-140.3" x2="-250" y2="-140.3"/>
	<path class="st3" d="M-214-140.3c0,0-1,0,1,0s2-2,2-4s-1-3-1-3v0c0-0.7,0-1,0-2c0-2-4-5-4-5"/>
	<path class="st3" d="M-264-140.3l-5-1c0,0,0-2.5,0-4c0-0.7,1-1,1-1c0-2,0-6,0-8c0-2.4,0.4-5.5,0.7-7.7c0.2-1.3,1.3-2.3,2.7-2.3
		h36.7c4,0,12,10,12,10"/>
	<path class="st3" d="M-232-154.3v-7c0,0,2,0,4,0s8,7,8,7H-232"/>
	<line class="st3" x1="-232" y1="-149.3" x2="-229" y2="-149.3"/>
	<line class="st3" x1="-246" y1="-149.3" x2="-243" y2="-149.3"/>
	<line class="st3" x1="-216" y1="-149.3" x2="-216" y2="-148.3"/>
	<rect x="-246" y="-161.3" class="st3" width="10" height="7"/>
</g>
<g>
	<ellipse transform="matrix(0.7844 -0.6202 0.6202 0.7844 1.4296 258.113)" class="st1" cx="372" cy="127" rx="10.5" ry="10.5"/>
	<ellipse transform="matrix(0.7844 -0.6202 0.6202 0.7844 1.4296 258.113)" class="st1" cx="372" cy="127" rx="2.5" ry="2.5"/>
	<circle class="st0" cx="403" cy="107" r="2.5"/>
	<circle class="st0" cx="403" cy="99.5" r="0"/>
	<ellipse transform="matrix(0.7071 -0.7071 0.7071 0.7071 44.5738 310.9969)" class="st0" cx="397.7" cy="101.7" rx="0" ry="0"/>
	<circle class="st0" cx="395.5" cy="107" r="0"/>
	<ellipse transform="matrix(0.7071 -0.7071 0.7071 0.7071 37.0688 314.1056)" class="st0" cx="397.7" cy="112.3" rx="0" ry="0"/>
	<circle class="st0" cx="403" cy="114.5" r="0"/>
	<ellipse transform="matrix(0.7071 -0.7071 0.7071 0.7071 40.1774 321.6106)" class="st0" cx="408.3" cy="112.3" rx="0" ry="0"/>
	<circle class="st0" cx="410.5" cy="107" r="0"/>
	<ellipse transform="matrix(0.7071 -0.7071 0.7071 0.7071 47.6824 318.5019)" class="st0" cx="408.3" cy="101.7" rx="0" ry="0"/>
	<circle class="st0" cx="403" cy="107" r="11.5"/>
	<path class="st1" d="M377.9,129.7c-0.4,0.9-1,1.7-1.9,2.4"/>
	<path class="st1" d="M366.9,131c-2.2-2.8-1.7-6.9,1.1-9.1c2.8-2.2,6.9-1.7,9.1,1.1c0.8,1,1.2,2.1,1.4,3.3"/>
	<circle class="st0" cx="412.5" cy="142.5" r="6"/>
	<line class="st0" x1="391.5" y1="96.5" x2="364.5" y2="119.5"/>
	<line class="st0" x1="418.5" y1="106.5" x2="418.5" y2="142.5"/>
	<line class="st0" x1="370.5" y1="137.5" x2="411.5" y2="148.5"/>
	<line class="st0" x1="412.5" y1="142.5" x2="412.5" y2="142.5"/>
	<circle class="st0" cx="403" cy="107" r="15.5"/>
	<path class="st0" d="M370.3,137.4c-5-0.8-8.8-5.2-8.8-10.4c0-3,1.3-5.7,3.3-7.6"/>
</g>
<g>
	<polygon class="st0" points="-214.5,231.5 -211.5,231.5 -211.5,201.5 -214.5,201.5 -218.5,212.5 -218.5,225.5 	"/>
	<rect x="-264.5" y="206.5" class="st0" width="5" height="18"/>
	<line class="st0" x1="-268.5" y1="221.5" x2="-268.5" y2="209.5"/>
	<line class="st0" x1="-268.5" y1="215.5" x2="-265.5" y2="215.5"/>
	<line class="st0" x1="-218.5" y1="225.5" x2="-223.5" y2="225.5"/>
	<line class="st0" x1="-218.5" y1="212.5" x2="-223.5" y2="212.5"/>
	<polygon class="st0" points="-259.5,200.5 -259.5,224.5 -254.5,231.5 -227.5,231.5 -223.5,225.5 -223.5,212.5 -226.5,206.5 
		-230.5,206.5 -230.5,200.5 	"/>
	<polyline class="st0" points="-241.5,195.5 -234.5,195.5 -234.5,188.5 -254.5,188.5 -254.5,195.5 -247.5,195.5 	"/>
	<line class="st0" x1="-249.5" y1="195.5" x2="-249.5" y2="200.5"/>
	<line class="st0" x1="-239.5" y1="195.5" x2="-239.5" y2="200.5"/>
	<line class="st0" x1="-230.5" y1="206.5" x2="-230.5" y2="212.5"/>
	<line class="st0" x1="-230.5" y1="216.5" x2="-230.5" y2="219.5"/>
	<polyline class="st1" points="-247.5,206.5 -240.5,206.5 -243.5,213.5 -237.5,213.5 -246.5,226.5 -244.5,216.5 -251.5,216.5 
		-248.7,209.5 	"/>
</g>
<g>
	<circle class="st0" cx="300" cy="120" r="28.5"/>
	<circle class="st0" cx="300" cy="120" r="22.5"/>
	<path class="st0" d="M304.5,138c-1.4,0.4-2.9,0.5-4.5,0.5c-1.5,0-3.1-0.2-4.5-0.5"/>
	<path class="st0" d="M316.7,112c1.2,2.4,1.8,5.1,1.8,8c0,0.9-0.1,1.7-0.2,2.6"/>
	<path class="st0" d="M322.3,122.7c-0.8-0.1-1.5-0.2-2.3-0.2c-8.6,0-15.5,6.9-15.5,15.5c0,1.4,0.2,2.7,0.5,3.9"/>
	<path class="st0" d="M295,141.9c0.3-1.3,0.5-2.6,0.5-3.9c0-8.6-6.9-15.5-15.5-15.5c-0.8,0-1.6,0.1-2.3,0.2"/>
	<path class="st0" d="M278.3,113.9c6.3-2.8,13.7-4.4,21.7-4.4s15.4,1.6,21.7,4.4"/>
	<circle class="st1" cx="300" cy="120" r="4.5"/>
	<path class="st0" d="M281.7,122.5c-0.1-0.8-0.2-1.6-0.2-2.5c0-2.9,0.6-5.6,1.8-8"/>
</g>
<g>
	<g>
		<circle class="st3" cx="-169.2" cy="229" r="4.5"/>
		<circle class="st3" cx="-130.2" cy="229" r="4.5"/>
		<line class="st3" x1="-135" y1="229.5" x2="-161" y2="229.5"/>
		<path class="st3" d="M-125,229.5c0,0-1,0,1,0c3,0,3-5,3-7c0-1-3-5-16-5h-33c-3,0-7-1-7-1"/>
		<path class="st3" d="M-174,229.5l-5-1c0,0,0-4,0-5c0-2,2-5,2-7s4-7,4-7s12,0,23,0c6,0,14.3,8,14.3,8"/>
		<polyline class="st3" points="-153,210.5 -151,217.5 -151,226.5 		"/>
		<line class="st3" x1="-147" y1="221.5" x2="-145" y2="221.5"/>
		<line class="st3" x1="-161.5" y1="221.5" x2="-159.5" y2="221.5"/>
		<line class="st3" x1="-165" y1="210.5" x2="-166" y2="217.5"/>
		<line class="st3" x1="-166" y1="217.5" x2="-166" y2="221.5"/>
	</g>
	<circle class="st1" cx="-171.3" cy="199.7" r="4.8"/>
	<circle class="st1" cx="-152.3" cy="199.7" r="4.8"/>
	<line class="st1" x1="-171.3" y1="199.7" x2="-163" y2="199.7"/>
	<line class="st1" x1="-165.4" y1="192.6" x2="-171.3" y2="199.7"/>
	<line class="st1" x1="-163" y1="199.7" x2="-166.6" y2="189"/>
	<line class="st1" x1="-152.3" y1="199.7" x2="-155.8" y2="187.8"/>
	<line class="st1" x1="-163" y1="199.7" x2="-155.8" y2="191.4"/>
	<line class="st1" x1="-165.4" y1="192.6" x2="-155.8" y2="191.4"/>
	<line class="st1" x1="-170.1" y1="187.8" x2="-164.2" y2="189"/>
	<line class="st1" x1="-155.8" y1="187.8" x2="-153.5" y2="186.5"/>
	<line class="st3" x1="-152" y1="207.5" x2="-152" y2="209.5"/>
	<line class="st3" x1="-171" y1="207.5" x2="-171" y2="209.5"/>
</g>
<g>
	<path class="st0" d="M-77.5,230.5v5c0,1.1-0.9,2-2,2h-4c-1.1,0-2-0.9-2-2v-5"/>
	<line class="st0" x1="-80.5" y1="230.5" x2="-62.1" y2="230.5"/>
	<path class="st0" d="M-85.5,230.5c-1.7,0-3-1.3-3-3V219c0-1.9,0.2-3.9,0.6-5.8l5.3-25.5c0.6-3.1,3.4-5.3,6.5-5.3h15.6"/>
	<path class="st0" d="M-34,208.9l-4.4-21.1c-0.6-3.1-3.4-5.3-6.5-5.3h-15.6"/>
	<line class="st0" x1="-88.5" y1="202.5" x2="-86.5" y2="202.5"/>
	<line class="st0" x1="-34.5" y1="202.5" x2="-32.5" y2="202.5"/>
	<path class="st0" d="M-62.5,216.5c-3,0-8-1-8-1l1.2,4.3c0.5,1.6,1.9,2.7,3.6,2.7h2.2"/>
	<circle class="st0" cx="-69" cy="199" r="2.5"/>
	<path class="st0" d="M-55,205.5c0-2.2,1.8-4,4-4s4,1.8,4,4"/>
	<path class="st0" d="M-73,205.5c0-2.2,1.8-4,4-4s4,1.8,4,4"/>
	<circle class="st0" cx="-51" cy="199" r="2.5"/>
	<circle class="st1" cx="-45.5" cy="223.5" r="14"/>
	<g>
		<line class="st1" x1="-45.5" y1="227.5" x2="-45.5" y2="224.5"/>
		<line class="st1" x1="-45.5" y1="231.5" x2="-45.5" y2="231.5"/>
		<path class="st1" d="M-45.5,216.5c2.2,0,4,1.8,4,4s-1.8,4-4,4"/>
		<path class="st1" d="M-48.7,218.1c0.7-0.9,1.9-1.6,3.2-1.6"/>
	</g>
	<path class="st0" d="M-87.5,211.5c0,0,2,2,10,3v1.7c0,1.3-1,2.3-2.3,2.3h-7.7"/>
	<path class="st0" d="M-40.5,205.5h-40l2.4-12c0.3-1.7,1.9-3,3.6-3h28c1.8,0,3.3,1.2,3.6,3L-40.5,205.5z"/>
	<line class="st0" x1="-63.5" y1="226.5" x2="-84.5" y2="226.5"/>
	<line class="st0" x1="-62.5" y1="193.5" x2="-57.5" y2="193.5"/>
</g>
<g>
	<path class="st0" d="M-165.5,316v5c0,1.1-0.9,2-2,2h-6c-1.1,0-2-0.9-2-2v-5"/>
	<path class="st0" d="M-122.2,298c-0.4-1-0.9-1.9-1.6-2.8l-2.7-3.2"/>
	<line class="st0" x1="-169.5" y1="316" x2="-149.1" y2="316"/>
	<path class="st0" d="M-173.5,292l-2.7,3.2c-1.5,1.8-2.3,4.1-2.3,6.4V313c0,1.7,1.3,3,3,3"/>
	<path class="st0" d="M-126.5,292l-4.7-12.3c-1.1-2.8-3.6-4.8-6.5-5.2c-2.3-0.3-7.6-0.6-12.3-0.6s-10,0.2-12.3,0.6
		c-3,0.4-5.5,2.4-6.5,5.2l-4.7,12.3"/>
	<path class="st0" d="M-131.1,292l-3.6-9.5c-0.8-2.2-2.8-3.7-5.1-4c-1.8-0.2-6.5-0.4-10.2-0.4s-8.4,0.2-10.2,0.4
		c-2.3,0.3-4.2,1.8-5.1,4l-3.6,9.5H-131.1z"/>
	<circle class="st0" cx="-169.5" cy="301.5" r="3"/>
	<line class="st0" x1="-126.5" y1="292" x2="-121.5" y2="292"/>
	<line class="st0" x1="-178.5" y1="292" x2="-173.5" y2="292"/>
	<polyline class="st0" points="-149.5,305 -160.5,305 -160.5,311 -149.5,311 	"/>
	<circle class="st0" cx="-157" cy="284.5" r="2.5"/>
	<path class="st0" d="M-147,291c0-2.2,1.8-4,4-4s4,1.8,4,4"/>
	<path class="st0" d="M-161,291c0-2.2,1.8-4,4-4s4,1.8,4,4"/>
	<circle class="st0" cx="-143" cy="284.5" r="2.5"/>
	<g>
		<g>
			<g>
				<path class="st1" d="M-145.5,303.1v7.6c0,3.5,1.2,6.8,3.5,9.8c2.3,2.9,5.1,4.8,8.5,5.6c3.4-0.8,6.2-2.7,8.5-5.6
					c2.3-2.9,3.5-6.2,3.5-9.8v-7.6l-12-5.1L-145.5,303.1z"/>
			</g>
		</g>
	</g>
	<line class="st1" x1="-135.5" y1="318" x2="-131.5" y2="318"/>
	<polyline class="st1" points="-133.5,318 -133.5,310 -135.5,310 	"/>
	<line class="st1" x1="-133.5" y1="306" x2="-133.5" y2="306"/>
</g>
<g>
	<path class="st1" d="M318.8,200.3L304.6,186c-1.8-1.8-4.7-1.8-6.5,0c0,0,0,0,0,0l-25.2,25.2c-1.8,1.8-1.8,4.7,0,6.5c0,0,0,0,0,0
		l7.7,7.7"/>
	<path class="st0" d="M287.4,204.2h38.1c1.6,0,2.9,1.3,2.9,2.9v25.2c0,1.6-1.3,2.9-2.9,2.9h-38.1c-1.6,0-2.9-1.3-2.9-2.9v-25.2
		C284.5,205.5,285.8,204.2,287.4,204.2z"/>
	<line class="st0" x1="284.5" y1="210.8" x2="328.5" y2="210.8"/>
	<line class="st0" x1="284.5" y1="217.1" x2="328.5" y2="217.1"/>
	<line class="st0" x1="290.9" y1="223.5" x2="299.5" y2="223.5"/>
	<line class="st0" x1="290.9" y1="229.8" x2="296.3" y2="229.8"/>
	<line class="st0" x1="303.8" y1="223.5" x2="309.2" y2="223.5"/>
	<line class="st1" x1="306.5" y1="188.1" x2="294" y2="200.6"/>
	<line class="st1" x1="281" y1="213.6" x2="275.5" y2="219.1"/>
	<line class="st1" x1="310.5" y1="192.1" x2="302" y2="200.6"/>
	<line class="st1" x1="280.5" y1="222.1" x2="279" y2="223.6"/>
</g>
<g>
	<path class="st0" d="M-75.9,271.6c-1.1,0-2.2,0.2-3.3,0.4l5.8,5.8l-0.1,8.7l-8.7,0.1l-5.8-5.8c-0.3,1-0.4,2.1-0.4,3.3
		c0,6.9,5.6,12.5,12.5,12.5s12.5-5.6,12.5-12.5S-69,271.6-75.9,271.6z"/>
	<g>
		<path class="st0" d="M-64.4,289.6l31.5,31.5c1.7,1.7,1.7,4.3,0,6h0c-1.7,1.7-4.3,1.7-6,0l-31.5-31.5"/>
	</g>
	<line class="st0" x1="-36.3" y1="323.6" x2="-36.3" y2="323.6"/>
	<path class="st1" d="M-59.8,288.6c6.4,0,11.5,5.1,11.5,11.5"/>
	<path class="st1" d="M-59.8,311.6c-6.4,0-11.5-5.1-11.5-11.5"/>
	<path class="st1" d="M-40.9,308c0.5-1.2,0.9-2.5,1.2-3.8l4.4-0.8v-6.5l-4.4-0.8c-0.5-2.6-1.6-5.1-3-7.2l2.6-3.7l-4.6-4.6l-3.7,2.6
		c-2.2-1.4-4.6-2.5-7.2-3l-0.8-4.4h-5.5"/>
	<path class="st1" d="M-84.3,297.8v5.5l4.4,0.8c0.5,2.6,1.6,5.1,3,7.2l-2.6,3.7l4.6,4.6l3.7-2.6c2.2,1.4,4.6,2.5,7.2,3l0.8,4.4h6.5
		l0.8-4.4c1.2-0.2,2.4-0.6,3.5-1.1"/>
</g>
<g>
	<g>
		<circle class="st3" cx="387.1" cy="225" r="6"/>
		<path class="st3" d="M387.1,222.5c1.4,0,2.5,1.1,2.5,2.5c0,1.4-1.1,2.5-2.5,2.5c-1.4,0-2.5-1.1-2.5-2.5"/>
		<line class="st3" x1="380.7" y1="225.6" x2="361.6" y2="225.6"/>
		<path class="st3" d="M394.2,225.6c0,0-1.3,0,1.3,0c4,0,4-6.7,4-9.4c0-1.3-2.7-6.7-20.2-6.7h-17.7"/>
		<path class="st3" d="M361.4,198.6c6.7,0,15.6,10.8,15.6,10.8"/>
		<line class="st3" x1="361.8" y1="214.8" x2="365.8" y2="214.8"/>
	</g>
	<line class="st3" x1="361.6" y1="222" x2="381.6" y2="222"/>
	<line class="st3" x1="392.6" y1="222" x2="398.6" y2="222"/>
	<path class="st3" d="M396.6,213h-3.5c-0.8,0-1.5,0.7-1.5,1.5l0,0c0,0.8,0.7,1.5,1.5,1.5h6.5"/>
	<path class="st3" d="M396.6,195c-1.1-0.7-7.2-1.3-16.4,13.7"/>
	<line class="st3" x1="371.6" y1="204" x2="369.6" y2="209"/>
	<circle class="st1" cx="416.1" cy="191.5" r="2.5"/>
	<path class="st1" d="M405.2,208.6c1,2,3,3.4,5.4,3.4c3.3,0,6-2.7,6-6s-2.7-6-6-6c-2.6,0-4.9,1.7-5.7,4"/>
	<path class="st1" d="M411.6,200.1C411.6,200,411.6,200,411.6,200.1c0-3.4-2.7-6.1-6-6.1s-6,2.7-6,6c0,1.4,0.5,2.7,1.3,3.7
		c-1.3,0.5-2.3,1.8-2.3,3.3c0,1.9,1.6,3.5,3.5,3.5c1.4,0,2.5-0.8,3.1-1.9c1,2,3,3.4,5.4,3.4c3.3,0,6-2.7,6-6
		C416.6,203,414.4,200.6,411.6,200.1z"/>
</g>
<g>
	<path class="st0" d="M116.7,191.5c0-1.8,1.5-3.2,3.2-3.2s3.2,1.5,3.2,3.2"/>
	<path class="st0" d="M123.2,206.9c0-1.8,1.5-3.2,3.2-3.2c1.8,0,3.2,1.5,3.2,3.2"/>
	<path class="st0" d="M111.5,211.3c0-2.9,2.3-5.2,5.2-5.2"/>
	<path class="st0" d="M129.6,208.3c0-1.8,1.5-3.2,3.2-3.2s3.2,1.5,3.2,3.2"/>
	<path class="st0" d="M136.1,210.9c0-1.8,1.5-3.2,3.2-3.2s3.2,1.5,3.2,3.2"/>
	<line class="st0" x1="116.7" y1="191.5" x2="116.7" y2="215.4"/>
	<line class="st0" x1="123.2" y1="191.5" x2="123.2" y2="210.3"/>
	<line class="st0" x1="129.6" y1="206.9" x2="129.6" y2="210.3"/>
	<line class="st0" x1="136.1" y1="208.3" x2="136.1" y2="212.2"/>
	<path class="st0" d="M111.5,219.9c0,8.6,7,15.6,15.6,15.6s15.6-7,15.6-15.6"/>
	<path class="st0" d="M142.6,215.9c0,2.8,0,3.7,0,3.7S142.6,218.7,142.6,215.9s0-5,0-5S142.6,213.1,142.6,215.9z"/>
	<line class="st0" x1="111.5" y1="211.3" x2="111.5" y2="220.1"/>
	<circle class="st1" cx="99" cy="192" r="7.5"/>
	<circle class="st1" cx="141" cy="192" r="7.5"/>
	<path class="st1" d="M113.1,194.9c-0.4-0.9-0.6-1.9-0.6-2.9c0-1,0.2-2,0.6-2.9c0.4-0.9,0.9-1.7,1.6-2.4c0.7-0.7,1.5-1.2,2.4-1.6
		c0.9-0.4,1.9-0.6,2.9-0.6s2,0.2,2.9,0.6c0.9,0.4,1.7,0.9,2.4,1.6c0.7,0.7,1.2,1.5,1.6,2.4c0.4,0.9,0.6,1.9,0.6,2.9
		c0,1-0.2,2-0.6,2.9"/>
</g>
<g>
	<polyline class="st0" points="204.5,216.2 204.5,238.2 185.5,225.2 185.5,217.2 	"/>
	<polygon class="st0" points="200.5,227.2 181.5,214.2 185.5,203.2 204.5,216.2 	"/>
	<polyline class="st0" points="234.5,216.2 234.5,225.2 204.5,238.2 204.5,216.2 	"/>
	<polygon class="st0" points="238.5,214.2 208.5,227.2 204.5,216.2 234.5,203.2 	"/>
	<path class="st1" d="M204.6,211.2c0.8-7.9,6-16.2,12.4-19.3c6.7-3.2,12.1,0.6,12.5,8.4"/>
	<path class="st1" d="M211.3,208.2c0.6-3.4,2.9-6.8,5.7-8.1c2.9-1.4,5.3,0.1,5.7,3.2"/>
	<line class="st1" x1="211.9" y1="183.1" x2="224.5" y2="191.1"/>
	<g>
		<polyline class="st1" points="205.3,182.5 207,185.4 210.3,185.7 212,188.6 215.4,188.9 217.1,191.8 		"/>
	</g>
	<g>
		<polyline class="st1" points="193.3,196.5 195,199.4 198.3,199.7 200,202.6 203.4,202.9 205.1,205.8 		"/>
	</g>
	<g>
		<polyline class="st1" points="197.3,187.5 199,190.4 202.3,190.7 204,193.6 207.4,193.9 209.1,196.8 		"/>
	</g>
	<path class="st1" d="M191,202c0.7-7.8,5.9-16,12.2-19c3.4-1.6,6.4-1.4,8.7,0.2"/>
</g>
<g>
	<path class="st0" d="M54.5,278.9h-34"/>
	<path class="st0" d="M20.9,278.9H5.5c-2.2,0-4,1.8-4,4v43.9h57v-43.9c0-2.2-1.8-4-4-4l0,0"/>
	<line class="st0" x1="1.5" y1="321.2" x2="58.5" y2="321.2"/>
	<path class="st0" d="M9.5,278.9c0-3.1,2.6-5.7,5.7-5.7s5.7,2.6,5.7,5.7c0,3.1-2.6,5.7-5.7,5.7"/>
	<path class="st0" d="M39.1,278.9c0-3.1,2.6-5.7,5.7-5.7s5.7,2.6,5.7,5.7c0,3.1-2.6,5.7-5.7,5.7"/>
	<circle class="st1" cx="30" cy="294.4" r="2.3"/>
	<circle class="st1" cx="39.1" cy="294.4" r="2.3"/>
	<circle class="st1" cx="48.2" cy="294.4" r="2.3"/>
	<circle class="st1" cx="30" cy="303.6" r="2.3"/>
	<circle class="st1" cx="39.1" cy="303.6" r="2.3"/>
	<circle class="st1" cx="48.2" cy="303.6" r="2.3"/>
	<circle class="st1" cx="11.8" cy="303.6" r="2.3"/>
	<circle class="st1" cx="20.9" cy="303.6" r="2.3"/>
	<circle class="st1" cx="30" cy="312.7" r="2.3"/>
	<circle class="st1" cx="39.1" cy="312.7" r="2.3"/>
	<circle class="st1" cx="11.8" cy="312.7" r="2.3"/>
	<circle class="st1" cx="20.9" cy="312.7" r="2.3"/>
	<line class="st1" x1="46.5" y1="310.5" x2="50.5" y2="314.5"/>
	<line class="st1" x1="50.5" y1="310.5" x2="46.5" y2="314.5"/>
</g>
<g>
	<path class="st0" d="M27.4,207.8c1.1-0.5,1.9-1.5,2.1-2.7c1.4-6.3,1.6-12.8,0.8-19.2c-0.2-1.8-1.5-3.2-3.2-3.5
		c-7.4-1.5-15-1.5-22.4,0c-1.7,0.3-2.9,1.7-3.2,3.4c-1.1,6.5-0.8,13.1,0.9,19.5c0.3,1.1,1,2,2.1,2.5c0,0,4.4,2.2,11.3,2.2
		S27.4,207.8,27.4,207.8z"/>
	<path class="st0" d="M10.9,210l-0.1,23.7l5,5l5.2-5l0-23.7"/>
	<circle class="st0" cx="15.9" cy="191.1" r="3"/>
	<line class="st0" x1="14.9" y1="231.1" x2="14.9" y2="210.1"/>
	<path class="st1" d="M34.2,190.2l17,17c1.6,1.6,1.6,4.1,0,5.7L41.1,223c-1.5,1.5-4,1.6-5.5,0.1l-10-10.2"/>
	<path class="st1" d="M53.4,205c2.8,2.8,2.8,7.3,0,10.1"/>
	<path class="st1" d="M55.9,202.5c4.2,4.2,4.2,10.9,0,15.1"/>
	
		<rect x="37.3" y="210.1" transform="matrix(0.7071 -0.7071 0.7071 0.7071 -137.9546 90.9216)" class="st1" width="6.9" height="3.8"/>
	<path class="st1" d="M35.5,210.3c-1-1-1-2.6,0-3.5c1-1,2.6-1,3.5,0"/>
	<line class="st1" x1="35.5" y1="210.3" x2="37" y2="211.7"/>
	<line class="st1" x1="38.7" y1="195.7" x2="34.7" y2="199.7"/>
</g>
<g>
	<line class="st0" x1="-268" y1="304" x2="-262" y2="304"/>
	<line class="st0" x1="-264.6" y1="317.8" x2="-262.8" y2="316.8"/>
	<line class="st0" x1="-216.9" y1="318.7" x2="-218.7" y2="317.7"/>
	<line class="st0" x1="-213" y1="305" x2="-219" y2="305"/>
	<line class="st0" x1="-216.4" y1="291.2" x2="-218.2" y2="292.2"/>
	<line class="st0" x1="-240" y1="277" x2="-240" y2="283"/>
	<line class="st0" x1="-253.8" y1="280.4" x2="-252.8" y2="282.2"/>
	<line class="st0" x1="-264.1" y1="290.3" x2="-262.3" y2="291.3"/>
	<path class="st1" d="M-228.1,284L-228.1,284c-0.6-0.4-1.4-0.2-1.8,0.3l-13.9,16.7c-2,2.4-1.3,6,1.5,7.6l0,0
		c2.8,1.6,6.3,0.4,7.4-2.5l7.5-20.4C-227.2,285-227.5,284.3-228.1,284z"/>
	<g>
		<path class="st0" d="M-212,304c0-15.5-12.5-28-28-28s-28,12.5-28,28c0,7.8,3.2,14.9,8.4,20h39.2C-215.2,318.9-212,311.8-212,304z"
			/>
	</g>
	<line class="st0" x1="-250" y1="315" x2="-250" y2="318"/>
	<line class="st0" x1="-245" y1="315" x2="-245" y2="318"/>
	<line class="st0" x1="-240" y1="315" x2="-240" y2="318"/>
	<line class="st0" x1="-235" y1="315" x2="-235" y2="318"/>
	<line class="st0" x1="-230" y1="317" x2="-230" y2="318"/>
</g>
</svg>
