<?xml version="1.0" encoding="utf-8"?>
<!-- Generator: Adobe Illustrator 21.1.0, SVG Export Plug-In . SVG Version: 6.00 Build 0)  -->
<svg version="1.1" id="Layer_1" xmlns="http://www.w3.org/2000/svg" xmlns:xlink="http://www.w3.org/1999/xlink" x="0px" y="0px"
	 viewBox="0 0 60 26" style="enable-background:new 0 0 60 26;" xml:space="preserve">
<style type="text/css">
	.st0{fill:none;stroke:#000000;stroke-width:2;stroke-linecap:round;stroke-linejoin:round;stroke-miterlimit:10;}
	.st1{fill:none;stroke:#BA0C2F;stroke-width:2;stroke-linecap:round;stroke-linejoin:round;stroke-miterlimit:10;}
	.st2{fill:#BA0C2F;}
	.st3{fill:none;stroke:#000000;stroke-width:2;stroke-linecap:round;stroke-linejoin:round;}
</style>
<g>
	<path class="st0" d="M188,186.4c0-12.2,9.8-22,22-22s22,9.8,22,22"/>
	<path class="st0" d="M232.3,203.4c0,8.8-7.2,16-16,16"/>
	<rect x="229.5" y="186.9" class="st0" width="5" height="15.5"/>
	<rect x="185.5" y="186.9" class="st0" width="5" height="15.5"/>
	<path class="st0" d="M213.3,221.6h-6.5c-1.2,0-2.3-1-2.3-2.3l0,0c0-1.2,1-2.3,2.3-2.3h6.5c1.2,0,2.3,1,2.3,2.3l0,0
		C215.5,220.6,214.5,221.6,213.3,221.6z"/>
	<path class="st1" d="M201.3,202.4c0,4.8,3.9,8.8,8.8,8.8s8.8-3.9,8.8-8.8H201.3z"/>
	<path class="st0" d="M234.5,198.6c2.2,0,4-1.8,4-4s-1.8-4-4-4V198.6z"/>
	<path class="st0" d="M185.5,190.6c-2.2,0-4,1.8-4,4s1.8,4,4,4V190.6z"/>
	<path class="st1" d="M206.5,195.4c0-1.7-1.3-3-3-3c-1.7,0-3,1.3-3,3"/>
	<path class="st1" d="M219.5,195.4c0-1.7-1.3-3-3-3c-1.7,0-3,1.3-3,3"/>
	<path class="st1" d="M194.5,188.4c5,0,11-8,8-17c3,9,8,18,23,16"/>
</g>
<g>
	<path class="st0" d="M285.5,204.5v-38c0-1.1,0.9-2,2-2h39c1.1,0,2,0.9,2,2v46c0,5-4,9-9,9h-39c-5,0-9-4-9-9v-2c0-1.1,0.9-2,2-2h39
		c1.1,0,2,0.9,2,2v1c0,5,5,6,5,6"/>
	<line class="st1" x1="302.5" y1="174.5" x2="321.5" y2="174.5"/>
	<line class="st1" x1="292.5" y1="174.5" x2="296.5" y2="174.5"/>
	<line class="st1" x1="317.5" y1="185.5" x2="321.5" y2="185.5"/>
	<line class="st1" x1="292.5" y1="185.5" x2="311.5" y2="185.5"/>
	<line class="st1" x1="307.5" y1="196.5" x2="321.5" y2="196.5"/>
	<line class="st1" x1="292.5" y1="196.5" x2="301.5" y2="196.5"/>
	<circle class="st1" cx="299.5" cy="174.5" r="3"/>
	<circle class="st1" cx="314.5" cy="185.5" r="3"/>
	<circle class="st1" cx="304.5" cy="196.5" r="3"/>
</g>
<g>
	<path class="st0" d="M494.5,269.5c-0.6-0.4-1.2-0.7-1.8-1"/>
	<path class="st0" d="M503.4,279.5c-0.7-1.8-1.7-3.5-2.9-5"/>
	<path class="st0" d="M496.5,300.2c3.2-2.3,5.6-5.3,6.9-8.7"/>
	<path class="st0" d="M467.8,303.2c3.5,1.5,7.5,2.3,11.7,2.3c4.5,0,8.8-1,12.5-2.7"/>
	<path class="st0" d="M466.3,268.5c-7.1,3.5-11.8,9.8-11.8,17c0,6.2,3.5,11.7,9,15.4"/>
	<path class="st1" d="M489,272.3c-2.8-1.3-6-2-9.5-2s-6.7,0.7-9.5,2"/>
	<polyline class="st0" points="503.5,279.5 508.5,279.5 508.5,291.5 503.5,291.5 	"/>
	<path class="st0" d="M454.5,285.5L454.5,285.5c-1.7,0-3-1.3-3-3v-4"/>
	<path class="st1" d="M473.2,271.1c-2-1.7-3.2-4.3-3.2-7.1c0-5.2,4.3-9.5,9.5-9.5s9.5,4.3,9.5,9.5c0,2.9-1.3,5.4-3.2,7.1"/>
	<polyline class="st0" points="463.5,300.9 463.5,311.5 470.5,311.5 471.1,304.3 	"/>
	<polyline class="st0" points="488.9,304 489.5,311.5 496.5,311.5 496.5,300.2 	"/>
	<polyline class="st0" points="494.5,269.5 501,266 500.5,274.5 	"/>
	<path class="st0" d="M493,279.1c0-1.4,1.1-2.5,2.5-2.5s2.5,1.1,2.5,2.5"/>
	<path class="st1" d="M477.5,261.5c0-1.1,0.9-2,2-2"/>
	<line class="st1" x1="477.5" y1="261.5" x2="477.5" y2="266.5"/>
	<line class="st1" x1="476.5" y1="266.5" x2="481.5" y2="266.5"/>
	<line class="st1" x1="477.5" y1="262.5" x2="479.5" y2="262.5"/>
</g>
<g>
	<path class="st1" d="M133.5,203c0-1.1,0.9-2,2-2"/>
	<line class="st1" x1="133.5" y1="203" x2="133.5" y2="208"/>
	<line class="st1" x1="132.5" y1="208" x2="137.5" y2="208"/>
	<line class="st1" x1="133.5" y1="204" x2="135.5" y2="204"/>
	<g>
		<path class="st1" d="M134.5,219c-3.9,0-7.4-1.6-9.9-4.1c-2.5-2.5-4.1-6-4.1-9.9s1.6-7.4,4.1-9.9"/>
		<path class="st1" d="M134.5,191c3.9,0,7.4,1.6,9.9,4.1c2.5,2.5,4.1,6,4.1,9.9s-1.6,7.4-4.1,9.9"/>
		<polyline class="st1" points="120.5,194 126.4,194 126.4,199.9 		"/>
		<polyline class="st1" points="148.5,216 142.6,216 142.6,210.1 		"/>
	</g>
	<path class="st0" d="M104.5,209v5c0,1.1-0.9,2-2,2h-6c-1.1,0-2-0.9-2-2v-5"/>
	<path class="st0" d="M148.5,194.6c0-2.3-0.8-4.6-2.3-6.4l-2.7-3.2"/>
	<line class="st0" x1="100.5" y1="209" x2="116.9" y2="209"/>
	<path class="st0" d="M96.5,185l-2.7,3.2c-1.5,1.8-2.3,4.1-2.3,6.4V206c0,1.7,1.3,3,3,3"/>
	<path class="st0" d="M143.5,185l-4.7-12.3c-1.1-2.8-3.6-4.8-6.5-5.2c-2.3-0.3-7.6-0.6-12.3-0.6s-10,0.2-12.3,0.6
		c-3,0.4-5.5,2.4-6.5,5.2L96.5,185"/>
	<path class="st0" d="M138.9,185l-3.6-9.5c-0.8-2.2-2.8-3.7-5.1-4c-1.8-0.2-6.5-0.4-10.2-0.4s-8.4,0.2-10.2,0.4
		c-2.3,0.3-4.2,1.8-5.1,4l-3.6,9.5H138.9z"/>
	<circle class="st0" cx="100.5" cy="194.5" r="3"/>
	<line class="st0" x1="143.5" y1="185" x2="148.5" y2="185"/>
	<line class="st0" x1="91.5" y1="185" x2="96.5" y2="185"/>
	<polyline class="st0" points="117.5,198 109.5,198 109.5,204 115.5,204 	"/>
	<circle class="st0" cx="113" cy="177.5" r="2.5"/>
	<path class="st0" d="M123,184c0-2.2,1.8-4,4-4s4,1.8,4,4"/>
	<path class="st0" d="M109,184c0-2.2,1.8-4,4-4s4,1.8,4,4"/>
	<circle class="st0" cx="127" cy="177.5" r="2.5"/>
</g>
<g>
	<path class="st0" d="M-165.5,299v5c0,1.1-0.9,2-2,2h-6c-1.1,0-2-0.9-2-2v-5"/>
	<path class="st0" d="M-121.5,284.6c0-2.3-0.8-4.6-2.3-6.4l-2.7-3.2"/>
	<line class="st0" x1="-169.5" y1="299" x2="-153.1" y2="299"/>
	<path class="st0" d="M-173.5,275l-2.7,3.2c-1.5,1.8-2.3,4.1-2.3,6.4V296c0,1.7,1.3,3,3,3"/>
	<path class="st0" d="M-126.5,275l-4.7-12.3c-1.1-2.8-3.6-4.8-6.5-5.2c-2.3-0.3-7.6-0.6-12.3-0.6s-10,0.2-12.3,0.6
		c-3,0.4-5.5,2.4-6.5,5.2l-4.7,12.3"/>
	<path class="st0" d="M-131.1,275l-3.6-9.5c-0.8-2.2-2.8-3.7-5.1-4c-1.8-0.2-6.5-0.4-10.2-0.4s-8.4,0.2-10.2,0.4
		c-2.3,0.3-4.2,1.8-5.1,4l-3.6,9.5H-131.1z"/>
	<circle class="st0" cx="-169.5" cy="284.5" r="3"/>
	<line class="st0" x1="-126.5" y1="275" x2="-121.5" y2="275"/>
	<line class="st0" x1="-178.5" y1="275" x2="-173.5" y2="275"/>
	<polyline class="st0" points="-152.5,288 -160.5,288 -160.5,294 -154.5,294 	"/>
	<circle class="st0" cx="-157" cy="267.5" r="2.5"/>
	<path class="st0" d="M-147,274c0-2.2,1.8-4,4-4s4,1.8,4,4"/>
	<path class="st0" d="M-161,274c0-2.2,1.8-4,4-4s4,1.8,4,4"/>
	<circle class="st0" cx="-143" cy="267.5" r="2.5"/>
	<circle class="st1" cx="-135.5" cy="295" r="14"/>
	<g>
		<line class="st1" x1="-135.5" y1="299" x2="-135.5" y2="296"/>
		<line class="st1" x1="-135.5" y1="303" x2="-135.5" y2="303"/>
		<path class="st1" d="M-135.5,288c2.2,0,4,1.8,4,4s-1.8,4-4,4"/>
		<path class="st1" d="M-138.7,289.6c0.7-0.9,1.9-1.6,3.2-1.6"/>
	</g>
</g>
<g>
	<g>
		<path class="st1" d="M388,183.7c0-1.4,1.1-2.5,2.5-2.5"/>
		<line class="st1" x1="388" y1="183.7" x2="388" y2="189.9"/>
		<line class="st1" x1="386.8" y1="189.9" x2="393" y2="189.9"/>
		<line class="st1" x1="388" y1="185" x2="390.5" y2="185"/>
	</g>
	<line class="st0" x1="380.5" y1="168.5" x2="408.5" y2="168.5"/>
	<line class="st0" x1="372.5" y1="168.5" x2="374.5" y2="168.5"/>
	<path class="st0" d="M394.5,208.5v7l1,0h2c3.3,0,6,2.7,6,6l0,0h-27l0,0c0-3.3,2.7-6,6-6h2l1,0v-8l0-2.5c-8.1-2-14.1-9.4-14.1-18.1
		v-22.4h37.3v22.4c0,10.3-8.3,18.6-18.6,18.6"/>
	<line class="st0" x1="418.5" y1="173.5" x2="409.5" y2="173.5"/>
	<path class="st0" d="M418.5,173.5c0,0,0,5,0,7c0,4-2,10-10,11"/>
	<path class="st0" d="M371.5,191.5c-8-1-10-7-10-11c0-2,0-7,0-7h9"/>
	<path class="st1" d="M391.4,173.9l0.6,0.6c0.5,0.5,1.2,0.7,1.9,0.5l0.8-0.2c1.1-0.3,2.2,0.3,2.5,1.4l0.2,0.8
		c0.2,0.7,0.7,1.2,1.4,1.4l0.8,0.2c1.1,0.3,1.7,1.4,1.4,2.5l-0.2,0.8c-0.2,0.7,0,1.4,0.5,1.9l0.6,0.6c0.8,0.8,0.8,2.1,0,2.8
		l-0.6,0.6c-0.5,0.5-0.7,1.2-0.5,1.9l0.2,0.8c0.3,1.1-0.3,2.2-1.4,2.5l-0.8,0.2c-0.7,0.2-1.2,0.7-1.4,1.4l-0.2,0.8
		c-0.3,1.1-1.4,1.7-2.5,1.4l-0.8-0.2c-0.7-0.2-1.4,0-1.9,0.5l-0.6,0.6c-0.8,0.8-2.1,0.8-2.8,0l-0.6-0.6c-0.5-0.5-1.2-0.7-1.9-0.5
		l-0.8,0.2c-1.1,0.3-2.2-0.3-2.5-1.4l-0.2-0.8c-0.2-0.7-0.7-1.2-1.4-1.4l-0.8-0.2c-1.1-0.3-1.7-1.4-1.4-2.5l0.2-0.8
		c0.2-0.7,0-1.4-0.5-1.9l-0.6-0.6c-0.8-0.8-0.8-2.1,0-2.8l0.6-0.6c0.5-0.5,0.7-1.2,0.5-1.9l-0.2-0.8c-0.3-1.1,0.3-2.2,1.4-2.5
		l0.8-0.2c0.7-0.2,1.2-0.7,1.4-1.4l0.2-0.8c0.3-1.1,1.4-1.7,2.5-1.4l0.8,0.2c0.7,0.2,1.4,0,1.9-0.5l0.6-0.6
		C389.4,173.1,390.6,173.1,391.4,173.9z"/>
</g>
<g>
	<g>
		<path d="M-60,402.5c-13.8,0-25-11.2-25-25s11.2-25,25-25s25,11.2,25,25S-46.2,402.5-60,402.5z M-60,354.5c-12.7,0-23,10.3-23,23
			s10.3,23,23,23s23-10.3,23-23S-47.3,354.5-60,354.5z"/>
	</g>
	<g>
		<path d="M-60,359.5c-0.3,0-0.5-0.1-0.7-0.3c-0.2-0.2-0.3-0.5-0.3-0.7c0-0.3,0.1-0.5,0.3-0.7c0.4-0.4,1-0.4,1.4,0
			c0.2,0.2,0.3,0.4,0.3,0.7c0,0.3-0.1,0.5-0.3,0.7C-59.5,359.4-59.7,359.5-60,359.5z"/>
	</g>
	<g>
		<path d="M-69.5,362c-0.1,0-0.3,0-0.4-0.1c-0.1,0-0.2-0.1-0.3-0.2c-0.2-0.2-0.3-0.4-0.3-0.7c0-0.3,0.1-0.5,0.3-0.7
			c0.1-0.1,0.2-0.2,0.3-0.2c0.4-0.1,0.8-0.1,1.1,0.2c0.2,0.2,0.3,0.4,0.3,0.7c0,0.3-0.1,0.5-0.3,0.7C-69,361.9-69.2,362-69.5,362z"
			/>
	</g>
	<g>
		<path d="M-76.5,369c-0.3,0-0.5-0.1-0.7-0.3c-0.2-0.2-0.3-0.5-0.3-0.7c0-0.3,0.1-0.5,0.3-0.7c0.4-0.4,1-0.4,1.4,0
			c0.2,0.2,0.3,0.4,0.3,0.7c0,0.3-0.1,0.5-0.3,0.7C-75.9,368.9-76.2,369-76.5,369z"/>
	</g>
	<g>
		<path d="M-79,378.5c-0.3,0-0.5-0.1-0.7-0.3c-0.2-0.2-0.3-0.5-0.3-0.7c0-0.1,0-0.3,0.1-0.4c0.1-0.1,0.1-0.2,0.2-0.3
			c0.4-0.4,1-0.4,1.4,0c0.1,0.1,0.2,0.2,0.2,0.3c0.1,0.1,0.1,0.3,0.1,0.4c0,0.3-0.1,0.5-0.3,0.7C-78.5,378.4-78.7,378.5-79,378.5z"
			/>
	</g>
	<g>
		<path d="M-76.5,388c-0.1,0-0.3,0-0.4-0.1c-0.1-0.1-0.2-0.1-0.3-0.2c-0.1-0.1-0.2-0.2-0.2-0.3c0-0.1-0.1-0.3-0.1-0.4
			c0-0.1,0-0.3,0.1-0.4c0.1-0.1,0.1-0.2,0.2-0.3c0.1-0.1,0.2-0.2,0.3-0.2c0.4-0.2,0.8-0.1,1.1,0.2c0.1,0.1,0.2,0.2,0.2,0.3
			c0.1,0.1,0.1,0.3,0.1,0.4c0,0.1,0,0.3-0.1,0.4c0,0.1-0.1,0.2-0.2,0.3C-75.9,387.9-76.2,388-76.5,388z"/>
	</g>
	<g>
		<path d="M-69.5,395c-0.1,0-0.3,0-0.4-0.1c-0.1-0.1-0.2-0.1-0.3-0.2c-0.1-0.1-0.2-0.2-0.2-0.3c0-0.1-0.1-0.3-0.1-0.4
			c0-0.3,0.1-0.5,0.3-0.7c0.1-0.1,0.2-0.2,0.3-0.2c0.2-0.1,0.5-0.1,0.8,0c0.1,0,0.2,0.1,0.3,0.2c0.2,0.2,0.3,0.4,0.3,0.7
			c0,0.1,0,0.3-0.1,0.4c-0.1,0.1-0.1,0.2-0.2,0.3c-0.1,0.1-0.2,0.2-0.3,0.2C-69.2,394.9-69.4,395-69.5,395z"/>
	</g>
	<g>
		<path d="M-60,397.5c-0.3,0-0.5-0.1-0.7-0.3c-0.1-0.1-0.2-0.2-0.2-0.3c0-0.1-0.1-0.3-0.1-0.4c0-0.1,0-0.1,0-0.2
			c0-0.1,0-0.1,0.1-0.2c0-0.1,0.1-0.1,0.1-0.2c0-0.1,0.1-0.1,0.1-0.1c0.3-0.3,0.7-0.4,1.1-0.2c0.1,0.1,0.2,0.1,0.3,0.2
			c0.2,0.2,0.3,0.4,0.3,0.7c0,0.1,0,0.3-0.1,0.4c-0.1,0.1-0.1,0.2-0.2,0.3c-0.1,0.1-0.2,0.2-0.3,0.2
			C-59.7,397.5-59.9,397.5-60,397.5z"/>
	</g>
	<g>
		<path d="M-50.5,395c-0.1,0-0.3,0-0.4-0.1c-0.1-0.1-0.2-0.1-0.3-0.2c-0.1-0.1-0.2-0.2-0.2-0.3c0-0.1-0.1-0.3-0.1-0.4
			c0-0.3,0.1-0.5,0.3-0.7c0.1-0.1,0.2-0.2,0.3-0.2c0.2-0.1,0.4-0.1,0.6-0.1c0.1,0,0.1,0,0.2,0.1c0.1,0,0.1,0.1,0.2,0.1
			c0,0,0.1,0.1,0.1,0.1c0.2,0.2,0.3,0.4,0.3,0.7c0,0.1,0,0.3-0.1,0.4c-0.1,0.1-0.1,0.2-0.2,0.3C-50,394.8-50.2,395-50.5,395z"/>
	</g>
	<g>
		<path d="M-43.6,388c-0.1,0-0.3,0-0.4-0.1c-0.1-0.1-0.2-0.1-0.3-0.2c-0.1-0.1-0.2-0.2-0.2-0.3s-0.1-0.3-0.1-0.4
			c0-0.1,0-0.3,0.1-0.4c0-0.1,0.1-0.2,0.2-0.3c0.1-0.1,0.2-0.2,0.3-0.2c0.4-0.2,0.8-0.1,1.1,0.2c0.1,0.1,0.2,0.2,0.2,0.3
			c0,0.1,0.1,0.3,0.1,0.4c0,0.1,0,0.3-0.1,0.4c-0.1,0.1-0.1,0.2-0.2,0.3C-43,387.9-43.3,388-43.6,388z"/>
	</g>
	<g>
		<path d="M-41,378.5c-0.1,0-0.3,0-0.4-0.1c-0.1-0.1-0.2-0.1-0.3-0.2c-0.2-0.2-0.3-0.5-0.3-0.7c0-0.1,0-0.3,0.1-0.4
			c0.1-0.1,0.1-0.2,0.2-0.3c0.1-0.1,0.2-0.2,0.3-0.2c0.4-0.2,0.8-0.1,1.1,0.2c0.1,0.1,0.2,0.2,0.2,0.3c0.1,0.1,0.1,0.3,0.1,0.4
			c0,0.3-0.1,0.5-0.3,0.7C-40.5,378.4-40.7,378.5-41,378.5z"/>
	</g>
	<g>
		<path d="M-43.6,369c-0.3,0-0.5-0.1-0.7-0.3c-0.2-0.2-0.3-0.5-0.3-0.7c0-0.3,0.1-0.5,0.3-0.7c0.4-0.4,1-0.4,1.4,0
			c0.2,0.2,0.3,0.4,0.3,0.7c0,0.3-0.1,0.5-0.3,0.7C-43,368.9-43.3,369-43.6,369z"/>
	</g>
	<g>
		<path d="M-52,350.5h-16c-0.6,0-1-0.4-1-1v-5c0-0.6,0.4-1,1-1h16c0.6,0,1,0.4,1,1v5C-51,350.1-51.4,350.5-52,350.5z M-67,348.5h14
			v-3h-14V348.5z"/>
	</g>
	<g>
		<path d="M-64,354.5c-0.6,0-1-0.4-1-1v-4c0-0.6,0.4-1,1-1s1,0.4,1,1v4C-63,354.1-63.4,354.5-64,354.5z"/>
	</g>
	<g>
		<path d="M-56,354.5c-0.6,0-1-0.4-1-1v-4c0-0.6,0.4-1,1-1s1,0.4,1,1v4C-55,354.1-55.4,354.5-56,354.5z"/>
	</g>
	<g>
		<path d="M-37.5,361c-0.3,0-0.5-0.1-0.7-0.3l-7-7c-0.4-0.4-0.4-1,0-1.4s1-0.4,1.4,0l7,7c0.4,0.4,0.4,1,0,1.4
			C-37,360.9-37.2,361-37.5,361z"/>
	</g>
	<g>
		<path d="M-82.5,361c-0.3,0-0.5-0.1-0.7-0.3c-0.4-0.4-0.4-1,0-1.4l7-7c0.4-0.4,1-0.4,1.4,0s0.4,1,0,1.4l-7,7
			C-82,360.9-82.2,361-82.5,361z"/>
	</g>
	<g>
		<path class="st2" d="M-59.9,382.5c-0.9,0-1.8-0.2-2.6-0.7c-1.3-0.8-2.3-2.1-2.5-3.6c-0.3-1.5,0.1-3.1,1.1-4.3l11.7-14.1
			c0.7-0.8,1.8-1,2.8-0.5c0.9,0.5,1.3,1.7,0.9,2.7l-6.4,17.2c-0.5,1.4-1.7,2.6-3.1,3.1C-58.7,382.4-59.3,382.5-59.9,382.5z
			 M-50.6,361c-0.1,0-0.1,0-0.1,0.1l-11.7,14.2c-0.6,0.7-0.9,1.7-0.7,2.6s0.7,1.7,1.6,2.2c0.8,0.5,1.8,0.6,2.7,0.2
			c0.9-0.3,1.6-1,1.9-1.9l6.4-17.2C-50.4,361.2-50.4,361.1-50.6,361C-50.5,361-50.6,361-50.6,361z"/>
	</g>
</g>
<g>
	<path class="st0" d="M14.5,299v5c0,1.1-0.9,2-2,2h-6c-1.1,0-2-0.9-2-2v-5"/>
	<path class="st0" d="M57.8,281c-0.4-1-0.9-1.9-1.6-2.8l-2.7-3.2"/>
	<line class="st0" x1="10.5" y1="299" x2="30.9" y2="299"/>
	<path class="st0" d="M6.5,275l-2.7,3.2c-1.5,1.8-2.3,4.1-2.3,6.4V296c0,1.7,1.3,3,3,3"/>
	<path class="st0" d="M53.5,275l-4.7-12.3c-1.1-2.8-3.6-4.8-6.5-5.2C40,257.2,34.7,257,30,257s-10,0.2-12.3,0.6
		c-3,0.4-5.5,2.4-6.5,5.2L6.5,275"/>
	<path class="st0" d="M48.9,275l-3.6-9.5c-0.8-2.2-2.8-3.7-5.1-4c-1.8-0.2-6.5-0.4-10.2-0.4s-8.4,0.2-10.2,0.4
		c-2.3,0.3-4.2,1.8-5.1,4l-3.6,9.5H48.9z"/>
	<circle class="st0" cx="10.5" cy="284.5" r="3"/>
	<line class="st0" x1="53.5" y1="275" x2="58.5" y2="275"/>
	<line class="st0" x1="1.5" y1="275" x2="6.5" y2="275"/>
	<polyline class="st0" points="30.5,288 19.5,288 19.5,294 30.5,294 	"/>
	<circle class="st0" cx="23" cy="267.5" r="2.5"/>
	<path class="st0" d="M33,274c0-2.2,1.8-4,4-4s4,1.8,4,4"/>
	<path class="st0" d="M19,274c0-2.2,1.8-4,4-4s4,1.8,4,4"/>
	<circle class="st0" cx="37" cy="267.5" r="2.5"/>
	<g>
		<g>
			<g>
				<path class="st1" d="M35.5,286.9v7.3c0,3.4,1.1,6.6,3.3,9.4c2.2,2.8,4.9,4.6,8.2,5.4c3.2-0.8,6-2.6,8.2-5.4
					c2.2-2.8,3.3-6,3.3-9.4v-7.3L47,282L35.5,286.9z"/>
			</g>
		</g>
	</g>
	<polyline class="st1" points="42.5,296 46.5,299 52.5,292 	"/>
</g>
<g>
	<path class="st1" d="M381.2,297.8c2.6-2.2,5.9-7.8,1.5-13.3c-5.6-7-21-10-21-10s1.1,14.1,6.6,21
		C372.7,301.1,378.8,299.8,381.2,297.8z"/>
	<path class="st0" d="M385.6,311.5c0,0,2.9-8.1,10-16c9-10,13-26,13-32"/>
	<path class="st0" d="M395.5,295c7.5,5,16.4,0.6,20.2-6.5c9-17-7-34-8-34c-3,7-13.5,14-17,21C386.6,283.5,388.6,290.5,395.5,295z"/>
	<g>
		<path class="st1" d="M367.6,280.5c17,18,19,22,19,22"/>
		<path class="st1" d="M381.2,297.8c2.6-2.2,5.9-7.8,1.5-13.3c-5.6-7-21-10-21-10s1.1,14.1,6.6,21
			C372.7,301.1,378.8,299.8,381.2,297.8z"/>
		<path class="st0" d="M385.6,311.5c0,0,2.9-8.1,10-16c9-10,13-26,13-32"/>
		<path class="st0" d="M395.5,295c7.5,5,16.4,0.6,20.2-6.5c9-17-7-34-8-34c-3,7-13.5,14-17,21C386.6,283.5,388.6,290.5,395.5,295z"
			/>
	</g>
</g>
<g>
	<circle class="st1" cx="186" cy="262" r="4"/>
	<path class="st1" d="M186,266v13c0,2.2,1.8,4,4,4h8"/>
	<circle class="st0" cx="202" cy="262" r="4"/>
	<circle class="st0" cx="218" cy="262" r="4"/>
	<circle class="st0" cx="234" cy="262" r="4"/>
	<circle class="st0" cx="202" cy="304" r="4"/>
	<circle class="st0" cx="218" cy="304" r="4"/>
	<circle class="st0" cx="234" cy="304" r="4"/>
	<line class="st0" x1="202" y1="266" x2="202" y2="300"/>
	<line class="st0" x1="218" y1="266" x2="218" y2="300"/>
	<line class="st0" x1="234" y1="266" x2="234" y2="300"/>
	<line class="st0" x1="234" y1="283" x2="202" y2="283"/>
</g>
<g>
	<path class="st0" d="M148,290.8c0-15.5-12.5-28-28-28s-28,12.5-28,28"/>
	<g>
		<polyline class="st0" points="96,303.2 92,303.2 92,296.5 96,296.5 		"/>
		<line class="st0" x1="92" y1="299.8" x2="95" y2="299.8"/>
	</g>
	<g>
		<polyline class="st0" points="144,302.2 144,295.5 148,295.5 		"/>
		<line class="st0" x1="144" y1="298.8" x2="147" y2="298.8"/>
	</g>
	<line class="st0" x1="120" y1="262.8" x2="120" y2="268.8"/>
	<path class="st1" d="M130.9,270.8L130.9,270.8c-0.6-0.4-1.4-0.2-1.8,0.3l-13.9,16.7c-2,2.4-1.3,6,1.5,7.6h0
		c2.8,1.6,6.3,0.4,7.4-2.5l7.5-20.4C131.8,271.9,131.5,271.1,130.9,270.8z"/>
	<line class="st0" x1="148" y1="290.8" x2="142" y2="290.8"/>
	<line class="st0" x1="92" y1="290.8" x2="98" y2="290.8"/>
	<line class="st0" x1="92" y1="290.8" x2="94" y2="290.8"/>
	<line class="st0" x1="95.9" y1="277.2" x2="97.7" y2="278.2"/>
	<line class="st0" x1="106.2" y1="267.3" x2="107.2" y2="269"/>
	<line class="st0" x1="143.6" y1="278" x2="141.8" y2="279"/>
</g>
<g>
	<path class="st1" d="M306.6,271c0,3.9-2,10-7,10s-7-6.1-7-10s3.1-7,7-7S306.6,267.1,306.6,271z"/>
	<path class="st1" d="M285.6,302c0-9.4,5-17,14-17s14,7.6,14,17"/>
	<path class="st0" d="M323.3,274c0,2.9-1.5,7.5-5.3,7.5s-5.3-4.6-5.3-7.5s2.4-5.3,5.3-5.3C321,268.8,323.3,271.1,323.3,274z"/>
	<path class="st0" d="M312.4,286.2c1.5-1.1,3.4-1.7,5.7-1.7c6.8,0,10.5,5.7,10.5,12.8"/>
	<path class="st0" d="M276.7,274c0,2.9,1.5,7.5,5.3,7.5s5.3-4.6,5.3-7.5s-2.4-5.3-5.3-5.3C279,268.8,276.7,271.1,276.7,274z"/>
	<path class="st0" d="M287.6,286.2c-1.5-1.1-3.4-1.7-5.7-1.7c-6.8,0-10.5,5.7-10.5,12.8"/>
	<line class="st1" x1="292.2" y1="287.2" x2="299.3" y2="294.2"/>
	<line class="st1" x1="302.8" y1="297.8" x2="306.6" y2="302"/>
	<rect x="298.6" y="294" transform="matrix(0.7071 0.7071 -0.7071 0.7071 297.4881 -126.1999)" class="st1" width="5" height="4"/>
</g>
<g>
	<path class="st0" d="M-75.5,301v4c0,1.1-0.9,2-2,2h-6c-1.1,0-2-0.9-2-2v-4"/>
	<path class="st0" d="M-34.5,301v4c0,1.1-0.9,2-2,2h-6c-1.1,0-2-0.9-2-2v-4"/>
	<path class="st0" d="M-34.5,301c1.7,0,3-1.3,3-3v-11.4c0-2.3-0.8-4.6-2.3-6.4l-2.7-3.2"/>
	<path class="st0" d="M-83.5,277l-2.7,3.2c-1.5,1.8-2.3,4.1-2.3,6.4V298c0,1.7,1.3,3,3,3"/>
	<path class="st0" d="M-36.5,277l-4.7-12.3c-1.1-2.8-3.6-4.8-6.5-5.2c-2.3-0.3-7.6-0.6-12.3-0.6s-10,0.2-12.3,0.6
		c-3,0.4-5.5,2.4-6.5,5.2l-4.7,12.3"/>
	<path class="st0" d="M-42.5,276l-3.4-8.9c-0.8-2-2.6-3.4-4.7-3.7c-1.7-0.2-6-0.4-9.4-0.4s-7.8,0.2-9.4,0.4
		c-2.1,0.3-3.9,1.7-4.7,3.7l-3.4,8.9H-42.5z"/>
	<circle class="st0" cx="-79.5" cy="286.5" r="3"/>
	<circle class="st0" cx="-40.5" cy="286.5" r="3"/>
	<line class="st0" x1="-36.5" y1="277" x2="-31.5" y2="277"/>
	<line class="st0" x1="-88.5" y1="277" x2="-83.5" y2="277"/>
	<rect x="-70.5" y="290" class="st0" width="21" height="6"/>
	<circle class="st0" cx="-67" cy="269.5" r="2.5"/>
	<path class="st0" d="M-57,276c0-2.2,1.8-4,4-4s4,1.8,4,4"/>
	<path class="st0" d="M-71,276c0-2.2,1.8-4,4-4s4,1.8,4,4"/>
	<circle class="st0" cx="-53" cy="269.5" r="2.5"/>
	<line class="st0" x1="-79.5" y1="301" x2="-40.5" y2="301"/>
</g>
<g>
	<polygon class="st0" points="54,401.5 6,401.5 14,365.5 46,365.5 	"/>
	<circle class="st1" cx="30" cy="350.5" r="6"/>
	<line class="st1" x1="30" y1="353.5" x2="30" y2="361.5"/>
	<line class="st0" x1="20" y1="377.5" x2="20" y2="389.5"/>
	<line class="st0" x1="28" y1="377.5" x2="20" y2="385"/>
	<line class="st0" x1="28" y1="389.5" x2="23" y2="382.8"/>
	<path class="st0" d="M40,386.5c0,1.7-1.3,3-3,3h-2c-1.7,0-3-1.3-3-3v-6c0-1.7,1.3-3,3-3h2c1.7,0,3,1.3,3,3"/>
	<polyline class="st0" points="38,384.5 40,384.5 40,386.5 	"/>
</g>
<g>
	<line class="st1" x1="224.5" y1="346" x2="224.5" y2="395"/>
	<polyline class="st1" points="230.2,390 224.5,395.7 218.8,390 	"/>
	<polyline class="st1" points="218.8,351 224.5,345.3 230.2,351 	"/>
	<path class="st0" d="M209.5,396v-51h-16c-2.2,0-4,1.8-4,4v52h41"/>
	<line class="st0" x1="209.5" y1="373" x2="196.5" y2="373"/>
	<line class="st0" x1="209.5" y1="366" x2="202.5" y2="366"/>
	<line class="st0" x1="209.5" y1="359" x2="202.5" y2="359"/>
	<line class="st0" x1="209.5" y1="352" x2="202.5" y2="352"/>
	<line class="st0" x1="209.5" y1="394" x2="202.5" y2="394"/>
	<line class="st0" x1="209.5" y1="387" x2="202.5" y2="387"/>
	<line class="st0" x1="209.5" y1="380" x2="202.5" y2="380"/>
</g>
<g>
	<line class="st1" x1="142" y1="385.5" x2="98" y2="385.5"/>
	<polyline class="st1" points="103,391.2 97.3,385.5 103,379.8 	"/>
	<polyline class="st1" points="137,379.8 142.7,385.5 137,391.2 	"/>
	<path class="st0" d="M148,369.5v-16c0-2.2-1.8-4-4-4H96c-2.2,0-4,1.8-4,4v16"/>
	<line class="st0" x1="120" y1="369.5" x2="120" y2="356.5"/>
	<line class="st0" x1="127" y1="369.5" x2="127" y2="362.5"/>
	<line class="st0" x1="134" y1="369.5" x2="134" y2="362.5"/>
	<line class="st0" x1="141" y1="369.5" x2="141" y2="362.5"/>
	<line class="st0" x1="99" y1="369.5" x2="99" y2="362.5"/>
	<line class="st0" x1="106" y1="369.5" x2="106" y2="362.5"/>
	<line class="st0" x1="113" y1="369.5" x2="113" y2="362.5"/>
	<line class="st0" x1="92" y1="369.5" x2="148" y2="369.5"/>
	<line class="st0" x1="148" y1="374.5" x2="148" y2="378.5"/>
	<line class="st0" x1="92" y1="374.5" x2="92" y2="378.5"/>
	<line class="st0" x1="148" y1="383.5" x2="148" y2="387.5"/>
	<line class="st0" x1="92" y1="383.5" x2="92" y2="387.5"/>
	<line class="st0" x1="148" y1="392.5" x2="148" y2="396.5"/>
	<line class="st0" x1="92" y1="392.5" x2="92" y2="396.5"/>
</g>
<g>
	<circle class="st1" cx="280.8" cy="20.1" r="4.5"/>
	<circle class="st1" cx="319.8" cy="20.1" r="4.5"/>
	<line class="st1" x1="315" y1="20.6" x2="289" y2="20.6"/>
	<path class="st1" d="M325,20.6c0,0-1,0,1,0c3,0,3-5,3-7c0-1-3-5-16-5h-26c-4,0-9-6-9-6"/>
	<path class="st1" d="M306.1,1.4c4.3,2.3,9.2,7.1,9.2,7.1"/>
	<path class="st1" d="M276,20.6l-5-1c0,0,0-4,0-5c0-2,3-6,3-8h8"/>
	<polyline class="st1" points="294,5.6 296,8.6 296,17.6 	"/>
	<line class="st1" x1="300" y1="12.6" x2="303" y2="12.6"/>
</g>
<g>
	<circle class="st1" cx="10.8" cy="20.5" r="4.5"/>
	<circle class="st1" cx="49.8" cy="20.5" r="4.5"/>
	<line class="st1" x1="45" y1="21" x2="19" y2="21"/>
	<path class="st1" d="M55,21c0,0-1,0,1,0c3,0,3-5,3-7c0-1-3-5-16-5H17c-3,0-5.2-3-5.2-3"/>
	<path class="st1" d="M6,21l-5-1c0,0,0-4,0-5c0-2,3-7,3-9h7c0,0,2-5,16-5c9,0,17.3,8,17.3,8"/>
	<polyline class="st1" points="27,2 29,9 29,18 	"/>
	<line class="st1" x1="33" y1="13" x2="35" y2="13"/>
	<line class="st1" x1="20" y1="13" x2="22" y2="13"/>
	<line class="st1" x1="16" y1="2.5" x2="16" y2="14.2"/>
</g>
<g>
	<circle class="st1" cx="100.8" cy="20.5" r="4.5"/>
	<circle class="st1" cx="139.8" cy="20.5" r="4.5"/>
	<line class="st1" x1="135" y1="21" x2="109" y2="21"/>
	<path class="st1" d="M145,21c0,0-1,0,1,0c3,0,3-5,3-7c0-1-3-5-16-5h-33c-3,0-7-1-7-1"/>
	<path class="st1" d="M96,21l-5-1c0,0,0-4,0-5c0-2,2-5,2-7s4-7,4-7s12,0,23,0c6,0,14.3,8,14.3,8"/>
	<polyline class="st1" points="117,2 119,9 119,18 	"/>
	<line class="st1" x1="123" y1="13" x2="125" y2="13"/>
	<line class="st1" x1="108.5" y1="13" x2="110.5" y2="13"/>
	<line class="st1" x1="105" y1="2" x2="104" y2="9"/>
	<line class="st1" x1="104" y1="9" x2="104" y2="13"/>
</g>
<g>
	<circle class="st1" cx="370.8" cy="22.5" r="4.5"/>
	<circle class="st1" cx="409.8" cy="22.5" r="4.5"/>
	<line class="st1" x1="405" y1="23" x2="379" y2="23"/>
	<path class="st1" d="M415,23c0,0-1,0,1,0c3,0,3-5,3-7c0-1-5-7-15-7h-34c-3,0-7-1-7-1"/>
	<path class="st1" d="M366,23l-5-1c0,0,0-4,0-5c0-2,2-7,2-9s5-9,9-9c1,0,8,0,19,0c8,0,17,10,17,10"/>
	<polyline class="st1" points="388,-1 390,8 390,20 	"/>
	<line class="st1" x1="394" y1="14" x2="396" y2="14"/>
	<line class="st1" x1="379" y1="14" x2="381" y2="14"/>
	<line class="st1" x1="377" y1="-1" x2="375" y2="9"/>
	<line class="st1" x1="375" y1="9" x2="375" y2="15.5"/>
</g>
<g>
	<circle class="st1" cx="190.8" cy="20.5" r="4.5"/>
	<circle class="st1" cx="229.8" cy="20.5" r="4.5"/>
	<line class="st1" x1="225" y1="21" x2="199" y2="21"/>
	<path class="st1" d="M235,21c0,0-1,0,1,0c3,0,3-5,3-7c0-1-3-5-16-5h-28c-5,0-10-7-10-7"/>
	<path class="st1" d="M186,21l-5-1c0,0,0-4,0-5c0-2,3-6,3-8h6c0,0,5-6,17-6c9,0,18.3,8,18.3,8"/>
	<polyline class="st1" points="204,6 206,9 206,18 	"/>
	<line class="st1" x1="210" y1="13" x2="213" y2="13"/>
</g>
<g>
	<circle class="st1" cx="461.2" cy="23.2" r="4.8"/>
	<circle class="st1" cx="499.1" cy="23.2" r="5.1"/>
	<line class="st1" x1="494" y1="23.7" x2="470" y2="23.7"/>
	<path class="st1" d="M505,23.7c0,0-1,0,1,0c3,0,3-2,3-4s-2-3-2-3s0-2.9,0-4c0-2-8.6-3-15-3h-31c-3,0-8-1-8-1"/>
	<path class="st1" d="M456,23.7l-5-1c0,0,0-4,0-5c0-2,2-6,2-8c0-4,3-10,3-10s19-1,28,0c3,0.3,10,10,10,10"/>
	<polyline class="st1" points="477,-0.3 479,8.7 479,20.7 	"/>
	<line class="st1" x1="483" y1="14.7" x2="485" y2="14.7"/>
	<line class="st1" x1="468.4" y1="14.7" x2="470.6" y2="14.7"/>
	<line class="st1" x1="465" y1="-0.3" x2="464" y2="9.7"/>
	<line class="st1" x1="462" y1="-1.3" x2="462" y2="-2.3"/>
	<line class="st1" x1="479" y1="-1.3" x2="479" y2="-2.3"/>
	<line class="st1" x1="464" y1="9.7" x2="464" y2="15.2"/>
</g>
<g>
	<line class="st1" x1="451.5" y1="164.5" x2="508.5" y2="221.5"/>
	<path class="st0" d="M464.5,210.5v4c0,1.1-0.9,2-2,2h-6c-1.1,0-2-0.9-2-2v-4"/>
	<path class="st0" d="M498.4,216.5h-0.9c-1.1,0-2-0.9-2-2"/>
	<line class="st0" x1="505.5" y1="210.5" x2="505.5" y2="212.8"/>
	<path class="st0" d="M505.5,210.5c1.7,0,3-1.3,3-3v-11.4c0-2.3-0.8-4.6-2.3-6.4l-2.7-3.2"/>
	<path class="st0" d="M456.5,186.5l-2.7,3.2c-1.5,1.8-2.3,4.1-2.3,6.4v11.4c0,1.7,1.3,3,3,3"/>
	<line class="st0" x1="459.6" y1="178.3" x2="456.5" y2="186.5"/>
	<path class="st0" d="M503.5,186.5l-4.7-12.3c-1.1-2.8-3.6-4.8-6.5-5.2c-2.3-0.3-7.6-0.6-12.3-0.6s-10,0.2-12.3,0.6
		c-1.6,0.2-3,0.9-4.2,1.9"/>
	<path class="st0" d="M478.2,185.5h19.4l-3.4-8.9c-0.8-2-2.6-3.4-4.7-3.7c-1.7-0.2-6-0.4-9.4-0.4s-7.8,0.2-9.4,0.4
		c-1.3,0.2-2.5,0.8-3.4,1.7"/>
	<polyline class="st0" points="463.7,182.3 462.5,185.5 466.8,185.5 	"/>
	<circle class="st0" cx="460.5" cy="196" r="3"/>
	<circle class="st0" cx="499.5" cy="196" r="3"/>
	<line class="st0" x1="503.5" y1="186.5" x2="508.5" y2="186.5"/>
	<line class="st0" x1="451.5" y1="186.5" x2="456.5" y2="186.5"/>
	<polyline class="st0" points="480.5,199.5 469.5,199.5 469.5,205.5 486.5,205.5 	"/>
	<path class="st0" d="M470.7,178c0.4-0.9,1.3-1.5,2.3-1.5c1.4,0,2.5,1.1,2.5,2.5c0,1-0.6,1.9-1.5,2.3"/>
	<path class="st0" d="M483,185.5c0-2.2,1.8-4,4-4s4,1.8,4,4"/>
	<circle class="st0" cx="487" cy="179" r="2.5"/>
	<line class="st0" x1="460.5" y1="210.5" x2="491.5" y2="210.5"/>
</g>
<g>
	<path class="st1" d="M-133.5,384.5c0,3.3,2.7,6,6,6s6-2.7,6-6"/>
	<path class="st1" d="M-133.5,365.5c0-3.3-2.7-6-6-6"/>
	<line class="st1" x1="-133.5" y1="384.5" x2="-133.5" y2="365.5"/>
	<line class="st1" x1="-121.5" y1="384.5" x2="-121.5" y2="358.5"/>
	<circle class="st1" cx="-125" cy="359" r="3.5"/>
	<path class="st1" d="M-121.5,359c0-5.8-2-8.5-3.5-10.5"/>
	<line class="st0" x1="-134.5" y1="400.5" x2="-121.5" y2="400.5"/>
	<line class="st0" x1="-178.5" y1="400.5" x2="-139.5" y2="400.5"/>
	<g>
		<line class="st0" x1="-170.5" y1="373.5" x2="-170.5" y2="399.5"/>
		<line class="st0" x1="-147.5" y1="399.5" x2="-147.5" y2="373.5"/>
	</g>
	<path class="st0" d="M-149.5,350.5h-19c-0.6,0-1,0.4-1,1v16c0,0.6,0.4,1,1,1h19c0.6,0,1-0.4,1-1v-16
		C-148.5,350.9-148.9,350.5-149.5,350.5z"/>
	<line class="st0" x1="-163.5" y1="356.5" x2="-154.5" y2="356.5"/>
	<line class="st0" x1="-163.5" y1="362.5" x2="-154.5" y2="362.5"/>
	<path class="st0" d="M-147.5,345.5h-23c-2.2,0-4,1.8-4,4v20c0,2.2,1.8,4,4,4h23c2.2,0,4-1.8,4-4v-20
		C-143.5,347.3-145.3,345.5-147.5,345.5z"/>
	<path class="st0" d="M-159,379.5c0,0,5,6.2,5,9s-2.2,5-5,5s-5-2.2-5-5c0-1.3,1.1-3.3,2.2-5.1"/>
</g>
<g>
	<line class="st1" x1="297" y1="368.2" x2="278" y2="368.2"/>
	<polyline class="st1" points="283,373.8 277.3,368.2 283,362.5 	"/>
	<polyline class="st1" points="292,362.5 297.7,368.2 292,373.8 	"/>
	<circle class="st3" cx="281.2" cy="385.7" r="4.8"/>
	<circle class="st3" cx="320.1" cy="385.7" r="5.1"/>
	<line class="st3" x1="315" y1="386.2" x2="290" y2="386.2"/>
	<path class="st3" d="M326,386.2c0,0-1,0,1,0s2-2,2-4s-1-3-1-3v0c0-0.7,0-1,0-2c0-2-4-5-4-5"/>
	<path class="st3" d="M304,362.2h8c4,0,12,10,12,10"/>
	<path class="st3" d="M308,372.2v-7c0,0,2,0,4,0s8,7,8,7H308"/>
	<line class="st3" x1="308" y1="377.2" x2="311" y2="377.2"/>
	<line class="st3" x1="324" y1="377.2" x2="324" y2="378.2"/>
	<line class="st3" x1="272" y1="381.2" x2="279" y2="381.2"/>
	<line class="st3" x1="288" y1="381.2" x2="303" y2="381.2"/>
	<line class="st3" x1="304" y1="362.2" x2="304" y2="381.2"/>
	<path class="st3" d="M276,386.2l-5-1v-30c0,0,23,0,30,0c1,0,3,0,10,7"/>
</g>
<g>
	<circle class="st1" cx="-164.7" cy="20" r="4.5"/>
	<circle class="st1" cx="-132.7" cy="20" r="4.5"/>
	<line class="st1" x1="-137.5" y1="20.5" x2="-156.5" y2="20.5"/>
	<path class="st1" d="M-127.5,20.5c0,0-1,0,1,0c3,0,3-5,3-7c0-1-2-5-15-5h-21c-2,0-4-6-4-6"/>
	<path class="st1" d="M-174.5,19.5c0,0,0-4,0-5c0-2,3.5-4.1,4-6c1-4,2-6,2-6s6-1,17-1c5,0,13,7,13,7"/>
	<line class="st1" x1="-169.5" y1="20.5" x2="-176.5" y2="19.5"/>
	<polyline class="st1" points="-155.5,1.5 -153.5,8.5 -153.5,17.5 	"/>
	<line class="st1" x1="-149.5" y1="12.5" x2="-147.5" y2="12.5"/>
</g>
<g>
	<circle class="st1" cx="-79.2" cy="20.5" r="4.5"/>
	<circle class="st1" cx="-40.2" cy="20.5" r="4.5"/>
	<line class="st1" x1="-45" y1="21" x2="-71" y2="21"/>
	<path class="st1" d="M-35,21c0,0-1,0,1,0c3,0,3-5,3-7c0-1-3-5-16-5h-33c-3,0-6-1-6-1"/>
	<path class="st1" d="M-84,21l-5-1c0,0,0-4,0-5c0-2,3-5,3-7s3-6,3-6s11-1,22-1c6,0,15.3,8,15.3,8"/>
	<polyline class="st1" points="-69,2 -67,9 -67,18 	"/>
	<line class="st1" x1="-63" y1="13" x2="-60" y2="13"/>
</g>
<g>
	<circle class="st3" cx="101.2" cy="112.2" r="4.8"/>
	<circle class="st3" cx="140.1" cy="112.2" r="5.1"/>
	<line class="st3" x1="135" y1="112.7" x2="110" y2="112.7"/>
	<path class="st3" d="M146,112.7c0,0-1,0,1,0s2-2,2-4s-1-3-1-3v0c0-0.7,0-1,0-2c0-2-4-5-4-5"/>
	<path class="st3" d="M96,112.7l-5-1c0,0,0-2.5,0-4c0-0.7,1-1,1-1c0-2,0-6,0-8c0-2.4,0.4-5.5,0.7-7.7c0.2-1.3,1.3-2.3,2.7-2.3H132
		c4,0,12,10,12,10"/>
	<path class="st3" d="M128,98.7v-7c0,0,2,0,4,0s8,7,8,7H128"/>
	<line class="st3" x1="128" y1="103.7" x2="131" y2="103.7"/>
	<line class="st3" x1="144" y1="103.7" x2="144" y2="104.7"/>
</g>
<g>
	<circle class="st3" cx="191.2" cy="114.7" r="4.8"/>
	<circle class="st3" cx="230.1" cy="114.7" r="5.1"/>
	<line class="st3" x1="225" y1="115.2" x2="200" y2="115.2"/>
	<path class="st3" d="M236,115.2c0,0-1,0,1,0s2-2,2-4s-1-3-1-3v0c0-0.7,0-1,0-2c0-2-4-5-4-5"/>
	<path class="st3" d="M186,115.2l-5-1c0,0,0-2.5,0-4c0-0.7,1-1,1-1c0-2,0-8,0-10c0-2.4,0.4-8.5,0.7-10.7c0.2-1.3,1.3-2.3,2.7-2.3
		c0,0,21.7,0,28.7,0c6,0,20,15,20,15"/>
	<path class="st3" d="M218,101.2v-7c0,0,2,0,4,0c1,0,8,7,8,7H218"/>
	<line class="st3" x1="218" y1="106.2" x2="221" y2="106.2"/>
	<line class="st3" x1="234" y1="106.2" x2="234" y2="107.2"/>
</g>
<g>
	<circle class="st3" cx="11.2" cy="112.2" r="4.8"/>
	<circle class="st3" cx="50.1" cy="112.2" r="5.1"/>
	<line class="st3" x1="45" y1="112.7" x2="20" y2="112.7"/>
	<path class="st3" d="M56,112.7c0,0-1,0,1,0s2-2,2-4s-1-3-1-3s0-0.9,0-2c0-2-3-4-10-5"/>
	<path class="st3" d="M6,112.7l-5-1c0,0,0-3,0-4c0-0.4,1-1,1-1c0-2,0-6,0-8c0-2.4,0.4-5.5,0.7-7.7c0.2-1.3,1.3-2.3,2.7-2.3H30
		c7,0,18,10,18,10"/>
	<path class="st3" d="M28,98.7v-7c0,0,0,0,2,0c4,0,13,7,13,7H28"/>
	<line class="st3" x1="29" y1="103.7" x2="32" y2="103.7"/>
	<line class="st3" x1="54" y1="103.7" x2="54" y2="104.7"/>
</g>
<g>
	<circle class="st3" cx="-78.8" cy="112.2" r="4.8"/>
	<circle class="st3" cx="-39.9" cy="112.2" r="5.1"/>
	<line class="st3" x1="-45" y1="112.7" x2="-70" y2="112.7"/>
	<path class="st3" d="M-34,112.7c0,0-1,0,1,0s2-2,2-4s-1-3-1-3s0-0.9,0-2c0-2-3-4-10-5"/>
	<path class="st3" d="M-84,112.7l-5-1c0,0,0-3,0-4c0-0.4,1-1,1-1c0-2,0-2,0-4c0-3,4.8-4.1,6-7c3-7,9-7,9-7h13c7,0,18,10,18,10"/>
	<path class="st3" d="M-65,98.7v-7c0,0,3,0,5,0c4,0,13,7,13,7H-65"/>
	<line class="st3" x1="-62" y1="103.7" x2="-59" y2="103.7"/>
	<line class="st3" x1="-36" y1="103.7" x2="-36" y2="104.7"/>
</g>
<g>
	<circle class="st3" cx="371.2" cy="115.7" r="4.8"/>
	<circle class="st3" cx="410.1" cy="115.7" r="5.1"/>
	<line class="st3" x1="405" y1="116.2" x2="380" y2="116.2"/>
	<path class="st3" d="M416,116.2c0,0-1,0,1,0s2-2,2-4s-1-3-1-3v0c0-0.7,0-1,0-2c0-2-4-5-4-5"/>
	<path class="st3" d="M394,92.2h8c4,0,12,10,12,10"/>
	<path class="st3" d="M398,102.2v-7c0,0,2,0,4,0s8,7,8,7H398"/>
	<line class="st3" x1="398" y1="107.2" x2="401" y2="107.2"/>
	<line class="st3" x1="414" y1="107.2" x2="414" y2="108.2"/>
	<line class="st3" x1="362" y1="111.2" x2="369" y2="111.2"/>
	<line class="st3" x1="378" y1="111.2" x2="393" y2="111.2"/>
	<line class="st3" x1="394" y1="92.2" x2="394" y2="111.2"/>
	<path class="st3" d="M366,116.2l-5-1v-30c0,0,23,0,30,0c1,0,3,0,10,7"/>
</g>
<g>
	<circle class="st3" cx="-76.8" cy="202.2" r="4.8"/>
	<circle class="st3" cx="-39.9" cy="202.2" r="5.1"/>
	<line class="st3" x1="-45" y1="202.7" x2="-68" y2="202.7"/>
	<path class="st3" d="M-34,202.7c0,0-1,0,1,0s2-2,2-4s-1-3-1-3v0c0-0.7,0-1,0-2c0-2-4-5-4-5"/>
	<path class="st3" d="M-56,178.7h8c4,0,12,10,12,10"/>
	<path class="st3" d="M-52,188.7v-7c0,0,2,0,4,0s8,7,8,7H-52"/>
	<line class="st3" x1="-52" y1="193.7" x2="-49" y2="193.7"/>
	<line class="st3" x1="-36" y1="193.7" x2="-36" y2="194.7"/>
	<line class="st3" x1="-89" y1="197.7" x2="-79" y2="197.7"/>
	<line class="st3" x1="-70" y1="197.7" x2="-56" y2="197.7"/>
	<line class="st3" x1="-56" y1="178.7" x2="-56" y2="197.7"/>
	<polyline class="st3" points="-89,197.7 -89,191.7 -56,191.7 	"/>
	<polyline class="st3" points="-82,202.7 -86,201.7 -86,197.7 	"/>
</g>
<g>
	<circle class="st3" cx="461.2" cy="112.2" r="4.8"/>
	<circle class="st3" cx="500.1" cy="112.2" r="5.1"/>
	<line class="st3" x1="495" y1="112.7" x2="470" y2="112.7"/>
	<path class="st3" d="M506,112.7c0,0-1,0,1,0s2-2,2-4s-1-3-1-3v0c0-0.7,0-1,0-2c0-2-4-5-4-5"/>
	<path class="st3" d="M456,112.7l-5-1c0,0,0-2.5,0-4c0-0.7,1-1,1-1c0-2,0-6,0-8c0-2.4,0.4-5.5,0.7-7.7c0.2-1.3,1.3-2.3,2.7-2.3H492
		c4,0,12,10,12,10"/>
	<path class="st3" d="M488,98.7v-7c0,0,2,0,4,0s8,7,8,7H488"/>
	<line class="st3" x1="488" y1="103.7" x2="491" y2="103.7"/>
	<line class="st3" x1="481" y1="103.7" x2="484" y2="103.7"/>
	<line class="st3" x1="504" y1="103.7" x2="504" y2="104.7"/>
	<rect x="473" y="91.7" class="st3" width="11" height="7"/>
	<path class="st3" d="M458,98.7c2,0,11,0,11,0v-7h-10C459,91.7,458,95.7,458,98.7z"/>
</g>
<g>
	<circle class="st3" cx="13.2" cy="206.2" r="4.8"/>
	<circle class="st3" cx="50.1" cy="206.2" r="5.1"/>
	<line class="st3" x1="45" y1="206.7" x2="22" y2="206.7"/>
	<path class="st3" d="M56,206.7c0,0-1,0,1,0s2-2,2-4s-1-3-1-3v0c0-0.7,0-1,0-2c0-2-4-5-4-5"/>
	<path class="st3" d="M34,182.7h8c4,0,12,10,12,10"/>
	<path class="st3" d="M38,192.7v-7c0,0,2,0,4,0s8,7,8,7H38"/>
	<line class="st3" x1="38" y1="197.7" x2="41" y2="197.7"/>
	<line class="st3" x1="54" y1="197.7" x2="54" y2="198.7"/>
	<line class="st3" x1="1" y1="201.7" x2="11" y2="201.7"/>
	<line class="st3" x1="20" y1="201.7" x2="34" y2="201.7"/>
	<line class="st3" x1="34" y1="182.7" x2="34" y2="201.7"/>
	<polyline class="st3" points="1,201.7 1,188.7 28,188.7 28,174.7 51,174.7 51,182.7 	"/>
	<polyline class="st3" points="8,206.7 4,205.7 4,201.7 	"/>
	<line class="st3" x1="51" y1="182.7" x2="41" y2="182.7"/>
</g>
<g>
	<g>
		<circle class="st3" cx="-168.8" cy="201.2" r="4.8"/>
		<circle class="st3" cx="-130.9" cy="201.2" r="5.1"/>
		<line class="st3" x1="-136" y1="201.7" x2="-160" y2="201.7"/>
		<path class="st3" d="M-152,179.7c0,0,7.8-0.1,9.3,0.1c2.6,0.3,8.7,7.9,8.7,7.9"/>
		<path class="st3" d="M-174,201.7l-5-1c0,0,0-4,0-5c0-2,1-6,1-8h40c6.4,0,15,2,15,4c0,1.1,0,4,0,4s2,1,2,3s0,3-3,3c-2,0-1,0-1,0"/>
		<polyline class="st3" points="-152,179.7 -152,185.4 -152,201.7 		"/>
		<line class="st3" x1="-148" y1="192.7" x2="-145" y2="192.7"/>
		<line class="st3" x1="-148" y1="179.7" x2="-148" y2="186.7"/>
		<line class="st3" x1="-179" y1="197.7" x2="-173" y2="197.7"/>
		<line class="st3" x1="-161" y1="197.7" x2="-152" y2="197.7"/>
	</g>
	<line class="st3" x1="-126" y1="192.7" x2="-126" y2="193.7"/>
</g>
<g>
	<circle class="st3" cx="283.5" cy="113" r="4.1"/>
	<circle class="st3" cx="320.4" cy="113" r="4.4"/>
	<line class="st3" x1="316.1" y1="113.4" x2="292" y2="113.4"/>
	<path class="st3" d="M325.4,113.4c0,0,0.1,0,1.9,0c1.7,0,1.7-1.7,1.7-3.4s-0.9-2.6-0.9-2.6v0c0-0.6,0-0.9,0-1.7
		c0-1.7-3.4-4.3-3.4-4.3"/>
	<path class="st3" d="M279.1,113.4l-8.1-0.9c0,0,0-2.1,0-3.4c0-0.6,0.9-0.9,0.9-0.9c0-1.7,0-6.8,0-8.5c0-2.1,0.3-7.3,0.6-9.1
		c0.2-1.1,1.1-2,2.3-2c0,0,27.1,0,33,0c5.1,0,17,12.8,17,12.8"/>
	<path class="st3" d="M310.1,101.4v-6c0,0,1.7,0,3.4,0c0.9,0,6.8,6,6.8,6H310.1"/>
	<line class="st3" x1="310.1" y1="105.7" x2="312.7" y2="105.7"/>
	<line class="st3" x1="324.7" y1="105.7" x2="324.7" y2="106.6"/>
</g>
<g>
	<circle class="st3" cx="-168.8" cy="112.2" r="4.8"/>
	<circle class="st3" cx="-129.9" cy="112.2" r="5.1"/>
	<line class="st3" x1="-135" y1="112.7" x2="-160" y2="112.7"/>
	<path class="st3" d="M-124,112.7c0,0-1,0,1,0s2-2,2-4s-1-3-1-3v0c0-0.7,0-1,0-2c0-2-4-5-4-5"/>
	<path class="st3" d="M-174,112.7l-5-1c0,0,0-2.5,0-4c0-0.7,1-1,1-1c0-2,0-6,0-8c0-2.4,0.4-5.5,0.7-7.7c0.2-1.3,1.3-2.3,2.7-2.3
		h36.7c4,0,12,10,12,10"/>
	<path class="st3" d="M-142,98.7v-7c0,0,2,0,4,0s8,7,8,7H-142"/>
	<line class="st3" x1="-142" y1="103.7" x2="-139" y2="103.7"/>
	<line class="st3" x1="-156" y1="103.7" x2="-153" y2="103.7"/>
	<line class="st3" x1="-126" y1="103.7" x2="-126" y2="104.7"/>
	<rect x="-156" y="91.7" class="st3" width="10" height="7"/>
</g>
<g>
	
		<ellipse transform="matrix(0.7844 -0.6202 0.6202 0.7844 -136.0897 368.4807)" class="st1" cx="462" cy="380" rx="10.5" ry="10.5"/>
	<ellipse transform="matrix(0.7844 -0.6202 0.6202 0.7844 -136.0897 368.4807)" class="st1" cx="462" cy="380" rx="2.5" ry="2.5"/>
	<circle class="st0" cx="493" cy="360" r="2.5"/>
	<circle class="st0" cx="493" cy="352.5" r="0"/>
	<ellipse transform="matrix(0.7071 -0.7071 0.7071 0.7071 -107.9639 448.7385)" class="st0" cx="487.7" cy="354.7" rx="0" ry="0"/>
	<circle class="st0" cx="485.5" cy="360" r="0"/>
	<ellipse transform="matrix(0.7071 -0.7071 0.7071 0.7071 -115.4689 451.8472)" class="st0" cx="487.7" cy="365.3" rx="0" ry="0"/>
	<circle class="st0" cx="493" cy="367.5" r="0"/>
	<ellipse transform="matrix(0.7071 -0.7071 0.7071 0.7071 -112.3602 459.3522)" class="st0" cx="498.3" cy="365.3" rx="0" ry="0"/>
	<circle class="st0" cx="500.5" cy="360" r="0"/>
	<ellipse transform="matrix(0.7071 -0.7071 0.7071 0.7071 -104.8552 456.2435)" class="st0" cx="498.3" cy="354.7" rx="0" ry="0"/>
	<circle class="st0" cx="493" cy="360" r="11.5"/>
	<path class="st1" d="M467.9,382.7c-0.4,0.9-1,1.7-1.9,2.4"/>
	<path class="st1" d="M456.9,384c-2.2-2.8-1.7-6.9,1.1-9.1s6.9-1.7,9.1,1.1c0.8,1,1.2,2.1,1.4,3.3"/>
	<circle class="st0" cx="502.5" cy="395.5" r="6"/>
	<line class="st0" x1="481.5" y1="349.5" x2="454.5" y2="372.5"/>
	<line class="st0" x1="508.5" y1="359.5" x2="508.5" y2="395.5"/>
	<line class="st0" x1="460.5" y1="390.5" x2="501.5" y2="401.5"/>
	<line class="st0" x1="502.5" y1="395.5" x2="502.5" y2="395.5"/>
	<circle class="st0" cx="493" cy="360" r="15.5"/>
	<path class="st0" d="M460.3,390.4c-5-0.8-8.8-5.2-8.8-10.4c0-3,1.3-5.7,3.3-7.6"/>
</g>
<g>
	<polygon class="st0" points="-124.5,484.5 -121.5,484.5 -121.5,454.5 -124.5,454.5 -128.5,465.5 -128.5,478.5 	"/>
	<rect x="-174.5" y="459.5" class="st0" width="5" height="18"/>
	<line class="st0" x1="-178.5" y1="474.5" x2="-178.5" y2="462.5"/>
	<line class="st0" x1="-178.5" y1="468.5" x2="-175.5" y2="468.5"/>
	<line class="st0" x1="-128.5" y1="478.5" x2="-133.5" y2="478.5"/>
	<line class="st0" x1="-128.5" y1="465.5" x2="-133.5" y2="465.5"/>
	<polygon class="st0" points="-169.5,453.5 -169.5,477.5 -164.5,484.5 -137.5,484.5 -133.5,478.5 -133.5,465.5 -136.5,459.5 
		-140.5,459.5 -140.5,453.5 	"/>
	<polyline class="st0" points="-151.5,448.5 -144.5,448.5 -144.5,441.5 -164.5,441.5 -164.5,448.5 -157.5,448.5 	"/>
	<line class="st0" x1="-159.5" y1="448.5" x2="-159.5" y2="453.5"/>
	<line class="st0" x1="-149.5" y1="448.5" x2="-149.5" y2="453.5"/>
	<line class="st0" x1="-140.5" y1="459.5" x2="-140.5" y2="465.5"/>
	<line class="st0" x1="-140.5" y1="469.5" x2="-140.5" y2="472.5"/>
	<polyline class="st1" points="-157.5,459.5 -150.5,459.5 -153.5,466.5 -147.5,466.5 -156.5,479.5 -154.5,469.5 -161.5,469.5 
		-158.7,462.5 	"/>
</g>
<g>
	<circle class="st0" cx="390" cy="373" r="28.5"/>
	<circle class="st0" cx="390" cy="373" r="22.5"/>
	<path class="st0" d="M394.5,391c-1.4,0.4-2.9,0.5-4.5,0.5c-1.5,0-3.1-0.2-4.5-0.5"/>
	<path class="st0" d="M406.7,365c1.2,2.4,1.8,5.1,1.8,8c0,0.9-0.1,1.7-0.2,2.6"/>
	<path class="st0" d="M412.3,375.7c-0.8-0.1-1.5-0.2-2.3-0.2c-8.6,0-15.5,6.9-15.5,15.5c0,1.4,0.2,2.7,0.5,3.9"/>
	<path class="st0" d="M385,394.9c0.3-1.3,0.5-2.6,0.5-3.9c0-8.6-6.9-15.5-15.5-15.5c-0.8,0-1.6,0.1-2.3,0.2"/>
	<path class="st0" d="M368.3,366.9c6.3-2.8,13.7-4.4,21.7-4.4s15.4,1.6,21.7,4.4"/>
	<circle class="st1" cx="390" cy="373" r="4.5"/>
	<path class="st0" d="M371.7,375.5c-0.1-0.8-0.2-1.6-0.2-2.5c0-2.9,0.6-5.6,1.8-8"/>
</g>
<g>
	<g>
		<circle class="st3" cx="-79.2" cy="482" r="4.5"/>
		<circle class="st3" cx="-40.2" cy="482" r="4.5"/>
		<line class="st3" x1="-45" y1="482.5" x2="-71" y2="482.5"/>
		<path class="st3" d="M-35,482.5c0,0-1,0,1,0c3,0,3-5,3-7c0-1-3-5-16-5h-33c-3,0-7-1-7-1"/>
		<path class="st3" d="M-84,482.5l-5-1c0,0,0-4,0-5c0-2,2-5,2-7s4-7,4-7s12,0,23,0c6,0,14.3,8,14.3,8"/>
		<polyline class="st3" points="-63,463.5 -61,470.5 -61,479.5 		"/>
		<line class="st3" x1="-57" y1="474.5" x2="-55" y2="474.5"/>
		<line class="st3" x1="-71.5" y1="474.5" x2="-69.5" y2="474.5"/>
		<line class="st3" x1="-75" y1="463.5" x2="-76" y2="470.5"/>
		<line class="st3" x1="-76" y1="470.5" x2="-76" y2="474.5"/>
	</g>
	<circle class="st1" cx="-81.3" cy="452.7" r="4.8"/>
	<circle class="st1" cx="-62.3" cy="452.7" r="4.8"/>
	<line class="st1" x1="-81.3" y1="452.7" x2="-73" y2="452.7"/>
	<line class="st1" x1="-75.4" y1="445.6" x2="-81.3" y2="452.7"/>
	<line class="st1" x1="-73" y1="452.7" x2="-76.6" y2="442"/>
	<line class="st1" x1="-62.3" y1="452.7" x2="-65.8" y2="440.8"/>
	<line class="st1" x1="-73" y1="452.7" x2="-65.8" y2="444.4"/>
	<line class="st1" x1="-75.4" y1="445.6" x2="-65.8" y2="444.4"/>
	<line class="st1" x1="-80.1" y1="440.8" x2="-74.2" y2="442"/>
	<line class="st1" x1="-65.8" y1="440.8" x2="-63.5" y2="439.5"/>
	<line class="st3" x1="-62" y1="460.5" x2="-62" y2="462.5"/>
	<line class="st3" x1="-81" y1="460.5" x2="-81" y2="462.5"/>
</g>
<g>
	<path class="st0" d="M12.5,483.5v5c0,1.1-0.9,2-2,2h-4c-1.1,0-2-0.9-2-2v-5"/>
	<line class="st0" x1="9.5" y1="483.5" x2="27.9" y2="483.5"/>
	<path class="st0" d="M4.5,483.5c-1.7,0-3-1.3-3-3V472c0-1.9,0.2-3.9,0.6-5.8l5.3-25.5c0.6-3.1,3.4-5.3,6.5-5.3h15.6"/>
	<path class="st0" d="M56,461.9l-4.4-21.1c-0.6-3.1-3.4-5.3-6.5-5.3H29.5"/>
	<line class="st0" x1="1.5" y1="455.5" x2="3.5" y2="455.5"/>
	<line class="st0" x1="55.5" y1="455.5" x2="57.5" y2="455.5"/>
	<path class="st0" d="M27.5,469.5c-3,0-8-1-8-1l1.2,4.3c0.5,1.6,1.9,2.7,3.6,2.7h2.2"/>
	<circle class="st0" cx="21" cy="452" r="2.5"/>
	<path class="st0" d="M35,458.5c0-2.2,1.8-4,4-4s4,1.8,4,4"/>
	<path class="st0" d="M17,458.5c0-2.2,1.8-4,4-4s4,1.8,4,4"/>
	<circle class="st0" cx="39" cy="452" r="2.5"/>
	<circle class="st1" cx="44.5" cy="476.5" r="14"/>
	<g>
		<line class="st1" x1="44.5" y1="480.5" x2="44.5" y2="477.5"/>
		<line class="st1" x1="44.5" y1="484.5" x2="44.5" y2="484.5"/>
		<path class="st1" d="M44.5,469.5c2.2,0,4,1.8,4,4s-1.8,4-4,4"/>
		<path class="st1" d="M41.3,471.1c0.7-0.9,1.9-1.6,3.2-1.6"/>
	</g>
	<path class="st0" d="M2.5,464.5c0,0,2,2,10,3v1.7c0,1.3-1,2.3-2.3,2.3H2.5"/>
	<path class="st0" d="M49.5,458.5h-40l2.4-12c0.3-1.7,1.9-3,3.6-3h28c1.8,0,3.3,1.2,3.6,3L49.5,458.5z"/>
	<line class="st0" x1="26.5" y1="479.5" x2="5.5" y2="479.5"/>
	<line class="st0" x1="27.5" y1="446.5" x2="32.5" y2="446.5"/>
</g>
<g>
	<path class="st0" d="M-75.5,569v5c0,1.1-0.9,2-2,2h-6c-1.1,0-2-0.9-2-2v-5"/>
	<path class="st0" d="M-32.2,551c-0.4-1-0.9-1.9-1.6-2.8l-2.7-3.2"/>
	<line class="st0" x1="-79.5" y1="569" x2="-59.1" y2="569"/>
	<path class="st0" d="M-83.5,545l-2.7,3.2c-1.5,1.8-2.3,4.1-2.3,6.4V566c0,1.7,1.3,3,3,3"/>
	<path class="st0" d="M-36.5,545l-4.7-12.3c-1.1-2.8-3.6-4.8-6.5-5.2c-2.3-0.3-7.6-0.6-12.3-0.6s-10,0.2-12.3,0.6
		c-3,0.4-5.5,2.4-6.5,5.2l-4.7,12.3"/>
	<path class="st0" d="M-41.1,545l-3.6-9.5c-0.8-2.2-2.8-3.7-5.1-4c-1.8-0.2-6.5-0.4-10.2-0.4s-8.4,0.2-10.2,0.4
		c-2.3,0.3-4.2,1.8-5.1,4l-3.6,9.5H-41.1z"/>
	<circle class="st0" cx="-79.5" cy="554.5" r="3"/>
	<line class="st0" x1="-36.5" y1="545" x2="-31.5" y2="545"/>
	<line class="st0" x1="-88.5" y1="545" x2="-83.5" y2="545"/>
	<polyline class="st0" points="-59.5,558 -70.5,558 -70.5,564 -59.5,564 	"/>
	<circle class="st0" cx="-67" cy="537.5" r="2.5"/>
	<path class="st0" d="M-57,544c0-2.2,1.8-4,4-4s4,1.8,4,4"/>
	<path class="st0" d="M-71,544c0-2.2,1.8-4,4-4s4,1.8,4,4"/>
	<circle class="st0" cx="-53" cy="537.5" r="2.5"/>
	<g>
		<g>
			<g>
				<path class="st1" d="M-55.5,556.1v7.6c0,3.5,1.2,6.8,3.5,9.8c2.3,2.9,5.1,4.8,8.5,5.6c3.4-0.8,6.2-2.7,8.5-5.6
					c2.3-2.9,3.5-6.2,3.5-9.8v-7.6l-12-5.1L-55.5,556.1z"/>
			</g>
		</g>
	</g>
	<line class="st1" x1="-45.5" y1="571" x2="-41.5" y2="571"/>
	<polyline class="st1" points="-43.5,571 -43.5,563 -45.5,563 	"/>
	<line class="st1" x1="-43.5" y1="559" x2="-43.5" y2="559"/>
</g>
<g>
	<path class="st1" d="M408.8,453.3L394.6,439c-1.8-1.8-4.7-1.8-6.5,0c0,0,0,0,0,0l-25.2,25.2c-1.8,1.8-1.8,4.7,0,6.5c0,0,0,0,0,0
		l7.7,7.7"/>
	<path class="st0" d="M377.4,457.2h38.1c1.6,0,2.9,1.3,2.9,2.9v25.2c0,1.6-1.3,2.9-2.9,2.9h-38.1c-1.6,0-2.9-1.3-2.9-2.9v-25.2
		C374.5,458.5,375.8,457.2,377.4,457.2z"/>
	<line class="st0" x1="374.5" y1="463.8" x2="418.5" y2="463.8"/>
	<line class="st0" x1="374.5" y1="470.1" x2="418.5" y2="470.1"/>
	<line class="st0" x1="380.9" y1="476.5" x2="389.5" y2="476.5"/>
	<line class="st0" x1="380.9" y1="482.8" x2="386.3" y2="482.8"/>
	<line class="st0" x1="393.8" y1="476.5" x2="399.2" y2="476.5"/>
	<line class="st1" x1="396.5" y1="441.1" x2="384" y2="453.6"/>
	<line class="st1" x1="371" y1="466.6" x2="365.5" y2="472.1"/>
	<line class="st1" x1="400.5" y1="445.1" x2="392" y2="453.6"/>
	<line class="st1" x1="370.5" y1="475.1" x2="369" y2="476.6"/>
</g>
<g>
	<path class="st0" d="M14.1,524.6c-1.1,0-2.2,0.2-3.3,0.4l5.8,5.8l-0.1,8.7l-8.7,0.1L2,533.9c-0.3,1-0.4,2.1-0.4,3.3
		c0,6.9,5.6,12.5,12.5,12.5s12.5-5.6,12.5-12.5S21,524.6,14.1,524.6z"/>
	<g>
		<path class="st0" d="M25.6,542.6l31.5,31.5c1.7,1.7,1.7,4.3,0,6h0c-1.7,1.7-4.3,1.7-6,0l-31.5-31.5"/>
	</g>
	<line class="st0" x1="53.7" y1="576.6" x2="53.7" y2="576.6"/>
	<path class="st1" d="M30.2,541.6c6.4,0,11.5,5.1,11.5,11.5"/>
	<path class="st1" d="M30.2,564.6c-6.4,0-11.5-5.1-11.5-11.5"/>
	<path class="st1" d="M49.1,561c0.5-1.2,0.9-2.5,1.2-3.8l4.4-0.8v-6.5l-4.4-0.8c-0.5-2.6-1.6-5.1-3-7.2l2.6-3.7l-4.6-4.6l-3.7,2.6
		c-2.2-1.4-4.6-2.5-7.2-3l-0.8-4.4h-5.5"/>
	<path class="st1" d="M5.7,550.8v5.5l4.4,0.8c0.5,2.6,1.6,5.1,3,7.2l-2.6,3.7l4.6,4.6l3.7-2.6c2.2,1.4,4.6,2.5,7.2,3l0.8,4.4h6.5
		l0.8-4.4c1.2-0.2,2.4-0.6,3.5-1.1"/>
</g>
<g>
	<g>
		<circle class="st3" cx="477.1" cy="478" r="6"/>
		<path class="st3" d="M477.1,475.5c1.4,0,2.5,1.1,2.5,2.5c0,1.4-1.1,2.5-2.5,2.5c-1.4,0-2.5-1.1-2.5-2.5"/>
		<line class="st3" x1="470.7" y1="478.6" x2="451.6" y2="478.6"/>
		<path class="st3" d="M484.2,478.6c0,0-1.3,0,1.3,0c4,0,4-6.7,4-9.4c0-1.3-2.7-6.7-20.2-6.7h-17.7"/>
		<path class="st3" d="M451.4,451.6c6.7,0,15.6,10.8,15.6,10.8"/>
		<line class="st3" x1="451.8" y1="467.8" x2="455.8" y2="467.8"/>
	</g>
	<line class="st3" x1="451.6" y1="475" x2="471.6" y2="475"/>
	<line class="st3" x1="482.6" y1="475" x2="488.6" y2="475"/>
	<path class="st3" d="M486.6,466h-3.5c-0.8,0-1.5,0.7-1.5,1.5l0,0c0,0.8,0.7,1.5,1.5,1.5h6.5"/>
	<path class="st3" d="M486.6,448c-1.1-0.7-7.2-1.3-16.4,13.7"/>
	<line class="st3" x1="461.6" y1="457" x2="459.6" y2="462"/>
	<circle class="st1" cx="506.1" cy="444.5" r="2.5"/>
	<path class="st1" d="M495.2,461.6c1,2,3,3.4,5.4,3.4c3.3,0,6-2.7,6-6c0-3.3-2.7-6-6-6c-2.6,0-4.9,1.7-5.7,4"/>
	<path class="st1" d="M501.6,453.1C501.6,453,501.6,453,501.6,453.1c0-3.4-2.7-6.1-6-6.1s-6,2.7-6,6c0,1.4,0.5,2.7,1.3,3.7
		c-1.3,0.5-2.3,1.8-2.3,3.3c0,1.9,1.6,3.5,3.5,3.5c1.4,0,2.5-0.8,3.1-1.9c1,2,3,3.4,5.4,3.4c3.3,0,6-2.7,6-6
		C506.6,456,504.4,453.6,501.6,453.1z"/>
</g>
<g>
	<path class="st0" d="M206.7,444.5c0-1.8,1.5-3.2,3.2-3.2c1.8,0,3.2,1.5,3.2,3.2"/>
	<path class="st0" d="M213.2,459.9c0-1.8,1.5-3.2,3.2-3.2s3.2,1.5,3.2,3.2"/>
	<path class="st0" d="M201.5,464.3c0-2.9,2.3-5.2,5.2-5.2"/>
	<path class="st0" d="M219.6,461.3c0-1.8,1.5-3.2,3.2-3.2s3.2,1.5,3.2,3.2"/>
	<path class="st0" d="M226.1,463.9c0-1.8,1.5-3.2,3.2-3.2s3.2,1.5,3.2,3.2"/>
	<line class="st0" x1="206.7" y1="444.5" x2="206.7" y2="468.4"/>
	<line class="st0" x1="213.2" y1="444.5" x2="213.2" y2="463.3"/>
	<line class="st0" x1="219.6" y1="459.9" x2="219.6" y2="463.3"/>
	<line class="st0" x1="226.1" y1="461.3" x2="226.1" y2="465.2"/>
	<path class="st0" d="M201.5,472.9c0,8.6,7,15.6,15.6,15.6s15.6-7,15.6-15.6"/>
	<path class="st0" d="M232.6,468.9c0,2.8,0,3.7,0,3.7S232.6,471.7,232.6,468.9c0-2.8,0-5,0-5S232.6,466.1,232.6,468.9z"/>
	<line class="st0" x1="201.5" y1="464.3" x2="201.5" y2="473.1"/>
	<circle class="st1" cx="189" cy="445" r="7.5"/>
	<circle class="st1" cx="231" cy="445" r="7.5"/>
	<path class="st1" d="M203.1,447.9c-0.4-0.9-0.6-1.9-0.6-2.9c0-1,0.2-2,0.6-2.9c0.4-0.9,0.9-1.7,1.6-2.4s1.5-1.2,2.4-1.6
		c0.9-0.4,1.9-0.6,2.9-0.6s2,0.2,2.9,0.6c0.9,0.4,1.7,0.9,2.4,1.6s1.2,1.5,1.6,2.4c0.4,0.9,0.6,1.9,0.6,2.9c0,1-0.2,2-0.6,2.9"/>
</g>
<g>
	<polyline class="st0" points="294.5,469.2 294.5,491.2 275.5,478.2 275.5,470.2 	"/>
	<polygon class="st0" points="290.5,480.2 271.5,467.2 275.5,456.2 294.5,469.2 	"/>
	<polyline class="st0" points="324.5,469.2 324.5,478.2 294.5,491.2 294.5,469.2 	"/>
	<polygon class="st0" points="328.5,467.2 298.5,480.2 294.5,469.2 324.5,456.2 	"/>
	<path class="st1" d="M294.6,464.2c0.8-7.9,6-16.2,12.4-19.3c6.7-3.2,12.1,0.6,12.5,8.4"/>
	<path class="st1" d="M301.3,461.2c0.6-3.4,2.9-6.8,5.7-8.1c2.9-1.4,5.3,0.1,5.7,3.2"/>
	<line class="st1" x1="301.9" y1="436.1" x2="314.5" y2="444.1"/>
	<g>
		<polyline class="st1" points="295.3,435.5 297,438.4 300.3,438.7 302,441.6 305.4,441.9 307.1,444.8 		"/>
	</g>
	<g>
		<polyline class="st1" points="283.3,449.5 285,452.4 288.3,452.7 290,455.6 293.4,455.9 295.1,458.8 		"/>
	</g>
	<g>
		<polyline class="st1" points="287.3,440.5 289,443.4 292.3,443.7 294,446.6 297.4,446.9 299.1,449.8 		"/>
	</g>
	<path class="st1" d="M281,455c0.7-7.8,5.9-16,12.2-19c3.4-1.6,6.4-1.4,8.7,0.2"/>
</g>
<g>
	<path class="st0" d="M144.5,531.9h-34"/>
	<path class="st0" d="M110.9,531.9H95.5c-2.2,0-4,1.8-4,4v43.9h57v-43.9c0-2.2-1.8-4-4-4l0,0"/>
	<line class="st0" x1="91.5" y1="574.2" x2="148.5" y2="574.2"/>
	<path class="st0" d="M99.5,531.9c0-3.1,2.6-5.7,5.7-5.7s5.7,2.6,5.7,5.7c0,3.1-2.6,5.7-5.7,5.7"/>
	<path class="st0" d="M129.1,531.9c0-3.1,2.6-5.7,5.7-5.7c3.1,0,5.7,2.6,5.7,5.7c0,3.1-2.6,5.7-5.7,5.7"/>
	<circle class="st1" cx="120" cy="547.4" r="2.3"/>
	<circle class="st1" cx="129.1" cy="547.4" r="2.3"/>
	<circle class="st1" cx="138.2" cy="547.4" r="2.3"/>
	<circle class="st1" cx="120" cy="556.6" r="2.3"/>
	<circle class="st1" cx="129.1" cy="556.6" r="2.3"/>
	<circle class="st1" cx="138.2" cy="556.6" r="2.3"/>
	<circle class="st1" cx="101.8" cy="556.6" r="2.3"/>
	<circle class="st1" cx="110.9" cy="556.6" r="2.3"/>
	<circle class="st1" cx="120" cy="565.7" r="2.3"/>
	<circle class="st1" cx="129.1" cy="565.7" r="2.3"/>
	<circle class="st1" cx="101.8" cy="565.7" r="2.3"/>
	<circle class="st1" cx="110.9" cy="565.7" r="2.3"/>
	<line class="st1" x1="136.5" y1="563.5" x2="140.5" y2="567.5"/>
	<line class="st1" x1="140.5" y1="563.5" x2="136.5" y2="567.5"/>
</g>
<g>
	<path class="st0" d="M117.4,460.8c1.1-0.5,1.9-1.5,2.1-2.7c1.4-6.3,1.6-12.8,0.8-19.2c-0.2-1.8-1.5-3.2-3.2-3.5
		c-7.4-1.5-15-1.5-22.4,0c-1.7,0.3-2.9,1.7-3.2,3.4c-1.1,6.5-0.8,13.1,0.9,19.5c0.3,1.1,1,2,2.1,2.5c0,0,4.4,2.2,11.3,2.2
		S117.4,460.8,117.4,460.8z"/>
	<path class="st0" d="M100.9,463l-0.1,23.7l5,5l5.2-5l0-23.7"/>
	<circle class="st0" cx="105.9" cy="444.1" r="3"/>
	<line class="st0" x1="104.9" y1="484.1" x2="104.9" y2="463.1"/>
	<path class="st1" d="M124.2,443.2l17,17c1.6,1.6,1.6,4.1,0,5.7L131.1,476c-1.5,1.5-4,1.6-5.5,0.1l-10-10.2"/>
	<path class="st1" d="M143.4,458c2.8,2.8,2.8,7.3,0,10.1"/>
	<path class="st1" d="M145.9,455.5c4.2,4.2,4.2,10.9,0,15.1"/>
	
		<rect x="127.3" y="463.1" transform="matrix(0.7071 -0.7071 0.7071 0.7071 -290.4922 228.6632)" class="st1" width="6.9" height="3.8"/>
	<path class="st1" d="M125.5,463.3c-1-1-1-2.6,0-3.5s2.6-1,3.5,0"/>
	<line class="st1" x1="125.5" y1="463.3" x2="127" y2="464.7"/>
	<line class="st1" x1="128.7" y1="448.7" x2="124.7" y2="452.7"/>
</g>
<g>
	<line class="st0" x1="-178" y1="557" x2="-172" y2="557"/>
	<line class="st0" x1="-174.6" y1="570.8" x2="-172.8" y2="569.8"/>
	<line class="st0" x1="-126.9" y1="571.7" x2="-128.7" y2="570.7"/>
	<line class="st0" x1="-123" y1="558" x2="-129" y2="558"/>
	<line class="st0" x1="-126.4" y1="544.2" x2="-128.2" y2="545.2"/>
	<line class="st0" x1="-150" y1="530" x2="-150" y2="536"/>
	<line class="st0" x1="-163.8" y1="533.4" x2="-162.8" y2="535.2"/>
	<line class="st0" x1="-174.1" y1="543.3" x2="-172.3" y2="544.3"/>
	<path class="st1" d="M-138.1,537L-138.1,537c-0.6-0.4-1.4-0.2-1.8,0.3l-13.9,16.7c-2,2.4-1.3,6,1.5,7.6l0,0
		c2.8,1.6,6.3,0.4,7.4-2.5l7.5-20.4C-137.2,538-137.5,537.3-138.1,537z"/>
	<g>
		<path class="st0" d="M-122,557c0-15.5-12.5-28-28-28s-28,12.5-28,28c0,7.8,3.2,14.9,8.4,20h39.2C-125.2,571.9-122,564.8-122,557z"
			/>
	</g>
	<line class="st0" x1="-160" y1="568" x2="-160" y2="571"/>
	<line class="st0" x1="-155" y1="568" x2="-155" y2="571"/>
	<line class="st0" x1="-150" y1="568" x2="-150" y2="571"/>
	<line class="st0" x1="-145" y1="568" x2="-145" y2="571"/>
	<line class="st0" x1="-140" y1="570" x2="-140" y2="571"/>
</g>
</svg>
