<?xml version="1.0" encoding="utf-8"?>
<!-- Generator: Adobe Illustrator 21.1.0, SVG Export Plug-In . SVG Version: 6.00 Build 0)  -->
<svg version="1.1" id="Layer_1" xmlns="http://www.w3.org/2000/svg" xmlns:xlink="http://www.w3.org/1999/xlink" x="0px" y="0px"
	 viewBox="0 0 60 60" style="enable-background:new 0 0 60 60;" xml:space="preserve">
<style type="text/css">
	.st0{fill:none;stroke:#000000;stroke-width:2;stroke-linecap:round;stroke-linejoin:round;stroke-miterlimit:10;}
	.st1{fill:none;stroke:#BA0C2F;stroke-width:2;stroke-linecap:round;stroke-linejoin:round;stroke-miterlimit:10;}
	.st2{fill:#BA0C2F;}
	.st3{fill:none;stroke:#000000;stroke-width:2;stroke-linecap:round;stroke-linejoin:round;}
</style>
<g>
	<path class="st0" d="M8-66.6c0-12.2,9.8-22,22-22s22,9.8,22,22"/>
	<path class="st0" d="M52.3-49.6c0,8.8-7.2,16-16,16"/>
	<rect x="49.5" y="-66.1" class="st0" width="5" height="15.5"/>
	<rect x="5.5" y="-66.1" class="st0" width="5" height="15.5"/>
	<path class="st0" d="M33.3-31.4h-6.5c-1.2,0-2.2-1-2.2-2.2v0c0-1.2,1-2.2,2.2-2.2h6.5c1.2,0,2.2,1,2.2,2.2v0
		C35.5-32.4,34.5-31.4,33.3-31.4z"/>
	<path class="st1" d="M21.3-50.6c0,4.8,3.9,8.8,8.8,8.8s8.7-3.9,8.7-8.8H21.3z"/>
	<path class="st0" d="M54.5-54.4c2.2,0,4-1.8,4-4s-1.8-4-4-4V-54.4z"/>
	<path class="st0" d="M5.5-62.4c-2.2,0-4,1.8-4,4s1.8,4,4,4V-62.4z"/>
	<path class="st1" d="M26.5-57.6c0-1.7-1.3-3-3-3c-1.7,0-3,1.3-3,3"/>
	<path class="st1" d="M39.5-57.6c0-1.7-1.3-3-3-3c-1.7,0-3,1.3-3,3"/>
	<path class="st1" d="M14.5-64.6c5,0,11-8,8-17c3,9,8,18,23,16"/>
</g>
<g>
	<path class="st0" d="M105.5-48.5v-38c0-1.1,0.9-2,2-2h39c1.1,0,2,0.9,2,2v46c0,5-4,9-9,9h-39c-5,0-9-4-9-9v-2c0-1.1,0.9-2,2-2h39
		c1.1,0,2,0.9,2,2v1c0,5,5,6,5,6"/>
	<line class="st1" x1="122.5" y1="-78.5" x2="141.5" y2="-78.5"/>
	<line class="st1" x1="112.5" y1="-78.5" x2="116.5" y2="-78.5"/>
	<line class="st1" x1="137.5" y1="-67.5" x2="141.5" y2="-67.5"/>
	<line class="st1" x1="112.5" y1="-67.5" x2="131.5" y2="-67.5"/>
	<line class="st1" x1="127.5" y1="-56.5" x2="141.5" y2="-56.5"/>
	<line class="st1" x1="112.5" y1="-56.5" x2="121.5" y2="-56.5"/>
	<circle class="st1" cx="119.5" cy="-78.5" r="3"/>
	<circle class="st1" cx="134.5" cy="-67.5" r="3"/>
	<circle class="st1" cx="124.5" cy="-56.5" r="3"/>
</g>
<g>
	<path class="st0" d="M314.5,16.5c-0.6-0.4-1.2-0.7-1.8-1"/>
	<path class="st0" d="M323.4,26.5c-0.7-1.8-1.7-3.5-2.9-5"/>
	<path class="st0" d="M316.5,47.2c3.2-2.3,5.6-5.3,6.9-8.7"/>
	<path class="st0" d="M287.8,50.2c3.5,1.5,7.5,2.3,11.7,2.3c4.5,0,8.8-1,12.5-2.7"/>
	<path class="st0" d="M286.3,15.5c-7.1,3.5-11.8,9.8-11.8,17c0,6.2,3.5,11.7,9,15.4"/>
	<path class="st1" d="M309,19.3c-2.8-1.3-6-2-9.5-2s-6.7,0.7-9.5,2"/>
	<polyline class="st0" points="323.5,26.5 328.5,26.5 328.5,38.5 323.5,38.5 	"/>
	<path class="st0" d="M274.5,32.5L274.5,32.5c-1.7,0-3-1.3-3-3v-4"/>
	<path class="st1" d="M293.2,18.1c-2-1.7-3.2-4.3-3.2-7.1c0-5.2,4.3-9.5,9.5-9.5S309,5.8,309,11c0,2.9-1.3,5.4-3.2,7.1"/>
	<polyline class="st0" points="283.5,47.9 283.5,58.5 290.5,58.5 291.1,51.3 	"/>
	<polyline class="st0" points="308.9,51 309.5,58.5 316.5,58.5 316.5,47.2 	"/>
	<polyline class="st0" points="314.5,16.5 321,13 320.5,21.5 	"/>
	<path class="st0" d="M313,26.1c0-1.4,1.1-2.5,2.5-2.5s2.5,1.1,2.5,2.5"/>
	<path class="st1" d="M297.5,8.5c0-1.1,0.9-2,2-2"/>
	<line class="st1" x1="297.5" y1="8.5" x2="297.5" y2="13.5"/>
	<line class="st1" x1="296.5" y1="13.5" x2="301.5" y2="13.5"/>
	<line class="st1" x1="297.5" y1="9.5" x2="299.5" y2="9.5"/>
</g>
<g>
	<path class="st1" d="M-46.5-50c0-1.1,0.9-2,2-2"/>
	<line class="st1" x1="-46.5" y1="-50" x2="-46.5" y2="-45"/>
	<line class="st1" x1="-47.5" y1="-45" x2="-42.5" y2="-45"/>
	<line class="st1" x1="-46.5" y1="-49" x2="-44.5" y2="-49"/>
	<g>
		<path class="st1" d="M-45.5-34c-3.9,0-7.4-1.6-9.9-4.1c-2.5-2.5-4.1-6-4.1-9.9s1.6-7.4,4.1-9.9"/>
		<path class="st1" d="M-45.5-62c3.9,0,7.4,1.6,9.9,4.1s4.1,6,4.1,9.9s-1.6,7.4-4.1,9.9"/>
		<polyline class="st1" points="-59.5,-59 -53.6,-59 -53.6,-53.1 		"/>
		<polyline class="st1" points="-31.5,-37 -37.4,-37 -37.4,-42.9 		"/>
	</g>
	<path class="st0" d="M-75.5-44v5c0,1.1-0.9,2-2,2h-6c-1.1,0-2-0.9-2-2v-5"/>
	<path class="st0" d="M-31.5-58.4c0-2.3-0.8-4.6-2.3-6.4l-2.7-3.2"/>
	<line class="st0" x1="-79.5" y1="-44" x2="-63.1" y2="-44"/>
	<path class="st0" d="M-83.5-68l-2.7,3.2c-1.5,1.8-2.3,4.1-2.3,6.4V-47c0,1.7,1.3,3,3,3"/>
	<path class="st0" d="M-36.5-68l-4.7-12.3c-1.1-2.8-3.6-4.8-6.5-5.2C-50-85.8-55.3-86-60-86s-10,0.2-12.3,0.6
		c-3,0.4-5.5,2.4-6.5,5.2L-83.5-68"/>
	<path class="st0" d="M-41.1-68l-3.6-9.5c-0.8-2.2-2.8-3.7-5.1-4C-51.6-81.8-56.3-82-60-82s-8.4,0.2-10.2,0.4
		c-2.3,0.3-4.2,1.8-5.1,4l-3.6,9.5H-41.1z"/>
	<circle class="st0" cx="-79.5" cy="-58.5" r="3"/>
	<line class="st0" x1="-36.5" y1="-68" x2="-31.5" y2="-68"/>
	<line class="st0" x1="-88.5" y1="-68" x2="-83.5" y2="-68"/>
	<polyline class="st0" points="-62.5,-55 -70.5,-55 -70.5,-49 -64.5,-49 	"/>
	<circle class="st0" cx="-67" cy="-75.5" r="2.5"/>
	<path class="st0" d="M-57-69c0-2.2,1.8-4,4-4s4,1.8,4,4"/>
	<path class="st0" d="M-71-69c0-2.2,1.8-4,4-4s4,1.8,4,4"/>
	<circle class="st0" cx="-53" cy="-75.5" r="2.5"/>
</g>
<g>
	<path class="st0" d="M-345.5,46v5c0,1.1-0.9,2-2,2h-6c-1.1,0-2-0.9-2-2v-5"/>
	<path class="st0" d="M-301.5,31.6c0-2.3-0.8-4.6-2.3-6.4l-2.7-3.2"/>
	<line class="st0" x1="-349.5" y1="46" x2="-333.1" y2="46"/>
	<path class="st0" d="M-353.5,22l-2.7,3.2c-1.5,1.8-2.3,4.1-2.3,6.4V43c0,1.7,1.3,3,3,3"/>
	<path class="st0" d="M-306.5,22l-4.7-12.3c-1.1-2.8-3.6-4.8-6.5-5.2C-320,4.2-325.3,4-330,4s-10,0.2-12.3,0.6
		c-3,0.4-5.5,2.4-6.5,5.2l-4.7,12.3"/>
	<path class="st0" d="M-311.1,22l-3.6-9.5c-0.8-2.2-2.8-3.7-5.1-4C-321.6,8.2-326.3,8-330,8s-8.4,0.2-10.2,0.4
		c-2.3,0.3-4.2,1.8-5.1,4l-3.6,9.5H-311.1z"/>
	<circle class="st0" cx="-349.5" cy="31.5" r="3"/>
	<line class="st0" x1="-306.5" y1="22" x2="-301.5" y2="22"/>
	<line class="st0" x1="-358.5" y1="22" x2="-353.5" y2="22"/>
	<polyline class="st0" points="-332.5,35 -340.5,35 -340.5,41 -334.5,41 	"/>
	<circle class="st0" cx="-337" cy="14.5" r="2.5"/>
	<path class="st0" d="M-327,21c0-2.2,1.8-4,4-4s4,1.8,4,4"/>
	<path class="st0" d="M-341,21c0-2.2,1.8-4,4-4s4,1.8,4,4"/>
	<circle class="st0" cx="-323" cy="14.5" r="2.5"/>
	<circle class="st1" cx="-315.5" cy="42" r="14"/>
	<g>
		<line class="st1" x1="-315.5" y1="46" x2="-315.5" y2="43"/>
		<line class="st1" x1="-315.5" y1="50" x2="-315.5" y2="50"/>
		<path class="st1" d="M-315.5,35c2.2,0,4,1.8,4,4s-1.8,4-4,4"/>
		<path class="st1" d="M-318.7,36.6c0.7-0.9,1.9-1.6,3.2-1.6"/>
	</g>
</g>
<g>
	<g>
		<path class="st1" d="M208-69.3c0-1.4,1.1-2.5,2.5-2.5"/>
		<line class="st1" x1="208" y1="-69.3" x2="208" y2="-63.1"/>
		<line class="st1" x1="206.8" y1="-63.1" x2="213" y2="-63.1"/>
		<line class="st1" x1="208" y1="-68" x2="210.5" y2="-68"/>
	</g>
	<line class="st0" x1="200.5" y1="-84.5" x2="228.5" y2="-84.5"/>
	<line class="st0" x1="192.5" y1="-84.5" x2="194.5" y2="-84.5"/>
	<path class="st0" d="M214.5-44.5v7l1,0h2c3.3,0,6,2.7,6,6v0h-27v0c0-3.3,2.7-6,6-6h2l1,0v-8l0-2.5c-8.1-2-14.1-9.4-14.1-18.1v-22.4
		h37.3v22.4c0,10.3-8.3,18.6-18.6,18.6"/>
	<line class="st0" x1="238.5" y1="-79.5" x2="229.5" y2="-79.5"/>
	<path class="st0" d="M238.5-79.5c0,0,0,5,0,7c0,4-2,10-10,11"/>
	<path class="st0" d="M191.5-61.5c-8-1-10-7-10-11c0-2,0-7,0-7h9"/>
	<path class="st1" d="M211.4-79.1l0.6,0.6c0.5,0.5,1.2,0.7,1.9,0.5l0.8-0.2c1.1-0.3,2.2,0.3,2.5,1.4l0.2,0.8
		c0.2,0.7,0.7,1.2,1.4,1.4l0.8,0.2c1.1,0.3,1.7,1.4,1.4,2.5l-0.2,0.8c-0.2,0.7,0,1.4,0.5,1.9l0.6,0.6c0.8,0.8,0.8,2.1,0,2.8
		l-0.6,0.6c-0.5,0.5-0.7,1.2-0.5,1.9l0.2,0.8c0.3,1.1-0.3,2.2-1.4,2.5l-0.8,0.2c-0.7,0.2-1.2,0.7-1.4,1.4l-0.2,0.8
		c-0.3,1.1-1.4,1.7-2.5,1.4l-0.8-0.2c-0.7-0.2-1.4,0-1.9,0.5l-0.6,0.6c-0.8,0.8-2.1,0.8-2.8,0l-0.6-0.6c-0.5-0.5-1.2-0.7-1.9-0.5
		l-0.8,0.2c-1.1,0.3-2.2-0.3-2.5-1.4l-0.2-0.8c-0.2-0.7-0.7-1.2-1.4-1.4l-0.8-0.2c-1.1-0.3-1.7-1.4-1.4-2.5l0.2-0.8
		c0.2-0.7,0-1.4-0.5-1.9l-0.6-0.6c-0.8-0.8-0.8-2.1,0-2.8l0.6-0.6c0.5-0.5,0.7-1.2,0.5-1.9l-0.2-0.8c-0.3-1.1,0.3-2.2,1.4-2.5
		l0.8-0.2c0.7-0.2,1.2-0.7,1.4-1.4l0.2-0.8c0.3-1.1,1.4-1.7,2.5-1.4l0.8,0.2c0.7,0.2,1.4,0,1.9-0.5l0.6-0.6
		C209.4-79.9,210.6-79.9,211.4-79.1z"/>
</g>
<g>
	<g>
		<path d="M-240,149.5c-13.8,0-25-11.2-25-25s11.2-25,25-25s25,11.2,25,25S-226.2,149.5-240,149.5z M-240,101.5
			c-12.7,0-23,10.3-23,23s10.3,23,23,23s23-10.3,23-23S-227.3,101.5-240,101.5z"/>
	</g>
	<g>
		<path d="M-240,106.5c-0.3,0-0.5-0.1-0.7-0.3c-0.2-0.2-0.3-0.5-0.3-0.7c0-0.3,0.1-0.5,0.3-0.7c0.4-0.4,1-0.4,1.4,0
			c0.2,0.2,0.3,0.4,0.3,0.7c0,0.3-0.1,0.5-0.3,0.7C-239.5,106.4-239.7,106.5-240,106.5z"/>
	</g>
	<g>
		<path d="M-249.5,109c-0.1,0-0.3,0-0.4-0.1c-0.1,0-0.2-0.1-0.3-0.2c-0.2-0.2-0.3-0.4-0.3-0.7c0-0.3,0.1-0.5,0.3-0.7
			c0.1-0.1,0.2-0.2,0.3-0.2c0.4-0.1,0.8-0.1,1.1,0.2c0.2,0.2,0.3,0.4,0.3,0.7c0,0.3-0.1,0.5-0.3,0.7C-249,108.9-249.2,109-249.5,109
			z"/>
	</g>
	<g>
		<path d="M-256.5,116c-0.3,0-0.5-0.1-0.7-0.3c-0.2-0.2-0.3-0.5-0.3-0.7c0-0.3,0.1-0.5,0.3-0.7c0.4-0.4,1-0.4,1.4,0
			c0.2,0.2,0.3,0.4,0.3,0.7c0,0.3-0.1,0.5-0.3,0.7C-255.9,115.9-256.2,116-256.5,116z"/>
	</g>
	<g>
		<path d="M-259,125.5c-0.3,0-0.5-0.1-0.7-0.3c-0.2-0.2-0.3-0.5-0.3-0.7c0-0.1,0-0.3,0.1-0.4c0.1-0.1,0.1-0.2,0.2-0.3
			c0.4-0.4,1-0.4,1.4,0c0.1,0.1,0.2,0.2,0.2,0.3c0.1,0.1,0.1,0.3,0.1,0.4c0,0.3-0.1,0.5-0.3,0.7C-258.5,125.4-258.7,125.5-259,125.5
			z"/>
	</g>
	<g>
		<path d="M-256.5,135c-0.1,0-0.3,0-0.4-0.1c-0.1-0.1-0.2-0.1-0.3-0.2c-0.1-0.1-0.2-0.2-0.2-0.3c0-0.1-0.1-0.3-0.1-0.4
			c0-0.1,0-0.3,0.1-0.4c0.1-0.1,0.1-0.2,0.2-0.3c0.1-0.1,0.2-0.2,0.3-0.2c0.4-0.2,0.8-0.1,1.1,0.2c0.1,0.1,0.2,0.2,0.2,0.3
			c0.1,0.1,0.1,0.3,0.1,0.4c0,0.1,0,0.3-0.1,0.4c0,0.1-0.1,0.2-0.2,0.3C-255.9,134.9-256.2,135-256.5,135z"/>
	</g>
	<g>
		<path d="M-249.5,142c-0.1,0-0.3,0-0.4-0.1c-0.1-0.1-0.2-0.1-0.3-0.2c-0.1-0.1-0.2-0.2-0.2-0.3c0-0.1-0.1-0.3-0.1-0.4
			c0-0.3,0.1-0.5,0.3-0.7c0.1-0.1,0.2-0.2,0.3-0.2c0.2-0.1,0.5-0.1,0.8,0c0.1,0,0.2,0.1,0.3,0.2c0.2,0.2,0.3,0.4,0.3,0.7
			c0,0.1,0,0.3-0.1,0.4c-0.1,0.1-0.1,0.2-0.2,0.3c-0.1,0.1-0.2,0.2-0.3,0.2C-249.2,141.9-249.4,142-249.5,142z"/>
	</g>
	<g>
		<path d="M-240,144.5c-0.3,0-0.5-0.1-0.7-0.3c-0.1-0.1-0.2-0.2-0.2-0.3c0-0.1-0.1-0.3-0.1-0.4c0-0.1,0-0.1,0-0.2
			c0-0.1,0-0.1,0.1-0.2c0-0.1,0.1-0.1,0.1-0.2c0-0.1,0.1-0.1,0.1-0.1c0.3-0.3,0.7-0.4,1.1-0.2c0.1,0.1,0.2,0.1,0.3,0.2
			c0.2,0.2,0.3,0.4,0.3,0.7c0,0.1,0,0.3-0.1,0.4c-0.1,0.1-0.1,0.2-0.2,0.3c-0.1,0.1-0.2,0.2-0.3,0.2
			C-239.7,144.5-239.9,144.5-240,144.5z"/>
	</g>
	<g>
		<path d="M-230.5,142c-0.1,0-0.3,0-0.4-0.1c-0.1-0.1-0.2-0.1-0.3-0.2c-0.1-0.1-0.2-0.2-0.2-0.3c0-0.1-0.1-0.3-0.1-0.4
			c0-0.3,0.1-0.5,0.3-0.7c0.1-0.1,0.2-0.2,0.3-0.2c0.2-0.1,0.4-0.1,0.6-0.1c0.1,0,0.1,0,0.2,0.1c0.1,0,0.1,0.1,0.2,0.1
			c0,0,0.1,0.1,0.1,0.1c0.2,0.2,0.3,0.4,0.3,0.7c0,0.1,0,0.3-0.1,0.4c-0.1,0.1-0.1,0.2-0.2,0.3C-230,141.8-230.2,142-230.5,142z"/>
	</g>
	<g>
		<path d="M-223.6,135c-0.1,0-0.3,0-0.4-0.1c-0.1-0.1-0.2-0.1-0.3-0.2c-0.1-0.1-0.2-0.2-0.2-0.3s-0.1-0.3-0.1-0.4
			c0-0.1,0-0.3,0.1-0.4c0-0.1,0.1-0.2,0.2-0.3c0.1-0.1,0.2-0.2,0.3-0.2c0.4-0.2,0.8-0.1,1.1,0.2c0.1,0.1,0.2,0.2,0.2,0.3
			c0,0.1,0.1,0.3,0.1,0.4c0,0.1,0,0.3-0.1,0.4c-0.1,0.1-0.1,0.2-0.2,0.3C-223,134.9-223.3,135-223.6,135z"/>
	</g>
	<g>
		<path d="M-221,125.5c-0.1,0-0.3,0-0.4-0.1c-0.1-0.1-0.2-0.1-0.3-0.2c-0.2-0.2-0.3-0.5-0.3-0.7c0-0.1,0-0.3,0.1-0.4
			c0.1-0.1,0.1-0.2,0.2-0.3c0.1-0.1,0.2-0.2,0.3-0.2c0.4-0.2,0.8-0.1,1.1,0.2c0.1,0.1,0.2,0.2,0.2,0.3c0.1,0.1,0.1,0.3,0.1,0.4
			c0,0.3-0.1,0.5-0.3,0.7C-220.5,125.4-220.7,125.5-221,125.5z"/>
	</g>
	<g>
		<path d="M-223.6,116c-0.3,0-0.5-0.1-0.7-0.3c-0.2-0.2-0.3-0.5-0.3-0.7c0-0.3,0.1-0.5,0.3-0.7c0.4-0.4,1-0.4,1.4,0
			c0.2,0.2,0.3,0.4,0.3,0.7c0,0.3-0.1,0.5-0.3,0.7C-223,115.9-223.3,116-223.6,116z"/>
	</g>
	<g>
		<path d="M-232,97.5h-16c-0.6,0-1-0.4-1-1v-5c0-0.6,0.4-1,1-1h16c0.6,0,1,0.4,1,1v5C-231,97.1-231.4,97.5-232,97.5z M-247,95.5h14
			v-3h-14V95.5z"/>
	</g>
	<g>
		<path d="M-244,101.5c-0.6,0-1-0.4-1-1v-4c0-0.6,0.4-1,1-1s1,0.4,1,1v4C-243,101.1-243.4,101.5-244,101.5z"/>
	</g>
	<g>
		<path d="M-236,101.5c-0.6,0-1-0.4-1-1v-4c0-0.6,0.4-1,1-1s1,0.4,1,1v4C-235,101.1-235.4,101.5-236,101.5z"/>
	</g>
	<g>
		<path d="M-217.5,108c-0.3,0-0.5-0.1-0.7-0.3l-7-7c-0.4-0.4-0.4-1,0-1.4s1-0.4,1.4,0l7,7c0.4,0.4,0.4,1,0,1.4
			C-217,107.9-217.2,108-217.5,108z"/>
	</g>
	<g>
		<path d="M-262.5,108c-0.3,0-0.5-0.1-0.7-0.3c-0.4-0.4-0.4-1,0-1.4l7-7c0.4-0.4,1-0.4,1.4,0s0.4,1,0,1.4l-7,7
			C-262,107.9-262.2,108-262.5,108z"/>
	</g>
	<g>
		<path class="st2" d="M-239.9,129.5c-0.9,0-1.8-0.2-2.6-0.7c-1.3-0.8-2.3-2.1-2.5-3.6c-0.3-1.5,0.1-3.1,1.1-4.3l11.7-14.1
			c0.7-0.8,1.8-1,2.8-0.5c0.9,0.5,1.3,1.7,0.9,2.7l-6.4,17.2c-0.5,1.4-1.7,2.6-3.1,3.1C-238.7,129.4-239.3,129.5-239.9,129.5z
			 M-230.6,108c-0.1,0-0.1,0-0.1,0.1l-11.7,14.2c-0.6,0.7-0.9,1.7-0.7,2.6s0.7,1.7,1.6,2.2c0.8,0.5,1.8,0.6,2.7,0.2
			c0.9-0.3,1.6-1,1.9-1.9l6.4-17.2C-230.4,108.2-230.4,108.1-230.6,108C-230.5,108-230.6,108-230.6,108z"/>
	</g>
</g>
<g>
	<path class="st0" d="M-165.5,46v5c0,1.1-0.9,2-2,2h-6c-1.1,0-2-0.9-2-2v-5"/>
	<path class="st0" d="M-122.2,28c-0.4-1-0.9-1.9-1.6-2.8l-2.7-3.2"/>
	<line class="st0" x1="-169.5" y1="46" x2="-149.1" y2="46"/>
	<path class="st0" d="M-173.5,22l-2.7,3.2c-1.5,1.8-2.3,4.1-2.3,6.4V43c0,1.7,1.3,3,3,3"/>
	<path class="st0" d="M-126.5,22l-4.7-12.3c-1.1-2.8-3.6-4.8-6.5-5.2C-140,4.2-145.3,4-150,4s-10,0.2-12.3,0.6
		c-3,0.4-5.5,2.4-6.5,5.2l-4.7,12.3"/>
	<path class="st0" d="M-131.1,22l-3.6-9.5c-0.8-2.2-2.8-3.7-5.1-4C-141.6,8.2-146.3,8-150,8s-8.4,0.2-10.2,0.4
		c-2.3,0.3-4.2,1.8-5.1,4l-3.6,9.5H-131.1z"/>
	<circle class="st0" cx="-169.5" cy="31.5" r="3"/>
	<line class="st0" x1="-126.5" y1="22" x2="-121.5" y2="22"/>
	<line class="st0" x1="-178.5" y1="22" x2="-173.5" y2="22"/>
	<polyline class="st0" points="-149.5,35 -160.5,35 -160.5,41 -149.5,41 	"/>
	<circle class="st0" cx="-157" cy="14.5" r="2.5"/>
	<path class="st0" d="M-147,21c0-2.2,1.8-4,4-4s4,1.8,4,4"/>
	<path class="st0" d="M-161,21c0-2.2,1.8-4,4-4s4,1.8,4,4"/>
	<circle class="st0" cx="-143" cy="14.5" r="2.5"/>
	<g>
		<g>
			<g>
				<path class="st1" d="M-144.5,33.9v7.3c0,3.4,1.1,6.6,3.3,9.4c2.2,2.8,4.9,4.6,8.2,5.4c3.2-0.8,6-2.6,8.2-5.4
					c2.2-2.8,3.3-6,3.3-9.4v-7.3L-133,29L-144.5,33.9z"/>
			</g>
		</g>
	</g>
	<polyline class="st1" points="-137.5,43 -133.5,46 -127.5,39 	"/>
</g>
<g>
	<path class="st1" d="M201.2,44.8c2.6-2.2,5.9-7.8,1.5-13.3c-5.6-7-21-10-21-10s1.1,14.1,6.6,21C192.7,48.1,198.8,46.8,201.2,44.8z"
		/>
	<path class="st0" d="M205.6,58.5c0,0,2.9-8.1,10-16c9-10,13-26,13-32"/>
	<path class="st0" d="M215.5,42c7.5,5,16.4,0.6,20.2-6.5c9-17-7-34-8-34c-3,7-13.5,14-17,21C206.6,30.5,208.6,37.5,215.5,42z"/>
	<g>
		<path class="st1" d="M187.6,27.5c17,18,19,22,19,22"/>
		<path class="st1" d="M201.2,44.8c2.6-2.2,5.9-7.8,1.5-13.3c-5.6-7-21-10-21-10s1.1,14.1,6.6,21C192.7,48.1,198.8,46.8,201.2,44.8z
			"/>
		<path class="st0" d="M205.6,58.5c0,0,2.9-8.1,10-16c9-10,13-26,13-32"/>
		<path class="st0" d="M215.5,42c7.5,5,16.4,0.6,20.2-6.5c9-17-7-34-8-34c-3,7-13.5,14-17,21C206.6,30.5,208.6,37.5,215.5,42z"/>
	</g>
</g>
<g>
	<circle class="st1" cx="6" cy="9" r="4"/>
	<path class="st1" d="M6,13v13c0,2.2,1.8,4,4,4h8"/>
	<circle class="st0" cx="22" cy="9" r="4"/>
	<circle class="st0" cx="38" cy="9" r="4"/>
	<circle class="st0" cx="54" cy="9" r="4"/>
	<circle class="st0" cx="22" cy="51" r="4"/>
	<circle class="st0" cx="38" cy="51" r="4"/>
	<circle class="st0" cx="54" cy="51" r="4"/>
	<line class="st0" x1="22" y1="13" x2="22" y2="47"/>
	<line class="st0" x1="38" y1="13" x2="38" y2="47"/>
	<line class="st0" x1="54" y1="13" x2="54" y2="47"/>
	<line class="st0" x1="54" y1="30" x2="22" y2="30"/>
</g>
<g>
	<path class="st0" d="M-32,37.8c0-15.5-12.5-28-28-28s-28,12.5-28,28"/>
	<g>
		<polyline class="st0" points="-84,50.2 -88,50.2 -88,43.5 -84,43.5 		"/>
		<line class="st0" x1="-88" y1="46.8" x2="-85" y2="46.8"/>
	</g>
	<g>
		<polyline class="st0" points="-36,49.2 -36,42.5 -32,42.5 		"/>
		<line class="st0" x1="-36" y1="45.8" x2="-33" y2="45.8"/>
	</g>
	<line class="st0" x1="-60" y1="9.8" x2="-60" y2="15.8"/>
	<path class="st1" d="M-49.1,17.8L-49.1,17.8c-0.6-0.4-1.4-0.2-1.8,0.3l-13.9,16.7c-2,2.4-1.3,6,1.5,7.6l0,0
		c2.8,1.6,6.3,0.4,7.4-2.5l7.5-20.4C-48.2,18.9-48.5,18.1-49.1,17.8z"/>
	<line class="st0" x1="-32" y1="37.8" x2="-38" y2="37.8"/>
	<line class="st0" x1="-88" y1="37.8" x2="-82" y2="37.8"/>
	<line class="st0" x1="-88" y1="37.8" x2="-86" y2="37.8"/>
	<line class="st0" x1="-84.1" y1="24.2" x2="-82.3" y2="25.2"/>
	<line class="st0" x1="-73.8" y1="14.3" x2="-72.8" y2="16"/>
	<line class="st0" x1="-36.4" y1="25" x2="-38.2" y2="26"/>
</g>
<g>
	<path class="st1" d="M126.6,18c0,3.9-2,10-7,10s-7-6.1-7-10s3.1-7,7-7C123.4,11,126.6,14.1,126.6,18z"/>
	<path class="st1" d="M105.6,49c0-9.4,5-17,14-17s14,7.6,14,17"/>
	<path class="st0" d="M143.3,21c0,2.9-1.5,7.5-5.3,7.5s-5.3-4.6-5.3-7.5s2.4-5.3,5.3-5.3C141,15.8,143.3,18.1,143.3,21z"/>
	<path class="st0" d="M132.4,33.2c1.5-1.1,3.4-1.7,5.7-1.7c6.8,0,10.5,5.7,10.5,12.8"/>
	<path class="st0" d="M96.7,21c0,2.9,1.5,7.5,5.3,7.5s5.3-4.6,5.3-7.5s-2.4-5.3-5.3-5.3S96.7,18.1,96.7,21z"/>
	<path class="st0" d="M107.6,33.2c-1.5-1.1-3.4-1.7-5.7-1.7c-6.8,0-10.5,5.7-10.5,12.8"/>
	<line class="st1" x1="112.2" y1="34.2" x2="119.3" y2="41.2"/>
	<line class="st1" x1="122.8" y1="44.8" x2="126.6" y2="49"/>
	<rect x="118.6" y="41" transform="matrix(0.7071 0.7071 -0.7071 0.7071 65.8693 -73.0226)" class="st1" width="5" height="4"/>
</g>
<g>
	<path class="st0" d="M-255.5,48v4c0,1.1-0.9,2-2,2h-6c-1.1,0-2-0.9-2-2v-4"/>
	<path class="st0" d="M-214.5,48v4c0,1.1-0.9,2-2,2h-6c-1.1,0-2-0.9-2-2v-4"/>
	<path class="st0" d="M-214.5,48c1.7,0,3-1.3,3-3V33.6c0-2.3-0.8-4.6-2.3-6.4l-2.7-3.2"/>
	<path class="st0" d="M-263.5,24l-2.7,3.2c-1.5,1.8-2.3,4.1-2.3,6.4V45c0,1.7,1.3,3,3,3"/>
	<path class="st0" d="M-216.5,24l-4.7-12.3c-1.1-2.8-3.6-4.8-6.5-5.2C-230,6.2-235.3,6-240,6s-10,0.2-12.3,0.6
		c-3,0.4-5.5,2.4-6.5,5.2l-4.7,12.3"/>
	<path class="st0" d="M-222.5,23l-3.4-8.9c-0.8-2-2.6-3.4-4.7-3.7c-1.7-0.2-6-0.4-9.4-0.4s-7.8,0.2-9.4,0.4
		c-2.1,0.3-3.9,1.7-4.7,3.7l-3.4,8.9H-222.5z"/>
	<circle class="st0" cx="-259.5" cy="33.5" r="3"/>
	<circle class="st0" cx="-220.5" cy="33.5" r="3"/>
	<line class="st0" x1="-216.5" y1="24" x2="-211.5" y2="24"/>
	<line class="st0" x1="-268.5" y1="24" x2="-263.5" y2="24"/>
	<rect x="-250.5" y="37" class="st0" width="21" height="6"/>
	<circle class="st0" cx="-247" cy="16.5" r="2.5"/>
	<path class="st0" d="M-237,23c0-2.2,1.8-4,4-4s4,1.8,4,4"/>
	<path class="st0" d="M-251,23c0-2.2,1.8-4,4-4s4,1.8,4,4"/>
	<circle class="st0" cx="-233" cy="16.5" r="2.5"/>
	<line class="st0" x1="-259.5" y1="48" x2="-220.5" y2="48"/>
</g>
<g>
	<polygon class="st0" points="-126,148.5 -174,148.5 -166,112.5 -134,112.5 	"/>
	<circle class="st1" cx="-150" cy="97.5" r="6"/>
	<line class="st1" x1="-150" y1="100.5" x2="-150" y2="108.5"/>
	<line class="st0" x1="-160" y1="124.5" x2="-160" y2="136.5"/>
	<line class="st0" x1="-152" y1="124.5" x2="-160" y2="132"/>
	<line class="st0" x1="-152" y1="136.5" x2="-157" y2="129.8"/>
	<path class="st0" d="M-140,133.5c0,1.7-1.3,3-3,3h-2c-1.7,0-3-1.3-3-3v-6c0-1.7,1.3-3,3-3h2c1.7,0,3,1.3,3,3"/>
	<polyline class="st0" points="-142,131.5 -140,131.5 -140,133.5 	"/>
</g>
<g>
	<line class="st1" x1="44.5" y1="93" x2="44.5" y2="142"/>
	<polyline class="st1" points="50.2,137 44.5,142.7 38.8,137 	"/>
	<polyline class="st1" points="38.8,98 44.5,92.3 50.2,98 	"/>
	<path class="st0" d="M29.5,143V92h-16c-2.2,0-4,1.8-4,4v52h41"/>
	<line class="st0" x1="29.5" y1="120" x2="16.5" y2="120"/>
	<line class="st0" x1="29.5" y1="113" x2="22.5" y2="113"/>
	<line class="st0" x1="29.5" y1="106" x2="22.5" y2="106"/>
	<line class="st0" x1="29.5" y1="99" x2="22.5" y2="99"/>
	<line class="st0" x1="29.5" y1="141" x2="22.5" y2="141"/>
	<line class="st0" x1="29.5" y1="134" x2="22.5" y2="134"/>
	<line class="st0" x1="29.5" y1="127" x2="22.5" y2="127"/>
</g>
<g>
	<line class="st1" x1="-38" y1="132.5" x2="-82" y2="132.5"/>
	<polyline class="st1" points="-77,138.2 -82.7,132.5 -77,126.8 	"/>
	<polyline class="st1" points="-43,126.8 -37.3,132.5 -43,138.2 	"/>
	<path class="st0" d="M-32,116.5v-16c0-2.2-1.8-4-4-4h-48c-2.2,0-4,1.8-4,4v16"/>
	<line class="st0" x1="-60" y1="116.5" x2="-60" y2="103.5"/>
	<line class="st0" x1="-53" y1="116.5" x2="-53" y2="109.5"/>
	<line class="st0" x1="-46" y1="116.5" x2="-46" y2="109.5"/>
	<line class="st0" x1="-39" y1="116.5" x2="-39" y2="109.5"/>
	<line class="st0" x1="-81" y1="116.5" x2="-81" y2="109.5"/>
	<line class="st0" x1="-74" y1="116.5" x2="-74" y2="109.5"/>
	<line class="st0" x1="-67" y1="116.5" x2="-67" y2="109.5"/>
	<line class="st0" x1="-88" y1="116.5" x2="-32" y2="116.5"/>
	<line class="st0" x1="-32" y1="121.5" x2="-32" y2="125.5"/>
	<line class="st0" x1="-88" y1="121.5" x2="-88" y2="125.5"/>
	<line class="st0" x1="-32" y1="130.5" x2="-32" y2="134.5"/>
	<line class="st0" x1="-88" y1="130.5" x2="-88" y2="134.5"/>
	<line class="st0" x1="-32" y1="139.5" x2="-32" y2="143.5"/>
	<line class="st0" x1="-88" y1="139.5" x2="-88" y2="143.5"/>
</g>
<g>
	<circle class="st3" cx="100.8" cy="-232.9" r="4.5"/>
	<circle class="st3" cx="139.8" cy="-232.9" r="4.5"/>
	<line class="st3" x1="135" y1="-232.4" x2="109" y2="-232.4"/>
	<path class="st3" d="M145-232.4c0,0-1,0,1,0c3,0,3-5,3-7c0-1-3-5-16-5h-26c-4,0-9-6-9-6"/>
	<path class="st3" d="M126.1-251.6c4.3,2.3,9.2,7.1,9.2,7.1"/>
	<path class="st3" d="M96-232.4l-5-1c0,0,0-4,0-5c0-2,3-6,3-8h8"/>
	<polyline class="st3" points="114,-247.4 116,-244.4 116,-235.4 	"/>
	<line class="st3" x1="120" y1="-240.4" x2="123" y2="-240.4"/>
</g>
<g>
	<circle class="st3" cx="-169.2" cy="-232.5" r="4.5"/>
	<circle class="st3" cx="-130.2" cy="-232.5" r="4.5"/>
	<line class="st3" x1="-135" y1="-232" x2="-161" y2="-232"/>
	<path class="st3" d="M-125-232c0,0-1,0,1,0c3,0,3-5,3-7c0-1-3-5-16-5h-26c-3,0-5.2-3-5.2-3"/>
	<path class="st3" d="M-174-232l-5-1c0,0,0-4,0-5c0-2,3-7,3-9h7c0,0,2-5,16-5c9,0,17.3,8,17.3,8"/>
	<polyline class="st3" points="-153,-251 -151,-244 -151,-235 	"/>
	<line class="st3" x1="-147" y1="-240" x2="-145" y2="-240"/>
	<line class="st3" x1="-160" y1="-240" x2="-158" y2="-240"/>
	<line class="st3" x1="-164" y1="-250.5" x2="-164" y2="-238.8"/>
</g>
<g>
	<circle class="st3" cx="-79.2" cy="-232.5" r="4.5"/>
	<circle class="st3" cx="-40.2" cy="-232.5" r="4.5"/>
	<line class="st3" x1="-45" y1="-232" x2="-71" y2="-232"/>
	<path class="st3" d="M-35-232c0,0-1,0,1,0c3,0,3-5,3-7c0-1-3-5-16-5h-33c-3,0-7-1-7-1"/>
	<path class="st3" d="M-84-232l-5-1c0,0,0-4,0-5c0-2,2-5,2-7s4-7,4-7s12,0,23,0c6,0,14.3,8,14.3,8"/>
	<polyline class="st3" points="-63,-251 -61,-244 -61,-235 	"/>
	<line class="st3" x1="-57" y1="-240" x2="-55" y2="-240"/>
	<line class="st3" x1="-71.5" y1="-240" x2="-69.5" y2="-240"/>
	<line class="st3" x1="-75" y1="-251" x2="-76" y2="-244"/>
	<line class="st3" x1="-76" y1="-244" x2="-76" y2="-240"/>
</g>
<g>
	<circle class="st3" cx="190.8" cy="-230.5" r="4.5"/>
	<circle class="st3" cx="229.8" cy="-230.5" r="4.5"/>
	<line class="st3" x1="225" y1="-230" x2="199" y2="-230"/>
	<path class="st3" d="M235-230c0,0-1,0,1,0c3,0,3-5,3-7c0-1-5-7-15-7h-34c-3,0-7-1-7-1"/>
	<path class="st3" d="M186-230l-5-1c0,0,0-4,0-5c0-2,2-7,2-9s5-9,9-9c1,0,8,0,19,0c8,0,17,10,17,10"/>
	<polyline class="st3" points="208,-254 210,-245 210,-233 	"/>
	<line class="st3" x1="214" y1="-239" x2="216" y2="-239"/>
	<line class="st3" x1="199" y1="-239" x2="201" y2="-239"/>
	<line class="st3" x1="197" y1="-254" x2="195" y2="-244"/>
	<line class="st3" x1="195" y1="-244" x2="195" y2="-237.5"/>
</g>
<g>
	<circle class="st3" cx="10.8" cy="-232.5" r="4.5"/>
	<circle class="st3" cx="49.8" cy="-232.5" r="4.5"/>
	<line class="st3" x1="45" y1="-232" x2="19" y2="-232"/>
	<path class="st3" d="M55-232c0,0-1,0,1,0c3,0,3-5,3-7c0-1-3-5-16-5H15c-5,0-10-7-10-7"/>
	<path class="st3" d="M6-232l-5-1c0,0,0-4,0-5c0-2,3-6,3-8h6c0,0,5-6,17-6c9,0,18.3,8,18.3,8"/>
	<polyline class="st3" points="24,-247 26,-244 26,-235 	"/>
	<line class="st3" x1="30" y1="-240" x2="33" y2="-240"/>
</g>
<g>
	<circle class="st3" cx="281.2" cy="-229.8" r="4.8"/>
	<circle class="st3" cx="319.1" cy="-229.8" r="5.1"/>
	<line class="st3" x1="314" y1="-229.3" x2="290" y2="-229.3"/>
	<path class="st3" d="M325-229.3c0,0-1,0,1,0c3,0,3-2,3-4s-2-3-2-3s0-2.9,0-4c0-2-8.6-3-15-3h-31c-3,0-8-1-8-1"/>
	<path class="st3" d="M276-229.3l-5-1c0,0,0-4,0-5c0-2,2-6,2-8c0-4,3-10,3-10s19-1,28,0c3,0.3,10,10,10,10"/>
	<polyline class="st3" points="297,-253.3 299,-244.3 299,-232.3 	"/>
	<line class="st3" x1="303" y1="-238.3" x2="305" y2="-238.3"/>
	<line class="st3" x1="288.4" y1="-238.3" x2="290.6" y2="-238.3"/>
	<line class="st3" x1="285" y1="-253.3" x2="284" y2="-243.3"/>
	<line class="st3" x1="282" y1="-254.3" x2="282" y2="-255.3"/>
	<line class="st3" x1="299" y1="-254.3" x2="299" y2="-255.3"/>
	<line class="st3" x1="284" y1="-243.3" x2="284" y2="-237.8"/>
</g>
<g>
	<line class="st1" x1="271.5" y1="-88.5" x2="328.5" y2="-31.5"/>
	<path class="st0" d="M284.5-42.5v4c0,1.1-0.9,2-2,2h-6c-1.1,0-2-0.9-2-2v-4"/>
	<path class="st0" d="M318.4-36.5h-0.9c-1.1,0-2-0.9-2-2"/>
	<line class="st0" x1="325.5" y1="-42.5" x2="325.5" y2="-40.2"/>
	<path class="st0" d="M325.5-42.5c1.7,0,3-1.3,3-3v-11.4c0-2.3-0.8-4.6-2.3-6.4l-2.7-3.2"/>
	<path class="st0" d="M276.5-66.5l-2.7,3.2c-1.5,1.8-2.3,4.1-2.3,6.4v11.4c0,1.7,1.3,3,3,3"/>
	<line class="st0" x1="279.6" y1="-74.7" x2="276.5" y2="-66.5"/>
	<path class="st0" d="M323.5-66.5l-4.7-12.3c-1.1-2.8-3.6-4.8-6.5-5.2c-2.3-0.3-7.6-0.6-12.3-0.6s-10,0.2-12.3,0.6
		c-1.6,0.2-3,0.9-4.2,1.9"/>
	<path class="st0" d="M298.2-67.5h19.4l-3.4-8.9c-0.8-2-2.6-3.4-4.7-3.7c-1.7-0.2-6-0.4-9.4-0.4s-7.8,0.2-9.4,0.4
		c-1.3,0.2-2.5,0.8-3.4,1.7"/>
	<polyline class="st0" points="283.7,-70.7 282.5,-67.5 286.8,-67.5 	"/>
	<circle class="st0" cx="280.5" cy="-57" r="3"/>
	<circle class="st0" cx="319.5" cy="-57" r="3"/>
	<line class="st0" x1="323.5" y1="-66.5" x2="328.5" y2="-66.5"/>
	<line class="st0" x1="271.5" y1="-66.5" x2="276.5" y2="-66.5"/>
	<polyline class="st0" points="300.5,-53.5 289.5,-53.5 289.5,-47.5 306.5,-47.5 	"/>
	<path class="st0" d="M290.7-75c0.4-0.9,1.3-1.5,2.3-1.5c1.4,0,2.5,1.1,2.5,2.5c0,1-0.6,1.9-1.5,2.3"/>
	<path class="st0" d="M303-67.5c0-2.2,1.8-4,4-4s4,1.8,4,4"/>
	<circle class="st0" cx="307" cy="-74" r="2.5"/>
	<line class="st0" x1="280.5" y1="-42.5" x2="311.5" y2="-42.5"/>
</g>
<g>
	<path class="st1" d="M-313.5,131.5c0,3.3,2.7,6,6,6s6-2.7,6-6"/>
	<path class="st1" d="M-313.5,112.5c0-3.3-2.7-6-6-6"/>
	<line class="st1" x1="-313.5" y1="131.5" x2="-313.5" y2="112.5"/>
	<line class="st1" x1="-301.5" y1="131.5" x2="-301.5" y2="105.5"/>
	<circle class="st1" cx="-305" cy="106" r="3.5"/>
	<path class="st1" d="M-301.5,106c0-5.8-2-8.5-3.5-10.5"/>
	<line class="st0" x1="-314.5" y1="147.5" x2="-301.5" y2="147.5"/>
	<line class="st0" x1="-358.5" y1="147.5" x2="-319.5" y2="147.5"/>
	<g>
		<line class="st0" x1="-350.5" y1="120.5" x2="-350.5" y2="146.5"/>
		<line class="st0" x1="-327.5" y1="146.5" x2="-327.5" y2="120.5"/>
	</g>
	<path class="st0" d="M-329.5,97.5h-19c-0.6,0-1,0.4-1,1v16c0,0.6,0.4,1,1,1h19c0.6,0,1-0.4,1-1v-16
		C-328.5,97.9-328.9,97.5-329.5,97.5z"/>
	<line class="st0" x1="-343.5" y1="103.5" x2="-334.5" y2="103.5"/>
	<line class="st0" x1="-343.5" y1="109.5" x2="-334.5" y2="109.5"/>
	<path class="st0" d="M-327.5,92.5h-23c-2.2,0-4,1.8-4,4v20c0,2.2,1.8,4,4,4h23c2.2,0,4-1.8,4-4v-20
		C-323.5,94.3-325.3,92.5-327.5,92.5z"/>
	<path class="st0" d="M-339,126.5c0,0,5,6.2,5,9s-2.2,5-5,5s-5-2.2-5-5c0-1.3,1.1-3.3,2.2-5.1"/>
</g>
<g>
	<line class="st1" x1="117" y1="115.2" x2="98" y2="115.2"/>
	<polyline class="st1" points="103,120.8 97.3,115.2 103,109.5 	"/>
	<polyline class="st1" points="112,109.5 117.7,115.2 112,120.8 	"/>
	<circle class="st3" cx="101.2" cy="132.7" r="4.8"/>
	<circle class="st3" cx="140.1" cy="132.7" r="5.1"/>
	<line class="st3" x1="135" y1="133.2" x2="110" y2="133.2"/>
	<path class="st3" d="M146,133.2c0,0-1,0,1,0s2-2,2-4s-1-3-1-3v0c0-0.7,0-1,0-2c0-2-4-5-4-5"/>
	<path class="st3" d="M124,109.2h8c4,0,12,10,12,10"/>
	<path class="st3" d="M128,119.2v-7c0,0,2,0,4,0s8,7,8,7H128"/>
	<line class="st3" x1="128" y1="124.2" x2="131" y2="124.2"/>
	<line class="st3" x1="144" y1="124.2" x2="144" y2="125.2"/>
	<line class="st3" x1="92" y1="128.2" x2="99" y2="128.2"/>
	<line class="st3" x1="108" y1="128.2" x2="123" y2="128.2"/>
	<line class="st3" x1="124" y1="109.2" x2="124" y2="128.2"/>
	<path class="st3" d="M96,133.2l-5-1v-30c0,0,23,0,30,0c1,0,3,0,10,7"/>
</g>
<g>
	<circle class="st3" cx="-344.7" cy="-233" r="4.5"/>
	<circle class="st3" cx="-312.7" cy="-233" r="4.5"/>
	<line class="st3" x1="-317.5" y1="-232.5" x2="-336.5" y2="-232.5"/>
	<path class="st3" d="M-307.5-232.5c0,0-1,0,1,0c3,0,3-5,3-7c0-1-2-5-15-5h-21c-2,0-4-6-4-6"/>
	<path class="st3" d="M-354.5-233.5c0,0,0-4,0-5c0-2,3.5-4.1,4-6c1-4,2-6,2-6s6-1,17-1c5,0,13,7,13,7"/>
	<line class="st3" x1="-349.5" y1="-232.5" x2="-356.5" y2="-233.5"/>
	<polyline class="st3" points="-335.5,-251.5 -333.5,-244.5 -333.5,-235.5 	"/>
	<line class="st3" x1="-329.5" y1="-240.5" x2="-327.5" y2="-240.5"/>
</g>
<g>
	<circle class="st3" cx="-259.2" cy="-232.5" r="4.5"/>
	<circle class="st3" cx="-220.2" cy="-232.5" r="4.5"/>
	<line class="st3" x1="-225" y1="-232" x2="-251" y2="-232"/>
	<path class="st3" d="M-215-232c0,0-1,0,1,0c3,0,3-5,3-7c0-1-3-5-16-5h-33c-3,0-6-1-6-1"/>
	<path class="st3" d="M-264-232l-5-1c0,0,0-4,0-5c0-2,3-5,3-7s3-6,3-6s11-1,22-1c6,0,15.3,8,15.3,8"/>
	<polyline class="st3" points="-249,-251 -247,-244 -247,-235 	"/>
	<line class="st3" x1="-243" y1="-240" x2="-240" y2="-240"/>
</g>
<g>
	<circle class="st3" cx="-78.8" cy="-140.8" r="4.8"/>
	<circle class="st3" cx="-39.9" cy="-140.8" r="5.1"/>
	<line class="st3" x1="-45" y1="-140.3" x2="-70" y2="-140.3"/>
	<path class="st3" d="M-34-140.3c0,0-1,0,1,0s2-2,2-4s-1-3-1-3v0c0-0.7,0-1,0-2c0-2-4-5-4-5"/>
	<path class="st3" d="M-84-140.3l-5-1c0,0,0-2.5,0-4c0-0.7,1-1,1-1c0-2,0-6,0-8c0-2.4,0.4-5.5,0.7-7.7c0.2-1.3,1.3-2.3,2.7-2.3H-48
		c4,0,12,10,12,10"/>
	<path class="st3" d="M-52-154.3v-7c0,0,2,0,4,0s8,7,8,7H-52"/>
	<line class="st3" x1="-52" y1="-149.3" x2="-49" y2="-149.3"/>
	<line class="st3" x1="-36" y1="-149.3" x2="-36" y2="-148.3"/>
</g>
<g>
	<circle class="st3" cx="11.2" cy="-138.3" r="4.8"/>
	<circle class="st3" cx="50.1" cy="-138.3" r="5.1"/>
	<line class="st3" x1="45" y1="-137.8" x2="20" y2="-137.8"/>
	<path class="st3" d="M56-137.8c0,0-1,0,1,0s2-2,2-4s-1-3-1-3v0c0-0.7,0-1,0-2c0-2-4-5-4-5"/>
	<path class="st3" d="M6-137.8l-5-1c0,0,0-2.5,0-4c0-0.7,1-1,1-1c0-2,0-8,0-10c0-2.4,0.4-8.5,0.7-10.7c0.2-1.3,1.3-2.3,2.7-2.3
		c0,0,21.7,0,28.7,0c6,0,20,15,20,15"/>
	<path class="st3" d="M38-151.8v-7c0,0,2,0,4,0c1,0,8,7,8,7H38"/>
	<line class="st3" x1="38" y1="-146.8" x2="41" y2="-146.8"/>
	<line class="st3" x1="54" y1="-146.8" x2="54" y2="-145.8"/>
</g>
<g>
	<circle class="st3" cx="-168.8" cy="-140.8" r="4.8"/>
	<circle class="st3" cx="-129.9" cy="-140.8" r="5.1"/>
	<line class="st3" x1="-135" y1="-140.3" x2="-160" y2="-140.3"/>
	<path class="st3" d="M-124-140.3c0,0-1,0,1,0s2-2,2-4s-1-3-1-3s0-0.9,0-2c0-2-3-4-10-5"/>
	<path class="st3" d="M-174-140.3l-5-1c0,0,0-3,0-4c0-0.4,1-1,1-1c0-2,0-6,0-8c0-2.4,0.4-5.5,0.7-7.7c0.2-1.3,1.3-2.3,2.7-2.3h24.7
		c7,0,18,10,18,10"/>
	<path class="st3" d="M-152-154.3v-7c0,0,0,0,2,0c4,0,13,7,13,7H-152"/>
	<line class="st3" x1="-151" y1="-149.3" x2="-148" y2="-149.3"/>
	<line class="st3" x1="-126" y1="-149.3" x2="-126" y2="-148.3"/>
</g>
<g>
	<circle class="st3" cx="-258.8" cy="-140.8" r="4.8"/>
	<circle class="st3" cx="-219.9" cy="-140.8" r="5.1"/>
	<line class="st3" x1="-225" y1="-140.3" x2="-250" y2="-140.3"/>
	<path class="st3" d="M-214-140.3c0,0-1,0,1,0s2-2,2-4s-1-3-1-3s0-0.9,0-2c0-2-3-4-10-5"/>
	<path class="st3" d="M-264-140.3l-5-1c0,0,0-3,0-4c0-0.4,1-1,1-1c0-2,0-2,0-4c0-3,4.8-4.1,6-7c3-7,9-7,9-7h13c7,0,18,10,18,10"/>
	<path class="st3" d="M-245-154.3v-7c0,0,3,0,5,0c4,0,13,7,13,7H-245"/>
	<line class="st3" x1="-242" y1="-149.3" x2="-239" y2="-149.3"/>
	<line class="st3" x1="-216" y1="-149.3" x2="-216" y2="-148.3"/>
</g>
<g>
	<circle class="st3" cx="191.2" cy="-137.3" r="4.8"/>
	<circle class="st3" cx="230.1" cy="-137.3" r="5.1"/>
	<line class="st3" x1="225" y1="-136.8" x2="200" y2="-136.8"/>
	<path class="st3" d="M236-136.8c0,0-1,0,1,0s2-2,2-4s-1-3-1-3v0c0-0.7,0-1,0-2c0-2-4-5-4-5"/>
	<path class="st3" d="M214-160.8h8c4,0,12,10,12,10"/>
	<path class="st3" d="M218-150.8v-7c0,0,2,0,4,0s8,7,8,7H218"/>
	<line class="st3" x1="218" y1="-145.8" x2="221" y2="-145.8"/>
	<line class="st3" x1="234" y1="-145.8" x2="234" y2="-144.8"/>
	<line class="st3" x1="182" y1="-141.8" x2="189" y2="-141.8"/>
	<line class="st3" x1="198" y1="-141.8" x2="213" y2="-141.8"/>
	<line class="st3" x1="214" y1="-160.8" x2="214" y2="-141.8"/>
	<path class="st3" d="M186-136.8l-5-1v-30c0,0,23,0,30,0c1,0,3,0,10,7"/>
</g>
<g>
	<circle class="st3" cx="-256.8" cy="-50.8" r="4.8"/>
	<circle class="st3" cx="-219.9" cy="-50.8" r="5.1"/>
	<line class="st3" x1="-225" y1="-50.3" x2="-248" y2="-50.3"/>
	<path class="st3" d="M-214-50.3c0,0-1,0,1,0s2-2,2-4s-1-3-1-3v0c0-0.7,0-1,0-2c0-2-4-5-4-5"/>
	<path class="st3" d="M-236-74.3h8c4,0,12,10,12,10"/>
	<path class="st3" d="M-232-64.3v-7c0,0,2,0,4,0s8,7,8,7H-232"/>
	<line class="st3" x1="-232" y1="-59.3" x2="-229" y2="-59.3"/>
	<line class="st3" x1="-216" y1="-59.3" x2="-216" y2="-58.3"/>
	<line class="st3" x1="-269" y1="-55.3" x2="-259" y2="-55.3"/>
	<line class="st3" x1="-250" y1="-55.3" x2="-236" y2="-55.3"/>
	<line class="st3" x1="-236" y1="-74.3" x2="-236" y2="-55.3"/>
	<polyline class="st3" points="-269,-55.3 -269,-61.3 -236,-61.3 	"/>
	<polyline class="st3" points="-262,-50.3 -266,-51.3 -266,-55.3 	"/>
</g>
<g>
	<circle class="st3" cx="281.2" cy="-140.8" r="4.8"/>
	<circle class="st3" cx="320.1" cy="-140.8" r="5.1"/>
	<line class="st3" x1="315" y1="-140.3" x2="290" y2="-140.3"/>
	<path class="st3" d="M326-140.3c0,0-1,0,1,0s2-2,2-4s-1-3-1-3v0c0-0.7,0-1,0-2c0-2-4-5-4-5"/>
	<path class="st3" d="M276-140.3l-5-1c0,0,0-2.5,0-4c0-0.7,1-1,1-1c0-2,0-6,0-8c0-2.4,0.4-5.5,0.7-7.7c0.2-1.3,1.3-2.3,2.7-2.3H312
		c4,0,12,10,12,10"/>
	<path class="st3" d="M308-154.3v-7c0,0,2,0,4,0s8,7,8,7H308"/>
	<line class="st3" x1="308" y1="-149.3" x2="311" y2="-149.3"/>
	<line class="st3" x1="301" y1="-149.3" x2="304" y2="-149.3"/>
	<line class="st3" x1="324" y1="-149.3" x2="324" y2="-148.3"/>
	<rect x="293" y="-161.3" class="st3" width="11" height="7"/>
	<path class="st3" d="M278-154.3c2,0,11,0,11,0v-7h-10C279-161.3,278-157.3,278-154.3z"/>
</g>
<g>
	<circle class="st3" cx="-166.8" cy="-46.8" r="4.8"/>
	<circle class="st3" cx="-129.9" cy="-46.8" r="5.1"/>
	<line class="st3" x1="-135" y1="-46.3" x2="-158" y2="-46.3"/>
	<path class="st3" d="M-124-46.3c0,0-1,0,1,0s2-2,2-4s-1-3-1-3v0c0-0.7,0-1,0-2c0-2-4-5-4-5"/>
	<path class="st3" d="M-146-70.3h8c4,0,12,10,12,10"/>
	<path class="st3" d="M-142-60.3v-7c0,0,2,0,4,0s8,7,8,7H-142"/>
	<line class="st3" x1="-142" y1="-55.3" x2="-139" y2="-55.3"/>
	<line class="st3" x1="-126" y1="-55.3" x2="-126" y2="-54.3"/>
	<line class="st3" x1="-179" y1="-51.3" x2="-169" y2="-51.3"/>
	<line class="st3" x1="-160" y1="-51.3" x2="-146" y2="-51.3"/>
	<line class="st3" x1="-146" y1="-70.3" x2="-146" y2="-51.3"/>
	<polyline class="st3" points="-179,-51.3 -179,-64.3 -152,-64.3 -152,-78.3 -129,-78.3 -129,-70.3 	"/>
	<polyline class="st3" points="-172,-46.3 -176,-47.3 -176,-51.3 	"/>
	<line class="st3" x1="-129" y1="-70.3" x2="-139" y2="-70.3"/>
</g>
<g>
	<g>
		<circle class="st3" cx="-348.8" cy="-51.8" r="4.8"/>
		<circle class="st3" cx="-310.9" cy="-51.8" r="5.1"/>
		<line class="st3" x1="-316" y1="-51.3" x2="-340" y2="-51.3"/>
		<path class="st3" d="M-332-73.3c0,0,7.8-0.1,9.3,0.1c2.6,0.3,8.7,7.9,8.7,7.9"/>
		<path class="st3" d="M-354-51.3l-5-1c0,0,0-4,0-5c0-2,1-6,1-8h40c6.4,0,15,2,15,4c0,1.1,0,4,0,4s2,1,2,3s0,3-3,3c-2,0-1,0-1,0"/>
		<polyline class="st3" points="-332,-73.3 -332,-67.6 -332,-51.3 		"/>
		<line class="st3" x1="-328" y1="-60.3" x2="-325" y2="-60.3"/>
		<line class="st3" x1="-328" y1="-73.3" x2="-328" y2="-66.3"/>
		<line class="st3" x1="-359" y1="-55.3" x2="-353" y2="-55.3"/>
		<line class="st3" x1="-341" y1="-55.3" x2="-332" y2="-55.3"/>
	</g>
	<line class="st3" x1="-306" y1="-60.3" x2="-306" y2="-59.3"/>
</g>
<g>
	<circle class="st3" cx="103.5" cy="-140" r="4.1"/>
	<circle class="st3" cx="140.4" cy="-140" r="4.4"/>
	<line class="st3" x1="136.1" y1="-139.6" x2="112" y2="-139.6"/>
	<path class="st3" d="M145.4-139.6c0,0,0.1,0,1.9,0c1.7,0,1.7-1.7,1.7-3.4c0-1.7-0.9-2.6-0.9-2.6v0c0-0.6,0-0.9,0-1.7
		c0-1.7-3.4-4.3-3.4-4.3"/>
	<path class="st3" d="M99.1-139.6l-8.1-0.9c0,0,0-2.1,0-3.4c0-0.6,0.9-0.9,0.9-0.9c0-1.7,0-6.8,0-8.5c0-2.1,0.3-7.3,0.6-9.1
		c0.2-1.1,1.1-2,2.3-2c0,0,27.1,0,33,0c5.1,0,17,12.8,17,12.8"/>
	<path class="st3" d="M130.1-151.6v-6c0,0,1.7,0,3.4,0c0.9,0,6.8,6,6.8,6H130.1"/>
	<line class="st3" x1="130.1" y1="-147.3" x2="132.7" y2="-147.3"/>
	<line class="st3" x1="144.7" y1="-147.3" x2="144.7" y2="-146.4"/>
</g>
<g>
	<circle class="st3" cx="-348.8" cy="-140.8" r="4.8"/>
	<circle class="st3" cx="-309.9" cy="-140.8" r="5.1"/>
	<line class="st3" x1="-315" y1="-140.3" x2="-340" y2="-140.3"/>
	<path class="st3" d="M-304-140.3c0,0-1,0,1,0s2-2,2-4s-1-3-1-3v0c0-0.7,0-1,0-2c0-2-4-5-4-5"/>
	<path class="st3" d="M-354-140.3l-5-1c0,0,0-2.5,0-4c0-0.7,1-1,1-1c0-2,0-6,0-8c0-2.4,0.4-5.5,0.7-7.7c0.2-1.3,1.3-2.3,2.7-2.3
		h36.7c4,0,12,10,12,10"/>
	<path class="st3" d="M-322-154.3v-7c0,0,2,0,4,0s8,7,8,7H-322"/>
	<line class="st3" x1="-322" y1="-149.3" x2="-319" y2="-149.3"/>
	<line class="st3" x1="-336" y1="-149.3" x2="-333" y2="-149.3"/>
	<line class="st3" x1="-306" y1="-149.3" x2="-306" y2="-148.3"/>
	<rect x="-336" y="-161.3" class="st3" width="10" height="7"/>
</g>
<g>
	<ellipse transform="matrix(0.7844 -0.6202 0.6202 0.7844 -17.9739 202.2906)" class="st1" cx="282" cy="127" rx="10.5" ry="10.5"/>
	<ellipse transform="matrix(0.7844 -0.6202 0.6202 0.7844 -17.9739 202.2906)" class="st1" cx="282" cy="127" rx="2.5" ry="2.5"/>
	<circle class="st0" cx="313" cy="107" r="2.5"/>
	<circle class="st0" cx="313" cy="99.5" r="0"/>
	<ellipse transform="matrix(0.7071 -0.7071 0.7071 0.7071 18.2134 247.3573)" class="st0" cx="307.7" cy="101.7" rx="0" ry="0"/>
	<circle class="st0" cx="305.5" cy="107" r="0"/>
	<ellipse transform="matrix(0.7071 -0.7071 0.7071 0.7071 10.7084 250.466)" class="st0" cx="307.7" cy="112.3" rx="0" ry="0"/>
	<circle class="st0" cx="313" cy="114.5" r="0"/>
	<ellipse transform="matrix(0.7071 -0.7071 0.7071 0.7071 13.8171 257.971)" class="st0" cx="318.3" cy="112.3" rx="0" ry="0"/>
	<circle class="st0" cx="320.5" cy="107" r="0"/>
	<ellipse transform="matrix(0.7071 -0.7071 0.7071 0.7071 21.3221 254.8623)" class="st0" cx="318.3" cy="101.7" rx="0" ry="0"/>
	<circle class="st0" cx="313" cy="107" r="11.5"/>
	<path class="st1" d="M287.9,129.7c-0.4,0.9-1,1.7-1.9,2.4"/>
	<path class="st1" d="M276.9,131c-2.2-2.8-1.7-6.9,1.1-9.1c2.8-2.2,6.9-1.7,9.1,1.1c0.8,1,1.2,2.1,1.4,3.3"/>
	<circle class="st0" cx="322.5" cy="142.5" r="6"/>
	<line class="st0" x1="301.5" y1="96.5" x2="274.5" y2="119.5"/>
	<line class="st0" x1="328.5" y1="106.5" x2="328.5" y2="142.5"/>
	<line class="st0" x1="280.5" y1="137.5" x2="321.5" y2="148.5"/>
	<line class="st0" x1="322.5" y1="142.5" x2="322.5" y2="142.5"/>
	<circle class="st0" cx="313" cy="107" r="15.5"/>
	<path class="st0" d="M280.3,137.4c-5-0.8-8.8-5.2-8.8-10.4c0-3,1.3-5.7,3.3-7.6"/>
</g>
<g>
	<polygon class="st0" points="-304.5,231.5 -301.5,231.5 -301.5,201.5 -304.5,201.5 -308.5,212.5 -308.5,225.5 	"/>
	<rect x="-354.5" y="206.5" class="st0" width="5" height="18"/>
	<line class="st0" x1="-358.5" y1="221.5" x2="-358.5" y2="209.5"/>
	<line class="st0" x1="-358.5" y1="215.5" x2="-355.5" y2="215.5"/>
	<line class="st0" x1="-308.5" y1="225.5" x2="-313.5" y2="225.5"/>
	<line class="st0" x1="-308.5" y1="212.5" x2="-313.5" y2="212.5"/>
	<polygon class="st0" points="-349.5,200.5 -349.5,224.5 -344.5,231.5 -317.5,231.5 -313.5,225.5 -313.5,212.5 -316.5,206.5 
		-320.5,206.5 -320.5,200.5 	"/>
	<polyline class="st0" points="-331.5,195.5 -324.5,195.5 -324.5,188.5 -344.5,188.5 -344.5,195.5 -337.5,195.5 	"/>
	<line class="st0" x1="-339.5" y1="195.5" x2="-339.5" y2="200.5"/>
	<line class="st0" x1="-329.5" y1="195.5" x2="-329.5" y2="200.5"/>
	<line class="st0" x1="-320.5" y1="206.5" x2="-320.5" y2="212.5"/>
	<line class="st0" x1="-320.5" y1="216.5" x2="-320.5" y2="219.5"/>
	<polyline class="st1" points="-337.5,206.5 -330.5,206.5 -333.5,213.5 -327.5,213.5 -336.5,226.5 -334.5,216.5 -341.5,216.5 
		-338.7,209.5 	"/>
</g>
<g>
	<circle class="st0" cx="210" cy="120" r="28.5"/>
	<circle class="st0" cx="210" cy="120" r="22.5"/>
	<path class="st0" d="M214.5,138c-1.4,0.4-2.9,0.5-4.5,0.5c-1.5,0-3.1-0.2-4.5-0.5"/>
	<path class="st0" d="M226.7,112c1.2,2.4,1.8,5.1,1.8,8c0,0.9-0.1,1.7-0.2,2.6"/>
	<path class="st0" d="M232.3,122.7c-0.8-0.1-1.5-0.2-2.3-0.2c-8.6,0-15.5,6.9-15.5,15.5c0,1.4,0.2,2.7,0.5,3.9"/>
	<path class="st0" d="M205,141.9c0.3-1.3,0.5-2.6,0.5-3.9c0-8.6-6.9-15.5-15.5-15.5c-0.8,0-1.6,0.1-2.3,0.2"/>
	<path class="st0" d="M188.3,113.9c6.3-2.8,13.7-4.4,21.7-4.4s15.4,1.6,21.7,4.4"/>
	<circle class="st1" cx="210" cy="120" r="4.5"/>
	<path class="st0" d="M191.7,122.5c-0.1-0.8-0.2-1.6-0.2-2.5c0-2.9,0.6-5.6,1.8-8"/>
</g>
<g>
	<g>
		<circle class="st3" cx="-259.2" cy="229" r="4.5"/>
		<circle class="st3" cx="-220.2" cy="229" r="4.5"/>
		<line class="st3" x1="-225" y1="229.5" x2="-251" y2="229.5"/>
		<path class="st3" d="M-215,229.5c0,0-1,0,1,0c3,0,3-5,3-7c0-1-3-5-16-5h-33c-3,0-7-1-7-1"/>
		<path class="st3" d="M-264,229.5l-5-1c0,0,0-4,0-5c0-2,2-5,2-7s4-7,4-7s12,0,23,0c6,0,14.3,8,14.3,8"/>
		<polyline class="st3" points="-243,210.5 -241,217.5 -241,226.5 		"/>
		<line class="st3" x1="-237" y1="221.5" x2="-235" y2="221.5"/>
		<line class="st3" x1="-251.5" y1="221.5" x2="-249.5" y2="221.5"/>
		<line class="st3" x1="-255" y1="210.5" x2="-256" y2="217.5"/>
		<line class="st3" x1="-256" y1="217.5" x2="-256" y2="221.5"/>
	</g>
	<circle class="st1" cx="-261.3" cy="199.7" r="4.8"/>
	<circle class="st1" cx="-242.3" cy="199.7" r="4.8"/>
	<line class="st1" x1="-261.3" y1="199.7" x2="-253" y2="199.7"/>
	<line class="st1" x1="-255.4" y1="192.6" x2="-261.3" y2="199.7"/>
	<line class="st1" x1="-253" y1="199.7" x2="-256.6" y2="189"/>
	<line class="st1" x1="-242.3" y1="199.7" x2="-245.8" y2="187.8"/>
	<line class="st1" x1="-253" y1="199.7" x2="-245.8" y2="191.4"/>
	<line class="st1" x1="-255.4" y1="192.6" x2="-245.8" y2="191.4"/>
	<line class="st1" x1="-260.1" y1="187.8" x2="-254.2" y2="189"/>
	<line class="st1" x1="-245.8" y1="187.8" x2="-243.5" y2="186.5"/>
	<line class="st3" x1="-242" y1="207.5" x2="-242" y2="209.5"/>
	<line class="st3" x1="-261" y1="207.5" x2="-261" y2="209.5"/>
</g>
<g>
	<path class="st0" d="M-167.5,230.5v5c0,1.1-0.9,2-2,2h-4c-1.1,0-2-0.9-2-2v-5"/>
	<line class="st0" x1="-170.5" y1="230.5" x2="-152.1" y2="230.5"/>
	<path class="st0" d="M-175.5,230.5c-1.7,0-3-1.3-3-3V219c0-1.9,0.2-3.9,0.6-5.8l5.3-25.5c0.6-3.1,3.4-5.3,6.5-5.3h15.6"/>
	<path class="st0" d="M-124,208.9l-4.4-21.1c-0.6-3.1-3.4-5.3-6.5-5.3h-15.6"/>
	<line class="st0" x1="-178.5" y1="202.5" x2="-176.5" y2="202.5"/>
	<line class="st0" x1="-124.5" y1="202.5" x2="-122.5" y2="202.5"/>
	<path class="st0" d="M-152.5,216.5c-3,0-8-1-8-1l1.2,4.3c0.5,1.6,1.9,2.7,3.6,2.7h2.2"/>
	<circle class="st0" cx="-159" cy="199" r="2.5"/>
	<path class="st0" d="M-145,205.5c0-2.2,1.8-4,4-4s4,1.8,4,4"/>
	<path class="st0" d="M-163,205.5c0-2.2,1.8-4,4-4s4,1.8,4,4"/>
	<circle class="st0" cx="-141" cy="199" r="2.5"/>
	<circle class="st1" cx="-135.5" cy="223.5" r="14"/>
	<g>
		<line class="st1" x1="-135.5" y1="227.5" x2="-135.5" y2="224.5"/>
		<line class="st1" x1="-135.5" y1="231.5" x2="-135.5" y2="231.5"/>
		<path class="st1" d="M-135.5,216.5c2.2,0,4,1.8,4,4s-1.8,4-4,4"/>
		<path class="st1" d="M-138.7,218.1c0.7-0.9,1.9-1.6,3.2-1.6"/>
	</g>
	<path class="st0" d="M-177.5,211.5c0,0,2,2,10,3v1.7c0,1.3-1,2.3-2.3,2.3h-7.7"/>
	<path class="st0" d="M-130.5,205.5h-40l2.4-12c0.3-1.7,1.9-3,3.6-3h28c1.8,0,3.3,1.2,3.6,3L-130.5,205.5z"/>
	<line class="st0" x1="-153.5" y1="226.5" x2="-174.5" y2="226.5"/>
	<line class="st0" x1="-152.5" y1="193.5" x2="-147.5" y2="193.5"/>
</g>
<g>
	<path class="st0" d="M-255.5,316v5c0,1.1-0.9,2-2,2h-6c-1.1,0-2-0.9-2-2v-5"/>
	<path class="st0" d="M-212.2,298c-0.4-1-0.9-1.9-1.6-2.8l-2.7-3.2"/>
	<line class="st0" x1="-259.5" y1="316" x2="-239.1" y2="316"/>
	<path class="st0" d="M-263.5,292l-2.7,3.2c-1.5,1.8-2.3,4.1-2.3,6.4V313c0,1.7,1.3,3,3,3"/>
	<path class="st0" d="M-216.5,292l-4.7-12.3c-1.1-2.8-3.6-4.8-6.5-5.2c-2.3-0.3-7.6-0.6-12.3-0.6s-10,0.2-12.3,0.6
		c-3,0.4-5.5,2.4-6.5,5.2l-4.7,12.3"/>
	<path class="st0" d="M-221.1,292l-3.6-9.5c-0.8-2.2-2.8-3.7-5.1-4c-1.8-0.2-6.5-0.4-10.2-0.4s-8.4,0.2-10.2,0.4
		c-2.3,0.3-4.2,1.8-5.1,4l-3.6,9.5H-221.1z"/>
	<circle class="st0" cx="-259.5" cy="301.5" r="3"/>
	<line class="st0" x1="-216.5" y1="292" x2="-211.5" y2="292"/>
	<line class="st0" x1="-268.5" y1="292" x2="-263.5" y2="292"/>
	<polyline class="st0" points="-239.5,305 -250.5,305 -250.5,311 -239.5,311 	"/>
	<circle class="st0" cx="-247" cy="284.5" r="2.5"/>
	<path class="st0" d="M-237,291c0-2.2,1.8-4,4-4s4,1.8,4,4"/>
	<path class="st0" d="M-251,291c0-2.2,1.8-4,4-4s4,1.8,4,4"/>
	<circle class="st0" cx="-233" cy="284.5" r="2.5"/>
	<g>
		<g>
			<g>
				<path class="st1" d="M-235.5,303.1v7.6c0,3.5,1.2,6.8,3.5,9.8c2.3,2.9,5.1,4.8,8.5,5.6c3.4-0.8,6.2-2.7,8.5-5.6
					c2.3-2.9,3.5-6.2,3.5-9.8v-7.6l-12-5.1L-235.5,303.1z"/>
			</g>
		</g>
	</g>
	<line class="st1" x1="-225.5" y1="318" x2="-221.5" y2="318"/>
	<polyline class="st1" points="-223.5,318 -223.5,310 -225.5,310 	"/>
	<line class="st1" x1="-223.5" y1="306" x2="-223.5" y2="306"/>
</g>
<g>
	<path class="st1" d="M228.8,200.3L214.6,186c-1.8-1.8-4.7-1.8-6.5,0c0,0,0,0,0,0l-25.2,25.2c-1.8,1.8-1.8,4.7,0,6.5c0,0,0,0,0,0
		l7.7,7.7"/>
	<path class="st0" d="M197.4,204.2h38.1c1.6,0,2.9,1.3,2.9,2.9v25.2c0,1.6-1.3,2.9-2.9,2.9h-38.1c-1.6,0-2.9-1.3-2.9-2.9v-25.2
		C194.5,205.5,195.8,204.2,197.4,204.2z"/>
	<line class="st0" x1="194.5" y1="210.8" x2="238.5" y2="210.8"/>
	<line class="st0" x1="194.5" y1="217.1" x2="238.5" y2="217.1"/>
	<line class="st0" x1="200.9" y1="223.5" x2="209.5" y2="223.5"/>
	<line class="st0" x1="200.9" y1="229.8" x2="206.3" y2="229.8"/>
	<line class="st0" x1="213.8" y1="223.5" x2="219.2" y2="223.5"/>
	<line class="st1" x1="216.5" y1="188.1" x2="204" y2="200.6"/>
	<line class="st1" x1="191" y1="213.6" x2="185.5" y2="219.1"/>
	<line class="st1" x1="220.5" y1="192.1" x2="212" y2="200.6"/>
	<line class="st1" x1="190.5" y1="222.1" x2="189" y2="223.6"/>
</g>
<g>
	<path class="st0" d="M-165.9,271.6c-1.1,0-2.2,0.2-3.3,0.4l5.8,5.8l-0.1,8.7l-8.7,0.1l-5.8-5.8c-0.3,1-0.4,2.1-0.4,3.3
		c0,6.9,5.6,12.5,12.5,12.5s12.5-5.6,12.5-12.5S-159,271.6-165.9,271.6z"/>
	<g>
		<path class="st0" d="M-154.4,289.6l31.5,31.5c1.7,1.7,1.7,4.3,0,6l0,0c-1.7,1.7-4.3,1.7-6,0l-31.5-31.5"/>
	</g>
	<line class="st0" x1="-126.3" y1="323.6" x2="-126.3" y2="323.6"/>
	<path class="st1" d="M-149.8,288.6c6.4,0,11.5,5.1,11.5,11.5"/>
	<path class="st1" d="M-149.8,311.6c-6.4,0-11.5-5.1-11.5-11.5"/>
	<path class="st1" d="M-130.9,308c0.5-1.2,0.9-2.5,1.2-3.8l4.4-0.8v-6.5l-4.4-0.8c-0.5-2.6-1.6-5.1-3-7.2l2.6-3.7l-4.6-4.6l-3.7,2.6
		c-2.2-1.4-4.6-2.5-7.2-3l-0.8-4.4h-5.5"/>
	<path class="st1" d="M-174.3,297.8v5.5l4.4,0.8c0.5,2.6,1.6,5.1,3,7.2l-2.6,3.7l4.6,4.6l3.7-2.6c2.2,1.4,4.6,2.5,7.2,3l0.8,4.4h6.5
		l0.8-4.4c1.2-0.2,2.4-0.6,3.5-1.1"/>
</g>
<g>
	<g>
		<circle class="st3" cx="297.1" cy="225" r="6"/>
		<path class="st3" d="M297.1,222.5c1.4,0,2.5,1.1,2.5,2.5c0,1.4-1.1,2.5-2.5,2.5c-1.4,0-2.5-1.1-2.5-2.5"/>
		<line class="st3" x1="290.7" y1="225.6" x2="271.6" y2="225.6"/>
		<path class="st3" d="M304.2,225.6c0,0-1.3,0,1.3,0c4,0,4-6.7,4-9.4c0-1.3-2.7-6.7-20.2-6.7h-17.7"/>
		<path class="st3" d="M271.4,198.6c6.7,0,15.6,10.8,15.6,10.8"/>
		<line class="st3" x1="271.8" y1="214.8" x2="275.8" y2="214.8"/>
	</g>
	<line class="st3" x1="271.6" y1="222" x2="291.6" y2="222"/>
	<line class="st3" x1="302.6" y1="222" x2="308.6" y2="222"/>
	<path class="st3" d="M306.6,213h-3.5c-0.8,0-1.5,0.7-1.5,1.5l0,0c0,0.8,0.7,1.5,1.5,1.5h6.5"/>
	<path class="st3" d="M306.6,195c-1.1-0.7-7.2-1.3-16.4,13.7"/>
	<line class="st3" x1="281.6" y1="204" x2="279.6" y2="209"/>
	<circle class="st1" cx="326.1" cy="191.5" r="2.5"/>
	<path class="st1" d="M315.2,208.6c1,2,3,3.4,5.4,3.4c3.3,0,6-2.7,6-6s-2.7-6-6-6c-2.6,0-4.9,1.7-5.7,4"/>
	<path class="st1" d="M321.6,200.1C321.6,200,321.6,200,321.6,200.1c0-3.4-2.7-6.1-6-6.1s-6,2.7-6,6c0,1.4,0.5,2.7,1.3,3.7
		c-1.3,0.5-2.3,1.8-2.3,3.3c0,1.9,1.6,3.5,3.5,3.5c1.4,0,2.5-0.8,3.1-1.9c1,2,3,3.4,5.4,3.4c3.3,0,6-2.7,6-6
		C326.6,203,324.4,200.6,321.6,200.1z"/>
</g>
<g>
	<path class="st0" d="M26.7,191.5c0-1.8,1.5-3.2,3.2-3.2c1.8,0,3.2,1.5,3.2,3.2"/>
	<path class="st0" d="M33.2,206.9c0-1.8,1.5-3.2,3.2-3.2c1.8,0,3.2,1.5,3.2,3.2"/>
	<path class="st0" d="M21.5,211.3c0-2.9,2.3-5.2,5.2-5.2"/>
	<path class="st0" d="M39.6,208.3c0-1.8,1.5-3.2,3.2-3.2c1.8,0,3.2,1.5,3.2,3.2"/>
	<path class="st0" d="M46.1,210.9c0-1.8,1.5-3.2,3.2-3.2c1.8,0,3.2,1.5,3.2,3.2"/>
	<line class="st0" x1="26.7" y1="191.5" x2="26.7" y2="215.4"/>
	<line class="st0" x1="33.2" y1="191.5" x2="33.2" y2="210.3"/>
	<line class="st0" x1="39.6" y1="206.9" x2="39.6" y2="210.3"/>
	<line class="st0" x1="46.1" y1="208.3" x2="46.1" y2="212.2"/>
	<path class="st0" d="M21.5,219.9c0,8.6,7,15.6,15.6,15.6s15.6-7,15.6-15.6"/>
	<path class="st0" d="M52.6,215.9c0,2.8,0,3.7,0,3.7S52.6,218.7,52.6,215.9s0-5,0-5S52.6,213.1,52.6,215.9z"/>
	<line class="st0" x1="21.5" y1="211.3" x2="21.5" y2="220.1"/>
	<circle class="st1" cx="9" cy="192" r="7.5"/>
	<circle class="st1" cx="51" cy="192" r="7.5"/>
	<path class="st1" d="M23.1,194.9c-0.4-0.9-0.6-1.9-0.6-2.9c0-1,0.2-2,0.6-2.9c0.4-0.9,0.9-1.7,1.6-2.4c0.7-0.7,1.5-1.2,2.4-1.6
		c0.9-0.4,1.9-0.6,2.9-0.6s2,0.2,2.9,0.6c0.9,0.4,1.7,0.9,2.4,1.6c0.7,0.7,1.2,1.5,1.6,2.4c0.4,0.9,0.6,1.9,0.6,2.9
		c0,1-0.2,2-0.6,2.9"/>
</g>
<g>
	<polyline class="st0" points="114.5,216.2 114.5,238.2 95.5,225.2 95.5,217.2 	"/>
	<polygon class="st0" points="110.5,227.2 91.5,214.2 95.5,203.2 114.5,216.2 	"/>
	<polyline class="st0" points="144.5,216.2 144.5,225.2 114.5,238.2 114.5,216.2 	"/>
	<polygon class="st0" points="148.5,214.2 118.5,227.2 114.5,216.2 144.5,203.2 	"/>
	<path class="st1" d="M114.6,211.2c0.8-7.9,6-16.2,12.4-19.3c6.7-3.2,12.1,0.6,12.5,8.4"/>
	<path class="st1" d="M121.3,208.2c0.6-3.4,2.9-6.8,5.7-8.1c2.9-1.4,5.3,0.1,5.7,3.2"/>
	<line class="st1" x1="121.9" y1="183.1" x2="134.5" y2="191.1"/>
	<g>
		<polyline class="st1" points="115.3,182.5 117,185.4 120.3,185.7 122,188.6 125.4,188.9 127.1,191.8 		"/>
	</g>
	<g>
		<polyline class="st1" points="103.3,196.5 105,199.4 108.3,199.7 110,202.6 113.4,202.9 115.1,205.8 		"/>
	</g>
	<g>
		<polyline class="st1" points="107.3,187.5 109,190.4 112.3,190.7 114,193.6 117.4,193.9 119.1,196.8 		"/>
	</g>
	<path class="st1" d="M101,202c0.7-7.8,5.9-16,12.2-19c3.4-1.6,6.4-1.4,8.7,0.2"/>
</g>
<g>
	<path class="st0" d="M-35.5,278.9h-34"/>
	<path class="st0" d="M-69.1,278.9h-15.4c-2.2,0-4,1.8-4,4v43.9h57v-43.9c0-2.2-1.8-4-4-4l0,0"/>
	<line class="st0" x1="-88.5" y1="321.2" x2="-31.5" y2="321.2"/>
	<path class="st0" d="M-80.5,278.9c0-3.1,2.6-5.7,5.7-5.7s5.7,2.6,5.7,5.7c0,3.1-2.6,5.7-5.7,5.7"/>
	<path class="st0" d="M-50.9,278.9c0-3.1,2.6-5.7,5.7-5.7s5.7,2.6,5.7,5.7c0,3.1-2.6,5.7-5.7,5.7"/>
	<circle class="st1" cx="-60" cy="294.4" r="2.3"/>
	<circle class="st1" cx="-50.9" cy="294.4" r="2.3"/>
	<circle class="st1" cx="-41.8" cy="294.4" r="2.3"/>
	<circle class="st1" cx="-60" cy="303.6" r="2.3"/>
	<circle class="st1" cx="-50.9" cy="303.6" r="2.3"/>
	<circle class="st1" cx="-41.8" cy="303.6" r="2.3"/>
	<circle class="st1" cx="-78.2" cy="303.6" r="2.3"/>
	<circle class="st1" cx="-69.1" cy="303.6" r="2.3"/>
	<circle class="st1" cx="-60" cy="312.7" r="2.3"/>
	<circle class="st1" cx="-50.9" cy="312.7" r="2.3"/>
	<circle class="st1" cx="-78.2" cy="312.7" r="2.3"/>
	<circle class="st1" cx="-69.1" cy="312.7" r="2.3"/>
	<line class="st1" x1="-43.5" y1="310.5" x2="-39.5" y2="314.5"/>
	<line class="st1" x1="-39.5" y1="310.5" x2="-43.5" y2="314.5"/>
</g>
<g>
	<path class="st0" d="M-62.6,207.8c1.1-0.5,1.9-1.5,2.1-2.7c1.4-6.3,1.6-12.8,0.8-19.2c-0.2-1.8-1.5-3.2-3.2-3.5
		c-7.4-1.5-15-1.5-22.4,0c-1.7,0.3-2.9,1.7-3.2,3.4c-1.1,6.5-0.8,13.1,0.9,19.5c0.3,1.1,1,2,2.1,2.5c0,0,4.4,2.2,11.3,2.2
		S-62.6,207.8-62.6,207.8z"/>
	<path class="st0" d="M-79.1,210l-0.1,23.7l5,5l5.2-5l0-23.7"/>
	<circle class="st0" cx="-74.1" cy="191.1" r="3"/>
	<line class="st0" x1="-75.1" y1="231.1" x2="-75.1" y2="210.1"/>
	<path class="st1" d="M-55.8,190.2l17,17c1.6,1.6,1.6,4.1,0,5.7L-48.9,223c-1.5,1.5-4,1.6-5.5,0.1l-10-10.2"/>
	<path class="st1" d="M-36.6,205c2.8,2.8,2.8,7.3,0,10.1"/>
	<path class="st1" d="M-34.1,202.5c4.2,4.2,4.2,10.9,0,15.1"/>
	
		<rect x="-52.7" y="210.1" transform="matrix(0.7071 -0.7071 0.7071 0.7071 -164.315 27.282)" class="st1" width="6.9" height="3.8"/>
	<path class="st1" d="M-54.5,210.3c-1-1-1-2.6,0-3.5c1-1,2.6-1,3.5,0"/>
	<line class="st1" x1="-54.5" y1="210.3" x2="-53" y2="211.7"/>
	<line class="st1" x1="-51.3" y1="195.7" x2="-55.3" y2="199.7"/>
</g>
<g>
	<line class="st0" x1="-358" y1="304" x2="-352" y2="304"/>
	<line class="st0" x1="-354.6" y1="317.8" x2="-352.8" y2="316.8"/>
	<line class="st0" x1="-306.9" y1="318.7" x2="-308.7" y2="317.7"/>
	<line class="st0" x1="-303" y1="305" x2="-309" y2="305"/>
	<line class="st0" x1="-306.4" y1="291.2" x2="-308.2" y2="292.2"/>
	<line class="st0" x1="-330" y1="277" x2="-330" y2="283"/>
	<line class="st0" x1="-343.8" y1="280.4" x2="-342.8" y2="282.2"/>
	<line class="st0" x1="-354.1" y1="290.3" x2="-352.3" y2="291.3"/>
	<path class="st1" d="M-318.1,284L-318.1,284c-0.6-0.4-1.4-0.2-1.8,0.3l-13.9,16.7c-2,2.4-1.3,6,1.5,7.6l0,0
		c2.8,1.6,6.3,0.4,7.4-2.5l7.5-20.4C-317.2,285-317.5,284.3-318.1,284z"/>
	<g>
		<path class="st0" d="M-302,304c0-15.5-12.5-28-28-28s-28,12.5-28,28c0,7.8,3.2,14.9,8.4,20h39.2C-305.2,318.9-302,311.8-302,304z"
			/>
	</g>
	<line class="st0" x1="-340" y1="315" x2="-340" y2="318"/>
	<line class="st0" x1="-335" y1="315" x2="-335" y2="318"/>
	<line class="st0" x1="-330" y1="315" x2="-330" y2="318"/>
	<line class="st0" x1="-325" y1="315" x2="-325" y2="318"/>
	<line class="st0" x1="-320" y1="317" x2="-320" y2="318"/>
</g>
</svg>
