<?xml version="1.0" encoding="utf-8"?>
<!-- Generator: Adobe Illustrator 16.0.0, SVG Export Plug-In . SVG Version: 6.00 Build 0)  -->
<!DOCTYPE svg PUBLIC "-//W3C//DTD SVG 1.1//EN" "http://www.w3.org/Graphics/SVG/1.1/DTD/svg11.dtd">
<svg version="1.1" id="Layer_1" xmlns="http://www.w3.org/2000/svg" xmlns:xlink="http://www.w3.org/1999/xlink" x="0px" y="0px"
	 width="18.017px" height="22px" viewBox="0 0 18.017 22" enable-background="new 0 0 18.017 22" xml:space="preserve">
<g>
	<defs>
		<rect id="SVGID_1_" width="18.017" height="22"/>
	</defs>
	<clipPath id="SVGID_2_">
		<use xlink:href="#SVGID_1_"  overflow="visible"/>
	</clipPath>
	
		<path clip-path="url(#SVGID_2_)" fill="none" stroke="#D3BC8D" stroke-width="2" stroke-linecap="round" stroke-linejoin="round" d="
		M1.017,12.556V9c0-4.418,3.582-8,8-8s8,3.582,8,8v3.556"/>
	
		<path clip-path="url(#SVGID_2_)" fill="none" stroke="#D3BC8D" stroke-width="2" stroke-linecap="round" stroke-linejoin="round" d="
		M1,14.286C1,15.232,1.716,16,2.6,16h0.8C4.284,16,5,15.232,5,14.286v-2.572C5,10.767,4.284,10,3.4,10H1V14.286z"/>
	
		<path clip-path="url(#SVGID_2_)" fill="none" stroke="#D3BC8D" stroke-width="2" stroke-linecap="round" stroke-linejoin="round" d="
		M17.017,10h-2.399c-0.884,0-1.601,0.768-1.601,1.714v2.572c0,0.946,0.717,1.714,1.601,1.714h0.8c0.883,0,1.6-0.768,1.6-1.714V10z"
		/>
	
		<path clip-path="url(#SVGID_2_)" fill="none" stroke="#D3BC8D" stroke-width="2" stroke-linecap="round" stroke-linejoin="round" d="
		M17.017,14v4c0,1.657-1.343,3-3,3h-5"/>
</g>
</svg>
