<svg xmlns="http://www.w3.org/2000/svg" width="60" height="60" viewBox="0 0 60 60">
  <defs>
    <style>
      .a {
        fill: none;
        stroke: #000;
        stroke-linecap: round;
        stroke-linejoin: round;
        stroke-width: 2px;
      }
    </style>
  </defs>
  <title>car-shape-saloon</title>
  <g>
    <circle class="a" cx="10.77" cy="37.54" r="4.46"/>
    <circle class="a" cx="49.77" cy="37.54" r="4.46"/>
    <line class="a" x1="45" y1="38" x2="19" y2="38"/>
    <path class="a" d="M55,38h1c3,0,3-5,3-7,0-1-3-5-16-5H17c-3,0-5.19-3-5.19-3"/>
    <path class="a" d="M6,38,1,37V32c0-2,3-7,3-9h7s2-5,16-5c9,0,17.31,8,17.31,8"/>
    <polyline class="a" points="27 19 29 26 29 35"/>
    <line class="a" x1="33" y1="30" x2="35" y2="30"/>
    <line class="a" x1="20" y1="30" x2="22" y2="30"/>
    <line class="a" x1="16" y1="19.51" x2="16" y2="31.17"/>
  </g>
</svg>
