<?xml version="1.0" encoding="utf-8"?>
<!-- Generator: Adobe Illustrator 21.1.0, SVG Export Plug-In . SVG Version: 6.00 Build 0)  -->
<svg version="1.1" id="Layer_1" xmlns="http://www.w3.org/2000/svg" xmlns:xlink="http://www.w3.org/1999/xlink" x="0px" y="0px"
	 viewBox="0 0 60 25.1" style="enable-background:new 0 0 60 25.1;" xml:space="preserve">
<style type="text/css">
	.st0{fill:none;stroke:#000000;stroke-width:2;stroke-linecap:round;stroke-linejoin:round;stroke-miterlimit:10;}
	.st1{fill:none;stroke:#BA0C2F;stroke-width:2;stroke-linecap:round;stroke-linejoin:round;stroke-miterlimit:10;}
	.st2{fill:#BA0C2F;}
	.st3{fill:none;stroke:#000000;stroke-width:2;stroke-linecap:round;stroke-linejoin:round;}
</style>
<g>
	<path class="st0" d="M-82,185.9c0-12.2,9.8-22,22-22s22,9.8,22,22"/>
	<path class="st0" d="M-37.8,202.9c0,8.8-7.2,16-16,16"/>
	<rect x="-40.5" y="186.4" class="st0" width="5" height="15.5"/>
	<rect x="-84.5" y="186.4" class="st0" width="5" height="15.5"/>
	<path class="st0" d="M-56.7,221.2h-6.5c-1.2,0-2.3-1-2.3-2.3l0,0c0-1.2,1-2.3,2.3-2.3h6.5c1.2,0,2.2,1,2.2,2.3l0,0
		C-54.5,220.2-55.5,221.2-56.7,221.2z"/>
	<path class="st1" d="M-68.8,201.9c0,4.8,3.9,8.8,8.8,8.8s8.8-3.9,8.8-8.8H-68.8z"/>
	<path class="st0" d="M-35.5,198.2c2.2,0,4-1.8,4-4s-1.8-4-4-4V198.2z"/>
	<path class="st0" d="M-84.5,190.2c-2.2,0-4,1.8-4,4s1.8,4,4,4V190.2z"/>
	<path class="st1" d="M-63.5,194.9c0-1.7-1.3-3-3-3s-3,1.3-3,3"/>
	<path class="st1" d="M-50.5,194.9c0-1.7-1.3-3-3-3c-1.7,0-3,1.3-3,3"/>
	<path class="st1" d="M-75.5,187.9c5,0,11-8,8-17c3,9,8,18,23,16"/>
</g>
<g>
	<path class="st0" d="M15.5,204.1v-38c0-1.1,0.9-2,2-2h39c1.1,0,2,0.9,2,2v46c0,5-4,9-9,9h-39c-5,0-9-4-9-9v-2c0-1.1,0.9-2,2-2h39
		c1.1,0,2,0.9,2,2v1c0,5,5,6,5,6"/>
	<line class="st1" x1="32.5" y1="174.1" x2="51.5" y2="174.1"/>
	<line class="st1" x1="22.5" y1="174.1" x2="26.5" y2="174.1"/>
	<line class="st1" x1="47.5" y1="185.1" x2="51.5" y2="185.1"/>
	<line class="st1" x1="22.5" y1="185.1" x2="41.5" y2="185.1"/>
	<line class="st1" x1="37.5" y1="196.1" x2="51.5" y2="196.1"/>
	<line class="st1" x1="22.5" y1="196.1" x2="31.5" y2="196.1"/>
	<circle class="st1" cx="29.5" cy="174.1" r="3"/>
	<circle class="st1" cx="44.5" cy="185.1" r="3"/>
	<circle class="st1" cx="34.5" cy="196.1" r="3"/>
</g>
<g>
	<path class="st0" d="M224.5,269.1c-0.6-0.4-1.2-0.7-1.8-1"/>
	<path class="st0" d="M233.4,279.1c-0.7-1.8-1.7-3.5-2.9-5"/>
	<path class="st0" d="M226.5,299.7c3.2-2.3,5.6-5.3,6.9-8.7"/>
	<path class="st0" d="M197.8,302.7c3.5,1.5,7.5,2.3,11.7,2.3c4.5,0,8.8-1,12.5-2.7"/>
	<path class="st0" d="M196.3,268.1c-7.1,3.5-11.8,9.8-11.8,17c0,6.2,3.5,11.7,9,15.4"/>
	<path class="st1" d="M219,271.9c-2.8-1.3-6-2-9.5-2s-6.7,0.7-9.5,2"/>
	<polyline class="st0" points="233.5,279.1 238.5,279.1 238.5,291.1 233.5,291.1 	"/>
	<path class="st0" d="M184.5,285.1L184.5,285.1c-1.7,0-3-1.3-3-3v-4"/>
	<path class="st1" d="M203.2,270.7c-2-1.7-3.2-4.3-3.2-7.1c0-5.2,4.3-9.5,9.5-9.5s9.5,4.3,9.5,9.5c0,2.9-1.3,5.4-3.2,7.1"/>
	<polyline class="st0" points="193.5,300.4 193.5,311.1 200.5,311.1 201.1,303.9 	"/>
	<polyline class="st0" points="218.9,303.6 219.5,311.1 226.5,311.1 226.5,299.7 	"/>
	<polyline class="st0" points="224.5,269.1 231,265.5 230.5,274.1 	"/>
	<path class="st0" d="M223,278.6c0-1.4,1.1-2.5,2.5-2.5s2.5,1.1,2.5,2.5"/>
	<path class="st1" d="M207.5,261.1c0-1.1,0.9-2,2-2"/>
	<line class="st1" x1="207.5" y1="261.1" x2="207.5" y2="266.1"/>
	<line class="st1" x1="206.5" y1="266.1" x2="211.5" y2="266.1"/>
	<line class="st1" x1="207.5" y1="262.1" x2="209.5" y2="262.1"/>
</g>
<g>
	<path class="st1" d="M-136.5,202.6c0-1.1,0.9-2,2-2"/>
	<line class="st1" x1="-136.5" y1="202.6" x2="-136.5" y2="207.6"/>
	<line class="st1" x1="-137.5" y1="207.6" x2="-132.5" y2="207.6"/>
	<line class="st1" x1="-136.5" y1="203.6" x2="-134.5" y2="203.6"/>
	<g>
		<path class="st1" d="M-135.5,218.6c-3.9,0-7.4-1.6-9.9-4.1c-2.5-2.5-4.1-6-4.1-9.9s1.6-7.4,4.1-9.9"/>
		<path class="st1" d="M-135.5,190.6c3.9,0,7.4,1.6,9.9,4.1c2.5,2.5,4.1,6,4.1,9.9s-1.6,7.4-4.1,9.9"/>
		<polyline class="st1" points="-149.5,193.6 -143.6,193.6 -143.6,199.5 		"/>
		<polyline class="st1" points="-121.5,215.6 -127.4,215.6 -127.4,209.6 		"/>
	</g>
	<path class="st0" d="M-165.5,208.6v5c0,1.1-0.9,2-2,2h-6c-1.1,0-2-0.9-2-2v-5"/>
	<path class="st0" d="M-121.5,194.2c0-2.3-0.8-4.6-2.3-6.4l-2.7-3.2"/>
	<line class="st0" x1="-169.5" y1="208.6" x2="-153.1" y2="208.6"/>
	<path class="st0" d="M-173.5,184.6l-2.7,3.2c-1.5,1.8-2.3,4.1-2.3,6.4v11.4c0,1.7,1.3,3,3,3"/>
	<path class="st0" d="M-126.5,184.6l-4.7-12.3c-1.1-2.8-3.6-4.8-6.5-5.2c-2.3-0.3-7.6-0.6-12.3-0.6s-10,0.2-12.3,0.6
		c-3,0.4-5.5,2.4-6.5,5.2l-4.7,12.3"/>
	<path class="st0" d="M-131.1,184.6l-3.6-9.5c-0.8-2.2-2.8-3.7-5.1-4c-1.8-0.2-6.5-0.4-10.2-0.4s-8.4,0.2-10.2,0.4
		c-2.3,0.3-4.2,1.8-5.1,4l-3.6,9.5H-131.1z"/>
	<circle class="st0" cx="-169.5" cy="194.1" r="3"/>
	<line class="st0" x1="-126.5" y1="184.6" x2="-121.5" y2="184.6"/>
	<line class="st0" x1="-178.5" y1="184.6" x2="-173.5" y2="184.6"/>
	<polyline class="st0" points="-152.5,197.6 -160.5,197.6 -160.5,203.6 -154.5,203.6 	"/>
	<circle class="st0" cx="-157" cy="177.1" r="2.5"/>
	<path class="st0" d="M-147,183.6c0-2.2,1.8-4,4-4s4,1.8,4,4"/>
	<path class="st0" d="M-161,183.6c0-2.2,1.8-4,4-4s4,1.8,4,4"/>
	<circle class="st0" cx="-143" cy="177.1" r="2.5"/>
</g>
<g>
	<path class="st0" d="M-435.5,298.6v5c0,1.1-0.9,2-2,2h-6c-1.1,0-2-0.9-2-2v-5"/>
	<path class="st0" d="M-391.5,284.2c0-2.3-0.8-4.6-2.3-6.4l-2.7-3.2"/>
	<line class="st0" x1="-439.5" y1="298.6" x2="-423.1" y2="298.6"/>
	<path class="st0" d="M-443.5,274.6l-2.7,3.2c-1.5,1.8-2.3,4.1-2.3,6.4v11.4c0,1.7,1.3,3,3,3"/>
	<path class="st0" d="M-396.5,274.6l-4.7-12.3c-1.1-2.8-3.6-4.8-6.5-5.2c-2.3-0.3-7.6-0.6-12.3-0.6s-10,0.2-12.3,0.6
		c-3,0.4-5.5,2.4-6.5,5.2l-4.7,12.3"/>
	<path class="st0" d="M-401.1,274.6l-3.6-9.5c-0.8-2.2-2.8-3.7-5.1-4c-1.8-0.2-6.5-0.4-10.2-0.4s-8.4,0.2-10.2,0.4
		c-2.3,0.3-4.2,1.8-5.1,4l-3.6,9.5H-401.1z"/>
	<circle class="st0" cx="-439.5" cy="284.1" r="3"/>
	<line class="st0" x1="-396.5" y1="274.6" x2="-391.5" y2="274.6"/>
	<line class="st0" x1="-448.5" y1="274.6" x2="-443.5" y2="274.6"/>
	<polyline class="st0" points="-422.5,287.6 -430.5,287.6 -430.5,293.6 -424.5,293.6 	"/>
	<circle class="st0" cx="-427" cy="267.1" r="2.5"/>
	<path class="st0" d="M-417,273.6c0-2.2,1.8-4,4-4s4,1.8,4,4"/>
	<path class="st0" d="M-431,273.6c0-2.2,1.8-4,4-4s4,1.8,4,4"/>
	<circle class="st0" cx="-413" cy="267.1" r="2.5"/>
	<circle class="st1" cx="-405.5" cy="294.6" r="14"/>
	<g>
		<line class="st1" x1="-405.5" y1="298.6" x2="-405.5" y2="295.6"/>
		<line class="st1" x1="-405.5" y1="302.6" x2="-405.5" y2="302.6"/>
		<path class="st1" d="M-405.5,287.6c2.2,0,4,1.8,4,4s-1.8,4-4,4"/>
		<path class="st1" d="M-408.7,289.1c0.7-0.9,1.9-1.6,3.2-1.6"/>
	</g>
</g>
<g>
	<g>
		<path class="st1" d="M118,183.3c0-1.4,1.1-2.5,2.5-2.5"/>
		<line class="st1" x1="118" y1="183.3" x2="118" y2="189.5"/>
		<line class="st1" x1="116.8" y1="189.5" x2="123" y2="189.5"/>
		<line class="st1" x1="118" y1="184.5" x2="120.5" y2="184.5"/>
	</g>
	<line class="st0" x1="110.5" y1="168.1" x2="138.5" y2="168.1"/>
	<line class="st0" x1="102.5" y1="168.1" x2="104.5" y2="168.1"/>
	<path class="st0" d="M124.5,208.1v7l1,0h2c3.3,0,6,2.7,6,6l0,0h-27l0,0c0-3.3,2.7-6,6-6h2l1,0v-8l0-2.5c-8.1-2-14.1-9.4-14.1-18.1
		v-22.4h37.3v22.4c0,10.3-8.3,18.6-18.6,18.6"/>
	<line class="st0" x1="148.5" y1="173.1" x2="139.5" y2="173.1"/>
	<path class="st0" d="M148.5,173.1c0,0,0,5,0,7c0,4-2,10-10,11"/>
	<path class="st0" d="M101.5,191.1c-8-1-10-7-10-11c0-2,0-7,0-7h9"/>
	<path class="st1" d="M121.4,173.5l0.6,0.6c0.5,0.5,1.2,0.7,1.9,0.5l0.8-0.2c1.1-0.3,2.2,0.3,2.5,1.4l0.2,0.8
		c0.2,0.7,0.7,1.2,1.4,1.4l0.8,0.2c1.1,0.3,1.7,1.4,1.4,2.5l-0.2,0.8c-0.2,0.7,0,1.4,0.5,1.9l0.6,0.6c0.8,0.8,0.8,2.1,0,2.8
		l-0.6,0.6c-0.5,0.5-0.7,1.2-0.5,1.9l0.2,0.8c0.3,1.1-0.3,2.2-1.4,2.5l-0.8,0.2c-0.7,0.2-1.2,0.7-1.4,1.4l-0.2,0.8
		c-0.3,1.1-1.4,1.7-2.5,1.4l-0.8-0.2c-0.7-0.2-1.4,0-1.9,0.5l-0.6,0.6c-0.8,0.8-2.1,0.8-2.8,0L118,197c-0.5-0.5-1.2-0.7-1.9-0.5
		l-0.8,0.2c-1.1,0.3-2.2-0.3-2.5-1.4l-0.2-0.8c-0.2-0.7-0.7-1.2-1.4-1.4l-0.8-0.2c-1.1-0.3-1.7-1.4-1.4-2.5l0.2-0.8
		c0.2-0.7,0-1.4-0.5-1.9l-0.6-0.6c-0.8-0.8-0.8-2.1,0-2.8l0.6-0.6c0.5-0.5,0.7-1.2,0.5-1.9l-0.2-0.8c-0.3-1.1,0.3-2.2,1.4-2.5
		l0.8-0.2c0.7-0.2,1.2-0.7,1.4-1.4l0.2-0.8c0.3-1.1,1.4-1.7,2.5-1.4l0.8,0.2c0.7,0.2,1.4,0,1.9-0.5l0.6-0.6
		C119.4,172.7,120.6,172.7,121.4,173.5z"/>
</g>
<g>
	<g>
		<path d="M-330,402.1c-13.8,0-25-11.2-25-25s11.2-25,25-25s25,11.2,25,25S-316.2,402.1-330,402.1z M-330,354.1
			c-12.7,0-23,10.3-23,23s10.3,23,23,23s23-10.3,23-23S-317.3,354.1-330,354.1z"/>
	</g>
	<g>
		<path d="M-330,359.1c-0.3,0-0.5-0.1-0.7-0.3c-0.2-0.2-0.3-0.5-0.3-0.7c0-0.3,0.1-0.5,0.3-0.7c0.4-0.4,1-0.4,1.4,0
			c0.2,0.2,0.3,0.4,0.3,0.7c0,0.3-0.1,0.5-0.3,0.7C-329.5,358.9-329.7,359.1-330,359.1z"/>
	</g>
	<g>
		<path d="M-339.5,361.6c-0.1,0-0.3,0-0.4-0.1c-0.1,0-0.2-0.1-0.3-0.2c-0.2-0.2-0.3-0.4-0.3-0.7c0-0.3,0.1-0.5,0.3-0.7
			c0.1-0.1,0.2-0.2,0.3-0.2c0.4-0.1,0.8-0.1,1.1,0.2c0.2,0.2,0.3,0.4,0.3,0.7c0,0.3-0.1,0.5-0.3,0.7
			C-339,361.5-339.2,361.6-339.5,361.6z"/>
	</g>
	<g>
		<path d="M-346.5,368.6c-0.3,0-0.5-0.1-0.7-0.3c-0.2-0.2-0.3-0.5-0.3-0.7c0-0.3,0.1-0.5,0.3-0.7c0.4-0.4,1-0.4,1.4,0
			c0.2,0.2,0.3,0.4,0.3,0.7c0,0.3-0.1,0.5-0.3,0.7C-345.9,368.4-346.2,368.6-346.5,368.6z"/>
	</g>
	<g>
		<path d="M-349,378.1c-0.3,0-0.5-0.1-0.7-0.3c-0.2-0.2-0.3-0.5-0.3-0.7c0-0.1,0-0.3,0.1-0.4c0.1-0.1,0.1-0.2,0.2-0.3
			c0.4-0.4,1-0.4,1.4,0c0.1,0.1,0.2,0.2,0.2,0.3c0.1,0.1,0.1,0.3,0.1,0.4c0,0.3-0.1,0.5-0.3,0.7C-348.5,377.9-348.7,378.1-349,378.1
			z"/>
	</g>
	<g>
		<path d="M-346.5,387.6c-0.1,0-0.3,0-0.4-0.1c-0.1-0.1-0.2-0.1-0.3-0.2c-0.1-0.1-0.2-0.2-0.2-0.3c0-0.1-0.1-0.3-0.1-0.4
			c0-0.1,0-0.3,0.1-0.4c0.1-0.1,0.1-0.2,0.2-0.3c0.1-0.1,0.2-0.2,0.3-0.2c0.4-0.2,0.8-0.1,1.1,0.2c0.1,0.1,0.2,0.2,0.2,0.3
			c0.1,0.1,0.1,0.3,0.1,0.4c0,0.1,0,0.3-0.1,0.4c0,0.1-0.1,0.2-0.2,0.3C-345.9,387.4-346.2,387.6-346.5,387.6z"/>
	</g>
	<g>
		<path d="M-339.5,394.5c-0.1,0-0.3,0-0.4-0.1c-0.1-0.1-0.2-0.1-0.3-0.2c-0.1-0.1-0.2-0.2-0.2-0.3c0-0.1-0.1-0.3-0.1-0.4
			c0-0.3,0.1-0.5,0.3-0.7c0.1-0.1,0.2-0.2,0.3-0.2c0.2-0.1,0.5-0.1,0.8,0c0.1,0,0.2,0.1,0.3,0.2c0.2,0.2,0.3,0.4,0.3,0.7
			c0,0.1,0,0.3-0.1,0.4c-0.1,0.1-0.1,0.2-0.2,0.3c-0.1,0.1-0.2,0.2-0.3,0.2C-339.2,394.5-339.4,394.5-339.5,394.5z"/>
	</g>
	<g>
		<path d="M-330,397.1c-0.3,0-0.5-0.1-0.7-0.3c-0.1-0.1-0.2-0.2-0.2-0.3c0-0.1-0.1-0.3-0.1-0.4c0-0.1,0-0.1,0-0.2
			c0-0.1,0-0.1,0.1-0.2c0-0.1,0.1-0.1,0.1-0.2c0-0.1,0.1-0.1,0.1-0.1c0.3-0.3,0.7-0.4,1.1-0.2c0.1,0.1,0.2,0.1,0.3,0.2
			c0.2,0.2,0.3,0.4,0.3,0.7c0,0.1,0,0.3-0.1,0.4c-0.1,0.1-0.1,0.2-0.2,0.3c-0.1,0.1-0.2,0.2-0.3,0.2
			C-329.7,397-329.9,397.1-330,397.1z"/>
	</g>
	<g>
		<path d="M-320.5,394.5c-0.1,0-0.3,0-0.4-0.1c-0.1-0.1-0.2-0.1-0.3-0.2c-0.1-0.1-0.2-0.2-0.2-0.3c0-0.1-0.1-0.3-0.1-0.4
			c0-0.3,0.1-0.5,0.3-0.7c0.1-0.1,0.2-0.2,0.3-0.2c0.2-0.1,0.4-0.1,0.6-0.1c0.1,0,0.1,0,0.2,0.1c0.1,0,0.1,0.1,0.2,0.1
			c0,0,0.1,0.1,0.1,0.1c0.2,0.2,0.3,0.4,0.3,0.7c0,0.1,0,0.3-0.1,0.4c-0.1,0.1-0.1,0.2-0.2,0.3C-320,394.4-320.2,394.5-320.5,394.5z
			"/>
	</g>
	<g>
		<path d="M-313.6,387.6c-0.1,0-0.3,0-0.4-0.1c-0.1-0.1-0.2-0.1-0.3-0.2c-0.1-0.1-0.2-0.2-0.2-0.3s-0.1-0.3-0.1-0.4
			c0-0.1,0-0.3,0.1-0.4c0-0.1,0.1-0.2,0.2-0.3c0.1-0.1,0.2-0.2,0.3-0.2c0.4-0.2,0.8-0.1,1.1,0.2c0.1,0.1,0.2,0.2,0.2,0.3
			c0,0.1,0.1,0.3,0.1,0.4c0,0.1,0,0.3-0.1,0.4c-0.1,0.1-0.1,0.2-0.2,0.3C-313,387.4-313.3,387.6-313.6,387.6z"/>
	</g>
	<g>
		<path d="M-311,378.1c-0.1,0-0.3,0-0.4-0.1c-0.1-0.1-0.2-0.1-0.3-0.2c-0.2-0.2-0.3-0.5-0.3-0.7c0-0.1,0-0.3,0.1-0.4
			c0.1-0.1,0.1-0.2,0.2-0.3c0.1-0.1,0.2-0.2,0.3-0.2c0.4-0.2,0.8-0.1,1.1,0.2c0.1,0.1,0.2,0.2,0.2,0.3c0.1,0.1,0.1,0.3,0.1,0.4
			c0,0.3-0.1,0.5-0.3,0.7C-310.5,377.9-310.7,378.1-311,378.1z"/>
	</g>
	<g>
		<path d="M-313.6,368.6c-0.3,0-0.5-0.1-0.7-0.3c-0.2-0.2-0.3-0.5-0.3-0.7c0-0.3,0.1-0.5,0.3-0.7c0.4-0.4,1-0.4,1.4,0
			c0.2,0.2,0.3,0.4,0.3,0.7c0,0.3-0.1,0.5-0.3,0.7C-313,368.4-313.3,368.6-313.6,368.6z"/>
	</g>
	<g>
		<path d="M-322,350.1h-16c-0.6,0-1-0.4-1-1v-5c0-0.6,0.4-1,1-1h16c0.6,0,1,0.4,1,1v5C-321,349.6-321.4,350.1-322,350.1z
			 M-337,348.1h14v-3h-14V348.1z"/>
	</g>
	<g>
		<path d="M-334,354.1c-0.6,0-1-0.4-1-1v-4c0-0.6,0.4-1,1-1s1,0.4,1,1v4C-333,353.6-333.4,354.1-334,354.1z"/>
	</g>
	<g>
		<path d="M-326,354.1c-0.6,0-1-0.4-1-1v-4c0-0.6,0.4-1,1-1s1,0.4,1,1v4C-325,353.6-325.4,354.1-326,354.1z"/>
	</g>
	<g>
		<path d="M-307.5,360.6c-0.3,0-0.5-0.1-0.7-0.3l-7-7c-0.4-0.4-0.4-1,0-1.4s1-0.4,1.4,0l7,7c0.4,0.4,0.4,1,0,1.4
			C-307,360.5-307.2,360.6-307.5,360.6z"/>
	</g>
	<g>
		<path d="M-352.5,360.6c-0.3,0-0.5-0.1-0.7-0.3c-0.4-0.4-0.4-1,0-1.4l7-7c0.4-0.4,1-0.4,1.4,0s0.4,1,0,1.4l-7,7
			C-352,360.5-352.2,360.6-352.5,360.6z"/>
	</g>
	<g>
		<path class="st2" d="M-329.9,382.1c-0.9,0-1.8-0.2-2.6-0.7c-1.3-0.8-2.3-2.1-2.5-3.6c-0.3-1.5,0.1-3.1,1.1-4.3l11.7-14.1
			c0.7-0.8,1.8-1,2.8-0.5c0.9,0.5,1.3,1.7,0.9,2.7l-6.4,17.2c-0.5,1.4-1.7,2.6-3.1,3.1C-328.7,382-329.3,382.1-329.9,382.1z
			 M-320.6,360.6c-0.1,0-0.1,0-0.1,0.1l-11.7,14.2c-0.6,0.7-0.9,1.7-0.7,2.6s0.7,1.7,1.6,2.2c0.8,0.5,1.8,0.6,2.7,0.2
			c0.9-0.3,1.6-1,1.9-1.9l6.4-17.2C-320.4,360.7-320.4,360.6-320.6,360.6C-320.5,360.6-320.6,360.6-320.6,360.6z"/>
	</g>
</g>
<g>
	<path class="st0" d="M-255.5,298.6v5c0,1.1-0.9,2-2,2h-6c-1.1,0-2-0.9-2-2v-5"/>
	<path class="st0" d="M-212.2,280.6c-0.4-1-0.9-1.9-1.6-2.8l-2.7-3.2"/>
	<line class="st0" x1="-259.5" y1="298.6" x2="-239.1" y2="298.6"/>
	<path class="st0" d="M-263.5,274.6l-2.7,3.2c-1.5,1.8-2.3,4.1-2.3,6.4v11.4c0,1.7,1.3,3,3,3"/>
	<path class="st0" d="M-216.5,274.6l-4.7-12.3c-1.1-2.8-3.6-4.8-6.5-5.2c-2.3-0.3-7.6-0.6-12.3-0.6s-10,0.2-12.3,0.6
		c-3,0.4-5.5,2.4-6.5,5.2l-4.7,12.3"/>
	<path class="st0" d="M-221.1,274.6l-3.6-9.5c-0.8-2.2-2.8-3.7-5.1-4c-1.8-0.2-6.5-0.4-10.2-0.4s-8.4,0.2-10.2,0.4
		c-2.3,0.3-4.2,1.8-5.1,4l-3.6,9.5H-221.1z"/>
	<circle class="st0" cx="-259.5" cy="284.1" r="3"/>
	<line class="st0" x1="-216.5" y1="274.6" x2="-211.5" y2="274.6"/>
	<line class="st0" x1="-268.5" y1="274.6" x2="-263.5" y2="274.6"/>
	<polyline class="st0" points="-239.5,287.6 -250.5,287.6 -250.5,293.6 -239.5,293.6 	"/>
	<circle class="st0" cx="-247" cy="267.1" r="2.5"/>
	<path class="st0" d="M-237,273.6c0-2.2,1.8-4,4-4s4,1.8,4,4"/>
	<path class="st0" d="M-251,273.6c0-2.2,1.8-4,4-4s4,1.8,4,4"/>
	<circle class="st0" cx="-233" cy="267.1" r="2.5"/>
	<g>
		<g>
			<g>
				<path class="st1" d="M-234.5,286.5v7.3c0,3.4,1.1,6.6,3.3,9.4c2.2,2.8,4.9,4.6,8.2,5.4c3.2-0.8,6-2.6,8.2-5.4
					c2.2-2.8,3.3-6,3.3-9.4v-7.3l-11.5-4.9L-234.5,286.5z"/>
			</g>
		</g>
	</g>
	<polyline class="st1" points="-227.5,295.6 -223.5,298.6 -217.5,291.6 	"/>
</g>
<g>
	<path class="st1" d="M111.2,297.3c2.6-2.2,5.9-7.8,1.5-13.3c-5.6-7-21-10-21-10s1.1,14.1,6.6,21
		C102.7,300.6,108.8,299.3,111.2,297.3z"/>
	<path class="st0" d="M115.6,311.1c0,0,2.9-8.1,10-16c9-10,13-26,13-32"/>
	<path class="st0" d="M125.5,294.6c7.5,5,16.4,0.6,20.2-6.5c9-17-7-34-8-34c-3,7-13.5,14-17,21C116.6,283.1,118.6,290.1,125.5,294.6
		z"/>
	<g>
		<path class="st1" d="M97.6,280.1c17,18,19,22,19,22"/>
		<path class="st1" d="M111.2,297.3c2.6-2.2,5.9-7.8,1.5-13.3c-5.6-7-21-10-21-10s1.1,14.1,6.6,21
			C102.7,300.6,108.8,299.3,111.2,297.3z"/>
		<path class="st0" d="M115.6,311.1c0,0,2.9-8.1,10-16c9-10,13-26,13-32"/>
		<path class="st0" d="M125.5,294.6c7.5,5,16.4,0.6,20.2-6.5c9-17-7-34-8-34c-3,7-13.5,14-17,21
			C116.6,283.1,118.6,290.1,125.5,294.6z"/>
	</g>
</g>
<g>
	<circle class="st1" cx="-84" cy="261.6" r="4"/>
	<path class="st1" d="M-84,265.6v13c0,2.2,1.8,4,4,4h8"/>
	<circle class="st0" cx="-68" cy="261.6" r="4"/>
	<circle class="st0" cx="-52" cy="261.6" r="4"/>
	<circle class="st0" cx="-36" cy="261.6" r="4"/>
	<circle class="st0" cx="-68" cy="303.6" r="4"/>
	<circle class="st0" cx="-52" cy="303.6" r="4"/>
	<circle class="st0" cx="-36" cy="303.6" r="4"/>
	<line class="st0" x1="-68" y1="265.6" x2="-68" y2="299.6"/>
	<line class="st0" x1="-52" y1="265.6" x2="-52" y2="299.6"/>
	<line class="st0" x1="-36" y1="265.6" x2="-36" y2="299.6"/>
	<line class="st0" x1="-36" y1="282.6" x2="-68" y2="282.6"/>
</g>
<g>
	<path class="st0" d="M-122,290.4c0-15.5-12.5-28-28-28s-28,12.5-28,28"/>
	<g>
		<polyline class="st0" points="-174,302.7 -178,302.7 -178,296.1 -174,296.1 		"/>
		<line class="st0" x1="-178" y1="299.4" x2="-175" y2="299.4"/>
	</g>
	<g>
		<polyline class="st0" points="-126,301.7 -126,295.1 -122,295.1 		"/>
		<line class="st0" x1="-126" y1="298.4" x2="-123" y2="298.4"/>
	</g>
	<line class="st0" x1="-150" y1="262.4" x2="-150" y2="268.4"/>
	<path class="st1" d="M-139.1,270.4L-139.1,270.4c-0.6-0.4-1.4-0.2-1.8,0.3l-13.9,16.7c-2,2.4-1.3,6,1.5,7.6l0,0
		c2.8,1.6,6.3,0.4,7.4-2.5l7.5-20.4C-138.2,271.4-138.5,270.7-139.1,270.4z"/>
	<line class="st0" x1="-122" y1="290.4" x2="-128" y2="290.4"/>
	<line class="st0" x1="-178" y1="290.4" x2="-172" y2="290.4"/>
	<line class="st0" x1="-178" y1="290.4" x2="-176" y2="290.4"/>
	<line class="st0" x1="-174.1" y1="276.7" x2="-172.3" y2="277.7"/>
	<line class="st0" x1="-163.8" y1="266.8" x2="-162.8" y2="268.6"/>
	<line class="st0" x1="-126.4" y1="277.6" x2="-128.2" y2="278.6"/>
</g>
<g>
	<path class="st1" d="M36.6,270.6c0,3.9-2,10-7,10s-7-6.1-7-10s3.1-7,7-7S36.6,266.7,36.6,270.6z"/>
	<path class="st1" d="M15.6,301.6c0-9.4,5-17,14-17s14,7.6,14,17"/>
	<path class="st0" d="M53.3,273.6c0,2.9-1.5,7.5-5.3,7.5s-5.3-4.6-5.3-7.5s2.4-5.3,5.3-5.3S53.3,270.7,53.3,273.6z"/>
	<path class="st0" d="M42.4,285.8c1.5-1.1,3.4-1.7,5.7-1.7c6.8,0,10.5,5.7,10.5,12.8"/>
	<path class="st0" d="M6.7,273.6c0,2.9,1.5,7.5,5.2,7.5s5.3-4.6,5.3-7.5s-2.4-5.3-5.3-5.3S6.7,270.7,6.7,273.6z"/>
	<path class="st0" d="M17.6,285.8c-1.5-1.1-3.4-1.7-5.7-1.7c-6.7,0-10.5,5.7-10.5,12.8"/>
	<line class="st1" x1="22.2" y1="286.7" x2="29.3" y2="293.8"/>
	<line class="st1" x1="32.8" y1="297.3" x2="36.6" y2="301.6"/>
	<rect x="28.6" y="293.6" transform="matrix(0.7071 0.7071 -0.7071 0.7071 218.0929 64.5889)" class="st1" width="5" height="4"/>
</g>
<g>
	<path class="st0" d="M-345.5,300.6v4c0,1.1-0.9,2-2,2h-6c-1.1,0-2-0.9-2-2v-4"/>
	<path class="st0" d="M-304.5,300.6v4c0,1.1-0.9,2-2,2h-6c-1.1,0-2-0.9-2-2v-4"/>
	<path class="st0" d="M-304.5,300.6c1.7,0,3-1.3,3-3v-11.4c0-2.3-0.8-4.6-2.3-6.4l-2.7-3.2"/>
	<path class="st0" d="M-353.5,276.6l-2.7,3.2c-1.5,1.8-2.3,4.1-2.3,6.4v11.4c0,1.7,1.3,3,3,3"/>
	<path class="st0" d="M-306.5,276.6l-4.7-12.3c-1.1-2.8-3.6-4.8-6.5-5.2c-2.3-0.3-7.6-0.6-12.3-0.6s-10,0.2-12.3,0.6
		c-3,0.4-5.5,2.4-6.5,5.2l-4.7,12.3"/>
	<path class="st0" d="M-312.5,275.6l-3.4-8.9c-0.8-2-2.6-3.4-4.7-3.7c-1.7-0.2-6-0.4-9.4-0.4s-7.8,0.2-9.4,0.4
		c-2.1,0.3-3.9,1.7-4.7,3.7l-3.4,8.9H-312.5z"/>
	<circle class="st0" cx="-349.5" cy="286.1" r="3"/>
	<circle class="st0" cx="-310.5" cy="286.1" r="3"/>
	<line class="st0" x1="-306.5" y1="276.6" x2="-301.5" y2="276.6"/>
	<line class="st0" x1="-358.5" y1="276.6" x2="-353.5" y2="276.6"/>
	<rect x="-340.5" y="289.6" class="st0" width="21" height="6"/>
	<circle class="st0" cx="-337" cy="269.1" r="2.5"/>
	<path class="st0" d="M-327,275.6c0-2.2,1.8-4,4-4s4,1.8,4,4"/>
	<path class="st0" d="M-341,275.6c0-2.2,1.8-4,4-4s4,1.8,4,4"/>
	<circle class="st0" cx="-323" cy="269.1" r="2.5"/>
	<line class="st0" x1="-349.5" y1="300.6" x2="-310.5" y2="300.6"/>
</g>
<g>
	<polygon class="st0" points="-216,401.1 -264,401.1 -256,365.1 -224,365.1 	"/>
	<circle class="st1" cx="-240" cy="350.1" r="6"/>
	<line class="st1" x1="-240" y1="353.1" x2="-240" y2="361.1"/>
	<line class="st0" x1="-250" y1="377.1" x2="-250" y2="389.1"/>
	<line class="st0" x1="-242" y1="377.1" x2="-250" y2="384.6"/>
	<line class="st0" x1="-242" y1="389.1" x2="-247" y2="382.3"/>
	<path class="st0" d="M-230,386.1c0,1.7-1.3,3-3,3h-2c-1.7,0-3-1.3-3-3v-6c0-1.7,1.3-3,3-3h2c1.7,0,3,1.3,3,3"/>
	<polyline class="st0" points="-232,384.1 -230,384.1 -230,386.1 	"/>
</g>
<g>
	<line class="st1" x1="-45.5" y1="345.6" x2="-45.5" y2="394.6"/>
	<polyline class="st1" points="-39.8,389.6 -45.5,395.2 -51.2,389.6 	"/>
	<polyline class="st1" points="-51.2,350.6 -45.5,344.9 -39.8,350.6 	"/>
	<path class="st0" d="M-60.5,395.6v-51h-16c-2.2,0-4,1.8-4,4v52h41"/>
	<line class="st0" x1="-60.5" y1="372.6" x2="-73.5" y2="372.6"/>
	<line class="st0" x1="-60.5" y1="365.6" x2="-67.5" y2="365.6"/>
	<line class="st0" x1="-60.5" y1="358.6" x2="-67.5" y2="358.6"/>
	<line class="st0" x1="-60.5" y1="351.6" x2="-67.5" y2="351.6"/>
	<line class="st0" x1="-60.5" y1="393.6" x2="-67.5" y2="393.6"/>
	<line class="st0" x1="-60.5" y1="386.6" x2="-67.5" y2="386.6"/>
	<line class="st0" x1="-60.5" y1="379.6" x2="-67.5" y2="379.6"/>
</g>
<g>
	<line class="st1" x1="-128" y1="385.1" x2="-172" y2="385.1"/>
	<polyline class="st1" points="-167,390.7 -172.7,385.1 -167,379.4 	"/>
	<polyline class="st1" points="-133,379.4 -127.3,385.1 -133,390.7 	"/>
	<path class="st0" d="M-122,369.1v-16c0-2.2-1.8-4-4-4h-48c-2.2,0-4,1.8-4,4v16"/>
	<line class="st0" x1="-150" y1="369.1" x2="-150" y2="356.1"/>
	<line class="st0" x1="-143" y1="369.1" x2="-143" y2="362.1"/>
	<line class="st0" x1="-136" y1="369.1" x2="-136" y2="362.1"/>
	<line class="st0" x1="-129" y1="369.1" x2="-129" y2="362.1"/>
	<line class="st0" x1="-171" y1="369.1" x2="-171" y2="362.1"/>
	<line class="st0" x1="-164" y1="369.1" x2="-164" y2="362.1"/>
	<line class="st0" x1="-157" y1="369.1" x2="-157" y2="362.1"/>
	<line class="st0" x1="-178" y1="369.1" x2="-122" y2="369.1"/>
	<line class="st0" x1="-122" y1="374.1" x2="-122" y2="378.1"/>
	<line class="st0" x1="-178" y1="374.1" x2="-178" y2="378.1"/>
	<line class="st0" x1="-122" y1="383.1" x2="-122" y2="387.1"/>
	<line class="st0" x1="-178" y1="383.1" x2="-178" y2="387.1"/>
	<line class="st0" x1="-122" y1="392.1" x2="-122" y2="396.1"/>
	<line class="st0" x1="-178" y1="392.1" x2="-178" y2="396.1"/>
</g>
<g>
	<circle class="st1" cx="10.8" cy="19.6" r="4.5"/>
	<circle class="st1" cx="49.8" cy="19.6" r="4.5"/>
	<line class="st1" x1="45" y1="20.1" x2="19" y2="20.1"/>
	<path class="st1" d="M55,20.1c0,0-1,0,1,0c3,0,3-5,3-7c0-1-3-5-16-5H17c-4,0-9-6-9-6"/>
	<path class="st1" d="M36.1,1c4.3,2.3,9.2,7.1,9.2,7.1"/>
	<path class="st1" d="M6,20.1l-5-1c0,0,0-4,0-5c0-2,3-6,3-8h8"/>
	<polyline class="st1" points="24,5.1 26,8.1 26,17.1 	"/>
	<line class="st1" x1="30" y1="12.1" x2="33" y2="12.1"/>
</g>
<g>
	<circle class="st1" cx="-259.2" cy="20.1" r="4.5"/>
	<circle class="st1" cx="-220.2" cy="20.1" r="4.5"/>
	<line class="st1" x1="-225" y1="20.6" x2="-251" y2="20.6"/>
	<path class="st1" d="M-215,20.6c0,0-1,0,1,0c3,0,3-5,3-7c0-1-3-5-16-5h-26c-3,0-5.2-3-5.2-3"/>
	<path class="st1" d="M-264,20.6l-5-1c0,0,0-4,0-5c0-2,3-7,3-9h7c0,0,2-5,16-5c9,0,17.3,8,17.3,8"/>
	<polyline class="st1" points="-243,1.6 -241,8.6 -241,17.6 	"/>
	<line class="st1" x1="-237" y1="12.6" x2="-235" y2="12.6"/>
	<line class="st1" x1="-250" y1="12.6" x2="-248" y2="12.6"/>
	<line class="st1" x1="-254" y1="2.1" x2="-254" y2="13.7"/>
</g>
<g>
	<circle class="st1" cx="-169.2" cy="20.1" r="4.5"/>
	<circle class="st1" cx="-130.2" cy="20.1" r="4.5"/>
	<line class="st1" x1="-135" y1="20.6" x2="-161" y2="20.6"/>
	<path class="st1" d="M-125,20.6c0,0-1,0,1,0c3,0,3-5,3-7c0-1-3-5-16-5h-33c-3,0-7-1-7-1"/>
	<path class="st1" d="M-174,20.6l-5-1c0,0,0-4,0-5c0-2,2-5,2-7s4-7,4-7s12,0,23,0c6,0,14.3,8,14.3,8"/>
	<polyline class="st1" points="-153,1.6 -151,8.6 -151,17.6 	"/>
	<line class="st1" x1="-147" y1="12.6" x2="-145" y2="12.6"/>
	<line class="st1" x1="-161.5" y1="12.6" x2="-159.5" y2="12.6"/>
	<line class="st1" x1="-165" y1="1.6" x2="-166" y2="8.6"/>
	<line class="st1" x1="-166" y1="8.6" x2="-166" y2="12.6"/>
</g>
<g>
	<circle class="st1" cx="100.8" cy="22.1" r="4.5"/>
	<circle class="st1" cx="139.8" cy="22.1" r="4.5"/>
	<line class="st1" x1="135" y1="22.6" x2="109" y2="22.6"/>
	<path class="st1" d="M145,22.6c0,0-1,0,1,0c3,0,3-5,3-7c0-1-5-7-15-7h-34c-3,0-7-1-7-1"/>
	<path class="st1" d="M96,22.6l-5-1c0,0,0-4,0-5c0-2,2-7,2-9s5-9,9-9c1,0,8,0,19,0c8,0,17,10,17,10"/>
	<polyline class="st1" points="118,-1.4 120,7.6 120,19.6 	"/>
	<line class="st1" x1="124" y1="13.6" x2="126" y2="13.6"/>
	<line class="st1" x1="109" y1="13.6" x2="111" y2="13.6"/>
	<line class="st1" x1="107" y1="-1.4" x2="105" y2="8.6"/>
	<line class="st1" x1="105" y1="8.6" x2="105" y2="15.1"/>
</g>
<g>
	<circle class="st1" cx="-79.2" cy="20.1" r="4.5"/>
	<circle class="st1" cx="-40.2" cy="20.1" r="4.5"/>
	<line class="st1" x1="-45" y1="20.6" x2="-71" y2="20.6"/>
	<path class="st1" d="M-35,20.6c0,0-1,0,1,0c3,0,3-5,3-7c0-1-3-5-16-5h-28c-5,0-10-7-10-7"/>
	<path class="st1" d="M-84,20.6l-5-1c0,0,0-4,0-5c0-2,3-6,3-8h6c0,0,5-6,17-6c9,0,18.3,8,18.3,8"/>
	<polyline class="st1" points="-66,5.6 -64,8.6 -64,17.6 	"/>
	<line class="st1" x1="-60" y1="12.6" x2="-57" y2="12.6"/>
</g>
<g>
	<circle class="st1" cx="191.2" cy="22.8" r="4.8"/>
	<circle class="st1" cx="229.1" cy="22.8" r="5.1"/>
	<line class="st1" x1="224" y1="23.2" x2="200" y2="23.2"/>
	<path class="st1" d="M235,23.2c0,0-1,0,1,0c3,0,3-2,3-4s-2-3-2-3s0-2.9,0-4c0-2-8.6-3-15-3h-31c-3,0-8-1-8-1"/>
	<path class="st1" d="M186,23.2l-5-1c0,0,0-4,0-5c0-2,2-6,2-8c0-4,3-10,3-10s19-1,28,0c3,0.3,10,10,10,10"/>
	<polyline class="st1" points="207,-0.8 209,8.2 209,20.2 	"/>
	<line class="st1" x1="213" y1="14.2" x2="215" y2="14.2"/>
	<line class="st1" x1="198.4" y1="14.2" x2="200.6" y2="14.2"/>
	<line class="st1" x1="195" y1="-0.8" x2="194" y2="9.2"/>
	<line class="st1" x1="192" y1="-1.8" x2="192" y2="-2.8"/>
	<line class="st1" x1="209" y1="-1.8" x2="209" y2="-2.8"/>
	<line class="st1" x1="194" y1="9.2" x2="194" y2="14.7"/>
</g>
<g>
	<line class="st1" x1="181.5" y1="164.1" x2="238.5" y2="221.1"/>
	<path class="st0" d="M194.5,210.1v4c0,1.1-0.9,2-2,2h-6c-1.1,0-2-0.9-2-2v-4"/>
	<path class="st0" d="M228.4,216.1h-0.9c-1.1,0-2-0.9-2-2"/>
	<line class="st0" x1="235.5" y1="210.1" x2="235.5" y2="212.4"/>
	<path class="st0" d="M235.5,210.1c1.7,0,3-1.3,3-3v-11.4c0-2.3-0.8-4.6-2.3-6.4l-2.7-3.2"/>
	<path class="st0" d="M186.5,186.1l-2.7,3.2c-1.5,1.8-2.3,4.1-2.3,6.4v11.4c0,1.7,1.3,3,3,3"/>
	<line class="st0" x1="189.6" y1="177.8" x2="186.5" y2="186.1"/>
	<path class="st0" d="M233.5,186.1l-4.7-12.3c-1.1-2.8-3.6-4.8-6.5-5.2c-2.3-0.3-7.6-0.6-12.3-0.6s-10,0.2-12.3,0.6
		c-1.6,0.2-3,0.9-4.2,1.9"/>
	<path class="st0" d="M208.2,185.1h19.4l-3.4-8.9c-0.8-2-2.6-3.4-4.7-3.7c-1.7-0.2-6-0.4-9.4-0.4s-7.8,0.2-9.4,0.4
		c-1.3,0.2-2.5,0.8-3.4,1.7"/>
	<polyline class="st0" points="193.7,181.9 192.5,185.1 196.8,185.1 	"/>
	<circle class="st0" cx="190.5" cy="195.6" r="3"/>
	<circle class="st0" cx="229.5" cy="195.6" r="3"/>
	<line class="st0" x1="233.5" y1="186.1" x2="238.5" y2="186.1"/>
	<line class="st0" x1="181.5" y1="186.1" x2="186.5" y2="186.1"/>
	<polyline class="st0" points="210.5,199.1 199.5,199.1 199.5,205.1 216.5,205.1 	"/>
	<path class="st0" d="M200.7,177.6c0.4-0.9,1.3-1.5,2.3-1.5c1.4,0,2.5,1.1,2.5,2.5c0,1-0.6,1.9-1.5,2.3"/>
	<path class="st0" d="M213,185.1c0-2.2,1.8-4,4-4s4,1.8,4,4"/>
	<circle class="st0" cx="217" cy="178.6" r="2.5"/>
	<line class="st0" x1="190.5" y1="210.1" x2="221.5" y2="210.1"/>
</g>
<g>
	<path class="st1" d="M-403.5,384.1c0,3.3,2.7,6,6,6s6-2.7,6-6"/>
	<path class="st1" d="M-403.5,365.1c0-3.3-2.7-6-6-6"/>
	<line class="st1" x1="-403.5" y1="384.1" x2="-403.5" y2="365.1"/>
	<line class="st1" x1="-391.5" y1="384.1" x2="-391.5" y2="358.1"/>
	<circle class="st1" cx="-395" cy="358.6" r="3.5"/>
	<path class="st1" d="M-391.5,358.6c0-5.8-2-8.5-3.5-10.5"/>
	<line class="st0" x1="-404.5" y1="400.1" x2="-391.5" y2="400.1"/>
	<line class="st0" x1="-448.5" y1="400.1" x2="-409.5" y2="400.1"/>
	<g>
		<line class="st0" x1="-440.5" y1="373.1" x2="-440.5" y2="399.1"/>
		<line class="st0" x1="-417.5" y1="399.1" x2="-417.5" y2="373.1"/>
	</g>
	<path class="st0" d="M-419.5,350.1h-19c-0.6,0-1,0.4-1,1v16c0,0.6,0.4,1,1,1h19c0.6,0,1-0.4,1-1v-16
		C-418.5,350.5-418.9,350.1-419.5,350.1z"/>
	<line class="st0" x1="-433.5" y1="356.1" x2="-424.5" y2="356.1"/>
	<line class="st0" x1="-433.5" y1="362.1" x2="-424.5" y2="362.1"/>
	<path class="st0" d="M-417.5,345.1h-23c-2.2,0-4,1.8-4,4v20c0,2.2,1.8,4,4,4h23c2.2,0,4-1.8,4-4v-20
		C-413.5,346.8-415.3,345.1-417.5,345.1z"/>
	<path class="st0" d="M-429,379.1c0,0,5,6.2,5,9s-2.2,5-5,5s-5-2.2-5-5c0-1.3,1.1-3.3,2.2-5.1"/>
</g>
<g>
	<line class="st1" x1="27" y1="367.7" x2="8" y2="367.7"/>
	<polyline class="st1" points="13,373.4 7.3,367.7 13,362.1 	"/>
	<polyline class="st1" points="22,362.1 27.7,367.7 22,373.4 	"/>
	<circle class="st3" cx="11.2" cy="385.3" r="4.8"/>
	<circle class="st3" cx="50.1" cy="385.3" r="5.1"/>
	<line class="st3" x1="45" y1="385.7" x2="20" y2="385.7"/>
	<path class="st3" d="M56,385.7c0,0-1,0,1,0s2-2,2-4s-1-3-1-3v0c0-0.7,0-1,0-2c0-2-4-5-4-5"/>
	<path class="st3" d="M34,361.7h8c4,0,12,10,12,10"/>
	<path class="st3" d="M38,371.7v-7c0,0,2,0,4,0s8,7,8,7H38"/>
	<line class="st3" x1="38" y1="376.7" x2="41" y2="376.7"/>
	<line class="st3" x1="54" y1="376.7" x2="54" y2="377.7"/>
	<line class="st3" x1="2" y1="380.7" x2="9" y2="380.7"/>
	<line class="st3" x1="18" y1="380.7" x2="33" y2="380.7"/>
	<line class="st3" x1="34" y1="361.7" x2="34" y2="380.7"/>
	<path class="st3" d="M6,385.7l-5-1v-30c0,0,23,0,30,0c1,0,3,0,10,7"/>
</g>
<g>
	<circle class="st1" cx="-434.7" cy="19.6" r="4.5"/>
	<circle class="st1" cx="-402.7" cy="19.6" r="4.5"/>
	<line class="st1" x1="-407.5" y1="20.1" x2="-426.5" y2="20.1"/>
	<path class="st1" d="M-397.5,20.1c0,0-1,0,1,0c3,0,3-5,3-7c0-1-2-5-15-5h-21c-2,0-4-6-4-6"/>
	<path class="st1" d="M-444.5,19.1c0,0,0-4,0-5c0-2,3.5-4.1,4-6c1-4,2-6,2-6s6-1,17-1c5,0,13,7,13,7"/>
	<line class="st1" x1="-439.5" y1="20.1" x2="-446.5" y2="19.1"/>
	<polyline class="st1" points="-425.5,1.1 -423.5,8.1 -423.5,17.1 	"/>
	<line class="st1" x1="-419.5" y1="12.1" x2="-417.5" y2="12.1"/>
</g>
<g>
	<circle class="st1" cx="-349.2" cy="20.1" r="4.5"/>
	<circle class="st1" cx="-310.2" cy="20.1" r="4.5"/>
	<line class="st1" x1="-315" y1="20.6" x2="-341" y2="20.6"/>
	<path class="st1" d="M-305,20.6c0,0-1,0,1,0c3,0,3-5,3-7c0-1-3-5-16-5h-33c-3,0-6-1-6-1"/>
	<path class="st1" d="M-354,20.6l-5-1c0,0,0-4,0-5c0-2,3-5,3-7s3-6,3-6s11-1,22-1c6,0,15.3,8,15.3,8"/>
	<polyline class="st1" points="-339,1.6 -337,8.6 -337,17.6 	"/>
	<line class="st1" x1="-333" y1="12.6" x2="-330" y2="12.6"/>
</g>
<g>
	<circle class="st3" cx="-168.8" cy="111.8" r="4.8"/>
	<circle class="st3" cx="-129.9" cy="111.8" r="5.1"/>
	<line class="st3" x1="-135" y1="112.2" x2="-160" y2="112.2"/>
	<path class="st3" d="M-124,112.2c0,0-1,0,1,0s2-2,2-4s-1-3-1-3v0c0-0.7,0-1,0-2c0-2-4-5-4-5"/>
	<path class="st3" d="M-174,112.2l-5-1c0,0,0-2.5,0-4c0-0.7,1-1,1-1c0-2,0-6,0-8c0-2.4,0.4-5.5,0.7-7.7c0.2-1.3,1.3-2.3,2.7-2.3
		h36.7c4,0,12,10,12,10"/>
	<path class="st3" d="M-142,98.2v-7c0,0,2,0,4,0s8,7,8,7H-142"/>
	<line class="st3" x1="-142" y1="103.2" x2="-139" y2="103.2"/>
	<line class="st3" x1="-126" y1="103.2" x2="-126" y2="104.2"/>
</g>
<g>
	<circle class="st3" cx="-78.8" cy="114.3" r="4.8"/>
	<circle class="st3" cx="-39.9" cy="114.3" r="5.1"/>
	<line class="st3" x1="-45" y1="114.7" x2="-70" y2="114.7"/>
	<path class="st3" d="M-34,114.7c0,0-1,0,1,0s2-2,2-4s-1-3-1-3v0c0-0.7,0-1,0-2c0-2-4-5-4-5"/>
	<path class="st3" d="M-84,114.7l-5-1c0,0,0-2.5,0-4c0-0.7,1-1,1-1c0-2,0-8,0-10c0-2.4,0.4-8.5,0.7-10.7c0.2-1.3,1.3-2.3,2.7-2.3
		c0,0,21.7,0,28.7,0c6,0,20,15,20,15"/>
	<path class="st3" d="M-52,100.7v-7c0,0,2,0,4,0c1,0,8,7,8,7H-52"/>
	<line class="st3" x1="-52" y1="105.7" x2="-49" y2="105.7"/>
	<line class="st3" x1="-36" y1="105.7" x2="-36" y2="106.7"/>
</g>
<g>
	<circle class="st3" cx="-258.8" cy="111.8" r="4.8"/>
	<circle class="st3" cx="-219.9" cy="111.8" r="5.1"/>
	<line class="st3" x1="-225" y1="112.2" x2="-250" y2="112.2"/>
	<path class="st3" d="M-214,112.2c0,0-1,0,1,0s2-2,2-4s-1-3-1-3s0-0.9,0-2c0-2-3-4-10-5"/>
	<path class="st3" d="M-264,112.2l-5-1c0,0,0-3,0-4c0-0.4,1-1,1-1c0-2,0-6,0-8c0-2.4,0.4-5.5,0.7-7.7c0.2-1.3,1.3-2.3,2.7-2.3h24.7
		c7,0,18,10,18,10"/>
	<path class="st3" d="M-242,98.2v-7c0,0,0,0,2,0c4,0,13,7,13,7H-242"/>
	<line class="st3" x1="-241" y1="103.2" x2="-238" y2="103.2"/>
	<line class="st3" x1="-216" y1="103.2" x2="-216" y2="104.2"/>
</g>
<g>
	<circle class="st3" cx="-348.8" cy="111.8" r="4.8"/>
	<circle class="st3" cx="-309.9" cy="111.8" r="5.1"/>
	<line class="st3" x1="-315" y1="112.2" x2="-340" y2="112.2"/>
	<path class="st3" d="M-304,112.2c0,0-1,0,1,0s2-2,2-4s-1-3-1-3s0-0.9,0-2c0-2-3-4-10-5"/>
	<path class="st3" d="M-354,112.2l-5-1c0,0,0-3,0-4c0-0.4,1-1,1-1c0-2,0-2,0-4c0-3,4.8-4.1,6-7c3-7,9-7,9-7h13c7,0,18,10,18,10"/>
	<path class="st3" d="M-335,98.2v-7c0,0,3,0,5,0c4,0,13,7,13,7H-335"/>
	<line class="st3" x1="-332" y1="103.2" x2="-329" y2="103.2"/>
	<line class="st3" x1="-306" y1="103.2" x2="-306" y2="104.2"/>
</g>
<g>
	<circle class="st3" cx="101.2" cy="115.3" r="4.8"/>
	<circle class="st3" cx="140.1" cy="115.3" r="5.1"/>
	<line class="st3" x1="135" y1="115.7" x2="110" y2="115.7"/>
	<path class="st3" d="M146,115.7c0,0-1,0,1,0s2-2,2-4s-1-3-1-3v0c0-0.7,0-1,0-2c0-2-4-5-4-5"/>
	<path class="st3" d="M124,91.7h8c4,0,12,10,12,10"/>
	<path class="st3" d="M128,101.7v-7c0,0,2,0,4,0s8,7,8,7H128"/>
	<line class="st3" x1="128" y1="106.7" x2="131" y2="106.7"/>
	<line class="st3" x1="144" y1="106.7" x2="144" y2="107.7"/>
	<line class="st3" x1="92" y1="110.7" x2="99" y2="110.7"/>
	<line class="st3" x1="108" y1="110.7" x2="123" y2="110.7"/>
	<line class="st3" x1="124" y1="91.7" x2="124" y2="110.7"/>
	<path class="st3" d="M96,115.7l-5-1v-30c0,0,23,0,30,0c1,0,3,0,10,7"/>
</g>
<g>
	<circle class="st3" cx="-346.8" cy="201.8" r="4.8"/>
	<circle class="st3" cx="-309.9" cy="201.8" r="5.1"/>
	<line class="st3" x1="-315" y1="202.2" x2="-338" y2="202.2"/>
	<path class="st3" d="M-304,202.2c0,0-1,0,1,0s2-2,2-4s-1-3-1-3v0c0-0.7,0-1,0-2c0-2-4-5-4-5"/>
	<path class="st3" d="M-326,178.2h8c4,0,12,10,12,10"/>
	<path class="st3" d="M-322,188.2v-7c0,0,2,0,4,0s8,7,8,7H-322"/>
	<line class="st3" x1="-322" y1="193.2" x2="-319" y2="193.2"/>
	<line class="st3" x1="-306" y1="193.2" x2="-306" y2="194.2"/>
	<line class="st3" x1="-359" y1="197.2" x2="-349" y2="197.2"/>
	<line class="st3" x1="-340" y1="197.2" x2="-326" y2="197.2"/>
	<line class="st3" x1="-326" y1="178.2" x2="-326" y2="197.2"/>
	<polyline class="st3" points="-359,197.2 -359,191.2 -326,191.2 	"/>
	<polyline class="st3" points="-352,202.2 -356,201.2 -356,197.2 	"/>
</g>
<g>
	<circle class="st3" cx="191.2" cy="111.8" r="4.8"/>
	<circle class="st3" cx="230.1" cy="111.8" r="5.1"/>
	<line class="st3" x1="225" y1="112.2" x2="200" y2="112.2"/>
	<path class="st3" d="M236,112.2c0,0-1,0,1,0s2-2,2-4s-1-3-1-3v0c0-0.7,0-1,0-2c0-2-4-5-4-5"/>
	<path class="st3" d="M186,112.2l-5-1c0,0,0-2.5,0-4c0-0.7,1-1,1-1c0-2,0-6,0-8c0-2.4,0.4-5.5,0.7-7.7c0.2-1.3,1.3-2.3,2.7-2.3H222
		c4,0,12,10,12,10"/>
	<path class="st3" d="M218,98.2v-7c0,0,2,0,4,0s8,7,8,7H218"/>
	<line class="st3" x1="218" y1="103.2" x2="221" y2="103.2"/>
	<line class="st3" x1="211" y1="103.2" x2="214" y2="103.2"/>
	<line class="st3" x1="234" y1="103.2" x2="234" y2="104.2"/>
	<rect x="203" y="91.2" class="st3" width="11" height="7"/>
	<path class="st3" d="M188,98.2c2,0,11,0,11,0v-7h-10C189,91.2,188,95.2,188,98.2z"/>
</g>
<g>
	<circle class="st3" cx="-256.8" cy="205.8" r="4.8"/>
	<circle class="st3" cx="-219.9" cy="205.8" r="5.1"/>
	<line class="st3" x1="-225" y1="206.2" x2="-248" y2="206.2"/>
	<path class="st3" d="M-214,206.2c0,0-1,0,1,0s2-2,2-4s-1-3-1-3v0c0-0.7,0-1,0-2c0-2-4-5-4-5"/>
	<path class="st3" d="M-236,182.2h8c4,0,12,10,12,10"/>
	<path class="st3" d="M-232,192.2v-7c0,0,2,0,4,0s8,7,8,7H-232"/>
	<line class="st3" x1="-232" y1="197.2" x2="-229" y2="197.2"/>
	<line class="st3" x1="-216" y1="197.2" x2="-216" y2="198.2"/>
	<line class="st3" x1="-269" y1="201.2" x2="-259" y2="201.2"/>
	<line class="st3" x1="-250" y1="201.2" x2="-236" y2="201.2"/>
	<line class="st3" x1="-236" y1="182.2" x2="-236" y2="201.2"/>
	<polyline class="st3" points="-269,201.2 -269,188.2 -242,188.2 -242,174.2 -219,174.2 -219,182.2 	"/>
	<polyline class="st3" points="-262,206.2 -266,205.2 -266,201.2 	"/>
	<line class="st3" x1="-219" y1="182.2" x2="-229" y2="182.2"/>
</g>
<g>
	<g>
		<circle class="st3" cx="-438.8" cy="200.8" r="4.8"/>
		<circle class="st3" cx="-400.9" cy="200.8" r="5.1"/>
		<line class="st3" x1="-406" y1="201.2" x2="-430" y2="201.2"/>
		<path class="st3" d="M-422,179.3c0,0,7.8-0.1,9.3,0.1c2.6,0.3,8.7,7.9,8.7,7.9"/>
		<path class="st3" d="M-444,201.2l-5-1c0,0,0-4,0-5c0-2,1-6,1-8h40c6.4,0,15,2,15,4c0,1.1,0,4,0,4s2,1,2,3s0,3-3,3c-2,0-1,0-1,0"/>
		<polyline class="st3" points="-422,179.2 -422,185 -422,201.2 		"/>
		<line class="st3" x1="-418" y1="192.2" x2="-415" y2="192.2"/>
		<line class="st3" x1="-418" y1="179.2" x2="-418" y2="186.2"/>
		<line class="st3" x1="-449" y1="197.2" x2="-443" y2="197.2"/>
		<line class="st3" x1="-431" y1="197.2" x2="-422" y2="197.2"/>
	</g>
	<line class="st3" x1="-396" y1="192.2" x2="-396" y2="193.2"/>
</g>
<g>
	<circle class="st3" cx="13.5" cy="112.5" r="4.1"/>
	<circle class="st3" cx="50.4" cy="112.5" r="4.4"/>
	<line class="st3" x1="46.1" y1="112.9" x2="22" y2="112.9"/>
	<path class="st3" d="M55.4,112.9c0,0,0.1,0,1.9,0s1.7-1.7,1.7-3.4s-0.9-2.6-0.9-2.6v0c0-0.6,0-0.9,0-1.7c0-1.7-3.4-4.3-3.4-4.3"/>
	<path class="st3" d="M9.1,112.9L1,112.1c0,0,0-2.1,0-3.4c0-0.6,0.9-0.9,0.9-0.9c0-1.7,0-6.8,0-8.5c0-2.1,0.3-7.3,0.6-9.1
		c0.2-1.1,1.1-2,2.3-2c0,0,27.1,0,33,0c5.1,0,17,12.8,17,12.8"/>
	<path class="st3" d="M40.1,101v-6c0,0,1.7,0,3.4,0c0.9,0,6.8,6,6.8,6H40.1"/>
	<line class="st3" x1="40.1" y1="105.3" x2="42.7" y2="105.3"/>
	<line class="st3" x1="54.7" y1="105.3" x2="54.7" y2="106.1"/>
</g>
<g>
	<circle class="st3" cx="-438.8" cy="111.8" r="4.8"/>
	<circle class="st3" cx="-399.9" cy="111.8" r="5.1"/>
	<line class="st3" x1="-405" y1="112.2" x2="-430" y2="112.2"/>
	<path class="st3" d="M-394,112.2c0,0-1,0,1,0s2-2,2-4s-1-3-1-3v0c0-0.7,0-1,0-2c0-2-4-5-4-5"/>
	<path class="st3" d="M-444,112.2l-5-1c0,0,0-2.5,0-4c0-0.7,1-1,1-1c0-2,0-6,0-8c0-2.4,0.4-5.5,0.7-7.7c0.2-1.3,1.3-2.3,2.7-2.3
		h36.7c4,0,12,10,12,10"/>
	<path class="st3" d="M-412,98.2v-7c0,0,2,0,4,0s8,7,8,7H-412"/>
	<line class="st3" x1="-412" y1="103.2" x2="-409" y2="103.2"/>
	<line class="st3" x1="-426" y1="103.2" x2="-423" y2="103.2"/>
	<line class="st3" x1="-396" y1="103.2" x2="-396" y2="104.2"/>
	<rect x="-426" y="91.2" class="st3" width="10" height="7"/>
</g>
<g>
	
		<ellipse transform="matrix(0.7844 -0.6202 0.6202 0.7844 -194.0247 200.918)" class="st1" cx="192" cy="379.6" rx="10.5" ry="10.5"/>
	<ellipse transform="matrix(0.7844 -0.6202 0.6202 0.7844 -194.0247 200.918)" class="st1" cx="192" cy="379.6" rx="2.5" ry="2.5"/>
	<circle class="st0" cx="223" cy="359.6" r="2.5"/>
	<circle class="st0" cx="223" cy="352.1" r="0"/>
	<ellipse transform="matrix(0.7071 -0.7071 0.7071 0.7071 -186.731 257.6896)" class="st0" cx="217.7" cy="354.2" rx="0" ry="0"/>
	<circle class="st0" cx="215.5" cy="359.6" r="0"/>
	<ellipse transform="matrix(0.7071 -0.7071 0.7071 0.7071 -194.236 260.7983)" class="st0" cx="217.7" cy="364.9" rx="0" ry="0"/>
	<circle class="st0" cx="223" cy="367.1" r="0"/>
	<ellipse transform="matrix(0.7071 -0.7071 0.7071 0.7071 -191.1273 268.3033)" class="st0" cx="228.3" cy="364.9" rx="0" ry="0"/>
	<circle class="st0" cx="230.5" cy="359.6" r="0"/>
	<ellipse transform="matrix(0.7071 -0.7071 0.7071 0.7071 -183.6223 265.1946)" class="st0" cx="228.3" cy="354.2" rx="0" ry="0"/>
	<circle class="st0" cx="223" cy="359.6" r="11.5"/>
	<path class="st1" d="M197.9,382.3c-0.4,0.9-1,1.7-1.9,2.4"/>
	<path class="st1" d="M186.9,383.6c-2.2-2.8-1.7-6.9,1.1-9.1s6.9-1.7,9.1,1.1c0.8,1,1.2,2.1,1.4,3.3"/>
	<circle class="st0" cx="232.5" cy="395.1" r="6"/>
	<line class="st0" x1="211.5" y1="349.1" x2="184.5" y2="372.1"/>
	<line class="st0" x1="238.5" y1="359.1" x2="238.5" y2="395.1"/>
	<line class="st0" x1="190.5" y1="390.1" x2="231.5" y2="401.1"/>
	<line class="st0" x1="232.5" y1="395.1" x2="232.5" y2="395.1"/>
	<circle class="st0" cx="223" cy="359.6" r="15.5"/>
	<path class="st0" d="M190.3,389.9c-5-0.8-8.8-5.2-8.8-10.4c0-3,1.3-5.7,3.3-7.6"/>
</g>
<g>
	<polygon class="st0" points="-394.5,484.1 -391.5,484.1 -391.5,454.1 -394.5,454.1 -398.5,465.1 -398.5,478.1 	"/>
	<rect x="-444.5" y="459.1" class="st0" width="5" height="18"/>
	<line class="st0" x1="-448.5" y1="474.1" x2="-448.5" y2="462.1"/>
	<line class="st0" x1="-448.5" y1="468.1" x2="-445.5" y2="468.1"/>
	<line class="st0" x1="-398.5" y1="478.1" x2="-403.5" y2="478.1"/>
	<line class="st0" x1="-398.5" y1="465.1" x2="-403.5" y2="465.1"/>
	<polygon class="st0" points="-439.5,453.1 -439.5,477.1 -434.5,484.1 -407.5,484.1 -403.5,478.1 -403.5,465.1 -406.5,459.1 
		-410.5,459.1 -410.5,453.1 	"/>
	<polyline class="st0" points="-421.5,448.1 -414.5,448.1 -414.5,441.1 -434.5,441.1 -434.5,448.1 -427.5,448.1 	"/>
	<line class="st0" x1="-429.5" y1="448.1" x2="-429.5" y2="453.1"/>
	<line class="st0" x1="-419.5" y1="448.1" x2="-419.5" y2="453.1"/>
	<line class="st0" x1="-410.5" y1="459.1" x2="-410.5" y2="465.1"/>
	<line class="st0" x1="-410.5" y1="469.1" x2="-410.5" y2="472.1"/>
	<polyline class="st1" points="-427.5,459.1 -420.5,459.1 -423.5,466.1 -417.5,466.1 -426.5,479.1 -424.5,469.1 -431.5,469.1 
		-428.7,462.1 	"/>
</g>
<g>
	<circle class="st0" cx="120" cy="372.6" r="28.5"/>
	<circle class="st0" cx="120" cy="372.6" r="22.5"/>
	<path class="st0" d="M124.5,390.5c-1.4,0.4-2.9,0.5-4.5,0.5c-1.5,0-3.1-0.2-4.5-0.5"/>
	<path class="st0" d="M136.7,364.6c1.2,2.4,1.8,5.1,1.8,8c0,0.9-0.1,1.7-0.2,2.6"/>
	<path class="st0" d="M142.3,375.3c-0.8-0.1-1.5-0.2-2.3-0.2c-8.6,0-15.5,6.9-15.5,15.5c0,1.4,0.2,2.7,0.5,3.9"/>
	<path class="st0" d="M115,394.5c0.3-1.3,0.5-2.6,0.5-3.9c0-8.6-6.9-15.5-15.5-15.5c-0.8,0-1.6,0.1-2.3,0.2"/>
	<path class="st0" d="M98.3,366.5c6.3-2.8,13.7-4.4,21.7-4.4s15.4,1.6,21.7,4.4"/>
	<circle class="st1" cx="120" cy="372.6" r="4.5"/>
	<path class="st0" d="M101.7,375c-0.1-0.8-0.2-1.6-0.2-2.5c0-2.9,0.6-5.6,1.8-8"/>
</g>
<g>
	<g>
		<circle class="st3" cx="-349.2" cy="481.6" r="4.5"/>
		<circle class="st3" cx="-310.2" cy="481.6" r="4.5"/>
		<line class="st3" x1="-315" y1="482.1" x2="-341" y2="482.1"/>
		<path class="st3" d="M-305,482.1c0,0-1,0,1,0c3,0,3-5,3-7c0-1-3-5-16-5h-33c-3,0-7-1-7-1"/>
		<path class="st3" d="M-354,482.1l-5-1c0,0,0-4,0-5c0-2,2-5,2-7s4-7,4-7s12,0,23,0c6,0,14.3,8,14.3,8"/>
		<polyline class="st3" points="-333,463.1 -331,470.1 -331,479.1 		"/>
		<line class="st3" x1="-327" y1="474.1" x2="-325" y2="474.1"/>
		<line class="st3" x1="-341.5" y1="474.1" x2="-339.5" y2="474.1"/>
		<line class="st3" x1="-345" y1="463.1" x2="-346" y2="470.1"/>
		<line class="st3" x1="-346" y1="470.1" x2="-346" y2="474.1"/>
	</g>
	<circle class="st1" cx="-351.3" cy="452.3" r="4.8"/>
	<circle class="st1" cx="-332.3" cy="452.3" r="4.8"/>
	<line class="st1" x1="-351.3" y1="452.3" x2="-343" y2="452.3"/>
	<line class="st1" x1="-345.4" y1="445.1" x2="-351.3" y2="452.3"/>
	<line class="st1" x1="-343" y1="452.3" x2="-346.6" y2="441.6"/>
	<line class="st1" x1="-332.3" y1="452.3" x2="-335.8" y2="440.4"/>
	<line class="st1" x1="-343" y1="452.3" x2="-335.8" y2="444"/>
	<line class="st1" x1="-345.4" y1="445.1" x2="-335.8" y2="444"/>
	<line class="st1" x1="-350.1" y1="440.4" x2="-344.2" y2="441.6"/>
	<line class="st1" x1="-335.8" y1="440.4" x2="-333.5" y2="439.1"/>
	<line class="st3" x1="-332" y1="460.1" x2="-332" y2="462.1"/>
	<line class="st3" x1="-351" y1="460.1" x2="-351" y2="462.1"/>
</g>
<g>
	<path class="st0" d="M-257.5,483.1v5c0,1.1-0.9,2-2,2h-4c-1.1,0-2-0.9-2-2v-5"/>
	<line class="st0" x1="-260.5" y1="483.1" x2="-242.1" y2="483.1"/>
	<path class="st0" d="M-265.5,483.1c-1.7,0-3-1.3-3-3v-8.5c0-1.9,0.2-3.9,0.6-5.8l5.3-25.5c0.6-3.1,3.4-5.3,6.5-5.3h15.6"/>
	<path class="st0" d="M-214,461.4l-4.4-21.1c-0.6-3.1-3.4-5.3-6.5-5.3h-15.6"/>
	<line class="st0" x1="-268.5" y1="455.1" x2="-266.5" y2="455.1"/>
	<line class="st0" x1="-214.5" y1="455.1" x2="-212.5" y2="455.1"/>
	<path class="st0" d="M-242.5,469.1c-3,0-8-1-8-1l1.2,4.3c0.5,1.6,1.9,2.7,3.6,2.7h2.2"/>
	<circle class="st0" cx="-249" cy="451.6" r="2.5"/>
	<path class="st0" d="M-235,458.1c0-2.2,1.8-4,4-4s4,1.8,4,4"/>
	<path class="st0" d="M-253,458.1c0-2.2,1.8-4,4-4s4,1.8,4,4"/>
	<circle class="st0" cx="-231" cy="451.6" r="2.5"/>
	<circle class="st1" cx="-225.5" cy="476.1" r="14"/>
	<g>
		<line class="st1" x1="-225.5" y1="480.1" x2="-225.5" y2="477.1"/>
		<line class="st1" x1="-225.5" y1="484.1" x2="-225.5" y2="484.1"/>
		<path class="st1" d="M-225.5,469.1c2.2,0,4,1.8,4,4s-1.8,4-4,4"/>
		<path class="st1" d="M-228.7,470.6c0.7-0.9,1.9-1.6,3.2-1.6"/>
	</g>
	<path class="st0" d="M-267.5,464.1c0,0,2,2,10,3v1.7c0,1.3-1,2.3-2.3,2.3h-7.7"/>
	<path class="st0" d="M-220.5,458.1h-40l2.4-12c0.3-1.7,1.9-3,3.6-3h28c1.8,0,3.3,1.2,3.6,3L-220.5,458.1z"/>
	<line class="st0" x1="-243.5" y1="479.1" x2="-264.5" y2="479.1"/>
	<line class="st0" x1="-242.5" y1="446.1" x2="-237.5" y2="446.1"/>
</g>
<g>
	<path class="st0" d="M-345.5,568.6v5c0,1.1-0.9,2-2,2h-6c-1.1,0-2-0.9-2-2v-5"/>
	<path class="st0" d="M-302.2,550.6c-0.4-1-0.9-1.9-1.6-2.8l-2.7-3.2"/>
	<line class="st0" x1="-349.5" y1="568.6" x2="-329.1" y2="568.6"/>
	<path class="st0" d="M-353.5,544.6l-2.7,3.2c-1.5,1.8-2.3,4.1-2.3,6.4v11.4c0,1.7,1.3,3,3,3"/>
	<path class="st0" d="M-306.5,544.6l-4.7-12.3c-1.1-2.8-3.6-4.8-6.5-5.2c-2.3-0.3-7.6-0.6-12.3-0.6s-10,0.2-12.3,0.6
		c-3,0.4-5.5,2.4-6.5,5.2l-4.7,12.3"/>
	<path class="st0" d="M-311.1,544.6l-3.6-9.5c-0.8-2.2-2.8-3.7-5.1-4c-1.8-0.2-6.5-0.4-10.2-0.4s-8.4,0.2-10.2,0.4
		c-2.3,0.3-4.2,1.8-5.1,4l-3.6,9.5H-311.1z"/>
	<circle class="st0" cx="-349.5" cy="554.1" r="3"/>
	<line class="st0" x1="-306.5" y1="544.6" x2="-301.5" y2="544.6"/>
	<line class="st0" x1="-358.5" y1="544.6" x2="-353.5" y2="544.6"/>
	<polyline class="st0" points="-329.5,557.6 -340.5,557.6 -340.5,563.6 -329.5,563.6 	"/>
	<circle class="st0" cx="-337" cy="537.1" r="2.5"/>
	<path class="st0" d="M-327,543.6c0-2.2,1.8-4,4-4s4,1.8,4,4"/>
	<path class="st0" d="M-341,543.6c0-2.2,1.8-4,4-4s4,1.8,4,4"/>
	<circle class="st0" cx="-323" cy="537.1" r="2.5"/>
	<g>
		<g>
			<g>
				<path class="st1" d="M-325.5,555.6v7.6c0,3.5,1.2,6.8,3.5,9.8c2.3,2.9,5.1,4.8,8.5,5.6c3.4-0.8,6.2-2.7,8.5-5.6
					c2.3-2.9,3.5-6.2,3.5-9.8v-7.6l-12-5.1L-325.5,555.6z"/>
			</g>
		</g>
	</g>
	<line class="st1" x1="-315.5" y1="570.6" x2="-311.5" y2="570.6"/>
	<polyline class="st1" points="-313.5,570.6 -313.5,562.6 -315.5,562.6 	"/>
	<line class="st1" x1="-313.5" y1="558.6" x2="-313.5" y2="558.6"/>
</g>
<g>
	<path class="st1" d="M138.8,452.8l-14.3-14.3c-1.8-1.8-4.7-1.8-6.5,0c0,0,0,0,0,0l-25.2,25.2c-1.8,1.8-1.8,4.7,0,6.5c0,0,0,0,0,0
		l7.7,7.7"/>
	<path class="st0" d="M107.4,456.8h38.1c1.6,0,2.9,1.3,2.9,2.9V485c0,1.6-1.3,2.9-2.9,2.9h-38.1c-1.6,0-2.9-1.3-2.9-2.9v-25.2
		C104.5,458.1,105.8,456.8,107.4,456.8z"/>
	<line class="st0" x1="104.5" y1="463.4" x2="148.5" y2="463.4"/>
	<line class="st0" x1="104.5" y1="469.7" x2="148.5" y2="469.7"/>
	<line class="st0" x1="110.9" y1="476.1" x2="119.5" y2="476.1"/>
	<line class="st0" x1="110.9" y1="482.3" x2="116.3" y2="482.3"/>
	<line class="st0" x1="123.8" y1="476.1" x2="129.2" y2="476.1"/>
	<line class="st1" x1="126.5" y1="440.7" x2="114" y2="453.2"/>
	<line class="st1" x1="101" y1="466.2" x2="95.5" y2="471.7"/>
	<line class="st1" x1="130.5" y1="444.7" x2="122" y2="453.2"/>
	<line class="st1" x1="100.5" y1="474.7" x2="99" y2="476.2"/>
</g>
<g>
	<path class="st0" d="M-255.9,524.2c-1.1,0-2.2,0.2-3.3,0.4l5.8,5.8l-0.1,8.7l-8.7,0.1l-5.8-5.8c-0.3,1-0.4,2.1-0.4,3.3
		c0,6.9,5.6,12.5,12.5,12.5s12.5-5.6,12.5-12.5S-249,524.2-255.9,524.2z"/>
	<g>
		<path class="st0" d="M-244.4,542.2l31.5,31.5c1.7,1.7,1.7,4.3,0,6l0,0c-1.7,1.7-4.3,1.7-6,0l-31.5-31.5"/>
	</g>
	<line class="st0" x1="-216.3" y1="576.2" x2="-216.3" y2="576.2"/>
	<path class="st1" d="M-239.8,541.2c6.4,0,11.5,5.1,11.5,11.5"/>
	<path class="st1" d="M-239.8,564.2c-6.4,0-11.5-5.1-11.5-11.5"/>
	<path class="st1" d="M-220.9,560.5c0.5-1.2,0.9-2.5,1.2-3.8l4.4-0.8v-6.5l-4.4-0.8c-0.5-2.6-1.6-5.1-3-7.2l2.6-3.7l-4.6-4.6
		l-3.7,2.6c-2.2-1.4-4.6-2.5-7.2-3l-0.8-4.4h-5.5"/>
	<path class="st1" d="M-264.3,550.4v5.5l4.4,0.8c0.5,2.6,1.6,5.1,3,7.2l-2.6,3.7l4.6,4.6l3.7-2.6c2.2,1.4,4.6,2.5,7.2,3l0.8,4.4h6.5
		l0.8-4.4c1.2-0.2,2.4-0.6,3.5-1.1"/>
</g>
<g>
	<g>
		<circle class="st3" cx="207.1" cy="477.5" r="6"/>
		<path class="st3" d="M207.1,475.1c1.4,0,2.5,1.1,2.5,2.5c0,1.4-1.1,2.5-2.5,2.5s-2.5-1.1-2.5-2.5"/>
		<line class="st3" x1="200.7" y1="478.2" x2="181.6" y2="478.2"/>
		<path class="st3" d="M214.2,478.2c0,0-1.3,0,1.3,0c4,0,4-6.7,4-9.4c0-1.3-2.7-6.7-20.2-6.7h-17.7"/>
		<path class="st3" d="M181.4,451.2c6.7,0,15.6,10.8,15.6,10.8"/>
		<line class="st3" x1="181.8" y1="467.4" x2="185.8" y2="467.4"/>
	</g>
	<line class="st3" x1="181.6" y1="474.5" x2="201.6" y2="474.5"/>
	<line class="st3" x1="212.6" y1="474.5" x2="218.6" y2="474.5"/>
	<path class="st3" d="M216.6,465.5h-3.5c-0.8,0-1.5,0.7-1.5,1.5l0,0c0,0.8,0.7,1.5,1.5,1.5h6.5"/>
	<path class="st3" d="M216.6,447.5c-1.1-0.7-7.2-1.3-16.4,13.7"/>
	<line class="st3" x1="191.6" y1="456.5" x2="189.6" y2="461.5"/>
	<circle class="st1" cx="236.1" cy="444" r="2.5"/>
	<path class="st1" d="M225.2,461.1c1,2,3,3.4,5.4,3.4c3.3,0,6-2.7,6-6c0-3.3-2.7-6-6-6c-2.6,0-4.9,1.7-5.7,4"/>
	<path class="st1" d="M231.6,452.6C231.6,452.6,231.6,452.6,231.6,452.6c0-3.4-2.7-6.1-6-6.1s-6,2.7-6,6c0,1.4,0.5,2.7,1.3,3.7
		c-1.3,0.5-2.3,1.8-2.3,3.3c0,1.9,1.6,3.5,3.5,3.5c1.4,0,2.5-0.8,3.1-1.9c1,2,3,3.4,5.4,3.4c3.3,0,6-2.7,6-6
		C236.6,455.6,234.4,453.1,231.6,452.6z"/>
</g>
<g>
	<path class="st0" d="M-63.3,444c0-1.8,1.5-3.2,3.2-3.2c1.8,0,3.2,1.5,3.2,3.2"/>
	<path class="st0" d="M-56.8,459.5c0-1.8,1.5-3.2,3.2-3.2c1.8,0,3.2,1.5,3.2,3.2"/>
	<path class="st0" d="M-68.5,463.9c0-2.9,2.3-5.2,5.2-5.2"/>
	<path class="st0" d="M-50.4,460.8c0-1.8,1.5-3.2,3.2-3.2c1.8,0,3.2,1.5,3.2,3.2"/>
	<path class="st0" d="M-43.9,463.4c0-1.8,1.5-3.2,3.2-3.2c1.8,0,3.2,1.5,3.2,3.2"/>
	<line class="st0" x1="-63.3" y1="444" x2="-63.3" y2="468"/>
	<line class="st0" x1="-56.8" y1="444" x2="-56.8" y2="462.8"/>
	<line class="st0" x1="-50.4" y1="459.5" x2="-50.4" y2="462.8"/>
	<line class="st0" x1="-43.9" y1="460.8" x2="-43.9" y2="464.7"/>
	<path class="st0" d="M-68.5,472.5c0,8.6,7,15.6,15.6,15.6s15.6-7,15.6-15.6"/>
	<path class="st0" d="M-37.4,468.4c0,2.8,0,3.7,0,3.7S-37.4,471.2-37.4,468.4c0-2.8,0-5,0-5S-37.4,465.7-37.4,468.4z"/>
	<line class="st0" x1="-68.5" y1="463.9" x2="-68.5" y2="472.6"/>
	<circle class="st1" cx="-81" cy="444.6" r="7.5"/>
	<circle class="st1" cx="-39" cy="444.6" r="7.5"/>
	<path class="st1" d="M-66.9,447.5c-0.4-0.9-0.6-1.9-0.6-2.9c0-1,0.2-2,0.6-2.9c0.4-0.9,0.9-1.7,1.6-2.4c0.7-0.7,1.5-1.2,2.4-1.6
		c0.9-0.4,1.9-0.6,2.9-0.6s2,0.2,2.9,0.6c0.9,0.4,1.7,0.9,2.4,1.6c0.7,0.7,1.2,1.5,1.6,2.4c0.4,0.9,0.6,1.9,0.6,2.9
		c0,1-0.2,2-0.6,2.9"/>
</g>
<g>
	<polyline class="st0" points="24.5,468.7 24.5,490.7 5.5,477.7 5.5,469.7 	"/>
	<polygon class="st0" points="20.5,479.7 1.5,466.7 5.5,455.7 24.5,468.7 	"/>
	<polyline class="st0" points="54.5,468.7 54.5,477.7 24.5,490.7 24.5,468.7 	"/>
	<polygon class="st0" points="58.5,466.7 28.5,479.7 24.5,468.7 54.5,455.7 	"/>
	<path class="st1" d="M24.6,463.7c0.8-7.9,6-16.2,12.4-19.3c6.7-3.2,12.1,0.6,12.5,8.4"/>
	<path class="st1" d="M31.3,460.8c0.6-3.4,2.9-6.8,5.7-8.1c2.9-1.4,5.3,0.1,5.7,3.2"/>
	<line class="st1" x1="31.9" y1="435.7" x2="44.5" y2="443.7"/>
	<g>
		<polyline class="st1" points="25.3,435.1 27,437.9 30.3,438.2 32,441.1 35.4,441.4 37.1,444.3 		"/>
	</g>
	<g>
		<polyline class="st1" points="13.3,449.1 15,451.9 18.3,452.2 20,455.1 23.4,455.4 25.1,458.3 		"/>
	</g>
	<g>
		<polyline class="st1" points="17.3,440.1 19,442.9 22.3,443.2 24,446.1 27.4,446.4 29.1,449.3 		"/>
	</g>
	<path class="st1" d="M11,454.5c0.7-7.8,5.9-16,12.2-19c3.4-1.6,6.4-1.4,8.7,0.2"/>
</g>
<g>
	<path class="st0" d="M-125.5,531.5h-34"/>
	<path class="st0" d="M-159.1,531.5h-15.4c-2.2,0-4,1.8-4,4v43.9h57v-43.9c0-2.2-1.8-4-4-4l0,0"/>
	<line class="st0" x1="-178.5" y1="573.8" x2="-121.5" y2="573.8"/>
	<path class="st0" d="M-170.5,531.5c0-3.1,2.6-5.7,5.7-5.7c3.1,0,5.7,2.6,5.7,5.7c0,3.1-2.6,5.7-5.7,5.7"/>
	<path class="st0" d="M-140.9,531.5c0-3.1,2.6-5.7,5.7-5.7c3.1,0,5.7,2.6,5.7,5.7c0,3.1-2.6,5.7-5.7,5.7"/>
	<circle class="st1" cx="-150" cy="547" r="2.3"/>
	<circle class="st1" cx="-140.9" cy="547" r="2.3"/>
	<circle class="st1" cx="-131.8" cy="547" r="2.3"/>
	<circle class="st1" cx="-150" cy="556.1" r="2.3"/>
	<circle class="st1" cx="-140.9" cy="556.1" r="2.3"/>
	<circle class="st1" cx="-131.8" cy="556.1" r="2.3"/>
	<circle class="st1" cx="-168.2" cy="556.1" r="2.3"/>
	<circle class="st1" cx="-159.1" cy="556.1" r="2.3"/>
	<circle class="st1" cx="-150" cy="565.2" r="2.3"/>
	<circle class="st1" cx="-140.9" cy="565.2" r="2.3"/>
	<circle class="st1" cx="-168.2" cy="565.2" r="2.3"/>
	<circle class="st1" cx="-159.1" cy="565.2" r="2.3"/>
	<line class="st1" x1="-133.5" y1="563.1" x2="-129.5" y2="567.1"/>
	<line class="st1" x1="-129.5" y1="563.1" x2="-133.5" y2="567.1"/>
</g>
<g>
	<path class="st0" d="M-152.6,460.4c1.1-0.5,1.9-1.5,2.1-2.7c1.4-6.3,1.6-12.8,0.8-19.2c-0.2-1.8-1.5-3.2-3.2-3.5
		c-7.4-1.5-15-1.5-22.4,0c-1.7,0.3-2.9,1.7-3.2,3.4c-1.1,6.5-0.8,13.1,0.9,19.5c0.3,1.1,1,2,2.1,2.5c0,0,4.4,2.2,11.3,2.2
		S-152.6,460.4-152.6,460.4z"/>
	<path class="st0" d="M-169.1,462.6l-0.1,23.7l5,5l5.2-5l0-23.7"/>
	<circle class="st0" cx="-164.1" cy="443.6" r="3"/>
	<line class="st0" x1="-165.1" y1="483.6" x2="-165.1" y2="462.6"/>
	<path class="st1" d="M-145.8,442.7l17,17c1.6,1.6,1.6,4.1,0,5.7l-10.1,10.1c-1.5,1.5-4,1.6-5.5,0.1l-10-10.2"/>
	<path class="st1" d="M-126.6,457.5c2.8,2.8,2.8,7.3,0,10.1"/>
	<path class="st1" d="M-124.1,455c4.2,4.2,4.2,10.9,0,15.1"/>
	
		<rect x="-142.7" y="462.6" transform="matrix(0.7071 -0.7071 0.7071 0.7071 -369.2594 37.6143)" class="st1" width="6.9" height="3.8"/>
	<path class="st1" d="M-144.5,462.8c-1-1-1-2.6,0-3.5c1-1,2.6-1,3.5,0"/>
	<line class="st1" x1="-144.5" y1="462.8" x2="-143" y2="464.3"/>
	<line class="st1" x1="-141.3" y1="448.3" x2="-145.3" y2="452.3"/>
</g>
<g>
	<line class="st0" x1="-448" y1="556.6" x2="-442" y2="556.6"/>
	<line class="st0" x1="-444.6" y1="570.4" x2="-442.8" y2="569.4"/>
	<line class="st0" x1="-396.9" y1="571.2" x2="-398.7" y2="570.2"/>
	<line class="st0" x1="-393" y1="557.6" x2="-399" y2="557.6"/>
	<line class="st0" x1="-396.4" y1="543.7" x2="-398.2" y2="544.7"/>
	<line class="st0" x1="-420" y1="529.6" x2="-420" y2="535.6"/>
	<line class="st0" x1="-433.8" y1="533" x2="-432.8" y2="534.7"/>
	<line class="st0" x1="-444.1" y1="542.9" x2="-442.3" y2="543.9"/>
	<path class="st1" d="M-408.1,536.5L-408.1,536.5c-0.6-0.4-1.4-0.2-1.8,0.3l-13.9,16.7c-2,2.4-1.3,6,1.5,7.6l0,0
		c2.8,1.6,6.3,0.4,7.4-2.5l7.5-20.4C-407.2,537.6-407.5,536.9-408.1,536.5z"/>
	<g>
		<path class="st0" d="M-392,556.6c0-15.5-12.5-28-28-28s-28,12.5-28,28c0,7.8,3.2,14.9,8.4,20h39.2
			C-395.2,571.5-392,564.4-392,556.6z"/>
	</g>
	<line class="st0" x1="-430" y1="567.6" x2="-430" y2="570.6"/>
	<line class="st0" x1="-425" y1="567.6" x2="-425" y2="570.6"/>
	<line class="st0" x1="-420" y1="567.6" x2="-420" y2="570.6"/>
	<line class="st0" x1="-415" y1="567.6" x2="-415" y2="570.6"/>
	<line class="st0" x1="-410" y1="569.6" x2="-410" y2="570.6"/>
</g>
</svg>
