<?xml version="1.0" encoding="utf-8"?>
<!-- Generator: Adobe Illustrator 21.1.0, SVG Export Plug-In . SVG Version: 6.00 Build 0)  -->
<svg version="1.1" id="Layer_1" xmlns="http://www.w3.org/2000/svg" xmlns:xlink="http://www.w3.org/1999/xlink" x="0px" y="0px"
	 viewBox="0 0 59 59.3" style="enable-background:new 0 0 59 59.3;" xml:space="preserve">
<style type="text/css">
	.st0{fill:none;stroke:#000000;stroke-width:2;stroke-linecap:round;stroke-linejoin:round;stroke-miterlimit:10;}
	.st1{fill:none;stroke:#BA0C2F;stroke-width:2;stroke-linecap:round;stroke-linejoin:round;stroke-miterlimit:10;}
	.st2{fill:#BA0C2F;}
	.st3{fill:none;stroke:#000000;stroke-width:2;stroke-linecap:round;stroke-linejoin:round;}
</style>
<g>
	<path class="st0" d="M7.5,23c0-12.2,9.8-22,22-22s22,9.8,22,22"/>
	<path class="st0" d="M51.8,40c0,8.8-7.2,16-16,16"/>
	<rect x="49" y="23.5" class="st0" width="5" height="15.5"/>
	<rect x="5" y="23.5" class="st0" width="5" height="15.5"/>
	<path class="st0" d="M32.8,58.3h-6.5c-1.2,0-2.2-1-2.2-2.2v0c0-1.2,1-2.2,2.2-2.2h6.5c1.2,0,2.3,1,2.3,2.2v0
		C35,57.2,34,58.3,32.8,58.3z"/>
	<path class="st1" d="M20.8,39c0,4.8,3.9,8.8,8.8,8.8s8.8-3.9,8.8-8.8H20.8z"/>
	<path class="st0" d="M54,35.3c2.2,0,4-1.8,4-4s-1.8-4-4-4V35.3z"/>
	<path class="st0" d="M5,27.3c-2.2,0-4,1.8-4,4s1.8,4,4,4V27.3z"/>
	<path class="st1" d="M26,32c0-1.7-1.3-3-3-3c-1.7,0-3,1.3-3,3"/>
	<path class="st1" d="M39,32c0-1.7-1.3-3-3-3c-1.7,0-3,1.3-3,3"/>
	<path class="st1" d="M14,25c5,0,11-8,8-17c3,9,8,18,23,16"/>
</g>
<g>
	<path class="st0" d="M105,41.1v-38c0-1.1,0.9-2,2-2h39c1.1,0,2,0.9,2,2v46c0,5-4,9-9,9h-39c-5,0-9-4-9-9v-2c0-1.1,0.9-2,2-2h39
		c1.1,0,2,0.9,2,2v1c0,5,5,6,5,6"/>
	<line class="st1" x1="122" y1="11.1" x2="141" y2="11.1"/>
	<line class="st1" x1="112" y1="11.1" x2="116" y2="11.1"/>
	<line class="st1" x1="137" y1="22.1" x2="141" y2="22.1"/>
	<line class="st1" x1="112" y1="22.1" x2="131" y2="22.1"/>
	<line class="st1" x1="127" y1="33.1" x2="141" y2="33.1"/>
	<line class="st1" x1="112" y1="33.1" x2="121" y2="33.1"/>
	<circle class="st1" cx="119" cy="11.1" r="3"/>
	<circle class="st1" cx="134" cy="22.1" r="3"/>
	<circle class="st1" cx="124" cy="33.1" r="3"/>
</g>
<g>
	<path class="st0" d="M314,106.1c-0.6-0.4-1.2-0.7-1.8-1"/>
	<path class="st0" d="M322.9,116.2c-0.7-1.8-1.7-3.5-2.9-5"/>
	<path class="st0" d="M316,136.8c3.2-2.3,5.6-5.3,6.9-8.7"/>
	<path class="st0" d="M287.3,139.8c3.5,1.5,7.5,2.3,11.7,2.3c4.5,0,8.8-1,12.5-2.7"/>
	<path class="st0" d="M285.8,105.1c-7.1,3.5-11.8,9.8-11.8,17c0,6.2,3.5,11.7,9,15.4"/>
	<path class="st1" d="M308.5,109c-2.8-1.3-6-2-9.5-2s-6.7,0.7-9.5,2"/>
	<polyline class="st0" points="323,116.1 328,116.1 328,128.1 323,128.1 	"/>
	<path class="st0" d="M274,122.1L274,122.1c-1.7,0-3-1.3-3-3v-4"/>
	<path class="st1" d="M292.7,107.8c-2-1.7-3.2-4.3-3.2-7.1c0-5.2,4.3-9.5,9.5-9.5s9.5,4.3,9.5,9.5c0,2.9-1.3,5.4-3.2,7.1"/>
	<polyline class="st0" points="283,137.5 283,148.1 290,148.1 290.6,141 	"/>
	<polyline class="st0" points="308.4,140.7 309,148.1 316,148.1 316,136.8 	"/>
	<polyline class="st0" points="314,106.1 320.5,102.6 320,111.1 	"/>
	<path class="st0" d="M312.5,115.7c0-1.4,1.1-2.5,2.5-2.5s2.5,1.1,2.5,2.5"/>
	<path class="st1" d="M297,98.1c0-1.1,0.9-2,2-2"/>
	<line class="st1" x1="297" y1="98.1" x2="297" y2="103.1"/>
	<line class="st1" x1="296" y1="103.1" x2="301" y2="103.1"/>
	<line class="st1" x1="297" y1="99.1" x2="299" y2="99.1"/>
</g>
<g>
	<path class="st1" d="M-47,39.6c0-1.1,0.9-2,2-2"/>
	<line class="st1" x1="-47" y1="39.6" x2="-47" y2="44.6"/>
	<line class="st1" x1="-48" y1="44.6" x2="-43" y2="44.6"/>
	<line class="st1" x1="-47" y1="40.6" x2="-45" y2="40.6"/>
	<g>
		<path class="st1" d="M-46,55.6c-3.9,0-7.4-1.6-9.9-4.1c-2.5-2.5-4.1-6-4.1-9.9s1.6-7.4,4.1-9.9"/>
		<path class="st1" d="M-46,27.6c3.9,0,7.4,1.6,9.9,4.1c2.5,2.5,4.1,6,4.1,9.9s-1.6,7.4-4.1,9.9"/>
		<polyline class="st1" points="-60,30.6 -54.1,30.6 -54.1,36.5 		"/>
		<polyline class="st1" points="-32,52.6 -37.9,52.6 -37.9,46.7 		"/>
	</g>
	<path class="st0" d="M-76,45.6v5c0,1.1-0.9,2-2,2h-6c-1.1,0-2-0.9-2-2v-5"/>
	<path class="st0" d="M-32,31.2c0-2.3-0.8-4.6-2.3-6.4l-2.7-3.2"/>
	<line class="st0" x1="-80" y1="45.6" x2="-63.6" y2="45.6"/>
	<path class="st0" d="M-84,21.6l-2.7,3.2c-1.5,1.8-2.3,4.1-2.3,6.4v11.4c0,1.7,1.3,3,3,3"/>
	<path class="st0" d="M-37,21.6l-4.7-12.3c-1.1-2.8-3.6-4.8-6.5-5.2c-2.3-0.3-7.6-0.6-12.3-0.6c-4.7,0-10,0.2-12.3,0.6
		c-3,0.4-5.5,2.4-6.5,5.2L-84,21.6"/>
	<path class="st0" d="M-41.6,21.6l-3.6-9.5c-0.8-2.2-2.8-3.7-5.1-4c-1.8-0.2-6.5-0.4-10.2-0.4s-8.4,0.2-10.2,0.4
		c-2.3,0.3-4.2,1.8-5.1,4l-3.6,9.5H-41.6z"/>
	<circle class="st0" cx="-80" cy="31.1" r="3"/>
	<line class="st0" x1="-37" y1="21.6" x2="-32" y2="21.6"/>
	<line class="st0" x1="-89" y1="21.6" x2="-84" y2="21.6"/>
	<polyline class="st0" points="-63,34.6 -71,34.6 -71,40.6 -65,40.6 	"/>
	<circle class="st0" cx="-67.5" cy="14.1" r="2.5"/>
	<path class="st0" d="M-57.5,20.6c0-2.2,1.8-4,4-4c2.2,0,4,1.8,4,4"/>
	<path class="st0" d="M-71.5,20.6c0-2.2,1.8-4,4-4s4,1.8,4,4"/>
	<circle class="st0" cx="-53.5" cy="14.1" r="2.5"/>
</g>
<g>
	<path class="st0" d="M-346,135.6v5c0,1.1-0.9,2-2,2h-6c-1.1,0-2-0.9-2-2v-5"/>
	<path class="st0" d="M-302,121.2c0-2.3-0.8-4.6-2.3-6.4l-2.7-3.2"/>
	<line class="st0" x1="-350" y1="135.6" x2="-333.6" y2="135.6"/>
	<path class="st0" d="M-354,111.6l-2.7,3.2c-1.5,1.8-2.3,4.1-2.3,6.4v11.4c0,1.7,1.3,3,3,3"/>
	<path class="st0" d="M-307,111.6l-4.7-12.3c-1.1-2.8-3.6-4.8-6.5-5.2c-2.3-0.3-7.6-0.6-12.3-0.6s-10,0.2-12.3,0.6
		c-3,0.4-5.5,2.4-6.5,5.2l-4.7,12.3"/>
	<path class="st0" d="M-311.6,111.6l-3.6-9.5c-0.8-2.2-2.8-3.7-5.1-4c-1.8-0.2-6.5-0.4-10.2-0.4s-8.4,0.2-10.2,0.4
		c-2.3,0.3-4.2,1.8-5.1,4l-3.6,9.5H-311.6z"/>
	<circle class="st0" cx="-350" cy="121.1" r="3"/>
	<line class="st0" x1="-307" y1="111.6" x2="-302" y2="111.6"/>
	<line class="st0" x1="-359" y1="111.6" x2="-354" y2="111.6"/>
	<polyline class="st0" points="-333,124.6 -341,124.6 -341,130.6 -335,130.6 	"/>
	<circle class="st0" cx="-337.5" cy="104.1" r="2.5"/>
	<path class="st0" d="M-327.5,110.6c0-2.2,1.8-4,4-4s4,1.8,4,4"/>
	<path class="st0" d="M-341.5,110.6c0-2.2,1.8-4,4-4s4,1.8,4,4"/>
	<circle class="st0" cx="-323.5" cy="104.1" r="2.5"/>
	<circle class="st1" cx="-316" cy="131.6" r="14"/>
	<g>
		<line class="st1" x1="-316" y1="135.6" x2="-316" y2="132.6"/>
		<line class="st1" x1="-316" y1="139.6" x2="-316" y2="139.6"/>
		<path class="st1" d="M-316,124.6c2.2,0,4,1.8,4,4s-1.8,4-4,4"/>
		<path class="st1" d="M-319.2,126.2c0.7-0.9,1.9-1.6,3.2-1.6"/>
	</g>
</g>
<g>
	<g>
		<path class="st1" d="M207.5,20.4c0-1.4,1.1-2.5,2.5-2.5"/>
		<line class="st1" x1="207.5" y1="20.4" x2="207.5" y2="26.5"/>
		<line class="st1" x1="206.3" y1="26.5" x2="212.5" y2="26.5"/>
		<line class="st1" x1="207.5" y1="21.6" x2="210" y2="21.6"/>
	</g>
	<line class="st0" x1="200" y1="5.1" x2="228" y2="5.1"/>
	<line class="st0" x1="192" y1="5.1" x2="194" y2="5.1"/>
	<path class="st0" d="M214,45.1v7l1,0h2c3.3,0,6,2.7,6,6v0h-27v0c0-3.3,2.7-6,6-6h2l1,0v-8l0-2.5c-8.1-2-14.1-9.4-14.1-18.1V1.1
		h37.3v22.4c0,10.3-8.3,18.6-18.6,18.6"/>
	<line class="st0" x1="238" y1="10.1" x2="229" y2="10.1"/>
	<path class="st0" d="M238,10.1c0,0,0,5,0,7c0,4-2,10-10,11"/>
	<path class="st0" d="M191,28.1c-8-1-10-7-10-11c0-2,0-7,0-7h9"/>
	<path class="st1" d="M210.9,10.5l0.6,0.6c0.5,0.5,1.2,0.7,1.9,0.5l0.8-0.2c1.1-0.3,2.2,0.3,2.5,1.4l0.2,0.8
		c0.2,0.7,0.7,1.2,1.4,1.4l0.8,0.2c1.1,0.3,1.7,1.4,1.4,2.5l-0.2,0.8c-0.2,0.7,0,1.4,0.5,1.9l0.6,0.6c0.8,0.8,0.8,2.1,0,2.8
		l-0.6,0.6c-0.5,0.5-0.7,1.2-0.5,1.9l0.2,0.8c0.3,1.1-0.3,2.2-1.4,2.5l-0.8,0.2c-0.7,0.2-1.2,0.7-1.4,1.4l-0.2,0.8
		c-0.3,1.1-1.4,1.7-2.5,1.4l-0.8-0.2c-0.7-0.2-1.4,0-1.9,0.5l-0.6,0.6c-0.8,0.8-2.1,0.8-2.8,0l-0.6-0.6c-0.5-0.5-1.2-0.7-1.9-0.5
		l-0.8,0.2c-1.1,0.3-2.2-0.3-2.5-1.4l-0.2-0.8c-0.2-0.7-0.7-1.2-1.4-1.4l-0.8-0.2c-1.1-0.3-1.7-1.4-1.4-2.5l0.2-0.8
		c0.2-0.7,0-1.4-0.5-1.9l-0.6-0.6c-0.8-0.8-0.8-2.1,0-2.8l0.6-0.6c0.5-0.5,0.7-1.2,0.5-1.9l-0.2-0.8c-0.3-1.1,0.3-2.2,1.4-2.5
		l0.8-0.2c0.7-0.2,1.2-0.7,1.4-1.4l0.2-0.8c0.3-1.1,1.4-1.7,2.5-1.4l0.8,0.2c0.7,0.2,1.4,0,1.9-0.5l0.6-0.6
		C208.9,9.8,210.1,9.8,210.9,10.5z"/>
</g>
<g>
	<g>
		<path d="M-240.5,239.1c-13.8,0-25-11.2-25-25s11.2-25,25-25s25,11.2,25,25S-226.7,239.1-240.5,239.1z M-240.5,191.1
			c-12.7,0-23,10.3-23,23s10.3,23,23,23s23-10.3,23-23S-227.8,191.1-240.5,191.1z"/>
	</g>
	<g>
		<path d="M-240.5,196.1c-0.3,0-0.5-0.1-0.7-0.3c-0.2-0.2-0.3-0.5-0.3-0.7c0-0.3,0.1-0.5,0.3-0.7c0.4-0.4,1-0.4,1.4,0
			c0.2,0.2,0.3,0.4,0.3,0.7c0,0.3-0.1,0.5-0.3,0.7C-240,196-240.2,196.1-240.5,196.1z"/>
	</g>
	<g>
		<path d="M-250,198.7c-0.1,0-0.3,0-0.4-0.1c-0.1,0-0.2-0.1-0.3-0.2c-0.2-0.2-0.3-0.4-0.3-0.7c0-0.3,0.1-0.5,0.3-0.7
			c0.1-0.1,0.2-0.2,0.3-0.2c0.4-0.1,0.8-0.1,1.1,0.2c0.2,0.2,0.3,0.4,0.3,0.7c0,0.3-0.1,0.5-0.3,0.7
			C-249.5,198.6-249.7,198.7-250,198.7z"/>
	</g>
	<g>
		<path d="M-257,205.6c-0.3,0-0.5-0.1-0.7-0.3c-0.2-0.2-0.3-0.5-0.3-0.7c0-0.3,0.1-0.5,0.3-0.7c0.4-0.4,1-0.4,1.4,0
			c0.2,0.2,0.3,0.4,0.3,0.7c0,0.3-0.1,0.5-0.3,0.7C-256.4,205.5-256.7,205.6-257,205.6z"/>
	</g>
	<g>
		<path d="M-259.5,215.1c-0.3,0-0.5-0.1-0.7-0.3c-0.2-0.2-0.3-0.5-0.3-0.7c0-0.1,0-0.3,0.1-0.4c0.1-0.1,0.1-0.2,0.2-0.3
			c0.4-0.4,1-0.4,1.4,0c0.1,0.1,0.2,0.2,0.2,0.3c0.1,0.1,0.1,0.3,0.1,0.4c0,0.3-0.1,0.5-0.3,0.7C-259,215-259.2,215.1-259.5,215.1z"
			/>
	</g>
	<g>
		<path d="M-257,224.6c-0.1,0-0.3,0-0.4-0.1c-0.1-0.1-0.2-0.1-0.3-0.2c-0.1-0.1-0.2-0.2-0.2-0.3c0-0.1-0.1-0.3-0.1-0.4
			c0-0.1,0-0.3,0.1-0.4c0.1-0.1,0.1-0.2,0.2-0.3c0.1-0.1,0.2-0.2,0.3-0.2c0.4-0.2,0.8-0.1,1.1,0.2c0.1,0.1,0.2,0.2,0.2,0.3
			c0.1,0.1,0.1,0.3,0.1,0.4c0,0.1,0,0.3-0.1,0.4c0,0.1-0.1,0.2-0.2,0.3C-256.4,224.5-256.7,224.6-257,224.6z"/>
	</g>
	<g>
		<path d="M-250,231.6c-0.1,0-0.3,0-0.4-0.1c-0.1-0.1-0.2-0.1-0.3-0.2c-0.1-0.1-0.2-0.2-0.2-0.3c0-0.1-0.1-0.3-0.1-0.4
			c0-0.3,0.1-0.5,0.3-0.7c0.1-0.1,0.2-0.2,0.3-0.2c0.2-0.1,0.5-0.1,0.8,0c0.1,0,0.2,0.1,0.3,0.2c0.2,0.2,0.3,0.4,0.3,0.7
			c0,0.1,0,0.3-0.1,0.4c-0.1,0.1-0.1,0.2-0.2,0.3c-0.1,0.1-0.2,0.2-0.3,0.2C-249.7,231.6-249.9,231.6-250,231.6z"/>
	</g>
	<g>
		<path d="M-240.5,234.1c-0.3,0-0.5-0.1-0.7-0.3c-0.1-0.1-0.2-0.2-0.2-0.3c0-0.1-0.1-0.3-0.1-0.4c0-0.1,0-0.1,0-0.2
			c0-0.1,0-0.1,0.1-0.2c0-0.1,0.1-0.1,0.1-0.2c0-0.1,0.1-0.1,0.1-0.1c0.3-0.3,0.7-0.4,1.1-0.2c0.1,0.1,0.2,0.1,0.3,0.2
			c0.2,0.2,0.3,0.4,0.3,0.7c0,0.1,0,0.3-0.1,0.4c-0.1,0.1-0.1,0.2-0.2,0.3c-0.1,0.1-0.2,0.2-0.3,0.2
			C-240.2,234.1-240.4,234.1-240.5,234.1z"/>
	</g>
	<g>
		<path d="M-231,231.6c-0.1,0-0.3,0-0.4-0.1c-0.1-0.1-0.2-0.1-0.3-0.2c-0.1-0.1-0.2-0.2-0.2-0.3c0-0.1-0.1-0.3-0.1-0.4
			c0-0.3,0.1-0.5,0.3-0.7c0.1-0.1,0.2-0.2,0.3-0.2c0.2-0.1,0.4-0.1,0.6-0.1c0.1,0,0.1,0,0.2,0.1c0.1,0,0.1,0.1,0.2,0.1
			c0,0,0.1,0.1,0.1,0.1c0.2,0.2,0.3,0.4,0.3,0.7c0,0.1,0,0.3-0.1,0.4c-0.1,0.1-0.1,0.2-0.2,0.3C-230.5,231.5-230.7,231.6-231,231.6z
			"/>
	</g>
	<g>
		<path d="M-224.1,224.6c-0.1,0-0.3,0-0.4-0.1c-0.1-0.1-0.2-0.1-0.3-0.2c-0.1-0.1-0.2-0.2-0.2-0.3s-0.1-0.3-0.1-0.4
			c0-0.1,0-0.3,0.1-0.4c0-0.1,0.1-0.2,0.2-0.3c0.1-0.1,0.2-0.2,0.3-0.2c0.4-0.2,0.8-0.1,1.1,0.2c0.1,0.1,0.2,0.2,0.2,0.3
			c0,0.1,0.1,0.3,0.1,0.4c0,0.1,0,0.3-0.1,0.4c-0.1,0.1-0.1,0.2-0.2,0.3C-223.5,224.5-223.8,224.6-224.1,224.6z"/>
	</g>
	<g>
		<path d="M-221.5,215.1c-0.1,0-0.3,0-0.4-0.1c-0.1-0.1-0.2-0.1-0.3-0.2c-0.2-0.2-0.3-0.5-0.3-0.7c0-0.1,0-0.3,0.1-0.4
			c0.1-0.1,0.1-0.2,0.2-0.3c0.1-0.1,0.2-0.2,0.3-0.2c0.4-0.2,0.8-0.1,1.1,0.2c0.1,0.1,0.2,0.2,0.2,0.3c0.1,0.1,0.1,0.3,0.1,0.4
			c0,0.3-0.1,0.5-0.3,0.7C-221,215-221.2,215.1-221.5,215.1z"/>
	</g>
	<g>
		<path d="M-224.1,205.6c-0.3,0-0.5-0.1-0.7-0.3c-0.2-0.2-0.3-0.5-0.3-0.7c0-0.3,0.1-0.5,0.3-0.7c0.4-0.4,1-0.4,1.4,0
			c0.2,0.2,0.3,0.4,0.3,0.7c0,0.3-0.1,0.5-0.3,0.7C-223.5,205.5-223.8,205.6-224.1,205.6z"/>
	</g>
	<g>
		<path d="M-232.5,187.1h-16c-0.6,0-1-0.4-1-1v-5c0-0.6,0.4-1,1-1h16c0.6,0,1,0.4,1,1v5C-231.5,186.7-231.9,187.1-232.5,187.1z
			 M-247.5,185.1h14v-3h-14V185.1z"/>
	</g>
	<g>
		<path d="M-244.5,191.1c-0.6,0-1-0.4-1-1v-4c0-0.6,0.4-1,1-1s1,0.4,1,1v4C-243.5,190.7-243.9,191.1-244.5,191.1z"/>
	</g>
	<g>
		<path d="M-236.5,191.1c-0.6,0-1-0.4-1-1v-4c0-0.6,0.4-1,1-1s1,0.4,1,1v4C-235.5,190.7-235.9,191.1-236.5,191.1z"/>
	</g>
	<g>
		<path d="M-218,197.6c-0.3,0-0.5-0.1-0.7-0.3l-7-7c-0.4-0.4-0.4-1,0-1.4s1-0.4,1.4,0l7,7c0.4,0.4,0.4,1,0,1.4
			C-217.5,197.5-217.7,197.6-218,197.6z"/>
	</g>
	<g>
		<path d="M-263,197.6c-0.3,0-0.5-0.1-0.7-0.3c-0.4-0.4-0.4-1,0-1.4l7-7c0.4-0.4,1-0.4,1.4,0s0.4,1,0,1.4l-7,7
			C-262.5,197.5-262.7,197.6-263,197.6z"/>
	</g>
	<g>
		<path class="st2" d="M-240.4,219.2c-0.9,0-1.8-0.2-2.6-0.7c-1.3-0.8-2.3-2.1-2.5-3.6c-0.3-1.5,0.1-3.1,1.1-4.3l11.7-14.1
			c0.7-0.8,1.8-1,2.8-0.5c0.9,0.5,1.3,1.7,0.9,2.7l-6.4,17.2c-0.5,1.4-1.7,2.6-3.1,3.1C-239.2,219.1-239.8,219.2-240.4,219.2z
			 M-231.1,197.6c-0.1,0-0.1,0-0.1,0.1l-11.7,14.2c-0.6,0.7-0.9,1.7-0.7,2.6s0.7,1.7,1.6,2.2c0.8,0.5,1.8,0.6,2.7,0.2
			c0.9-0.3,1.6-1,1.9-1.9l6.4-17.2C-230.9,197.8-230.9,197.7-231.1,197.6C-231,197.7-231.1,197.6-231.1,197.6z"/>
	</g>
</g>
<g>
	<path class="st0" d="M-166,135.6v5c0,1.1-0.9,2-2,2h-6c-1.1,0-2-0.9-2-2v-5"/>
	<path class="st0" d="M-122.7,117.6c-0.4-1-0.9-1.9-1.6-2.8l-2.7-3.2"/>
	<line class="st0" x1="-170" y1="135.6" x2="-149.6" y2="135.6"/>
	<path class="st0" d="M-174,111.6l-2.7,3.2c-1.5,1.8-2.3,4.1-2.3,6.4v11.4c0,1.7,1.3,3,3,3"/>
	<path class="st0" d="M-127,111.6l-4.7-12.3c-1.1-2.8-3.6-4.8-6.5-5.2c-2.3-0.3-7.6-0.6-12.3-0.6s-10,0.2-12.3,0.6
		c-3,0.4-5.5,2.4-6.5,5.2l-4.7,12.3"/>
	<path class="st0" d="M-131.6,111.6l-3.6-9.5c-0.8-2.2-2.8-3.7-5.1-4c-1.8-0.2-6.5-0.4-10.2-0.4c-3.7,0-8.4,0.2-10.2,0.4
		c-2.3,0.3-4.2,1.8-5.1,4l-3.6,9.5H-131.6z"/>
	<circle class="st0" cx="-170" cy="121.1" r="3"/>
	<line class="st0" x1="-127" y1="111.6" x2="-122" y2="111.6"/>
	<line class="st0" x1="-179" y1="111.6" x2="-174" y2="111.6"/>
	<polyline class="st0" points="-150,124.6 -161,124.6 -161,130.6 -150,130.6 	"/>
	<circle class="st0" cx="-157.5" cy="104.1" r="2.5"/>
	<path class="st0" d="M-147.5,110.6c0-2.2,1.8-4,4-4s4,1.8,4,4"/>
	<path class="st0" d="M-161.5,110.6c0-2.2,1.8-4,4-4s4,1.8,4,4"/>
	<circle class="st0" cx="-143.5" cy="104.1" r="2.5"/>
	<g>
		<g>
			<g>
				<path class="st1" d="M-145,123.5v7.3c0,3.4,1.1,6.6,3.3,9.4c2.2,2.8,4.9,4.6,8.2,5.4c3.2-0.8,6-2.6,8.2-5.4
					c2.2-2.8,3.3-6,3.3-9.4v-7.3l-11.5-4.9L-145,123.5z"/>
			</g>
		</g>
	</g>
	<polyline class="st1" points="-138,132.6 -134,135.6 -128,128.6 	"/>
</g>
<g>
	<path class="st1" d="M200.7,134.4c2.6-2.2,5.9-7.8,1.5-13.3c-5.6-7-21-10-21-10s1.1,14.1,6.6,21
		C192.2,137.7,198.3,136.4,200.7,134.4z"/>
	<path class="st0" d="M205.1,148.1c0,0,2.9-8.1,10-16c9-10,13-26,13-32"/>
	<path class="st0" d="M215,131.6c7.5,5,16.4,0.6,20.2-6.5c9-17-7-34-8-34c-3,7-13.5,14-17,21C206.1,120.1,208.1,127.1,215,131.6z"/>
	<g>
		<path class="st1" d="M187.1,117.1c17,18,19,22,19,22"/>
		<path class="st1" d="M200.7,134.4c2.6-2.2,5.9-7.8,1.5-13.3c-5.6-7-21-10-21-10s1.1,14.1,6.6,21
			C192.2,137.7,198.3,136.4,200.7,134.4z"/>
		<path class="st0" d="M205.1,148.1c0,0,2.9-8.1,10-16c9-10,13-26,13-32"/>
		<path class="st0" d="M215,131.6c7.5,5,16.4,0.6,20.2-6.5c9-17-7-34-8-34c-3,7-13.5,14-17,21C206.1,120.1,208.1,127.1,215,131.6z"
			/>
	</g>
</g>
<g>
	<circle class="st1" cx="5.5" cy="98.6" r="4"/>
	<path class="st1" d="M5.5,102.6v13c0,2.2,1.8,4,4,4h8"/>
	<circle class="st0" cx="21.5" cy="98.6" r="4"/>
	<circle class="st0" cx="37.5" cy="98.6" r="4"/>
	<circle class="st0" cx="53.5" cy="98.6" r="4"/>
	<circle class="st0" cx="21.5" cy="140.6" r="4"/>
	<circle class="st0" cx="37.5" cy="140.6" r="4"/>
	<circle class="st0" cx="53.5" cy="140.6" r="4"/>
	<line class="st0" x1="21.5" y1="102.6" x2="21.5" y2="136.6"/>
	<line class="st0" x1="37.5" y1="102.6" x2="37.5" y2="136.6"/>
	<line class="st0" x1="53.5" y1="102.6" x2="53.5" y2="136.6"/>
	<line class="st0" x1="53.5" y1="119.6" x2="21.5" y2="119.6"/>
</g>
<g>
	<path class="st0" d="M-32.5,127.5c0-15.5-12.5-28-28-28s-28,12.5-28,28"/>
	<g>
		<polyline class="st0" points="-84.5,139.8 -88.5,139.8 -88.5,133.1 -84.5,133.1 		"/>
		<line class="st0" x1="-88.5" y1="136.5" x2="-85.5" y2="136.5"/>
	</g>
	<g>
		<polyline class="st0" points="-36.5,138.8 -36.5,132.1 -32.5,132.1 		"/>
		<line class="st0" x1="-36.5" y1="135.5" x2="-33.5" y2="135.5"/>
	</g>
	<line class="st0" x1="-60.5" y1="99.5" x2="-60.5" y2="105.5"/>
	<path class="st1" d="M-49.6,107.4L-49.6,107.4c-0.6-0.4-1.4-0.2-1.8,0.3l-13.9,16.7c-2,2.4-1.3,6,1.5,7.6l0,0
		c2.8,1.6,6.3,0.4,7.4-2.5l7.5-20.4C-48.7,108.5-49,107.8-49.6,107.4z"/>
	<line class="st0" x1="-32.5" y1="127.5" x2="-38.5" y2="127.5"/>
	<line class="st0" x1="-88.5" y1="127.5" x2="-82.5" y2="127.5"/>
	<line class="st0" x1="-88.5" y1="127.5" x2="-86.5" y2="127.5"/>
	<line class="st0" x1="-84.6" y1="113.8" x2="-82.8" y2="114.8"/>
	<line class="st0" x1="-74.3" y1="103.9" x2="-73.3" y2="105.6"/>
	<line class="st0" x1="-36.9" y1="114.6" x2="-38.7" y2="115.6"/>
</g>
<g>
	<path class="st1" d="M126.1,107.6c0,3.9-2,10-7,10s-7-6.1-7-10s3.1-7,7-7C122.9,100.6,126.1,103.8,126.1,107.6z"/>
	<path class="st1" d="M105.1,138.6c0-9.4,5-17,14-17s14,7.6,14,17"/>
	<path class="st0" d="M142.8,110.6c0,2.9-1.5,7.5-5.3,7.5s-5.3-4.6-5.3-7.5s2.4-5.3,5.3-5.3C140.5,105.4,142.8,107.7,142.8,110.6z"
		/>
	<path class="st0" d="M131.9,122.8c1.5-1.1,3.4-1.7,5.7-1.7c6.8,0,10.5,5.7,10.5,12.8"/>
	<path class="st0" d="M96.2,110.6c0,2.9,1.5,7.5,5.3,7.5s5.3-4.6,5.3-7.5s-2.4-5.3-5.3-5.3C98.5,105.4,96.2,107.7,96.2,110.6z"/>
	<path class="st0" d="M107.1,122.8c-1.5-1.1-3.4-1.7-5.7-1.7c-6.8,0-10.5,5.7-10.5,12.8"/>
	<line class="st1" x1="111.7" y1="123.8" x2="118.8" y2="130.9"/>
	<line class="st1" x1="122.3" y1="134.4" x2="126.1" y2="138.6"/>
	<rect x="118.1" y="130.6" transform="matrix(0.7071 0.7071 -0.7071 0.7071 129.0973 -46.4185)" class="st1" width="5" height="4"/>
</g>
<g>
	<path class="st0" d="M-256,137.6v4c0,1.1-0.9,2-2,2h-6c-1.1,0-2-0.9-2-2v-4"/>
	<path class="st0" d="M-215,137.6v4c0,1.1-0.9,2-2,2h-6c-1.1,0-2-0.9-2-2v-4"/>
	<path class="st0" d="M-215,137.6c1.7,0,3-1.3,3-3v-11.4c0-2.3-0.8-4.6-2.3-6.4l-2.7-3.2"/>
	<path class="st0" d="M-264,113.6l-2.7,3.2c-1.5,1.8-2.3,4.1-2.3,6.4v11.4c0,1.7,1.3,3,3,3"/>
	<path class="st0" d="M-217,113.6l-4.7-12.3c-1.1-2.8-3.6-4.8-6.5-5.2c-2.3-0.3-7.6-0.6-12.3-0.6s-10,0.2-12.3,0.6
		c-3,0.4-5.5,2.4-6.5,5.2l-4.7,12.3"/>
	<path class="st0" d="M-223,112.6l-3.4-8.9c-0.8-2-2.6-3.4-4.7-3.7c-1.7-0.2-6-0.4-9.4-0.4s-7.8,0.2-9.4,0.4
		c-2.1,0.3-3.9,1.7-4.7,3.7l-3.4,8.9H-223z"/>
	<circle class="st0" cx="-260" cy="123.1" r="3"/>
	<circle class="st0" cx="-221" cy="123.1" r="3"/>
	<line class="st0" x1="-217" y1="113.6" x2="-212" y2="113.6"/>
	<line class="st0" x1="-269" y1="113.6" x2="-264" y2="113.6"/>
	<rect x="-251" y="126.6" class="st0" width="21" height="6"/>
	<circle class="st0" cx="-247.5" cy="106.1" r="2.5"/>
	<path class="st0" d="M-237.5,112.6c0-2.2,1.8-4,4-4s4,1.8,4,4"/>
	<path class="st0" d="M-251.5,112.6c0-2.2,1.8-4,4-4s4,1.8,4,4"/>
	<circle class="st0" cx="-233.5" cy="106.1" r="2.5"/>
	<line class="st0" x1="-260" y1="137.6" x2="-221" y2="137.6"/>
</g>
<g>
	<polygon class="st0" points="-126.5,238.1 -174.5,238.1 -166.5,202.1 -134.5,202.1 	"/>
	<circle class="st1" cx="-150.5" cy="187.1" r="6"/>
	<line class="st1" x1="-150.5" y1="190.1" x2="-150.5" y2="198.1"/>
	<line class="st0" x1="-160.5" y1="214.1" x2="-160.5" y2="226.1"/>
	<line class="st0" x1="-152.5" y1="214.1" x2="-160.5" y2="221.6"/>
	<line class="st0" x1="-152.5" y1="226.1" x2="-157.5" y2="219.4"/>
	<path class="st0" d="M-140.5,223.1c0,1.7-1.3,3-3,3h-2c-1.7,0-3-1.3-3-3v-6c0-1.7,1.3-3,3-3h2c1.7,0,3,1.3,3,3"/>
	<polyline class="st0" points="-142.5,221.1 -140.5,221.1 -140.5,223.1 	"/>
</g>
<g>
	<line class="st1" x1="44" y1="182.6" x2="44" y2="231.6"/>
	<polyline class="st1" points="49.7,226.6 44,232.3 38.3,226.6 	"/>
	<polyline class="st1" points="38.3,187.6 44,182 49.7,187.6 	"/>
	<path class="st0" d="M29,232.6v-51H13c-2.2,0-4,1.8-4,4v52h41"/>
	<line class="st0" x1="29" y1="209.6" x2="16" y2="209.6"/>
	<line class="st0" x1="29" y1="202.6" x2="22" y2="202.6"/>
	<line class="st0" x1="29" y1="195.6" x2="22" y2="195.6"/>
	<line class="st0" x1="29" y1="188.6" x2="22" y2="188.6"/>
	<line class="st0" x1="29" y1="230.6" x2="22" y2="230.6"/>
	<line class="st0" x1="29" y1="223.6" x2="22" y2="223.6"/>
	<line class="st0" x1="29" y1="216.6" x2="22" y2="216.6"/>
</g>
<g>
	<line class="st1" x1="-38.5" y1="222.1" x2="-82.5" y2="222.1"/>
	<polyline class="st1" points="-77.5,227.8 -83.2,222.1 -77.5,216.5 	"/>
	<polyline class="st1" points="-43.5,216.5 -37.8,222.1 -43.5,227.8 	"/>
	<path class="st0" d="M-32.5,206.1v-16c0-2.2-1.8-4-4-4h-48c-2.2,0-4,1.8-4,4v16"/>
	<line class="st0" x1="-60.5" y1="206.1" x2="-60.5" y2="193.1"/>
	<line class="st0" x1="-53.5" y1="206.1" x2="-53.5" y2="199.1"/>
	<line class="st0" x1="-46.5" y1="206.1" x2="-46.5" y2="199.1"/>
	<line class="st0" x1="-39.5" y1="206.1" x2="-39.5" y2="199.1"/>
	<line class="st0" x1="-81.5" y1="206.1" x2="-81.5" y2="199.1"/>
	<line class="st0" x1="-74.5" y1="206.1" x2="-74.5" y2="199.1"/>
	<line class="st0" x1="-67.5" y1="206.1" x2="-67.5" y2="199.1"/>
	<line class="st0" x1="-88.5" y1="206.1" x2="-32.5" y2="206.1"/>
	<line class="st0" x1="-32.5" y1="211.1" x2="-32.5" y2="215.1"/>
	<line class="st0" x1="-88.5" y1="211.1" x2="-88.5" y2="215.1"/>
	<line class="st0" x1="-32.5" y1="220.1" x2="-32.5" y2="224.1"/>
	<line class="st0" x1="-88.5" y1="220.1" x2="-88.5" y2="224.1"/>
	<line class="st0" x1="-32.5" y1="229.1" x2="-32.5" y2="233.1"/>
	<line class="st0" x1="-88.5" y1="229.1" x2="-88.5" y2="233.1"/>
</g>
<g>
	<circle class="st3" cx="100.3" cy="-143.3" r="4.5"/>
	<circle class="st3" cx="139.3" cy="-143.3" r="4.5"/>
	<line class="st3" x1="134.5" y1="-142.8" x2="108.5" y2="-142.8"/>
	<path class="st3" d="M144.5-142.8c0,0-1,0,1,0c3,0,3-5,3-7c0-1-3-5-16-5h-26c-4,0-9-6-9-6"/>
	<path class="st3" d="M125.6-161.9c4.3,2.3,9.2,7.1,9.2,7.1"/>
	<path class="st3" d="M95.5-142.8l-5-1c0,0,0-4,0-5c0-2,3-6,3-8h8"/>
	<polyline class="st3" points="113.5,-157.8 115.5,-154.8 115.5,-145.8 	"/>
	<line class="st3" x1="119.5" y1="-150.8" x2="122.5" y2="-150.8"/>
</g>
<g>
	<circle class="st3" cx="-169.7" cy="-142.8" r="4.5"/>
	<circle class="st3" cx="-130.7" cy="-142.8" r="4.5"/>
	<line class="st3" x1="-135.5" y1="-142.4" x2="-161.5" y2="-142.4"/>
	<path class="st3" d="M-125.5-142.4c0,0-1,0,1,0c3,0,3-5,3-7c0-1-3-5-16-5h-26c-3,0-5.2-3-5.2-3"/>
	<path class="st3" d="M-174.5-142.4l-5-1c0,0,0-4,0-5c0-2,3-7,3-9h7c0,0,2-5,16-5c9,0,17.3,8,17.3,8"/>
	<polyline class="st3" points="-153.5,-161.4 -151.5,-154.4 -151.5,-145.4 	"/>
	<line class="st3" x1="-147.5" y1="-150.4" x2="-145.5" y2="-150.4"/>
	<line class="st3" x1="-160.5" y1="-150.4" x2="-158.5" y2="-150.4"/>
	<line class="st3" x1="-164.5" y1="-160.9" x2="-164.5" y2="-149.2"/>
</g>
<g>
	<circle class="st3" cx="-79.7" cy="-142.8" r="4.5"/>
	<circle class="st3" cx="-40.7" cy="-142.8" r="4.5"/>
	<line class="st3" x1="-45.5" y1="-142.4" x2="-71.5" y2="-142.4"/>
	<path class="st3" d="M-35.5-142.4c0,0-1,0,1,0c3,0,3-5,3-7c0-1-3-5-16-5h-33c-3,0-7-1-7-1"/>
	<path class="st3" d="M-84.5-142.4l-5-1c0,0,0-4,0-5c0-2,2-5,2-7s4-7,4-7s12,0,23,0c6,0,14.3,8,14.3,8"/>
	<polyline class="st3" points="-63.5,-161.4 -61.5,-154.4 -61.5,-145.4 	"/>
	<line class="st3" x1="-57.5" y1="-150.4" x2="-55.5" y2="-150.4"/>
	<line class="st3" x1="-72" y1="-150.4" x2="-70" y2="-150.4"/>
	<line class="st3" x1="-75.5" y1="-161.4" x2="-76.5" y2="-154.4"/>
	<line class="st3" x1="-76.5" y1="-154.4" x2="-76.5" y2="-150.4"/>
</g>
<g>
	<circle class="st3" cx="190.3" cy="-140.8" r="4.5"/>
	<circle class="st3" cx="229.3" cy="-140.8" r="4.5"/>
	<line class="st3" x1="224.5" y1="-140.4" x2="198.5" y2="-140.4"/>
	<path class="st3" d="M234.5-140.4c0,0-1,0,1,0c3,0,3-5,3-7c0-1-5-7-15-7h-34c-3,0-7-1-7-1"/>
	<path class="st3" d="M185.5-140.4l-5-1c0,0,0-4,0-5c0-2,2-7,2-9s5-9,9-9c1,0,8,0,19,0c8,0,17,10,17,10"/>
	<polyline class="st3" points="207.5,-164.4 209.5,-155.4 209.5,-143.4 	"/>
	<line class="st3" x1="213.5" y1="-149.4" x2="215.5" y2="-149.4"/>
	<line class="st3" x1="198.5" y1="-149.4" x2="200.5" y2="-149.4"/>
	<line class="st3" x1="196.5" y1="-164.4" x2="194.5" y2="-154.4"/>
	<line class="st3" x1="194.5" y1="-154.4" x2="194.5" y2="-147.9"/>
</g>
<g>
	<circle class="st3" cx="10.3" cy="-142.8" r="4.5"/>
	<circle class="st3" cx="49.3" cy="-142.8" r="4.5"/>
	<line class="st3" x1="44.5" y1="-142.4" x2="18.5" y2="-142.4"/>
	<path class="st3" d="M54.5-142.4c0,0-1,0,1,0c3,0,3-5,3-7c0-1-3-5-16-5h-28c-5,0-10-7-10-7"/>
	<path class="st3" d="M5.5-142.4l-5-1c0,0,0-4,0-5c0-2,3-6,3-8h6c0,0,5-6,17-6c9,0,18.3,8,18.3,8"/>
	<polyline class="st3" points="23.5,-157.4 25.5,-154.4 25.5,-145.4 	"/>
	<line class="st3" x1="29.5" y1="-150.4" x2="32.5" y2="-150.4"/>
</g>
<g>
	<circle class="st3" cx="280.7" cy="-140.2" r="4.8"/>
	<circle class="st3" cx="318.6" cy="-140.2" r="5.1"/>
	<line class="st3" x1="313.5" y1="-139.7" x2="289.5" y2="-139.7"/>
	<path class="st3" d="M324.5-139.7c0,0-1,0,1,0c3,0,3-2,3-4s-2-3-2-3s0-2.9,0-4c0-2-8.6-3-15-3h-31c-3,0-8-1-8-1"/>
	<path class="st3" d="M275.5-139.7l-5-1c0,0,0-4,0-5c0-2,2-6,2-8c0-4,3-10,3-10s19-1,28,0c3,0.3,10,10,10,10"/>
	<polyline class="st3" points="296.5,-163.7 298.5,-154.7 298.5,-142.7 	"/>
	<line class="st3" x1="302.5" y1="-148.7" x2="304.5" y2="-148.7"/>
	<line class="st3" x1="287.9" y1="-148.7" x2="290.1" y2="-148.7"/>
	<line class="st3" x1="284.5" y1="-163.7" x2="283.5" y2="-153.7"/>
	<line class="st3" x1="281.5" y1="-164.7" x2="281.5" y2="-165.7"/>
	<line class="st3" x1="298.5" y1="-164.7" x2="298.5" y2="-165.7"/>
	<line class="st3" x1="283.5" y1="-153.7" x2="283.5" y2="-148.2"/>
</g>
<g>
	<line class="st1" x1="271" y1="1.1" x2="328" y2="58.1"/>
	<path class="st0" d="M284,47.1v4c0,1.1-0.9,2-2,2h-6c-1.1,0-2-0.9-2-2v-4"/>
	<path class="st0" d="M317.9,53.1H317c-1.1,0-2-0.9-2-2"/>
	<line class="st0" x1="325" y1="47.1" x2="325" y2="49.5"/>
	<path class="st0" d="M325,47.1c1.7,0,3-1.3,3-3V32.7c0-2.3-0.8-4.6-2.3-6.4l-2.7-3.2"/>
	<path class="st0" d="M276,23.1l-2.7,3.2c-1.5,1.8-2.3,4.1-2.3,6.4v11.4c0,1.7,1.3,3,3,3"/>
	<line class="st0" x1="279.1" y1="14.9" x2="276" y2="23.1"/>
	<path class="st0" d="M323,23.1l-4.7-12.3c-1.1-2.8-3.6-4.8-6.5-5.2c-2.3-0.3-7.6-0.6-12.3-0.6s-10,0.2-12.3,0.6
		c-1.6,0.2-3,0.9-4.2,1.9"/>
	<path class="st0" d="M297.7,22.1H317l-3.4-8.9c-0.8-2-2.6-3.4-4.7-3.7c-1.7-0.2-6-0.4-9.4-0.4s-7.8,0.2-9.4,0.4
		c-1.3,0.2-2.5,0.8-3.4,1.7"/>
	<polyline class="st0" points="283.2,19 282,22.1 286.3,22.1 	"/>
	<circle class="st0" cx="280" cy="32.6" r="3"/>
	<circle class="st0" cx="319" cy="32.6" r="3"/>
	<line class="st0" x1="323" y1="23.1" x2="328" y2="23.1"/>
	<line class="st0" x1="271" y1="23.1" x2="276" y2="23.1"/>
	<polyline class="st0" points="300,36.1 289,36.1 289,42.1 306,42.1 	"/>
	<path class="st0" d="M290.2,14.7c0.4-0.9,1.3-1.5,2.3-1.5c1.4,0,2.5,1.1,2.5,2.5c0,1-0.6,1.9-1.5,2.3"/>
	<path class="st0" d="M302.5,22.1c0-2.2,1.8-4,4-4s4,1.8,4,4"/>
	<circle class="st0" cx="306.5" cy="15.6" r="2.5"/>
	<line class="st0" x1="280" y1="47.1" x2="311" y2="47.1"/>
</g>
<g>
	<path class="st1" d="M-314,221.1c0,3.3,2.7,6,6,6s6-2.7,6-6"/>
	<path class="st1" d="M-314,202.1c0-3.3-2.7-6-6-6"/>
	<line class="st1" x1="-314" y1="221.1" x2="-314" y2="202.1"/>
	<line class="st1" x1="-302" y1="221.1" x2="-302" y2="195.1"/>
	<circle class="st1" cx="-305.5" cy="195.6" r="3.5"/>
	<path class="st1" d="M-302,195.6c0-5.8-2-8.5-3.5-10.5"/>
	<line class="st0" x1="-315" y1="237.1" x2="-302" y2="237.1"/>
	<line class="st0" x1="-359" y1="237.1" x2="-320" y2="237.1"/>
	<g>
		<line class="st0" x1="-351" y1="210.1" x2="-351" y2="236.1"/>
		<line class="st0" x1="-328" y1="236.1" x2="-328" y2="210.1"/>
	</g>
	<path class="st0" d="M-330,187.1h-19c-0.6,0-1,0.4-1,1v16c0,0.6,0.4,1,1,1h19c0.6,0,1-0.4,1-1v-16
		C-329,187.6-329.4,187.1-330,187.1z"/>
	<line class="st0" x1="-344" y1="193.1" x2="-335" y2="193.1"/>
	<line class="st0" x1="-344" y1="199.1" x2="-335" y2="199.1"/>
	<path class="st0" d="M-328,182.1h-23c-2.2,0-4,1.8-4,4v20c0,2.2,1.8,4,4,4h23c2.2,0,4-1.8,4-4v-20
		C-324,183.9-325.8,182.1-328,182.1z"/>
	<path class="st0" d="M-339.5,216.1c0,0,5,6.2,5,9s-2.2,5-5,5s-5-2.2-5-5c0-1.3,1.1-3.3,2.2-5.1"/>
</g>
<g>
	<line class="st1" x1="116.5" y1="204.8" x2="97.5" y2="204.8"/>
	<polyline class="st1" points="102.5,210.5 96.8,204.8 102.5,199.1 	"/>
	<polyline class="st1" points="111.5,199.1 117.2,204.8 111.5,210.5 	"/>
	<circle class="st3" cx="100.7" cy="222.3" r="4.8"/>
	<circle class="st3" cx="139.6" cy="222.3" r="5.1"/>
	<line class="st3" x1="134.5" y1="222.8" x2="109.5" y2="222.8"/>
	<path class="st3" d="M145.5,222.8c0,0-1,0,1,0s2-2,2-4s-1-3-1-3v0c0-0.7,0-1,0-2c0-2-4-5-4-5"/>
	<path class="st3" d="M123.5,198.8h8c4,0,12,10,12,10"/>
	<path class="st3" d="M127.5,208.8v-7c0,0,2,0,4,0s8,7,8,7H127.5"/>
	<line class="st3" x1="127.5" y1="213.8" x2="130.5" y2="213.8"/>
	<line class="st3" x1="143.5" y1="213.8" x2="143.5" y2="214.8"/>
	<line class="st3" x1="91.5" y1="217.8" x2="98.5" y2="217.8"/>
	<line class="st3" x1="107.5" y1="217.8" x2="122.5" y2="217.8"/>
	<line class="st3" x1="123.5" y1="198.8" x2="123.5" y2="217.8"/>
	<path class="st3" d="M95.5,222.8l-5-1v-30c0,0,23,0,30,0c1,0,3,0,10,7"/>
</g>
<g>
	<circle class="st3" cx="-345.2" cy="-143.3" r="4.5"/>
	<circle class="st3" cx="-313.2" cy="-143.3" r="4.5"/>
	<line class="st3" x1="-318" y1="-142.9" x2="-337" y2="-142.9"/>
	<path class="st3" d="M-308-142.9c0,0-1,0,1,0c3,0,3-5,3-7c0-1-2-5-15-5h-21c-2,0-4-6-4-6"/>
	<path class="st3" d="M-355-143.9c0,0,0-4,0-5c0-2,3.5-4.1,4-6c1-4,2-6,2-6s6-1,17-1c5,0,13,7,13,7"/>
	<line class="st3" x1="-350" y1="-142.9" x2="-357" y2="-143.9"/>
	<polyline class="st3" points="-336,-161.9 -334,-154.9 -334,-145.9 	"/>
	<line class="st3" x1="-330" y1="-150.9" x2="-328" y2="-150.9"/>
</g>
<g>
	<circle class="st3" cx="-259.7" cy="-142.8" r="4.5"/>
	<circle class="st3" cx="-220.7" cy="-142.8" r="4.5"/>
	<line class="st3" x1="-225.5" y1="-142.4" x2="-251.5" y2="-142.4"/>
	<path class="st3" d="M-215.5-142.4c0,0-1,0,1,0c3,0,3-5,3-7c0-1-3-5-16-5h-33c-3,0-6-1-6-1"/>
	<path class="st3" d="M-264.5-142.4l-5-1c0,0,0-4,0-5c0-2,3-5,3-7s3-6,3-6s11-1,22-1c6,0,15.3,8,15.3,8"/>
	<polyline class="st3" points="-249.5,-161.4 -247.5,-154.4 -247.5,-145.4 	"/>
	<line class="st3" x1="-243.5" y1="-150.4" x2="-240.5" y2="-150.4"/>
</g>
<g>
	<circle class="st3" cx="-79.3" cy="-51.2" r="4.8"/>
	<circle class="st3" cx="-40.4" cy="-51.2" r="5.1"/>
	<line class="st3" x1="-45.5" y1="-50.7" x2="-70.5" y2="-50.7"/>
	<path class="st3" d="M-34.5-50.7c0,0-1,0,1,0s2-2,2-4s-1-3-1-3v0c0-0.7,0-1,0-2c0-2-4-5-4-5"/>
	<path class="st3" d="M-84.5-50.7l-5-1c0,0,0-2.5,0-4c0-0.7,1-1,1-1c0-2,0-6,0-8c0-2.4,0.4-5.5,0.7-7.7c0.2-1.3,1.3-2.3,2.7-2.3
		h36.7c4,0,12,10,12,10"/>
	<path class="st3" d="M-52.5-64.7v-7c0,0,2,0,4,0s8,7,8,7H-52.5"/>
	<line class="st3" x1="-52.5" y1="-59.7" x2="-49.5" y2="-59.7"/>
	<line class="st3" x1="-36.5" y1="-59.7" x2="-36.5" y2="-58.7"/>
</g>
<g>
	<circle class="st3" cx="10.7" cy="-48.7" r="4.8"/>
	<circle class="st3" cx="49.6" cy="-48.7" r="5.1"/>
	<line class="st3" x1="44.5" y1="-48.2" x2="19.5" y2="-48.2"/>
	<path class="st3" d="M55.5-48.2c0,0-1,0,1,0s2-2,2-4s-1-3-1-3v0c0-0.7,0-1,0-2c0-2-4-5-4-5"/>
	<path class="st3" d="M5.5-48.2l-5-1c0,0,0-2.5,0-4c0-0.7,1-1,1-1c0-2,0-8,0-10c0-2.4,0.4-8.5,0.7-10.7c0.2-1.3,1.3-2.3,2.7-2.3
		c0,0,21.7,0,28.7,0c6,0,20,15,20,15"/>
	<path class="st3" d="M37.5-62.2v-7c0,0,2,0,4,0c1,0,8,7,8,7H37.5"/>
	<line class="st3" x1="37.5" y1="-57.2" x2="40.5" y2="-57.2"/>
	<line class="st3" x1="53.5" y1="-57.2" x2="53.5" y2="-56.2"/>
</g>
<g>
	<circle class="st3" cx="-169.3" cy="-51.2" r="4.8"/>
	<circle class="st3" cx="-130.4" cy="-51.2" r="5.1"/>
	<line class="st3" x1="-135.5" y1="-50.7" x2="-160.5" y2="-50.7"/>
	<path class="st3" d="M-124.5-50.7c0,0-1,0,1,0s2-2,2-4s-1-3-1-3s0-0.9,0-2c0-2-3-4-10-5"/>
	<path class="st3" d="M-174.5-50.7l-5-1c0,0,0-3,0-4c0-0.4,1-1,1-1c0-2,0-6,0-8c0-2.4,0.4-5.5,0.7-7.7c0.2-1.3,1.3-2.3,2.7-2.3h24.7
		c7,0,18,10,18,10"/>
	<path class="st3" d="M-152.5-64.7v-7c0,0,0,0,2,0c4,0,13,7,13,7H-152.5"/>
	<line class="st3" x1="-151.5" y1="-59.7" x2="-148.5" y2="-59.7"/>
	<line class="st3" x1="-126.5" y1="-59.7" x2="-126.5" y2="-58.7"/>
</g>
<g>
	<circle class="st3" cx="-259.3" cy="-51.2" r="4.8"/>
	<circle class="st3" cx="-220.4" cy="-51.2" r="5.1"/>
	<line class="st3" x1="-225.5" y1="-50.7" x2="-250.5" y2="-50.7"/>
	<path class="st3" d="M-214.5-50.7c0,0-1,0,1,0s2-2,2-4s-1-3-1-3s0-0.9,0-2c0-2-3-4-10-5"/>
	<path class="st3" d="M-264.5-50.7l-5-1c0,0,0-3,0-4c0-0.4,1-1,1-1c0-2,0-2,0-4c0-3,4.8-4.1,6-7c3-7,9-7,9-7h13c7,0,18,10,18,10"/>
	<path class="st3" d="M-245.5-64.7v-7c0,0,3,0,5,0c4,0,13,7,13,7H-245.5"/>
	<line class="st3" x1="-242.5" y1="-59.7" x2="-239.5" y2="-59.7"/>
	<line class="st3" x1="-216.5" y1="-59.7" x2="-216.5" y2="-58.7"/>
</g>
<g>
	<circle class="st3" cx="190.7" cy="-47.7" r="4.8"/>
	<circle class="st3" cx="229.6" cy="-47.7" r="5.1"/>
	<line class="st3" x1="224.5" y1="-47.2" x2="199.5" y2="-47.2"/>
	<path class="st3" d="M235.5-47.2c0,0-1,0,1,0s2-2,2-4s-1-3-1-3v0c0-0.7,0-1,0-2c0-2-4-5-4-5"/>
	<path class="st3" d="M213.5-71.2h8c4,0,12,10,12,10"/>
	<path class="st3" d="M217.5-61.2v-7c0,0,2,0,4,0s8,7,8,7H217.5"/>
	<line class="st3" x1="217.5" y1="-56.2" x2="220.5" y2="-56.2"/>
	<line class="st3" x1="233.5" y1="-56.2" x2="233.5" y2="-55.2"/>
	<line class="st3" x1="181.5" y1="-52.2" x2="188.5" y2="-52.2"/>
	<line class="st3" x1="197.5" y1="-52.2" x2="212.5" y2="-52.2"/>
	<line class="st3" x1="213.5" y1="-71.2" x2="213.5" y2="-52.2"/>
	<path class="st3" d="M185.5-47.2l-5-1v-30c0,0,23,0,30,0c1,0,3,0,10,7"/>
</g>
<g>
	<circle class="st3" cx="-257.3" cy="38.8" r="4.8"/>
	<circle class="st3" cx="-220.4" cy="38.8" r="5.1"/>
	<line class="st3" x1="-225.5" y1="39.3" x2="-248.5" y2="39.3"/>
	<path class="st3" d="M-214.5,39.3c0,0-1,0,1,0s2-2,2-4s-1-3-1-3v0c0-0.7,0-1,0-2c0-2-4-5-4-5"/>
	<path class="st3" d="M-236.5,15.3h8c4,0,12,10,12,10"/>
	<path class="st3" d="M-232.5,25.3v-7c0,0,2,0,4,0s8,7,8,7H-232.5"/>
	<line class="st3" x1="-232.5" y1="30.3" x2="-229.5" y2="30.3"/>
	<line class="st3" x1="-216.5" y1="30.3" x2="-216.5" y2="31.3"/>
	<line class="st3" x1="-269.5" y1="34.3" x2="-259.5" y2="34.3"/>
	<line class="st3" x1="-250.5" y1="34.3" x2="-236.5" y2="34.3"/>
	<line class="st3" x1="-236.5" y1="15.3" x2="-236.5" y2="34.3"/>
	<polyline class="st3" points="-269.5,34.3 -269.5,28.3 -236.5,28.3 	"/>
	<polyline class="st3" points="-262.5,39.3 -266.5,38.3 -266.5,34.3 	"/>
</g>
<g>
	<circle class="st3" cx="280.7" cy="-51.2" r="4.8"/>
	<circle class="st3" cx="319.6" cy="-51.2" r="5.1"/>
	<line class="st3" x1="314.5" y1="-50.7" x2="289.5" y2="-50.7"/>
	<path class="st3" d="M325.5-50.7c0,0-1,0,1,0s2-2,2-4s-1-3-1-3v0c0-0.7,0-1,0-2c0-2-4-5-4-5"/>
	<path class="st3" d="M275.5-50.7l-5-1c0,0,0-2.5,0-4c0-0.7,1-1,1-1c0-2,0-6,0-8c0-2.4,0.4-5.5,0.7-7.7c0.2-1.3,1.3-2.3,2.7-2.3
		h36.7c4,0,12,10,12,10"/>
	<path class="st3" d="M307.5-64.7v-7c0,0,2,0,4,0s8,7,8,7H307.5"/>
	<line class="st3" x1="307.5" y1="-59.7" x2="310.5" y2="-59.7"/>
	<line class="st3" x1="300.5" y1="-59.7" x2="303.5" y2="-59.7"/>
	<line class="st3" x1="323.5" y1="-59.7" x2="323.5" y2="-58.7"/>
	<rect x="292.5" y="-71.7" class="st3" width="11" height="7"/>
	<path class="st3" d="M277.5-64.7c2,0,11,0,11,0v-7h-10C278.5-71.7,277.5-67.7,277.5-64.7z"/>
</g>
<g>
	<circle class="st3" cx="-167.3" cy="42.8" r="4.8"/>
	<circle class="st3" cx="-130.4" cy="42.8" r="5.1"/>
	<line class="st3" x1="-135.5" y1="43.3" x2="-158.5" y2="43.3"/>
	<path class="st3" d="M-124.5,43.3c0,0-1,0,1,0s2-2,2-4s-1-3-1-3v0c0-0.7,0-1,0-2c0-2-4-5-4-5"/>
	<path class="st3" d="M-146.5,19.3h8c4,0,12,10,12,10"/>
	<path class="st3" d="M-142.5,29.3v-7c0,0,2,0,4,0s8,7,8,7H-142.5"/>
	<line class="st3" x1="-142.5" y1="34.3" x2="-139.5" y2="34.3"/>
	<line class="st3" x1="-126.5" y1="34.3" x2="-126.5" y2="35.3"/>
	<line class="st3" x1="-179.5" y1="38.3" x2="-169.5" y2="38.3"/>
	<line class="st3" x1="-160.5" y1="38.3" x2="-146.5" y2="38.3"/>
	<line class="st3" x1="-146.5" y1="19.3" x2="-146.5" y2="38.3"/>
	<polyline class="st3" points="-179.5,38.3 -179.5,25.3 -152.5,25.3 -152.5,11.3 -129.5,11.3 -129.5,19.3 	"/>
	<polyline class="st3" points="-172.5,43.3 -176.5,42.3 -176.5,38.3 	"/>
	<line class="st3" x1="-129.5" y1="19.3" x2="-139.5" y2="19.3"/>
</g>
<g>
	<g>
		<circle class="st3" cx="-349.3" cy="37.8" r="4.8"/>
		<circle class="st3" cx="-311.4" cy="37.8" r="5.1"/>
		<line class="st3" x1="-316.5" y1="38.3" x2="-340.5" y2="38.3"/>
		<path class="st3" d="M-332.5,16.3c0,0,7.8-0.1,9.3,0.1c2.6,0.3,8.7,7.9,8.7,7.9"/>
		<path class="st3" d="M-354.5,38.3l-5-1c0,0,0-4,0-5c0-2,1-6,1-8h40c6.4,0,15,2,15,4c0,1.1,0,4,0,4s2,1,2,3s0,3-3,3c-2,0-1,0-1,0"
			/>
		<polyline class="st3" points="-332.5,16.3 -332.5,22 -332.5,38.3 		"/>
		<line class="st3" x1="-328.5" y1="29.3" x2="-325.5" y2="29.3"/>
		<line class="st3" x1="-328.5" y1="16.3" x2="-328.5" y2="23.3"/>
		<line class="st3" x1="-359.5" y1="34.3" x2="-353.5" y2="34.3"/>
		<line class="st3" x1="-341.5" y1="34.3" x2="-332.5" y2="34.3"/>
	</g>
	<line class="st3" x1="-306.5" y1="29.3" x2="-306.5" y2="30.3"/>
</g>
<g>
	<circle class="st3" cx="103" cy="-50.4" r="4.1"/>
	<circle class="st3" cx="139.9" cy="-50.4" r="4.4"/>
	<line class="st3" x1="135.6" y1="-50" x2="111.5" y2="-50"/>
	<path class="st3" d="M144.9-50c0,0,0.1,0,1.9,0c1.7,0,1.7-1.7,1.7-3.4s-0.9-2.6-0.9-2.6v0c0-0.6,0-0.9,0-1.7c0-1.7-3.4-4.3-3.4-4.3
		"/>
	<path class="st3" d="M98.6-50l-8.1-0.9c0,0,0-2.1,0-3.4c0-0.6,0.9-0.9,0.9-0.9c0-1.7,0-6.8,0-8.5c0-2.1,0.3-7.3,0.6-9.1
		c0.2-1.1,1.1-2,2.3-2c0,0,27.1,0,33,0c5.1,0,17,12.8,17,12.8"/>
	<path class="st3" d="M129.6-61.9v-6c0,0,1.7,0,3.4,0c0.9,0,6.8,6,6.8,6H129.6"/>
	<line class="st3" x1="129.6" y1="-57.7" x2="132.2" y2="-57.7"/>
	<line class="st3" x1="144.2" y1="-57.7" x2="144.2" y2="-56.8"/>
</g>
<g>
	<circle class="st3" cx="-349.3" cy="-51.2" r="4.8"/>
	<circle class="st3" cx="-310.4" cy="-51.2" r="5.1"/>
	<line class="st3" x1="-315.5" y1="-50.7" x2="-340.5" y2="-50.7"/>
	<path class="st3" d="M-304.5-50.7c0,0-1,0,1,0s2-2,2-4s-1-3-1-3v0c0-0.7,0-1,0-2c0-2-4-5-4-5"/>
	<path class="st3" d="M-354.5-50.7l-5-1c0,0,0-2.5,0-4c0-0.7,1-1,1-1c0-2,0-6,0-8c0-2.4,0.4-5.5,0.7-7.7c0.2-1.3,1.3-2.3,2.7-2.3
		h36.7c4,0,12,10,12,10"/>
	<path class="st3" d="M-322.5-64.7v-7c0,0,2,0,4,0s8,7,8,7H-322.5"/>
	<line class="st3" x1="-322.5" y1="-59.7" x2="-319.5" y2="-59.7"/>
	<line class="st3" x1="-336.5" y1="-59.7" x2="-333.5" y2="-59.7"/>
	<line class="st3" x1="-306.5" y1="-59.7" x2="-306.5" y2="-58.7"/>
	<rect x="-336.5" y="-71.7" class="st3" width="10" height="7"/>
</g>
<g>
	
		<ellipse transform="matrix(0.7844 -0.6202 0.6202 0.7844 -73.6714 221.3032)" class="st1" cx="281.5" cy="216.6" rx="10.5" ry="10.5"/>
	
		<ellipse transform="matrix(0.7844 -0.6202 0.6202 0.7844 -73.6714 221.3032)" class="st1" cx="281.5" cy="216.6" rx="2.5" ry="2.5"/>
	<circle class="st0" cx="312.5" cy="196.6" r="2.5"/>
	<circle class="st0" cx="312.5" cy="189.1" r="0"/>
	<ellipse transform="matrix(0.7071 -0.7071 0.7071 0.7071 -45.3075 273.2543)" class="st0" cx="307.2" cy="191.3" rx="0" ry="0"/>
	<circle class="st0" cx="305" cy="196.6" r="0"/>
	<ellipse transform="matrix(0.7071 -0.7071 0.7071 0.7071 -52.8125 276.363)" class="st0" cx="307.2" cy="201.9" rx="0" ry="0"/>
	<circle class="st0" cx="312.5" cy="204.1" r="0"/>
	<ellipse transform="matrix(0.7071 -0.7071 0.7071 0.7071 -49.7038 283.868)" class="st0" cx="317.8" cy="201.9" rx="0" ry="0"/>
	<circle class="st0" cx="320" cy="196.6" r="0"/>
	<ellipse transform="matrix(0.7071 -0.7071 0.7071 0.7071 -42.1988 280.7593)" class="st0" cx="317.8" cy="191.3" rx="0" ry="0"/>
	<circle class="st0" cx="312.5" cy="196.6" r="11.5"/>
	<path class="st1" d="M287.4,219.4c-0.4,0.9-1,1.7-1.9,2.4"/>
	<path class="st1" d="M276.4,220.7c-2.2-2.8-1.7-6.9,1.1-9.1c2.8-2.2,6.9-1.7,9.1,1.1c0.8,1,1.2,2.1,1.4,3.3"/>
	<circle class="st0" cx="322" cy="232.1" r="6"/>
	<line class="st0" x1="301" y1="186.1" x2="274" y2="209.1"/>
	<line class="st0" x1="328" y1="196.1" x2="328" y2="232.1"/>
	<line class="st0" x1="280" y1="227.1" x2="321" y2="238.1"/>
	<line class="st0" x1="322" y1="232.1" x2="322" y2="232.1"/>
	<circle class="st0" cx="312.5" cy="196.6" r="15.5"/>
	<path class="st0" d="M279.8,227c-5-0.8-8.8-5.2-8.8-10.4c0-3,1.3-5.7,3.3-7.6"/>
</g>
<g>
	<polygon class="st0" points="-305,321.1 -302,321.1 -302,291.1 -305,291.1 -309,302.1 -309,315.1 	"/>
	<rect x="-355" y="296.1" class="st0" width="5" height="18"/>
	<line class="st0" x1="-359" y1="311.1" x2="-359" y2="299.1"/>
	<line class="st0" x1="-359" y1="305.1" x2="-356" y2="305.1"/>
	<line class="st0" x1="-309" y1="315.1" x2="-314" y2="315.1"/>
	<line class="st0" x1="-309" y1="302.1" x2="-314" y2="302.1"/>
	<polygon class="st0" points="-350,290.1 -350,314.1 -345,321.1 -318,321.1 -314,315.1 -314,302.1 -317,296.1 -321,296.1 
		-321,290.1 	"/>
	<polyline class="st0" points="-332,285.1 -325,285.1 -325,278.1 -345,278.1 -345,285.1 -338,285.1 	"/>
	<line class="st0" x1="-340" y1="285.1" x2="-340" y2="290.1"/>
	<line class="st0" x1="-330" y1="285.1" x2="-330" y2="290.1"/>
	<line class="st0" x1="-321" y1="296.1" x2="-321" y2="302.1"/>
	<line class="st0" x1="-321" y1="306.1" x2="-321" y2="309.1"/>
	<polyline class="st1" points="-338,296.1 -331,296.1 -334,303.1 -328,303.1 -337,316.1 -335,306.1 -342,306.1 -339.2,299.1 	"/>
</g>
<g>
	<circle class="st0" cx="209.5" cy="209.6" r="28.5"/>
	<circle class="st0" cx="209.5" cy="209.6" r="22.5"/>
	<path class="st0" d="M214,227.6c-1.4,0.4-2.9,0.5-4.5,0.5c-1.5,0-3.1-0.2-4.5-0.5"/>
	<path class="st0" d="M226.2,201.7c1.2,2.4,1.8,5.1,1.8,8c0,0.9-0.1,1.7-0.2,2.6"/>
	<path class="st0" d="M231.8,212.3c-0.8-0.1-1.5-0.2-2.3-0.2c-8.6,0-15.5,6.9-15.5,15.5c0,1.4,0.2,2.7,0.5,3.9"/>
	<path class="st0" d="M204.5,231.6c0.3-1.3,0.5-2.6,0.5-3.9c0-8.6-6.9-15.5-15.5-15.5c-0.8,0-1.6,0.1-2.3,0.2"/>
	<path class="st0" d="M187.8,203.5c6.3-2.8,13.7-4.4,21.7-4.4s15.4,1.6,21.7,4.4"/>
	<circle class="st1" cx="209.5" cy="209.6" r="4.5"/>
	<path class="st0" d="M191.2,212.1c-0.1-0.8-0.2-1.6-0.2-2.5c0-2.9,0.6-5.6,1.8-8"/>
</g>
<g>
	<g>
		<circle class="st3" cx="-259.7" cy="318.7" r="4.5"/>
		<circle class="st3" cx="-220.7" cy="318.7" r="4.5"/>
		<line class="st3" x1="-225.5" y1="319.1" x2="-251.5" y2="319.1"/>
		<path class="st3" d="M-215.5,319.1c0,0-1,0,1,0c3,0,3-5,3-7c0-1-3-5-16-5h-33c-3,0-7-1-7-1"/>
		<path class="st3" d="M-264.5,319.1l-5-1c0,0,0-4,0-5c0-2,2-5,2-7s4-7,4-7s12,0,23,0c6,0,14.3,8,14.3,8"/>
		<polyline class="st3" points="-243.5,300.1 -241.5,307.1 -241.5,316.1 		"/>
		<line class="st3" x1="-237.5" y1="311.1" x2="-235.5" y2="311.1"/>
		<line class="st3" x1="-252" y1="311.1" x2="-250" y2="311.1"/>
		<line class="st3" x1="-255.5" y1="300.1" x2="-256.5" y2="307.1"/>
		<line class="st3" x1="-256.5" y1="307.1" x2="-256.5" y2="311.1"/>
	</g>
	<circle class="st1" cx="-261.8" cy="289.4" r="4.8"/>
	<circle class="st1" cx="-242.8" cy="289.4" r="4.8"/>
	<line class="st1" x1="-261.8" y1="289.4" x2="-253.5" y2="289.4"/>
	<line class="st1" x1="-255.9" y1="282.2" x2="-261.8" y2="289.4"/>
	<line class="st1" x1="-253.5" y1="289.4" x2="-257.1" y2="278.6"/>
	<line class="st1" x1="-242.8" y1="289.4" x2="-246.3" y2="277.4"/>
	<line class="st1" x1="-253.5" y1="289.4" x2="-246.3" y2="281"/>
	<line class="st1" x1="-255.9" y1="282.2" x2="-246.3" y2="281"/>
	<line class="st1" x1="-260.6" y1="277.4" x2="-254.7" y2="278.6"/>
	<line class="st1" x1="-246.3" y1="277.4" x2="-244" y2="276.1"/>
	<line class="st3" x1="-242.5" y1="297.1" x2="-242.5" y2="299.1"/>
	<line class="st3" x1="-261.5" y1="297.1" x2="-261.5" y2="299.1"/>
</g>
<g>
	<path class="st0" d="M-168,320.1v5c0,1.1-0.9,2-2,2h-4c-1.1,0-2-0.9-2-2v-5"/>
	<line class="st0" x1="-171" y1="320.1" x2="-152.6" y2="320.1"/>
	<path class="st0" d="M-176,320.1c-1.7,0-3-1.3-3-3v-8.5c0-1.9,0.2-3.9,0.6-5.8l5.3-25.5c0.6-3.1,3.4-5.3,6.5-5.3h15.6"/>
	<path class="st0" d="M-124.5,298.5l-4.4-21.1c-0.6-3.1-3.4-5.3-6.5-5.3H-151"/>
	<line class="st0" x1="-179" y1="292.1" x2="-177" y2="292.1"/>
	<line class="st0" x1="-125" y1="292.1" x2="-123" y2="292.1"/>
	<path class="st0" d="M-153,306.1c-3,0-8-1-8-1l1.2,4.3c0.5,1.6,1.9,2.7,3.6,2.7h2.2"/>
	<circle class="st0" cx="-159.5" cy="288.6" r="2.5"/>
	<path class="st0" d="M-145.5,295.1c0-2.2,1.8-4,4-4s4,1.8,4,4"/>
	<path class="st0" d="M-163.5,295.1c0-2.2,1.8-4,4-4s4,1.8,4,4"/>
	<circle class="st0" cx="-141.5" cy="288.6" r="2.5"/>
	<circle class="st1" cx="-136" cy="313.1" r="14"/>
	<g>
		<line class="st1" x1="-136" y1="317.1" x2="-136" y2="314.1"/>
		<line class="st1" x1="-136" y1="321.1" x2="-136" y2="321.1"/>
		<path class="st1" d="M-136,306.1c2.2,0,4,1.8,4,4s-1.8,4-4,4"/>
		<path class="st1" d="M-139.2,307.7c0.7-0.9,1.9-1.6,3.2-1.6"/>
	</g>
	<path class="st0" d="M-178,301.1c0,0,2,2,10,3v1.7c0,1.3-1,2.3-2.3,2.3h-7.7"/>
	<path class="st0" d="M-131,295.1h-40l2.4-12c0.3-1.7,1.9-3,3.6-3h28c1.8,0,3.3,1.2,3.6,3L-131,295.1z"/>
	<line class="st0" x1="-154" y1="316.1" x2="-175" y2="316.1"/>
	<line class="st0" x1="-153" y1="283.1" x2="-148" y2="283.1"/>
</g>
<g>
	<path class="st0" d="M-256,405.6v5c0,1.1-0.9,2-2,2h-6c-1.1,0-2-0.9-2-2v-5"/>
	<path class="st0" d="M-212.7,387.6c-0.4-1-0.9-1.9-1.6-2.8l-2.7-3.2"/>
	<line class="st0" x1="-260" y1="405.6" x2="-239.6" y2="405.6"/>
	<path class="st0" d="M-264,381.6l-2.7,3.2c-1.5,1.8-2.3,4.1-2.3,6.4v11.4c0,1.7,1.3,3,3,3"/>
	<path class="st0" d="M-217,381.6l-4.7-12.3c-1.1-2.8-3.6-4.8-6.5-5.2c-2.3-0.3-7.6-0.6-12.3-0.6s-10,0.2-12.3,0.6
		c-3,0.4-5.5,2.4-6.5,5.2l-4.7,12.3"/>
	<path class="st0" d="M-221.6,381.6l-3.6-9.5c-0.8-2.2-2.8-3.7-5.1-4c-1.8-0.2-6.5-0.4-10.2-0.4c-3.7,0-8.4,0.2-10.2,0.4
		c-2.3,0.3-4.2,1.8-5.1,4l-3.6,9.5H-221.6z"/>
	<circle class="st0" cx="-260" cy="391.1" r="3"/>
	<line class="st0" x1="-217" y1="381.6" x2="-212" y2="381.6"/>
	<line class="st0" x1="-269" y1="381.6" x2="-264" y2="381.6"/>
	<polyline class="st0" points="-240,394.6 -251,394.6 -251,400.6 -240,400.6 	"/>
	<circle class="st0" cx="-247.5" cy="374.1" r="2.5"/>
	<path class="st0" d="M-237.5,380.6c0-2.2,1.8-4,4-4s4,1.8,4,4"/>
	<path class="st0" d="M-251.5,380.6c0-2.2,1.8-4,4-4s4,1.8,4,4"/>
	<circle class="st0" cx="-233.5" cy="374.1" r="2.5"/>
	<g>
		<g>
			<g>
				<path class="st1" d="M-236,392.7v7.6c0,3.5,1.2,6.8,3.5,9.8c2.3,2.9,5.1,4.8,8.5,5.6c3.4-0.8,6.2-2.7,8.5-5.6
					c2.3-2.9,3.5-6.2,3.5-9.8v-7.6l-12-5.1L-236,392.7z"/>
			</g>
		</g>
	</g>
	<line class="st1" x1="-226" y1="407.6" x2="-222" y2="407.6"/>
	<polyline class="st1" points="-224,407.6 -224,399.6 -226,399.6 	"/>
	<line class="st1" x1="-224" y1="395.6" x2="-224" y2="395.6"/>
</g>
<g>
	<path class="st1" d="M228.3,289.9l-14.3-14.3c-1.8-1.8-4.7-1.8-6.5,0c0,0,0,0,0,0l-25.2,25.2c-1.8,1.8-1.8,4.7,0,6.5c0,0,0,0,0,0
		l7.7,7.7"/>
	<path class="st0" d="M196.9,293.8h38.1c1.6,0,2.9,1.3,2.9,2.9V322c0,1.6-1.3,2.9-2.9,2.9h-38.1c-1.6,0-2.9-1.3-2.9-2.9v-25.2
		C194,295.2,195.3,293.8,196.9,293.8z"/>
	<line class="st0" x1="194" y1="300.5" x2="238" y2="300.5"/>
	<line class="st0" x1="194" y1="306.7" x2="238" y2="306.7"/>
	<line class="st0" x1="200.4" y1="313.2" x2="209" y2="313.2"/>
	<line class="st0" x1="200.4" y1="319.4" x2="205.8" y2="319.4"/>
	<line class="st0" x1="213.3" y1="313.2" x2="218.7" y2="313.2"/>
	<line class="st1" x1="216" y1="277.7" x2="203.5" y2="290.2"/>
	<line class="st1" x1="190.5" y1="303.2" x2="185" y2="308.7"/>
	<line class="st1" x1="220" y1="281.7" x2="211.5" y2="290.2"/>
	<line class="st1" x1="190" y1="311.7" x2="188.5" y2="313.2"/>
</g>
<g>
	<path class="st0" d="M-166.4,361.2c-1.1,0-2.2,0.2-3.3,0.4l5.8,5.8l-0.1,8.7l-8.7,0.1l-5.8-5.8c-0.3,1-0.4,2.1-0.4,3.3
		c0,6.9,5.6,12.5,12.5,12.5s12.5-5.6,12.5-12.5S-159.5,361.2-166.4,361.2z"/>
	<g>
		<path class="st0" d="M-154.9,379.2l31.5,31.5c1.7,1.7,1.7,4.3,0,6h0c-1.7,1.7-4.3,1.7-6,0l-31.5-31.5"/>
	</g>
	<line class="st0" x1="-126.8" y1="413.2" x2="-126.8" y2="413.2"/>
	<path class="st1" d="M-150.3,378.2c6.4,0,11.5,5.1,11.5,11.5"/>
	<path class="st1" d="M-150.3,401.2c-6.4,0-11.5-5.1-11.5-11.5"/>
	<path class="st1" d="M-131.4,397.6c0.5-1.2,0.9-2.5,1.2-3.8l4.4-0.8v-6.5l-4.4-0.8c-0.5-2.6-1.6-5.1-3-7.2l2.6-3.7l-4.6-4.6
		l-3.7,2.6c-2.2-1.4-4.6-2.5-7.2-3l-0.8-4.4h-5.5"/>
	<path class="st1" d="M-174.8,387.5v5.5l4.4,0.8c0.5,2.6,1.6,5.1,3,7.2l-2.6,3.7l4.6,4.6l3.7-2.6c2.2,1.4,4.6,2.5,7.2,3l0.8,4.4h6.5
		l0.8-4.4c1.2-0.2,2.4-0.6,3.5-1.1"/>
</g>
<g>
	<g>
		<circle class="st3" cx="296.6" cy="314.6" r="6"/>
		<path class="st3" d="M296.6,312.2c1.4,0,2.5,1.1,2.5,2.5c0,1.4-1.1,2.5-2.5,2.5c-1.4,0-2.5-1.1-2.5-2.5"/>
		<line class="st3" x1="290.2" y1="315.2" x2="271.1" y2="315.2"/>
		<path class="st3" d="M303.7,315.2c0,0-1.3,0,1.3,0c4,0,4-6.7,4-9.4c0-1.3-2.7-6.7-20.2-6.7h-17.7"/>
		<path class="st3" d="M270.9,288.2c6.7,0,15.6,10.8,15.6,10.8"/>
		<line class="st3" x1="271.3" y1="304.4" x2="275.3" y2="304.4"/>
	</g>
	<line class="st3" x1="271.1" y1="311.6" x2="291.1" y2="311.6"/>
	<line class="st3" x1="302.1" y1="311.6" x2="308.1" y2="311.6"/>
	<path class="st3" d="M306.1,302.6h-3.5c-0.8,0-1.5,0.7-1.5,1.5l0,0c0,0.8,0.7,1.5,1.5,1.5h6.5"/>
	<path class="st3" d="M306.1,284.6c-1.1-0.7-7.2-1.3-16.4,13.7"/>
	<line class="st3" x1="281.1" y1="293.6" x2="279.1" y2="298.6"/>
	<circle class="st1" cx="325.6" cy="281.1" r="2.5"/>
	<path class="st1" d="M314.7,298.2c1,2,3,3.4,5.4,3.4c3.3,0,6-2.7,6-6c0-3.3-2.7-6-6-6c-2.6,0-4.9,1.7-5.7,4"/>
	<path class="st1" d="M321.1,289.7C321.1,289.7,321.1,289.6,321.1,289.7c0-3.4-2.7-6.1-6-6.1s-6,2.7-6,6c0,1.4,0.5,2.7,1.3,3.7
		c-1.3,0.5-2.3,1.8-2.3,3.3c0,1.9,1.6,3.5,3.5,3.5c1.4,0,2.5-0.8,3.1-1.9c1,2,3,3.4,5.4,3.4c3.3,0,6-2.7,6-6
		C326.1,292.6,323.9,290.2,321.1,289.7z"/>
</g>
<g>
	<path class="st0" d="M26.2,281.1c0-1.8,1.5-3.2,3.2-3.2c1.8,0,3.2,1.5,3.2,3.2"/>
	<path class="st0" d="M32.7,296.6c0-1.8,1.5-3.2,3.2-3.2c1.8,0,3.2,1.5,3.2,3.2"/>
	<path class="st0" d="M21,300.9c0-2.9,2.3-5.2,5.2-5.2"/>
	<path class="st0" d="M39.1,297.9c0-1.8,1.5-3.2,3.2-3.2c1.8,0,3.2,1.5,3.2,3.2"/>
	<path class="st0" d="M45.6,300.5c0-1.8,1.5-3.2,3.2-3.2c1.8,0,3.2,1.5,3.2,3.2"/>
	<line class="st0" x1="26.2" y1="281.1" x2="26.2" y2="305.1"/>
	<line class="st0" x1="32.7" y1="281.1" x2="32.7" y2="299.9"/>
	<line class="st0" x1="39.1" y1="296.6" x2="39.1" y2="299.9"/>
	<line class="st0" x1="45.6" y1="297.9" x2="45.6" y2="301.8"/>
	<path class="st0" d="M21,309.6c0,8.6,7,15.6,15.6,15.6s15.6-7,15.6-15.6"/>
	<path class="st0" d="M52.1,305.5c0,2.8,0,3.7,0,3.7S52.1,308.3,52.1,305.5c0-2.8,0-5,0-5S52.1,302.7,52.1,305.5z"/>
	<line class="st0" x1="21" y1="300.9" x2="21" y2="309.7"/>
	<circle class="st1" cx="8.5" cy="281.6" r="7.5"/>
	<circle class="st1" cx="50.5" cy="281.6" r="7.5"/>
	<path class="st1" d="M22.6,284.5c-0.4-0.9-0.6-1.9-0.6-2.9c0-1,0.2-2,0.6-2.9c0.4-0.9,0.9-1.7,1.6-2.4c0.7-0.7,1.5-1.2,2.4-1.6
		c0.9-0.4,1.9-0.6,2.9-0.6s2,0.2,2.9,0.6c0.9,0.4,1.7,0.9,2.4,1.6s1.2,1.5,1.6,2.4c0.4,0.9,0.6,1.9,0.6,2.9c0,1-0.2,2-0.6,2.9"/>
</g>
<g>
	<polyline class="st0" points="114,305.8 114,327.8 95,314.8 95,306.8 	"/>
	<polygon class="st0" points="110,316.8 91,303.8 95,292.8 114,305.8 	"/>
	<polyline class="st0" points="144,305.8 144,314.8 114,327.8 114,305.8 	"/>
	<polygon class="st0" points="148,303.8 118,316.8 114,305.8 144,292.8 	"/>
	<path class="st1" d="M114.1,300.8c0.8-7.9,6-16.2,12.4-19.3c6.7-3.2,12.1,0.6,12.5,8.4"/>
	<path class="st1" d="M120.8,297.8c0.6-3.4,2.9-6.8,5.7-8.1c2.9-1.4,5.3,0.1,5.7,3.2"/>
	<line class="st1" x1="121.4" y1="272.8" x2="134" y2="280.7"/>
	<g>
		<polyline class="st1" points="114.8,272.1 116.5,275 119.8,275.3 121.5,278.2 124.9,278.5 126.6,281.4 		"/>
	</g>
	<g>
		<polyline class="st1" points="102.8,286.1 104.5,289 107.8,289.3 109.5,292.2 112.9,292.5 114.6,295.4 		"/>
	</g>
	<g>
		<polyline class="st1" points="106.8,277.1 108.5,280 111.8,280.3 113.5,283.2 116.9,283.5 118.6,286.4 		"/>
	</g>
	<path class="st1" d="M100.5,291.6c0.7-7.8,5.9-16,12.2-19c3.4-1.6,6.4-1.4,8.7,0.2"/>
</g>
<g>
	<path class="st0" d="M-36,368.5h-34"/>
	<path class="st0" d="M-69.6,368.5H-85c-2.2,0-4,1.8-4,4v43.9h57v-43.9c0-2.2-1.8-4-4-4l0,0"/>
	<line class="st0" x1="-89" y1="410.9" x2="-32" y2="410.9"/>
	<path class="st0" d="M-81,368.5c0-3.1,2.6-5.7,5.7-5.7c3.1,0,5.7,2.6,5.7,5.7c0,3.1-2.6,5.7-5.7,5.7"/>
	<path class="st0" d="M-51.4,368.5c0-3.1,2.6-5.7,5.7-5.7c3.1,0,5.7,2.6,5.7,5.7c0,3.1-2.6,5.7-5.7,5.7"/>
	<circle class="st1" cx="-60.5" cy="384.1" r="2.3"/>
	<circle class="st1" cx="-51.4" cy="384.1" r="2.3"/>
	<circle class="st1" cx="-42.3" cy="384.1" r="2.3"/>
	<circle class="st1" cx="-60.5" cy="393.2" r="2.3"/>
	<circle class="st1" cx="-51.4" cy="393.2" r="2.3"/>
	<circle class="st1" cx="-42.3" cy="393.2" r="2.3"/>
	<circle class="st1" cx="-78.7" cy="393.2" r="2.3"/>
	<circle class="st1" cx="-69.6" cy="393.2" r="2.3"/>
	<circle class="st1" cx="-60.5" cy="402.3" r="2.3"/>
	<circle class="st1" cx="-51.4" cy="402.3" r="2.3"/>
	<circle class="st1" cx="-78.7" cy="402.3" r="2.3"/>
	<circle class="st1" cx="-69.6" cy="402.3" r="2.3"/>
	<line class="st1" x1="-44" y1="400.1" x2="-40" y2="404.1"/>
	<line class="st1" x1="-40" y1="400.1" x2="-44" y2="404.1"/>
</g>
<g>
	<path class="st0" d="M-63.1,297.5c1.1-0.5,1.9-1.5,2.1-2.7c1.4-6.3,1.6-12.8,0.8-19.2c-0.2-1.8-1.5-3.2-3.2-3.5
		c-7.4-1.5-15-1.5-22.4,0c-1.7,0.3-2.9,1.7-3.2,3.4c-1.1,6.5-0.8,13.1,0.9,19.5c0.3,1.1,1,2,2.1,2.5c0,0,4.4,2.2,11.3,2.2
		C-67.8,299.7-63.1,297.5-63.1,297.5z"/>
	<path class="st0" d="M-79.6,299.6l-0.1,23.7l5,5l5.2-5l0-23.7"/>
	<circle class="st0" cx="-74.6" cy="280.7" r="3"/>
	<line class="st0" x1="-75.6" y1="320.7" x2="-75.6" y2="299.7"/>
	<path class="st1" d="M-56.3,279.8l17,17c1.6,1.6,1.6,4.1,0,5.7l-10.1,10.1c-1.5,1.5-4,1.6-5.5,0.1l-10-10.2"/>
	<path class="st1" d="M-37.1,294.6c2.8,2.8,2.8,7.3,0,10.1"/>
	<path class="st1" d="M-34.6,292.1c4.2,4.2,4.2,10.9,0,15.1"/>
	
		<rect x="-53.2" y="299.7" transform="matrix(0.7071 -0.7071 0.7071 0.7071 -227.8359 53.179)" class="st1" width="6.9" height="3.8"/>
	<path class="st1" d="M-55,299.9c-1-1-1-2.6,0-3.5s2.6-1,3.5,0"/>
	<line class="st1" x1="-55" y1="299.9" x2="-53.5" y2="301.3"/>
	<line class="st1" x1="-51.8" y1="285.3" x2="-55.8" y2="289.3"/>
</g>
<g>
	<line class="st0" x1="-358.5" y1="393.6" x2="-352.5" y2="393.6"/>
	<line class="st0" x1="-355.1" y1="407.4" x2="-353.3" y2="406.4"/>
	<line class="st0" x1="-307.4" y1="408.3" x2="-309.2" y2="407.3"/>
	<line class="st0" x1="-303.5" y1="394.6" x2="-309.5" y2="394.6"/>
	<line class="st0" x1="-306.9" y1="380.8" x2="-308.7" y2="381.8"/>
	<line class="st0" x1="-330.5" y1="366.6" x2="-330.5" y2="372.6"/>
	<line class="st0" x1="-344.3" y1="370.1" x2="-343.3" y2="371.8"/>
	<line class="st0" x1="-354.6" y1="379.9" x2="-352.8" y2="380.9"/>
	<path class="st1" d="M-318.6,373.6L-318.6,373.6c-0.6-0.4-1.4-0.2-1.8,0.3l-13.9,16.7c-2,2.4-1.3,6,1.5,7.6l0,0
		c2.8,1.6,6.3,0.4,7.4-2.5l7.5-20.4C-317.7,374.7-318,373.9-318.6,373.6z"/>
	<g>
		<path class="st0" d="M-302.5,393.6c0-15.5-12.5-28-28-28s-28,12.5-28,28c0,7.8,3.2,14.9,8.4,20h39.2
			C-305.7,408.5-302.5,401.5-302.5,393.6z"/>
	</g>
	<line class="st0" x1="-340.5" y1="404.6" x2="-340.5" y2="407.6"/>
	<line class="st0" x1="-335.5" y1="404.6" x2="-335.5" y2="407.6"/>
	<line class="st0" x1="-330.5" y1="404.6" x2="-330.5" y2="407.6"/>
	<line class="st0" x1="-325.5" y1="404.6" x2="-325.5" y2="407.6"/>
	<line class="st0" x1="-320.5" y1="406.6" x2="-320.5" y2="407.6"/>
</g>
</svg>
