<?xml version="1.0" encoding="utf-8"?>
<!-- Generator: Adobe Illustrator 21.1.0, SVG Export Plug-In . SVG Version: 6.00 Build 0)  -->
<svg version="1.1" id="Layer_1" xmlns="http://www.w3.org/2000/svg" xmlns:xlink="http://www.w3.org/1999/xlink" x="0px" y="0px"
	 viewBox="0 0 60 26" style="enable-background:new 0 0 60 26;" xml:space="preserve">
<style type="text/css">
	.st0{fill:none;stroke:#000000;stroke-width:2;stroke-linecap:round;stroke-linejoin:round;stroke-miterlimit:10;}
	.st1{fill:none;stroke:#BA0C2F;stroke-width:2;stroke-linecap:round;stroke-linejoin:round;stroke-miterlimit:10;}
	.st2{fill:#BA0C2F;}
	.st3{fill:none;stroke:#000000;stroke-width:2;stroke-linecap:round;stroke-linejoin:round;}
</style>
<g>
	<path class="st0" d="M278,186.4c0-12.2,9.8-22,22-22s22,9.8,22,22"/>
	<path class="st0" d="M322.3,203.4c0,8.8-7.2,16-16,16"/>
	<rect x="319.5" y="186.9" class="st0" width="5" height="15.5"/>
	<rect x="275.5" y="186.9" class="st0" width="5" height="15.5"/>
	<path class="st0" d="M303.3,221.6h-6.5c-1.2,0-2.3-1-2.3-2.3l0,0c0-1.2,1-2.3,2.3-2.3h6.5c1.2,0,2.3,1,2.3,2.3l0,0
		C305.5,220.6,304.5,221.6,303.3,221.6z"/>
	<path class="st1" d="M291.3,202.4c0,4.8,3.9,8.8,8.8,8.8s8.8-3.9,8.8-8.8H291.3z"/>
	<path class="st0" d="M324.5,198.6c2.2,0,4-1.8,4-4s-1.8-4-4-4V198.6z"/>
	<path class="st0" d="M275.5,190.6c-2.2,0-4,1.8-4,4s1.8,4,4,4V190.6z"/>
	<path class="st1" d="M296.5,195.4c0-1.7-1.3-3-3-3s-3,1.3-3,3"/>
	<path class="st1" d="M309.5,195.4c0-1.7-1.3-3-3-3s-3,1.3-3,3"/>
	<path class="st1" d="M284.5,188.4c5,0,11-8,8-17c3,9,8,18,23,16"/>
</g>
<g>
	<path class="st0" d="M375.5,204.5v-38c0-1.1,0.9-2,2-2h39c1.1,0,2,0.9,2,2v46c0,5-4,9-9,9h-39c-5,0-9-4-9-9v-2c0-1.1,0.9-2,2-2h39
		c1.1,0,2,0.9,2,2v1c0,5,5,6,5,6"/>
	<line class="st1" x1="392.5" y1="174.5" x2="411.5" y2="174.5"/>
	<line class="st1" x1="382.5" y1="174.5" x2="386.5" y2="174.5"/>
	<line class="st1" x1="407.5" y1="185.5" x2="411.5" y2="185.5"/>
	<line class="st1" x1="382.5" y1="185.5" x2="401.5" y2="185.5"/>
	<line class="st1" x1="397.5" y1="196.5" x2="411.5" y2="196.5"/>
	<line class="st1" x1="382.5" y1="196.5" x2="391.5" y2="196.5"/>
	<circle class="st1" cx="389.5" cy="174.5" r="3"/>
	<circle class="st1" cx="404.5" cy="185.5" r="3"/>
	<circle class="st1" cx="394.5" cy="196.5" r="3"/>
</g>
<g>
	<path class="st0" d="M584.5,269.5c-0.6-0.4-1.2-0.7-1.8-1"/>
	<path class="st0" d="M593.4,279.5c-0.7-1.8-1.7-3.5-2.9-5"/>
	<path class="st0" d="M586.5,300.2c3.2-2.3,5.6-5.3,6.9-8.7"/>
	<path class="st0" d="M557.8,303.2c3.5,1.5,7.5,2.3,11.7,2.3c4.5,0,8.8-1,12.5-2.7"/>
	<path class="st0" d="M556.3,268.5c-7.1,3.5-11.8,9.8-11.8,17c0,6.2,3.5,11.7,9,15.4"/>
	<path class="st1" d="M579,272.3c-2.8-1.3-6-2-9.5-2s-6.7,0.7-9.5,2"/>
	<polyline class="st0" points="593.5,279.5 598.5,279.5 598.5,291.5 593.5,291.5 	"/>
	<path class="st0" d="M544.5,285.5L544.5,285.5c-1.7,0-3-1.3-3-3v-4"/>
	<path class="st1" d="M563.2,271.1c-2-1.7-3.2-4.3-3.2-7.1c0-5.2,4.3-9.5,9.5-9.5s9.5,4.3,9.5,9.5c0,2.9-1.3,5.4-3.2,7.1"/>
	<polyline class="st0" points="553.5,300.9 553.5,311.5 560.5,311.5 561.1,304.3 	"/>
	<polyline class="st0" points="578.9,304 579.5,311.5 586.5,311.5 586.5,300.2 	"/>
	<polyline class="st0" points="584.5,269.5 591,266 590.5,274.5 	"/>
	<path class="st0" d="M583,279.1c0-1.4,1.1-2.5,2.5-2.5s2.5,1.1,2.5,2.5"/>
	<path class="st1" d="M567.5,261.5c0-1.1,0.9-2,2-2"/>
	<line class="st1" x1="567.5" y1="261.5" x2="567.5" y2="266.5"/>
	<line class="st1" x1="566.5" y1="266.5" x2="571.5" y2="266.5"/>
	<line class="st1" x1="567.5" y1="262.5" x2="569.5" y2="262.5"/>
</g>
<g>
	<path class="st1" d="M223.5,203c0-1.1,0.9-2,2-2"/>
	<line class="st1" x1="223.5" y1="203" x2="223.5" y2="208"/>
	<line class="st1" x1="222.5" y1="208" x2="227.5" y2="208"/>
	<line class="st1" x1="223.5" y1="204" x2="225.5" y2="204"/>
	<g>
		<path class="st1" d="M224.5,219c-3.9,0-7.4-1.6-9.9-4.1c-2.5-2.5-4.1-6-4.1-9.9s1.6-7.4,4.1-9.9"/>
		<path class="st1" d="M224.5,191c3.9,0,7.4,1.6,9.9,4.1c2.5,2.5,4.1,6,4.1,9.9s-1.6,7.4-4.1,9.9"/>
		<polyline class="st1" points="210.5,194 216.4,194 216.4,199.9 		"/>
		<polyline class="st1" points="238.5,216 232.6,216 232.6,210.1 		"/>
	</g>
	<path class="st0" d="M194.5,209v5c0,1.1-0.9,2-2,2h-6c-1.1,0-2-0.9-2-2v-5"/>
	<path class="st0" d="M238.5,194.6c0-2.3-0.8-4.6-2.3-6.4l-2.7-3.2"/>
	<line class="st0" x1="190.5" y1="209" x2="206.9" y2="209"/>
	<path class="st0" d="M186.5,185l-2.7,3.2c-1.5,1.8-2.3,4.1-2.3,6.4V206c0,1.7,1.3,3,3,3"/>
	<path class="st0" d="M233.5,185l-4.7-12.3c-1.1-2.8-3.6-4.8-6.5-5.2c-2.3-0.3-7.6-0.6-12.3-0.6s-10,0.2-12.3,0.6
		c-3,0.4-5.5,2.4-6.5,5.2l-4.7,12.3"/>
	<path class="st0" d="M228.9,185l-3.6-9.5c-0.8-2.2-2.8-3.7-5.1-4c-1.8-0.2-6.5-0.4-10.2-0.4s-8.4,0.2-10.2,0.4
		c-2.3,0.3-4.2,1.8-5.1,4l-3.6,9.5H228.9z"/>
	<circle class="st0" cx="190.5" cy="194.5" r="3"/>
	<line class="st0" x1="233.5" y1="185" x2="238.5" y2="185"/>
	<line class="st0" x1="181.5" y1="185" x2="186.5" y2="185"/>
	<polyline class="st0" points="207.5,198 199.5,198 199.5,204 205.5,204 	"/>
	<circle class="st0" cx="203" cy="177.5" r="2.5"/>
	<path class="st0" d="M213,184c0-2.2,1.8-4,4-4s4,1.8,4,4"/>
	<path class="st0" d="M199,184c0-2.2,1.8-4,4-4s4,1.8,4,4"/>
	<circle class="st0" cx="217" cy="177.5" r="2.5"/>
</g>
<g>
	<path class="st0" d="M-75.5,299v5c0,1.1-0.9,2-2,2h-6c-1.1,0-2-0.9-2-2v-5"/>
	<path class="st0" d="M-31.5,284.6c0-2.3-0.8-4.6-2.3-6.4l-2.7-3.2"/>
	<line class="st0" x1="-79.5" y1="299" x2="-63.1" y2="299"/>
	<path class="st0" d="M-83.5,275l-2.7,3.2c-1.5,1.8-2.3,4.1-2.3,6.4V296c0,1.7,1.3,3,3,3"/>
	<path class="st0" d="M-36.5,275l-4.7-12.3c-1.1-2.8-3.6-4.8-6.5-5.2c-2.3-0.3-7.6-0.6-12.3-0.6s-10,0.2-12.3,0.6
		c-3,0.4-5.5,2.4-6.5,5.2l-4.7,12.3"/>
	<path class="st0" d="M-41.1,275l-3.6-9.5c-0.8-2.2-2.8-3.7-5.1-4c-1.8-0.2-6.5-0.4-10.2-0.4s-8.4,0.2-10.2,0.4
		c-2.3,0.3-4.2,1.8-5.1,4l-3.6,9.5H-41.1z"/>
	<circle class="st0" cx="-79.5" cy="284.5" r="3"/>
	<line class="st0" x1="-36.5" y1="275" x2="-31.5" y2="275"/>
	<line class="st0" x1="-88.5" y1="275" x2="-83.5" y2="275"/>
	<polyline class="st0" points="-62.5,288 -70.5,288 -70.5,294 -64.5,294 	"/>
	<circle class="st0" cx="-67" cy="267.5" r="2.5"/>
	<path class="st0" d="M-57,274c0-2.2,1.8-4,4-4s4,1.8,4,4"/>
	<path class="st0" d="M-71,274c0-2.2,1.8-4,4-4s4,1.8,4,4"/>
	<circle class="st0" cx="-53" cy="267.5" r="2.5"/>
	<circle class="st1" cx="-45.5" cy="295" r="14"/>
	<g>
		<line class="st1" x1="-45.5" y1="299" x2="-45.5" y2="296"/>
		<line class="st1" x1="-45.5" y1="303" x2="-45.5" y2="303"/>
		<path class="st1" d="M-45.5,288c2.2,0,4,1.8,4,4s-1.8,4-4,4"/>
		<path class="st1" d="M-48.7,289.6c0.7-0.9,1.9-1.6,3.2-1.6"/>
	</g>
</g>
<g>
	<g>
		<path class="st1" d="M478,183.7c0-1.4,1.1-2.5,2.5-2.5"/>
		<line class="st1" x1="478" y1="183.7" x2="478" y2="189.9"/>
		<line class="st1" x1="476.8" y1="189.9" x2="483" y2="189.9"/>
		<line class="st1" x1="478" y1="185" x2="480.5" y2="185"/>
	</g>
	<line class="st0" x1="470.5" y1="168.5" x2="498.5" y2="168.5"/>
	<line class="st0" x1="462.5" y1="168.5" x2="464.5" y2="168.5"/>
	<path class="st0" d="M484.5,208.5v7l1,0h2c3.3,0,6,2.7,6,6l0,0h-27l0,0c0-3.3,2.7-6,6-6h2l1,0v-8l0-2.5c-8.1-2-14.1-9.4-14.1-18.1
		v-22.4h37.3v22.4c0,10.3-8.3,18.6-18.6,18.6"/>
	<line class="st0" x1="508.5" y1="173.5" x2="499.5" y2="173.5"/>
	<path class="st0" d="M508.5,173.5c0,0,0,5,0,7c0,4-2,10-10,11"/>
	<path class="st0" d="M461.5,191.5c-8-1-10-7-10-11c0-2,0-7,0-7h9"/>
	<path class="st1" d="M481.4,173.9l0.6,0.6c0.5,0.5,1.2,0.7,1.9,0.5l0.8-0.2c1.1-0.3,2.2,0.3,2.5,1.4l0.2,0.8
		c0.2,0.7,0.7,1.2,1.4,1.4l0.8,0.2c1.1,0.3,1.7,1.4,1.4,2.5l-0.2,0.8c-0.2,0.7,0,1.4,0.5,1.9l0.6,0.6c0.8,0.8,0.8,2.1,0,2.8
		l-0.6,0.6c-0.5,0.5-0.7,1.2-0.5,1.9l0.2,0.8c0.3,1.1-0.3,2.2-1.4,2.5l-0.8,0.2c-0.7,0.2-1.2,0.7-1.4,1.4l-0.2,0.8
		c-0.3,1.1-1.4,1.7-2.5,1.4l-0.8-0.2c-0.7-0.2-1.4,0-1.9,0.5l-0.6,0.6c-0.8,0.8-2.1,0.8-2.8,0l-0.6-0.6c-0.5-0.5-1.2-0.7-1.9-0.5
		l-0.8,0.2c-1.1,0.3-2.2-0.3-2.5-1.4l-0.2-0.8c-0.2-0.7-0.7-1.2-1.4-1.4l-0.8-0.2c-1.1-0.3-1.7-1.4-1.4-2.5l0.2-0.8
		c0.2-0.7,0-1.4-0.5-1.9l-0.6-0.6c-0.8-0.8-0.8-2.1,0-2.8l0.6-0.6c0.5-0.5,0.7-1.2,0.5-1.9l-0.2-0.8c-0.3-1.1,0.3-2.2,1.4-2.5
		l0.8-0.2c0.7-0.2,1.2-0.7,1.4-1.4l0.2-0.8c0.3-1.1,1.4-1.7,2.5-1.4l0.8,0.2c0.7,0.2,1.4,0,1.9-0.5l0.6-0.6
		C479.4,173.1,480.6,173.1,481.4,173.9z"/>
</g>
<g>
	<g>
		<path d="M30,402.5c-13.8,0-25-11.2-25-25s11.2-25,25-25s25,11.2,25,25S43.8,402.5,30,402.5z M30,354.5c-12.7,0-23,10.3-23,23
			s10.3,23,23,23s23-10.3,23-23S42.7,354.5,30,354.5z"/>
	</g>
	<g>
		<path d="M30,359.5c-0.3,0-0.5-0.1-0.7-0.3c-0.2-0.2-0.3-0.5-0.3-0.7c0-0.3,0.1-0.5,0.3-0.7c0.4-0.4,1-0.4,1.4,0
			c0.2,0.2,0.3,0.4,0.3,0.7c0,0.3-0.1,0.5-0.3,0.7C30.5,359.4,30.3,359.5,30,359.5z"/>
	</g>
	<g>
		<path d="M20.5,362c-0.1,0-0.3,0-0.4-0.1c-0.1,0-0.2-0.1-0.3-0.2c-0.2-0.2-0.3-0.4-0.3-0.7c0-0.3,0.1-0.5,0.3-0.7
			c0.1-0.1,0.2-0.2,0.3-0.2c0.4-0.1,0.8-0.1,1.1,0.2c0.2,0.2,0.3,0.4,0.3,0.7c0,0.3-0.1,0.5-0.3,0.7C21,361.9,20.8,362,20.5,362z"/>
	</g>
	<g>
		<path d="M13.5,369c-0.3,0-0.5-0.1-0.7-0.3c-0.2-0.2-0.3-0.5-0.3-0.7c0-0.3,0.1-0.5,0.3-0.7c0.4-0.4,1-0.4,1.4,0
			c0.2,0.2,0.3,0.4,0.3,0.7c0,0.3-0.1,0.5-0.3,0.7C14.1,368.9,13.8,369,13.5,369z"/>
	</g>
	<g>
		<path d="M11,378.5c-0.3,0-0.5-0.1-0.7-0.3c-0.2-0.2-0.3-0.5-0.3-0.7c0-0.1,0-0.3,0.1-0.4c0.1-0.1,0.1-0.2,0.2-0.3
			c0.4-0.4,1-0.4,1.4,0c0.1,0.1,0.2,0.2,0.2,0.3c0.1,0.1,0.1,0.3,0.1,0.4c0,0.3-0.1,0.5-0.3,0.7C11.5,378.4,11.3,378.5,11,378.5z"/>
	</g>
	<g>
		<path d="M13.5,388c-0.1,0-0.3,0-0.4-0.1c-0.1-0.1-0.2-0.1-0.3-0.2c-0.1-0.1-0.2-0.2-0.2-0.3c0-0.1-0.1-0.3-0.1-0.4
			c0-0.1,0-0.3,0.1-0.4c0.1-0.1,0.1-0.2,0.2-0.3c0.1-0.1,0.2-0.2,0.3-0.2c0.4-0.2,0.8-0.1,1.1,0.2c0.1,0.1,0.2,0.2,0.2,0.3
			c0.1,0.1,0.1,0.3,0.1,0.4c0,0.1,0,0.3-0.1,0.4c0,0.1-0.1,0.2-0.2,0.3C14.1,387.9,13.8,388,13.5,388z"/>
	</g>
	<g>
		<path d="M20.5,395c-0.1,0-0.3,0-0.4-0.1c-0.1-0.1-0.2-0.1-0.3-0.2c-0.1-0.1-0.2-0.2-0.2-0.3c0-0.1-0.1-0.3-0.1-0.4
			c0-0.3,0.1-0.5,0.3-0.7c0.1-0.1,0.2-0.2,0.3-0.2c0.2-0.1,0.5-0.1,0.8,0c0.1,0,0.2,0.1,0.3,0.2c0.2,0.2,0.3,0.4,0.3,0.7
			c0,0.1,0,0.3-0.1,0.4c-0.1,0.1-0.1,0.2-0.2,0.3c-0.1,0.1-0.2,0.2-0.3,0.2C20.8,394.9,20.6,395,20.5,395z"/>
	</g>
	<g>
		<path d="M30,397.5c-0.3,0-0.5-0.1-0.7-0.3c-0.1-0.1-0.2-0.2-0.2-0.3c0-0.1-0.1-0.3-0.1-0.4c0-0.1,0-0.1,0-0.2c0-0.1,0-0.1,0.1-0.2
			c0-0.1,0.1-0.1,0.1-0.2c0-0.1,0.1-0.1,0.1-0.1c0.3-0.3,0.7-0.4,1.1-0.2c0.1,0.1,0.2,0.1,0.3,0.2c0.2,0.2,0.3,0.4,0.3,0.7
			c0,0.1,0,0.3-0.1,0.4c-0.1,0.1-0.1,0.2-0.2,0.3c-0.1,0.1-0.2,0.2-0.3,0.2C30.3,397.5,30.1,397.5,30,397.5z"/>
	</g>
	<g>
		<path d="M39.5,395c-0.1,0-0.3,0-0.4-0.1c-0.1-0.1-0.2-0.1-0.3-0.2c-0.1-0.1-0.2-0.2-0.2-0.3c0-0.1-0.1-0.3-0.1-0.4
			c0-0.3,0.1-0.5,0.3-0.7c0.1-0.1,0.2-0.2,0.3-0.2c0.2-0.1,0.4-0.1,0.6-0.1c0.1,0,0.1,0,0.2,0.1c0.1,0,0.1,0.1,0.2,0.1
			c0,0,0.1,0.1,0.1,0.1c0.2,0.2,0.3,0.4,0.3,0.7c0,0.1,0,0.3-0.1,0.4c-0.1,0.1-0.1,0.2-0.2,0.3C40,394.8,39.8,395,39.5,395z"/>
	</g>
	<g>
		<path d="M46.4,388c-0.1,0-0.3,0-0.4-0.1c-0.1-0.1-0.2-0.1-0.3-0.2c-0.1-0.1-0.2-0.2-0.2-0.3s-0.1-0.3-0.1-0.4c0-0.1,0-0.3,0.1-0.4
			c0-0.1,0.1-0.2,0.2-0.3c0.1-0.1,0.2-0.2,0.3-0.2c0.4-0.2,0.8-0.1,1.1,0.2c0.1,0.1,0.2,0.2,0.2,0.3c0,0.1,0.1,0.3,0.1,0.4
			c0,0.1,0,0.3-0.1,0.4c-0.1,0.1-0.1,0.2-0.2,0.3C47,387.9,46.7,388,46.4,388z"/>
	</g>
	<g>
		<path d="M49,378.5c-0.1,0-0.3,0-0.4-0.1c-0.1-0.1-0.2-0.1-0.3-0.2c-0.2-0.2-0.3-0.5-0.3-0.7c0-0.1,0-0.3,0.1-0.4
			c0.1-0.1,0.1-0.2,0.2-0.3c0.1-0.1,0.2-0.2,0.3-0.2c0.4-0.2,0.8-0.1,1.1,0.2c0.1,0.1,0.2,0.2,0.2,0.3c0.1,0.1,0.1,0.3,0.1,0.4
			c0,0.3-0.1,0.5-0.3,0.7C49.5,378.4,49.3,378.5,49,378.5z"/>
	</g>
	<g>
		<path d="M46.4,369c-0.3,0-0.5-0.1-0.7-0.3c-0.2-0.2-0.3-0.5-0.3-0.7c0-0.3,0.1-0.5,0.3-0.7c0.4-0.4,1-0.4,1.4,0
			c0.2,0.2,0.3,0.4,0.3,0.7c0,0.3-0.1,0.5-0.3,0.7C47,368.9,46.7,369,46.4,369z"/>
	</g>
	<g>
		<path d="M38,350.5H22c-0.6,0-1-0.4-1-1v-5c0-0.6,0.4-1,1-1h16c0.6,0,1,0.4,1,1v5C39,350.1,38.6,350.5,38,350.5z M23,348.5h14v-3
			H23V348.5z"/>
	</g>
	<g>
		<path d="M26,354.5c-0.6,0-1-0.4-1-1v-4c0-0.6,0.4-1,1-1s1,0.4,1,1v4C27,354.1,26.6,354.5,26,354.5z"/>
	</g>
	<g>
		<path d="M34,354.5c-0.6,0-1-0.4-1-1v-4c0-0.6,0.4-1,1-1s1,0.4,1,1v4C35,354.1,34.6,354.5,34,354.5z"/>
	</g>
	<g>
		<path d="M52.5,361c-0.3,0-0.5-0.1-0.7-0.3l-7-7c-0.4-0.4-0.4-1,0-1.4s1-0.4,1.4,0l7,7c0.4,0.4,0.4,1,0,1.4
			C53,360.9,52.8,361,52.5,361z"/>
	</g>
	<g>
		<path d="M7.5,361c-0.3,0-0.5-0.1-0.7-0.3c-0.4-0.4-0.4-1,0-1.4l7-7c0.4-0.4,1-0.4,1.4,0s0.4,1,0,1.4l-7,7C8,360.9,7.8,361,7.5,361
			z"/>
	</g>
	<g>
		<path class="st2" d="M30.1,382.5c-0.9,0-1.8-0.2-2.6-0.7c-1.3-0.8-2.3-2.1-2.5-3.6c-0.3-1.5,0.1-3.1,1.1-4.3l11.7-14.1
			c0.7-0.8,1.8-1,2.8-0.5c0.9,0.5,1.3,1.7,0.9,2.7L35,379.1c-0.5,1.4-1.7,2.6-3.1,3.1C31.3,382.4,30.7,382.5,30.1,382.5z M39.4,361
			c-0.1,0-0.1,0-0.1,0.1l-11.7,14.2c-0.6,0.7-0.9,1.7-0.7,2.6s0.7,1.7,1.6,2.2c0.8,0.5,1.8,0.6,2.7,0.2c0.9-0.3,1.6-1,1.9-1.9
			l6.4-17.2C39.6,361.2,39.6,361.1,39.4,361C39.5,361,39.4,361,39.4,361z"/>
	</g>
</g>
<g>
	<path class="st0" d="M104.5,299v5c0,1.1-0.9,2-2,2h-6c-1.1,0-2-0.9-2-2v-5"/>
	<path class="st0" d="M147.8,281c-0.4-1-0.9-1.9-1.6-2.8l-2.7-3.2"/>
	<line class="st0" x1="100.5" y1="299" x2="120.9" y2="299"/>
	<path class="st0" d="M96.5,275l-2.7,3.2c-1.5,1.8-2.3,4.1-2.3,6.4V296c0,1.7,1.3,3,3,3"/>
	<path class="st0" d="M143.5,275l-4.7-12.3c-1.1-2.8-3.6-4.8-6.5-5.2c-2.3-0.3-7.6-0.6-12.3-0.6s-10,0.2-12.3,0.6
		c-3,0.4-5.5,2.4-6.5,5.2L96.5,275"/>
	<path class="st0" d="M138.9,275l-3.6-9.5c-0.8-2.2-2.8-3.7-5.1-4c-1.8-0.2-6.5-0.4-10.2-0.4s-8.4,0.2-10.2,0.4
		c-2.3,0.3-4.2,1.8-5.1,4l-3.6,9.5H138.9z"/>
	<circle class="st0" cx="100.5" cy="284.5" r="3"/>
	<line class="st0" x1="143.5" y1="275" x2="148.5" y2="275"/>
	<line class="st0" x1="91.5" y1="275" x2="96.5" y2="275"/>
	<polyline class="st0" points="120.5,288 109.5,288 109.5,294 120.5,294 	"/>
	<circle class="st0" cx="113" cy="267.5" r="2.5"/>
	<path class="st0" d="M123,274c0-2.2,1.8-4,4-4s4,1.8,4,4"/>
	<path class="st0" d="M109,274c0-2.2,1.8-4,4-4s4,1.8,4,4"/>
	<circle class="st0" cx="127" cy="267.5" r="2.5"/>
	<g>
		<g>
			<g>
				<path class="st1" d="M125.5,286.9v7.3c0,3.4,1.1,6.6,3.3,9.4c2.2,2.8,4.9,4.6,8.2,5.4c3.2-0.8,6-2.6,8.2-5.4
					c2.2-2.8,3.3-6,3.3-9.4v-7.3L137,282L125.5,286.9z"/>
			</g>
		</g>
	</g>
	<polyline class="st1" points="132.5,296 136.5,299 142.5,292 	"/>
</g>
<g>
	<path class="st1" d="M471.2,297.8c2.6-2.2,5.9-7.8,1.5-13.3c-5.6-7-21-10-21-10s1.1,14.1,6.6,21
		C462.7,301.1,468.8,299.8,471.2,297.8z"/>
	<path class="st0" d="M475.6,311.5c0,0,2.9-8.1,10-16c9-10,13-26,13-32"/>
	<path class="st0" d="M485.5,295c7.5,5,16.4,0.6,20.2-6.5c9-17-7-34-8-34c-3,7-13.5,14-17,21C476.6,283.5,478.6,290.5,485.5,295z"/>
	<g>
		<path class="st1" d="M457.6,280.5c17,18,19,22,19,22"/>
		<path class="st1" d="M471.2,297.8c2.6-2.2,5.9-7.8,1.5-13.3c-5.6-7-21-10-21-10s1.1,14.1,6.6,21
			C462.7,301.1,468.8,299.8,471.2,297.8z"/>
		<path class="st0" d="M475.6,311.5c0,0,2.9-8.1,10-16c9-10,13-26,13-32"/>
		<path class="st0" d="M485.5,295c7.5,5,16.4,0.6,20.2-6.5c9-17-7-34-8-34c-3,7-13.5,14-17,21C476.6,283.5,478.6,290.5,485.5,295z"
			/>
	</g>
</g>
<g>
	<circle class="st1" cx="276" cy="262" r="4"/>
	<path class="st1" d="M276,266v13c0,2.2,1.8,4,4,4h8"/>
	<circle class="st0" cx="292" cy="262" r="4"/>
	<circle class="st0" cx="308" cy="262" r="4"/>
	<circle class="st0" cx="324" cy="262" r="4"/>
	<circle class="st0" cx="292" cy="304" r="4"/>
	<circle class="st0" cx="308" cy="304" r="4"/>
	<circle class="st0" cx="324" cy="304" r="4"/>
	<line class="st0" x1="292" y1="266" x2="292" y2="300"/>
	<line class="st0" x1="308" y1="266" x2="308" y2="300"/>
	<line class="st0" x1="324" y1="266" x2="324" y2="300"/>
	<line class="st0" x1="324" y1="283" x2="292" y2="283"/>
</g>
<g>
	<path class="st0" d="M238,290.8c0-15.5-12.5-28-28-28s-28,12.5-28,28"/>
	<g>
		<polyline class="st0" points="186,303.2 182,303.2 182,296.5 186,296.5 		"/>
		<line class="st0" x1="182" y1="299.8" x2="185" y2="299.8"/>
	</g>
	<g>
		<polyline class="st0" points="234,302.2 234,295.5 238,295.5 		"/>
		<line class="st0" x1="234" y1="298.8" x2="237" y2="298.8"/>
	</g>
	<line class="st0" x1="210" y1="262.8" x2="210" y2="268.8"/>
	<path class="st1" d="M220.9,270.8L220.9,270.8c-0.6-0.4-1.4-0.2-1.8,0.3l-13.9,16.7c-2,2.4-1.3,6,1.5,7.6l0,0
		c2.8,1.6,6.3,0.4,7.4-2.5l7.5-20.4C221.8,271.9,221.5,271.1,220.9,270.8z"/>
	<line class="st0" x1="238" y1="290.8" x2="232" y2="290.8"/>
	<line class="st0" x1="182" y1="290.8" x2="188" y2="290.8"/>
	<line class="st0" x1="182" y1="290.8" x2="184" y2="290.8"/>
	<line class="st0" x1="185.9" y1="277.2" x2="187.7" y2="278.2"/>
	<line class="st0" x1="196.2" y1="267.3" x2="197.2" y2="269"/>
	<line class="st0" x1="233.6" y1="278" x2="231.8" y2="279"/>
</g>
<g>
	<path class="st1" d="M396.6,271c0,3.9-2,10-7,10s-7-6.1-7-10s3.1-7,7-7S396.6,267.1,396.6,271z"/>
	<path class="st1" d="M375.6,302c0-9.4,5-17,14-17s14,7.6,14,17"/>
	<path class="st0" d="M413.3,274c0,2.9-1.5,7.5-5.3,7.5s-5.3-4.6-5.3-7.5s2.4-5.3,5.3-5.3C411,268.8,413.3,271.1,413.3,274z"/>
	<path class="st0" d="M402.4,286.2c1.5-1.1,3.4-1.7,5.7-1.7c6.8,0,10.5,5.7,10.5,12.8"/>
	<path class="st0" d="M366.7,274c0,2.9,1.5,7.5,5.3,7.5s5.3-4.6,5.3-7.5s-2.4-5.3-5.3-5.3C369,268.8,366.7,271.1,366.7,274z"/>
	<path class="st0" d="M377.6,286.2c-1.5-1.1-3.4-1.7-5.7-1.7c-6.8,0-10.5,5.7-10.5,12.8"/>
	<line class="st1" x1="382.2" y1="287.2" x2="389.3" y2="294.2"/>
	<line class="st1" x1="392.8" y1="297.8" x2="396.6" y2="302"/>
	<rect x="388.6" y="294" transform="matrix(0.7071 0.7071 -0.7071 0.7071 323.8485 -189.8395)" class="st1" width="5" height="4"/>
</g>
<g>
	<path class="st0" d="M14.5,301v4c0,1.1-0.9,2-2,2h-6c-1.1,0-2-0.9-2-2v-4"/>
	<path class="st0" d="M55.5,301v4c0,1.1-0.9,2-2,2h-6c-1.1,0-2-0.9-2-2v-4"/>
	<path class="st0" d="M55.5,301c1.7,0,3-1.3,3-3v-11.4c0-2.3-0.8-4.6-2.3-6.4l-2.7-3.2"/>
	<path class="st0" d="M6.5,277l-2.7,3.2c-1.5,1.8-2.3,4.1-2.3,6.4V298c0,1.7,1.3,3,3,3"/>
	<path class="st0" d="M53.5,277l-4.7-12.3c-1.1-2.8-3.6-4.8-6.5-5.2C40,259.2,34.7,259,30,259s-10,0.2-12.3,0.6
		c-3,0.4-5.5,2.4-6.5,5.2L6.5,277"/>
	<path class="st0" d="M47.5,276l-3.4-8.9c-0.8-2-2.6-3.4-4.7-3.7c-1.7-0.2-6-0.4-9.4-0.4s-7.8,0.2-9.4,0.4c-2.1,0.3-3.9,1.7-4.7,3.7
		l-3.4,8.9H47.5z"/>
	<circle class="st0" cx="10.5" cy="286.5" r="3"/>
	<circle class="st0" cx="49.5" cy="286.5" r="3"/>
	<line class="st0" x1="53.5" y1="277" x2="58.5" y2="277"/>
	<line class="st0" x1="1.5" y1="277" x2="6.5" y2="277"/>
	<rect x="19.5" y="290" class="st0" width="21" height="6"/>
	<circle class="st0" cx="23" cy="269.5" r="2.5"/>
	<path class="st0" d="M33,276c0-2.2,1.8-4,4-4s4,1.8,4,4"/>
	<path class="st0" d="M19,276c0-2.2,1.8-4,4-4s4,1.8,4,4"/>
	<circle class="st0" cx="37" cy="269.5" r="2.5"/>
	<line class="st0" x1="10.5" y1="301" x2="49.5" y2="301"/>
</g>
<g>
	<polygon class="st0" points="144,401.5 96,401.5 104,365.5 136,365.5 	"/>
	<circle class="st1" cx="120" cy="350.5" r="6"/>
	<line class="st1" x1="120" y1="353.5" x2="120" y2="361.5"/>
	<line class="st0" x1="110" y1="377.5" x2="110" y2="389.5"/>
	<line class="st0" x1="118" y1="377.5" x2="110" y2="385"/>
	<line class="st0" x1="118" y1="389.5" x2="113" y2="382.8"/>
	<path class="st0" d="M130,386.5c0,1.7-1.3,3-3,3h-2c-1.7,0-3-1.3-3-3v-6c0-1.7,1.3-3,3-3h2c1.7,0,3,1.3,3,3"/>
	<polyline class="st0" points="128,384.5 130,384.5 130,386.5 	"/>
</g>
<g>
	<line class="st1" x1="314.5" y1="346" x2="314.5" y2="395"/>
	<polyline class="st1" points="320.2,390 314.5,395.7 308.8,390 	"/>
	<polyline class="st1" points="308.8,351 314.5,345.3 320.2,351 	"/>
	<path class="st0" d="M299.5,396v-51h-16c-2.2,0-4,1.8-4,4v52h41"/>
	<line class="st0" x1="299.5" y1="373" x2="286.5" y2="373"/>
	<line class="st0" x1="299.5" y1="366" x2="292.5" y2="366"/>
	<line class="st0" x1="299.5" y1="359" x2="292.5" y2="359"/>
	<line class="st0" x1="299.5" y1="352" x2="292.5" y2="352"/>
	<line class="st0" x1="299.5" y1="394" x2="292.5" y2="394"/>
	<line class="st0" x1="299.5" y1="387" x2="292.5" y2="387"/>
	<line class="st0" x1="299.5" y1="380" x2="292.5" y2="380"/>
</g>
<g>
	<line class="st1" x1="232" y1="385.5" x2="188" y2="385.5"/>
	<polyline class="st1" points="193,391.2 187.3,385.5 193,379.8 	"/>
	<polyline class="st1" points="227,379.8 232.7,385.5 227,391.2 	"/>
	<path class="st0" d="M238,369.5v-16c0-2.2-1.8-4-4-4h-48c-2.2,0-4,1.8-4,4v16"/>
	<line class="st0" x1="210" y1="369.5" x2="210" y2="356.5"/>
	<line class="st0" x1="217" y1="369.5" x2="217" y2="362.5"/>
	<line class="st0" x1="224" y1="369.5" x2="224" y2="362.5"/>
	<line class="st0" x1="231" y1="369.5" x2="231" y2="362.5"/>
	<line class="st0" x1="189" y1="369.5" x2="189" y2="362.5"/>
	<line class="st0" x1="196" y1="369.5" x2="196" y2="362.5"/>
	<line class="st0" x1="203" y1="369.5" x2="203" y2="362.5"/>
	<line class="st0" x1="182" y1="369.5" x2="238" y2="369.5"/>
	<line class="st0" x1="238" y1="374.5" x2="238" y2="378.5"/>
	<line class="st0" x1="182" y1="374.5" x2="182" y2="378.5"/>
	<line class="st0" x1="238" y1="383.5" x2="238" y2="387.5"/>
	<line class="st0" x1="182" y1="383.5" x2="182" y2="387.5"/>
	<line class="st0" x1="238" y1="392.5" x2="238" y2="396.5"/>
	<line class="st0" x1="182" y1="392.5" x2="182" y2="396.5"/>
</g>
<g>
	<circle class="st1" cx="370.8" cy="20.1" r="4.5"/>
	<circle class="st1" cx="409.8" cy="20.1" r="4.5"/>
	<line class="st1" x1="405" y1="20.6" x2="379" y2="20.6"/>
	<path class="st1" d="M415,20.6c0,0-1,0,1,0c3,0,3-5,3-7c0-1-3-5-16-5h-26c-4,0-9-6-9-6"/>
	<path class="st1" d="M396.1,1.4c4.3,2.3,9.2,7.1,9.2,7.1"/>
	<path class="st1" d="M366,20.6l-5-1c0,0,0-4,0-5c0-2,3-6,3-8h8"/>
	<polyline class="st1" points="384,5.6 386,8.6 386,17.6 	"/>
	<line class="st1" x1="390" y1="12.6" x2="393" y2="12.6"/>
</g>
<g>
	<circle class="st1" cx="100.8" cy="20.5" r="4.5"/>
	<circle class="st1" cx="139.8" cy="20.5" r="4.5"/>
	<line class="st1" x1="135" y1="21" x2="109" y2="21"/>
	<path class="st1" d="M145,21c0,0-1,0,1,0c3,0,3-5,3-7c0-1-3-5-16-5h-26c-3,0-5.2-3-5.2-3"/>
	<path class="st1" d="M96,21l-5-1c0,0,0-4,0-5c0-2,3-7,3-9h7c0,0,2-5,16-5c9,0,17.3,8,17.3,8"/>
	<polyline class="st1" points="117,2 119,9 119,18 	"/>
	<line class="st1" x1="123" y1="13" x2="125" y2="13"/>
	<line class="st1" x1="110" y1="13" x2="112" y2="13"/>
	<line class="st1" x1="106" y1="2.5" x2="106" y2="14.2"/>
</g>
<g>
	<circle class="st1" cx="190.8" cy="20.5" r="4.5"/>
	<circle class="st1" cx="229.8" cy="20.5" r="4.5"/>
	<line class="st1" x1="225" y1="21" x2="199" y2="21"/>
	<path class="st1" d="M235,21c0,0-1,0,1,0c3,0,3-5,3-7c0-1-3-5-16-5h-33c-3,0-7-1-7-1"/>
	<path class="st1" d="M186,21l-5-1c0,0,0-4,0-5c0-2,2-5,2-7s4-7,4-7s12,0,23,0c6,0,14.3,8,14.3,8"/>
	<polyline class="st1" points="207,2 209,9 209,18 	"/>
	<line class="st1" x1="213" y1="13" x2="215" y2="13"/>
	<line class="st1" x1="198.5" y1="13" x2="200.5" y2="13"/>
	<line class="st1" x1="195" y1="2" x2="194" y2="9"/>
	<line class="st1" x1="194" y1="9" x2="194" y2="13"/>
</g>
<g>
	<circle class="st1" cx="460.8" cy="22.5" r="4.5"/>
	<circle class="st1" cx="499.8" cy="22.5" r="4.5"/>
	<line class="st1" x1="495" y1="23" x2="469" y2="23"/>
	<path class="st1" d="M505,23c0,0-1,0,1,0c3,0,3-5,3-7c0-1-5-7-15-7h-34c-3,0-7-1-7-1"/>
	<path class="st1" d="M456,23l-5-1c0,0,0-4,0-5c0-2,2-7,2-9s5-9,9-9c1,0,8,0,19,0c8,0,17,10,17,10"/>
	<polyline class="st1" points="478,-1 480,8 480,20 	"/>
	<line class="st1" x1="484" y1="14" x2="486" y2="14"/>
	<line class="st1" x1="469" y1="14" x2="471" y2="14"/>
	<line class="st1" x1="467" y1="-1" x2="465" y2="9"/>
	<line class="st1" x1="465" y1="9" x2="465" y2="15.5"/>
</g>
<g>
	<circle class="st1" cx="280.8" cy="20.5" r="4.5"/>
	<circle class="st1" cx="319.8" cy="20.5" r="4.5"/>
	<line class="st1" x1="315" y1="21" x2="289" y2="21"/>
	<path class="st1" d="M325,21c0,0-1,0,1,0c3,0,3-5,3-7c0-1-3-5-16-5h-28c-5,0-10-7-10-7"/>
	<path class="st1" d="M276,21l-5-1c0,0,0-4,0-5c0-2,3-6,3-8h6c0,0,5-6,17-6c9,0,18.3,8,18.3,8"/>
	<polyline class="st1" points="294,6 296,9 296,18 	"/>
	<line class="st1" x1="300" y1="13" x2="303" y2="13"/>
</g>
<g>
	<circle class="st1" cx="551.2" cy="23.2" r="4.8"/>
	<circle class="st1" cx="589.1" cy="23.2" r="5.1"/>
	<line class="st1" x1="584" y1="23.7" x2="560" y2="23.7"/>
	<path class="st1" d="M595,23.7c0,0-1,0,1,0c3,0,3-2,3-4s-2-3-2-3s0-2.9,0-4c0-2-8.6-3-15-3h-31c-3,0-8-1-8-1"/>
	<path class="st1" d="M546,23.7l-5-1c0,0,0-4,0-5c0-2,2-6,2-8c0-4,3-10,3-10s19-1,28,0c3,0.3,10,10,10,10"/>
	<polyline class="st1" points="567,-0.3 569,8.7 569,20.7 	"/>
	<line class="st1" x1="573" y1="14.7" x2="575" y2="14.7"/>
	<line class="st1" x1="558.4" y1="14.7" x2="560.6" y2="14.7"/>
	<line class="st1" x1="555" y1="-0.3" x2="554" y2="9.7"/>
	<line class="st1" x1="552" y1="-1.3" x2="552" y2="-2.3"/>
	<line class="st1" x1="569" y1="-1.3" x2="569" y2="-2.3"/>
	<line class="st1" x1="554" y1="9.7" x2="554" y2="15.2"/>
</g>
<g>
	<line class="st1" x1="541.5" y1="164.5" x2="598.5" y2="221.5"/>
	<path class="st0" d="M554.5,210.5v4c0,1.1-0.9,2-2,2h-6c-1.1,0-2-0.9-2-2v-4"/>
	<path class="st0" d="M588.4,216.5h-0.9c-1.1,0-2-0.9-2-2"/>
	<line class="st0" x1="595.5" y1="210.5" x2="595.5" y2="212.8"/>
	<path class="st0" d="M595.5,210.5c1.7,0,3-1.3,3-3v-11.4c0-2.3-0.8-4.6-2.3-6.4l-2.7-3.2"/>
	<path class="st0" d="M546.5,186.5l-2.7,3.2c-1.5,1.8-2.3,4.1-2.3,6.4v11.4c0,1.7,1.3,3,3,3"/>
	<line class="st0" x1="549.6" y1="178.3" x2="546.5" y2="186.5"/>
	<path class="st0" d="M593.5,186.5l-4.7-12.3c-1.1-2.8-3.6-4.8-6.5-5.2c-2.3-0.3-7.6-0.6-12.3-0.6s-10,0.2-12.3,0.6
		c-1.6,0.2-3,0.9-4.2,1.9"/>
	<path class="st0" d="M568.2,185.5h19.4l-3.4-8.9c-0.8-2-2.6-3.4-4.7-3.7c-1.7-0.2-6-0.4-9.4-0.4s-7.8,0.2-9.4,0.4
		c-1.3,0.2-2.5,0.8-3.4,1.7"/>
	<polyline class="st0" points="553.7,182.3 552.5,185.5 556.8,185.5 	"/>
	<circle class="st0" cx="550.5" cy="196" r="3"/>
	<circle class="st0" cx="589.5" cy="196" r="3"/>
	<line class="st0" x1="593.5" y1="186.5" x2="598.5" y2="186.5"/>
	<line class="st0" x1="541.5" y1="186.5" x2="546.5" y2="186.5"/>
	<polyline class="st0" points="570.5,199.5 559.5,199.5 559.5,205.5 576.5,205.5 	"/>
	<path class="st0" d="M560.7,178c0.4-0.9,1.3-1.5,2.3-1.5c1.4,0,2.5,1.1,2.5,2.5c0,1-0.6,1.9-1.5,2.3"/>
	<path class="st0" d="M573,185.5c0-2.2,1.8-4,4-4s4,1.8,4,4"/>
	<circle class="st0" cx="577" cy="179" r="2.5"/>
	<line class="st0" x1="550.5" y1="210.5" x2="581.5" y2="210.5"/>
</g>
<g>
	<path class="st1" d="M-43.5,384.5c0,3.3,2.7,6,6,6s6-2.7,6-6"/>
	<path class="st1" d="M-43.5,365.5c0-3.3-2.7-6-6-6"/>
	<line class="st1" x1="-43.5" y1="384.5" x2="-43.5" y2="365.5"/>
	<line class="st1" x1="-31.5" y1="384.5" x2="-31.5" y2="358.5"/>
	<circle class="st1" cx="-35" cy="359" r="3.5"/>
	<path class="st1" d="M-31.5,359c0-5.8-2-8.5-3.5-10.5"/>
	<line class="st0" x1="-44.5" y1="400.5" x2="-31.5" y2="400.5"/>
	<line class="st0" x1="-88.5" y1="400.5" x2="-49.5" y2="400.5"/>
	<g>
		<line class="st0" x1="-80.5" y1="373.5" x2="-80.5" y2="399.5"/>
		<line class="st0" x1="-57.5" y1="399.5" x2="-57.5" y2="373.5"/>
	</g>
	<path class="st0" d="M-59.5,350.5h-19c-0.6,0-1,0.4-1,1v16c0,0.6,0.4,1,1,1h19c0.6,0,1-0.4,1-1v-16
		C-58.5,350.9-58.9,350.5-59.5,350.5z"/>
	<line class="st0" x1="-73.5" y1="356.5" x2="-64.5" y2="356.5"/>
	<line class="st0" x1="-73.5" y1="362.5" x2="-64.5" y2="362.5"/>
	<path class="st0" d="M-57.5,345.5h-23c-2.2,0-4,1.8-4,4v20c0,2.2,1.8,4,4,4h23c2.2,0,4-1.8,4-4v-20
		C-53.5,347.3-55.3,345.5-57.5,345.5z"/>
	<path class="st0" d="M-69,379.5c0,0,5,6.2,5,9s-2.2,5-5,5s-5-2.2-5-5c0-1.3,1.1-3.3,2.2-5.1"/>
</g>
<g>
	<line class="st1" x1="387" y1="368.2" x2="368" y2="368.2"/>
	<polyline class="st1" points="373,373.8 367.3,368.2 373,362.5 	"/>
	<polyline class="st1" points="382,362.5 387.7,368.2 382,373.8 	"/>
	<circle class="st3" cx="371.2" cy="385.7" r="4.8"/>
	<circle class="st3" cx="410.1" cy="385.7" r="5.1"/>
	<line class="st3" x1="405" y1="386.2" x2="380" y2="386.2"/>
	<path class="st3" d="M416,386.2c0,0-1,0,1,0s2-2,2-4s-1-3-1-3v0c0-0.7,0-1,0-2c0-2-4-5-4-5"/>
	<path class="st3" d="M394,362.2h8c4,0,12,10,12,10"/>
	<path class="st3" d="M398,372.2v-7c0,0,2,0,4,0s8,7,8,7H398"/>
	<line class="st3" x1="398" y1="377.2" x2="401" y2="377.2"/>
	<line class="st3" x1="414" y1="377.2" x2="414" y2="378.2"/>
	<line class="st3" x1="362" y1="381.2" x2="369" y2="381.2"/>
	<line class="st3" x1="378" y1="381.2" x2="393" y2="381.2"/>
	<line class="st3" x1="394" y1="362.2" x2="394" y2="381.2"/>
	<path class="st3" d="M366,386.2l-5-1v-30c0,0,23,0,30,0c1,0,3,0,10,7"/>
</g>
<g>
	<circle class="st1" cx="-74.7" cy="20" r="4.5"/>
	<circle class="st1" cx="-42.7" cy="20" r="4.5"/>
	<line class="st1" x1="-47.5" y1="20.5" x2="-66.5" y2="20.5"/>
	<path class="st1" d="M-37.5,20.5c0,0-1,0,1,0c3,0,3-5,3-7c0-1-2-5-15-5h-21c-2,0-4-6-4-6"/>
	<path class="st1" d="M-84.5,19.5c0,0,0-4,0-5c0-2,3.5-4.1,4-6c1-4,2-6,2-6s6-1,17-1c5,0,13,7,13,7"/>
	<line class="st1" x1="-79.5" y1="20.5" x2="-86.5" y2="19.5"/>
	<polyline class="st1" points="-65.5,1.5 -63.5,8.5 -63.5,17.5 	"/>
	<line class="st1" x1="-59.5" y1="12.5" x2="-57.5" y2="12.5"/>
</g>
<g>
	<circle class="st1" cx="10.8" cy="20.5" r="4.5"/>
	<circle class="st1" cx="49.8" cy="20.5" r="4.5"/>
	<line class="st1" x1="45" y1="21" x2="19" y2="21"/>
	<path class="st1" d="M55,21c0,0-1,0,1,0c3,0,3-5,3-7c0-1-3-5-16-5H10C7,9,4,8,4,8"/>
	<path class="st1" d="M6,21l-5-1c0,0,0-4,0-5c0-2,3-5,3-7s3-6,3-6s11-1,22-1c6,0,15.3,8,15.3,8"/>
	<polyline class="st1" points="21,2 23,9 23,18 	"/>
	<line class="st1" x1="27" y1="13" x2="30" y2="13"/>
</g>
<g>
	<circle class="st3" cx="191.2" cy="112.2" r="4.8"/>
	<circle class="st3" cx="230.1" cy="112.2" r="5.1"/>
	<line class="st3" x1="225" y1="112.7" x2="200" y2="112.7"/>
	<path class="st3" d="M236,112.7c0,0-1,0,1,0s2-2,2-4s-1-3-1-3v0c0-0.7,0-1,0-2c0-2-4-5-4-5"/>
	<path class="st3" d="M186,112.7l-5-1c0,0,0-2.5,0-4c0-0.7,1-1,1-1c0-2,0-6,0-8c0-2.4,0.4-5.5,0.7-7.7c0.2-1.3,1.3-2.3,2.7-2.3H222
		c4,0,12,10,12,10"/>
	<path class="st3" d="M218,98.7v-7c0,0,2,0,4,0s8,7,8,7H218"/>
	<line class="st3" x1="218" y1="103.7" x2="221" y2="103.7"/>
	<line class="st3" x1="234" y1="103.7" x2="234" y2="104.7"/>
</g>
<g>
	<circle class="st3" cx="281.2" cy="114.7" r="4.8"/>
	<circle class="st3" cx="320.1" cy="114.7" r="5.1"/>
	<line class="st3" x1="315" y1="115.2" x2="290" y2="115.2"/>
	<path class="st3" d="M326,115.2c0,0-1,0,1,0s2-2,2-4s-1-3-1-3v0c0-0.7,0-1,0-2c0-2-4-5-4-5"/>
	<path class="st3" d="M276,115.2l-5-1c0,0,0-2.5,0-4c0-0.7,1-1,1-1c0-2,0-8,0-10c0-2.4,0.4-8.5,0.7-10.7c0.2-1.3,1.3-2.3,2.7-2.3
		c0,0,21.7,0,28.7,0c6,0,20,15,20,15"/>
	<path class="st3" d="M308,101.2v-7c0,0,2,0,4,0c1,0,8,7,8,7H308"/>
	<line class="st3" x1="308" y1="106.2" x2="311" y2="106.2"/>
	<line class="st3" x1="324" y1="106.2" x2="324" y2="107.2"/>
</g>
<g>
	<circle class="st3" cx="101.2" cy="112.2" r="4.8"/>
	<circle class="st3" cx="140.1" cy="112.2" r="5.1"/>
	<line class="st3" x1="135" y1="112.7" x2="110" y2="112.7"/>
	<path class="st3" d="M146,112.7c0,0-1,0,1,0s2-2,2-4s-1-3-1-3s0-0.9,0-2c0-2-3-4-10-5"/>
	<path class="st3" d="M96,112.7l-5-1c0,0,0-3,0-4c0-0.4,1-1,1-1c0-2,0-6,0-8c0-2.4,0.4-5.5,0.7-7.7c0.2-1.3,1.3-2.3,2.7-2.3H120
		c7,0,18,10,18,10"/>
	<path class="st3" d="M118,98.7v-7c0,0,0,0,2,0c4,0,13,7,13,7H118"/>
	<line class="st3" x1="119" y1="103.7" x2="122" y2="103.7"/>
	<line class="st3" x1="144" y1="103.7" x2="144" y2="104.7"/>
</g>
<g>
	<circle class="st3" cx="11.2" cy="112.2" r="4.8"/>
	<circle class="st3" cx="50.1" cy="112.2" r="5.1"/>
	<line class="st3" x1="45" y1="112.7" x2="20" y2="112.7"/>
	<path class="st3" d="M56,112.7c0,0-1,0,1,0s2-2,2-4s-1-3-1-3s0-0.9,0-2c0-2-3-4-10-5"/>
	<path class="st3" d="M6,112.7l-5-1c0,0,0-3,0-4c0-0.4,1-1,1-1c0-2,0-2,0-4c0-3,4.8-4.1,6-7c3-7,9-7,9-7h13c7,0,18,10,18,10"/>
	<path class="st3" d="M25,98.7v-7c0,0,3,0,5,0c4,0,13,7,13,7H25"/>
	<line class="st3" x1="28" y1="103.7" x2="31" y2="103.7"/>
	<line class="st3" x1="54" y1="103.7" x2="54" y2="104.7"/>
</g>
<g>
	<circle class="st3" cx="461.2" cy="115.7" r="4.8"/>
	<circle class="st3" cx="500.1" cy="115.7" r="5.1"/>
	<line class="st3" x1="495" y1="116.2" x2="470" y2="116.2"/>
	<path class="st3" d="M506,116.2c0,0-1,0,1,0s2-2,2-4s-1-3-1-3v0c0-0.7,0-1,0-2c0-2-4-5-4-5"/>
	<path class="st3" d="M484,92.2h8c4,0,12,10,12,10"/>
	<path class="st3" d="M488,102.2v-7c0,0,2,0,4,0s8,7,8,7H488"/>
	<line class="st3" x1="488" y1="107.2" x2="491" y2="107.2"/>
	<line class="st3" x1="504" y1="107.2" x2="504" y2="108.2"/>
	<line class="st3" x1="452" y1="111.2" x2="459" y2="111.2"/>
	<line class="st3" x1="468" y1="111.2" x2="483" y2="111.2"/>
	<line class="st3" x1="484" y1="92.2" x2="484" y2="111.2"/>
	<path class="st3" d="M456,116.2l-5-1v-30c0,0,23,0,30,0c1,0,3,0,10,7"/>
</g>
<g>
	<circle class="st3" cx="13.2" cy="202.2" r="4.8"/>
	<circle class="st3" cx="50.1" cy="202.2" r="5.1"/>
	<line class="st3" x1="45" y1="202.7" x2="22" y2="202.7"/>
	<path class="st3" d="M56,202.7c0,0-1,0,1,0s2-2,2-4s-1-3-1-3v0c0-0.7,0-1,0-2c0-2-4-5-4-5"/>
	<path class="st3" d="M34,178.7h8c4,0,12,10,12,10"/>
	<path class="st3" d="M38,188.7v-7c0,0,2,0,4,0s8,7,8,7H38"/>
	<line class="st3" x1="38" y1="193.7" x2="41" y2="193.7"/>
	<line class="st3" x1="54" y1="193.7" x2="54" y2="194.7"/>
	<line class="st3" x1="1" y1="197.7" x2="11" y2="197.7"/>
	<line class="st3" x1="20" y1="197.7" x2="34" y2="197.7"/>
	<line class="st3" x1="34" y1="178.7" x2="34" y2="197.7"/>
	<polyline class="st3" points="1,197.7 1,191.7 34,191.7 	"/>
	<polyline class="st3" points="8,202.7 4,201.7 4,197.7 	"/>
</g>
<g>
	<circle class="st3" cx="551.2" cy="112.2" r="4.8"/>
	<circle class="st3" cx="590.1" cy="112.2" r="5.1"/>
	<line class="st3" x1="585" y1="112.7" x2="560" y2="112.7"/>
	<path class="st3" d="M596,112.7c0,0-1,0,1,0s2-2,2-4s-1-3-1-3v0c0-0.7,0-1,0-2c0-2-4-5-4-5"/>
	<path class="st3" d="M546,112.7l-5-1c0,0,0-2.5,0-4c0-0.7,1-1,1-1c0-2,0-6,0-8c0-2.4,0.4-5.5,0.7-7.7c0.2-1.3,1.3-2.3,2.7-2.3H582
		c4,0,12,10,12,10"/>
	<path class="st3" d="M578,98.7v-7c0,0,2,0,4,0s8,7,8,7H578"/>
	<line class="st3" x1="578" y1="103.7" x2="581" y2="103.7"/>
	<line class="st3" x1="571" y1="103.7" x2="574" y2="103.7"/>
	<line class="st3" x1="594" y1="103.7" x2="594" y2="104.7"/>
	<rect x="563" y="91.7" class="st3" width="11" height="7"/>
	<path class="st3" d="M548,98.7c2,0,11,0,11,0v-7h-10C549,91.7,548,95.7,548,98.7z"/>
</g>
<g>
	<circle class="st3" cx="103.2" cy="206.2" r="4.8"/>
	<circle class="st3" cx="140.1" cy="206.2" r="5.1"/>
	<line class="st3" x1="135" y1="206.7" x2="112" y2="206.7"/>
	<path class="st3" d="M146,206.7c0,0-1,0,1,0s2-2,2-4s-1-3-1-3v0c0-0.7,0-1,0-2c0-2-4-5-4-5"/>
	<path class="st3" d="M124,182.7h8c4,0,12,10,12,10"/>
	<path class="st3" d="M128,192.7v-7c0,0,2,0,4,0s8,7,8,7H128"/>
	<line class="st3" x1="128" y1="197.7" x2="131" y2="197.7"/>
	<line class="st3" x1="144" y1="197.7" x2="144" y2="198.7"/>
	<line class="st3" x1="91" y1="201.7" x2="101" y2="201.7"/>
	<line class="st3" x1="110" y1="201.7" x2="124" y2="201.7"/>
	<line class="st3" x1="124" y1="182.7" x2="124" y2="201.7"/>
	<polyline class="st3" points="91,201.7 91,188.7 118,188.7 118,174.7 141,174.7 141,182.7 	"/>
	<polyline class="st3" points="98,206.7 94,205.7 94,201.7 	"/>
	<line class="st3" x1="141" y1="182.7" x2="131" y2="182.7"/>
</g>
<g>
	<g>
		<circle class="st3" cx="-78.8" cy="201.2" r="4.8"/>
		<circle class="st3" cx="-40.9" cy="201.2" r="5.1"/>
		<line class="st3" x1="-46" y1="201.7" x2="-70" y2="201.7"/>
		<path class="st3" d="M-62,179.7c0,0,7.8-0.1,9.3,0.1c2.6,0.3,8.7,7.9,8.7,7.9"/>
		<path class="st3" d="M-84,201.7l-5-1c0,0,0-4,0-5c0-2,1-6,1-8h40c6.4,0,15,2,15,4c0,1.1,0,4,0,4s2,1,2,3s0,3-3,3c-2,0-1,0-1,0"/>
		<polyline class="st3" points="-62,179.7 -62,185.4 -62,201.7 		"/>
		<line class="st3" x1="-58" y1="192.7" x2="-55" y2="192.7"/>
		<line class="st3" x1="-58" y1="179.7" x2="-58" y2="186.7"/>
		<line class="st3" x1="-89" y1="197.7" x2="-83" y2="197.7"/>
		<line class="st3" x1="-71" y1="197.7" x2="-62" y2="197.7"/>
	</g>
	<line class="st3" x1="-36" y1="192.7" x2="-36" y2="193.7"/>
</g>
<g>
	<circle class="st3" cx="373.5" cy="113" r="4.1"/>
	<circle class="st3" cx="410.4" cy="113" r="4.4"/>
	<line class="st3" x1="406.1" y1="113.4" x2="382" y2="113.4"/>
	<path class="st3" d="M415.4,113.4c0,0,0.1,0,1.9,0c1.7,0,1.7-1.7,1.7-3.4s-0.9-2.6-0.9-2.6v0c0-0.6,0-0.9,0-1.7
		c0-1.7-3.4-4.3-3.4-4.3"/>
	<path class="st3" d="M369.1,113.4l-8.1-0.9c0,0,0-2.1,0-3.4c0-0.6,0.9-0.9,0.9-0.9c0-1.7,0-6.8,0-8.5c0-2.1,0.3-7.3,0.6-9.1
		c0.2-1.1,1.1-2,2.3-2c0,0,27.1,0,33,0c5.1,0,17,12.8,17,12.8"/>
	<path class="st3" d="M400.1,101.4v-6c0,0,1.7,0,3.4,0c0.9,0,6.8,6,6.8,6H400.1"/>
	<line class="st3" x1="400.1" y1="105.7" x2="402.7" y2="105.7"/>
	<line class="st3" x1="414.7" y1="105.7" x2="414.7" y2="106.6"/>
</g>
<g>
	<circle class="st3" cx="-78.8" cy="112.2" r="4.8"/>
	<circle class="st3" cx="-39.9" cy="112.2" r="5.1"/>
	<line class="st3" x1="-45" y1="112.7" x2="-70" y2="112.7"/>
	<path class="st3" d="M-34,112.7c0,0-1,0,1,0s2-2,2-4s-1-3-1-3v0c0-0.7,0-1,0-2c0-2-4-5-4-5"/>
	<path class="st3" d="M-84,112.7l-5-1c0,0,0-2.5,0-4c0-0.7,1-1,1-1c0-2,0-6,0-8c0-2.4,0.4-5.5,0.7-7.7c0.2-1.3,1.3-2.3,2.7-2.3H-48
		c4,0,12,10,12,10"/>
	<path class="st3" d="M-52,98.7v-7c0,0,2,0,4,0s8,7,8,7H-52"/>
	<line class="st3" x1="-52" y1="103.7" x2="-49" y2="103.7"/>
	<line class="st3" x1="-66" y1="103.7" x2="-63" y2="103.7"/>
	<line class="st3" x1="-36" y1="103.7" x2="-36" y2="104.7"/>
	<rect x="-66" y="91.7" class="st3" width="10" height="7"/>
</g>
<g>
	
		<ellipse transform="matrix(0.7844 -0.6202 0.6202 0.7844 -116.6862 424.3031)" class="st1" cx="552" cy="380" rx="10.5" ry="10.5"/>
	<ellipse transform="matrix(0.7844 -0.6202 0.6202 0.7844 -116.6862 424.3031)" class="st1" cx="552" cy="380" rx="2.5" ry="2.5"/>
	<circle class="st0" cx="583" cy="360" r="2.5"/>
	<circle class="st0" cx="583" cy="352.5" r="0"/>
	<ellipse transform="matrix(0.7071 -0.7071 0.7071 0.7071 -81.6035 512.3781)" class="st0" cx="577.7" cy="354.7" rx="0" ry="0"/>
	<circle class="st0" cx="575.5" cy="360" r="0"/>
	<ellipse transform="matrix(0.7071 -0.7071 0.7071 0.7071 -89.1085 515.4868)" class="st0" cx="577.7" cy="365.3" rx="0" ry="0"/>
	<circle class="st0" cx="583" cy="367.5" r="0"/>
	<ellipse transform="matrix(0.7071 -0.7071 0.7071 0.7071 -85.9998 522.9918)" class="st0" cx="588.3" cy="365.3" rx="0" ry="0"/>
	<circle class="st0" cx="590.5" cy="360" r="0"/>
	<ellipse transform="matrix(0.7071 -0.7071 0.7071 0.7071 -78.4948 519.8831)" class="st0" cx="588.3" cy="354.7" rx="0" ry="0"/>
	<circle class="st0" cx="583" cy="360" r="11.5"/>
	<path class="st1" d="M557.9,382.7c-0.4,0.9-1,1.7-1.9,2.4"/>
	<path class="st1" d="M546.9,384c-2.2-2.8-1.7-6.9,1.1-9.1c2.8-2.2,6.9-1.7,9.1,1.1c0.8,1,1.2,2.1,1.4,3.3"/>
	<circle class="st0" cx="592.5" cy="395.5" r="6"/>
	<line class="st0" x1="571.5" y1="349.5" x2="544.5" y2="372.5"/>
	<line class="st0" x1="598.5" y1="359.5" x2="598.5" y2="395.5"/>
	<line class="st0" x1="550.5" y1="390.5" x2="591.5" y2="401.5"/>
	<line class="st0" x1="592.5" y1="395.5" x2="592.5" y2="395.5"/>
	<circle class="st0" cx="583" cy="360" r="15.5"/>
	<path class="st0" d="M550.3,390.4c-5-0.8-8.8-5.2-8.8-10.4c0-3,1.3-5.7,3.3-7.6"/>
</g>
<g>
	<polygon class="st0" points="-34.5,484.5 -31.5,484.5 -31.5,454.5 -34.5,454.5 -38.5,465.5 -38.5,478.5 	"/>
	<rect x="-84.5" y="459.5" class="st0" width="5" height="18"/>
	<line class="st0" x1="-88.5" y1="474.5" x2="-88.5" y2="462.5"/>
	<line class="st0" x1="-88.5" y1="468.5" x2="-85.5" y2="468.5"/>
	<line class="st0" x1="-38.5" y1="478.5" x2="-43.5" y2="478.5"/>
	<line class="st0" x1="-38.5" y1="465.5" x2="-43.5" y2="465.5"/>
	<polygon class="st0" points="-79.5,453.5 -79.5,477.5 -74.5,484.5 -47.5,484.5 -43.5,478.5 -43.5,465.5 -46.5,459.5 -50.5,459.5 
		-50.5,453.5 	"/>
	<polyline class="st0" points="-61.5,448.5 -54.5,448.5 -54.5,441.5 -74.5,441.5 -74.5,448.5 -67.5,448.5 	"/>
	<line class="st0" x1="-69.5" y1="448.5" x2="-69.5" y2="453.5"/>
	<line class="st0" x1="-59.5" y1="448.5" x2="-59.5" y2="453.5"/>
	<line class="st0" x1="-50.5" y1="459.5" x2="-50.5" y2="465.5"/>
	<line class="st0" x1="-50.5" y1="469.5" x2="-50.5" y2="472.5"/>
	<polyline class="st1" points="-67.5,459.5 -60.5,459.5 -63.5,466.5 -57.5,466.5 -66.5,479.5 -64.5,469.5 -71.5,469.5 -68.7,462.5 	
		"/>
</g>
<g>
	<circle class="st0" cx="480" cy="373" r="28.5"/>
	<circle class="st0" cx="480" cy="373" r="22.5"/>
	<path class="st0" d="M484.5,391c-1.4,0.4-2.9,0.5-4.5,0.5c-1.5,0-3.1-0.2-4.5-0.5"/>
	<path class="st0" d="M496.7,365c1.2,2.4,1.8,5.1,1.8,8c0,0.9-0.1,1.7-0.2,2.6"/>
	<path class="st0" d="M502.3,375.7c-0.8-0.1-1.5-0.2-2.3-0.2c-8.6,0-15.5,6.9-15.5,15.5c0,1.4,0.2,2.7,0.5,3.9"/>
	<path class="st0" d="M475,394.9c0.3-1.3,0.5-2.6,0.5-3.9c0-8.6-6.9-15.5-15.5-15.5c-0.8,0-1.6,0.1-2.3,0.2"/>
	<path class="st0" d="M458.3,366.9c6.3-2.8,13.7-4.4,21.7-4.4s15.4,1.6,21.7,4.4"/>
	<circle class="st1" cx="480" cy="373" r="4.5"/>
	<path class="st0" d="M461.7,375.5c-0.1-0.8-0.2-1.6-0.2-2.5c0-2.9,0.6-5.6,1.8-8"/>
</g>
<g>
	<g>
		<circle class="st3" cx="10.8" cy="482" r="4.5"/>
		<circle class="st3" cx="49.8" cy="482" r="4.5"/>
		<line class="st3" x1="45" y1="482.5" x2="19" y2="482.5"/>
		<path class="st3" d="M55,482.5c0,0-1,0,1,0c3,0,3-5,3-7c0-1-3-5-16-5H10c-3,0-7-1-7-1"/>
		<path class="st3" d="M6,482.5l-5-1c0,0,0-4,0-5c0-2,2-5,2-7s4-7,4-7s12,0,23,0c6,0,14.3,8,14.3,8"/>
		<polyline class="st3" points="27,463.5 29,470.5 29,479.5 		"/>
		<line class="st3" x1="33" y1="474.5" x2="35" y2="474.5"/>
		<line class="st3" x1="18.5" y1="474.5" x2="20.5" y2="474.5"/>
		<line class="st3" x1="15" y1="463.5" x2="14" y2="470.5"/>
		<line class="st3" x1="14" y1="470.5" x2="14" y2="474.5"/>
	</g>
	<circle class="st1" cx="8.7" cy="452.7" r="4.8"/>
	<circle class="st1" cx="27.7" cy="452.7" r="4.8"/>
	<line class="st1" x1="8.7" y1="452.7" x2="17" y2="452.7"/>
	<line class="st1" x1="14.6" y1="445.6" x2="8.7" y2="452.7"/>
	<line class="st1" x1="17" y1="452.7" x2="13.4" y2="442"/>
	<line class="st1" x1="27.7" y1="452.7" x2="24.2" y2="440.8"/>
	<line class="st1" x1="17" y1="452.7" x2="24.2" y2="444.4"/>
	<line class="st1" x1="14.6" y1="445.6" x2="24.2" y2="444.4"/>
	<line class="st1" x1="9.9" y1="440.8" x2="15.8" y2="442"/>
	<line class="st1" x1="24.2" y1="440.8" x2="26.5" y2="439.5"/>
	<line class="st3" x1="28" y1="460.5" x2="28" y2="462.5"/>
	<line class="st3" x1="9" y1="460.5" x2="9" y2="462.5"/>
</g>
<g>
	<path class="st0" d="M102.5,483.5v5c0,1.1-0.9,2-2,2h-4c-1.1,0-2-0.9-2-2v-5"/>
	<line class="st0" x1="99.5" y1="483.5" x2="117.9" y2="483.5"/>
	<path class="st0" d="M94.5,483.5c-1.7,0-3-1.3-3-3V472c0-1.9,0.2-3.9,0.6-5.8l5.3-25.5c0.6-3.1,3.4-5.3,6.5-5.3h15.6"/>
	<path class="st0" d="M146,461.9l-4.4-21.1c-0.6-3.1-3.4-5.3-6.5-5.3h-15.6"/>
	<line class="st0" x1="91.5" y1="455.5" x2="93.5" y2="455.5"/>
	<line class="st0" x1="145.5" y1="455.5" x2="147.5" y2="455.5"/>
	<path class="st0" d="M117.5,469.5c-3,0-8-1-8-1l1.2,4.3c0.5,1.6,1.9,2.7,3.6,2.7h2.2"/>
	<circle class="st0" cx="111" cy="452" r="2.5"/>
	<path class="st0" d="M125,458.5c0-2.2,1.8-4,4-4s4,1.8,4,4"/>
	<path class="st0" d="M107,458.5c0-2.2,1.8-4,4-4s4,1.8,4,4"/>
	<circle class="st0" cx="129" cy="452" r="2.5"/>
	<circle class="st1" cx="134.5" cy="476.5" r="14"/>
	<g>
		<line class="st1" x1="134.5" y1="480.5" x2="134.5" y2="477.5"/>
		<line class="st1" x1="134.5" y1="484.5" x2="134.5" y2="484.5"/>
		<path class="st1" d="M134.5,469.5c2.2,0,4,1.8,4,4s-1.8,4-4,4"/>
		<path class="st1" d="M131.3,471.1c0.7-0.9,1.9-1.6,3.2-1.6"/>
	</g>
	<path class="st0" d="M92.5,464.5c0,0,2,2,10,3v1.7c0,1.3-1,2.3-2.3,2.3h-7.7"/>
	<path class="st0" d="M139.5,458.5h-40l2.4-12c0.3-1.7,1.9-3,3.6-3h28c1.8,0,3.3,1.2,3.6,3L139.5,458.5z"/>
	<line class="st0" x1="116.5" y1="479.5" x2="95.5" y2="479.5"/>
	<line class="st0" x1="117.5" y1="446.5" x2="122.5" y2="446.5"/>
</g>
<g>
	<path class="st0" d="M14.5,569v5c0,1.1-0.9,2-2,2h-6c-1.1,0-2-0.9-2-2v-5"/>
	<path class="st0" d="M57.8,551c-0.4-1-0.9-1.9-1.6-2.8l-2.7-3.2"/>
	<line class="st0" x1="10.5" y1="569" x2="30.9" y2="569"/>
	<path class="st0" d="M6.5,545l-2.7,3.2c-1.5,1.8-2.3,4.1-2.3,6.4V566c0,1.7,1.3,3,3,3"/>
	<path class="st0" d="M53.5,545l-4.7-12.3c-1.1-2.8-3.6-4.8-6.5-5.2C40,527.2,34.7,527,30,527s-10,0.2-12.3,0.6
		c-3,0.4-5.5,2.4-6.5,5.2L6.5,545"/>
	<path class="st0" d="M48.9,545l-3.6-9.5c-0.8-2.2-2.8-3.7-5.1-4c-1.8-0.2-6.5-0.4-10.2-0.4s-8.4,0.2-10.2,0.4
		c-2.3,0.3-4.2,1.8-5.1,4l-3.6,9.5H48.9z"/>
	<circle class="st0" cx="10.5" cy="554.5" r="3"/>
	<line class="st0" x1="53.5" y1="545" x2="58.5" y2="545"/>
	<line class="st0" x1="1.5" y1="545" x2="6.5" y2="545"/>
	<polyline class="st0" points="30.5,558 19.5,558 19.5,564 30.5,564 	"/>
	<circle class="st0" cx="23" cy="537.5" r="2.5"/>
	<path class="st0" d="M33,544c0-2.2,1.8-4,4-4s4,1.8,4,4"/>
	<path class="st0" d="M19,544c0-2.2,1.8-4,4-4s4,1.8,4,4"/>
	<circle class="st0" cx="37" cy="537.5" r="2.5"/>
	<g>
		<g>
			<g>
				<path class="st1" d="M34.5,556.1v7.6c0,3.5,1.2,6.8,3.5,9.8c2.3,2.9,5.1,4.8,8.5,5.6c3.4-0.8,6.2-2.7,8.5-5.6
					c2.3-2.9,3.5-6.2,3.5-9.8v-7.6l-12-5.1L34.5,556.1z"/>
			</g>
		</g>
	</g>
	<line class="st1" x1="44.5" y1="571" x2="48.5" y2="571"/>
	<polyline class="st1" points="46.5,571 46.5,563 44.5,563 	"/>
	<line class="st1" x1="46.5" y1="559" x2="46.5" y2="559"/>
</g>
<g>
	<path class="st1" d="M498.8,453.3L484.6,439c-1.8-1.8-4.7-1.8-6.5,0c0,0,0,0,0,0l-25.2,25.2c-1.8,1.8-1.8,4.7,0,6.5c0,0,0,0,0,0
		l7.7,7.7"/>
	<path class="st0" d="M467.4,457.2h38.1c1.6,0,2.9,1.3,2.9,2.9v25.2c0,1.6-1.3,2.9-2.9,2.9h-38.1c-1.6,0-2.9-1.3-2.9-2.9v-25.2
		C464.5,458.5,465.8,457.2,467.4,457.2z"/>
	<line class="st0" x1="464.5" y1="463.8" x2="508.5" y2="463.8"/>
	<line class="st0" x1="464.5" y1="470.1" x2="508.5" y2="470.1"/>
	<line class="st0" x1="470.9" y1="476.5" x2="479.5" y2="476.5"/>
	<line class="st0" x1="470.9" y1="482.8" x2="476.3" y2="482.8"/>
	<line class="st0" x1="483.8" y1="476.5" x2="489.2" y2="476.5"/>
	<line class="st1" x1="486.5" y1="441.1" x2="474" y2="453.6"/>
	<line class="st1" x1="461" y1="466.6" x2="455.5" y2="472.1"/>
	<line class="st1" x1="490.5" y1="445.1" x2="482" y2="453.6"/>
	<line class="st1" x1="460.5" y1="475.1" x2="459" y2="476.6"/>
</g>
<g>
	<path class="st0" d="M104.1,524.6c-1.1,0-2.2,0.2-3.3,0.4l5.8,5.8l-0.1,8.7l-8.7,0.1l-5.8-5.8c-0.3,1-0.4,2.1-0.4,3.3
		c0,6.9,5.6,12.5,12.5,12.5s12.5-5.6,12.5-12.5S111,524.6,104.1,524.6z"/>
	<g>
		<path class="st0" d="M115.6,542.6l31.5,31.5c1.7,1.7,1.7,4.3,0,6l0,0c-1.7,1.7-4.3,1.7-6,0l-31.5-31.5"/>
	</g>
	<line class="st0" x1="143.7" y1="576.6" x2="143.7" y2="576.6"/>
	<path class="st1" d="M120.2,541.6c6.4,0,11.5,5.1,11.5,11.5"/>
	<path class="st1" d="M120.2,564.6c-6.4,0-11.5-5.1-11.5-11.5"/>
	<path class="st1" d="M139.1,561c0.5-1.2,0.9-2.5,1.2-3.8l4.4-0.8v-6.5l-4.4-0.8c-0.5-2.6-1.6-5.1-3-7.2l2.6-3.7l-4.6-4.6l-3.7,2.6
		c-2.2-1.4-4.6-2.5-7.2-3l-0.8-4.4h-5.5"/>
	<path class="st1" d="M95.7,550.8v5.5l4.4,0.8c0.5,2.6,1.6,5.1,3,7.2l-2.6,3.7l4.6,4.6l3.7-2.6c2.2,1.4,4.6,2.5,7.2,3l0.8,4.4h6.5
		l0.8-4.4c1.2-0.2,2.4-0.6,3.5-1.1"/>
</g>
<g>
	<g>
		<circle class="st3" cx="567.1" cy="478" r="6"/>
		<path class="st3" d="M567.1,475.5c1.4,0,2.5,1.1,2.5,2.5c0,1.4-1.1,2.5-2.5,2.5s-2.5-1.1-2.5-2.5"/>
		<line class="st3" x1="560.7" y1="478.6" x2="541.6" y2="478.6"/>
		<path class="st3" d="M574.2,478.6c0,0-1.3,0,1.3,0c4,0,4-6.7,4-9.4c0-1.3-2.7-6.7-20.2-6.7h-17.7"/>
		<path class="st3" d="M541.4,451.6c6.7,0,15.6,10.8,15.6,10.8"/>
		<line class="st3" x1="541.8" y1="467.8" x2="545.8" y2="467.8"/>
	</g>
	<line class="st3" x1="541.6" y1="475" x2="561.6" y2="475"/>
	<line class="st3" x1="572.6" y1="475" x2="578.6" y2="475"/>
	<path class="st3" d="M576.6,466h-3.5c-0.8,0-1.5,0.7-1.5,1.5l0,0c0,0.8,0.7,1.5,1.5,1.5h6.5"/>
	<path class="st3" d="M576.6,448c-1.1-0.7-7.2-1.3-16.4,13.7"/>
	<line class="st3" x1="551.6" y1="457" x2="549.6" y2="462"/>
	<circle class="st1" cx="596.1" cy="444.5" r="2.5"/>
	<path class="st1" d="M585.2,461.6c1,2,3,3.4,5.4,3.4c3.3,0,6-2.7,6-6c0-3.3-2.7-6-6-6c-2.6,0-4.9,1.7-5.7,4"/>
	<path class="st1" d="M591.6,453.1C591.6,453,591.6,453,591.6,453.1c0-3.4-2.7-6.1-6-6.1s-6,2.7-6,6c0,1.4,0.5,2.7,1.3,3.7
		c-1.3,0.5-2.3,1.8-2.3,3.3c0,1.9,1.6,3.5,3.5,3.5c1.4,0,2.5-0.8,3.1-1.9c1,2,3,3.4,5.4,3.4c3.3,0,6-2.7,6-6
		C596.6,456,594.4,453.6,591.6,453.1z"/>
</g>
<g>
	<path class="st0" d="M296.7,444.5c0-1.8,1.5-3.2,3.2-3.2c1.8,0,3.2,1.5,3.2,3.2"/>
	<path class="st0" d="M303.2,459.9c0-1.8,1.5-3.2,3.2-3.2c1.8,0,3.2,1.5,3.2,3.2"/>
	<path class="st0" d="M291.5,464.3c0-2.9,2.3-5.2,5.2-5.2"/>
	<path class="st0" d="M309.6,461.3c0-1.8,1.5-3.2,3.2-3.2c1.8,0,3.2,1.5,3.2,3.2"/>
	<path class="st0" d="M316.1,463.9c0-1.8,1.5-3.2,3.2-3.2c1.8,0,3.2,1.5,3.2,3.2"/>
	<line class="st0" x1="296.7" y1="444.5" x2="296.7" y2="468.4"/>
	<line class="st0" x1="303.2" y1="444.5" x2="303.2" y2="463.3"/>
	<line class="st0" x1="309.6" y1="459.9" x2="309.6" y2="463.3"/>
	<line class="st0" x1="316.1" y1="461.3" x2="316.1" y2="465.2"/>
	<path class="st0" d="M291.5,472.9c0,8.6,7,15.6,15.6,15.6s15.6-7,15.6-15.6"/>
	<path class="st0" d="M322.6,468.9c0,2.8,0,3.7,0,3.7S322.6,471.7,322.6,468.9c0-2.8,0-5,0-5S322.6,466.1,322.6,468.9z"/>
	<line class="st0" x1="291.5" y1="464.3" x2="291.5" y2="473.1"/>
	<circle class="st1" cx="279" cy="445" r="7.5"/>
	<circle class="st1" cx="321" cy="445" r="7.5"/>
	<path class="st1" d="M293.1,447.9c-0.4-0.9-0.6-1.9-0.6-2.9c0-1,0.2-2,0.6-2.9c0.4-0.9,0.9-1.7,1.6-2.4c0.7-0.7,1.5-1.2,2.4-1.6
		s1.9-0.6,2.9-0.6s2,0.2,2.9,0.6s1.7,0.9,2.4,1.6c0.7,0.7,1.2,1.5,1.6,2.4c0.4,0.9,0.6,1.9,0.6,2.9c0,1-0.2,2-0.6,2.9"/>
</g>
<g>
	<polyline class="st0" points="384.5,469.2 384.5,491.2 365.5,478.2 365.5,470.2 	"/>
	<polygon class="st0" points="380.5,480.2 361.5,467.2 365.5,456.2 384.5,469.2 	"/>
	<polyline class="st0" points="414.5,469.2 414.5,478.2 384.5,491.2 384.5,469.2 	"/>
	<polygon class="st0" points="418.5,467.2 388.5,480.2 384.5,469.2 414.5,456.2 	"/>
	<path class="st1" d="M384.6,464.2c0.8-7.9,6-16.2,12.4-19.3c6.7-3.2,12.1,0.6,12.5,8.4"/>
	<path class="st1" d="M391.3,461.2c0.6-3.4,2.9-6.8,5.7-8.1c2.9-1.4,5.3,0.1,5.7,3.2"/>
	<line class="st1" x1="391.9" y1="436.1" x2="404.5" y2="444.1"/>
	<g>
		<polyline class="st1" points="385.3,435.5 387,438.4 390.3,438.7 392,441.6 395.4,441.9 397.1,444.8 		"/>
	</g>
	<g>
		<polyline class="st1" points="373.3,449.5 375,452.4 378.3,452.7 380,455.6 383.4,455.9 385.1,458.8 		"/>
	</g>
	<g>
		<polyline class="st1" points="377.3,440.5 379,443.4 382.3,443.7 384,446.6 387.4,446.9 389.1,449.8 		"/>
	</g>
	<path class="st1" d="M371,455c0.7-7.8,5.9-16,12.2-19c3.4-1.6,6.4-1.4,8.7,0.2"/>
</g>
<g>
	<path class="st0" d="M234.5,531.9h-34"/>
	<path class="st0" d="M200.9,531.9h-15.4c-2.2,0-4,1.8-4,4v43.9h57v-43.9c0-2.2-1.8-4-4-4l0,0"/>
	<line class="st0" x1="181.5" y1="574.2" x2="238.5" y2="574.2"/>
	<path class="st0" d="M189.5,531.9c0-3.1,2.6-5.7,5.7-5.7c3.1,0,5.7,2.6,5.7,5.7c0,3.1-2.6,5.7-5.7,5.7"/>
	<path class="st0" d="M219.1,531.9c0-3.1,2.6-5.7,5.7-5.7c3.1,0,5.7,2.6,5.7,5.7c0,3.1-2.6,5.7-5.7,5.7"/>
	<circle class="st1" cx="210" cy="547.4" r="2.3"/>
	<circle class="st1" cx="219.1" cy="547.4" r="2.3"/>
	<circle class="st1" cx="228.2" cy="547.4" r="2.3"/>
	<circle class="st1" cx="210" cy="556.6" r="2.3"/>
	<circle class="st1" cx="219.1" cy="556.6" r="2.3"/>
	<circle class="st1" cx="228.2" cy="556.6" r="2.3"/>
	<circle class="st1" cx="191.8" cy="556.6" r="2.3"/>
	<circle class="st1" cx="200.9" cy="556.6" r="2.3"/>
	<circle class="st1" cx="210" cy="565.7" r="2.3"/>
	<circle class="st1" cx="219.1" cy="565.7" r="2.3"/>
	<circle class="st1" cx="191.8" cy="565.7" r="2.3"/>
	<circle class="st1" cx="200.9" cy="565.7" r="2.3"/>
	<line class="st1" x1="226.5" y1="563.5" x2="230.5" y2="567.5"/>
	<line class="st1" x1="230.5" y1="563.5" x2="226.5" y2="567.5"/>
</g>
<g>
	<path class="st0" d="M207.4,460.8c1.1-0.5,1.9-1.5,2.1-2.7c1.4-6.3,1.6-12.8,0.8-19.2c-0.2-1.8-1.5-3.2-3.2-3.5
		c-7.4-1.5-15-1.5-22.4,0c-1.7,0.3-2.9,1.7-3.2,3.4c-1.1,6.5-0.8,13.1,0.9,19.5c0.3,1.1,1,2,2.1,2.5c0,0,4.4,2.2,11.3,2.2
		S207.4,460.8,207.4,460.8z"/>
	<path class="st0" d="M190.9,463l-0.1,23.7l5,5l5.2-5l0-23.7"/>
	<circle class="st0" cx="195.9" cy="444.1" r="3"/>
	<line class="st0" x1="194.9" y1="484.1" x2="194.9" y2="463.1"/>
	<path class="st1" d="M214.2,443.2l17,17c1.6,1.6,1.6,4.1,0,5.7L221.1,476c-1.5,1.5-4,1.6-5.5,0.1l-10-10.2"/>
	<path class="st1" d="M233.4,458c2.8,2.8,2.8,7.3,0,10.1"/>
	<path class="st1" d="M235.9,455.5c4.2,4.2,4.2,10.9,0,15.1"/>
	
		<rect x="217.3" y="463.1" transform="matrix(0.7071 -0.7071 0.7071 0.7071 -264.1319 292.3028)" class="st1" width="6.9" height="3.8"/>
	<path class="st1" d="M215.5,463.3c-1-1-1-2.6,0-3.5c1-1,2.6-1,3.5,0"/>
	<line class="st1" x1="215.5" y1="463.3" x2="217" y2="464.7"/>
	<line class="st1" x1="218.7" y1="448.7" x2="214.7" y2="452.7"/>
</g>
<g>
	<line class="st0" x1="-88" y1="557" x2="-82" y2="557"/>
	<line class="st0" x1="-84.6" y1="570.8" x2="-82.8" y2="569.8"/>
	<line class="st0" x1="-36.9" y1="571.7" x2="-38.7" y2="570.7"/>
	<line class="st0" x1="-33" y1="558" x2="-39" y2="558"/>
	<line class="st0" x1="-36.4" y1="544.2" x2="-38.2" y2="545.2"/>
	<line class="st0" x1="-60" y1="530" x2="-60" y2="536"/>
	<line class="st0" x1="-73.8" y1="533.4" x2="-72.8" y2="535.2"/>
	<line class="st0" x1="-84.1" y1="543.3" x2="-82.3" y2="544.3"/>
	<path class="st1" d="M-48.1,537L-48.1,537c-0.6-0.4-1.4-0.2-1.8,0.3L-63.8,554c-2,2.4-1.3,6,1.5,7.6h0c2.8,1.6,6.3,0.4,7.4-2.5
		l7.5-20.4C-47.2,538-47.5,537.3-48.1,537z"/>
	<g>
		<path class="st0" d="M-32,557c0-15.5-12.5-28-28-28s-28,12.5-28,28c0,7.8,3.2,14.9,8.4,20h39.2C-35.2,571.9-32,564.8-32,557z"/>
	</g>
	<line class="st0" x1="-70" y1="568" x2="-70" y2="571"/>
	<line class="st0" x1="-65" y1="568" x2="-65" y2="571"/>
	<line class="st0" x1="-60" y1="568" x2="-60" y2="571"/>
	<line class="st0" x1="-55" y1="568" x2="-55" y2="571"/>
	<line class="st0" x1="-50" y1="570" x2="-50" y2="571"/>
</g>
</svg>
