<?xml version="1.0" encoding="utf-8"?>
<!-- Generator: Adobe Illustrator 21.1.0, SVG Export Plug-In . SVG Version: 6.00 Build 0)  -->
<svg version="1.1" id="Layer_1" xmlns="http://www.w3.org/2000/svg" xmlns:xlink="http://www.w3.org/1999/xlink" x="0px" y="0px"
	 viewBox="0 0 60 32.7" style="enable-background:new 0 0 60 32.7;" xml:space="preserve">
<style type="text/css">
	.st0{fill:none;stroke:#000000;stroke-width:2;stroke-linecap:round;stroke-linejoin:round;stroke-miterlimit:10;}
	.st1{fill:none;stroke:#BA0C2F;stroke-width:2;stroke-linecap:round;stroke-linejoin:round;stroke-miterlimit:10;}
	.st2{fill:#BA0C2F;}
	.st3{fill:none;stroke:#000000;stroke-width:2;stroke-linecap:round;stroke-linejoin:round;}
</style>
<g>
	<path class="st0" d="M-262,189.7c0-12.2,9.8-22,22-22s22,9.8,22,22"/>
	<path class="st0" d="M-217.8,206.7c0,8.8-7.2,16-16,16"/>
	<rect x="-220.5" y="190.2" class="st0" width="5" height="15.5"/>
	<rect x="-264.5" y="190.2" class="st0" width="5" height="15.5"/>
	<path class="st0" d="M-236.8,225h-6.5c-1.2,0-2.3-1-2.3-2.3l0,0c0-1.2,1-2.3,2.3-2.3h6.5c1.2,0,2.3,1,2.3,2.3l0,0
		C-234.5,223.9-235.5,225-236.8,225z"/>
	<path class="st1" d="M-248.8,205.7c0,4.8,3.9,8.8,8.8,8.8s8.8-3.9,8.8-8.8H-248.8z"/>
	<path class="st0" d="M-215.5,202c2.2,0,4-1.8,4-4c0-2.2-1.8-4-4-4V202z"/>
	<path class="st0" d="M-264.5,194c-2.2,0-4,1.8-4,4c0,2.2,1.8,4,4,4V194z"/>
	<path class="st1" d="M-243.5,198.7c0-1.7-1.3-3-3-3c-1.7,0-3,1.3-3,3"/>
	<path class="st1" d="M-230.5,198.7c0-1.7-1.3-3-3-3c-1.7,0-3,1.3-3,3"/>
	<path class="st1" d="M-255.5,191.7c5,0,11-8,8-17c3,9,8,18,23,16"/>
</g>
<g>
	<path class="st0" d="M-164.5,207.8v-38c0-1.1,0.9-2,2-2h39c1.1,0,2,0.9,2,2v46c0,5-4,9-9,9h-39c-5,0-9-4-9-9v-2c0-1.1,0.9-2,2-2h39
		c1.1,0,2,0.9,2,2v1c0,5,5,6,5,6"/>
	<line class="st1" x1="-147.5" y1="177.8" x2="-128.5" y2="177.8"/>
	<line class="st1" x1="-157.5" y1="177.8" x2="-153.5" y2="177.8"/>
	<line class="st1" x1="-132.5" y1="188.8" x2="-128.5" y2="188.8"/>
	<line class="st1" x1="-157.5" y1="188.8" x2="-138.5" y2="188.8"/>
	<line class="st1" x1="-142.5" y1="199.8" x2="-128.5" y2="199.8"/>
	<line class="st1" x1="-157.5" y1="199.8" x2="-148.5" y2="199.8"/>
	<circle class="st1" cx="-150.5" cy="177.8" r="3"/>
	<circle class="st1" cx="-135.5" cy="188.8" r="3"/>
	<circle class="st1" cx="-145.5" cy="199.8" r="3"/>
</g>
<g>
	<path class="st0" d="M44.5,272.8c-0.6-0.4-1.2-0.7-1.8-1"/>
	<path class="st0" d="M53.4,282.9c-0.7-1.8-1.7-3.5-2.9-5"/>
	<path class="st0" d="M46.5,303.5c3.2-2.3,5.6-5.3,6.9-8.7"/>
	<path class="st0" d="M17.8,306.5c3.5,1.5,7.5,2.3,11.7,2.3c4.5,0,8.8-1,12.5-2.7"/>
	<path class="st0" d="M16.3,271.8c-7.1,3.5-11.8,9.8-11.8,17c0,6.2,3.5,11.7,9,15.4"/>
	<path class="st1" d="M39,275.7c-2.8-1.3-6-2-9.5-2s-6.7,0.7-9.5,2"/>
	<polyline class="st0" points="53.5,282.8 58.5,282.8 58.5,294.8 53.5,294.8 	"/>
	<path class="st0" d="M4.5,288.8L4.5,288.8c-1.7,0-3-1.3-3-3v-4"/>
	<path class="st1" d="M23.2,274.5c-2-1.7-3.2-4.3-3.2-7.1c0-5.2,4.3-9.5,9.5-9.5s9.5,4.3,9.5,9.5c0,2.9-1.3,5.4-3.2,7.1"/>
	<polyline class="st0" points="13.5,304.2 13.5,314.8 20.5,314.8 21.1,307.7 	"/>
	<polyline class="st0" points="38.9,307.4 39.5,314.8 46.5,314.8 46.5,303.5 	"/>
	<polyline class="st0" points="44.5,272.8 51,269.3 50.5,277.8 	"/>
	<path class="st0" d="M43,282.4c0-1.4,1.1-2.5,2.5-2.5s2.5,1.1,2.5,2.5"/>
	<path class="st1" d="M27.5,264.8c0-1.1,0.9-2,2-2"/>
	<line class="st1" x1="27.5" y1="264.8" x2="27.5" y2="269.8"/>
	<line class="st1" x1="26.5" y1="269.8" x2="31.5" y2="269.8"/>
	<line class="st1" x1="27.5" y1="265.8" x2="29.5" y2="265.8"/>
</g>
<g>
	<path class="st1" d="M-316.5,206.3c0-1.1,0.9-2,2-2"/>
	<line class="st1" x1="-316.5" y1="206.3" x2="-316.5" y2="211.3"/>
	<line class="st1" x1="-317.5" y1="211.3" x2="-312.5" y2="211.3"/>
	<line class="st1" x1="-316.5" y1="207.3" x2="-314.5" y2="207.3"/>
	<g>
		<path class="st1" d="M-315.5,222.3c-3.9,0-7.4-1.6-9.9-4.1c-2.5-2.5-4.1-6-4.1-9.9c0-3.9,1.6-7.4,4.1-9.9"/>
		<path class="st1" d="M-315.5,194.3c3.9,0,7.4,1.6,9.9,4.1c2.5,2.5,4.1,6,4.1,9.9c0,3.9-1.6,7.4-4.1,9.9"/>
		<polyline class="st1" points="-329.5,197.3 -323.6,197.3 -323.6,203.2 		"/>
		<polyline class="st1" points="-301.5,219.3 -307.4,219.3 -307.4,213.4 		"/>
	</g>
	<path class="st0" d="M-345.5,212.3v5c0,1.1-0.9,2-2,2h-6c-1.1,0-2-0.9-2-2v-5"/>
	<path class="st0" d="M-301.5,197.9c0-2.3-0.8-4.6-2.3-6.4l-2.7-3.2"/>
	<line class="st0" x1="-349.5" y1="212.3" x2="-333.1" y2="212.3"/>
	<path class="st0" d="M-353.5,188.3l-2.7,3.2c-1.5,1.8-2.3,4.1-2.3,6.4v11.4c0,1.7,1.3,3,3,3"/>
	<path class="st0" d="M-306.5,188.3l-4.7-12.3c-1.1-2.8-3.6-4.8-6.5-5.2c-2.3-0.3-7.6-0.6-12.3-0.6s-10,0.2-12.3,0.6
		c-3,0.4-5.5,2.4-6.5,5.2l-4.7,12.3"/>
	<path class="st0" d="M-311.1,188.3l-3.6-9.5c-0.8-2.2-2.8-3.7-5.1-4c-1.8-0.2-6.5-0.4-10.2-0.4s-8.4,0.2-10.2,0.4
		c-2.3,0.3-4.2,1.8-5.1,4l-3.6,9.5H-311.1z"/>
	<circle class="st0" cx="-349.5" cy="197.8" r="3"/>
	<line class="st0" x1="-306.5" y1="188.3" x2="-301.5" y2="188.3"/>
	<line class="st0" x1="-358.5" y1="188.3" x2="-353.5" y2="188.3"/>
	<polyline class="st0" points="-332.5,201.3 -340.5,201.3 -340.5,207.3 -334.5,207.3 	"/>
	<circle class="st0" cx="-337" cy="180.8" r="2.5"/>
	<path class="st0" d="M-327,187.3c0-2.2,1.8-4,4-4s4,1.8,4,4"/>
	<path class="st0" d="M-341,187.3c0-2.2,1.8-4,4-4s4,1.8,4,4"/>
	<circle class="st0" cx="-323" cy="180.8" r="2.5"/>
</g>
<g>
	<path class="st0" d="M-615.5,302.3v5c0,1.1-0.9,2-2,2h-6c-1.1,0-2-0.9-2-2v-5"/>
	<path class="st0" d="M-571.5,287.9c0-2.3-0.8-4.6-2.3-6.4l-2.7-3.2"/>
	<line class="st0" x1="-619.5" y1="302.3" x2="-603.1" y2="302.3"/>
	<path class="st0" d="M-623.5,278.3l-2.7,3.2c-1.5,1.8-2.3,4.1-2.3,6.4v11.4c0,1.7,1.3,3,3,3"/>
	<path class="st0" d="M-576.5,278.3l-4.7-12.3c-1.1-2.8-3.6-4.8-6.5-5.2c-2.3-0.3-7.6-0.6-12.3-0.6s-10,0.2-12.3,0.6
		c-3,0.4-5.5,2.4-6.5,5.2l-4.7,12.3"/>
	<path class="st0" d="M-581.1,278.3l-3.6-9.5c-0.8-2.2-2.8-3.7-5.1-4c-1.8-0.2-6.5-0.4-10.2-0.4s-8.4,0.2-10.2,0.4
		c-2.3,0.3-4.2,1.8-5.1,4l-3.6,9.5H-581.1z"/>
	<circle class="st0" cx="-619.5" cy="287.8" r="3"/>
	<line class="st0" x1="-576.5" y1="278.3" x2="-571.5" y2="278.3"/>
	<line class="st0" x1="-628.5" y1="278.3" x2="-623.5" y2="278.3"/>
	<polyline class="st0" points="-602.5,291.3 -610.5,291.3 -610.5,297.3 -604.5,297.3 	"/>
	<circle class="st0" cx="-607" cy="270.8" r="2.5"/>
	<path class="st0" d="M-597,277.3c0-2.2,1.8-4,4-4s4,1.8,4,4"/>
	<path class="st0" d="M-611,277.3c0-2.2,1.8-4,4-4s4,1.8,4,4"/>
	<circle class="st0" cx="-593" cy="270.8" r="2.5"/>
	<circle class="st1" cx="-585.5" cy="298.3" r="14"/>
	<g>
		<line class="st1" x1="-585.5" y1="302.3" x2="-585.5" y2="299.3"/>
		<line class="st1" x1="-585.5" y1="306.3" x2="-585.5" y2="306.3"/>
		<path class="st1" d="M-585.5,291.3c2.2,0,4,1.8,4,4s-1.8,4-4,4"/>
		<path class="st1" d="M-588.7,292.9c0.7-0.9,1.9-1.6,3.2-1.6"/>
	</g>
</g>
<g>
	<g>
		<path class="st1" d="M-62,187.1c0-1.4,1.1-2.5,2.5-2.5"/>
		<line class="st1" x1="-62" y1="187.1" x2="-62" y2="193.2"/>
		<line class="st1" x1="-63.2" y1="193.2" x2="-57" y2="193.2"/>
		<line class="st1" x1="-62" y1="188.3" x2="-59.5" y2="188.3"/>
	</g>
	<line class="st0" x1="-69.5" y1="171.8" x2="-41.5" y2="171.8"/>
	<line class="st0" x1="-77.5" y1="171.8" x2="-75.5" y2="171.8"/>
	<path class="st0" d="M-55.5,211.8v7l1,0h2c3.3,0,6,2.7,6,6l0,0h-27l0,0c0-3.3,2.7-6,6-6h2l1,0v-8l0-2.5c-8.1-2-14.1-9.4-14.1-18.1
		v-22.4h37.3v22.4c0,10.3-8.3,18.6-18.6,18.6"/>
	<line class="st0" x1="-31.5" y1="176.8" x2="-40.5" y2="176.8"/>
	<path class="st0" d="M-31.5,176.8c0,0,0,5,0,7c0,4-2,10-10,11"/>
	<path class="st0" d="M-78.5,194.8c-8-1-10-7-10-11c0-2,0-7,0-7h9"/>
	<path class="st1" d="M-58.6,177.2l0.6,0.6c0.5,0.5,1.2,0.7,1.9,0.5l0.8-0.2c1.1-0.3,2.2,0.3,2.5,1.4l0.2,0.8
		c0.2,0.7,0.7,1.2,1.4,1.4l0.8,0.2c1.1,0.3,1.7,1.4,1.4,2.5l-0.2,0.8c-0.2,0.7,0,1.4,0.5,1.9l0.6,0.6c0.8,0.8,0.8,2.1,0,2.8
		l-0.6,0.6c-0.5,0.5-0.7,1.2-0.5,1.9l0.2,0.8c0.3,1.1-0.3,2.2-1.4,2.5l-0.8,0.2c-0.7,0.2-1.2,0.7-1.4,1.4l-0.2,0.8
		c-0.3,1.1-1.4,1.7-2.5,1.4l-0.8-0.2c-0.7-0.2-1.4,0-1.9,0.5l-0.6,0.6c-0.8,0.8-2.1,0.8-2.8,0l-0.6-0.6c-0.5-0.5-1.2-0.7-1.9-0.5
		l-0.8,0.2c-1.1,0.3-2.2-0.3-2.5-1.4l-0.2-0.8c-0.2-0.7-0.7-1.2-1.4-1.4l-0.8-0.2c-1.1-0.3-1.7-1.4-1.4-2.5l0.2-0.8
		c0.2-0.7,0-1.4-0.5-1.9l-0.6-0.6c-0.8-0.8-0.8-2.1,0-2.8l0.6-0.6c0.5-0.5,0.7-1.2,0.5-1.9l-0.2-0.8c-0.3-1.1,0.3-2.2,1.4-2.5
		l0.8-0.2c0.7-0.2,1.2-0.7,1.4-1.4l0.2-0.8c0.3-1.1,1.4-1.7,2.5-1.4l0.8,0.2c0.7,0.2,1.4,0,1.9-0.5l0.6-0.6
		C-60.6,176.5-59.4,176.5-58.6,177.2z"/>
</g>
<g>
	<g>
		<path d="M-510,405.8c-13.8,0-25-11.2-25-25s11.2-25,25-25s25,11.2,25,25S-496.2,405.8-510,405.8z M-510,357.8
			c-12.7,0-23,10.3-23,23s10.3,23,23,23s23-10.3,23-23S-497.3,357.8-510,357.8z"/>
	</g>
	<g>
		<path d="M-510,362.8c-0.3,0-0.5-0.1-0.7-0.3c-0.2-0.2-0.3-0.5-0.3-0.7c0-0.3,0.1-0.5,0.3-0.7c0.4-0.4,1-0.4,1.4,0
			c0.2,0.2,0.3,0.4,0.3,0.7c0,0.3-0.1,0.5-0.3,0.7C-509.5,362.7-509.7,362.8-510,362.8z"/>
	</g>
	<g>
		<path d="M-519.5,365.4c-0.1,0-0.3,0-0.4-0.1c-0.1,0-0.2-0.1-0.3-0.2c-0.2-0.2-0.3-0.4-0.3-0.7c0-0.3,0.1-0.5,0.3-0.7
			c0.1-0.1,0.2-0.2,0.3-0.2c0.4-0.1,0.8-0.1,1.1,0.2c0.2,0.2,0.3,0.4,0.3,0.7c0,0.3-0.1,0.5-0.3,0.7
			C-519,365.3-519.2,365.4-519.5,365.4z"/>
	</g>
	<g>
		<path d="M-526.5,372.3c-0.3,0-0.5-0.1-0.7-0.3c-0.2-0.2-0.3-0.5-0.3-0.7c0-0.3,0.1-0.5,0.3-0.7c0.4-0.4,1-0.4,1.4,0
			c0.2,0.2,0.3,0.4,0.3,0.7c0,0.3-0.1,0.5-0.3,0.7C-525.9,372.2-526.2,372.3-526.5,372.3z"/>
	</g>
	<g>
		<path d="M-529,381.8c-0.3,0-0.5-0.1-0.7-0.3c-0.2-0.2-0.3-0.5-0.3-0.7c0-0.1,0-0.3,0.1-0.4c0.1-0.1,0.1-0.2,0.2-0.3
			c0.4-0.4,1-0.4,1.4,0c0.1,0.1,0.2,0.2,0.2,0.3c0.1,0.1,0.1,0.3,0.1,0.4c0,0.3-0.1,0.5-0.3,0.7C-528.5,381.7-528.7,381.8-529,381.8
			z"/>
	</g>
	<g>
		<path d="M-526.5,391.3c-0.1,0-0.3,0-0.4-0.1c-0.1-0.1-0.2-0.1-0.3-0.2c-0.1-0.1-0.2-0.2-0.2-0.3c0-0.1-0.1-0.3-0.1-0.4
			c0-0.1,0-0.3,0.1-0.4c0.1-0.1,0.1-0.2,0.2-0.3c0.1-0.1,0.2-0.2,0.3-0.2c0.4-0.2,0.8-0.1,1.1,0.2c0.1,0.1,0.2,0.2,0.2,0.3
			c0.1,0.1,0.1,0.3,0.1,0.4c0,0.1,0,0.3-0.1,0.4c0,0.1-0.1,0.2-0.2,0.3C-525.9,391.2-526.2,391.3-526.5,391.3z"/>
	</g>
	<g>
		<path d="M-519.5,398.3c-0.1,0-0.3,0-0.4-0.1c-0.1-0.1-0.2-0.1-0.3-0.2c-0.1-0.1-0.2-0.2-0.2-0.3c0-0.1-0.1-0.3-0.1-0.4
			c0-0.3,0.1-0.5,0.3-0.7c0.1-0.1,0.2-0.2,0.3-0.2c0.2-0.1,0.5-0.1,0.8,0c0.1,0,0.2,0.1,0.3,0.2c0.2,0.2,0.3,0.4,0.3,0.7
			c0,0.1,0,0.3-0.1,0.4c-0.1,0.1-0.1,0.2-0.2,0.3c-0.1,0.1-0.2,0.2-0.3,0.2C-519.2,398.3-519.4,398.3-519.5,398.3z"/>
	</g>
	<g>
		<path d="M-510,400.8c-0.3,0-0.5-0.1-0.7-0.3c-0.1-0.1-0.2-0.2-0.2-0.3c0-0.1-0.1-0.3-0.1-0.4c0-0.1,0-0.1,0-0.2
			c0-0.1,0-0.1,0.1-0.2c0-0.1,0.1-0.1,0.1-0.2c0-0.1,0.1-0.1,0.1-0.1c0.3-0.3,0.7-0.4,1.1-0.2c0.1,0.1,0.2,0.1,0.3,0.2
			c0.2,0.2,0.3,0.4,0.3,0.7c0,0.1,0,0.3-0.1,0.4c-0.1,0.1-0.1,0.2-0.2,0.3c-0.1,0.1-0.2,0.2-0.3,0.2
			C-509.7,400.8-509.9,400.8-510,400.8z"/>
	</g>
	<g>
		<path d="M-500.5,398.3c-0.1,0-0.3,0-0.4-0.1c-0.1-0.1-0.2-0.1-0.3-0.2c-0.1-0.1-0.2-0.2-0.2-0.3c0-0.1-0.1-0.3-0.1-0.4
			c0-0.3,0.1-0.5,0.3-0.7c0.1-0.1,0.2-0.2,0.3-0.2c0.2-0.1,0.4-0.1,0.6-0.1c0.1,0,0.1,0,0.2,0.1c0.1,0,0.1,0.1,0.2,0.1
			c0,0,0.1,0.1,0.1,0.1c0.2,0.2,0.3,0.4,0.3,0.7c0,0.1,0,0.3-0.1,0.4c-0.1,0.1-0.1,0.2-0.2,0.3C-500,398.2-500.2,398.3-500.5,398.3z
			"/>
	</g>
	<g>
		<path d="M-493.6,391.3c-0.1,0-0.3,0-0.4-0.1c-0.1-0.1-0.2-0.1-0.3-0.2c-0.1-0.1-0.2-0.2-0.2-0.3s-0.1-0.3-0.1-0.4
			c0-0.1,0-0.3,0.1-0.4c0-0.1,0.1-0.2,0.2-0.3c0.1-0.1,0.2-0.2,0.3-0.2c0.4-0.2,0.8-0.1,1.1,0.2c0.1,0.1,0.2,0.2,0.2,0.3
			c0,0.1,0.1,0.3,0.1,0.4c0,0.1,0,0.3-0.1,0.4c-0.1,0.1-0.1,0.2-0.2,0.3C-493,391.2-493.3,391.3-493.6,391.3z"/>
	</g>
	<g>
		<path d="M-491,381.8c-0.1,0-0.3,0-0.4-0.1c-0.1-0.1-0.2-0.1-0.3-0.2c-0.2-0.2-0.3-0.5-0.3-0.7c0-0.1,0-0.3,0.1-0.4
			c0.1-0.1,0.1-0.2,0.2-0.3c0.1-0.1,0.2-0.2,0.3-0.2c0.4-0.2,0.8-0.1,1.1,0.2c0.1,0.1,0.2,0.2,0.2,0.3c0.1,0.1,0.1,0.3,0.1,0.4
			c0,0.3-0.1,0.5-0.3,0.7C-490.5,381.7-490.7,381.8-491,381.8z"/>
	</g>
	<g>
		<path d="M-493.6,372.3c-0.3,0-0.5-0.1-0.7-0.3c-0.2-0.2-0.3-0.5-0.3-0.7c0-0.3,0.1-0.5,0.3-0.7c0.4-0.4,1-0.4,1.4,0
			c0.2,0.2,0.3,0.4,0.3,0.7c0,0.3-0.1,0.5-0.3,0.7C-493,372.2-493.3,372.3-493.6,372.3z"/>
	</g>
	<g>
		<path d="M-502,353.8h-16c-0.6,0-1-0.4-1-1v-5c0-0.6,0.4-1,1-1h16c0.6,0,1,0.4,1,1v5C-501,353.4-501.4,353.8-502,353.8z
			 M-517,351.8h14v-3h-14V351.8z"/>
	</g>
	<g>
		<path d="M-514,357.8c-0.6,0-1-0.4-1-1v-4c0-0.6,0.4-1,1-1s1,0.4,1,1v4C-513,357.4-513.4,357.8-514,357.8z"/>
	</g>
	<g>
		<path d="M-506,357.8c-0.6,0-1-0.4-1-1v-4c0-0.6,0.4-1,1-1s1,0.4,1,1v4C-505,357.4-505.4,357.8-506,357.8z"/>
	</g>
	<g>
		<path d="M-487.5,364.3c-0.3,0-0.5-0.1-0.7-0.3l-7-7c-0.4-0.4-0.4-1,0-1.4s1-0.4,1.4,0l7,7c0.4,0.4,0.4,1,0,1.4
			C-487,364.2-487.2,364.3-487.5,364.3z"/>
	</g>
	<g>
		<path d="M-532.5,364.3c-0.3,0-0.5-0.1-0.7-0.3c-0.4-0.4-0.4-1,0-1.4l7-7c0.4-0.4,1-0.4,1.4,0s0.4,1,0,1.4l-7,7
			C-532,364.2-532.2,364.3-532.5,364.3z"/>
	</g>
	<g>
		<path class="st2" d="M-509.9,385.9c-0.9,0-1.8-0.2-2.6-0.7c-1.3-0.8-2.3-2.1-2.5-3.6c-0.3-1.5,0.1-3.1,1.1-4.3l11.7-14.1
			c0.7-0.8,1.8-1,2.8-0.5c0.9,0.5,1.3,1.7,0.9,2.7l-6.4,17.2c-0.5,1.4-1.7,2.6-3.1,3.1C-508.7,385.8-509.3,385.9-509.9,385.9z
			 M-500.6,364.3c-0.1,0-0.1,0-0.1,0.1l-11.7,14.2c-0.6,0.7-0.9,1.7-0.7,2.6s0.7,1.7,1.6,2.2c0.8,0.5,1.8,0.6,2.7,0.2
			c0.9-0.3,1.6-1,1.9-1.9l6.4-17.2C-500.4,364.5-500.4,364.4-500.6,364.3C-500.5,364.4-500.6,364.3-500.6,364.3z"/>
	</g>
</g>
<g>
	<path class="st0" d="M-435.5,302.3v5c0,1.1-0.9,2-2,2h-6c-1.1,0-2-0.9-2-2v-5"/>
	<path class="st0" d="M-392.2,284.3c-0.4-1-0.9-1.9-1.6-2.8l-2.7-3.2"/>
	<line class="st0" x1="-439.5" y1="302.3" x2="-419.1" y2="302.3"/>
	<path class="st0" d="M-443.5,278.3l-2.7,3.2c-1.5,1.8-2.3,4.1-2.3,6.4v11.4c0,1.7,1.3,3,3,3"/>
	<path class="st0" d="M-396.5,278.3l-4.7-12.3c-1.1-2.8-3.6-4.8-6.5-5.2c-2.3-0.3-7.6-0.6-12.3-0.6s-10,0.2-12.3,0.6
		c-3,0.4-5.5,2.4-6.5,5.2l-4.7,12.3"/>
	<path class="st0" d="M-401.1,278.3l-3.6-9.5c-0.8-2.2-2.8-3.7-5.1-4c-1.8-0.2-6.5-0.4-10.2-0.4s-8.4,0.2-10.2,0.4
		c-2.3,0.3-4.2,1.8-5.1,4l-3.6,9.5H-401.1z"/>
	<circle class="st0" cx="-439.5" cy="287.8" r="3"/>
	<line class="st0" x1="-396.5" y1="278.3" x2="-391.5" y2="278.3"/>
	<line class="st0" x1="-448.5" y1="278.3" x2="-443.5" y2="278.3"/>
	<polyline class="st0" points="-419.5,291.3 -430.5,291.3 -430.5,297.3 -419.5,297.3 	"/>
	<circle class="st0" cx="-427" cy="270.8" r="2.5"/>
	<path class="st0" d="M-417,277.3c0-2.2,1.8-4,4-4s4,1.8,4,4"/>
	<path class="st0" d="M-431,277.3c0-2.2,1.8-4,4-4s4,1.8,4,4"/>
	<circle class="st0" cx="-413" cy="270.8" r="2.5"/>
	<g>
		<g>
			<g>
				<path class="st1" d="M-414.5,290.2v7.3c0,3.4,1.1,6.6,3.3,9.4c2.2,2.8,4.9,4.6,8.2,5.4c3.2-0.8,6-2.6,8.2-5.4
					c2.2-2.8,3.3-6,3.3-9.4v-7.3l-11.5-4.9L-414.5,290.2z"/>
			</g>
		</g>
	</g>
	<polyline class="st1" points="-407.5,299.3 -403.5,302.3 -397.5,295.3 	"/>
</g>
<g>
	<path class="st1" d="M-68.8,301.1c2.6-2.2,5.9-7.8,1.5-13.3c-5.6-7-21-10-21-10s1.1,14.1,6.6,21C-77.3,304.4-71.2,303.1-68.8,301.1
		z"/>
	<path class="st0" d="M-64.4,314.8c0,0,2.9-8.1,10-16c9-10,13-26,13-32"/>
	<path class="st0" d="M-54.5,298.3c7.5,5,16.4,0.6,20.2-6.5c9-17-7-34-8-34c-3,7-13.5,14-17,21C-63.4,286.8-61.4,293.8-54.5,298.3z"
		/>
	<g>
		<path class="st1" d="M-82.4,283.8c17,18,19,22,19,22"/>
		<path class="st1" d="M-68.8,301.1c2.6-2.2,5.9-7.8,1.5-13.3c-5.6-7-21-10-21-10s1.1,14.1,6.6,21
			C-77.3,304.4-71.2,303.1-68.8,301.1z"/>
		<path class="st0" d="M-64.4,314.8c0,0,2.9-8.1,10-16c9-10,13-26,13-32"/>
		<path class="st0" d="M-54.5,298.3c7.5,5,16.4,0.6,20.2-6.5c9-17-7-34-8-34c-3,7-13.5,14-17,21C-63.4,286.8-61.4,293.8-54.5,298.3z
			"/>
	</g>
</g>
<g>
	<circle class="st1" cx="-264" cy="265.3" r="4"/>
	<path class="st1" d="M-264,269.3v13c0,2.2,1.8,4,4,4h8"/>
	<circle class="st0" cx="-248" cy="265.3" r="4"/>
	<circle class="st0" cx="-232" cy="265.3" r="4"/>
	<circle class="st0" cx="-216" cy="265.3" r="4"/>
	<circle class="st0" cx="-248" cy="307.3" r="4"/>
	<circle class="st0" cx="-232" cy="307.3" r="4"/>
	<circle class="st0" cx="-216" cy="307.3" r="4"/>
	<line class="st0" x1="-248" y1="269.3" x2="-248" y2="303.3"/>
	<line class="st0" x1="-232" y1="269.3" x2="-232" y2="303.3"/>
	<line class="st0" x1="-216" y1="269.3" x2="-216" y2="303.3"/>
	<line class="st0" x1="-216" y1="286.3" x2="-248" y2="286.3"/>
</g>
<g>
	<path class="st0" d="M-302,294.2c0-15.5-12.5-28-28-28s-28,12.5-28,28"/>
	<g>
		<polyline class="st0" points="-354,306.5 -358,306.5 -358,299.8 -354,299.8 		"/>
		<line class="st0" x1="-358" y1="303.2" x2="-355" y2="303.2"/>
	</g>
	<g>
		<polyline class="st0" points="-306,305.5 -306,298.8 -302,298.8 		"/>
		<line class="st0" x1="-306" y1="302.2" x2="-303" y2="302.2"/>
	</g>
	<line class="st0" x1="-330" y1="266.2" x2="-330" y2="272.2"/>
	<path class="st1" d="M-319.1,274.1L-319.1,274.1c-0.6-0.4-1.4-0.2-1.8,0.3l-13.9,16.7c-2,2.4-1.3,6,1.5,7.6l0,0
		c2.8,1.6,6.3,0.4,7.4-2.5l7.5-20.4C-318.2,275.2-318.5,274.5-319.1,274.1z"/>
	<line class="st0" x1="-302" y1="294.2" x2="-308" y2="294.2"/>
	<line class="st0" x1="-358" y1="294.2" x2="-352" y2="294.2"/>
	<line class="st0" x1="-358" y1="294.2" x2="-356" y2="294.2"/>
	<line class="st0" x1="-354.1" y1="280.5" x2="-352.3" y2="281.5"/>
	<line class="st0" x1="-343.8" y1="270.6" x2="-342.8" y2="272.3"/>
	<line class="st0" x1="-306.4" y1="281.3" x2="-308.2" y2="282.3"/>
</g>
<g>
	<path class="st1" d="M-143.4,274.3c0,3.9-2,10-7,10s-7-6.1-7-10c0-3.9,3.1-7,7-7C-146.6,267.3-143.4,270.5-143.4,274.3z"/>
	<path class="st1" d="M-164.4,305.3c0-9.4,5-17,14-17s14,7.6,14,17"/>
	<path class="st0" d="M-126.7,277.3c0,2.9-1.5,7.5-5.3,7.5s-5.3-4.6-5.3-7.5c0-2.9,2.4-5.3,5.3-5.3
		C-129,272.1-126.7,274.4-126.7,277.3z"/>
	<path class="st0" d="M-137.6,289.5c1.5-1.1,3.4-1.7,5.7-1.7c6.8,0,10.5,5.7,10.5,12.8"/>
	<path class="st0" d="M-173.3,277.3c0,2.9,1.5,7.5,5.3,7.5s5.3-4.6,5.3-7.5c0-2.9-2.4-5.3-5.3-5.3
		C-171,272.1-173.3,274.4-173.3,277.3z"/>
	<path class="st0" d="M-162.4,289.5c-1.5-1.1-3.4-1.7-5.7-1.7c-6.8,0-10.5,5.7-10.5,12.8"/>
	<line class="st1" x1="-157.8" y1="290.5" x2="-150.7" y2="297.6"/>
	<line class="st1" x1="-147.2" y1="301.1" x2="-143.4" y2="305.3"/>
	
		<rect x="-151.4" y="297.3" transform="matrix(0.7071 0.7071 -0.7071 0.7071 168.0388 192.9727)" class="st1" width="5" height="4"/>
</g>
<g>
	<path class="st0" d="M-525.5,304.3v4c0,1.1-0.9,2-2,2h-6c-1.1,0-2-0.9-2-2v-4"/>
	<path class="st0" d="M-484.5,304.3v4c0,1.1-0.9,2-2,2h-6c-1.1,0-2-0.9-2-2v-4"/>
	<path class="st0" d="M-484.5,304.3c1.7,0,3-1.3,3-3v-11.4c0-2.3-0.8-4.6-2.3-6.4l-2.7-3.2"/>
	<path class="st0" d="M-533.5,280.3l-2.7,3.2c-1.5,1.8-2.3,4.1-2.3,6.4v11.4c0,1.7,1.3,3,3,3"/>
	<path class="st0" d="M-486.5,280.3l-4.7-12.3c-1.1-2.8-3.6-4.8-6.5-5.2c-2.3-0.3-7.6-0.6-12.3-0.6s-10,0.2-12.3,0.6
		c-3,0.4-5.5,2.4-6.5,5.2l-4.7,12.3"/>
	<path class="st0" d="M-492.5,279.3l-3.4-8.9c-0.8-2-2.6-3.4-4.7-3.7c-1.7-0.2-6-0.4-9.4-0.4s-7.8,0.2-9.4,0.4
		c-2.1,0.3-3.9,1.7-4.7,3.7l-3.4,8.9H-492.5z"/>
	<circle class="st0" cx="-529.5" cy="289.8" r="3"/>
	<circle class="st0" cx="-490.5" cy="289.8" r="3"/>
	<line class="st0" x1="-486.5" y1="280.3" x2="-481.5" y2="280.3"/>
	<line class="st0" x1="-538.5" y1="280.3" x2="-533.5" y2="280.3"/>
	<rect x="-520.5" y="293.3" class="st0" width="21" height="6"/>
	<circle class="st0" cx="-517" cy="272.8" r="2.5"/>
	<path class="st0" d="M-507,279.3c0-2.2,1.8-4,4-4s4,1.8,4,4"/>
	<path class="st0" d="M-521,279.3c0-2.2,1.8-4,4-4s4,1.8,4,4"/>
	<circle class="st0" cx="-503" cy="272.8" r="2.5"/>
	<line class="st0" x1="-529.5" y1="304.3" x2="-490.5" y2="304.3"/>
</g>
<g>
	<polygon class="st0" points="-396,404.8 -444,404.8 -436,368.8 -404,368.8 	"/>
	<circle class="st1" cx="-420" cy="353.8" r="6"/>
	<line class="st1" x1="-420" y1="356.8" x2="-420" y2="364.8"/>
	<line class="st0" x1="-430" y1="380.8" x2="-430" y2="392.8"/>
	<line class="st0" x1="-422" y1="380.8" x2="-430" y2="388.3"/>
	<line class="st0" x1="-422" y1="392.8" x2="-427" y2="386.1"/>
	<path class="st0" d="M-410,389.8c0,1.7-1.3,3-3,3h-2c-1.7,0-3-1.3-3-3v-6c0-1.7,1.3-3,3-3h2c1.7,0,3,1.3,3,3"/>
	<polyline class="st0" points="-412,387.8 -410,387.8 -410,389.8 	"/>
</g>
<g>
	<line class="st1" x1="-225.5" y1="349.3" x2="-225.5" y2="398.3"/>
	<polyline class="st1" points="-219.8,393.3 -225.5,399 -231.2,393.3 	"/>
	<polyline class="st1" points="-231.2,354.3 -225.5,348.7 -219.8,354.3 	"/>
	<path class="st0" d="M-240.5,399.3v-51h-16c-2.2,0-4,1.8-4,4v52h41"/>
	<line class="st0" x1="-240.5" y1="376.3" x2="-253.5" y2="376.3"/>
	<line class="st0" x1="-240.5" y1="369.3" x2="-247.5" y2="369.3"/>
	<line class="st0" x1="-240.5" y1="362.3" x2="-247.5" y2="362.3"/>
	<line class="st0" x1="-240.5" y1="355.3" x2="-247.5" y2="355.3"/>
	<line class="st0" x1="-240.5" y1="397.3" x2="-247.5" y2="397.3"/>
	<line class="st0" x1="-240.5" y1="390.3" x2="-247.5" y2="390.3"/>
	<line class="st0" x1="-240.5" y1="383.3" x2="-247.5" y2="383.3"/>
</g>
<g>
	<line class="st1" x1="-308" y1="388.8" x2="-352" y2="388.8"/>
	<polyline class="st1" points="-347,394.5 -352.7,388.8 -347,383.2 	"/>
	<polyline class="st1" points="-313,383.2 -307.3,388.8 -313,394.5 	"/>
	<path class="st0" d="M-302,372.8v-16c0-2.2-1.8-4-4-4h-48c-2.2,0-4,1.8-4,4v16"/>
	<line class="st0" x1="-330" y1="372.8" x2="-330" y2="359.8"/>
	<line class="st0" x1="-323" y1="372.8" x2="-323" y2="365.8"/>
	<line class="st0" x1="-316" y1="372.8" x2="-316" y2="365.8"/>
	<line class="st0" x1="-309" y1="372.8" x2="-309" y2="365.8"/>
	<line class="st0" x1="-351" y1="372.8" x2="-351" y2="365.8"/>
	<line class="st0" x1="-344" y1="372.8" x2="-344" y2="365.8"/>
	<line class="st0" x1="-337" y1="372.8" x2="-337" y2="365.8"/>
	<line class="st0" x1="-358" y1="372.8" x2="-302" y2="372.8"/>
	<line class="st0" x1="-302" y1="377.8" x2="-302" y2="381.8"/>
	<line class="st0" x1="-358" y1="377.8" x2="-358" y2="381.8"/>
	<line class="st0" x1="-302" y1="386.8" x2="-302" y2="390.8"/>
	<line class="st0" x1="-358" y1="386.8" x2="-358" y2="390.8"/>
	<line class="st0" x1="-302" y1="395.8" x2="-302" y2="399.8"/>
	<line class="st0" x1="-358" y1="395.8" x2="-358" y2="399.8"/>
</g>
<g>
	<circle class="st1" cx="-169.2" cy="23.4" r="4.5"/>
	<circle class="st1" cx="-130.2" cy="23.4" r="4.5"/>
	<line class="st1" x1="-135" y1="23.9" x2="-161" y2="23.9"/>
	<path class="st1" d="M-125,23.9c0,0-1,0,1,0c3,0,3-5,3-7c0-1-3-5-16-5h-26c-4,0-9-6-9-6"/>
	<path class="st1" d="M-143.9,4.8c4.3,2.3,9.2,7.1,9.2,7.1"/>
	<path class="st1" d="M-174,23.9l-5-1c0,0,0-4,0-5c0-2,3-6,3-8h8"/>
	<polyline class="st1" points="-156,8.9 -154,11.9 -154,20.9 	"/>
	<line class="st1" x1="-150" y1="15.9" x2="-147" y2="15.9"/>
</g>
<g>
	<circle class="st1" cx="-439.2" cy="23.9" r="4.5"/>
	<circle class="st1" cx="-400.2" cy="23.9" r="4.5"/>
	<line class="st1" x1="-405" y1="24.3" x2="-431" y2="24.3"/>
	<path class="st1" d="M-395,24.3c0,0-1,0,1,0c3,0,3-5,3-7c0-1-3-5-16-5h-26c-3,0-5.2-3-5.2-3"/>
	<path class="st1" d="M-444,24.3l-5-1c0,0,0-4,0-5c0-2,3-7,3-9h7c0,0,2-5,16-5c9,0,17.3,8,17.3,8"/>
	<polyline class="st1" points="-423,5.3 -421,12.3 -421,21.3 	"/>
	<line class="st1" x1="-417" y1="16.3" x2="-415" y2="16.3"/>
	<line class="st1" x1="-430" y1="16.3" x2="-428" y2="16.3"/>
	<line class="st1" x1="-434" y1="5.8" x2="-434" y2="17.5"/>
</g>
<g>
	<circle class="st1" cx="-349.2" cy="23.9" r="4.5"/>
	<circle class="st1" cx="-310.2" cy="23.9" r="4.5"/>
	<line class="st1" x1="-315" y1="24.3" x2="-341" y2="24.3"/>
	<path class="st1" d="M-305,24.3c0,0-1,0,1,0c3,0,3-5,3-7c0-1-3-5-16-5h-33c-3,0-7-1-7-1"/>
	<path class="st1" d="M-354,24.3l-5-1c0,0,0-4,0-5c0-2,2-5,2-7s4-7,4-7s12,0,23,0c6,0,14.3,8,14.3,8"/>
	<polyline class="st1" points="-333,5.3 -331,12.3 -331,21.3 	"/>
	<line class="st1" x1="-327" y1="16.3" x2="-325" y2="16.3"/>
	<line class="st1" x1="-341.5" y1="16.3" x2="-339.5" y2="16.3"/>
	<line class="st1" x1="-345" y1="5.3" x2="-346" y2="12.3"/>
	<line class="st1" x1="-346" y1="12.3" x2="-346" y2="16.3"/>
</g>
<g>
	<circle class="st1" cx="-79.2" cy="25.9" r="4.5"/>
	<circle class="st1" cx="-40.2" cy="25.9" r="4.5"/>
	<line class="st1" x1="-45" y1="26.3" x2="-71" y2="26.3"/>
	<path class="st1" d="M-35,26.3c0,0-1,0,1,0c3,0,3-5,3-7c0-1-5-7-15-7h-34c-3,0-7-1-7-1"/>
	<path class="st1" d="M-84,26.3l-5-1c0,0,0-4,0-5c0-2,2-7,2-9s5-9,9-9c1,0,8,0,19,0c8,0,17,10,17,10"/>
	<polyline class="st1" points="-62,2.3 -60,11.3 -60,23.3 	"/>
	<line class="st1" x1="-56" y1="17.3" x2="-54" y2="17.3"/>
	<line class="st1" x1="-71" y1="17.3" x2="-69" y2="17.3"/>
	<line class="st1" x1="-73" y1="2.3" x2="-75" y2="12.3"/>
	<line class="st1" x1="-75" y1="12.3" x2="-75" y2="18.8"/>
</g>
<g>
	<circle class="st1" cx="-259.2" cy="23.9" r="4.5"/>
	<circle class="st1" cx="-220.2" cy="23.9" r="4.5"/>
	<line class="st1" x1="-225" y1="24.3" x2="-251" y2="24.3"/>
	<path class="st1" d="M-215,24.3c0,0-1,0,1,0c3,0,3-5,3-7c0-1-3-5-16-5h-28c-5,0-10-7-10-7"/>
	<path class="st1" d="M-264,24.3l-5-1c0,0,0-4,0-5c0-2,3-6,3-8h6c0,0,5-6,17-6c9,0,18.3,8,18.3,8"/>
	<polyline class="st1" points="-246,9.3 -244,12.3 -244,21.3 	"/>
	<line class="st1" x1="-240" y1="16.3" x2="-237" y2="16.3"/>
</g>
<g>
	<circle class="st1" cx="11.2" cy="26.5" r="4.8"/>
	<circle class="st1" cx="49.1" cy="26.5" r="5.1"/>
	<line class="st1" x1="44" y1="27" x2="20" y2="27"/>
	<path class="st1" d="M55,27c0,0-1,0,1,0c3,0,3-2,3-4s-2-3-2-3s0-2.9,0-4c0-2-8.6-3-15-3H11c-3,0-8-1-8-1"/>
	<path class="st1" d="M6,27l-5-1c0,0,0-4,0-5c0-2,2-6,2-8C3,9,6,3,6,3s19-1,28,0c3,0.3,10,10,10,10"/>
	<polyline class="st1" points="27,3 29,12 29,24 	"/>
	<line class="st1" x1="33" y1="18" x2="35" y2="18"/>
	<line class="st1" x1="18.4" y1="18" x2="20.6" y2="18"/>
	<line class="st1" x1="15" y1="3" x2="14" y2="13"/>
	<line class="st1" x1="12" y1="2" x2="12" y2="1"/>
	<line class="st1" x1="29" y1="2" x2="29" y2="1"/>
	<line class="st1" x1="14" y1="13" x2="14" y2="18.5"/>
</g>
<g>
	<line class="st1" x1="1.5" y1="167.8" x2="58.5" y2="224.8"/>
	<path class="st0" d="M14.5,213.8v4c0,1.1-0.9,2-2,2h-6c-1.1,0-2-0.9-2-2v-4"/>
	<path class="st0" d="M48.4,219.8h-0.9c-1.1,0-2-0.9-2-2"/>
	<line class="st0" x1="55.5" y1="213.8" x2="55.5" y2="216.2"/>
	<path class="st0" d="M55.5,213.8c1.7,0,3-1.3,3-3v-11.4c0-2.3-0.8-4.6-2.3-6.4l-2.7-3.2"/>
	<path class="st0" d="M6.5,189.8L3.8,193c-1.5,1.8-2.3,4.1-2.3,6.4v11.4c0,1.7,1.3,3,3,3"/>
	<line class="st0" x1="9.6" y1="181.6" x2="6.5" y2="189.8"/>
	<path class="st0" d="M53.5,189.8l-4.7-12.3c-1.1-2.8-3.6-4.8-6.5-5.2c-2.3-0.3-7.6-0.6-12.3-0.6s-10,0.2-12.3,0.6
		c-1.6,0.2-3,0.9-4.2,1.9"/>
	<path class="st0" d="M28.2,188.8h19.4l-3.4-8.9c-0.8-2-2.6-3.4-4.7-3.7c-1.7-0.2-6-0.4-9.4-0.4s-7.8,0.2-9.4,0.4
		c-1.3,0.2-2.5,0.8-3.4,1.7"/>
	<polyline class="st0" points="13.7,185.7 12.5,188.8 16.8,188.8 	"/>
	<circle class="st0" cx="10.5" cy="199.3" r="3"/>
	<circle class="st0" cx="49.5" cy="199.3" r="3"/>
	<line class="st0" x1="53.5" y1="189.8" x2="58.5" y2="189.8"/>
	<line class="st0" x1="1.5" y1="189.8" x2="6.5" y2="189.8"/>
	<polyline class="st0" points="30.5,202.8 19.5,202.8 19.5,208.8 36.5,208.8 	"/>
	<path class="st0" d="M20.7,181.4c0.4-0.9,1.3-1.5,2.3-1.5c1.4,0,2.5,1.1,2.5,2.5c0,1-0.6,1.9-1.5,2.3"/>
	<path class="st0" d="M33,188.8c0-2.2,1.8-4,4-4s4,1.8,4,4"/>
	<circle class="st0" cx="37" cy="182.3" r="2.5"/>
	<line class="st0" x1="10.5" y1="213.8" x2="41.5" y2="213.8"/>
</g>
<g>
	<path class="st1" d="M-583.5,387.8c0,3.3,2.7,6,6,6s6-2.7,6-6"/>
	<path class="st1" d="M-583.5,368.8c0-3.3-2.7-6-6-6"/>
	<line class="st1" x1="-583.5" y1="387.8" x2="-583.5" y2="368.8"/>
	<line class="st1" x1="-571.5" y1="387.8" x2="-571.5" y2="361.8"/>
	<circle class="st1" cx="-575" cy="362.3" r="3.5"/>
	<path class="st1" d="M-571.5,362.3c0-5.8-2-8.5-3.5-10.5"/>
	<line class="st0" x1="-584.5" y1="403.8" x2="-571.5" y2="403.8"/>
	<line class="st0" x1="-628.5" y1="403.8" x2="-589.5" y2="403.8"/>
	<g>
		<line class="st0" x1="-620.5" y1="376.8" x2="-620.5" y2="402.8"/>
		<line class="st0" x1="-597.5" y1="402.8" x2="-597.5" y2="376.8"/>
	</g>
	<path class="st0" d="M-599.5,353.8h-19c-0.6,0-1,0.4-1,1v16c0,0.6,0.4,1,1,1h19c0.6,0,1-0.4,1-1v-16
		C-598.5,354.3-598.9,353.8-599.5,353.8z"/>
	<line class="st0" x1="-613.5" y1="359.8" x2="-604.5" y2="359.8"/>
	<line class="st0" x1="-613.5" y1="365.8" x2="-604.5" y2="365.8"/>
	<path class="st0" d="M-597.5,348.8h-23c-2.2,0-4,1.8-4,4v20c0,2.2,1.8,4,4,4h23c2.2,0,4-1.8,4-4v-20
		C-593.5,350.6-595.3,348.8-597.5,348.8z"/>
	<path class="st0" d="M-609,382.8c0,0,5,6.2,5,9c0,2.8-2.2,5-5,5s-5-2.2-5-5c0-1.3,1.1-3.3,2.2-5.1"/>
</g>
<g>
	<line class="st1" x1="-153" y1="371.5" x2="-172" y2="371.5"/>
	<polyline class="st1" points="-167,377.2 -172.7,371.5 -167,365.8 	"/>
	<polyline class="st1" points="-158,365.8 -152.3,371.5 -158,377.2 	"/>
	<circle class="st3" cx="-168.8" cy="389" r="4.8"/>
	<circle class="st3" cx="-129.9" cy="389" r="5.1"/>
	<line class="st3" x1="-135" y1="389.5" x2="-160" y2="389.5"/>
	<path class="st3" d="M-124,389.5c0,0-1,0,1,0s2-2,2-4s-1-3-1-3v0c0-0.7,0-1,0-2c0-2-4-5-4-5"/>
	<path class="st3" d="M-146,365.5h8c4,0,12,10,12,10"/>
	<path class="st3" d="M-142,375.5v-7c0,0,2,0,4,0s8,7,8,7H-142"/>
	<line class="st3" x1="-142" y1="380.5" x2="-139" y2="380.5"/>
	<line class="st3" x1="-126" y1="380.5" x2="-126" y2="381.5"/>
	<line class="st3" x1="-178" y1="384.5" x2="-171" y2="384.5"/>
	<line class="st3" x1="-162" y1="384.5" x2="-147" y2="384.5"/>
	<line class="st3" x1="-146" y1="365.5" x2="-146" y2="384.5"/>
	<path class="st3" d="M-174,389.5l-5-1v-30c0,0,23,0,30,0c1,0,3,0,10,7"/>
</g>
<g>
	<circle class="st1" cx="-614.7" cy="23.4" r="4.5"/>
	<circle class="st1" cx="-582.7" cy="23.4" r="4.5"/>
	<line class="st1" x1="-587.5" y1="23.8" x2="-606.5" y2="23.8"/>
	<path class="st1" d="M-577.5,23.8c0,0-1,0,1,0c3,0,3-5,3-7c0-1-2-5-15-5h-21c-2,0-4-6-4-6"/>
	<path class="st1" d="M-624.5,22.8c0,0,0-4,0-5c0-2,3.5-4.1,4-6c1-4,2-6,2-6s6-1,17-1c5,0,13,7,13,7"/>
	<line class="st1" x1="-619.5" y1="23.8" x2="-626.5" y2="22.8"/>
	<polyline class="st1" points="-605.5,4.8 -603.5,11.8 -603.5,20.8 	"/>
	<line class="st1" x1="-599.5" y1="15.8" x2="-597.5" y2="15.8"/>
</g>
<g>
	<circle class="st1" cx="-529.2" cy="23.9" r="4.5"/>
	<circle class="st1" cx="-490.2" cy="23.9" r="4.5"/>
	<line class="st1" x1="-495" y1="24.3" x2="-521" y2="24.3"/>
	<path class="st1" d="M-485,24.3c0,0-1,0,1,0c3,0,3-5,3-7c0-1-3-5-16-5h-33c-3,0-6-1-6-1"/>
	<path class="st1" d="M-534,24.3l-5-1c0,0,0-4,0-5c0-2,3-5,3-7s3-6,3-6s11-1,22-1c6,0,15.3,8,15.3,8"/>
	<polyline class="st1" points="-519,5.3 -517,12.3 -517,21.3 	"/>
	<line class="st1" x1="-513" y1="16.3" x2="-510" y2="16.3"/>
</g>
<g>
	<circle class="st3" cx="-348.8" cy="115.5" r="4.8"/>
	<circle class="st3" cx="-309.9" cy="115.5" r="5.1"/>
	<line class="st3" x1="-315" y1="116" x2="-340" y2="116"/>
	<path class="st3" d="M-304,116c0,0-1,0,1,0s2-2,2-4s-1-3-1-3v0c0-0.7,0-1,0-2c0-2-4-5-4-5"/>
	<path class="st3" d="M-354,116l-5-1c0,0,0-2.5,0-4c0-0.7,1-1,1-1c0-2,0-6,0-8c0-2.4,0.4-5.5,0.7-7.7c0.2-1.3,1.3-2.3,2.7-2.3h36.7
		c4,0,12,10,12,10"/>
	<path class="st3" d="M-322,102v-7c0,0,2,0,4,0s8,7,8,7H-322"/>
	<line class="st3" x1="-322" y1="107" x2="-319" y2="107"/>
	<line class="st3" x1="-306" y1="107" x2="-306" y2="108"/>
</g>
<g>
	<circle class="st3" cx="-258.8" cy="118" r="4.8"/>
	<circle class="st3" cx="-219.9" cy="118" r="5.1"/>
	<line class="st3" x1="-225" y1="118.5" x2="-250" y2="118.5"/>
	<path class="st3" d="M-214,118.5c0,0-1,0,1,0s2-2,2-4s-1-3-1-3v0c0-0.7,0-1,0-2c0-2-4-5-4-5"/>
	<path class="st3" d="M-264,118.5l-5-1c0,0,0-2.5,0-4c0-0.7,1-1,1-1c0-2,0-8,0-10c0-2.4,0.4-8.5,0.7-10.7c0.2-1.3,1.3-2.3,2.7-2.3
		c0,0,21.7,0,28.7,0c6,0,20,15,20,15"/>
	<path class="st3" d="M-232,104.5v-7c0,0,2,0,4,0c1,0,8,7,8,7H-232"/>
	<line class="st3" x1="-232" y1="109.5" x2="-229" y2="109.5"/>
	<line class="st3" x1="-216" y1="109.5" x2="-216" y2="110.5"/>
</g>
<g>
	<circle class="st3" cx="-438.8" cy="115.5" r="4.8"/>
	<circle class="st3" cx="-399.9" cy="115.5" r="5.1"/>
	<line class="st3" x1="-405" y1="116" x2="-430" y2="116"/>
	<path class="st3" d="M-394,116c0,0-1,0,1,0s2-2,2-4s-1-3-1-3s0-0.9,0-2c0-2-3-4-10-5"/>
	<path class="st3" d="M-444,116l-5-1c0,0,0-3,0-4c0-0.4,1-1,1-1c0-2,0-6,0-8c0-2.4,0.4-5.5,0.7-7.7c0.2-1.3,1.3-2.3,2.7-2.3h24.7
		c7,0,18,10,18,10"/>
	<path class="st3" d="M-422,102v-7c0,0,0,0,2,0c4,0,13,7,13,7H-422"/>
	<line class="st3" x1="-421" y1="107" x2="-418" y2="107"/>
	<line class="st3" x1="-396" y1="107" x2="-396" y2="108"/>
</g>
<g>
	<circle class="st3" cx="-528.8" cy="115.5" r="4.8"/>
	<circle class="st3" cx="-489.9" cy="115.5" r="5.1"/>
	<line class="st3" x1="-495" y1="116" x2="-520" y2="116"/>
	<path class="st3" d="M-484,116c0,0-1,0,1,0s2-2,2-4s-1-3-1-3s0-0.9,0-2c0-2-3-4-10-5"/>
	<path class="st3" d="M-534,116l-5-1c0,0,0-3,0-4c0-0.4,1-1,1-1c0-2,0-2,0-4c0-3,4.8-4.1,6-7c3-7,9-7,9-7h13c7,0,18,10,18,10"/>
	<path class="st3" d="M-515,102v-7c0,0,3,0,5,0c4,0,13,7,13,7H-515"/>
	<line class="st3" x1="-512" y1="107" x2="-509" y2="107"/>
	<line class="st3" x1="-486" y1="107" x2="-486" y2="108"/>
</g>
<g>
	<circle class="st3" cx="-78.8" cy="119" r="4.8"/>
	<circle class="st3" cx="-39.9" cy="119" r="5.1"/>
	<line class="st3" x1="-45" y1="119.5" x2="-70" y2="119.5"/>
	<path class="st3" d="M-34,119.5c0,0-1,0,1,0s2-2,2-4s-1-3-1-3v0c0-0.7,0-1,0-2c0-2-4-5-4-5"/>
	<path class="st3" d="M-56,95.5h8c4,0,12,10,12,10"/>
	<path class="st3" d="M-52,105.5v-7c0,0,2,0,4,0s8,7,8,7H-52"/>
	<line class="st3" x1="-52" y1="110.5" x2="-49" y2="110.5"/>
	<line class="st3" x1="-36" y1="110.5" x2="-36" y2="111.5"/>
	<line class="st3" x1="-88" y1="114.5" x2="-81" y2="114.5"/>
	<line class="st3" x1="-72" y1="114.5" x2="-57" y2="114.5"/>
	<line class="st3" x1="-56" y1="95.5" x2="-56" y2="114.5"/>
	<path class="st3" d="M-84,119.5l-5-1v-30c0,0,23,0,30,0c1,0,3,0,10,7"/>
</g>
<g>
	<circle class="st3" cx="-526.8" cy="205.5" r="4.8"/>
	<circle class="st3" cx="-489.9" cy="205.5" r="5.1"/>
	<line class="st3" x1="-495" y1="206" x2="-518" y2="206"/>
	<path class="st3" d="M-484,206c0,0-1,0,1,0s2-2,2-4s-1-3-1-3v0c0-0.7,0-1,0-2c0-2-4-5-4-5"/>
	<path class="st3" d="M-506,182h8c4,0,12,10,12,10"/>
	<path class="st3" d="M-502,192v-7c0,0,2,0,4,0s8,7,8,7H-502"/>
	<line class="st3" x1="-502" y1="197" x2="-499" y2="197"/>
	<line class="st3" x1="-486" y1="197" x2="-486" y2="198"/>
	<line class="st3" x1="-539" y1="201" x2="-529" y2="201"/>
	<line class="st3" x1="-520" y1="201" x2="-506" y2="201"/>
	<line class="st3" x1="-506" y1="182" x2="-506" y2="201"/>
	<polyline class="st3" points="-539,201 -539,195 -506,195 	"/>
	<polyline class="st3" points="-532,206 -536,205 -536,201 	"/>
</g>
<g>
	<circle class="st3" cx="11.2" cy="115.5" r="4.8"/>
	<circle class="st3" cx="50.1" cy="115.5" r="5.1"/>
	<line class="st3" x1="45" y1="116" x2="20" y2="116"/>
	<path class="st3" d="M56,116c0,0-1,0,1,0s2-2,2-4s-1-3-1-3v0c0-0.7,0-1,0-2c0-2-4-5-4-5"/>
	<path class="st3" d="M6,116l-5-1c0,0,0-2.5,0-4c0-0.7,1-1,1-1c0-2,0-6,0-8c0-2.4,0.4-5.5,0.7-7.7C2.8,93,4,92,5.3,92H42
		c4,0,12,10,12,10"/>
	<path class="st3" d="M38,102v-7c0,0,2,0,4,0s8,7,8,7H38"/>
	<line class="st3" x1="38" y1="107" x2="41" y2="107"/>
	<line class="st3" x1="31" y1="107" x2="34" y2="107"/>
	<line class="st3" x1="54" y1="107" x2="54" y2="108"/>
	<rect x="23" y="95" class="st3" width="11" height="7"/>
	<path class="st3" d="M8,102c2,0,11,0,11,0v-7H9C9,95,8,99,8,102z"/>
</g>
<g>
	<circle class="st3" cx="-436.8" cy="209.5" r="4.8"/>
	<circle class="st3" cx="-399.9" cy="209.5" r="5.1"/>
	<line class="st3" x1="-405" y1="210" x2="-428" y2="210"/>
	<path class="st3" d="M-394,210c0,0-1,0,1,0s2-2,2-4s-1-3-1-3v0c0-0.7,0-1,0-2c0-2-4-5-4-5"/>
	<path class="st3" d="M-416,186h8c4,0,12,10,12,10"/>
	<path class="st3" d="M-412,196v-7c0,0,2,0,4,0s8,7,8,7H-412"/>
	<line class="st3" x1="-412" y1="201" x2="-409" y2="201"/>
	<line class="st3" x1="-396" y1="201" x2="-396" y2="202"/>
	<line class="st3" x1="-449" y1="205" x2="-439" y2="205"/>
	<line class="st3" x1="-430" y1="205" x2="-416" y2="205"/>
	<line class="st3" x1="-416" y1="186" x2="-416" y2="205"/>
	<polyline class="st3" points="-449,205 -449,192 -422,192 -422,178 -399,178 -399,186 	"/>
	<polyline class="st3" points="-442,210 -446,209 -446,205 	"/>
	<line class="st3" x1="-399" y1="186" x2="-409" y2="186"/>
</g>
<g>
	<g>
		<circle class="st3" cx="-618.8" cy="204.5" r="4.8"/>
		<circle class="st3" cx="-580.9" cy="204.5" r="5.1"/>
		<line class="st3" x1="-586" y1="205" x2="-610" y2="205"/>
		<path class="st3" d="M-602,183c0,0,7.8-0.1,9.3,0.1c2.6,0.3,8.7,7.9,8.7,7.9"/>
		<path class="st3" d="M-624,205l-5-1c0,0,0-4,0-5c0-2,1-6,1-8h40c6.4,0,15,2,15,4c0,1.1,0,4,0,4s2,1,2,3s0,3-3,3c-2,0-1,0-1,0"/>
		<polyline class="st3" points="-602,183 -602,188.7 -602,205 		"/>
		<line class="st3" x1="-598" y1="196" x2="-595" y2="196"/>
		<line class="st3" x1="-598" y1="183" x2="-598" y2="190"/>
		<line class="st3" x1="-629" y1="201" x2="-623" y2="201"/>
		<line class="st3" x1="-611" y1="201" x2="-602" y2="201"/>
	</g>
	<line class="st3" x1="-576" y1="196" x2="-576" y2="197"/>
</g>
<g>
	<circle class="st3" cx="-166.5" cy="116.3" r="4.1"/>
	<circle class="st3" cx="-129.6" cy="116.3" r="4.4"/>
	<line class="st3" x1="-133.9" y1="116.7" x2="-158" y2="116.7"/>
	<path class="st3" d="M-124.6,116.7c0,0,0.1,0,1.9,0s1.7-1.7,1.7-3.4s-0.9-2.6-0.9-2.6v0c0-0.6,0-0.9,0-1.7c0-1.7-3.4-4.3-3.4-4.3"
		/>
	<path class="st3" d="M-170.9,116.7l-8.1-0.9c0,0,0-2.1,0-3.4c0-0.6,0.9-0.9,0.9-0.9c0-1.7,0-6.8,0-8.5c0-2.1,0.3-7.3,0.6-9.1
		c0.2-1.1,1.1-2,2.3-2c0,0,27.1,0,33,0c5.1,0,17,12.8,17,12.8"/>
	<path class="st3" d="M-139.9,104.8v-6c0,0,1.7,0,3.4,0c0.9,0,6.8,6,6.8,6H-139.9"/>
	<line class="st3" x1="-139.9" y1="109" x2="-137.3" y2="109"/>
	<line class="st3" x1="-125.3" y1="109" x2="-125.3" y2="109.9"/>
</g>
<g>
	<circle class="st3" cx="-618.8" cy="115.5" r="4.8"/>
	<circle class="st3" cx="-579.9" cy="115.5" r="5.1"/>
	<line class="st3" x1="-585" y1="116" x2="-610" y2="116"/>
	<path class="st3" d="M-574,116c0,0-1,0,1,0s2-2,2-4s-1-3-1-3v0c0-0.7,0-1,0-2c0-2-4-5-4-5"/>
	<path class="st3" d="M-624,116l-5-1c0,0,0-2.5,0-4c0-0.7,1-1,1-1c0-2,0-6,0-8c0-2.4,0.4-5.5,0.7-7.7c0.2-1.3,1.3-2.3,2.7-2.3h36.7
		c4,0,12,10,12,10"/>
	<path class="st3" d="M-592,102v-7c0,0,2,0,4,0s8,7,8,7H-592"/>
	<line class="st3" x1="-592" y1="107" x2="-589" y2="107"/>
	<line class="st3" x1="-606" y1="107" x2="-603" y2="107"/>
	<line class="st3" x1="-576" y1="107" x2="-576" y2="108"/>
	<rect x="-606" y="95" class="st3" width="10" height="7"/>
</g>
<g>
	
		<ellipse transform="matrix(0.7844 -0.6202 0.6202 0.7844 -235.1709 90.0863)" class="st1" cx="12" cy="383.3" rx="10.5" ry="10.5"/>
	<ellipse transform="matrix(0.7844 -0.6202 0.6202 0.7844 -235.1709 90.0863)" class="st1" cx="12" cy="383.3" rx="2.5" ry="2.5"/>
	<circle class="st0" cx="43" cy="363.3" r="2.5"/>
	<circle class="st0" cx="43" cy="355.8" r="0"/>
	<ellipse transform="matrix(0.7071 -0.7071 0.7071 0.7071 -242.1185 131.515)" class="st0" cx="37.7" cy="358" rx="0" ry="0"/>
	<circle class="st0" cx="35.5" cy="363.3" r="0"/>
	<ellipse transform="matrix(0.7071 -0.7071 0.7071 0.7071 -249.6235 134.6237)" class="st0" cx="37.7" cy="368.6" rx="0" ry="0"/>
	<circle class="st0" cx="43" cy="370.8" r="0"/>
	<ellipse transform="matrix(0.7071 -0.7071 0.7071 0.7071 -246.5148 142.1286)" class="st0" cx="48.3" cy="368.6" rx="0" ry="0"/>
	<circle class="st0" cx="50.5" cy="363.3" r="0"/>
	<ellipse transform="matrix(0.7071 -0.7071 0.7071 0.7071 -239.0098 139.02)" class="st0" cx="48.3" cy="358" rx="0" ry="0"/>
	<circle class="st0" cx="43" cy="363.3" r="11.5"/>
	<path class="st1" d="M17.9,386.1c-0.4,0.9-1,1.7-1.9,2.4"/>
	<path class="st1" d="M6.9,387.4c-2.2-2.8-1.7-6.9,1.1-9.1c2.8-2.2,6.9-1.7,9.1,1.1c0.8,1,1.2,2.1,1.4,3.3"/>
	<circle class="st0" cx="52.5" cy="398.8" r="6"/>
	<line class="st0" x1="31.5" y1="352.8" x2="4.5" y2="375.8"/>
	<line class="st0" x1="58.5" y1="362.8" x2="58.5" y2="398.8"/>
	<line class="st0" x1="10.5" y1="393.8" x2="51.5" y2="404.8"/>
	<line class="st0" x1="52.5" y1="398.8" x2="52.5" y2="398.8"/>
	<circle class="st0" cx="43" cy="363.3" r="15.5"/>
	<path class="st0" d="M10.3,393.7c-5-0.8-8.8-5.2-8.8-10.4c0-3,1.3-5.7,3.3-7.6"/>
</g>
<g>
	<polygon class="st0" points="-574.5,487.8 -571.5,487.8 -571.5,457.8 -574.5,457.8 -578.5,468.8 -578.5,481.8 	"/>
	<rect x="-624.5" y="462.8" class="st0" width="5" height="18"/>
	<line class="st0" x1="-628.5" y1="477.8" x2="-628.5" y2="465.8"/>
	<line class="st0" x1="-628.5" y1="471.8" x2="-625.5" y2="471.8"/>
	<line class="st0" x1="-578.5" y1="481.8" x2="-583.5" y2="481.8"/>
	<line class="st0" x1="-578.5" y1="468.8" x2="-583.5" y2="468.8"/>
	<polygon class="st0" points="-619.5,456.8 -619.5,480.8 -614.5,487.8 -587.5,487.8 -583.5,481.8 -583.5,468.8 -586.5,462.8 
		-590.5,462.8 -590.5,456.8 	"/>
	<polyline class="st0" points="-601.5,451.8 -594.5,451.8 -594.5,444.8 -614.5,444.8 -614.5,451.8 -607.5,451.8 	"/>
	<line class="st0" x1="-609.5" y1="451.8" x2="-609.5" y2="456.8"/>
	<line class="st0" x1="-599.5" y1="451.8" x2="-599.5" y2="456.8"/>
	<line class="st0" x1="-590.5" y1="462.8" x2="-590.5" y2="468.8"/>
	<line class="st0" x1="-590.5" y1="472.8" x2="-590.5" y2="475.8"/>
	<polyline class="st1" points="-607.5,462.8 -600.5,462.8 -603.5,469.8 -597.5,469.8 -606.5,482.8 -604.5,472.8 -611.5,472.8 
		-608.7,465.8 	"/>
</g>
<g>
	<circle class="st0" cx="-60" cy="376.3" r="28.5"/>
	<circle class="st0" cx="-60" cy="376.3" r="22.5"/>
	<path class="st0" d="M-55.5,394.3c-1.4,0.4-2.9,0.5-4.5,0.5c-1.5,0-3.1-0.2-4.5-0.5"/>
	<path class="st0" d="M-43.3,368.4c1.2,2.4,1.8,5.1,1.8,8c0,0.9-0.1,1.7-0.2,2.6"/>
	<path class="st0" d="M-37.7,379c-0.8-0.1-1.5-0.2-2.3-0.2c-8.6,0-15.5,6.9-15.5,15.5c0,1.4,0.2,2.7,0.5,3.9"/>
	<path class="st0" d="M-65,398.3c0.3-1.3,0.5-2.6,0.5-3.9c0-8.6-6.9-15.5-15.5-15.5c-0.8,0-1.6,0.1-2.3,0.2"/>
	<path class="st0" d="M-81.7,370.3c6.3-2.8,13.7-4.4,21.7-4.4s15.4,1.6,21.7,4.4"/>
	<circle class="st1" cx="-60" cy="376.3" r="4.5"/>
	<path class="st0" d="M-78.3,378.8c-0.1-0.8-0.2-1.6-0.2-2.5c0-2.9,0.6-5.6,1.8-8"/>
</g>
<g>
	<g>
		<circle class="st3" cx="-529.2" cy="485.4" r="4.5"/>
		<circle class="st3" cx="-490.2" cy="485.4" r="4.5"/>
		<line class="st3" x1="-495" y1="485.8" x2="-521" y2="485.8"/>
		<path class="st3" d="M-485,485.8c0,0-1,0,1,0c3,0,3-5,3-7c0-1-3-5-16-5h-33c-3,0-7-1-7-1"/>
		<path class="st3" d="M-534,485.8l-5-1c0,0,0-4,0-5c0-2,2-5,2-7s4-7,4-7s12,0,23,0c6,0,14.3,8,14.3,8"/>
		<polyline class="st3" points="-513,466.8 -511,473.8 -511,482.8 		"/>
		<line class="st3" x1="-507" y1="477.8" x2="-505" y2="477.8"/>
		<line class="st3" x1="-521.5" y1="477.8" x2="-519.5" y2="477.8"/>
		<line class="st3" x1="-525" y1="466.8" x2="-526" y2="473.8"/>
		<line class="st3" x1="-526" y1="473.8" x2="-526" y2="477.8"/>
	</g>
	<circle class="st1" cx="-531.3" cy="456.1" r="4.8"/>
	<circle class="st1" cx="-512.3" cy="456.1" r="4.8"/>
	<line class="st1" x1="-531.3" y1="456.1" x2="-523" y2="456.1"/>
	<line class="st1" x1="-525.4" y1="448.9" x2="-531.3" y2="456.1"/>
	<line class="st1" x1="-523" y1="456.1" x2="-526.6" y2="445.3"/>
	<line class="st1" x1="-512.3" y1="456.1" x2="-515.8" y2="444.2"/>
	<line class="st1" x1="-523" y1="456.1" x2="-515.8" y2="447.7"/>
	<line class="st1" x1="-525.4" y1="448.9" x2="-515.8" y2="447.7"/>
	<line class="st1" x1="-530.1" y1="444.2" x2="-524.2" y2="445.3"/>
	<line class="st1" x1="-515.8" y1="444.2" x2="-513.5" y2="442.8"/>
	<line class="st3" x1="-512" y1="463.8" x2="-512" y2="465.8"/>
	<line class="st3" x1="-531" y1="463.8" x2="-531" y2="465.8"/>
</g>
<g>
	<path class="st0" d="M-437.5,486.8v5c0,1.1-0.9,2-2,2h-4c-1.1,0-2-0.9-2-2v-5"/>
	<line class="st0" x1="-440.5" y1="486.8" x2="-422.1" y2="486.8"/>
	<path class="st0" d="M-445.5,486.8c-1.7,0-3-1.3-3-3v-8.5c0-1.9,0.2-3.9,0.6-5.8l5.3-25.5c0.6-3.1,3.4-5.3,6.5-5.3h15.6"/>
	<path class="st0" d="M-394,465.2l-4.4-21.1c-0.6-3.1-3.4-5.3-6.5-5.3h-15.6"/>
	<line class="st0" x1="-448.5" y1="458.8" x2="-446.5" y2="458.8"/>
	<line class="st0" x1="-394.5" y1="458.8" x2="-392.5" y2="458.8"/>
	<path class="st0" d="M-422.5,472.8c-3,0-8-1-8-1l1.2,4.3c0.5,1.6,1.9,2.7,3.6,2.7h2.2"/>
	<circle class="st0" cx="-429" cy="455.3" r="2.5"/>
	<path class="st0" d="M-415,461.8c0-2.2,1.8-4,4-4s4,1.8,4,4"/>
	<path class="st0" d="M-433,461.8c0-2.2,1.8-4,4-4s4,1.8,4,4"/>
	<circle class="st0" cx="-411" cy="455.3" r="2.5"/>
	<circle class="st1" cx="-405.5" cy="479.8" r="14"/>
	<g>
		<line class="st1" x1="-405.5" y1="483.8" x2="-405.5" y2="480.8"/>
		<line class="st1" x1="-405.5" y1="487.8" x2="-405.5" y2="487.8"/>
		<path class="st1" d="M-405.5,472.8c2.2,0,4,1.8,4,4s-1.8,4-4,4"/>
		<path class="st1" d="M-408.7,474.4c0.7-0.9,1.9-1.6,3.2-1.6"/>
	</g>
	<path class="st0" d="M-447.5,467.8c0,0,2,2,10,3v1.7c0,1.3-1,2.3-2.3,2.3h-7.7"/>
	<path class="st0" d="M-400.5,461.8h-40l2.4-12c0.3-1.7,1.9-3,3.6-3h28c1.8,0,3.3,1.2,3.6,3L-400.5,461.8z"/>
	<line class="st0" x1="-423.5" y1="482.8" x2="-444.5" y2="482.8"/>
	<line class="st0" x1="-422.5" y1="449.8" x2="-417.5" y2="449.8"/>
</g>
<g>
	<path class="st0" d="M-525.5,572.3v5c0,1.1-0.9,2-2,2h-6c-1.1,0-2-0.9-2-2v-5"/>
	<path class="st0" d="M-482.2,554.3c-0.4-1-0.9-1.9-1.6-2.8l-2.7-3.2"/>
	<line class="st0" x1="-529.5" y1="572.3" x2="-509.1" y2="572.3"/>
	<path class="st0" d="M-533.5,548.3l-2.7,3.2c-1.5,1.8-2.3,4.1-2.3,6.4v11.4c0,1.7,1.3,3,3,3"/>
	<path class="st0" d="M-486.5,548.3l-4.7-12.3c-1.1-2.8-3.6-4.8-6.5-5.2c-2.3-0.3-7.6-0.6-12.3-0.6s-10,0.2-12.3,0.6
		c-3,0.4-5.5,2.4-6.5,5.2l-4.7,12.3"/>
	<path class="st0" d="M-491.1,548.3l-3.6-9.5c-0.8-2.2-2.8-3.7-5.1-4c-1.8-0.2-6.5-0.4-10.2-0.4c-3.7,0-8.4,0.2-10.2,0.4
		c-2.3,0.3-4.2,1.8-5.1,4l-3.6,9.5H-491.1z"/>
	<circle class="st0" cx="-529.5" cy="557.8" r="3"/>
	<line class="st0" x1="-486.5" y1="548.3" x2="-481.5" y2="548.3"/>
	<line class="st0" x1="-538.5" y1="548.3" x2="-533.5" y2="548.3"/>
	<polyline class="st0" points="-509.5,561.3 -520.5,561.3 -520.5,567.3 -509.5,567.3 	"/>
	<circle class="st0" cx="-517" cy="540.8" r="2.5"/>
	<path class="st0" d="M-507,547.3c0-2.2,1.8-4,4-4s4,1.8,4,4"/>
	<path class="st0" d="M-521,547.3c0-2.2,1.8-4,4-4s4,1.8,4,4"/>
	<circle class="st0" cx="-503" cy="540.8" r="2.5"/>
	<g>
		<g>
			<g>
				<path class="st1" d="M-505.5,559.4v7.6c0,3.5,1.2,6.8,3.5,9.8c2.3,2.9,5.1,4.8,8.5,5.6c3.4-0.8,6.2-2.7,8.5-5.6
					c2.3-2.9,3.5-6.2,3.5-9.8v-7.6l-12-5.1L-505.5,559.4z"/>
			</g>
		</g>
	</g>
	<line class="st1" x1="-495.5" y1="574.3" x2="-491.5" y2="574.3"/>
	<polyline class="st1" points="-493.5,574.3 -493.5,566.3 -495.5,566.3 	"/>
	<line class="st1" x1="-493.5" y1="562.3" x2="-493.5" y2="562.3"/>
</g>
<g>
	<path class="st1" d="M-41.2,456.6l-14.3-14.3c-1.8-1.8-4.7-1.8-6.5,0c0,0,0,0,0,0l-25.2,25.2c-1.8,1.8-1.8,4.7,0,6.5c0,0,0,0,0,0
		l7.7,7.7"/>
	<path class="st0" d="M-72.6,460.5h38.1c1.6,0,2.9,1.3,2.9,2.9v25.2c0,1.6-1.3,2.9-2.9,2.9h-38.1c-1.6,0-2.9-1.3-2.9-2.9v-25.2
		C-75.5,461.9-74.2,460.5-72.6,460.5z"/>
	<line class="st0" x1="-75.5" y1="467.2" x2="-31.5" y2="467.2"/>
	<line class="st0" x1="-75.5" y1="473.4" x2="-31.5" y2="473.4"/>
	<line class="st0" x1="-69.1" y1="479.9" x2="-60.5" y2="479.9"/>
	<line class="st0" x1="-69.1" y1="486.1" x2="-63.7" y2="486.1"/>
	<line class="st0" x1="-56.2" y1="479.9" x2="-50.8" y2="479.9"/>
	<line class="st1" x1="-53.5" y1="444.4" x2="-66" y2="456.9"/>
	<line class="st1" x1="-79" y1="469.9" x2="-84.5" y2="475.4"/>
	<line class="st1" x1="-49.5" y1="448.4" x2="-58" y2="456.9"/>
	<line class="st1" x1="-79.5" y1="478.4" x2="-81" y2="479.9"/>
</g>
<g>
	<path class="st0" d="M-435.9,527.9c-1.1,0-2.2,0.2-3.3,0.4l5.8,5.8l-0.1,8.7l-8.7,0.1l-5.8-5.8c-0.3,1-0.4,2.1-0.4,3.3
		c0,6.9,5.6,12.5,12.5,12.5s12.5-5.6,12.5-12.5S-429,527.9-435.9,527.9z"/>
	<g>
		<path class="st0" d="M-424.4,545.9l31.5,31.5c1.7,1.7,1.7,4.3,0,6l0,0c-1.7,1.7-4.3,1.7-6,0l-31.5-31.5"/>
	</g>
	<line class="st0" x1="-396.3" y1="579.9" x2="-396.3" y2="579.9"/>
	<path class="st1" d="M-419.8,544.9c6.4,0,11.5,5.1,11.5,11.5"/>
	<path class="st1" d="M-419.8,567.9c-6.4,0-11.5-5.1-11.5-11.5"/>
	<path class="st1" d="M-400.9,564.3c0.5-1.2,0.9-2.5,1.2-3.8l4.4-0.8v-6.5l-4.4-0.8c-0.5-2.6-1.6-5.1-3-7.2l2.6-3.7l-4.6-4.6
		l-3.7,2.6c-2.2-1.4-4.6-2.5-7.2-3l-0.8-4.4h-5.5"/>
	<path class="st1" d="M-444.3,554.2v5.5l4.4,0.8c0.5,2.6,1.6,5.1,3,7.2l-2.6,3.7l4.6,4.6l3.7-2.6c2.2,1.4,4.6,2.5,7.2,3l0.8,4.4h6.5
		l0.8-4.4c1.2-0.2,2.4-0.6,3.5-1.1"/>
</g>
<g>
	<g>
		<circle class="st3" cx="27.1" cy="481.3" r="6"/>
		<path class="st3" d="M27.1,478.9c1.4,0,2.5,1.1,2.5,2.5s-1.1,2.5-2.5,2.5s-2.5-1.1-2.5-2.5"/>
		<line class="st3" x1="20.7" y1="481.9" x2="1.6" y2="481.9"/>
		<path class="st3" d="M34.2,481.9c0,0-1.3,0,1.3,0c4,0,4-6.7,4-9.4c0-1.3-2.7-6.7-20.2-6.7H1.6"/>
		<path class="st3" d="M1.4,454.9c6.7,0,15.6,10.8,15.6,10.8"/>
		<line class="st3" x1="1.8" y1="471.1" x2="5.8" y2="471.1"/>
	</g>
	<line class="st3" x1="1.6" y1="478.3" x2="21.6" y2="478.3"/>
	<line class="st3" x1="32.6" y1="478.3" x2="38.6" y2="478.3"/>
	<path class="st3" d="M36.6,469.3h-3.5c-0.8,0-1.5,0.7-1.5,1.5l0,0c0,0.8,0.7,1.5,1.5,1.5h6.5"/>
	<path class="st3" d="M36.6,451.3c-1.1-0.7-7.2-1.3-16.4,13.7"/>
	<line class="st3" x1="11.6" y1="460.3" x2="9.6" y2="465.3"/>
	<circle class="st1" cx="56.1" cy="447.8" r="2.5"/>
	<path class="st1" d="M45.2,464.9c1,2,3,3.4,5.4,3.4c3.3,0,6-2.7,6-6s-2.7-6-6-6c-2.6,0-4.9,1.7-5.7,4"/>
	<path class="st1" d="M51.6,456.4C51.6,456.4,51.6,456.3,51.6,456.4c0-3.4-2.7-6.1-6-6.1s-6,2.7-6,6c0,1.4,0.5,2.7,1.3,3.7
		c-1.3,0.5-2.3,1.8-2.3,3.3c0,1.9,1.6,3.5,3.5,3.5c1.4,0,2.5-0.8,3.1-1.9c1,2,3,3.4,5.4,3.4c3.3,0,6-2.7,6-6
		C56.6,459.3,54.4,456.9,51.6,456.4z"/>
</g>
<g>
	<path class="st0" d="M-243.3,447.8c0-1.8,1.5-3.2,3.2-3.2c1.8,0,3.2,1.5,3.2,3.2"/>
	<path class="st0" d="M-236.8,463.3c0-1.8,1.5-3.2,3.2-3.2s3.2,1.5,3.2,3.2"/>
	<path class="st0" d="M-248.5,467.6c0-2.9,2.3-5.2,5.2-5.2"/>
	<path class="st0" d="M-230.4,464.6c0-1.8,1.5-3.2,3.2-3.2s3.2,1.5,3.2,3.2"/>
	<path class="st0" d="M-223.9,467.2c0-1.8,1.5-3.2,3.2-3.2s3.2,1.5,3.2,3.2"/>
	<line class="st0" x1="-243.3" y1="447.8" x2="-243.3" y2="471.8"/>
	<line class="st0" x1="-236.8" y1="447.8" x2="-236.8" y2="466.6"/>
	<line class="st0" x1="-230.4" y1="463.3" x2="-230.4" y2="466.6"/>
	<line class="st0" x1="-223.9" y1="464.6" x2="-223.9" y2="468.5"/>
	<path class="st0" d="M-248.5,476.3c0,8.6,7,15.6,15.6,15.6s15.6-7,15.6-15.6"/>
	<path class="st0" d="M-217.4,472.2c0,2.8,0,3.7,0,3.7S-217.4,475-217.4,472.2c0-2.8,0-5,0-5S-217.4,469.4-217.4,472.2z"/>
	<line class="st0" x1="-248.5" y1="467.6" x2="-248.5" y2="476.4"/>
	<circle class="st1" cx="-261" cy="448.3" r="7.5"/>
	<circle class="st1" cx="-219" cy="448.3" r="7.5"/>
	<path class="st1" d="M-246.9,451.3c-0.4-0.9-0.6-1.9-0.6-2.9c0-1,0.2-2,0.6-2.9c0.4-0.9,0.9-1.7,1.6-2.4s1.5-1.2,2.4-1.6
		c0.9-0.4,1.9-0.6,2.9-0.6s2,0.2,2.9,0.6c0.9,0.4,1.7,0.9,2.4,1.6s1.2,1.5,1.6,2.4c0.4,0.9,0.6,1.9,0.6,2.9c0,1-0.2,2-0.6,2.9"/>
</g>
<g>
	<polyline class="st0" points="-155.5,472.5 -155.5,494.5 -174.5,481.5 -174.5,473.5 	"/>
	<polygon class="st0" points="-159.5,483.5 -178.5,470.5 -174.5,459.5 -155.5,472.5 	"/>
	<polyline class="st0" points="-125.5,472.5 -125.5,481.5 -155.5,494.5 -155.5,472.5 	"/>
	<polygon class="st0" points="-121.5,470.5 -151.5,483.5 -155.5,472.5 -125.5,459.5 	"/>
	<path class="st1" d="M-155.4,467.5c0.8-7.9,6-16.2,12.4-19.3c6.7-3.2,12.1,0.6,12.5,8.4"/>
	<path class="st1" d="M-148.7,464.5c0.6-3.4,2.9-6.8,5.7-8.1c2.9-1.4,5.3,0.1,5.7,3.2"/>
	<line class="st1" x1="-148.1" y1="439.5" x2="-135.5" y2="447.5"/>
	<g>
		<polyline class="st1" points="-154.7,438.8 -153,441.7 -149.7,442 -148,444.9 -144.6,445.2 -142.9,448.1 		"/>
	</g>
	<g>
		<polyline class="st1" points="-166.7,452.8 -165,455.7 -161.7,456 -160,458.9 -156.6,459.2 -154.9,462.1 		"/>
	</g>
	<g>
		<polyline class="st1" points="-162.7,443.8 -161,446.7 -157.7,447 -156,449.9 -152.6,450.2 -150.9,453.1 		"/>
	</g>
	<path class="st1" d="M-169,458.3c0.7-7.8,5.9-16,12.2-19c3.4-1.6,6.4-1.4,8.7,0.2"/>
</g>
<g>
	<path class="st0" d="M-305.5,535.2h-34"/>
	<path class="st0" d="M-339.1,535.2h-15.4c-2.2,0-4,1.8-4,4v43.9h57v-43.9c0-2.2-1.8-4-4-4l0,0"/>
	<line class="st0" x1="-358.5" y1="577.6" x2="-301.5" y2="577.6"/>
	<path class="st0" d="M-350.5,535.2c0-3.1,2.6-5.7,5.7-5.7c3.1,0,5.7,2.6,5.7,5.7s-2.6,5.7-5.7,5.7"/>
	<path class="st0" d="M-320.9,535.2c0-3.1,2.6-5.7,5.7-5.7c3.1,0,5.7,2.6,5.7,5.7s-2.6,5.7-5.7,5.7"/>
	<circle class="st1" cx="-330" cy="550.8" r="2.3"/>
	<circle class="st1" cx="-320.9" cy="550.8" r="2.3"/>
	<circle class="st1" cx="-311.8" cy="550.8" r="2.3"/>
	<circle class="st1" cx="-330" cy="559.9" r="2.3"/>
	<circle class="st1" cx="-320.9" cy="559.9" r="2.3"/>
	<circle class="st1" cx="-311.8" cy="559.9" r="2.3"/>
	<circle class="st1" cx="-348.2" cy="559.9" r="2.3"/>
	<circle class="st1" cx="-339.1" cy="559.9" r="2.3"/>
	<circle class="st1" cx="-330" cy="569" r="2.3"/>
	<circle class="st1" cx="-320.9" cy="569" r="2.3"/>
	<circle class="st1" cx="-348.2" cy="569" r="2.3"/>
	<circle class="st1" cx="-339.1" cy="569" r="2.3"/>
	<line class="st1" x1="-313.5" y1="566.8" x2="-309.5" y2="570.8"/>
	<line class="st1" x1="-309.5" y1="566.8" x2="-313.5" y2="570.8"/>
</g>
<g>
	<path class="st0" d="M-332.6,464.2c1.1-0.5,1.9-1.5,2.1-2.7c1.4-6.3,1.6-12.8,0.8-19.2c-0.2-1.8-1.5-3.2-3.2-3.5
		c-7.4-1.5-15-1.5-22.4,0c-1.7,0.3-2.9,1.7-3.2,3.4c-1.1,6.5-0.8,13.1,0.9,19.5c0.3,1.1,1,2,2.1,2.5c0,0,4.4,2.2,11.3,2.2
		C-337.3,466.4-332.6,464.2-332.6,464.2z"/>
	<path class="st0" d="M-349.1,466.3l-0.1,23.7l5,5l5.2-5l0-23.7"/>
	<circle class="st0" cx="-344.1" cy="447.4" r="3"/>
	<line class="st0" x1="-345.1" y1="487.4" x2="-345.1" y2="466.4"/>
	<path class="st1" d="M-325.8,446.5l17,17c1.6,1.6,1.6,4.1,0,5.7l-10.1,10.1c-1.5,1.5-4,1.6-5.5,0.1l-10-10.2"/>
	<path class="st1" d="M-306.6,461.3c2.8,2.8,2.8,7.3,0,10.1"/>
	<path class="st1" d="M-304.1,458.8c4.2,4.2,4.2,10.9,0,15.1"/>
	
		<rect x="-322.7" y="466.4" transform="matrix(0.7071 -0.7071 0.7071 0.7071 -424.6469 -88.5604)" class="st1" width="6.9" height="3.8"/>
	<path class="st1" d="M-324.5,466.6c-1-1-1-2.6,0-3.5s2.6-1,3.5,0"/>
	<line class="st1" x1="-324.5" y1="466.6" x2="-323" y2="468"/>
	<line class="st1" x1="-321.3" y1="452" x2="-325.3" y2="456"/>
</g>
<g>
	<line class="st0" x1="-628" y1="560.3" x2="-622" y2="560.3"/>
	<line class="st0" x1="-624.6" y1="574.1" x2="-622.8" y2="573.1"/>
	<line class="st0" x1="-576.9" y1="575" x2="-578.7" y2="574"/>
	<line class="st0" x1="-573" y1="561.3" x2="-579" y2="561.3"/>
	<line class="st0" x1="-576.4" y1="547.5" x2="-578.2" y2="548.5"/>
	<line class="st0" x1="-600" y1="533.3" x2="-600" y2="539.3"/>
	<line class="st0" x1="-613.8" y1="536.8" x2="-612.8" y2="538.5"/>
	<line class="st0" x1="-624.1" y1="546.6" x2="-622.3" y2="547.6"/>
	<path class="st1" d="M-588.1,540.3L-588.1,540.3c-0.6-0.4-1.4-0.2-1.8,0.3l-13.9,16.7c-2,2.4-1.3,6,1.5,7.6h0
		c2.8,1.6,6.3,0.4,7.4-2.5l7.5-20.4C-587.2,541.4-587.5,540.6-588.1,540.3z"/>
	<g>
		<path class="st0" d="M-572,560.3c0-15.5-12.5-28-28-28s-28,12.5-28,28c0,7.8,3.2,14.9,8.4,20h39.2
			C-575.2,575.2-572,568.2-572,560.3z"/>
	</g>
	<line class="st0" x1="-610" y1="571.3" x2="-610" y2="574.3"/>
	<line class="st0" x1="-605" y1="571.3" x2="-605" y2="574.3"/>
	<line class="st0" x1="-600" y1="571.3" x2="-600" y2="574.3"/>
	<line class="st0" x1="-595" y1="571.3" x2="-595" y2="574.3"/>
	<line class="st0" x1="-590" y1="573.3" x2="-590" y2="574.3"/>
</g>
</svg>
