<?xml version="1.0" encoding="utf-8"?>
<!-- Generator: Adobe Illustrator 21.1.0, SVG Export Plug-In . SVG Version: 6.00 Build 0)  -->
<svg version="1.1" id="Layer_1" xmlns="http://www.w3.org/2000/svg" xmlns:xlink="http://www.w3.org/1999/xlink" x="0px" y="0px"
	 viewBox="0 0 55 50" style="enable-background:new 0 0 55 50;" xml:space="preserve">
<style type="text/css">
	.st0{fill:none;stroke:#33414E;stroke-width:1.8333;stroke-linecap:round;stroke-linejoin:round;}
	.st1{fill:none;stroke:#BA0C2F;stroke-width:1.8333;stroke-linecap:round;stroke-linejoin:round;}
</style>
<g>
	<circle class="st0" cx="9.9" cy="19.4" r="4.1"/>
	<circle class="st0" cx="45.6" cy="19.4" r="4.1"/>
	<line class="st0" x1="41.2" y1="19.9" x2="17.4" y2="19.9"/>
	<path class="st0" d="M50.3,19.9c0,0-0.9,0,0.9,0c2.7,0,2.7-4.6,2.7-6.4c0-0.9-2.7-4.6-14.6-4.6H15.6c-2.7,0-4.7-2.7-4.7-2.7"/>
	<path class="st0" d="M5.6,19.9L1,18.9c0,0,0-3.7,0-4.6C1,12.6,3.7,8,3.7,6.2h6.4c0,0,1.8-4.6,14.6-4.6c8.2,0,15.8,7.3,15.8,7.3"/>
	<polyline class="st0" points="24.8,2.5 26.6,8.9 26.6,17.1 	"/>
	<line class="st0" x1="30.2" y1="12.6" x2="32.1" y2="12.6"/>
	<line class="st0" x1="18.4" y1="12.6" x2="20.2" y2="12.6"/>
	<line class="st0" x1="14.7" y1="3" x2="14.7" y2="13.6"/>
</g>
<g>
	<circle class="st1" cx="9.9" cy="43.4" r="4.1"/>
	<circle class="st1" cx="45.6" cy="43.4" r="4.1"/>
	<line class="st1" x1="41.2" y1="43.9" x2="17.4" y2="43.9"/>
	<path class="st1" d="M50.3,43.9c0,0-0.9,0,0.9,0c2.7,0,2.7-4.6,2.7-6.4c0-0.9-2.7-4.6-14.6-4.6H15.6c-2.7,0-4.7-2.7-4.7-2.7"/>
	<path class="st1" d="M5.6,43.9L1,42.9c0,0,0-3.7,0-4.6c0-1.8,2.7-6.4,2.7-8.2h6.4c0,0,1.8-4.6,14.6-4.6c8.2,0,15.8,7.3,15.8,7.3"/>
	<polyline class="st1" points="24.8,26.5 26.6,32.9 26.6,41.1 	"/>
	<line class="st1" x1="30.2" y1="36.6" x2="32.1" y2="36.6"/>
	<line class="st1" x1="18.4" y1="36.6" x2="20.2" y2="36.6"/>
	<line class="st1" x1="14.7" y1="27" x2="14.7" y2="37.6"/>
</g>
</svg>
