<?xml version="1.0" encoding="utf-8"?>
<!-- Generator: Adobe Illustrator 21.1.0, SVG Export Plug-In . SVG Version: 6.00 Build 0)  -->
<svg version="1.1" id="Layer_1" xmlns="http://www.w3.org/2000/svg" xmlns:xlink="http://www.w3.org/1999/xlink" x="0px" y="0px"
	 viewBox="0 0 55 50" style="enable-background:new 0 0 55 50;" xml:space="preserve">
<style type="text/css">
	.st0{fill:none;stroke:#33414E;stroke-width:1.8333;stroke-linecap:round;stroke-linejoin:round;}
	.st1{fill:none;stroke:#BA0C2F;stroke-width:1.8333;stroke-linecap:round;stroke-linejoin:round;}
</style>
<g>
	<circle class="st0" cx="9.9" cy="17.9" r="4.1"/>
	<circle class="st0" cx="45.3" cy="17.9" r="4.1"/>
	<line class="st0" x1="41" y1="18.4" x2="17.4" y2="18.4"/>
	<path class="st0" d="M50.1,18.4c0,0-0.9,0,0.9,0c2.7,0,2.7-4.5,2.7-6.4c0-0.9-2.7-4.5-14.5-4.5H15.5C11.9,7.5,7.4,2,7.4,2"/>
	<path class="st0" d="M32.9,1c3.9,2.1,8.4,6.5,8.4,6.5"/>
	<path class="st0" d="M5.5,18.4L1,17.5c0,0,0-3.6,0-4.5c0-1.8,2.7-5.5,2.7-7.3H11"/>
	<polyline class="st0" points="21.9,4.7 23.7,7.5 23.7,15.6 	"/>
	<line class="st0" x1="27.4" y1="11.1" x2="30.1" y2="11.1"/>
</g>
<g>
	<circle class="st1" cx="9.9" cy="40.9" r="4.1"/>
	<circle class="st1" cx="45.3" cy="40.9" r="4.1"/>
	<line class="st1" x1="41" y1="41.4" x2="17.4" y2="41.4"/>
	<path class="st1" d="M50.1,41.4c0,0-0.9,0,0.9,0c2.7,0,2.7-4.5,2.7-6.4c0-0.9-2.7-4.5-14.5-4.5H15.5c-3.6,0-8.2-5.5-8.2-5.5"/>
	<path class="st1" d="M32.9,24c3.9,2.1,8.4,6.5,8.4,6.5"/>
	<path class="st1" d="M5.5,41.4L1,40.5c0,0,0-3.6,0-4.5c0-1.8,2.7-5.5,2.7-7.3H11"/>
	<polyline class="st1" points="21.9,27.7 23.7,30.5 23.7,38.6 	"/>
	<line class="st1" x1="27.4" y1="34.1" x2="30.1" y2="34.1"/>
</g>
</svg>
