<?xml version="1.0" encoding="utf-8"?>
<!-- Generator: Adobe Illustrator 21.1.0, SVG Export Plug-In . SVG Version: 6.00 Build 0)  -->
<svg version="1.1" id="Layer_1" xmlns="http://www.w3.org/2000/svg" xmlns:xlink="http://www.w3.org/1999/xlink" x="0px" y="0px"
	 viewBox="0 0 60 60" style="enable-background:new 0 0 60 60;" xml:space="preserve">
<style type="text/css">
	.st0{fill:none;stroke:#000000;stroke-width:2;stroke-linecap:round;stroke-linejoin:round;stroke-miterlimit:10;}
	.st1{fill:none;stroke:#BA0C2F;stroke-width:2;stroke-linecap:round;stroke-linejoin:round;stroke-miterlimit:10;}
	.st2{fill:#BA0C2F;}
	.st3{fill:none;stroke:#000000;stroke-width:2;stroke-linecap:round;stroke-linejoin:round;}
</style>
<g>
	<path class="st0" d="M-82,23.4c0-12.2,9.8-22,22-22s22,9.8,22,22"/>
	<path class="st0" d="M-37.8,40.4c0,8.8-7.2,16-16,16"/>
	<rect x="-40.5" y="23.9" class="st0" width="5" height="15.5"/>
	<rect x="-84.5" y="23.9" class="st0" width="5" height="15.5"/>
	<path class="st0" d="M-56.7,58.6h-6.5c-1.2,0-2.3-1-2.3-2.2v0c0-1.2,1-2.2,2.3-2.2h6.5c1.2,0,2.2,1,2.2,2.2v0
		C-54.5,57.6-55.5,58.6-56.7,58.6z"/>
	<path class="st1" d="M-68.8,39.4c0,4.8,3.9,8.8,8.8,8.8s8.8-3.9,8.8-8.8H-68.8z"/>
	<path class="st0" d="M-35.5,35.6c2.2,0,4-1.8,4-4s-1.8-4-4-4V35.6z"/>
	<path class="st0" d="M-84.5,27.6c-2.2,0-4,1.8-4,4s1.8,4,4,4V27.6z"/>
	<path class="st1" d="M-63.5,32.4c0-1.7-1.3-3-3-3s-3,1.3-3,3"/>
	<path class="st1" d="M-50.5,32.4c0-1.7-1.3-3-3-3c-1.7,0-3,1.3-3,3"/>
	<path class="st1" d="M-75.5,25.4c5,0,11-8,8-17c3,9,8,18,23,16"/>
</g>
<g>
	<path class="st0" d="M15.5,41.5v-38c0-1.1,0.9-2,2-2h39c1.1,0,2,0.9,2,2v46c0,5-4,9-9,9h-39c-5,0-9-4-9-9v-2c0-1.1,0.9-2,2-2h39
		c1.1,0,2,0.9,2,2v1c0,5,5,6,5,6"/>
	<line class="st1" x1="32.5" y1="11.5" x2="51.5" y2="11.5"/>
	<line class="st1" x1="22.5" y1="11.5" x2="26.5" y2="11.5"/>
	<line class="st1" x1="47.5" y1="22.5" x2="51.5" y2="22.5"/>
	<line class="st1" x1="22.5" y1="22.5" x2="41.5" y2="22.5"/>
	<line class="st1" x1="37.5" y1="33.5" x2="51.5" y2="33.5"/>
	<line class="st1" x1="22.5" y1="33.5" x2="31.5" y2="33.5"/>
	<circle class="st1" cx="29.5" cy="11.5" r="3"/>
	<circle class="st1" cx="44.5" cy="22.5" r="3"/>
	<circle class="st1" cx="34.5" cy="33.5" r="3"/>
</g>
<g>
	<path class="st0" d="M224.5,106.5c-0.6-0.4-1.2-0.7-1.8-1"/>
	<path class="st0" d="M233.4,116.5c-0.7-1.8-1.7-3.5-2.9-5"/>
	<path class="st0" d="M226.5,137.2c3.2-2.3,5.6-5.3,6.9-8.7"/>
	<path class="st0" d="M197.8,140.2c3.5,1.5,7.5,2.3,11.7,2.3c4.5,0,8.8-1,12.5-2.7"/>
	<path class="st0" d="M196.3,105.5c-7.1,3.5-11.8,9.8-11.8,17c0,6.2,3.5,11.7,9,15.4"/>
	<path class="st1" d="M219,109.3c-2.8-1.3-6-2-9.5-2s-6.7,0.7-9.5,2"/>
	<polyline class="st0" points="233.5,116.5 238.5,116.5 238.5,128.5 233.5,128.5 	"/>
	<path class="st0" d="M184.5,122.5L184.5,122.5c-1.7,0-3-1.3-3-3v-4"/>
	<path class="st1" d="M203.2,108.1c-2-1.7-3.2-4.3-3.2-7.1c0-5.2,4.3-9.5,9.5-9.5s9.5,4.3,9.5,9.5c0,2.9-1.3,5.4-3.2,7.1"/>
	<polyline class="st0" points="193.5,137.9 193.5,148.5 200.5,148.5 201.1,141.3 	"/>
	<polyline class="st0" points="218.9,141 219.5,148.5 226.5,148.5 226.5,137.2 	"/>
	<polyline class="st0" points="224.5,106.5 231,103 230.5,111.5 	"/>
	<path class="st0" d="M223,116.1c0-1.4,1.1-2.5,2.5-2.5s2.5,1.1,2.5,2.5"/>
	<path class="st1" d="M207.5,98.5c0-1.1,0.9-2,2-2"/>
	<line class="st1" x1="207.5" y1="98.5" x2="207.5" y2="103.5"/>
	<line class="st1" x1="206.5" y1="103.5" x2="211.5" y2="103.5"/>
	<line class="st1" x1="207.5" y1="99.5" x2="209.5" y2="99.5"/>
</g>
<g>
	<path class="st1" d="M-136.5,40c0-1.1,0.9-2,2-2"/>
	<line class="st1" x1="-136.5" y1="40" x2="-136.5" y2="45"/>
	<line class="st1" x1="-137.5" y1="45" x2="-132.5" y2="45"/>
	<line class="st1" x1="-136.5" y1="41" x2="-134.5" y2="41"/>
	<g>
		<path class="st1" d="M-135.5,56c-3.9,0-7.4-1.6-9.9-4.1c-2.5-2.5-4.1-6-4.1-9.9s1.6-7.4,4.1-9.9"/>
		<path class="st1" d="M-135.5,28c3.9,0,7.4,1.6,9.9,4.1c2.5,2.5,4.1,6,4.1,9.9s-1.6,7.4-4.1,9.9"/>
		<polyline class="st1" points="-149.5,31 -143.6,31 -143.6,36.9 		"/>
		<polyline class="st1" points="-121.5,53 -127.4,53 -127.4,47.1 		"/>
	</g>
	<path class="st0" d="M-165.5,46v5c0,1.1-0.9,2-2,2h-6c-1.1,0-2-0.9-2-2v-5"/>
	<path class="st0" d="M-121.5,31.6c0-2.3-0.8-4.6-2.3-6.4l-2.7-3.2"/>
	<line class="st0" x1="-169.5" y1="46" x2="-153.1" y2="46"/>
	<path class="st0" d="M-173.5,22l-2.7,3.2c-1.5,1.8-2.3,4.1-2.3,6.4V43c0,1.7,1.3,3,3,3"/>
	<path class="st0" d="M-126.5,22l-4.7-12.3c-1.1-2.8-3.6-4.8-6.5-5.2C-140,4.2-145.3,4-150,4s-10,0.2-12.3,0.6
		c-3,0.4-5.5,2.4-6.5,5.2l-4.7,12.3"/>
	<path class="st0" d="M-131.1,22l-3.6-9.5c-0.8-2.2-2.8-3.7-5.1-4C-141.6,8.2-146.3,8-150,8s-8.4,0.2-10.2,0.4
		c-2.3,0.3-4.2,1.8-5.1,4l-3.6,9.5H-131.1z"/>
	<circle class="st0" cx="-169.5" cy="31.5" r="3"/>
	<line class="st0" x1="-126.5" y1="22" x2="-121.5" y2="22"/>
	<line class="st0" x1="-178.5" y1="22" x2="-173.5" y2="22"/>
	<polyline class="st0" points="-152.5,35 -160.5,35 -160.5,41 -154.5,41 	"/>
	<circle class="st0" cx="-157" cy="14.5" r="2.5"/>
	<path class="st0" d="M-147,21c0-2.2,1.8-4,4-4s4,1.8,4,4"/>
	<path class="st0" d="M-161,21c0-2.2,1.8-4,4-4s4,1.8,4,4"/>
	<circle class="st0" cx="-143" cy="14.5" r="2.5"/>
</g>
<g>
	<path class="st0" d="M-435.5,136v5c0,1.1-0.9,2-2,2h-6c-1.1,0-2-0.9-2-2v-5"/>
	<path class="st0" d="M-391.5,121.6c0-2.3-0.8-4.6-2.3-6.4l-2.7-3.2"/>
	<line class="st0" x1="-439.5" y1="136" x2="-423.1" y2="136"/>
	<path class="st0" d="M-443.5,112l-2.7,3.2c-1.5,1.8-2.3,4.1-2.3,6.4V133c0,1.7,1.3,3,3,3"/>
	<path class="st0" d="M-396.5,112l-4.7-12.3c-1.1-2.8-3.6-4.8-6.5-5.2c-2.3-0.3-7.6-0.6-12.3-0.6s-10,0.2-12.3,0.6
		c-3,0.4-5.5,2.4-6.5,5.2l-4.7,12.3"/>
	<path class="st0" d="M-401.1,112l-3.6-9.5c-0.8-2.2-2.8-3.7-5.1-4c-1.8-0.2-6.5-0.4-10.2-0.4s-8.4,0.2-10.2,0.4
		c-2.3,0.3-4.2,1.8-5.1,4l-3.6,9.5H-401.1z"/>
	<circle class="st0" cx="-439.5" cy="121.5" r="3"/>
	<line class="st0" x1="-396.5" y1="112" x2="-391.5" y2="112"/>
	<line class="st0" x1="-448.5" y1="112" x2="-443.5" y2="112"/>
	<polyline class="st0" points="-422.5,125 -430.5,125 -430.5,131 -424.5,131 	"/>
	<circle class="st0" cx="-427" cy="104.5" r="2.5"/>
	<path class="st0" d="M-417,111c0-2.2,1.8-4,4-4s4,1.8,4,4"/>
	<path class="st0" d="M-431,111c0-2.2,1.8-4,4-4s4,1.8,4,4"/>
	<circle class="st0" cx="-413" cy="104.5" r="2.5"/>
	<circle class="st1" cx="-405.5" cy="132" r="14"/>
	<g>
		<line class="st1" x1="-405.5" y1="136" x2="-405.5" y2="133"/>
		<line class="st1" x1="-405.5" y1="140" x2="-405.5" y2="140"/>
		<path class="st1" d="M-405.5,125c2.2,0,4,1.8,4,4s-1.8,4-4,4"/>
		<path class="st1" d="M-408.7,126.6c0.7-0.9,1.9-1.6,3.2-1.6"/>
	</g>
</g>
<g>
	<g>
		<path class="st1" d="M118,20.7c0-1.4,1.1-2.5,2.5-2.5"/>
		<line class="st1" x1="118" y1="20.7" x2="118" y2="26.9"/>
		<line class="st1" x1="116.8" y1="26.9" x2="123" y2="26.9"/>
		<line class="st1" x1="118" y1="22" x2="120.5" y2="22"/>
	</g>
	<line class="st0" x1="110.5" y1="5.5" x2="138.5" y2="5.5"/>
	<line class="st0" x1="102.5" y1="5.5" x2="104.5" y2="5.5"/>
	<path class="st0" d="M124.5,45.5v7l1,0h2c3.3,0,6,2.7,6,6v0h-27v0c0-3.3,2.7-6,6-6h2l1,0v-8l0-2.5c-8.1-2-14.1-9.4-14.1-18.1V1.5
		h37.3v22.4c0,10.3-8.3,18.6-18.6,18.6"/>
	<line class="st0" x1="148.5" y1="10.5" x2="139.5" y2="10.5"/>
	<path class="st0" d="M148.5,10.5c0,0,0,5,0,7c0,4-2,10-10,11"/>
	<path class="st0" d="M101.5,28.5c-8-1-10-7-10-11c0-2,0-7,0-7h9"/>
	<path class="st1" d="M121.4,10.9l0.6,0.6c0.5,0.5,1.2,0.7,1.9,0.5l0.8-0.2c1.1-0.3,2.2,0.3,2.5,1.4l0.2,0.8
		c0.2,0.7,0.7,1.2,1.4,1.4l0.8,0.2c1.1,0.3,1.7,1.4,1.4,2.5l-0.2,0.8c-0.2,0.7,0,1.4,0.5,1.9l0.6,0.6c0.8,0.8,0.8,2.1,0,2.8
		l-0.6,0.6c-0.5,0.5-0.7,1.2-0.5,1.9l0.2,0.8c0.3,1.1-0.3,2.2-1.4,2.5l-0.8,0.2c-0.7,0.2-1.2,0.7-1.4,1.4l-0.2,0.8
		c-0.3,1.1-1.4,1.7-2.5,1.4l-0.8-0.2c-0.7-0.2-1.4,0-1.9,0.5l-0.6,0.6c-0.8,0.8-2.1,0.8-2.8,0l-0.6-0.6c-0.5-0.5-1.2-0.7-1.9-0.5
		l-0.8,0.2c-1.1,0.3-2.2-0.3-2.5-1.4l-0.2-0.8c-0.2-0.7-0.7-1.2-1.4-1.4l-0.8-0.2c-1.1-0.3-1.7-1.4-1.4-2.5l0.2-0.8
		c0.2-0.7,0-1.4-0.5-1.9l-0.6-0.6c-0.8-0.8-0.8-2.1,0-2.8l0.6-0.6c0.5-0.5,0.7-1.2,0.5-1.9l-0.2-0.8c-0.3-1.1,0.3-2.2,1.4-2.5
		l0.8-0.2c0.7-0.2,1.2-0.7,1.4-1.4l0.2-0.8c0.3-1.1,1.4-1.7,2.5-1.4l0.8,0.2c0.7,0.2,1.4,0,1.9-0.5l0.6-0.6
		C119.4,10.1,120.6,10.1,121.4,10.9z"/>
</g>
<g>
	<g>
		<path d="M-330,239.5c-13.8,0-25-11.2-25-25s11.2-25,25-25s25,11.2,25,25S-316.2,239.5-330,239.5z M-330,191.5
			c-12.7,0-23,10.3-23,23s10.3,23,23,23s23-10.3,23-23S-317.3,191.5-330,191.5z"/>
	</g>
	<g>
		<path d="M-330,196.5c-0.3,0-0.5-0.1-0.7-0.3c-0.2-0.2-0.3-0.5-0.3-0.7c0-0.3,0.1-0.5,0.3-0.7c0.4-0.4,1-0.4,1.4,0
			c0.2,0.2,0.3,0.4,0.3,0.7c0,0.3-0.1,0.5-0.3,0.7C-329.5,196.4-329.7,196.5-330,196.5z"/>
	</g>
	<g>
		<path d="M-339.5,199c-0.1,0-0.3,0-0.4-0.1c-0.1,0-0.2-0.1-0.3-0.2c-0.2-0.2-0.3-0.4-0.3-0.7c0-0.3,0.1-0.5,0.3-0.7
			c0.1-0.1,0.2-0.2,0.3-0.2c0.4-0.1,0.8-0.1,1.1,0.2c0.2,0.2,0.3,0.4,0.3,0.7c0,0.3-0.1,0.5-0.3,0.7C-339,198.9-339.2,199-339.5,199
			z"/>
	</g>
	<g>
		<path d="M-346.5,206c-0.3,0-0.5-0.1-0.7-0.3c-0.2-0.2-0.3-0.5-0.3-0.7c0-0.3,0.1-0.5,0.3-0.7c0.4-0.4,1-0.4,1.4,0
			c0.2,0.2,0.3,0.4,0.3,0.7c0,0.3-0.1,0.5-0.3,0.7C-345.9,205.9-346.2,206-346.5,206z"/>
	</g>
	<g>
		<path d="M-349,215.5c-0.3,0-0.5-0.1-0.7-0.3c-0.2-0.2-0.3-0.5-0.3-0.7c0-0.1,0-0.3,0.1-0.4c0.1-0.1,0.1-0.2,0.2-0.3
			c0.4-0.4,1-0.4,1.4,0c0.1,0.1,0.2,0.2,0.2,0.3c0.1,0.1,0.1,0.3,0.1,0.4c0,0.3-0.1,0.5-0.3,0.7C-348.5,215.4-348.7,215.5-349,215.5
			z"/>
	</g>
	<g>
		<path d="M-346.5,225c-0.1,0-0.3,0-0.4-0.1c-0.1-0.1-0.2-0.1-0.3-0.2c-0.1-0.1-0.2-0.2-0.2-0.3c0-0.1-0.1-0.3-0.1-0.4
			c0-0.1,0-0.3,0.1-0.4c0.1-0.1,0.1-0.2,0.2-0.3c0.1-0.1,0.2-0.2,0.3-0.2c0.4-0.2,0.8-0.1,1.1,0.2c0.1,0.1,0.2,0.2,0.2,0.3
			c0.1,0.1,0.1,0.3,0.1,0.4c0,0.1,0,0.3-0.1,0.4c0,0.1-0.1,0.2-0.2,0.3C-345.9,224.9-346.2,225-346.5,225z"/>
	</g>
	<g>
		<path d="M-339.5,232c-0.1,0-0.3,0-0.4-0.1c-0.1-0.1-0.2-0.1-0.3-0.2c-0.1-0.1-0.2-0.2-0.2-0.3c0-0.1-0.1-0.3-0.1-0.4
			c0-0.3,0.1-0.5,0.3-0.7c0.1-0.1,0.2-0.2,0.3-0.2c0.2-0.1,0.5-0.1,0.8,0c0.1,0,0.2,0.1,0.3,0.2c0.2,0.2,0.3,0.4,0.3,0.7
			c0,0.1,0,0.3-0.1,0.4c-0.1,0.1-0.1,0.2-0.2,0.3c-0.1,0.1-0.2,0.2-0.3,0.2C-339.2,231.9-339.4,232-339.5,232z"/>
	</g>
	<g>
		<path d="M-330,234.5c-0.3,0-0.5-0.1-0.7-0.3c-0.1-0.1-0.2-0.2-0.2-0.3c0-0.1-0.1-0.3-0.1-0.4c0-0.1,0-0.1,0-0.2
			c0-0.1,0-0.1,0.1-0.2c0-0.1,0.1-0.1,0.1-0.2c0-0.1,0.1-0.1,0.1-0.1c0.3-0.3,0.7-0.4,1.1-0.2c0.1,0.1,0.2,0.1,0.3,0.2
			c0.2,0.2,0.3,0.4,0.3,0.7c0,0.1,0,0.3-0.1,0.4c-0.1,0.1-0.1,0.2-0.2,0.3c-0.1,0.1-0.2,0.2-0.3,0.2
			C-329.7,234.5-329.9,234.5-330,234.5z"/>
	</g>
	<g>
		<path d="M-320.5,232c-0.1,0-0.3,0-0.4-0.1c-0.1-0.1-0.2-0.1-0.3-0.2c-0.1-0.1-0.2-0.2-0.2-0.3c0-0.1-0.1-0.3-0.1-0.4
			c0-0.3,0.1-0.5,0.3-0.7c0.1-0.1,0.2-0.2,0.3-0.2c0.2-0.1,0.4-0.1,0.6-0.1c0.1,0,0.1,0,0.2,0.1c0.1,0,0.1,0.1,0.2,0.1
			c0,0,0.1,0.1,0.1,0.1c0.2,0.2,0.3,0.4,0.3,0.7c0,0.1,0,0.3-0.1,0.4c-0.1,0.1-0.1,0.2-0.2,0.3C-320,231.8-320.2,232-320.5,232z"/>
	</g>
	<g>
		<path d="M-313.6,225c-0.1,0-0.3,0-0.4-0.1c-0.1-0.1-0.2-0.1-0.3-0.2c-0.1-0.1-0.2-0.2-0.2-0.3s-0.1-0.3-0.1-0.4
			c0-0.1,0-0.3,0.1-0.4c0-0.1,0.1-0.2,0.2-0.3c0.1-0.1,0.2-0.2,0.3-0.2c0.4-0.2,0.8-0.1,1.1,0.2c0.1,0.1,0.2,0.2,0.2,0.3
			c0,0.1,0.1,0.3,0.1,0.4c0,0.1,0,0.3-0.1,0.4c-0.1,0.1-0.1,0.2-0.2,0.3C-313,224.9-313.3,225-313.6,225z"/>
	</g>
	<g>
		<path d="M-311,215.5c-0.1,0-0.3,0-0.4-0.1c-0.1-0.1-0.2-0.1-0.3-0.2c-0.2-0.2-0.3-0.5-0.3-0.7c0-0.1,0-0.3,0.1-0.4
			c0.1-0.1,0.1-0.2,0.2-0.3c0.1-0.1,0.2-0.2,0.3-0.2c0.4-0.2,0.8-0.1,1.1,0.2c0.1,0.1,0.2,0.2,0.2,0.3c0.1,0.1,0.1,0.3,0.1,0.4
			c0,0.3-0.1,0.5-0.3,0.7C-310.5,215.4-310.7,215.5-311,215.5z"/>
	</g>
	<g>
		<path d="M-313.6,206c-0.3,0-0.5-0.1-0.7-0.3c-0.2-0.2-0.3-0.5-0.3-0.7c0-0.3,0.1-0.5,0.3-0.7c0.4-0.4,1-0.4,1.4,0
			c0.2,0.2,0.3,0.4,0.3,0.7c0,0.3-0.1,0.5-0.3,0.7C-313,205.9-313.3,206-313.6,206z"/>
	</g>
	<g>
		<path d="M-322,187.5h-16c-0.6,0-1-0.4-1-1v-5c0-0.6,0.4-1,1-1h16c0.6,0,1,0.4,1,1v5C-321,187.1-321.4,187.5-322,187.5z
			 M-337,185.5h14v-3h-14V185.5z"/>
	</g>
	<g>
		<path d="M-334,191.5c-0.6,0-1-0.4-1-1v-4c0-0.6,0.4-1,1-1s1,0.4,1,1v4C-333,191.1-333.4,191.5-334,191.5z"/>
	</g>
	<g>
		<path d="M-326,191.5c-0.6,0-1-0.4-1-1v-4c0-0.6,0.4-1,1-1s1,0.4,1,1v4C-325,191.1-325.4,191.5-326,191.5z"/>
	</g>
	<g>
		<path d="M-307.5,198c-0.3,0-0.5-0.1-0.7-0.3l-7-7c-0.4-0.4-0.4-1,0-1.4s1-0.4,1.4,0l7,7c0.4,0.4,0.4,1,0,1.4
			C-307,197.9-307.2,198-307.5,198z"/>
	</g>
	<g>
		<path d="M-352.5,198c-0.3,0-0.5-0.1-0.7-0.3c-0.4-0.4-0.4-1,0-1.4l7-7c0.4-0.4,1-0.4,1.4,0s0.4,1,0,1.4l-7,7
			C-352,197.9-352.2,198-352.5,198z"/>
	</g>
	<g>
		<path class="st2" d="M-329.9,219.5c-0.9,0-1.8-0.2-2.6-0.7c-1.3-0.8-2.3-2.1-2.5-3.6c-0.3-1.5,0.1-3.1,1.1-4.3l11.7-14.1
			c0.7-0.8,1.8-1,2.8-0.5c0.9,0.5,1.3,1.7,0.9,2.7l-6.4,17.2c-0.5,1.4-1.7,2.6-3.1,3.1C-328.7,219.4-329.3,219.5-329.9,219.5z
			 M-320.6,198c-0.1,0-0.1,0-0.1,0.1l-11.7,14.2c-0.6,0.7-0.9,1.7-0.7,2.6s0.7,1.7,1.6,2.2c0.8,0.5,1.8,0.6,2.7,0.2
			c0.9-0.3,1.6-1,1.9-1.9l6.4-17.2C-320.4,198.2-320.4,198.1-320.6,198C-320.5,198-320.6,198-320.6,198z"/>
	</g>
</g>
<g>
	<path class="st0" d="M-255.5,136v5c0,1.1-0.9,2-2,2h-6c-1.1,0-2-0.9-2-2v-5"/>
	<path class="st0" d="M-212.2,118c-0.4-1-0.9-1.9-1.6-2.8l-2.7-3.2"/>
	<line class="st0" x1="-259.5" y1="136" x2="-239.1" y2="136"/>
	<path class="st0" d="M-263.5,112l-2.7,3.2c-1.5,1.8-2.3,4.1-2.3,6.4V133c0,1.7,1.3,3,3,3"/>
	<path class="st0" d="M-216.5,112l-4.7-12.3c-1.1-2.8-3.6-4.8-6.5-5.2c-2.3-0.3-7.6-0.6-12.3-0.6s-10,0.2-12.3,0.6
		c-3,0.4-5.5,2.4-6.5,5.2l-4.7,12.3"/>
	<path class="st0" d="M-221.1,112l-3.6-9.5c-0.8-2.2-2.8-3.7-5.1-4c-1.8-0.2-6.5-0.4-10.2-0.4s-8.4,0.2-10.2,0.4
		c-2.3,0.3-4.2,1.8-5.1,4l-3.6,9.5H-221.1z"/>
	<circle class="st0" cx="-259.5" cy="121.5" r="3"/>
	<line class="st0" x1="-216.5" y1="112" x2="-211.5" y2="112"/>
	<line class="st0" x1="-268.5" y1="112" x2="-263.5" y2="112"/>
	<polyline class="st0" points="-239.5,125 -250.5,125 -250.5,131 -239.5,131 	"/>
	<circle class="st0" cx="-247" cy="104.5" r="2.5"/>
	<path class="st0" d="M-237,111c0-2.2,1.8-4,4-4s4,1.8,4,4"/>
	<path class="st0" d="M-251,111c0-2.2,1.8-4,4-4s4,1.8,4,4"/>
	<circle class="st0" cx="-233" cy="104.5" r="2.5"/>
	<g>
		<g>
			<g>
				<path class="st1" d="M-234.5,123.9v7.3c0,3.4,1.1,6.6,3.3,9.4c2.2,2.8,4.9,4.6,8.2,5.4c3.2-0.8,6-2.6,8.2-5.4
					c2.2-2.8,3.3-6,3.3-9.4v-7.3L-223,119L-234.5,123.9z"/>
			</g>
		</g>
	</g>
	<polyline class="st1" points="-227.5,133 -223.5,136 -217.5,129 	"/>
</g>
<g>
	<path class="st1" d="M111.2,134.8c2.6-2.2,5.9-7.8,1.5-13.3c-5.6-7-21-10-21-10s1.1,14.1,6.6,21
		C102.7,138.1,108.8,136.8,111.2,134.8z"/>
	<path class="st0" d="M115.6,148.5c0,0,2.9-8.1,10-16c9-10,13-26,13-32"/>
	<path class="st0" d="M125.5,132c7.5,5,16.4,0.6,20.2-6.5c9-17-7-34-8-34c-3,7-13.5,14-17,21C116.6,120.5,118.6,127.5,125.5,132z"/>
	<g>
		<path class="st1" d="M97.6,117.5c17,18,19,22,19,22"/>
		<path class="st1" d="M111.2,134.8c2.6-2.2,5.9-7.8,1.5-13.3c-5.6-7-21-10-21-10s1.1,14.1,6.6,21
			C102.7,138.1,108.8,136.8,111.2,134.8z"/>
		<path class="st0" d="M115.6,148.5c0,0,2.9-8.1,10-16c9-10,13-26,13-32"/>
		<path class="st0" d="M125.5,132c7.5,5,16.4,0.6,20.2-6.5c9-17-7-34-8-34c-3,7-13.5,14-17,21C116.6,120.5,118.6,127.5,125.5,132z"
			/>
	</g>
</g>
<g>
	<circle class="st1" cx="-84" cy="99" r="4"/>
	<path class="st1" d="M-84,103v13c0,2.2,1.8,4,4,4h8"/>
	<circle class="st0" cx="-68" cy="99" r="4"/>
	<circle class="st0" cx="-52" cy="99" r="4"/>
	<circle class="st0" cx="-36" cy="99" r="4"/>
	<circle class="st0" cx="-68" cy="141" r="4"/>
	<circle class="st0" cx="-52" cy="141" r="4"/>
	<circle class="st0" cx="-36" cy="141" r="4"/>
	<line class="st0" x1="-68" y1="103" x2="-68" y2="137"/>
	<line class="st0" x1="-52" y1="103" x2="-52" y2="137"/>
	<line class="st0" x1="-36" y1="103" x2="-36" y2="137"/>
	<line class="st0" x1="-36" y1="120" x2="-68" y2="120"/>
</g>
<g>
	<path class="st0" d="M-122,127.8c0-15.5-12.5-28-28-28s-28,12.5-28,28"/>
	<g>
		<polyline class="st0" points="-174,140.2 -178,140.2 -178,133.5 -174,133.5 		"/>
		<line class="st0" x1="-178" y1="136.8" x2="-175" y2="136.8"/>
	</g>
	<g>
		<polyline class="st0" points="-126,139.2 -126,132.5 -122,132.5 		"/>
		<line class="st0" x1="-126" y1="135.8" x2="-123" y2="135.8"/>
	</g>
	<line class="st0" x1="-150" y1="99.8" x2="-150" y2="105.8"/>
	<path class="st1" d="M-139.1,107.8L-139.1,107.8c-0.6-0.4-1.4-0.2-1.8,0.3l-13.9,16.7c-2,2.4-1.3,6,1.5,7.6v0
		c2.8,1.6,6.3,0.4,7.4-2.5l7.5-20.4C-138.2,108.9-138.5,108.1-139.1,107.8z"/>
	<line class="st0" x1="-122" y1="127.8" x2="-128" y2="127.8"/>
	<line class="st0" x1="-178" y1="127.8" x2="-172" y2="127.8"/>
	<line class="st0" x1="-178" y1="127.8" x2="-176" y2="127.8"/>
	<line class="st0" x1="-174.1" y1="114.2" x2="-172.3" y2="115.2"/>
	<line class="st0" x1="-163.8" y1="104.3" x2="-162.8" y2="106"/>
	<line class="st0" x1="-126.4" y1="115" x2="-128.2" y2="116"/>
</g>
<g>
	<path class="st1" d="M36.6,108c0,3.9-2,10-7,10s-7-6.1-7-10s3.1-7,7-7S36.6,104.1,36.6,108z"/>
	<path class="st1" d="M15.6,139c0-9.4,5-17,14-17s14,7.6,14,17"/>
	<path class="st0" d="M53.3,111c0,2.9-1.5,7.5-5.3,7.5s-5.3-4.6-5.3-7.5s2.4-5.3,5.3-5.3S53.3,108.1,53.3,111z"/>
	<path class="st0" d="M42.4,123.2c1.5-1.1,3.4-1.7,5.7-1.7c6.8,0,10.5,5.7,10.5,12.8"/>
	<path class="st0" d="M6.7,111c0,2.9,1.5,7.5,5.2,7.5s5.3-4.6,5.3-7.5s-2.4-5.3-5.3-5.3S6.7,108.1,6.7,111z"/>
	<path class="st0" d="M17.6,123.2c-1.5-1.1-3.4-1.7-5.7-1.7c-6.7,0-10.5,5.7-10.5,12.8"/>
	<line class="st1" x1="22.2" y1="124.2" x2="29.3" y2="131.2"/>
	<line class="st1" x1="32.8" y1="134.8" x2="36.6" y2="139"/>
	<rect x="28.6" y="131" transform="matrix(0.7071 0.7071 -0.7071 0.7071 103.1485 16.9774)" class="st1" width="5" height="4"/>
</g>
<g>
	<path class="st0" d="M-345.5,138v4c0,1.1-0.9,2-2,2h-6c-1.1,0-2-0.9-2-2v-4"/>
	<path class="st0" d="M-304.5,138v4c0,1.1-0.9,2-2,2h-6c-1.1,0-2-0.9-2-2v-4"/>
	<path class="st0" d="M-304.5,138c1.7,0,3-1.3,3-3v-11.4c0-2.3-0.8-4.6-2.3-6.4l-2.7-3.2"/>
	<path class="st0" d="M-353.5,114l-2.7,3.2c-1.5,1.8-2.3,4.1-2.3,6.4V135c0,1.7,1.3,3,3,3"/>
	<path class="st0" d="M-306.5,114l-4.7-12.3c-1.1-2.8-3.6-4.8-6.5-5.2c-2.3-0.3-7.6-0.6-12.3-0.6s-10,0.2-12.3,0.6
		c-3,0.4-5.5,2.4-6.5,5.2l-4.7,12.3"/>
	<path class="st0" d="M-312.5,113l-3.4-8.9c-0.8-2-2.6-3.4-4.7-3.7c-1.7-0.2-6-0.4-9.4-0.4s-7.8,0.2-9.4,0.4
		c-2.1,0.3-3.9,1.7-4.7,3.7l-3.4,8.9H-312.5z"/>
	<circle class="st0" cx="-349.5" cy="123.5" r="3"/>
	<circle class="st0" cx="-310.5" cy="123.5" r="3"/>
	<line class="st0" x1="-306.5" y1="114" x2="-301.5" y2="114"/>
	<line class="st0" x1="-358.5" y1="114" x2="-353.5" y2="114"/>
	<rect x="-340.5" y="127" class="st0" width="21" height="6"/>
	<circle class="st0" cx="-337" cy="106.5" r="2.5"/>
	<path class="st0" d="M-327,113c0-2.2,1.8-4,4-4s4,1.8,4,4"/>
	<path class="st0" d="M-341,113c0-2.2,1.8-4,4-4s4,1.8,4,4"/>
	<circle class="st0" cx="-323" cy="106.5" r="2.5"/>
	<line class="st0" x1="-349.5" y1="138" x2="-310.5" y2="138"/>
</g>
<g>
	<polygon class="st0" points="-216,238.5 -264,238.5 -256,202.5 -224,202.5 	"/>
	<circle class="st1" cx="-240" cy="187.5" r="6"/>
	<line class="st1" x1="-240" y1="190.5" x2="-240" y2="198.5"/>
	<line class="st0" x1="-250" y1="214.5" x2="-250" y2="226.5"/>
	<line class="st0" x1="-242" y1="214.5" x2="-250" y2="222"/>
	<line class="st0" x1="-242" y1="226.5" x2="-247" y2="219.8"/>
	<path class="st0" d="M-230,223.5c0,1.7-1.3,3-3,3h-2c-1.7,0-3-1.3-3-3v-6c0-1.7,1.3-3,3-3h2c1.7,0,3,1.3,3,3"/>
	<polyline class="st0" points="-232,221.5 -230,221.5 -230,223.5 	"/>
</g>
<g>
	<line class="st1" x1="-45.5" y1="183" x2="-45.5" y2="232"/>
	<polyline class="st1" points="-39.8,227 -45.5,232.7 -51.2,227 	"/>
	<polyline class="st1" points="-51.2,188 -45.5,182.3 -39.8,188 	"/>
	<path class="st0" d="M-60.5,233v-51h-16c-2.2,0-4,1.8-4,4v52h41"/>
	<line class="st0" x1="-60.5" y1="210" x2="-73.5" y2="210"/>
	<line class="st0" x1="-60.5" y1="203" x2="-67.5" y2="203"/>
	<line class="st0" x1="-60.5" y1="196" x2="-67.5" y2="196"/>
	<line class="st0" x1="-60.5" y1="189" x2="-67.5" y2="189"/>
	<line class="st0" x1="-60.5" y1="231" x2="-67.5" y2="231"/>
	<line class="st0" x1="-60.5" y1="224" x2="-67.5" y2="224"/>
	<line class="st0" x1="-60.5" y1="217" x2="-67.5" y2="217"/>
</g>
<g>
	<line class="st1" x1="-128" y1="222.5" x2="-172" y2="222.5"/>
	<polyline class="st1" points="-167,228.2 -172.7,222.5 -167,216.8 	"/>
	<polyline class="st1" points="-133,216.8 -127.3,222.5 -133,228.2 	"/>
	<path class="st0" d="M-122,206.5v-16c0-2.2-1.8-4-4-4h-48c-2.2,0-4,1.8-4,4v16"/>
	<line class="st0" x1="-150" y1="206.5" x2="-150" y2="193.5"/>
	<line class="st0" x1="-143" y1="206.5" x2="-143" y2="199.5"/>
	<line class="st0" x1="-136" y1="206.5" x2="-136" y2="199.5"/>
	<line class="st0" x1="-129" y1="206.5" x2="-129" y2="199.5"/>
	<line class="st0" x1="-171" y1="206.5" x2="-171" y2="199.5"/>
	<line class="st0" x1="-164" y1="206.5" x2="-164" y2="199.5"/>
	<line class="st0" x1="-157" y1="206.5" x2="-157" y2="199.5"/>
	<line class="st0" x1="-178" y1="206.5" x2="-122" y2="206.5"/>
	<line class="st0" x1="-122" y1="211.5" x2="-122" y2="215.5"/>
	<line class="st0" x1="-178" y1="211.5" x2="-178" y2="215.5"/>
	<line class="st0" x1="-122" y1="220.5" x2="-122" y2="224.5"/>
	<line class="st0" x1="-178" y1="220.5" x2="-178" y2="224.5"/>
	<line class="st0" x1="-122" y1="229.5" x2="-122" y2="233.5"/>
	<line class="st0" x1="-178" y1="229.5" x2="-178" y2="233.5"/>
</g>
<g>
	<circle class="st3" cx="10.8" cy="-142.9" r="4.5"/>
	<circle class="st3" cx="49.8" cy="-142.9" r="4.5"/>
	<line class="st3" x1="45" y1="-142.4" x2="19" y2="-142.4"/>
	<path class="st3" d="M55-142.4c0,0-1,0,1,0c3,0,3-5,3-7c0-1-3-5-16-5H17c-4,0-9-6-9-6"/>
	<path class="st3" d="M36.1-161.6c4.3,2.3,9.2,7.1,9.2,7.1"/>
	<path class="st3" d="M6-142.4l-5-1c0,0,0-4,0-5c0-2,3-6,3-8h8"/>
	<polyline class="st3" points="24,-157.4 26,-154.4 26,-145.4 	"/>
	<line class="st3" x1="30" y1="-150.4" x2="33" y2="-150.4"/>
</g>
<g>
	<circle class="st3" cx="-259.2" cy="-142.5" r="4.5"/>
	<circle class="st3" cx="-220.2" cy="-142.5" r="4.5"/>
	<line class="st3" x1="-225" y1="-142" x2="-251" y2="-142"/>
	<path class="st3" d="M-215-142c0,0-1,0,1,0c3,0,3-5,3-7c0-1-3-5-16-5h-26c-3,0-5.2-3-5.2-3"/>
	<path class="st3" d="M-264-142l-5-1c0,0,0-4,0-5c0-2,3-7,3-9h7c0,0,2-5,16-5c9,0,17.3,8,17.3,8"/>
	<polyline class="st3" points="-243,-161 -241,-154 -241,-145 	"/>
	<line class="st3" x1="-237" y1="-150" x2="-235" y2="-150"/>
	<line class="st3" x1="-250" y1="-150" x2="-248" y2="-150"/>
	<line class="st3" x1="-254" y1="-160.5" x2="-254" y2="-148.8"/>
</g>
<g>
	<circle class="st3" cx="-169.2" cy="-142.5" r="4.5"/>
	<circle class="st3" cx="-130.2" cy="-142.5" r="4.5"/>
	<line class="st3" x1="-135" y1="-142" x2="-161" y2="-142"/>
	<path class="st3" d="M-125-142c0,0-1,0,1,0c3,0,3-5,3-7c0-1-3-5-16-5h-33c-3,0-7-1-7-1"/>
	<path class="st3" d="M-174-142l-5-1c0,0,0-4,0-5c0-2,2-5,2-7s4-7,4-7s12,0,23,0c6,0,14.3,8,14.3,8"/>
	<polyline class="st3" points="-153,-161 -151,-154 -151,-145 	"/>
	<line class="st3" x1="-147" y1="-150" x2="-145" y2="-150"/>
	<line class="st3" x1="-161.5" y1="-150" x2="-159.5" y2="-150"/>
	<line class="st3" x1="-165" y1="-161" x2="-166" y2="-154"/>
	<line class="st3" x1="-166" y1="-154" x2="-166" y2="-150"/>
</g>
<g>
	<circle class="st3" cx="100.8" cy="-140.5" r="4.5"/>
	<circle class="st3" cx="139.8" cy="-140.5" r="4.5"/>
	<line class="st3" x1="135" y1="-140" x2="109" y2="-140"/>
	<path class="st3" d="M145-140c0,0-1,0,1,0c3,0,3-5,3-7c0-1-5-7-15-7h-34c-3,0-7-1-7-1"/>
	<path class="st3" d="M96-140l-5-1c0,0,0-4,0-5c0-2,2-7,2-9s5-9,9-9c1,0,8,0,19,0c8,0,17,10,17,10"/>
	<polyline class="st3" points="118,-164 120,-155 120,-143 	"/>
	<line class="st3" x1="124" y1="-149" x2="126" y2="-149"/>
	<line class="st3" x1="109" y1="-149" x2="111" y2="-149"/>
	<line class="st3" x1="107" y1="-164" x2="105" y2="-154"/>
	<line class="st3" x1="105" y1="-154" x2="105" y2="-147.5"/>
</g>
<g>
	<circle class="st3" cx="-79.2" cy="-142.5" r="4.5"/>
	<circle class="st3" cx="-40.2" cy="-142.5" r="4.5"/>
	<line class="st3" x1="-45" y1="-142" x2="-71" y2="-142"/>
	<path class="st3" d="M-35-142c0,0-1,0,1,0c3,0,3-5,3-7c0-1-3-5-16-5h-28c-5,0-10-7-10-7"/>
	<path class="st3" d="M-84-142l-5-1c0,0,0-4,0-5c0-2,3-6,3-8h6c0,0,5-6,17-6c9,0,18.3,8,18.3,8"/>
	<polyline class="st3" points="-66,-157 -64,-154 -64,-145 	"/>
	<line class="st3" x1="-60" y1="-150" x2="-57" y2="-150"/>
</g>
<g>
	<circle class="st3" cx="191.2" cy="-139.8" r="4.8"/>
	<circle class="st3" cx="229.1" cy="-139.8" r="5.1"/>
	<line class="st3" x1="224" y1="-139.3" x2="200" y2="-139.3"/>
	<path class="st3" d="M235-139.3c0,0-1,0,1,0c3,0,3-2,3-4s-2-3-2-3s0-2.9,0-4c0-2-8.6-3-15-3h-31c-3,0-8-1-8-1"/>
	<path class="st3" d="M186-139.3l-5-1c0,0,0-4,0-5c0-2,2-6,2-8c0-4,3-10,3-10s19-1,28,0c3,0.3,10,10,10,10"/>
	<polyline class="st3" points="207,-163.3 209,-154.3 209,-142.3 	"/>
	<line class="st3" x1="213" y1="-148.3" x2="215" y2="-148.3"/>
	<line class="st3" x1="198.4" y1="-148.3" x2="200.6" y2="-148.3"/>
	<line class="st3" x1="195" y1="-163.3" x2="194" y2="-153.3"/>
	<line class="st3" x1="192" y1="-164.3" x2="192" y2="-165.3"/>
	<line class="st3" x1="209" y1="-164.3" x2="209" y2="-165.3"/>
	<line class="st3" x1="194" y1="-153.3" x2="194" y2="-147.8"/>
</g>
<g>
	<line class="st1" x1="181.5" y1="1.5" x2="238.5" y2="58.5"/>
	<path class="st0" d="M194.5,47.5v4c0,1.1-0.9,2-2,2h-6c-1.1,0-2-0.9-2-2v-4"/>
	<path class="st0" d="M228.4,53.5h-0.9c-1.1,0-2-0.9-2-2"/>
	<line class="st0" x1="235.5" y1="47.5" x2="235.5" y2="49.8"/>
	<path class="st0" d="M235.5,47.5c1.7,0,3-1.3,3-3V33.1c0-2.3-0.8-4.6-2.3-6.4l-2.7-3.2"/>
	<path class="st0" d="M186.5,23.5l-2.7,3.2c-1.5,1.8-2.3,4.1-2.3,6.4v11.4c0,1.7,1.3,3,3,3"/>
	<line class="st0" x1="189.6" y1="15.3" x2="186.5" y2="23.5"/>
	<path class="st0" d="M233.5,23.5l-4.7-12.3c-1.1-2.8-3.6-4.8-6.5-5.2c-2.3-0.3-7.6-0.6-12.3-0.6s-10,0.2-12.3,0.6
		c-1.6,0.2-3,0.9-4.2,1.9"/>
	<path class="st0" d="M208.2,22.5h19.4l-3.4-8.9c-0.8-2-2.6-3.4-4.7-3.7c-1.7-0.2-6-0.4-9.4-0.4s-7.8,0.2-9.4,0.4
		c-1.3,0.2-2.5,0.8-3.4,1.7"/>
	<polyline class="st0" points="193.7,19.3 192.5,22.5 196.8,22.5 	"/>
	<circle class="st0" cx="190.5" cy="33" r="3"/>
	<circle class="st0" cx="229.5" cy="33" r="3"/>
	<line class="st0" x1="233.5" y1="23.5" x2="238.5" y2="23.5"/>
	<line class="st0" x1="181.5" y1="23.5" x2="186.5" y2="23.5"/>
	<polyline class="st0" points="210.5,36.5 199.5,36.5 199.5,42.5 216.5,42.5 	"/>
	<path class="st0" d="M200.7,15c0.4-0.9,1.3-1.5,2.3-1.5c1.4,0,2.5,1.1,2.5,2.5c0,1-0.6,1.9-1.5,2.3"/>
	<path class="st0" d="M213,22.5c0-2.2,1.8-4,4-4s4,1.8,4,4"/>
	<circle class="st0" cx="217" cy="16" r="2.5"/>
	<line class="st0" x1="190.5" y1="47.5" x2="221.5" y2="47.5"/>
</g>
<g>
	<path class="st1" d="M-403.5,221.5c0,3.3,2.7,6,6,6s6-2.7,6-6"/>
	<path class="st1" d="M-403.5,202.5c0-3.3-2.7-6-6-6"/>
	<line class="st1" x1="-403.5" y1="221.5" x2="-403.5" y2="202.5"/>
	<line class="st1" x1="-391.5" y1="221.5" x2="-391.5" y2="195.5"/>
	<circle class="st1" cx="-395" cy="196" r="3.5"/>
	<path class="st1" d="M-391.5,196c0-5.8-2-8.5-3.5-10.5"/>
	<line class="st0" x1="-404.5" y1="237.5" x2="-391.5" y2="237.5"/>
	<line class="st0" x1="-448.5" y1="237.5" x2="-409.5" y2="237.5"/>
	<g>
		<line class="st0" x1="-440.5" y1="210.5" x2="-440.5" y2="236.5"/>
		<line class="st0" x1="-417.5" y1="236.5" x2="-417.5" y2="210.5"/>
	</g>
	<path class="st0" d="M-419.5,187.5h-19c-0.6,0-1,0.4-1,1v16c0,0.6,0.4,1,1,1h19c0.6,0,1-0.4,1-1v-16
		C-418.5,187.9-418.9,187.5-419.5,187.5z"/>
	<line class="st0" x1="-433.5" y1="193.5" x2="-424.5" y2="193.5"/>
	<line class="st0" x1="-433.5" y1="199.5" x2="-424.5" y2="199.5"/>
	<path class="st0" d="M-417.5,182.5h-23c-2.2,0-4,1.8-4,4v20c0,2.2,1.8,4,4,4h23c2.2,0,4-1.8,4-4v-20
		C-413.5,184.3-415.3,182.5-417.5,182.5z"/>
	<path class="st0" d="M-429,216.5c0,0,5,6.2,5,9s-2.2,5-5,5s-5-2.2-5-5c0-1.3,1.1-3.3,2.2-5.1"/>
</g>
<g>
	<line class="st1" x1="27" y1="205.2" x2="8" y2="205.2"/>
	<polyline class="st1" points="13,210.8 7.3,205.2 13,199.5 	"/>
	<polyline class="st1" points="22,199.5 27.7,205.2 22,210.8 	"/>
	<circle class="st3" cx="11.2" cy="222.7" r="4.8"/>
	<circle class="st3" cx="50.1" cy="222.7" r="5.1"/>
	<line class="st3" x1="45" y1="223.2" x2="20" y2="223.2"/>
	<path class="st3" d="M56,223.2c0,0-1,0,1,0s2-2,2-4s-1-3-1-3v0c0-0.7,0-1,0-2c0-2-4-5-4-5"/>
	<path class="st3" d="M34,199.2h8c4,0,12,10,12,10"/>
	<path class="st3" d="M38,209.2v-7c0,0,2,0,4,0s8,7,8,7H38"/>
	<line class="st3" x1="38" y1="214.2" x2="41" y2="214.2"/>
	<line class="st3" x1="54" y1="214.2" x2="54" y2="215.2"/>
	<line class="st3" x1="2" y1="218.2" x2="9" y2="218.2"/>
	<line class="st3" x1="18" y1="218.2" x2="33" y2="218.2"/>
	<line class="st3" x1="34" y1="199.2" x2="34" y2="218.2"/>
	<path class="st3" d="M6,223.2l-5-1v-30c0,0,23,0,30,0c1,0,3,0,10,7"/>
</g>
<g>
	<circle class="st3" cx="-434.7" cy="-143" r="4.5"/>
	<circle class="st3" cx="-402.7" cy="-143" r="4.5"/>
	<line class="st3" x1="-407.5" y1="-142.5" x2="-426.5" y2="-142.5"/>
	<path class="st3" d="M-397.5-142.5c0,0-1,0,1,0c3,0,3-5,3-7c0-1-2-5-15-5h-21c-2,0-4-6-4-6"/>
	<path class="st3" d="M-444.5-143.5c0,0,0-4,0-5c0-2,3.5-4.1,4-6c1-4,2-6,2-6s6-1,17-1c5,0,13,7,13,7"/>
	<line class="st3" x1="-439.5" y1="-142.5" x2="-446.5" y2="-143.5"/>
	<polyline class="st3" points="-425.5,-161.5 -423.5,-154.5 -423.5,-145.5 	"/>
	<line class="st3" x1="-419.5" y1="-150.5" x2="-417.5" y2="-150.5"/>
</g>
<g>
	<circle class="st3" cx="-349.2" cy="-142.5" r="4.5"/>
	<circle class="st3" cx="-310.2" cy="-142.5" r="4.5"/>
	<line class="st3" x1="-315" y1="-142" x2="-341" y2="-142"/>
	<path class="st3" d="M-305-142c0,0-1,0,1,0c3,0,3-5,3-7c0-1-3-5-16-5h-33c-3,0-6-1-6-1"/>
	<path class="st3" d="M-354-142l-5-1c0,0,0-4,0-5c0-2,3-5,3-7s3-6,3-6s11-1,22-1c6,0,15.3,8,15.3,8"/>
	<polyline class="st3" points="-339,-161 -337,-154 -337,-145 	"/>
	<line class="st3" x1="-333" y1="-150" x2="-330" y2="-150"/>
</g>
<g>
	<circle class="st3" cx="-168.8" cy="-50.8" r="4.8"/>
	<circle class="st3" cx="-129.9" cy="-50.8" r="5.1"/>
	<line class="st3" x1="-135" y1="-50.3" x2="-160" y2="-50.3"/>
	<path class="st3" d="M-124-50.3c0,0-1,0,1,0s2-2,2-4s-1-3-1-3v0c0-0.7,0-1,0-2c0-2-4-5-4-5"/>
	<path class="st3" d="M-174-50.3l-5-1c0,0,0-2.5,0-4c0-0.7,1-1,1-1c0-2,0-6,0-8c0-2.4,0.4-5.5,0.7-7.7c0.2-1.3,1.3-2.3,2.7-2.3h36.7
		c4,0,12,10,12,10"/>
	<path class="st3" d="M-142-64.3v-7c0,0,2,0,4,0s8,7,8,7H-142"/>
	<line class="st3" x1="-142" y1="-59.3" x2="-139" y2="-59.3"/>
	<line class="st3" x1="-126" y1="-59.3" x2="-126" y2="-58.3"/>
</g>
<g>
	<circle class="st3" cx="-78.8" cy="-48.3" r="4.8"/>
	<circle class="st3" cx="-39.9" cy="-48.3" r="5.1"/>
	<line class="st3" x1="-45" y1="-47.8" x2="-70" y2="-47.8"/>
	<path class="st3" d="M-34-47.8c0,0-1,0,1,0s2-2,2-4s-1-3-1-3v0c0-0.7,0-1,0-2c0-2-4-5-4-5"/>
	<path class="st3" d="M-84-47.8l-5-1c0,0,0-2.5,0-4c0-0.7,1-1,1-1c0-2,0-8,0-10c0-2.4,0.4-8.5,0.7-10.7c0.2-1.3,1.3-2.3,2.7-2.3
		c0,0,21.7,0,28.7,0c6,0,20,15,20,15"/>
	<path class="st3" d="M-52-61.8v-7c0,0,2,0,4,0c1,0,8,7,8,7H-52"/>
	<line class="st3" x1="-52" y1="-56.8" x2="-49" y2="-56.8"/>
	<line class="st3" x1="-36" y1="-56.8" x2="-36" y2="-55.8"/>
</g>
<g>
	<circle class="st3" cx="-258.8" cy="-50.8" r="4.8"/>
	<circle class="st3" cx="-219.9" cy="-50.8" r="5.1"/>
	<line class="st3" x1="-225" y1="-50.3" x2="-250" y2="-50.3"/>
	<path class="st3" d="M-214-50.3c0,0-1,0,1,0s2-2,2-4s-1-3-1-3s0-0.9,0-2c0-2-3-4-10-5"/>
	<path class="st3" d="M-264-50.3l-5-1c0,0,0-3,0-4c0-0.4,1-1,1-1c0-2,0-6,0-8c0-2.4,0.4-5.5,0.7-7.7c0.2-1.3,1.3-2.3,2.7-2.3h24.7
		c7,0,18,10,18,10"/>
	<path class="st3" d="M-242-64.3v-7c0,0,0,0,2,0c4,0,13,7,13,7H-242"/>
	<line class="st3" x1="-241" y1="-59.3" x2="-238" y2="-59.3"/>
	<line class="st3" x1="-216" y1="-59.3" x2="-216" y2="-58.3"/>
</g>
<g>
	<circle class="st3" cx="-348.8" cy="-50.8" r="4.8"/>
	<circle class="st3" cx="-309.9" cy="-50.8" r="5.1"/>
	<line class="st3" x1="-315" y1="-50.3" x2="-340" y2="-50.3"/>
	<path class="st3" d="M-304-50.3c0,0-1,0,1,0s2-2,2-4s-1-3-1-3s0-0.9,0-2c0-2-3-4-10-5"/>
	<path class="st3" d="M-354-50.3l-5-1c0,0,0-3,0-4c0-0.4,1-1,1-1c0-2,0-2,0-4c0-3,4.8-4.1,6-7c3-7,9-7,9-7h13c7,0,18,10,18,10"/>
	<path class="st3" d="M-335-64.3v-7c0,0,3,0,5,0c4,0,13,7,13,7H-335"/>
	<line class="st3" x1="-332" y1="-59.3" x2="-329" y2="-59.3"/>
	<line class="st3" x1="-306" y1="-59.3" x2="-306" y2="-58.3"/>
</g>
<g>
	<circle class="st3" cx="101.2" cy="-47.3" r="4.8"/>
	<circle class="st3" cx="140.1" cy="-47.3" r="5.1"/>
	<line class="st3" x1="135" y1="-46.8" x2="110" y2="-46.8"/>
	<path class="st3" d="M146-46.8c0,0-1,0,1,0s2-2,2-4s-1-3-1-3v0c0-0.7,0-1,0-2c0-2-4-5-4-5"/>
	<path class="st3" d="M124-70.8h8c4,0,12,10,12,10"/>
	<path class="st3" d="M128-60.8v-7c0,0,2,0,4,0s8,7,8,7H128"/>
	<line class="st3" x1="128" y1="-55.8" x2="131" y2="-55.8"/>
	<line class="st3" x1="144" y1="-55.8" x2="144" y2="-54.8"/>
	<line class="st3" x1="92" y1="-51.8" x2="99" y2="-51.8"/>
	<line class="st3" x1="108" y1="-51.8" x2="123" y2="-51.8"/>
	<line class="st3" x1="124" y1="-70.8" x2="124" y2="-51.8"/>
	<path class="st3" d="M96-46.8l-5-1v-30c0,0,23,0,30,0c1,0,3,0,10,7"/>
</g>
<g>
	<circle class="st3" cx="-346.8" cy="39.2" r="4.8"/>
	<circle class="st3" cx="-309.9" cy="39.2" r="5.1"/>
	<line class="st3" x1="-315" y1="39.7" x2="-338" y2="39.7"/>
	<path class="st3" d="M-304,39.7c0,0-1,0,1,0s2-2,2-4s-1-3-1-3v0c0-0.7,0-1,0-2c0-2-4-5-4-5"/>
	<path class="st3" d="M-326,15.7h8c4,0,12,10,12,10"/>
	<path class="st3" d="M-322,25.7v-7c0,0,2,0,4,0s8,7,8,7H-322"/>
	<line class="st3" x1="-322" y1="30.7" x2="-319" y2="30.7"/>
	<line class="st3" x1="-306" y1="30.7" x2="-306" y2="31.7"/>
	<line class="st3" x1="-359" y1="34.7" x2="-349" y2="34.7"/>
	<line class="st3" x1="-340" y1="34.7" x2="-326" y2="34.7"/>
	<line class="st3" x1="-326" y1="15.7" x2="-326" y2="34.7"/>
	<polyline class="st3" points="-359,34.7 -359,28.7 -326,28.7 	"/>
	<polyline class="st3" points="-352,39.7 -356,38.7 -356,34.7 	"/>
</g>
<g>
	<circle class="st3" cx="191.2" cy="-50.8" r="4.8"/>
	<circle class="st3" cx="230.1" cy="-50.8" r="5.1"/>
	<line class="st3" x1="225" y1="-50.3" x2="200" y2="-50.3"/>
	<path class="st3" d="M236-50.3c0,0-1,0,1,0s2-2,2-4s-1-3-1-3v0c0-0.7,0-1,0-2c0-2-4-5-4-5"/>
	<path class="st3" d="M186-50.3l-5-1c0,0,0-2.5,0-4c0-0.7,1-1,1-1c0-2,0-6,0-8c0-2.4,0.4-5.5,0.7-7.7c0.2-1.3,1.3-2.3,2.7-2.3H222
		c4,0,12,10,12,10"/>
	<path class="st3" d="M218-64.3v-7c0,0,2,0,4,0s8,7,8,7H218"/>
	<line class="st3" x1="218" y1="-59.3" x2="221" y2="-59.3"/>
	<line class="st3" x1="211" y1="-59.3" x2="214" y2="-59.3"/>
	<line class="st3" x1="234" y1="-59.3" x2="234" y2="-58.3"/>
	<rect x="203" y="-71.3" class="st3" width="11" height="7"/>
	<path class="st3" d="M188-64.3c2,0,11,0,11,0v-7h-10C189-71.3,188-67.3,188-64.3z"/>
</g>
<g>
	<circle class="st3" cx="-256.8" cy="43.2" r="4.8"/>
	<circle class="st3" cx="-219.9" cy="43.2" r="5.1"/>
	<line class="st3" x1="-225" y1="43.7" x2="-248" y2="43.7"/>
	<path class="st3" d="M-214,43.7c0,0-1,0,1,0s2-2,2-4s-1-3-1-3v0c0-0.7,0-1,0-2c0-2-4-5-4-5"/>
	<path class="st3" d="M-236,19.7h8c4,0,12,10,12,10"/>
	<path class="st3" d="M-232,29.7v-7c0,0,2,0,4,0s8,7,8,7H-232"/>
	<line class="st3" x1="-232" y1="34.7" x2="-229" y2="34.7"/>
	<line class="st3" x1="-216" y1="34.7" x2="-216" y2="35.7"/>
	<line class="st3" x1="-269" y1="38.7" x2="-259" y2="38.7"/>
	<line class="st3" x1="-250" y1="38.7" x2="-236" y2="38.7"/>
	<line class="st3" x1="-236" y1="19.7" x2="-236" y2="38.7"/>
	<polyline class="st3" points="-269,38.7 -269,25.7 -242,25.7 -242,11.7 -219,11.7 -219,19.7 	"/>
	<polyline class="st3" points="-262,43.7 -266,42.7 -266,38.7 	"/>
	<line class="st3" x1="-219" y1="19.7" x2="-229" y2="19.7"/>
</g>
<g>
	<g>
		<circle class="st3" cx="-438.8" cy="38.2" r="4.8"/>
		<circle class="st3" cx="-400.9" cy="38.2" r="5.1"/>
		<line class="st3" x1="-406" y1="38.7" x2="-430" y2="38.7"/>
		<path class="st3" d="M-422,16.7c0,0,7.8-0.1,9.3,0.1c2.6,0.3,8.7,7.9,8.7,7.9"/>
		<path class="st3" d="M-444,38.7l-5-1c0,0,0-4,0-5c0-2,1-6,1-8h40c6.4,0,15,2,15,4c0,1.1,0,4,0,4s2,1,2,3s0,3-3,3c-2,0-1,0-1,0"/>
		<polyline class="st3" points="-422,16.7 -422,22.4 -422,38.7 		"/>
		<line class="st3" x1="-418" y1="29.7" x2="-415" y2="29.7"/>
		<line class="st3" x1="-418" y1="16.7" x2="-418" y2="23.7"/>
		<line class="st3" x1="-449" y1="34.7" x2="-443" y2="34.7"/>
		<line class="st3" x1="-431" y1="34.7" x2="-422" y2="34.7"/>
	</g>
	<line class="st3" x1="-396" y1="29.7" x2="-396" y2="30.7"/>
</g>
<g>
	<circle class="st3" cx="13.5" cy="-50" r="4.1"/>
	<circle class="st3" cx="50.4" cy="-50" r="4.4"/>
	<line class="st3" x1="46.1" y1="-49.6" x2="22" y2="-49.6"/>
	<path class="st3" d="M55.4-49.6c0,0,0.1,0,1.9,0S59-51.3,59-53s-0.9-2.6-0.9-2.6v0c0-0.6,0-0.9,0-1.7c0-1.7-3.4-4.3-3.4-4.3"/>
	<path class="st3" d="M9.1-49.6L1-50.5c0,0,0-2.1,0-3.4c0-0.6,0.9-0.9,0.9-0.9c0-1.7,0-6.8,0-8.5c0-2.1,0.3-7.3,0.6-9.1
		c0.2-1.1,1.1-2,2.3-2c0,0,27.1,0,33,0c5.1,0,17,12.8,17,12.8"/>
	<path class="st3" d="M40.1-61.6v-6c0,0,1.7,0,3.4,0c0.9,0,6.8,6,6.8,6H40.1"/>
	<line class="st3" x1="40.1" y1="-57.3" x2="42.7" y2="-57.3"/>
	<line class="st3" x1="54.7" y1="-57.3" x2="54.7" y2="-56.4"/>
</g>
<g>
	<circle class="st3" cx="-438.8" cy="-50.8" r="4.8"/>
	<circle class="st3" cx="-399.9" cy="-50.8" r="5.1"/>
	<line class="st3" x1="-405" y1="-50.3" x2="-430" y2="-50.3"/>
	<path class="st3" d="M-394-50.3c0,0-1,0,1,0s2-2,2-4s-1-3-1-3v0c0-0.7,0-1,0-2c0-2-4-5-4-5"/>
	<path class="st3" d="M-444-50.3l-5-1c0,0,0-2.5,0-4c0-0.7,1-1,1-1c0-2,0-6,0-8c0-2.4,0.4-5.5,0.7-7.7c0.2-1.3,1.3-2.3,2.7-2.3h36.7
		c4,0,12,10,12,10"/>
	<path class="st3" d="M-412-64.3v-7c0,0,2,0,4,0s8,7,8,7H-412"/>
	<line class="st3" x1="-412" y1="-59.3" x2="-409" y2="-59.3"/>
	<line class="st3" x1="-426" y1="-59.3" x2="-423" y2="-59.3"/>
	<line class="st3" x1="-396" y1="-59.3" x2="-396" y2="-58.3"/>
	<rect x="-426" y="-71.3" class="st3" width="10" height="7"/>
</g>
<g>
	<ellipse transform="matrix(0.7844 -0.6202 0.6202 0.7844 -93.1997 165.8718)" class="st1" cx="192" cy="217" rx="10.5" ry="10.5"/>
	<ellipse transform="matrix(0.7844 -0.6202 0.6202 0.7844 -93.1997 165.8718)" class="st1" cx="192" cy="217" rx="2.5" ry="2.5"/>
	<circle class="st0" cx="223" cy="197" r="2.5"/>
	<circle class="st0" cx="223" cy="189.5" r="0"/>
	<ellipse transform="matrix(0.7071 -0.7071 0.7071 0.7071 -71.7866 210.0781)" class="st0" cx="217.7" cy="191.7" rx="0" ry="0"/>
	<circle class="st0" cx="215.5" cy="197" r="0"/>
	<ellipse transform="matrix(0.7071 -0.7071 0.7071 0.7071 -79.2916 213.1868)" class="st0" cx="217.7" cy="202.3" rx="0" ry="0"/>
	<circle class="st0" cx="223" cy="204.5" r="0"/>
	<ellipse transform="matrix(0.7071 -0.7071 0.7071 0.7071 -76.183 220.6918)" class="st0" cx="228.3" cy="202.3" rx="0" ry="0"/>
	<circle class="st0" cx="230.5" cy="197" r="0"/>
	<ellipse transform="matrix(0.7071 -0.7071 0.7071 0.7071 -68.6779 217.5831)" class="st0" cx="228.3" cy="191.7" rx="0" ry="0"/>
	<circle class="st0" cx="223" cy="197" r="11.5"/>
	<path class="st1" d="M197.9,219.7c-0.4,0.9-1,1.7-1.9,2.4"/>
	<path class="st1" d="M186.9,221c-2.2-2.8-1.7-6.9,1.1-9.1c2.8-2.2,6.9-1.7,9.1,1.1c0.8,1,1.2,2.1,1.4,3.3"/>
	<circle class="st0" cx="232.5" cy="232.5" r="6"/>
	<line class="st0" x1="211.5" y1="186.5" x2="184.5" y2="209.5"/>
	<line class="st0" x1="238.5" y1="196.5" x2="238.5" y2="232.5"/>
	<line class="st0" x1="190.5" y1="227.5" x2="231.5" y2="238.5"/>
	<line class="st0" x1="232.5" y1="232.5" x2="232.5" y2="232.5"/>
	<circle class="st0" cx="223" cy="197" r="15.5"/>
	<path class="st0" d="M190.3,227.4c-5-0.8-8.8-5.2-8.8-10.4c0-3,1.3-5.7,3.3-7.6"/>
</g>
<g>
	<polygon class="st0" points="-394.5,321.5 -391.5,321.5 -391.5,291.5 -394.5,291.5 -398.5,302.5 -398.5,315.5 	"/>
	<rect x="-444.5" y="296.5" class="st0" width="5" height="18"/>
	<line class="st0" x1="-448.5" y1="311.5" x2="-448.5" y2="299.5"/>
	<line class="st0" x1="-448.5" y1="305.5" x2="-445.5" y2="305.5"/>
	<line class="st0" x1="-398.5" y1="315.5" x2="-403.5" y2="315.5"/>
	<line class="st0" x1="-398.5" y1="302.5" x2="-403.5" y2="302.5"/>
	<polygon class="st0" points="-439.5,290.5 -439.5,314.5 -434.5,321.5 -407.5,321.5 -403.5,315.5 -403.5,302.5 -406.5,296.5 
		-410.5,296.5 -410.5,290.5 	"/>
	<polyline class="st0" points="-421.5,285.5 -414.5,285.5 -414.5,278.5 -434.5,278.5 -434.5,285.5 -427.5,285.5 	"/>
	<line class="st0" x1="-429.5" y1="285.5" x2="-429.5" y2="290.5"/>
	<line class="st0" x1="-419.5" y1="285.5" x2="-419.5" y2="290.5"/>
	<line class="st0" x1="-410.5" y1="296.5" x2="-410.5" y2="302.5"/>
	<line class="st0" x1="-410.5" y1="306.5" x2="-410.5" y2="309.5"/>
	<polyline class="st1" points="-427.5,296.5 -420.5,296.5 -423.5,303.5 -417.5,303.5 -426.5,316.5 -424.5,306.5 -431.5,306.5 
		-428.7,299.5 	"/>
</g>
<g>
	<circle class="st0" cx="120" cy="210" r="28.5"/>
	<circle class="st0" cx="120" cy="210" r="22.5"/>
	<path class="st0" d="M124.5,228c-1.4,0.4-2.9,0.5-4.5,0.5c-1.5,0-3.1-0.2-4.5-0.5"/>
	<path class="st0" d="M136.7,202c1.2,2.4,1.8,5.1,1.8,8c0,0.9-0.1,1.7-0.2,2.6"/>
	<path class="st0" d="M142.3,212.7c-0.8-0.1-1.5-0.2-2.3-0.2c-8.6,0-15.5,6.9-15.5,15.5c0,1.4,0.2,2.7,0.5,3.9"/>
	<path class="st0" d="M115,231.9c0.3-1.3,0.5-2.6,0.5-3.9c0-8.6-6.9-15.5-15.5-15.5c-0.8,0-1.6,0.1-2.3,0.2"/>
	<path class="st0" d="M98.3,203.9c6.3-2.8,13.7-4.4,21.7-4.4s15.4,1.6,21.7,4.4"/>
	<circle class="st1" cx="120" cy="210" r="4.5"/>
	<path class="st0" d="M101.7,212.5c-0.1-0.8-0.2-1.6-0.2-2.5c0-2.9,0.6-5.6,1.8-8"/>
</g>
<g>
	<g>
		<circle class="st3" cx="-349.2" cy="319" r="4.5"/>
		<circle class="st3" cx="-310.2" cy="319" r="4.5"/>
		<line class="st3" x1="-315" y1="319.5" x2="-341" y2="319.5"/>
		<path class="st3" d="M-305,319.5c0,0-1,0,1,0c3,0,3-5,3-7c0-1-3-5-16-5h-33c-3,0-7-1-7-1"/>
		<path class="st3" d="M-354,319.5l-5-1c0,0,0-4,0-5c0-2,2-5,2-7s4-7,4-7s12,0,23,0c6,0,14.3,8,14.3,8"/>
		<polyline class="st3" points="-333,300.5 -331,307.5 -331,316.5 		"/>
		<line class="st3" x1="-327" y1="311.5" x2="-325" y2="311.5"/>
		<line class="st3" x1="-341.5" y1="311.5" x2="-339.5" y2="311.5"/>
		<line class="st3" x1="-345" y1="300.5" x2="-346" y2="307.5"/>
		<line class="st3" x1="-346" y1="307.5" x2="-346" y2="311.5"/>
	</g>
	<circle class="st1" cx="-351.3" cy="289.7" r="4.8"/>
	<circle class="st1" cx="-332.3" cy="289.7" r="4.8"/>
	<line class="st1" x1="-351.3" y1="289.7" x2="-343" y2="289.7"/>
	<line class="st1" x1="-345.4" y1="282.6" x2="-351.3" y2="289.7"/>
	<line class="st1" x1="-343" y1="289.7" x2="-346.6" y2="279"/>
	<line class="st1" x1="-332.3" y1="289.7" x2="-335.8" y2="277.8"/>
	<line class="st1" x1="-343" y1="289.7" x2="-335.8" y2="281.4"/>
	<line class="st1" x1="-345.4" y1="282.6" x2="-335.8" y2="281.4"/>
	<line class="st1" x1="-350.1" y1="277.8" x2="-344.2" y2="279"/>
	<line class="st1" x1="-335.8" y1="277.8" x2="-333.5" y2="276.5"/>
	<line class="st3" x1="-332" y1="297.5" x2="-332" y2="299.5"/>
	<line class="st3" x1="-351" y1="297.5" x2="-351" y2="299.5"/>
</g>
<g>
	<path class="st0" d="M-257.5,320.5v5c0,1.1-0.9,2-2,2h-4c-1.1,0-2-0.9-2-2v-5"/>
	<line class="st0" x1="-260.5" y1="320.5" x2="-242.1" y2="320.5"/>
	<path class="st0" d="M-265.5,320.5c-1.7,0-3-1.3-3-3V309c0-1.9,0.2-3.9,0.6-5.8l5.3-25.5c0.6-3.1,3.4-5.3,6.5-5.3h15.6"/>
	<path class="st0" d="M-214,298.9l-4.4-21.1c-0.6-3.1-3.4-5.3-6.5-5.3h-15.6"/>
	<line class="st0" x1="-268.5" y1="292.5" x2="-266.5" y2="292.5"/>
	<line class="st0" x1="-214.5" y1="292.5" x2="-212.5" y2="292.5"/>
	<path class="st0" d="M-242.5,306.5c-3,0-8-1-8-1l1.2,4.3c0.5,1.6,1.9,2.7,3.6,2.7h2.2"/>
	<circle class="st0" cx="-249" cy="289" r="2.5"/>
	<path class="st0" d="M-235,295.5c0-2.2,1.8-4,4-4s4,1.8,4,4"/>
	<path class="st0" d="M-253,295.5c0-2.2,1.8-4,4-4s4,1.8,4,4"/>
	<circle class="st0" cx="-231" cy="289" r="2.5"/>
	<circle class="st1" cx="-225.5" cy="313.5" r="14"/>
	<g>
		<line class="st1" x1="-225.5" y1="317.5" x2="-225.5" y2="314.5"/>
		<line class="st1" x1="-225.5" y1="321.5" x2="-225.5" y2="321.5"/>
		<path class="st1" d="M-225.5,306.5c2.2,0,4,1.8,4,4s-1.8,4-4,4"/>
		<path class="st1" d="M-228.7,308.1c0.7-0.9,1.9-1.6,3.2-1.6"/>
	</g>
	<path class="st0" d="M-267.5,301.5c0,0,2,2,10,3v1.7c0,1.3-1,2.3-2.3,2.3h-7.7"/>
	<path class="st0" d="M-220.5,295.5h-40l2.4-12c0.3-1.7,1.9-3,3.6-3h28c1.8,0,3.3,1.2,3.6,3L-220.5,295.5z"/>
	<line class="st0" x1="-243.5" y1="316.5" x2="-264.5" y2="316.5"/>
	<line class="st0" x1="-242.5" y1="283.5" x2="-237.5" y2="283.5"/>
</g>
<g>
	<path class="st0" d="M-345.5,406v5c0,1.1-0.9,2-2,2h-6c-1.1,0-2-0.9-2-2v-5"/>
	<path class="st0" d="M-302.2,388c-0.4-1-0.9-1.9-1.6-2.8l-2.7-3.2"/>
	<line class="st0" x1="-349.5" y1="406" x2="-329.1" y2="406"/>
	<path class="st0" d="M-353.5,382l-2.7,3.2c-1.5,1.8-2.3,4.1-2.3,6.4V403c0,1.7,1.3,3,3,3"/>
	<path class="st0" d="M-306.5,382l-4.7-12.3c-1.1-2.8-3.6-4.8-6.5-5.2c-2.3-0.3-7.6-0.6-12.3-0.6s-10,0.2-12.3,0.6
		c-3,0.4-5.5,2.4-6.5,5.2l-4.7,12.3"/>
	<path class="st0" d="M-311.1,382l-3.6-9.5c-0.8-2.2-2.8-3.7-5.1-4c-1.8-0.2-6.5-0.4-10.2-0.4s-8.4,0.2-10.2,0.4
		c-2.3,0.3-4.2,1.8-5.1,4l-3.6,9.5H-311.1z"/>
	<circle class="st0" cx="-349.5" cy="391.5" r="3"/>
	<line class="st0" x1="-306.5" y1="382" x2="-301.5" y2="382"/>
	<line class="st0" x1="-358.5" y1="382" x2="-353.5" y2="382"/>
	<polyline class="st0" points="-329.5,395 -340.5,395 -340.5,401 -329.5,401 	"/>
	<circle class="st0" cx="-337" cy="374.5" r="2.5"/>
	<path class="st0" d="M-327,381c0-2.2,1.8-4,4-4s4,1.8,4,4"/>
	<path class="st0" d="M-341,381c0-2.2,1.8-4,4-4s4,1.8,4,4"/>
	<circle class="st0" cx="-323" cy="374.5" r="2.5"/>
	<g>
		<g>
			<g>
				<path class="st1" d="M-325.5,393.1v7.6c0,3.5,1.2,6.8,3.5,9.8c2.3,2.9,5.1,4.8,8.5,5.6c3.4-0.8,6.2-2.7,8.5-5.6
					c2.3-2.9,3.5-6.2,3.5-9.8v-7.6l-12-5.1L-325.5,393.1z"/>
			</g>
		</g>
	</g>
	<line class="st1" x1="-315.5" y1="408" x2="-311.5" y2="408"/>
	<polyline class="st1" points="-313.5,408 -313.5,400 -315.5,400 	"/>
	<line class="st1" x1="-313.5" y1="396" x2="-313.5" y2="396"/>
</g>
<g>
	<path class="st1" d="M138.8,290.3L124.6,276c-1.8-1.8-4.7-1.8-6.5,0c0,0,0,0,0,0l-25.2,25.2c-1.8,1.8-1.8,4.7,0,6.5c0,0,0,0,0,0
		l7.7,7.7"/>
	<path class="st0" d="M107.4,294.2h38.1c1.6,0,2.9,1.3,2.9,2.9v25.2c0,1.6-1.3,2.9-2.9,2.9h-38.1c-1.6,0-2.9-1.3-2.9-2.9v-25.2
		C104.5,295.5,105.8,294.2,107.4,294.2z"/>
	<line class="st0" x1="104.5" y1="300.8" x2="148.5" y2="300.8"/>
	<line class="st0" x1="104.5" y1="307.1" x2="148.5" y2="307.1"/>
	<line class="st0" x1="110.9" y1="313.5" x2="119.5" y2="313.5"/>
	<line class="st0" x1="110.9" y1="319.8" x2="116.3" y2="319.8"/>
	<line class="st0" x1="123.8" y1="313.5" x2="129.2" y2="313.5"/>
	<line class="st1" x1="126.5" y1="278.1" x2="114" y2="290.6"/>
	<line class="st1" x1="101" y1="303.6" x2="95.5" y2="309.1"/>
	<line class="st1" x1="130.5" y1="282.1" x2="122" y2="290.6"/>
	<line class="st1" x1="100.5" y1="312.1" x2="99" y2="313.6"/>
</g>
<g>
	<path class="st0" d="M-255.9,361.6c-1.1,0-2.2,0.2-3.3,0.4l5.8,5.8l-0.1,8.7l-8.7,0.1l-5.8-5.8c-0.3,1-0.4,2.1-0.4,3.3
		c0,6.9,5.6,12.5,12.5,12.5s12.5-5.6,12.5-12.5S-249,361.6-255.9,361.6z"/>
	<g>
		<path class="st0" d="M-244.4,379.6l31.5,31.5c1.7,1.7,1.7,4.3,0,6l0,0c-1.7,1.7-4.3,1.7-6,0l-31.5-31.5"/>
	</g>
	<line class="st0" x1="-216.3" y1="413.6" x2="-216.3" y2="413.6"/>
	<path class="st1" d="M-239.8,378.6c6.4,0,11.5,5.1,11.5,11.5"/>
	<path class="st1" d="M-239.8,401.6c-6.4,0-11.5-5.1-11.5-11.5"/>
	<path class="st1" d="M-220.9,398c0.5-1.2,0.9-2.5,1.2-3.8l4.4-0.8v-6.5l-4.4-0.8c-0.5-2.6-1.6-5.1-3-7.2l2.6-3.7l-4.6-4.6l-3.7,2.6
		c-2.2-1.4-4.6-2.5-7.2-3l-0.8-4.4h-5.5"/>
	<path class="st1" d="M-264.3,387.8v5.5l4.4,0.8c0.5,2.6,1.6,5.1,3,7.2l-2.6,3.7l4.6,4.6l3.7-2.6c2.2,1.4,4.6,2.5,7.2,3l0.8,4.4h6.5
		l0.8-4.4c1.2-0.2,2.4-0.6,3.5-1.1"/>
</g>
<g>
	<g>
		<circle class="st3" cx="207.1" cy="315" r="6"/>
		<path class="st3" d="M207.1,312.5c1.4,0,2.5,1.1,2.5,2.5c0,1.4-1.1,2.5-2.5,2.5s-2.5-1.1-2.5-2.5"/>
		<line class="st3" x1="200.7" y1="315.6" x2="181.6" y2="315.6"/>
		<path class="st3" d="M214.2,315.6c0,0-1.3,0,1.3,0c4,0,4-6.7,4-9.4c0-1.3-2.7-6.7-20.2-6.7h-17.7"/>
		<path class="st3" d="M181.4,288.6c6.7,0,15.6,10.8,15.6,10.8"/>
		<line class="st3" x1="181.8" y1="304.8" x2="185.8" y2="304.8"/>
	</g>
	<line class="st3" x1="181.6" y1="312" x2="201.6" y2="312"/>
	<line class="st3" x1="212.6" y1="312" x2="218.6" y2="312"/>
	<path class="st3" d="M216.6,303h-3.5c-0.8,0-1.5,0.7-1.5,1.5l0,0c0,0.8,0.7,1.5,1.5,1.5h6.5"/>
	<path class="st3" d="M216.6,285c-1.1-0.7-7.2-1.3-16.4,13.7"/>
	<line class="st3" x1="191.6" y1="294" x2="189.6" y2="299"/>
	<circle class="st1" cx="236.1" cy="281.5" r="2.5"/>
	<path class="st1" d="M225.2,298.6c1,2,3,3.4,5.4,3.4c3.3,0,6-2.7,6-6c0-3.3-2.7-6-6-6c-2.6,0-4.9,1.7-5.7,4"/>
	<path class="st1" d="M231.6,290.1C231.6,290,231.6,290,231.6,290.1c0-3.4-2.7-6.1-6-6.1s-6,2.7-6,6c0,1.4,0.5,2.7,1.3,3.7
		c-1.3,0.5-2.3,1.8-2.3,3.3c0,1.9,1.6,3.5,3.5,3.5c1.4,0,2.5-0.8,3.1-1.9c1,2,3,3.4,5.4,3.4c3.3,0,6-2.7,6-6
		C236.6,293,234.4,290.6,231.6,290.1z"/>
</g>
<g>
	<path class="st0" d="M-63.3,281.5c0-1.8,1.5-3.2,3.2-3.2c1.8,0,3.2,1.5,3.2,3.2"/>
	<path class="st0" d="M-56.8,296.9c0-1.8,1.5-3.2,3.2-3.2c1.8,0,3.2,1.5,3.2,3.2"/>
	<path class="st0" d="M-68.5,301.3c0-2.9,2.3-5.2,5.2-5.2"/>
	<path class="st0" d="M-50.4,298.3c0-1.8,1.5-3.2,3.2-3.2c1.8,0,3.2,1.5,3.2,3.2"/>
	<path class="st0" d="M-43.9,300.9c0-1.8,1.5-3.2,3.2-3.2c1.8,0,3.2,1.5,3.2,3.2"/>
	<line class="st0" x1="-63.3" y1="281.5" x2="-63.3" y2="305.4"/>
	<line class="st0" x1="-56.8" y1="281.5" x2="-56.8" y2="300.3"/>
	<line class="st0" x1="-50.4" y1="296.9" x2="-50.4" y2="300.3"/>
	<line class="st0" x1="-43.9" y1="298.3" x2="-43.9" y2="302.2"/>
	<path class="st0" d="M-68.5,309.9c0,8.6,7,15.6,15.6,15.6s15.6-7,15.6-15.6"/>
	<path class="st0" d="M-37.4,305.9c0,2.8,0,3.7,0,3.7S-37.4,308.7-37.4,305.9c0-2.8,0-5,0-5S-37.4,303.1-37.4,305.9z"/>
	<line class="st0" x1="-68.5" y1="301.3" x2="-68.5" y2="310.1"/>
	<circle class="st1" cx="-81" cy="282" r="7.5"/>
	<circle class="st1" cx="-39" cy="282" r="7.5"/>
	<path class="st1" d="M-66.9,284.9c-0.4-0.9-0.6-1.9-0.6-2.9c0-1,0.2-2,0.6-2.9c0.4-0.9,0.9-1.7,1.6-2.4c0.7-0.7,1.5-1.2,2.4-1.6
		c0.9-0.4,1.9-0.6,2.9-0.6s2,0.2,2.9,0.6c0.9,0.4,1.7,0.9,2.4,1.6c0.7,0.7,1.2,1.5,1.6,2.4c0.4,0.9,0.6,1.9,0.6,2.9
		c0,1-0.2,2-0.6,2.9"/>
</g>
<g>
	<polyline class="st0" points="24.5,306.2 24.5,328.2 5.5,315.2 5.5,307.2 	"/>
	<polygon class="st0" points="20.5,317.2 1.5,304.2 5.5,293.2 24.5,306.2 	"/>
	<polyline class="st0" points="54.5,306.2 54.5,315.2 24.5,328.2 24.5,306.2 	"/>
	<polygon class="st0" points="58.5,304.2 28.5,317.2 24.5,306.2 54.5,293.2 	"/>
	<path class="st1" d="M24.6,301.2c0.8-7.9,6-16.2,12.4-19.3c6.7-3.2,12.1,0.6,12.5,8.4"/>
	<path class="st1" d="M31.3,298.2c0.6-3.4,2.9-6.8,5.7-8.1c2.9-1.4,5.3,0.1,5.7,3.2"/>
	<line class="st1" x1="31.9" y1="273.1" x2="44.5" y2="281.1"/>
	<g>
		<polyline class="st1" points="25.3,272.5 27,275.4 30.3,275.7 32,278.6 35.4,278.9 37.1,281.8 		"/>
	</g>
	<g>
		<polyline class="st1" points="13.3,286.5 15,289.4 18.3,289.7 20,292.6 23.4,292.9 25.1,295.8 		"/>
	</g>
	<g>
		<polyline class="st1" points="17.3,277.5 19,280.4 22.3,280.7 24,283.6 27.4,283.9 29.1,286.8 		"/>
	</g>
	<path class="st1" d="M11,292c0.7-7.8,5.9-16,12.2-19c3.4-1.6,6.4-1.4,8.7,0.2"/>
</g>
<g>
	<path class="st0" d="M-125.5,368.9h-34"/>
	<path class="st0" d="M-159.1,368.9h-15.4c-2.2,0-4,1.8-4,4v43.9h57v-43.9c0-2.2-1.8-4-4-4l0,0"/>
	<line class="st0" x1="-178.5" y1="411.2" x2="-121.5" y2="411.2"/>
	<path class="st0" d="M-170.5,368.9c0-3.1,2.6-5.7,5.7-5.7c3.1,0,5.7,2.6,5.7,5.7c0,3.1-2.6,5.7-5.7,5.7"/>
	<path class="st0" d="M-140.9,368.9c0-3.1,2.6-5.7,5.7-5.7c3.1,0,5.7,2.6,5.7,5.7c0,3.1-2.6,5.7-5.7,5.7"/>
	<circle class="st1" cx="-150" cy="384.4" r="2.3"/>
	<circle class="st1" cx="-140.9" cy="384.4" r="2.3"/>
	<circle class="st1" cx="-131.8" cy="384.4" r="2.3"/>
	<circle class="st1" cx="-150" cy="393.6" r="2.3"/>
	<circle class="st1" cx="-140.9" cy="393.6" r="2.3"/>
	<circle class="st1" cx="-131.8" cy="393.6" r="2.3"/>
	<circle class="st1" cx="-168.2" cy="393.6" r="2.3"/>
	<circle class="st1" cx="-159.1" cy="393.6" r="2.3"/>
	<circle class="st1" cx="-150" cy="402.7" r="2.3"/>
	<circle class="st1" cx="-140.9" cy="402.7" r="2.3"/>
	<circle class="st1" cx="-168.2" cy="402.7" r="2.3"/>
	<circle class="st1" cx="-159.1" cy="402.7" r="2.3"/>
	<line class="st1" x1="-133.5" y1="400.5" x2="-129.5" y2="404.5"/>
	<line class="st1" x1="-129.5" y1="400.5" x2="-133.5" y2="404.5"/>
</g>
<g>
	<path class="st0" d="M-152.6,297.8c1.1-0.5,1.9-1.5,2.1-2.7c1.4-6.3,1.6-12.8,0.8-19.2c-0.2-1.8-1.5-3.2-3.2-3.5
		c-7.4-1.5-15-1.5-22.4,0c-1.7,0.3-2.9,1.7-3.2,3.4c-1.1,6.5-0.8,13.1,0.9,19.5c0.3,1.1,1,2,2.1,2.5c0,0,4.4,2.2,11.3,2.2
		S-152.6,297.8-152.6,297.8z"/>
	<path class="st0" d="M-169.1,300l-0.1,23.7l5,5l5.2-5l0-23.7"/>
	<circle class="st0" cx="-164.1" cy="281.1" r="3"/>
	<line class="st0" x1="-165.1" y1="321.1" x2="-165.1" y2="300.1"/>
	<path class="st1" d="M-145.8,280.2l17,17c1.6,1.6,1.6,4.1,0,5.7l-10.1,10.1c-1.5,1.5-4,1.6-5.5,0.1l-10-10.2"/>
	<path class="st1" d="M-126.6,295c2.8,2.8,2.8,7.3,0,10.1"/>
	<path class="st1" d="M-124.1,292.5c4.2,4.2,4.2,10.9,0,15.1"/>
	
		<rect x="-142.7" y="300.1" transform="matrix(0.7071 -0.7071 0.7071 0.7071 -254.315 -9.9973)" class="st1" width="6.9" height="3.8"/>
	<path class="st1" d="M-144.5,300.3c-1-1-1-2.6,0-3.5c1-1,2.6-1,3.5,0"/>
	<line class="st1" x1="-144.5" y1="300.3" x2="-143" y2="301.7"/>
	<line class="st1" x1="-141.3" y1="285.7" x2="-145.3" y2="289.7"/>
</g>
<g>
	<line class="st0" x1="-448" y1="394" x2="-442" y2="394"/>
	<line class="st0" x1="-444.6" y1="407.8" x2="-442.8" y2="406.8"/>
	<line class="st0" x1="-396.9" y1="408.7" x2="-398.7" y2="407.7"/>
	<line class="st0" x1="-393" y1="395" x2="-399" y2="395"/>
	<line class="st0" x1="-396.4" y1="381.2" x2="-398.2" y2="382.2"/>
	<line class="st0" x1="-420" y1="367" x2="-420" y2="373"/>
	<line class="st0" x1="-433.8" y1="370.4" x2="-432.8" y2="372.2"/>
	<line class="st0" x1="-444.1" y1="380.3" x2="-442.3" y2="381.3"/>
	<path class="st1" d="M-408.1,374L-408.1,374c-0.6-0.4-1.4-0.2-1.8,0.3l-13.9,16.7c-2,2.4-1.3,6,1.5,7.6l0,0
		c2.8,1.6,6.3,0.4,7.4-2.5l7.5-20.4C-407.2,375-407.5,374.3-408.1,374z"/>
	<g>
		<path class="st0" d="M-392,394c0-15.5-12.5-28-28-28s-28,12.5-28,28c0,7.8,3.2,14.9,8.4,20h39.2C-395.2,408.9-392,401.8-392,394z"
			/>
	</g>
	<line class="st0" x1="-430" y1="405" x2="-430" y2="408"/>
	<line class="st0" x1="-425" y1="405" x2="-425" y2="408"/>
	<line class="st0" x1="-420" y1="405" x2="-420" y2="408"/>
	<line class="st0" x1="-415" y1="405" x2="-415" y2="408"/>
	<line class="st0" x1="-410" y1="407" x2="-410" y2="408"/>
</g>
</svg>
