<?xml version="1.0" encoding="utf-8"?>
<!-- Generator: Adobe Illustrator 21.1.0, SVG Export Plug-In . SVG Version: 6.00 Build 0)  -->
<svg version="1.1" id="Layer_1" xmlns="http://www.w3.org/2000/svg" xmlns:xlink="http://www.w3.org/1999/xlink" x="0px" y="0px"
	 viewBox="0 0 55 50" style="enable-background:new 0 0 55 50;" xml:space="preserve">
<style type="text/css">
	.st0{fill:none;stroke:#33414E;stroke-width:1.8333;stroke-linecap:round;stroke-linejoin:round;}
	.st1{fill:none;stroke:#BA0C2F;stroke-width:1.8333;stroke-linecap:round;stroke-linejoin:round;}
</style>
<g>
	<circle class="st0" cx="10" cy="18.9" r="4.1"/>
	<circle class="st0" cx="45.7" cy="18.9" r="4.1"/>
	<line class="st0" x1="41.3" y1="19.3" x2="17.5" y2="19.3"/>
	<path class="st0" d="M50.5,19.3c0,0-0.9,0,0.9,0c2.8,0,2.8-4.6,2.8-6.4c0-0.9-2.8-4.6-14.7-4.6H9.3c-2.8,0-5.5-0.9-5.5-0.9"/>
	<path class="st0" d="M5.6,19.3L1,18.4c0,0,0-3.7,0-4.6C1,12,3.8,9.3,3.8,7.4s2.8-5.5,2.8-5.5S16.6,1,26.7,1c5.5,0,14,7.3,14,7.3"/>
	<polyline class="st0" points="19.3,1.9 21.2,8.3 21.2,16.6 	"/>
	<line class="st0" x1="24.8" y1="12" x2="27.6" y2="12"/>
</g>
<g>
	<circle class="st1" cx="10" cy="42.9" r="4.1"/>
	<circle class="st1" cx="45.7" cy="42.9" r="4.1"/>
	<line class="st1" x1="41.3" y1="43.3" x2="17.5" y2="43.3"/>
	<path class="st1" d="M50.5,43.3c0,0-0.9,0,0.9,0c2.8,0,2.8-4.6,2.8-6.4c0-0.9-2.8-4.6-14.7-4.6H9.3c-2.8,0-5.5-0.9-5.5-0.9"/>
	<path class="st1" d="M5.6,43.3L1,42.4c0,0,0-3.7,0-4.6c0-1.8,2.8-4.6,2.8-6.4c0-1.8,2.8-5.5,2.8-5.5S16.6,25,26.7,25
		c5.5,0,14,7.3,14,7.3"/>
	<polyline class="st1" points="19.3,25.9 21.2,32.3 21.2,40.6 	"/>
	<line class="st1" x1="24.8" y1="36" x2="27.6" y2="36"/>
</g>
</svg>
