<?xml version="1.0" encoding="utf-8"?>
<!-- Generator: Adobe Illustrator 21.1.0, SVG Export Plug-In . SVG Version: 6.00 Build 0)  -->
<svg version="1.1" id="Layer_1" xmlns="http://www.w3.org/2000/svg" xmlns:xlink="http://www.w3.org/1999/xlink" x="0px" y="0px"
	 viewBox="0 0 55 60" style="enable-background:new 0 0 55 60;" xml:space="preserve">
<style type="text/css">
	.st0{fill:none;stroke:#33414E;stroke-width:1.8333;stroke-linecap:round;stroke-linejoin:round;}
	.st1{fill:none;stroke:#BA0C2F;stroke-width:1.8333;stroke-linecap:round;stroke-linejoin:round;}
</style>
<g>
	<circle class="st0" cx="10.3" cy="24" r="4.4"/>
	<circle class="st0" cx="45" cy="24" r="4.7"/>
	<line class="st0" x1="40.3" y1="24.4" x2="18.4" y2="24.4"/>
	<path class="st0" d="M50.3,24.4c0,0-0.9,0,0.9,0c2.7,0,2.7-1.8,2.7-3.7S52.2,18,52.2,18s0-2.7,0-3.7c0-1.8-7.8-2.7-13.7-2.7H10.1
		c-2.7,0-7.3-0.9-7.3-0.9"/>
	<path class="st0" d="M5.6,24.4L1,23.5c0,0,0-3.7,0-4.6c0-1.8,1.8-5.5,1.8-7.3c0-3.7,2.7-9.1,2.7-9.1s17.4-0.9,25.6,0
		c2.7,0.3,9.1,9.1,9.1,9.1"/>
	<polyline class="st0" points="24.8,2.5 26.6,10.7 26.6,21.7 	"/>
	<line class="st0" x1="30.2" y1="16.2" x2="32.1" y2="16.2"/>
	<line class="st0" x1="16.9" y1="16.2" x2="18.9" y2="16.2"/>
	<line class="st0" x1="13.8" y1="2.5" x2="12.9" y2="11.6"/>
	<line class="st0" x1="11.1" y1="1.6" x2="11.1" y2="0.7"/>
	<line class="st0" x1="26.6" y1="1.6" x2="26.6" y2="0.7"/>
	<line class="st0" x1="12.9" y1="11.6" x2="12.9" y2="16.7"/>
</g>
<g>
	<circle class="st1" cx="10.3" cy="54" r="4.4"/>
	<circle class="st1" cx="45" cy="54" r="4.7"/>
	<line class="st1" x1="40.3" y1="54.4" x2="18.4" y2="54.4"/>
	<path class="st1" d="M50.3,54.4c0,0-0.9,0,0.9,0c2.7,0,2.7-1.8,2.7-3.7c0-1.8-1.8-2.7-1.8-2.7s0-2.7,0-3.7c0-1.8-7.8-2.7-13.7-2.7
		H10.1c-2.7,0-7.3-0.9-7.3-0.9"/>
	<path class="st1" d="M5.6,54.4L1,53.5c0,0,0-3.7,0-4.6c0-1.8,1.8-5.5,1.8-7.3c0-3.7,2.7-9.1,2.7-9.1s17.4-0.9,25.6,0
		c2.7,0.3,9.1,9.1,9.1,9.1"/>
	<polyline class="st1" points="24.8,32.5 26.6,40.7 26.6,51.7 	"/>
	<line class="st1" x1="30.2" y1="46.2" x2="32.1" y2="46.2"/>
	<line class="st1" x1="16.9" y1="46.2" x2="18.9" y2="46.2"/>
	<line class="st1" x1="13.8" y1="32.5" x2="12.9" y2="41.6"/>
	<line class="st1" x1="11.1" y1="31.6" x2="11.1" y2="30.7"/>
	<line class="st1" x1="26.6" y1="31.6" x2="26.6" y2="30.7"/>
	<line class="st1" x1="12.9" y1="41.6" x2="12.9" y2="46.7"/>
</g>
</svg>
