<svg xmlns="http://www.w3.org/2000/svg" width="60" height="60" viewBox="0 0 60 60">
  <defs>
    <style>
      .a, .b {
        fill: none;
        stroke-linecap: round;
        stroke-linejoin: round;
        stroke-width: 2px;
      }

      .a {
        stroke: #000;
      }

      .b {
        stroke: #ba0c2f;
      }
    </style>
  </defs>
  <title>piggy-bank</title>
  <g>
    <path class="a" d="M44.52,16.51q-.89-.53-1.83-1"/>
    <path class="a" d="M53.37,26.55a18.46,18.46,0,0,0-2.94-5"/>
    <path class="a" d="M46.5,47.16a20,20,0,0,0,6.87-8.71"/>
    <path class="a" d="M17.81,50.18A30.59,30.59,0,0,0,42,49.83"/>
    <path class="a" d="M16.31,15.51C9.22,19,4.5,25.33,4.5,32.5c0,6.18,3.5,11.7,9,15.37"/>
    <path class="b" d="M39,19.33a23.21,23.21,0,0,0-19,0"/>
    <polyline class="a" points="53.5 26.5 58.5 26.5 58.5 38.5 53.5 38.5"/>
    <path class="a" d="M4.5,32.5h0a3,3,0,0,1-3-3v-4"/>
    <path class="b" d="M23.24,18.15a9.5,9.5,0,1,1,12.52,0"/>
    <polyline class="a" points="13.5 47.87 13.5 58.5 20.5 58.5 21.1 51.34"/>
    <polyline class="a" points="38.88 51.04 39.5 58.5 46.5 58.5 46.5 47.16"/>
    <polyline class="a" points="44.5 16.5 50.96 12.96 50.5 21.5"/>
    <path class="a" d="M43,26.08a2.5,2.5,0,0,1,5,0"/>
    <path class="b" d="M27.5,8.5a2,2,0,0,1,2-2"/>
    <line class="b" x1="27.5" y1="8.5" x2="27.5" y2="13.5"/>
    <line class="b" x1="26.5" y1="13.5" x2="31.5" y2="13.5"/>
    <line class="b" x1="27.5" y1="9.5" x2="29.5" y2="9.5"/>
  </g>
</svg>
